<svg xmlns="http://www.w3.org/2000/svg" width="152" height="152" viewBox="0 0 152 152">
  <g id="Grupo_117857" data-name="Grupo 117857" transform="translate(-598 -3625)">
    <g id="Elipse_6659" data-name="Elipse 6659" transform="translate(598 3625)" fill="#fff" stroke="#ffca28" stroke-width="4">
      <circle cx="76" cy="76" r="76" stroke="none"/>
      <circle cx="76" cy="76" r="74" fill="none"/>
    </g>
    <path id="Trazado_232556" data-name="Trazado 232556" d="M38.986,9.672h5.127V24.306a7,7,0,0,1-.945,3.633,6.45,6.45,0,0,1-2.637,2.476,8.058,8.058,0,0,1-3.772.879,7.768,7.768,0,0,1-5.42-1.758,6.388,6.388,0,0,1-1.934-4.98h5.156a3.521,3.521,0,0,0,.505,2.124,2,2,0,0,0,1.692.659,1.914,1.914,0,0,0,1.648-.8,3.752,3.752,0,0,0,.579-2.234ZM56.564,29.286a5.09,5.09,0,0,1-4.233,2.007,4.992,4.992,0,0,1-3.948-1.516,6.376,6.376,0,0,1-1.34-4.358V15.15h4.937v10.3a1.774,1.774,0,0,0,1.978,2.036,2.58,2.58,0,0,0,2.417-1.216V15.15h4.966V31H56.71ZM68.576,15.15l.161,1.86a5.375,5.375,0,0,1,4.526-2.153,4.522,4.522,0,0,1,3.7,1.479,7.044,7.044,0,0,1,1.267,4.453V31H73.278V21a2.675,2.675,0,0,0-.483-1.765,2.236,2.236,0,0,0-1.758-.564,2.354,2.354,0,0,0-2.153,1.143V31H63.947V15.15ZM86.168,31H81.217V15.15h4.951ZM80.924,11.063a2.2,2.2,0,0,1,.762-1.729,3.239,3.239,0,0,1,3.955,0,2.2,2.2,0,0,1,.762,1.729,2.2,2.2,0,0,1-.762,1.729,3.239,3.239,0,0,1-3.955,0A2.2,2.2,0,0,1,80.924,11.063Zm14.033.146v3.94h2.607v3.428H94.958v7.251a1.851,1.851,0,0,0,.322,1.245,1.729,1.729,0,0,0,1.274.352,7.242,7.242,0,0,0,1.23-.088v3.53A9.11,9.11,0,0,1,95,31.293a5.171,5.171,0,0,1-3.765-1.2,4.923,4.923,0,0,1-1.216-3.647V18.578H88V15.15h2.021V11.21Z" transform="translate(611 3682)" fill="#ffca28"/>
  </g>
</svg>
