<svg xmlns="http://www.w3.org/2000/svg" width="152" height="152" viewBox="0 0 152 152">
  <g id="Grupo_117856" data-name="Grupo 117856" transform="translate(-346 -3625)">
    <g id="Elipse_6658" data-name="Elipse 6658" transform="translate(346 3625)" fill="#fff" stroke="#4dd0e1" stroke-width="4">
      <circle cx="76" cy="76" r="76" stroke="none"/>
      <circle cx="76" cy="76" r="74" fill="none"/>
    </g>
    <path id="Trazado_232555" data-name="Trazado 232555" d="M35.792,16.762l3.486-7.09h5.874L39.191,20.248,45.314,31H39.381l-3.589-7.222L32.2,31H26.286l6.108-10.752L26.447,9.672h5.859Zm27.92-7.09v13.96A8.023,8.023,0,0,1,62.7,27.741a6.548,6.548,0,0,1-2.9,2.644,10.218,10.218,0,0,1-4.468.908A8.827,8.827,0,0,1,49.2,29.271a7.21,7.21,0,0,1-2.285-5.537V9.672h5.171V23.837q.088,3.5,3.252,3.5a3.148,3.148,0,0,0,2.417-.879,4.108,4.108,0,0,0,.82-2.856V9.672Zm7.515,5.479.161,1.86a5.375,5.375,0,0,1,4.526-2.153,4.522,4.522,0,0,1,3.7,1.479A7.044,7.044,0,0,1,80.88,20.79V31H75.929V21a2.675,2.675,0,0,0-.483-1.765,2.236,2.236,0,0,0-1.758-.564,2.354,2.354,0,0,0-2.153,1.143V31H66.6V15.15ZM88.82,31H83.869V15.15H88.82ZM83.576,11.063a2.2,2.2,0,0,1,.762-1.729,3.239,3.239,0,0,1,3.955,0,2.2,2.2,0,0,1,.762,1.729,2.2,2.2,0,0,1-.762,1.729,3.239,3.239,0,0,1-3.955,0A2.2,2.2,0,0,1,83.576,11.063Zm14.033.146v3.94h2.607v3.428H97.609v7.251a1.851,1.851,0,0,0,.322,1.245,1.729,1.729,0,0,0,1.274.352,7.242,7.242,0,0,0,1.23-.088v3.53a9.11,9.11,0,0,1-2.783.425,5.171,5.171,0,0,1-3.765-1.2,4.923,4.923,0,0,1-1.216-3.647V18.578H90.651V15.15h2.021V11.21Z" transform="translate(359 3682)" fill="#4dd0e1"/>
  </g>
</svg>
