<svg xmlns="http://www.w3.org/2000/svg" width="152" height="152" viewBox="0 0 152 152">
  <g id="Grupo_117858" data-name="Grupo 117858" transform="translate(-850 -3625)">
    <g id="Elipse_6660" data-name="Elipse 6660" transform="translate(850 3625)" fill="#fff" stroke="#039be5" stroke-width="4">
      <circle cx="76" cy="76" r="76" stroke="none"/>
      <circle cx="76" cy="76" r="74" fill="none"/>
    </g>
    <path id="Trazado_232557" data-name="Trazado 232557" d="M46.2,31H41.088L33.529,17.729V31H28.388V9.672h5.142l7.544,13.271V9.672H46.2Zm12.466-1.714a5.09,5.09,0,0,1-4.233,2.007,4.992,4.992,0,0,1-3.948-1.516,6.376,6.376,0,0,1-1.34-4.358V15.15h4.937v10.3a1.774,1.774,0,0,0,1.978,2.036,2.58,2.58,0,0,0,2.417-1.216V15.15h4.966V31H58.813ZM70.678,15.15l.161,1.86a5.375,5.375,0,0,1,4.526-2.153,4.522,4.522,0,0,1,3.7,1.479,7.044,7.044,0,0,1,1.267,4.453V31H75.38V21A2.675,2.675,0,0,0,74.9,19.23a2.236,2.236,0,0,0-1.758-.564,2.354,2.354,0,0,0-2.153,1.143V31H66.049V15.15ZM88.271,31H83.319V15.15h4.951ZM83.026,11.063a2.2,2.2,0,0,1,.762-1.729,3.239,3.239,0,0,1,3.955,0,2.2,2.2,0,0,1,.762,1.729,2.2,2.2,0,0,1-.762,1.729,3.239,3.239,0,0,1-3.955,0A2.2,2.2,0,0,1,83.026,11.063Zm14.033.146v3.94h2.607v3.428H97.06v7.251a1.851,1.851,0,0,0,.322,1.245,1.729,1.729,0,0,0,1.274.352,7.242,7.242,0,0,0,1.23-.088v3.53a9.11,9.11,0,0,1-2.783.425,5.171,5.171,0,0,1-3.765-1.2,4.923,4.923,0,0,1-1.216-3.647V18.578H90.1V15.15h2.021V11.21Z" transform="translate(863 3682)" fill="#039be5"/>
  </g>
</svg>
