<svg xmlns="http://www.w3.org/2000/svg" width="152" height="152" viewBox="0 0 152 152">
  <g id="Grupo_117859" data-name="Grupo 117859" transform="translate(-1102 -3625)">
    <g id="Elipse_6661" data-name="Elipse 6661" transform="translate(1102 3625)" fill="#fff" stroke="#ffa726" stroke-width="4">
      <circle cx="76" cy="76" r="76" stroke="none"/>
      <circle cx="76" cy="76" r="74" fill="none"/>
    </g>
    <path id="Trazado_232558" data-name="Trazado 232558" d="M15.878,23.764V31H10.736V9.672h8.511a9.913,9.913,0,0,1,4.329.9,6.789,6.789,0,0,1,2.915,2.563,7,7,0,0,1,1.033,3.772A6.171,6.171,0,0,1,25.29,21.9a9.269,9.269,0,0,1-6.13,1.868Zm0-3.97h3.369a3.177,3.177,0,0,0,2.278-.747,2.776,2.776,0,0,0,.784-2.109A3.431,3.431,0,0,0,21.5,14.55a2.853,2.853,0,0,0-2.2-.908H15.878ZM34.862,16.85a4.94,4.94,0,0,1,4.043-1.992A4.926,4.926,0,0,1,42.86,16.41,6.977,6.977,0,0,1,44.223,21V31H39.271V21.112a2.79,2.79,0,0,0-.513-1.853,2.2,2.2,0,0,0-1.743-.593,2.373,2.373,0,0,0-2.153.967V31H29.926V8.5h4.937Zm26.821,6.343a9.558,9.558,0,0,1-1.663,5.9,5.331,5.331,0,0,1-4.49,2.2,4.569,4.569,0,0,1-3.589-1.6v7.4H47.006V15.15H51.62l.146,1.465A4.57,4.57,0,0,1,55.5,14.857a5.374,5.374,0,0,1,4.556,2.161,9.676,9.676,0,0,1,1.626,5.94Zm-4.937-.308q0-4.219-2.461-4.219a2.323,2.323,0,0,0-2.344,1.26v6.24a2.4,2.4,0,0,0,2.373,1.318q2.358,0,2.432-4.072ZM80.814,9.672v13.96A8.023,8.023,0,0,1,79.8,27.741a6.548,6.548,0,0,1-2.9,2.644,10.218,10.218,0,0,1-4.468.908A8.827,8.827,0,0,1,66.3,29.271a7.21,7.21,0,0,1-2.285-5.537V9.672h5.171V23.837q.088,3.5,3.252,3.5a3.148,3.148,0,0,0,2.417-.879,4.108,4.108,0,0,0,.82-2.856V9.672Zm7.515,5.479.161,1.86a5.375,5.375,0,0,1,4.526-2.153,4.522,4.522,0,0,1,3.7,1.479,7.044,7.044,0,0,1,1.267,4.453V31H93.031V21a2.675,2.675,0,0,0-.483-1.765,2.236,2.236,0,0,0-1.758-.564,2.354,2.354,0,0,0-2.153,1.143V31H83.7V15.15ZM105.922,31h-4.951V15.15h4.951Zm-5.244-19.937a2.2,2.2,0,0,1,.762-1.729,3.239,3.239,0,0,1,3.955,0,2.2,2.2,0,0,1,.762,1.729,2.2,2.2,0,0,1-.762,1.729,3.239,3.239,0,0,1-3.955,0A2.2,2.2,0,0,1,100.678,11.063Zm14.033.146v3.94h2.607v3.428h-2.607v7.251a1.851,1.851,0,0,0,.322,1.245,1.729,1.729,0,0,0,1.274.352,7.242,7.242,0,0,0,1.23-.088v3.53a9.11,9.11,0,0,1-2.783.425,5.171,5.171,0,0,1-3.765-1.2,4.923,4.923,0,0,1-1.216-3.647V18.578h-2.021V15.15h2.021V11.21Z" transform="translate(1115 3682)" fill="#ffa726"/>
  </g>
</svg>
