<svg xmlns="http://www.w3.org/2000/svg" width="52" height="52" viewBox="0 0 52 52">
  <g id="Grupo_117864" data-name="Grupo 117864" transform="translate(-312 -5896.719)">
    <circle id="Elipse_7015" data-name="Elipse 7015" cx="26" cy="26" r="26" transform="translate(312 5896.719)" fill="#4dd0e1"/>
    <path id="Trazado_232564" data-name="Trazado 232564" d="M1.6,20.582,2.9,9.672H15.366V13.51H6.914l-.483,4.237A5.822,5.822,0,0,1,7.815,17.2a6.316,6.316,0,0,1,1.677-.235,6.257,6.257,0,0,1,4.885,1.882,7.582,7.582,0,0,1,1.707,5.281,7.569,7.569,0,0,1-.916,3.713A6.293,6.293,0,0,1,12.6,30.4a8.116,8.116,0,0,1-3.911.894,8.733,8.733,0,0,1-3.765-.827A6.754,6.754,0,0,1,2.168,28.2a5.513,5.513,0,0,1-.981-3.257H6.138A2.8,2.8,0,0,0,6.885,26.8a2.371,2.371,0,0,0,1.772.687q2.49,0,2.49-3.684,0-3.406-3.047-3.406a3.04,3.04,0,0,0-2.578,1.111Z" transform="translate(330 5904.066)" fill="#fff"/>
  </g>
</svg>
