<svg xmlns="http://www.w3.org/2000/svg" xmlns:xlink="http://www.w3.org/1999/xlink" width="381.109" height="185.604" viewBox="0 0 381.109 185.604">
  <defs>
    <clipPath id="clip-path">
      <rect id="Rectángulo_48364" data-name="Rectángulo 48364" width="381.109" height="185.604" fill="none"/>
    </clipPath>
    <clipPath id="clip-path-2">
      <rect id="Rectángulo_48365" data-name="Rectángulo 48365" width="46.584" height="43.01" fill="none"/>
    </clipPath>
  </defs>
  <g id="Grupo_117835" data-name="Grupo 117835" transform="translate(-915 -11888.349)">
    <g id="Grupo_114151" data-name="Grupo 114151" transform="translate(915 11888.347)">
      <g id="Grupo_114144" data-name="Grupo 114144" transform="translate(0 0.002)">
        <g id="Grupo_114143" data-name="Grupo 114143" transform="translate(0 0)" clip-path="url(#clip-path)">
          <path id="Trazado_224342" data-name="Trazado 224342" d="M2043.089,895.816h-73.021V822.671a3.78,3.78,0,0,1,3.78-3.78h65.461a3.78,3.78,0,0,1,3.78,3.78Z" transform="translate(-1712.22 -711.712)" fill="#5b4e99"/>
          <rect id="Rectángulo_48296" data-name="Rectángulo 48296" width="28.38" height="64.848" transform="translate(229.918 116.467)" fill="#aae0ff"/>
          <rect id="Rectángulo_48297" data-name="Rectángulo 48297" width="28.38" height="0.288" transform="translate(229.976 125.807)" fill="#61c6ff"/>
          <rect id="Rectángulo_48298" data-name="Rectángulo 48298" width="28.38" height="0.288" transform="translate(229.976 155.217)" fill="#61c6ff"/>
          <path id="Rectángulo_48299" data-name="Rectángulo 48299" d="M5.087,0H19.769a5.088,5.088,0,0,1,5.088,5.088V19.034a5.088,5.088,0,0,1-5.088,5.088H5.087A5.087,5.087,0,0,1,0,19.035V5.087A5.087,5.087,0,0,1,5.087,0Z" transform="translate(231.567 128.521)" fill="#e6f9ff"/>
          <path id="Trazado_224343" data-name="Trazado 224343" d="M1837.3,999.183h6.691a.735.735,0,0,0,0-1.47H1837.3a.735.735,0,1,0,0,1.47" transform="translate(-1596.189 -867.129)" fill="#42377a"/>
          <path id="Trazado_224344" data-name="Trazado 224344" d="M1757.859,889.828l.238,64.628h-1.551V889.823Z" transform="translate(-1526.644 -773.361)" fill="#332c57"/>
          <rect id="Rectángulo_48300" data-name="Rectángulo 48300" width="24.036" height="66.176" transform="translate(175.835 117.815)" fill="#5b4e99"/>
          <path id="Trazado_224345" data-name="Trazado 224345" d="M1391.406,904.432H1439.2v-73.4a2.1,2.1,0,0,0-2.1-2.1h-43.594a2.1,2.1,0,0,0-2.1,2.1Z" transform="translate(-1209.295 -720.441)" fill="#48c6c6"/>
          <rect id="Rectángulo_48301" data-name="Rectángulo 48301" width="1.642" height="13.011" transform="translate(221.906 165.668)" fill="#312a52"/>
          <rect id="Rectángulo_48302" data-name="Rectángulo 48302" width="1.642" height="13.011" transform="translate(218.718 165.668)" fill="#312a52"/>
          <rect id="Rectángulo_48303" data-name="Rectángulo 48303" width="1.642" height="13.011" transform="translate(215.53 165.668)" fill="#312a52"/>
          <rect id="Rectángulo_48304" data-name="Rectángulo 48304" width="1.642" height="13.011" transform="translate(212.342 165.668)" fill="#312a52"/>
          <rect id="Rectángulo_48305" data-name="Rectángulo 48305" width="1.642" height="13.011" transform="translate(209.153 165.668)" fill="#312a52"/>
          <rect id="Rectángulo_48306" data-name="Rectángulo 48306" width="1.642" height="13.011" transform="translate(205.965 165.668)" fill="#312a52"/>
          <rect id="Rectángulo_48307" data-name="Rectángulo 48307" width="1.642" height="13.011" transform="translate(202.777 165.668)" fill="#312a52"/>
          <rect id="Rectángulo_48308" data-name="Rectángulo 48308" width="43.58" height="1.003" transform="translate(184.463 107.448)" fill="#299999"/>
          <path id="Trazado_224346" data-name="Trazado 224346" d="M1415.978,899.555h40.093a.786.786,0,0,0,.786-.786V855.985a.786.786,0,0,0-.786-.786h-40.093a.786.786,0,0,0-.786.786v42.784a.786.786,0,0,0,.786.786" transform="translate(-1229.968 -743.268)" fill="#82eded"/>
          <path id="Trazado_224347" data-name="Trazado 224347" d="M1459.472,910.891h28.85a.929.929,0,0,0,.929-.929v-9.687a.929.929,0,0,0-.929-.929h-28.85a.929.929,0,0,0-.929.929v9.687a.929.929,0,0,0,.929.929" transform="translate(-1267.645 -781.638)" fill="#299999"/>
          <rect id="Rectángulo_48309" data-name="Rectángulo 48309" width="2.481" height="1.629" transform="translate(209.556 125.922)" fill="#82eded"/>
          <rect id="Rectángulo_48310" data-name="Rectángulo 48310" width="2.481" height="1.629" transform="translate(209.556 123.997)" fill="#82eded"/>
          <rect id="Rectángulo_48311" data-name="Rectángulo 48311" width="2.481" height="1.629" transform="translate(209.556 122.073)" fill="#82eded"/>
          <rect id="Rectángulo_48312" data-name="Rectángulo 48312" width="2.481" height="1.629" transform="translate(209.556 120.148)" fill="#82eded"/>
          <rect id="Rectángulo_48313" data-name="Rectángulo 48313" width="2.481" height="1.629" transform="translate(206.683 125.922)" fill="#82eded"/>
          <rect id="Rectángulo_48314" data-name="Rectángulo 48314" width="2.481" height="1.629" transform="translate(206.683 123.997)" fill="#82eded"/>
          <rect id="Rectángulo_48315" data-name="Rectángulo 48315" width="2.481" height="1.629" transform="translate(206.683 122.073)" fill="#82eded"/>
          <rect id="Rectángulo_48316" data-name="Rectángulo 48316" width="2.481" height="1.629" transform="translate(197.982 125.922)" fill="#82eded"/>
          <rect id="Rectángulo_48317" data-name="Rectángulo 48317" width="2.481" height="1.629" transform="translate(197.982 123.997)" fill="#82eded"/>
          <rect id="Rectángulo_48318" data-name="Rectángulo 48318" width="2.481" height="1.629" transform="translate(197.982 122.073)" fill="#82eded"/>
          <rect id="Rectángulo_48319" data-name="Rectángulo 48319" width="2.481" height="1.629" transform="translate(203.765 125.922)" fill="#82eded"/>
          <rect id="Rectángulo_48320" data-name="Rectángulo 48320" width="2.481" height="1.629" transform="translate(203.765 123.997)" fill="#82eded"/>
          <rect id="Rectángulo_48321" data-name="Rectángulo 48321" width="2.481" height="1.629" transform="translate(203.765 122.073)" fill="#82eded"/>
          <rect id="Rectángulo_48322" data-name="Rectángulo 48322" width="2.481" height="1.629" transform="translate(203.765 120.148)" fill="#82eded"/>
          <rect id="Rectángulo_48323" data-name="Rectángulo 48323" width="2.481" height="1.629" transform="translate(200.892 125.922)" fill="#82eded"/>
          <rect id="Rectángulo_48324" data-name="Rectángulo 48324" width="2.481" height="1.629" transform="translate(215.348 125.922)" fill="#82eded"/>
          <rect id="Rectángulo_48325" data-name="Rectángulo 48325" width="2.481" height="1.629" transform="translate(200.892 123.997)" fill="#82eded"/>
          <rect id="Rectángulo_48326" data-name="Rectángulo 48326" width="2.481" height="1.629" transform="translate(212.429 125.922)" fill="#82eded"/>
          <rect id="Rectángulo_48327" data-name="Rectángulo 48327" width="2.481" height="1.629" transform="translate(212.429 123.997)" fill="#82eded"/>
          <rect id="Rectángulo_48328" data-name="Rectángulo 48328" width="2.481" height="1.629" transform="translate(195.146 125.922)" fill="#82eded"/>
          <rect id="Rectángulo_48329" data-name="Rectángulo 48329" width="2.481" height="1.629" transform="translate(195.146 123.997)" fill="#82eded"/>
          <path id="Trazado_224348" data-name="Trazado 224348" d="M1466.247,1029.69a5.154,5.154,0,1,0,5.154-5.154,5.154,5.154,0,0,0-5.154,5.154" transform="translate(-1274.34 -890.442)" fill="#a6ffff"/>
          <path id="Trazado_224349" data-name="Trazado 224349" d="M1521.007,1040.892l-1.75,1.653a2.264,2.264,0,0,1,.494,1.379h2.4a4.662,4.662,0,0,0-1.148-3.032" transform="translate(-1320.412 -904.657)" fill="#299999"/>
          <path id="Trazado_224350" data-name="Trazado 224350" d="M1509.449,1029.8a4.662,4.662,0,0,0-3.035-1.206l.033,2.405a2.263,2.263,0,0,1,1.244.462Z" transform="translate(-1309.25 -893.964)" fill="#299999"/>
          <path id="Trazado_224351" data-name="Trazado 224351" d="M1481.153,1029.994l1.724,1.681a2.277,2.277,0,0,1,1.05-.5l-.033-2.421a4.661,4.661,0,0,0-2.741,1.245" transform="translate(-1287.295 -894.104)" fill="#299999"/>
          <path id="Trazado_224352" data-name="Trazado 224352" d="M1469.853,1044.363h2.4a2.27,2.27,0,0,1,.419-1.278l-1.731-1.688a4.663,4.663,0,0,0-1.091,2.966" transform="translate(-1277.474 -905.096)" fill="#299999"/>
          <path id="Trazado_224353" data-name="Trazado 224353" d="M1485.537,1056.344h0a.278.278,0,0,0-.174-.352l-2.754-.934a.278.278,0,0,0-.178.526l2.754.934a.278.278,0,0,0,.352-.174" transform="translate(-1288.242 -916.956)" fill="#312a52"/>
          <path id="Trazado_224354" data-name="Trazado 224354" d="M1601.872,1029.69a5.154,5.154,0,1,0,5.154-5.154,5.154,5.154,0,0,0-5.154,5.154" transform="translate(-1392.214 -890.442)" fill="#a6ffff"/>
          <path id="Trazado_224355" data-name="Trazado 224355" d="M1656.632,1040.892l-1.75,1.653a2.266,2.266,0,0,1,.494,1.379h2.4a4.664,4.664,0,0,0-1.148-3.032" transform="translate(-1438.286 -904.657)" fill="#299999"/>
          <path id="Trazado_224356" data-name="Trazado 224356" d="M1645.074,1029.8a4.661,4.661,0,0,0-3.035-1.206l.033,2.405a2.263,2.263,0,0,1,1.244.462Z" transform="translate(-1427.124 -893.964)" fill="#299999"/>
          <path id="Trazado_224357" data-name="Trazado 224357" d="M1616.778,1029.994l1.724,1.681a2.277,2.277,0,0,1,1.05-.5l-.033-2.421a4.662,4.662,0,0,0-2.741,1.245" transform="translate(-1405.169 -894.104)" fill="#299999"/>
          <path id="Trazado_224358" data-name="Trazado 224358" d="M1605.478,1044.363h2.4a2.269,2.269,0,0,1,.419-1.278l-1.731-1.688a4.663,4.663,0,0,0-1.091,2.966" transform="translate(-1395.348 -905.096)" fill="#299999"/>
          <path id="Trazado_224359" data-name="Trazado 224359" d="M1639.319,1043.667h0a.279.279,0,0,0,.358-.163l1.021-2.723a.278.278,0,1,0-.52-.195l-1.021,2.723a.279.279,0,0,0,.163.358" transform="translate(-1424.604 -904.234)" fill="#312a52"/>
          <path id="Trazado_224360" data-name="Trazado 224360" d="M1568.5,1034.329a.637.637,0,1,0,.637-.637.637.637,0,0,0-.637.637" transform="translate(-1363.212 -898.4)" fill="#48c6c6"/>
          <path id="Trazado_224361" data-name="Trazado 224361" d="M1568.5,1050.984a.637.637,0,1,0,.637-.637.637.637,0,0,0-.637.637" transform="translate(-1363.212 -912.875)" fill="#48c6c6"/>
          <path id="Trazado_224362" data-name="Trazado 224362" d="M1568.5,1067.639a.637.637,0,1,0,.637-.637.637.637,0,0,0-.637.637" transform="translate(-1363.212 -927.35)" fill="#48c6c6"/>
          <path id="Trazado_224363" data-name="Trazado 224363" d="M1568.5,1084.294a.637.637,0,1,0,.637-.637.637.637,0,0,0-.637.637" transform="translate(-1363.212 -941.825)" fill="#48c6c6"/>
          <path id="Trazado_224364" data-name="Trazado 224364" d="M1654.352,1131.753h0a1.585,1.585,0,1,0-1.585-1.585,1.585,1.585,0,0,0,1.585,1.585" transform="translate(-1436.448 -980.87)" fill="#48c6c6"/>
          <path id="Trazado_224365" data-name="Trazado 224365" d="M1617.79,1131.753h0a1.585,1.585,0,1,0-1.585-1.585,1.585,1.585,0,0,0,1.585,1.585" transform="translate(-1404.671 -980.87)" fill="#48c6c6"/>
          <path id="Trazado_224366" data-name="Trazado 224366" d="M1581.228,1131.753h0a1.585,1.585,0,1,0-1.585-1.585,1.585,1.585,0,0,0,1.585,1.585" transform="translate(-1372.895 -980.87)" fill="#299999"/>
          <path id="Trazado_224367" data-name="Trazado 224367" d="M1544.667,1131.753h0a1.585,1.585,0,1,0-1.585-1.585,1.585,1.585,0,0,0,1.585,1.585" transform="translate(-1341.119 -980.87)" fill="#48c6c6"/>
          <path id="Trazado_224368" data-name="Trazado 224368" d="M1508.106,1131.753h0a1.585,1.585,0,1,0-1.586-1.585,1.585,1.585,0,0,0,1.586,1.585" transform="translate(-1309.342 -980.87)" fill="#48c6c6"/>
          <path id="Trazado_224369" data-name="Trazado 224369" d="M1471.543,1131.753h0a1.585,1.585,0,1,0-1.585-1.585,1.585,1.585,0,0,0,1.585,1.585" transform="translate(-1277.566 -980.87)" fill="#299999"/>
          <rect id="Rectángulo_48330" data-name="Rectángulo 48330" width="86.857" height="2.789" transform="translate(171.426 181.219)" fill="#312a52"/>
          <rect id="Rectángulo_48331" data-name="Rectángulo 48331" width="5.353" height="30.047" transform="translate(307.932 153.695)" fill="#1f9999"/>
          <rect id="Rectángulo_48332" data-name="Rectángulo 48332" width="16.239" height="30.047" transform="translate(312.368 153.695)" fill="#48c6c6"/>
          <rect id="Rectángulo_48333" data-name="Rectángulo 48333" width="5.353" height="31.17" transform="translate(268.541 152.572)" fill="#82eded"/>
          <rect id="Rectángulo_48334" data-name="Rectángulo 48334" width="16.239" height="30.047" transform="translate(272.977 153.695)" fill="#48c6c6"/>
          <path id="Trazado_224370" data-name="Trazado 224370" d="M2096.513,1352.56v4.845h2.428l.368-.562h7.335l.368.562H2110v-4.845Z" transform="translate(-1822.116 -1175.533)" fill="#82eded"/>
          <path id="Trazado_224371" data-name="Trazado 224371" d="M2096.513,1299.431v4.845h2.428l.368-.562h7.335l.368.562H2110v-4.845Z" transform="translate(-1822.116 -1129.357)" fill="#82eded"/>
          <path id="Trazado_224372" data-name="Trazado 224372" d="M2096.513,1246.3v4.845h2.428l.368-.562h7.335l.368.562H2110V1246.3Z" transform="translate(-1822.116 -1083.182)" fill="#82eded"/>
          <path id="Trazado_224373" data-name="Trazado 224373" d="M2096.513,1193.171v4.845h2.428l.368-.562h7.335l.368.562H2110v-4.845Z" transform="translate(-1822.116 -1037.005)" fill="#82eded"/>
          <rect id="Rectángulo_48335" data-name="Rectángulo 48335" width="55.654" height="1.22" transform="translate(272.977 152.58)" fill="#48c6c6"/>
          <path id="Trazado_224374" data-name="Trazado 224374" d="M2396.457,1352.56v4.845h2.428l.368-.562h7.335l.368.562h2.985v-4.845Z" transform="translate(-2082.802 -1175.533)" fill="#82eded"/>
          <path id="Trazado_224375" data-name="Trazado 224375" d="M2396.457,1299.431v4.845h2.428l.368-.562h7.335l.368.562h2.985v-4.845Z" transform="translate(-2082.802 -1129.357)" fill="#82eded"/>
          <path id="Trazado_224376" data-name="Trazado 224376" d="M2396.457,1246.3v4.845h2.428l.368-.562h7.335l.368.562h2.985V1246.3Z" transform="translate(-2082.802 -1083.182)" fill="#82eded"/>
          <path id="Trazado_224377" data-name="Trazado 224377" d="M2396.457,1193.171v4.845h2.428l.368-.562h7.335l.368.562h2.985v-4.845Z" transform="translate(-2082.802 -1037.005)" fill="#82eded"/>
          <path id="Trazado_224378" data-name="Trazado 224378" d="M1883.451,723.567h-5.187V705.82a7.436,7.436,0,0,1,7.428-7.428h22.382a7.436,7.436,0,0,1,7.428,7.428v8.327h-5.187V705.82a2.243,2.243,0,0,0-2.241-2.241h-22.382a2.243,2.243,0,0,0-2.24,2.241Z" transform="translate(-1632.431 -606.985)" fill="#6369cc"/>
          <rect id="Rectángulo_48336" data-name="Rectángulo 48336" width="10.772" height="1.369" transform="translate(233.938 105.843)" fill="#6369cc"/>
          <rect id="Rectángulo_48337" data-name="Rectángulo 48337" width="10.772" height="1.369" transform="translate(242.985 115.246)" fill="#6369cc"/>
          <path id="Trazado_224379" data-name="Trazado 224379" d="M1588.462,1089.177a.618.618,0,1,0,.618-.618.618.618,0,0,0-.618.618" transform="translate(-1380.56 -946.085)" fill="#3f366b"/>
          <path id="Trazado_224380" data-name="Trazado 224380" d="M1573.958,1089.177a.618.618,0,1,0,.618-.618.618.618,0,0,0-.618.618" transform="translate(-1367.954 -946.085)" fill="#3f366b"/>
          <path id="Trazado_224381" data-name="Trazado 224381" d="M1559.454,1089.177a.618.618,0,1,0,.618-.618.618.618,0,0,0-.618.618" transform="translate(-1355.348 -946.085)" fill="#3f366b"/>
          <path id="Trazado_224382" data-name="Trazado 224382" d="M1544.951,1089.177a.618.618,0,1,0,.618-.618.618.618,0,0,0-.618.618" transform="translate(-1342.743 -946.085)" fill="#3f366b"/>
          <path id="Trazado_224383" data-name="Trazado 224383" d="M1530.447,1089.177a.618.618,0,1,0,.618-.618.618.618,0,0,0-.618.618" transform="translate(-1330.138 -946.085)" fill="#3f366b"/>
          <path id="Trazado_224384" data-name="Trazado 224384" d="M1515.943,1089.177a.618.618,0,1,0,.618-.618.618.618,0,0,0-.618.618" transform="translate(-1317.532 -946.085)" fill="#3f366b"/>
          <path id="Trazado_224385" data-name="Trazado 224385" d="M1501.44,1089.177a.618.618,0,1,0,.618-.618.618.618,0,0,0-.618.618" transform="translate(-1304.927 -946.085)" fill="#3f366b"/>
          <path id="Trazado_224386" data-name="Trazado 224386" d="M2284.159,896.755h-26.82a2.476,2.476,0,0,1-2.476-2.476V874.034a2.476,2.476,0,0,1,2.476-2.477h26.82a2.477,2.477,0,0,1,2.477,2.477v20.245a2.477,2.477,0,0,1-2.477,2.476" transform="translate(-1959.739 -757.485)" fill="#6ce6e6"/>
          <path id="Trazado_224387" data-name="Trazado 224387" d="M2308.4,925.8H2284.08a.059.059,0,0,1,0-.117H2308.4a.059.059,0,0,1,0,.117" transform="translate(-1985.082 -804.526)" fill="#fff"/>
          <path id="Trazado_224388" data-name="Trazado 224388" d="M2308.4,990.336H2284.08a.059.059,0,0,1,0-.117H2308.4a.059.059,0,0,1,0,.117" transform="translate(-1985.082 -860.616)" fill="#fff"/>
          <path id="Trazado_224389" data-name="Trazado 224389" d="M2308.4,958.907H2284.08a.059.059,0,0,1,0-.117H2308.4a.059.059,0,0,1,0,.117" transform="translate(-1985.082 -833.301)" fill="#fff"/>
          <path id="Trazado_224390" data-name="Trazado 224390" d="M2307.689,923.022h-24.436l-.05-15.063a.117.117,0,0,1,.115-.118h0a.116.116,0,0,1,.116.117l.049,14.83h24.206a.117.117,0,0,1,0,.235" transform="translate(-1984.371 -789.02)" fill="#fff"/>
          <path id="Trazado_224391" data-name="Trazado 224391" d="M2303.981,937.984l-8.942,8.713-4.608-4.133-6.814,6.453a.118.118,0,0,0-.006.166.115.115,0,0,0,.164.006l6.661-6.307,4.61,4.135,8.936-8.706Z" transform="translate(-1984.698 -815.218)" fill="#fff"/>
          <path id="Trazado_224392" data-name="Trazado 224392" d="M2332.439,970.127a.621.621,0,1,1-.621-.629.625.625,0,0,1,.621.629" transform="translate(-2026.084 -842.608)" fill="#fff"/>
          <path id="Trazado_224393" data-name="Trazado 224393" d="M2368.223,1001.136a.621.621,0,1,1-.62-.629.625.625,0,0,1,.62.629" transform="translate(-2057.184 -869.558)" fill="#fff"/>
          <path id="Trazado_224394" data-name="Trazado 224394" d="M2436.517,934.311a.621.621,0,1,1-.621-.629.625.625,0,0,1,.621.629" transform="translate(-2116.54 -811.479)" fill="#fff"/>
          <path id="Trazado_224395" data-name="Trazado 224395" d="M2024.275,897.193H2047.4a1.706,1.706,0,0,0,1.706-1.706V873.421a1.706,1.706,0,0,0-1.706-1.706h-23.127a1.706,1.706,0,0,0-1.706,1.706v22.066a1.706,1.706,0,0,0,1.706,1.706" transform="translate(-1757.849 -757.623)" fill="#6ce6e6"/>
          <rect id="Rectángulo_48338" data-name="Rectángulo 48338" width="2.51" height="7.351" transform="translate(283.996 127.963)" fill="#fdfdff"/>
          <rect id="Rectángulo_48339" data-name="Rectángulo 48339" width="2.51" height="8.46" transform="translate(280.498 126.855)" fill="#fdfdff"/>
          <rect id="Rectángulo_48340" data-name="Rectángulo 48340" width="2.51" height="10.708" transform="translate(276.999 124.607)" fill="#fdfdff"/>
          <rect id="Rectángulo_48341" data-name="Rectángulo 48341" width="2.51" height="12.278" transform="translate(273.501 123.036)" fill="#fdfdff"/>
          <rect id="Rectángulo_48342" data-name="Rectángulo 48342" width="2.51" height="15.666" transform="translate(270.003 119.649)" fill="#fdfdff"/>
          <path id="Trazado_224396" data-name="Trazado 224396" d="M609.65,919.758a4.238,4.238,0,1,1-4.238-4.238,4.238,4.238,0,0,1,4.238,4.238" transform="translate(-522.491 -795.694)" fill="#48c6aa"/>
          <path id="Trazado_224397" data-name="Trazado 224397" d="M613.051,936.019a.617.617,0,0,1-.436-.181l-1.338-1.338a.617.617,0,0,1,.872-.872l.9.9,2.681-2.681a.617.617,0,0,1,.872.872l-3.117,3.117a.616.616,0,0,1-.436.181" transform="translate(-531.114 -809.729)" fill="#fff"/>
          <path id="Trazado_224398" data-name="Trazado 224398" d="M609.65,923.805a4.238,4.238,0,1,1-4.238-4.238,4.238,4.238,0,0,1,4.238,4.238" transform="translate(-522.491 -799.212)" fill="#48c6aa"/>
          <path id="Trazado_224399" data-name="Trazado 224399" d="M613.051,940.067a.616.616,0,0,1-.436-.181l-1.338-1.338a.617.617,0,0,1,.872-.872l.9.9,2.681-2.681a.617.617,0,0,1,.872.872l-3.117,3.117a.616.616,0,0,1-.436.181" transform="translate(-531.114 -813.247)" fill="#fff"/>
          <path id="Trazado_224400" data-name="Trazado 224400" d="M881.847,923.805a4.238,4.238,0,1,1-4.238-4.238,4.238,4.238,0,0,1,4.238,4.238" transform="translate(-759.062 -799.212)" fill="#48c6aa"/>
          <path id="Trazado_224401" data-name="Trazado 224401" d="M885.249,940.067a.616.616,0,0,1-.436-.181l-1.338-1.338a.617.617,0,0,1,.872-.872l.9.9,2.681-2.681a.617.617,0,0,1,.872.872l-3.118,3.117a.616.616,0,0,1-.436.181" transform="translate(-767.686 -813.247)" fill="#fff"/>
          <path id="Trazado_224402" data-name="Trazado 224402" d="M385.575,129.455a1.861,1.861,0,0,1-2.607-.121,1.81,1.81,0,0,1,.12-2.577,1.861,1.861,0,0,1,2.607.121,1.81,1.81,0,0,1-.12,2.577" transform="translate(-332.425 -109.753)" fill="#aae0ff"/>
          <path id="Trazado_224403" data-name="Trazado 224403" d="M353.477,69.434h0a.58.58,0,0,0,0-.818,10.54,10.54,0,0,0-14.605-.338.58.58,0,0,0-.04.818.6.6,0,0,0,.838.055,9.454,9.454,0,0,1,12.971.3.6.6,0,0,0,.839-.017" transform="translate(-294.352 -56.93)" fill="#aae0ff"/>
          <path id="Trazado_224404" data-name="Trazado 224404" d="M362.641,88l0,0a.584.584,0,0,0-.019-.834A8.284,8.284,0,0,0,351.4,86.9a.584.584,0,0,0-.056.833l0,0a.6.6,0,0,0,.826.061,7.2,7.2,0,0,1,9.635.225.6.6,0,0,0,.829-.023" transform="translate(-305.234 -73.739)" fill="#aae0ff"/>
          <path id="Trazado_224405" data-name="Trazado 224405" d="M371.515,105.98l.005-.005a.581.581,0,0,0-.027-.841,6.1,6.1,0,0,0-7.954-.19.581.581,0,0,0-.064.84l.005.006a.6.6,0,0,0,.815.07,5.015,5.015,0,0,1,6.4.153.6.6,0,0,0,.818-.033" transform="translate(-315.772 -90.007)" fill="#aae0ff"/>
          <rect id="Rectángulo_48343" data-name="Rectángulo 48343" width="10.385" height="3.464" transform="matrix(0.019, -1, 1, 0.019, 195.38, 87.452)" fill="#493f7a"/>
          <rect id="Rectángulo_48344" data-name="Rectángulo 48344" width="1.438" height="3.424" transform="translate(195.493 94.457) rotate(-89.509)" fill="#493f7a"/>
          <rect id="Rectángulo_48345" data-name="Rectángulo 48345" width="2.15" height="2.058" transform="translate(196.163 95.999) rotate(-89.508)" fill="#493f7a"/>
          <rect id="Rectángulo_48346" data-name="Rectángulo 48346" width="1.438" height="3.424" transform="translate(195.493 94.457) rotate(-89.509)" fill="#493f7a"/>
          <path id="Trazado_224406" data-name="Trazado 224406" d="M1492.8,731.593h0l.257-.245a2.068,2.068,0,0,1,2.882.025l.252.249h0l-.014,1.7h0l-.262.246a2.067,2.067,0,0,1-1.434.561h-.018a2.068,2.068,0,0,1-1.424-.585l-.258-.251h0Z" transform="translate(-1297.407 -635.128)" fill="#493f7a"/>
          <rect id="Rectángulo_48347" data-name="Rectángulo 48347" width="1.374" height="1.959" transform="translate(196.089 99.296) rotate(-89.51)" fill="#493f7a"/>
          <path id="Trazado_224407" data-name="Trazado 224407" d="M1503.267,740.835l-.05,5.873-.39.376-.408-.383.05-5.873Z" transform="translate(-1305.778 -643.866)" fill="#493f7a"/>
          <path id="Trazado_224408" data-name="Trazado 224408" d="M1477.033,700.669l4.135.035,2.14-2.291-8.375-.072Z" transform="translate(-1281.889 -606.941)" fill="#48c6c6"/>
          <path id="Trazado_224409" data-name="Trazado 224409" d="M1479.645,648.319l-4.437-.038-2.289,1.549,8.988.077Z" transform="translate(-1280.138 -563.432)" fill="#48c6c6"/>
          <rect id="Rectángulo_48348" data-name="Rectángulo 48348" width="5.454" height="9.535" transform="translate(192.463 91.532) rotate(-89.51)" fill="#493f7a"/>
          <rect id="Rectángulo_48349" data-name="Rectángulo 48349" width="3.464" height="15.462" transform="translate(172.734 80.275) rotate(-88.361)" fill="#493f7a"/>
          <path id="Trazado_224410" data-name="Trazado 224410" d="M1382.036,583.012l13.033.424a3.62,3.62,0,0,0,.235-7.235l-13.033-.424a3.619,3.619,0,0,0-3.735,3.5h0a3.62,3.62,0,0,0,3.5,3.735" transform="translate(-1198.107 -500.416)" fill="#48c6c6"/>
          <path id="Trazado_224411" data-name="Trazado 224411" d="M1494.6,595.6a1.489,1.489,0,1,0,1.973-.734,1.49,1.49,0,0,0-1.973.734" transform="translate(-1298.865 -516.89)" fill="#493f7a"/>
          <path id="Trazado_224412" data-name="Trazado 224412" d="M1392.95,593.548a1.488,1.488,0,1,0,1.973-.734,1.49,1.49,0,0,0-1.973.734" transform="translate(-1210.519 -515.108)" fill="#493f7a"/>
          <rect id="Rectángulo_48350" data-name="Rectángulo 48350" width="3.464" height="15.462" transform="translate(183.981 40.312)" fill="#493f7a"/>
          <path id="Trazado_224413" data-name="Trazado 224413" d="M1392.48,277.335v4.7a3.461,3.461,0,1,0,6.922,0v-4.7Z" transform="translate(-1210.228 -241.037)" fill="#48c6c6"/>
          <path id="Trazado_224414" data-name="Trazado 224414" d="M1403.606,298.873a2.021,2.021,0,1,0,2.656-1.054,2.023,2.023,0,0,0-2.656,1.054" transform="translate(-1219.754 -258.695)" fill="#493f7a"/>
          <path id="Trazado_224415" data-name="Trazado 224415" d="M1277.633,411.611l11.593-21.2a6.706,6.706,0,1,0-11.768-6.436l-11.593,21.2a6.706,6.706,0,1,0,11.768,6.436" transform="translate(-1099.469 -330.69)" fill="#48c6c6"/>
          <path id="Trazado_224416" data-name="Trazado 224416" d="M1378.545,410.524a3.43,3.43,0,1,0,.542-4.82,3.434,3.434,0,0,0-.542,4.82" transform="translate(-1197.468 -351.955)" fill="#493f7a"/>
          <path id="Trazado_224417" data-name="Trazado 224417" d="M1291.033,573.143a3.43,3.43,0,1,0,.594-4.814,3.434,3.434,0,0,0-.594,4.814" transform="translate(-1121.429 -493.315)" fill="#493f7a"/>
          <path id="Trazado_224418" data-name="Trazado 224418" d="M1236.072,17.838a14.4,14.4,0,0,1,27.538-7.55,10.056,10.056,0,0,1,16.753,7.513h2.546a9.08,9.08,0,0,1,9.053,9.053V28.19a9.08,9.08,0,0,1-9.054,9.054h-46.787a9.08,9.08,0,0,1-9.053-9.053v-.667a9.746,9.746,0,0,1,9-9.684" transform="translate(-1066.467 -1.291)" fill="#fff"/>
          <path id="Trazado_224419" data-name="Trazado 224419" d="M1289.782,121.461l-.06-.384c.193-.03.388-.054.584-.073-.026-.2-.047-.393-.064-.578l.387-.036c.022.24.051.49.088.765l.028.2-.206.015c-.253.019-.508.048-.758.087" transform="translate(-1120.919 -104.632)" fill="#6cd2ff"/>
          <path id="Trazado_224420" data-name="Trazado 224420" d="M1293.688,14.188l-.389-.011a14.762,14.762,0,0,1,.135-1.611l.385.054a14.343,14.343,0,0,0-.131,1.568m.435-3.111-.377-.1a14.533,14.533,0,0,1,.487-1.542l.364.138a14.186,14.186,0,0,0-.474,1.5m1.112-2.94-.346-.177a14.653,14.653,0,0,1,.815-1.4l.325.215a14.283,14.283,0,0,0-.794,1.359M1319.9,6.994a14.291,14.291,0,0,0-.916-1.28l.3-.244a14.737,14.737,0,0,1,.941,1.315Zm-22.934-1.48-.3-.249a14.727,14.727,0,0,1,1.1-1.183l.27.28a14.326,14.326,0,0,0-1.072,1.152m20.968-.971a14.371,14.371,0,0,0-1.174-1.049l.243-.3a14.755,14.755,0,0,1,1.205,1.077Zm-18.7-1.208-.237-.308a14.693,14.693,0,0,1,1.333-.914l.2.333a14.314,14.314,0,0,0-1.3.889m16.248-.754a14.2,14.2,0,0,0-1.375-.766l.17-.35a14.642,14.642,0,0,1,1.413.787Zm-13.563-.876-.164-.353a14.542,14.542,0,0,1,1.5-.6l.124.369a14.132,14.132,0,0,0-1.462.582m10.737-.5a14.174,14.174,0,0,0-1.51-.443l.089-.379a14.527,14.527,0,0,1,1.552.455Zm-7.758-.5-.082-.38a14.59,14.59,0,0,1,1.6-.251l.039.387a14.283,14.283,0,0,0-1.554.244m4.7-.217a14.4,14.4,0,0,0-1.571-.1l0-.389a14.783,14.783,0,0,1,1.613.1Z" transform="translate(-1124.028 -0.002)" fill="#6cd2ff"/>
          <path id="Trazado_224421" data-name="Trazado 224421" d="M1502.884,63.8l-.106-.25c-.1-.235-.206-.47-.318-.7l.35-.171c.076.155.15.314.22.473.134-.113.271-.223.409-.329l.236.309c-.2.153-.4.317-.589.485Z" transform="translate(-1305.814 -54.481)" fill="#6cd2ff"/>
          <path id="Trazado_224422" data-name="Trazado 224422" d="M1535.18,55.632a9.823,9.823,0,0,0-.519-1.54l.357-.154a10.219,10.219,0,0,1,.539,1.6Zm-1.285-2.973a9.944,9.944,0,0,0-.991-1.289l.288-.262a10.332,10.332,0,0,1,1.03,1.339Zm-2.179-2.4a9.915,9.915,0,0,0-1.353-.9l.188-.34a10.308,10.308,0,0,1,1.406.936ZM1521,49.275l-.182-.344a10.241,10.241,0,0,1,1.553-.666l.123.369a9.863,9.863,0,0,0-1.494.641m7.886-.582a9.831,9.831,0,0,0-1.573-.412l.067-.383a10.231,10.231,0,0,1,1.635.429Zm-4.813-.442-.06-.384a10.312,10.312,0,0,1,1.586-.123h.1l0,.389h-.1a9.9,9.9,0,0,0-1.526.118" transform="translate(-1321.765 -41.495)" fill="#6cd2ff"/>
          <path id="Trazado_224423" data-name="Trazado 224423" d="M1633.555,121.084h-.973v-.194c0-.254-.01-.511-.029-.763l.388-.03c.015.2.025.4.028.6h.586Z" transform="translate(-1418.88 -104.379)" fill="#6cd2ff"/>
          <path id="Trazado_224424" data-name="Trazado 224424" d="M1280.607,144.5h-1.55v-.389h1.55Zm-3.1,0h-1.55v-.389h1.55Zm-3.1,0h-1.55v-.389h1.55Zm-3.1,0h-1.55v-.389h1.55Zm-3.1,0h-1.55v-.389h1.55Zm-3.1,0h-1.55v-.389h1.55Zm-3.1,0h-1.55v-.389h1.55Zm-3.1,0h-1.55v-.389h1.55Zm-3.1,0h-1.55v-.389h1.55Zm-3.1,0h-1.55v-.389h1.55Zm-3.1,0h-1.55v-.389h1.55Zm-3.1,0h-1.55v-.389h1.55Zm-3.1,0h-1.55v-.389h1.55Zm-3.1,0h-1.55v-.389h1.55Zm-3.1,0h-1.55v-.389h1.55Zm44.961-.016-.023-.388a8.807,8.807,0,0,0,1.5-.219l.089.379a9.181,9.181,0,0,1-1.564.229m-48.076-.013a9.179,9.179,0,0,1-1.559-.262l.1-.377a8.786,8.786,0,0,0,1.493.25Zm51.142-.711-.153-.358a8.886,8.886,0,0,0,1.336-.713l.212.326a9.269,9.269,0,0,1-1.394.744m-54.193-.077a9.3,9.3,0,0,1-1.38-.773l.219-.322a8.931,8.931,0,0,0,1.322.741Zm56.835-1.637-.264-.286a9,9,0,0,0,1.023-1.117l.308.238a9.382,9.382,0,0,1-1.067,1.166m-59.443-.132a9.387,9.387,0,0,1-1.043-1.187l.313-.231a9.013,9.013,0,0,0,1,1.138Zm61.367-2.364-.344-.182a8.82,8.82,0,0,0,.591-1.395l.37.12a9.239,9.239,0,0,1-.617,1.456m-63.238-.17a9.189,9.189,0,0,1-.586-1.468l.372-.113a8.8,8.8,0,0,0,.561,1.406Zm64.212-2.827-.385-.055a8.876,8.876,0,0,0,.088-1.248v-.27h.389v.27a9.25,9.25,0,0,1-.092,1.3m-65.124-.188a9.281,9.281,0,0,1-.067-1.114v-.457h.389v.457a8.9,8.9,0,0,0,.064,1.067Zm64.814-2.924a8.778,8.778,0,0,0-.211-1.5l.379-.087a9.2,9.2,0,0,1,.22,1.566Zm-64.4-.165-.385-.054a9.811,9.811,0,0,1,.343-1.542l.372.115a9.423,9.423,0,0,0-.329,1.481m63.726-2.775a8.9,8.9,0,0,0-.705-1.34l.328-.21a9.286,9.286,0,0,1,.736,1.4Zm-62.834-.115-.348-.173a9.952,9.952,0,0,1,.812-1.354l.317.226a9.6,9.6,0,0,0-.78,1.3m61.207-2.426a8.986,8.986,0,0,0-1.112-1.03l.24-.307a9.4,9.4,0,0,1,1.16,1.074Zm-59.45-.037-.277-.273a10.078,10.078,0,0,1,1.193-1.035l.231.313a9.694,9.694,0,0,0-1.146.995m2.434-1.8-.179-.346a9.933,9.933,0,0,1,1.456-.611l.122.37a9.512,9.512,0,0,0-1.4.587m54.635-.024a8.831,8.831,0,0,0-1.391-.6l.122-.369a9.229,9.229,0,0,1,1.453.625Zm-2.864-.95a8.873,8.873,0,0,0-1.3-.1h-.218v-.389h.218a9.269,9.269,0,0,1,1.355.1Z" transform="translate(-1065.176 -108.35)" fill="#6cd2ff"/>
          <rect id="Rectángulo_48351" data-name="Rectángulo 48351" width="19.814" height="17.924" transform="translate(190.463 14.375)" fill="#66c9ed"/>
          <rect id="Rectángulo_48352" data-name="Rectángulo 48352" width="21.494" height="5.411" transform="translate(189.623 14.375)" fill="#aae0ff"/>
          <rect id="Rectángulo_48353" data-name="Rectángulo 48353" width="2.125" height="2.866" transform="translate(208.079 15.754)" fill="#66c9ed"/>
          <rect id="Rectángulo_48354" data-name="Rectángulo 48354" width="2.125" height="2.866" transform="translate(204.892 15.754)" fill="#66c9ed"/>
          <rect id="Rectángulo_48355" data-name="Rectángulo 48355" width="2.125" height="2.866" transform="translate(201.704 15.754)" fill="#66c9ed"/>
          <rect id="Rectángulo_48356" data-name="Rectángulo 48356" width="21.494" height="5.411" transform="translate(189.623 20.799)" fill="#aae0ff"/>
          <rect id="Rectángulo_48357" data-name="Rectángulo 48357" width="2.125" height="2.866" transform="translate(208.079 22.179)" fill="#66c9ed"/>
          <rect id="Rectángulo_48358" data-name="Rectángulo 48358" width="2.125" height="2.866" transform="translate(204.892 22.179)" fill="#66c9ed"/>
          <rect id="Rectángulo_48359" data-name="Rectángulo 48359" width="2.125" height="2.866" transform="translate(201.704 22.179)" fill="#66c9ed"/>
          <rect id="Rectángulo_48360" data-name="Rectángulo 48360" width="21.494" height="5.41" transform="translate(189.623 27.224)" fill="#aae0ff"/>
          <rect id="Rectángulo_48361" data-name="Rectángulo 48361" width="2.125" height="2.866" transform="translate(208.079 28.604)" fill="#66c9ed"/>
          <rect id="Rectángulo_48362" data-name="Rectángulo 48362" width="2.125" height="2.866" transform="translate(204.892 28.604)" fill="#66c9ed"/>
          <rect id="Rectángulo_48363" data-name="Rectángulo 48363" width="2.125" height="2.866" transform="translate(201.704 28.604)" fill="#66c9ed"/>
        </g>
      </g>
      <g id="Grupo_114146" data-name="Grupo 114146" transform="translate(334.525 141.007)">
        <g id="Grupo_114145" data-name="Grupo 114145" clip-path="url(#clip-path-2)">
          <path id="Trazado_224425" data-name="Trazado 224425" d="M2566.491,1159.274c.008,4.685-6.3,4.352-10.026,8.262s.868,8.178-8.435,10.234c-5.73,1.266-5.591-1.208-10.7,5.394-4.494,5.812-6.4-2.739-11.927-.74-7.132,2.58-9.288-11.784-2.851-15.338s10.181.008,10.747-6.189,4.86-8.976,10.785-8.262c7.333.884,7.018,7.247,10.318,3.4s12.074-2.958,12.084,3.239" transform="translate(-2523.59 -1142.685)" fill="#aae0ff"/>
          <path id="Trazado_224426" data-name="Trazado 224426" d="M2487.743,1230.187c18.82-18.256,42.7-24.079,42.943-24.129.912-.191.748-.589-.164-.4-.244.051-24.66,5.326-43.711,23.8Z" transform="translate(-2495.854 -1188.821)" fill="#4395ba"/>
          <path id="Trazado_224427" data-name="Trazado 224427" d="M2522.4,1089.98c1.526,2.823-2.387,4.671-3.362,8.238s2.955,6.074-1.987,10.335c-3.044,2.625-4.9-1.521-7.612,2.719s-1.054,5.192-3.716,6.529c-4.642,2.331-10.566-4.629-7.839-8.862s7.186-3.329,5.514-7.25-2.269-5.6,1.536-7.09c4.709-1.849,8.387.743,9.128-2.648s6.32-5.705,8.339-1.972" transform="translate(-2504.876 -1086.663)" fill="#4d93ff"/>
          <path id="Trazado_224428" data-name="Trazado 224428" d="M2487.831,1158.34l-.919-.6c5.486-17.329,21.538-34.512,21.668-34.622.558-.47,1.052.117.495.587-.129.109-15.828,17.527-21.244,34.637" transform="translate(-2495.943 -1116.974)" fill="#3565b0"/>
        </g>
      </g>
      <g id="Grupo_114148" data-name="Grupo 114148" transform="translate(0 0.002)">
        <g id="Grupo_114147" data-name="Grupo 114147" transform="translate(0 0)" clip-path="url(#clip-path)">
          <path id="Trazado_224429" data-name="Trazado 224429" d="M.426,1409.308H372.214c.235,0,.425-.3.425-.661s-.19-.661-.425-.661H.426c-.235,0-.425.3-.425.661s.19.661.425.661" transform="translate(-0.001 -1223.705)" fill="#312a52"/>
          <path id="Trazado_224430" data-name="Trazado 224430" d="M350.111,364.217V215.874a4.057,4.057,0,0,1,4.057-4.057h97.944a4.057,4.057,0,0,1,4.057,4.057V364.217a4.057,4.057,0,0,1-4.057,4.057H354.168a4.057,4.057,0,0,1-4.057-4.057" transform="translate(-304.287 -184.094)" fill="#48c6c6"/>
          <path id="Trazado_224431" data-name="Trazado 224431" d="M369.025,227.825h95.494a3.229,3.229,0,0,1,3.229,3.229V376.376a3.229,3.229,0,0,1-3.229,3.229H369.025a3.229,3.229,0,0,1-3.229-3.229V231.054a3.229,3.229,0,0,1,3.229-3.229" transform="translate(-317.92 -198.007)"/>
          <path id="Trazado_224432" data-name="Trazado 224432" d="M662.831,1353.466H632.277a.945.945,0,1,1,0-1.889h30.555a.945.945,0,1,1,0,1.889" transform="translate(-548.701 -1174.679)" fill="#48c6c6"/>
          <rect id="Rectángulo_48366" data-name="Rectángulo 48366" width="94.085" height="135.393" transform="translate(51.81 38.4)" fill="#fff"/>
          <path id="Trazado_224433" data-name="Trazado 224433" d="M475.966,480.85H439.751a2.193,2.193,0,0,1-2.193-2.193V450.512a2.193,2.193,0,0,1,2.193-2.193h36.215a2.193,2.193,0,0,1,2.193,2.193v28.145a2.193,2.193,0,0,1-2.193,2.193" transform="translate(-380.289 -389.642)" fill="#4ac4d9"/>
          <path id="Trazado_224434" data-name="Trazado 224434" d="M502.456,483.591H467.677V459.612a.185.185,0,0,1,.371,0v23.609h34.408a.185.185,0,1,1,0,.371" transform="translate(-406.466 -399.296)" fill="#fdfdff"/>
          <rect id="Rectángulo_48367" data-name="Rectángulo 48367" width="3.839" height="7.343" transform="translate(64.673 76.767)" fill="#fdfdff"/>
          <rect id="Rectángulo_48368" data-name="Rectángulo 48368" width="3.839" height="9.016" transform="translate(70.024 75.095)" fill="#fdfdff"/>
          <rect id="Rectángulo_48369" data-name="Rectángulo 48369" width="3.839" height="12.408" transform="translate(75.376 71.702)" fill="#fdfdff"/>
          <rect id="Rectángulo_48370" data-name="Rectángulo 48370" width="3.839" height="14.778" transform="translate(80.728 69.332)" fill="#fdfdff"/>
          <rect id="Rectángulo_48371" data-name="Rectángulo 48371" width="3.839" height="19.89" transform="translate(86.08 64.22)" fill="#fdfdff"/>
          <path id="Trazado_224435" data-name="Trazado 224435" d="M809.146,480.85H772.931a2.193,2.193,0,0,1-2.193-2.193V450.512a2.193,2.193,0,0,1,2.193-2.193h36.215a2.193,2.193,0,0,1,2.193,2.193v28.145a2.193,2.193,0,0,1-2.193,2.193" transform="translate(-669.862 -389.642)" fill="#4ac4d9"/>
          <path id="Trazado_224436" data-name="Trazado 224436" d="M835.636,492.232H800.858V469.554a.185.185,0,1,1,.37,0v22.307h34.408a.185.185,0,1,1,0,.371" transform="translate(-696.039 -407.937)" fill="#fdfdff"/>
          <path id="Trazado_224437" data-name="Trazado 224437" d="M802.273,496.672c5.826-.507,6.638-23.933,15.281-13.431,8.212,9.978,8.644-8.551,17.566-8.551v21.775l-32.848.207" transform="translate(-697.269 -412.562)" fill="#fdfdff"/>
          <path id="Trazado_224438" data-name="Trazado 224438" d="M522.06,355.677h-84.2V348.5h84.2Zm-83.994-.2h83.792v-6.769H438.065Z" transform="translate(-380.554 -302.891)" fill="#4ac4d9"/>
          <rect id="Rectángulo_48372" data-name="Rectángulo 48372" width="13.976" height="2.41" transform="translate(77.789 47.995)" fill="#4ac4d9"/>
          <rect id="Rectángulo_48373" data-name="Rectángulo 48373" width="7.229" height="2.41" transform="translate(93.142 47.995)" fill="#4ac4d9"/>
          <rect id="Rectángulo_48374" data-name="Rectángulo 48374" width="17.074" height="2.41" transform="translate(58.856 47.995)" fill="#4ac4d9"/>
          <rect id="Rectángulo_48375" data-name="Rectángulo 48375" width="28.965" height="2.272" transform="translate(57.203 95.719)" fill="#cffafa"/>
          <rect id="Rectángulo_48376" data-name="Rectángulo 48376" width="28.965" height="2.272" transform="translate(56.966 109.077)" fill="#cffafa"/>
          <rect id="Rectángulo_48377" data-name="Rectángulo 48377" width="25.332" height="2.272" transform="translate(57.203 104.084)" fill="#cffafa"/>
          <rect id="Rectángulo_48378" data-name="Rectángulo 48378" width="25.332" height="2.272" transform="translate(57.203 113.411)" fill="#cffafa"/>
          <rect id="Rectángulo_48379" data-name="Rectángulo 48379" width="43.946" height="2.272" transform="translate(57.203 99.849)" fill="#cffafa"/>
          <path id="Trazado_224439" data-name="Trazado 224439" d="M513.276,965.1H433.02a2.2,2.2,0,0,1-2.2-2.2V923.394a2.2,2.2,0,0,1,2.2-2.2h80.255a2.2,2.2,0,0,1,2.2,2.2V962.9a2.2,2.2,0,0,1-2.2,2.2" transform="translate(-374.435 -800.627)" fill="#4ac4d9"/>
          <path id="Trazado_224440" data-name="Trazado 224440" d="M551.852,1015.706H482.424a.1.1,0,1,1,0-.2h69.427a.1.1,0,0,1,0,.2" transform="translate(-419.194 -882.59)" fill="#fff"/>
          <path id="Trazado_224441" data-name="Trazado 224441" d="M551.852,1128.153H482.424a.1.1,0,1,1,0-.2h69.427a.1.1,0,1,1,0,.2" transform="translate(-419.194 -980.32)" fill="#fff"/>
          <path id="Trazado_224442" data-name="Trazado 224442" d="M551.852,1073.391H482.424a.1.1,0,1,1,0-.2h69.427a.1.1,0,1,1,0,.2" transform="translate(-419.194 -932.725)" fill="#fff"/>
          <path id="Trazado_224443" data-name="Trazado 224443" d="M550.6,1010.867H480.965l-.088-26.246a.2.2,0,0,1,.2-.205h0a.2.2,0,0,1,.2.2l.086,25.839H550.6a.2.2,0,1,1,0,.409" transform="translate(-417.938 -855.573)" fill="#fff"/>
          <path id="Trazado_224444" data-name="Trazado 224444" d="M517.574,1036.936l-15.794,15.181-8.139-7.2-12.035,11.243a.2.2,0,0,0,.279.3l11.763-10.99,8.143,7.2,15.783-15.17Z" transform="translate(-418.515 -901.219)" fill="#fff"/>
          <path id="Trazado_224445" data-name="Trazado 224445" d="M567.837,1092.941a1.1,1.1,0,1,1-1.1-1.1,1.1,1.1,0,0,1,1.1,1.1" transform="translate(-491.612 -948.941)" fill="#fff"/>
          <path id="Trazado_224446" data-name="Trazado 224446" d="M631.038,1146.972a1.1,1.1,0,1,1-1.1-1.1,1.1,1.1,0,0,1,1.1,1.1" transform="translate(-546.541 -995.901)" fill="#fff"/>
          <path id="Trazado_224447" data-name="Trazado 224447" d="M751.66,1030.537a1.1,1.1,0,1,1-1.1-1.1,1.1,1.1,0,0,1,1.1,1.1" transform="translate(-651.375 -894.705)" fill="#fff"/>
          <path id="Trazado_224448" data-name="Trazado 224448" d="M829.366,729.744h-.014a9.5,9.5,0,1,0,4.407,17.922l-4.393-8.42Z" transform="translate(-712.546 -634.233)" fill="#48c6c6"/>
          <path id="Trazado_224449" data-name="Trazado 224449" d="M896.953,810.764a9.5,9.5,0,0,0,5.095-8.42H892.56Z" transform="translate(-775.739 -697.331)" fill="#5b4e99"/>
          <path id="Trazado_224450" data-name="Trazado 224450" d="M892.559,729.745v9.5h9.488a9.5,9.5,0,0,0-9.488-9.5" transform="translate(-775.738 -634.234)" fill="#cffafa"/>
          <rect id="Rectángulo_48380" data-name="Rectángulo 48380" width="8.038" height="1.269" transform="translate(132.481 99.984)" fill="#4ac4d9"/>
          <rect id="Rectángulo_48381" data-name="Rectángulo 48381" width="8.038" height="1.269" transform="translate(132.481 102.776)" fill="#4ac4d9"/>
          <rect id="Rectángulo_48382" data-name="Rectángulo 48382" width="8.038" height="1.269" transform="translate(132.481 105.568)" fill="#4ac4d9"/>
          <rect id="Rectángulo_48383" data-name="Rectángulo 48383" width="8.038" height="1.269" transform="translate(132.481 108.361)" fill="#4ac4d9"/>
        </g>
      </g>
      <g id="Grupo_114150" data-name="Grupo 114150" transform="translate(0 0.002)">
        <g id="Grupo_114149" data-name="Grupo 114149" transform="translate(0 0)" clip-path="url(#clip-path)">
          <path id="Trazado_224451" data-name="Trazado 224451" d="M83.1,873.383a2.618,2.618,0,1,1-2.618-2.618,2.618,2.618,0,0,1,2.618,2.618" transform="translate(-67.669 -756.797)" fill="#0e0e0e"/>
          <path id="Trazado_224452" data-name="Trazado 224452" d="M261.558,900.068l.029.048a.278.278,0,0,0,.381.1l.869-.676c.641-.494.393-.745-.264-.4l-.919.551a.278.278,0,0,0-.1.381" transform="translate(-227.291 -781.315)" fill="#ffa88f"/>
          <path id="Trazado_224453" data-name="Trazado 224453" d="M234.448,899.484a2.527,2.527,0,0,0,2.426-2.943c-.166-1.155-3.307.3-3.307.3s.406-1.826-.269-1.662c-.3,1.276-.578,2.491-.825,3.609-.016.447,1.16,1.067,1.975.7" transform="translate(-202.046 -778.003)" fill="#ffa88f"/>
          <path id="Trazado_224454" data-name="Trazado 224454" d="M138.756,916.977c-1.139-2.159,1.074-4.756,3.413-2.61l4.791,5.461,3.888-5.279c.469.663.779.977,1.466.948,0,0-2.618,7.415-4.65,7.894-2.41.568-8.016-4.965-8.909-6.414" transform="translate(-120.327 -793.994)" fill="#ffa88f"/>
          <path id="Trazado_224455" data-name="Trazado 224455" d="M241.559,883.513c.027-.311-.4-.564-.439-.367l-2.107-.531a.29.29,0,0,0-.34.225l-1.434,5.531a.3.3,0,0,0,.19.374l2.143.573a.177.177,0,0,0,.058.095.386.386,0,0,0,.473-.149.342.342,0,0,0,.052-.115c.01-.074,1.4-5.562,1.4-5.636" transform="translate(-206.179 -767.089)"/>
          <path id="Trazado_224456" data-name="Trazado 224456" d="M237.676,888.333l-2.461-.653a.308.308,0,0,1-.2-.384l1.48-5.687a.3.3,0,0,1,.351-.23l2.419.617a.3.3,0,0,1,.2.372l-1.433,5.727a.3.3,0,0,1-.359.239" transform="translate(-204.248 -766.014)"/>
          <path id="Trazado_224457" data-name="Trazado 224457" d="M238.013,888.585l-.032-.006-2.459-.656a.268.268,0,0,1-.169-.336l1.477-5.681a.261.261,0,0,1,.3-.2l2.42.614.011,0a.236.236,0,0,1,.14.119.282.282,0,0,1,.021.2l-1.436,5.733a.265.265,0,0,1-.278.212" transform="translate(-204.54 -766.299)"/>
          <path id="Trazado_224458" data-name="Trazado 224458" d="M240.217,884.266l-1.432,5.713-2.772-.734,1.476-5.683Z" transform="translate(-205.123 -767.919)" fill="#aae0ff"/>
          <path id="Trazado_224459" data-name="Trazado 224459" d="M257.176,907.546h0a.306.306,0,0,0,.419.1l1.209-.725a.306.306,0,0,0-.314-.524l-1.209.725a.306.306,0,0,0-.1.419" transform="translate(-223.479 -787.732)" fill="#ffa88f"/>
          <path id="Trazado_224460" data-name="Trazado 224460" d="M255.231,913.265h0a.306.306,0,0,0,.419.1l1.209-.725a.305.305,0,1,0-.314-.524l-1.209.725a.306.306,0,0,0-.1.419" transform="translate(-221.788 -792.703)" fill="#ffa88f"/>
          <path id="Trazado_224461" data-name="Trazado 224461" d="M257.338,918.011h0a.242.242,0,0,0,.332.083l.957-.574a.242.242,0,0,0-.249-.415l-.957.574a.242.242,0,0,0-.083.332" transform="translate(-223.627 -797.043)" fill="#ffa88f"/>
          <path id="Trazado_224462" data-name="Trazado 224462" d="M81.476,921.209c.353,1.243.795,2.494,1.217,3.618a47.9,47.9,0,0,1,1.387,5.084l9.549.226c.128-4.839.142-4.84.24-6.414.063-1.022.122-2.138.153-3.164a13.686,13.686,0,0,0-.148-3.467,15.463,15.463,0,0,0-3.512-4.379c-1.384-1.306-9.746.765-9.429,3.133a11.334,11.334,0,0,0,.544,5.362" transform="translate(-70.211 -792.904)" fill="#002e73"/>
          <path id="Trazado_224463" data-name="Trazado 224463" d="M107.267,910.445s1.99,2.075.552,4.022a7.9,7.9,0,0,1-5.4-2.924,4.729,4.729,0,0,1,4.847-1.1" transform="translate(-89.015 -791.062)" fill="#ffa88f"/>
          <path id="Trazado_224464" data-name="Trazado 224464" d="M77.734,1054.356c-1.967,12.357-6.312,36.633-6.312,36.633l-3.191-.18,1.552-35.755c.577-5.111,8.01-8.079,7.951-.7" transform="translate(-59.301 -912.505)" fill="#0d0d0d"/>
          <path id="Trazado_224465" data-name="Trazado 224465" d="M53.427,1364.773c-.732-.574.854-1.293.854-1.293l.69-5.262.007-.141h3.363l.234,2.109-1.989,4.588Z" transform="translate(-46.267 -1180.328)" fill="#0d0d0d"/>
          <path id="Trazado_224466" data-name="Trazado 224466" d="M79.4,1376.932l-1.374-4.866,2.1.264-.244,4.6Z" transform="translate(-67.818 -1192.487)" fill="#0d0d0d"/>
          <path id="Trazado_224467" data-name="Trazado 224467" d="M131.711,1053.521c.616,12.5,3.474,37.177,3.474,37.177l3.191-.172,1.362-35.218c-.058-6.526-7.285-9.132-8.027-1.787" transform="translate(-114.472 -911.778)" fill="#0d0d0d"/>
          <path id="Trazado_224468" data-name="Trazado 224468" d="M162.047,1366.921c.734-.573-.851-1.3-.851-1.3l-.677-5.264-.007-.141-3.363-.009-.24,2.108,1.978,4.593Z" transform="translate(-136.372 -1182.183)" fill="#0d0d0d"/>
          <path id="Trazado_224469" data-name="Trazado 224469" d="M157.585,1379.1l1.386-4.862-2.1.259.233,4.6Z" transform="translate(-136.337 -1194.373)" fill="#0d0d0d"/>
          <path id="Trazado_224470" data-name="Trazado 224470" d="M83.02,1034.864s-3.07,2.06-3.205,8c3.926.7,14.695,1.136,14.695,1.136.24-3.628-.338-6.95-1.794-9.041-7.941-.384-9.7-.1-9.7-.1" transform="translate(-69.369 -899.329)" fill="#0d0d0d"/>
          <path id="Trazado_224471" data-name="Trazado 224471" d="M106.775,880.672l.158.871.568,3.131.194,1.066c-.066,1.155-3.066,1.31-3.92.515-.011-.207-.041-.692-.077-1.276-.067-1.093-.158-2.53-.193-3.138l-.008-.159,1.289-.4,1.989-.612" transform="translate(-89.951 -765.407)" fill="#ffa88f"/>
          <path id="Trazado_224472" data-name="Trazado 224472" d="M107.532,887.042l.593,3.267a4.1,4.1,0,0,1-3.939-2.276l.02-.246a21.358,21.358,0,0,1,2.6-.758,1.808,1.808,0,0,1,.727.012" transform="translate(-90.55 -770.906)" fill="#fc8968"/>
          <path id="Trazado_224473" data-name="Trazado 224473" d="M99.531,836.3c.98,2.46.011,5-1.2,5.544a4.876,4.876,0,0,1-6.092-2.637c-.98-2.46-.142-5.105,1.873-5.908s4.443.541,5.423,3" transform="translate(-79.807 -724.034)" fill="#ffa88f"/>
          <path id="Trazado_224474" data-name="Trazado 224474" d="M87.244,830.25s-3.742,2.224-3.975,8.237c-3.1-2.473-3.867-5.05-2.267-7.374a4.465,4.465,0,0,1,6.241-.863" transform="translate(-69.695 -720.812)" fill="#0e0e0e"/>
          <path id="Trazado_224475" data-name="Trazado 224475" d="M94.595,827.976s1.343.246,2.422,2.569c-.558-2.08-2.948-5.665-6.976-3.168s4.554.6,4.554.6" transform="translate(-77.321 -718.348)" fill="#0e0e0e"/>
          <path id="Trazado_224476" data-name="Trazado 224476" d="M100.373,873.405a.928.928,0,1,1-1.258-.371.928.928,0,0,1,1.258.371" transform="translate(-85.722 -758.67)" fill="#ffa88f"/>
          <path id="Trazado_224477" data-name="Trazado 224477" d="M76.116,828.071c-.444-1.389-1.308-5.006,1.764-6.514a5.716,5.716,0,0,1,6.273.994c.434-.009,1.516-.517,1.757-.317.071.132.075.411-1,1.073l.008.01c-4.017,1.651-7.375,3.444-8.529,5.712a1.45,1.45,0,0,1-.408.2c-.138.024.109-.6.136-1.156" transform="translate(-65.754 -713.543)" fill="#ffee73"/>
          <path id="Trazado_224478" data-name="Trazado 224478" d="M86.367,825.255s-1.86-2.87-4.832-1.494l-.084-.122a7.987,7.987,0,0,1,1.543-1.055,4.8,4.8,0,0,1,5.04,1.814,8.077,8.077,0,0,1-1.667.857" transform="translate(-70.791 -714.781)" fill="#ffdd59"/>
          <path id="Trazado_224479" data-name="Trazado 224479" d="M91.33,930.575c1.7.641,6.755-8.247,7.61-9.92.916-2.415-6.915,5.766-7.082,5.574-.76-1.074-3.6-3.248-4.355-3.992-1.441-1.415-3.459.21-2.8,1.6,0,0,3.907,6.024,6.631,6.739" transform="translate(-73.503 -799.769)" fill="#ffa88f"/>
          <path id="Trazado_224480" data-name="Trazado 224480" d="M181.781,913.421l-.956-.22.827-2.643a2.167,2.167,0,0,1,.749-.126,2.124,2.124,0,0,1,.852.216s.3.965.324,1.122c.149,1.165-1.8,1.652-1.8,1.652" transform="translate(-157.158 -791.271)" fill="#ffa88f"/>
          <path id="Trazado_224481" data-name="Trazado 224481" d="M184.974,898.18c0-.054.912-3.034.912-3.034s.256.121.275.594-.238,2.446-.237,2.441Z" transform="translate(-160.764 -777.987)" fill="#ffa88f"/>
          <path id="Trazado_224482" data-name="Trazado 224482" d="M195.247,913.417a1.348,1.348,0,0,0-.7-.135l-.008-.052a1.373,1.373,0,0,1,.728.139Z" transform="translate(-169.079 -793.698)" fill="#e6836f"/>
          <path id="Trazado_224483" data-name="Trazado 224483" d="M196.067,916.175a1.351,1.351,0,0,0-.7-.135l-.008-.052a1.373,1.373,0,0,1,.728.139Z" transform="translate(-169.792 -796.095)" fill="#e6836f"/>
          <path id="Trazado_224484" data-name="Trazado 224484" d="M196.887,919.68a1.351,1.351,0,0,0-.7-.135l-.008-.052a1.373,1.373,0,0,1,.728.139Z" transform="translate(-170.504 -799.142)" fill="#e6836f"/>
          <path id="Trazado_224485" data-name="Trazado 224485" d="M247.993,836.944a1.269,1.269,0,0,1-1.778-.1,1.234,1.234,0,0,1,.1-1.758,1.269,1.269,0,0,1,1.778.1,1.235,1.235,0,0,1-.1,1.758" transform="translate(-213.71 -725.515)" fill="#48c6c6"/>
          <path id="Trazado_224486" data-name="Trazado 224486" d="M226.412,796.024h0a.4.4,0,0,0,0-.558,7.191,7.191,0,0,0-9.961-.321.4.4,0,0,0-.032.558.408.408,0,0,0,.571.043,6.449,6.449,0,0,1,8.847.285.408.408,0,0,0,.572-.007" transform="translate(-188.009 -689.467)" fill="#48c6c6"/>
          <path id="Trazado_224487" data-name="Trazado 224487" d="M232.577,808.682l0,0a.4.4,0,0,0-.008-.569,5.651,5.651,0,0,0-7.653-.249.4.4,0,0,0-.043.568l0,0a.407.407,0,0,0,.563.047,4.911,4.911,0,0,1,6.571.214.407.407,0,0,0,.566-.011" transform="translate(-195.356 -700.934)" fill="#48c6c6"/>
          <path id="Trazado_224488" data-name="Trazado 224488" d="M238.547,820.934l0,0a.4.4,0,0,0-.013-.574,4.161,4.161,0,0,0-5.425-.179.4.4,0,0,0-.049.573l0,0a.409.409,0,0,0,.555.053,3.421,3.421,0,0,1,4.366.144.409.409,0,0,0,.558-.017" transform="translate(-202.473 -712.032)" fill="#48c6c6"/>
          <path id="Trazado_224489" data-name="Trazado 224489" d="M2299.962,1392.268c-.228-.468-.523-1.885.133-2.219.926-.472,4.7.391,4.7.391s.211,1.268.316,1.827Z" transform="translate(-1998.703 -1207.993)" fill="#80b1ff"/>
          <path id="Trazado_224490" data-name="Trazado 224490" d="M2282.124,1267.975c0,.177,1.607,16.388,1.607,16.388-.115.843-2.646.277-3.289-.071l-5-16.257Z" transform="translate(-1977.627 -1102.019)" fill="#0d192b"/>
          <path id="Trazado_224491" data-name="Trazado 224491" d="M2311.823,1049.007l-2.321-4.1c-.461-1.544-4.474-.338-4.013,1.205l.6,4.608Z" transform="translate(-2003.707 -907.523)" fill="#f7b28a"/>
          <path id="Trazado_224492" data-name="Trazado 224492" d="M2256.938,1392.417a2.305,2.305,0,0,1,.569-1.982,2.335,2.335,0,0,1,2.232-.186l3.564-.036a7.984,7.984,0,0,1,.279,2.2Z" transform="translate(-1961.519 -1208.107)" fill="#b3d7ff"/>
          <path id="Trazado_224493" data-name="Trazado 224493" d="M2233.5,1219.608s2.8,8.11-10.253,7.644c-7.364-.28-7.186-1.113-7.186-1.113l5.175,15.98c-.3.618-2.8.55-3.521.065,0,0-9.2-14.932-8.729-18.381s6.524-4.195,10.16-4.288,14.354.093,14.354.093" transform="translate(-1919.853 -1059.879)" fill="#0d192b"/>
          <path id="Trazado_224494" data-name="Trazado 224494" d="M2283.1,1087.633c4.556,5.644,17.067,5.032,16.9.321,0,0-.264-11.477-4.077-17.432a5.806,5.806,0,0,0-5.407-3.009,7.333,7.333,0,0,0-5.74,3.786,16.852,16.852,0,0,0-.577,3.282c-.4,3.344-.768,8.317-.959,11.058-.085,1.216-.135,1.994-.135,1.994" transform="translate(-1984.283 -927.794)" fill="#ffb900"/>
          <path id="Trazado_224495" data-name="Trazado 224495" d="M2284.129,1132.579c3.676-2.268,5.328-10.974,5.328-10.974l-4.368-.084c-.4,3.344-.768,8.317-.959,11.058" transform="translate(-1985.175 -974.733)" fill="#d69147"/>
          <path id="Trazado_224496" data-name="Trazado 224496" d="M2289.853,989.93c-.91,2.058-.449,5.152,1.059,5.922a5.294,5.294,0,0,0,6.635-2.539c1.139-2.591.341-5.45-1.784-6.384s-4.766.411-5.91,3" transform="translate(-1989.745 -857.5)" fill="#f7b28a"/>
          <path id="Trazado_224497" data-name="Trazado 224497" d="M2202.377,1149.958a3.872,3.872,0,0,0-2.13-.848c-1.307-.1-2.452,2.382-2.452,2.382h4.521Z" transform="translate(-1910.141 -998.709)" fill="#f7b28a"/>
          <path id="Trazado_224498" data-name="Trazado 224498" d="M2198.263,1149.367s-2.056.581-2.343.658c-.134.542,1.28.308,1.935.067.721-.266.408-.725.408-.725" transform="translate(-1908.504 -998.935)" fill="#f7b28a"/>
          <path id="Trazado_224499" data-name="Trazado 224499" d="M2235.274,1085.86s-2.788,8.755-6.28,8.755a41.79,41.79,0,0,1-7.5-.866c-.879-.1-.538-2.509.123-2.61l6.134-.685s1.3-5.479,4.623-7.743c2.378-.446,3.651,1.451,2.9,3.15" transform="translate(-1930.283 -940.944)" fill="#ffb900"/>
          <path id="Trazado_224500" data-name="Trazado 224500" d="M2225.91,1091.966l6.091-.7.011-.036c1.76-5.613,4.238-7.594,4.263-7.613l-.07-.091c-.025.019-2.52,2.01-4.291,7.634l-6.017.687Z" transform="translate(-1934.565 -941.716)" fill="#fff"/>
          <path id="Trazado_224501" data-name="Trazado 224501" d="M2301.02,992.26c.609-.087,1.589-1.2,2.605-3.557a4.683,4.683,0,0,0-2.131-6.472,3.768,3.768,0,0,0-5.444,3.141c.291,3.98,2.9,7.183,4.97,6.888" transform="translate(-1995.536 -853.287)" fill="#854500"/>
          <path id="Trazado_224502" data-name="Trazado 224502" d="M2297.226,1025.014c-.067.525.135.983.451,1.023s.628-.352.7-.876-.135-.983-.452-1.023-.628.352-.695.876" transform="translate(-1996.547 -890.093)" fill="#f7b28a"/>
          <path id="Trazado_224503" data-name="Trazado 224503" d="M2291.173,981.76s-1.108,4.765-6.2,3.091a5.212,5.212,0,0,1,6.2-3.091" transform="translate(-1985.911 -853.116)" fill="#854500"/>
          <path id="Trazado_224504" data-name="Trazado 224504" d="M2311.5,1061.5l-.792-1.362c-.218-.771-5.824.813-5.607,1.584l-.063,1.964Z" transform="translate(-2003.351 -921.208)" fill="#ffb655"/>
          <path id="Trazado_224505" data-name="Trazado 224505" d="M2305.5,1070.8a.028.028,0,0,0,.013,0,18.523,18.523,0,0,1,6.048-1.919.028.028,0,0,0,.025-.03.029.029,0,0,0-.03-.026,18.581,18.581,0,0,0-6.068,1.925.028.028,0,0,0,.012.053" transform="translate(-2003.722 -928.931)" fill="#003c40"/>
          <path id="Trazado_224506" data-name="Trazado 224506" d="M2330.639,1003.688l.2-.037c-.011-.063-1.164-6.372-3.8-9.511a6.166,6.166,0,0,0-3.045-1.857l-.446-.91a.087.087,0,0,0-.009-.015.885.885,0,0,0-.783-.252c-.073-.117-.122-.191-.155-.237.329-.428,2.1-2.813,2.229-4.783a5.153,5.153,0,0,0-1.424-3.776,4.818,4.818,0,0,0-3.7-1.445l.005.208a4.592,4.592,0,0,1,3.546,1.382,5.008,5.008,0,0,1,1.367,3.619c-.135,2.061-2.213,4.7-2.234,4.731a.1.1,0,0,0,.007.138,3.208,3.208,0,0,1,.216.327.1.1,0,0,0,.1.049.792.792,0,0,1,.658.158l.464.946a.1.1,0,0,0,.077.057,5.905,5.905,0,0,1,2.977,1.8c2.594,3.091,3.737,9.346,3.749,9.409" transform="translate(-2016.1 -852.485)" fill="#fff"/>
          <path id="Trazado_224507" data-name="Trazado 224507" d="M2248.194,1139.36c1.4-.007,6.609,1.355,7.377,0s2.463-18.082,2.463-18.082a1.892,1.892,0,0,1,1.874-1.637H2276.9a2.106,2.106,0,0,1,2.092,2.389l-2.416,17.712a4.419,4.419,0,0,1-4.379,3.822h-6.432v.008h-19.826v-1.959a2.162,2.162,0,0,1,2.253-2.254" transform="translate(-1951.985 -973.099)" fill="#d9790d"/>
          <path id="Trazado_224508" data-name="Trazado 224508" d="M2311.7,1143.565h17.651a4.42,4.42,0,0,0,4.379-3.822l2.415-17.712a2.105,2.105,0,0,0-2.092-2.389h-14.129a1.892,1.892,0,0,0-1.874,1.637c-1.021,9.032-1.78,16.263-2.875,20.56-.443,1.737-2.517,1.727-3.475,1.727" transform="translate(-2009.14 -973.1)" fill="#ff9117"/>
          <path id="Trazado_224509" data-name="Trazado 224509" d="M2287.08,1302.43c0,.014.016.027.016.04,0,.862-5.406,1.561-12.075,1.561s-12.075-.7-12.075-1.561c0-.014.013-.027.016-.04Z" transform="translate(-1966.764 -1131.964)" fill="#0d192b"/>
          <path id="Trazado_224510" data-name="Trazado 224510" d="M2283.77,1374.117c0-.013-.013-.026-.013-.04,0-.862,4.262-1.561,9.52-1.561s9.52.7,9.52,1.561c0,.014-.01.026-.012.04Z" transform="translate(-1984.852 -1192.877)" fill="#0d192b"/>
          <rect id="Rectángulo_48385" data-name="Rectángulo 48385" width="2.106" height="8.892" transform="translate(307.133 171.645)" fill="#0d192b"/>
          <rect id="Rectángulo_48386" data-name="Rectángulo 48386" width="1.073" height="1.998" transform="translate(300.888 181.043)" fill="#0d192b"/>
          <rect id="Rectángulo_48387" data-name="Rectángulo 48387" width="1.073" height="1.998" transform="translate(307.712 181.043)" fill="#0d192b"/>
          <rect id="Rectángulo_48388" data-name="Rectángulo 48388" width="1.073" height="1.998" transform="translate(315.926 181.043)" fill="#0d192b"/>
          <path id="Trazado_224511" data-name="Trazado 224511" d="M2409.612,1389.864c0,.715.366,1.294.819,1.294s.819-.579.819-1.294-.367-1.294-.819-1.294-.819.579-.819,1.294" transform="translate(-2094.235 -1206.83)" fill="#0d192b"/>
          <path id="Trazado_224512" data-name="Trazado 224512" d="M2403.551,1389.864c0,.715.366,1.294.819,1.294s.819-.579.819-1.294-.367-1.294-.819-1.294-.819.579-.819,1.294" transform="translate(-2088.967 -1206.83)" fill="#0d192b"/>
          <path id="Trazado_224513" data-name="Trazado 224513" d="M2407.394,1390.641a1.74,1.74,0,0,0,1.425.008l.006-2.388a1.677,1.677,0,0,0-1.431-.012Z" transform="translate(-2092.307 -1206.417)" fill="#0d192b"/>
          <path id="Trazado_224514" data-name="Trazado 224514" d="M2404.929,1392.3c0,.49.251.887.561.887s.561-.4.561-.887-.251-.887-.561-.887-.561.4-.561.887" transform="translate(-2090.165 -1209.302)" fill="#1e62cc"/>
          <path id="Trazado_224515" data-name="Trazado 224515" d="M2407.057,1394.8c0,.3.153.541.342.541s.342-.242.342-.541-.153-.54-.342-.54-.342.242-.342.54" transform="translate(-2092.014 -1211.771)" fill="#0d192b"/>
          <path id="Trazado_224516" data-name="Trazado 224516" d="M2351.762,1389.864c0,.715-.366,1.294-.819,1.294s-.819-.579-.819-1.294.367-1.294.819-1.294.819.579.819,1.294" transform="translate(-2042.534 -1206.83)" fill="#0d192b"/>
          <path id="Trazado_224517" data-name="Trazado 224517" d="M2357.824,1389.864c0,.715-.366,1.294-.819,1.294s-.818-.579-.818-1.294.366-1.294.818-1.294.819.579.819,1.294" transform="translate(-2047.802 -1206.83)" fill="#0d192b"/>
          <path id="Trazado_224518" data-name="Trazado 224518" d="M2355.347,1390.641a1.741,1.741,0,0,1-1.426.008l-.006-2.388a1.677,1.677,0,0,1,1.431-.012Z" transform="translate(-2045.828 -1206.417)" fill="#0d192b"/>
          <path id="Trazado_224519" data-name="Trazado 224519" d="M2359.867,1392.3c0,.49-.251.887-.561.887s-.561-.4-.561-.887.251-.887.561-.887.561.4.561.887" transform="translate(-2050.025 -1209.302)" fill="#1e62cc"/>
          <path id="Trazado_224520" data-name="Trazado 224520" d="M2360.65,1394.8c0,.3-.153.541-.342.541s-.342-.242-.342-.541.153-.54.342-.54.342.242.342.54" transform="translate(-2051.087 -1211.771)" fill="#0d192b"/>
          <path id="Trazado_224521" data-name="Trazado 224521" d="M2298.659,1389.864c0,.715-.366,1.294-.819,1.294s-.819-.579-.819-1.294.366-1.294.819-1.294.819.579.819,1.294" transform="translate(-1996.381 -1206.83)" fill="#0d192b"/>
          <path id="Trazado_224522" data-name="Trazado 224522" d="M2304.72,1389.864c0,.715-.366,1.294-.819,1.294s-.819-.579-.819-1.294.367-1.294.819-1.294.819.579.819,1.294" transform="translate(-2001.649 -1206.83)" fill="#0d192b"/>
          <path id="Trazado_224523" data-name="Trazado 224523" d="M2302.243,1390.641a1.741,1.741,0,0,1-1.426.008l-.006-2.388a1.677,1.677,0,0,1,1.431-.012Z" transform="translate(-1999.674 -1206.417)" fill="#0d192b"/>
          <path id="Trazado_224524" data-name="Trazado 224524" d="M2306.764,1392.3c0,.49-.251.887-.561.887s-.561-.4-.561-.887.251-.887.561-.887.561.4.561.887" transform="translate(-2003.873 -1209.302)" fill="#1e62cc"/>
          <path id="Trazado_224525" data-name="Trazado 224525" d="M2307.546,1394.8c0,.3-.153.541-.342.541s-.342-.242-.342-.541.153-.54.342-.54.342.242.342.54" transform="translate(-2004.933 -1211.771)" fill="#0d192b"/>
          <path id="Trazado_224526" data-name="Trazado 224526" d="M1318.378,1180.334a20.761,20.761,0,0,0-4.659,6.633c-.4-1.036-.3-.809-1.265-3.088-.443-1.072-3.307-.466-3.379.477,0,0-.514,6.565,2.518,9.151s11.58-8.21,11.58-8.21a3.468,3.468,0,0,0-4.794-4.963" transform="translate(-1137.71 -1025.202)" fill="#ffb655"/>
          <path id="Trazado_224527" data-name="Trazado 224527" d="M1340.648,1322.791c-3.223,6.288-26.731,4.049-30.777.627-2.99-4.39,7.842-6.535,8.082-6.541,5.324-.145,12.66.328,15.364.328,6.286.966,8.04,3.192,7.332,5.586" transform="translate(-1137.977 -1144.496)" fill="#092e66"/>
          <path id="Trazado_224528" data-name="Trazado 224528" d="M1374.7,1342.086a32.067,32.067,0,0,0,13.022.645s-7.3,3.229-7.344,3.348-5.677-3.993-5.677-3.993" transform="translate(-1194.778 -1166.43)" fill="#051733"/>
          <path id="Trazado_224529" data-name="Trazado 224529" d="M1401.9,1340.117c-4.709,5.214-24.8,4.713-20.939-.028a108.914,108.914,0,0,0,14-3.242c2.962-2.4,8.858.449,6.942,3.27" transform="translate(-1199.792 -1161.093)" fill="#092e66"/>
          <path id="Trazado_224530" data-name="Trazado 224530" d="M1492.79,1382.085c-.233-1.049-1.443-1.718-2.735-2.138a6.926,6.926,0,0,0-1.539,4.349c2.867.644,4.674-.409,4.273-2.211" transform="translate(-1293.696 -1199.336)" fill="#73ccff"/>
          <path id="Trazado_224531" data-name="Trazado 224531" d="M1461.221,1376.3a1.4,1.4,0,0,0-1.553,1.231,1.746,1.746,0,0,0,.7,2.227,11.545,11.545,0,0,0,2.949,1.359,6.926,6.926,0,0,1,1.539-4.349,12.03,12.03,0,0,0-3.637-.469" transform="translate(-1268.498 -1196.155)" fill="#aae0ff"/>
          <path id="Trazado_224532" data-name="Trazado 224532" d="M1332.466,1337.213c2.293.55,1.115,3.377-.066,3.21,1.286.182-22.772.185-20.425-7.092h.009a5.126,5.126,0,0,1,5.971-1.857,62.408,62.408,0,0,0,14.511,5.739" transform="translate(-1140.12 -1156.904)" fill="#092e66"/>
          <path id="Trazado_224533" data-name="Trazado 224533" d="M1466.3,1382.593s-2.046-.16-1.337-1.8a1.386,1.386,0,0,1,2.149-.68,1.878,1.878,0,0,1-.812,2.484" transform="translate(-1273.095 -1199.232)" fill="#aae0ff"/>
          <path id="Trazado_224534" data-name="Trazado 224534" d="M1476.288,1384.532a.093.093,0,0,1-.093-.09,3.663,3.663,0,0,1,.911-2.518.093.093,0,0,1,.135.13,3.538,3.538,0,0,0-.858,2.381.093.093,0,0,1-.09.1h0" transform="translate(-1282.984 -1201.029)" fill="#fff"/>
          <path id="Trazado_224535" data-name="Trazado 224535" d="M1480.706,1386.221a.094.094,0,0,1-.093-.09,3.662,3.662,0,0,1,.911-2.517.093.093,0,0,1,.135.13,3.538,3.538,0,0,0-.859,2.381.093.093,0,0,1-.09.1h0" transform="translate(-1286.824 -1202.498)" fill="#fff"/>
          <path id="Trazado_224536" data-name="Trazado 224536" d="M1485.385,1387.391a.093.093,0,0,1-.093-.09,3.662,3.662,0,0,1,.911-2.518.093.093,0,0,1,.135.13,3.54,3.54,0,0,0-.858,2.381.094.094,0,0,1-.09.1h0" transform="translate(-1290.891 -1203.514)" fill="#fff"/>
          <path id="Trazado_224537" data-name="Trazado 224537" d="M1330.911,1354.161c-.49.271-12.889.848-19.79-3.6a2.6,2.6,0,0,1-1.064-3.523s1.608,6.018,20.855,7.12" transform="translate(-1138.322 -1170.737)" fill="#051733"/>
          <path id="Trazado_224538" data-name="Trazado 224538" d="M1373.254,1339.5a.147.147,0,0,1-.04-.006c-8.937-2.647-13.053-5.389-13.094-5.416a.14.14,0,0,1,.157-.232c.04.027,4.127,2.746,13.017,5.379a.14.14,0,0,1-.04.275" transform="translate(-1182.05 -1159.245)" fill="#051733"/>
          <path id="Trazado_224539" data-name="Trazado 224539" d="M1416.7,1346.981a.14.14,0,0,1-.025-.278,54.574,54.574,0,0,0,7.873-1.959.14.14,0,1,1,.11.258,53.533,53.533,0,0,1-7.934,1.977l-.025,0" transform="translate(-1231.158 -1168.73)" fill="#051733"/>
          <path id="Trazado_224540" data-name="Trazado 224540" d="M1381.515,1192.624c.2,1.5-10.505,1.862-15.979-.317-.818-3.393-3.644-18.838,4.8-18.792,9.113.05,10.316,15.012,11.182,19.109" transform="translate(-1185.842 -1019.922)" fill="#fff"/>
          <path id="Trazado_224541" data-name="Trazado 224541" d="M1310.9,1200.822l-.126-1.912,2.01-.3.759,1.719c.086.508-2.558,1-2.643.5" transform="translate(-1139.217 -1041.73)" fill="#f7a594"/>
          <path id="Trazado_224542" data-name="Trazado 224542" d="M1317.336,1180.164l.487-3.1s-.708-.2-.775.642-1.439,1.372-1.085,2.191,1.372.266,1.372.266" transform="translate(-1143.676 -1022.99)" fill="#f7a594"/>
          <path id="Trazado_224543" data-name="Trazado 224543" d="M1300.4,1173.481a11.841,11.841,0,0,1-1.638-3.608c-.014-.478.2-.62.2-.62l3.431,3.364s.221.686-.044.974a1.348,1.348,0,0,1-1.948-.111" transform="translate(-1128.772 -1016.218)" fill="#f7a594"/>
          <path id="Trazado_224544" data-name="Trazado 224544" d="M1319.185,1187.471s.035.545-.277.433c-.917-.268-.971-1.615-.971-1.615Z" transform="translate(-1145.441 -1031.024)" fill="#cc7767"/>
          <path id="Trazado_224545" data-name="Trazado 224545" d="M1292.955,1161.13l-6.382-5.928a.657.657,0,0,0-.365.081l6.731,6.172a.817.817,0,0,0,.017-.326" transform="translate(-1117.865 -1004.005)" fill="#404040"/>
          <path id="Trazado_224546" data-name="Trazado 224546" d="M1285.422,1155.831c-.1.067-.159.186-.087.406a48.5,48.5,0,0,0,6.382,5.927c.278.095.391-.02.436-.161Z" transform="translate(-1117.079 -1004.553)"/>
          <path id="Trazado_224547" data-name="Trazado 224547" d="M1298.744,1170.179s.065-.533,1.026.121c1.167.794,1.95,2.211,1.687,2.574-.335.463-2.967-1.633-2.713-2.7" transform="translate(-1128.746 -1016.845)" fill="#f7a594"/>
          <path id="Trazado_224548" data-name="Trazado 224548" d="M1366.384,1175.47c-6.053,1.328-4.421,15.784-4,18.917a50.417,50.417,0,0,0,6.3,1.6c-2.91-6.884-4.437-19.863-2.3-20.52" transform="translate(-1183.622 -1021.621)" fill="#ffb655"/>
          <path id="Trazado_224549" data-name="Trazado 224549" d="M1392.552,1151.046c-.673,3.279-4.28,3.2-4.326,1.355a.81.81,0,0,1-.009-.15l-.29-3.98-.037-.486.318-.065,2.868-.57.1-.019.084.252.365,1.037Z" transform="translate(-1206.238 -996.991)" fill="#f7a594"/>
          <path id="Trazado_224550" data-name="Trazado 224550" d="M1420.166,1175.133c-1.14,2.68.367,16.676,1.411,20.853,2.824.954,7.082-.441,8.22-1.873-.807-3.82-2.1-17.164-9.631-18.98" transform="translate(-1233.937 -1021.328)" fill="#ffb655"/>
          <path id="Trazado_224551" data-name="Trazado 224551" d="M1419.89,1195.6c-.44,2.41.4,6.59,1.05,8.762,1.729,1.273,4.417.616,4.417-1.339a26.234,26.234,0,0,0-.506-5.982c-.419-5.036-4.745-4.989-4.962-1.441" transform="translate(-1233.944 -1036.927)" fill="#ffb655"/>
          <path id="Trazado_224552" data-name="Trazado 224552" d="M1387.1,1236.443c-1.782-.642-2.7,1.916-1.4,2.8,3.084,2.081,7.874,4.88,8.726,3.1,1.246-2.608-3.265-4.614-7.324-5.9" transform="translate(-1203.804 -1074.525)" fill="#ffb655"/>
          <path id="Trazado_224553" data-name="Trazado 224553" d="M1377.5,1236.089l-1.319-.7c-.829-.642.631-1.964,1.223-1.751l1.026.644c.52.492-.219,1.75-.93,1.8" transform="translate(-1195.844 -1072.158)" fill="#f7a594"/>
          <path id="Trazado_224554" data-name="Trazado 224554" d="M1373.959,1222.577c-1.079-.23-.706-1.32-.463-2.565-.869-3.736,3.884,2.665.463,2.565" transform="translate(-1193.498 -1059.315)" fill="#f7a594"/>
          <path id="Trazado_224555" data-name="Trazado 224555" d="M1372.622,1212.346s-.352-.549-1.128-1.775c-.349.066-.537.68-.067,1.217.413.472,1.01.792,1.195.558" transform="translate(-1191.686 -1052.128)" fill="#f7a594"/>
          <path id="Trazado_224556" data-name="Trazado 224556" d="M1366.528,1221.04c-.78-.442-1.335.844-1.13,1.848.313,1.536,1.457.777,1.8.368.625-.75.288-1.674-.668-2.215" transform="translate(-1186.653 -1061.149)" fill="#f7a594"/>
          <path id="Trazado_224557" data-name="Trazado 224557" d="M1419.416,1206.233a.093.093,0,0,1-.092-.078,15.8,15.8,0,0,1,.125-5.741.093.093,0,1,1,.179.053,15.607,15.607,0,0,0-.12,5.657.093.093,0,0,1-.077.108h-.015" transform="translate(-1233.37 -1043.242)" fill="#fff"/>
          <path id="Trazado_224558" data-name="Trazado 224558" d="M1422.916,1235.916a8.828,8.828,0,0,1-3.47-1.025.093.093,0,1,1,.089-.165c.035.019,3.547,1.881,4.831.472,1.127-1.236.287-6.587.279-6.641a.094.094,0,0,1,.185-.029c.036.224.861,5.495-.325,6.8a2.063,2.063,0,0,1-1.588.591" transform="translate(-1233.621 -1067.667)" fill="#fff"/>
          <path id="Trazado_224559" data-name="Trazado 224559" d="M1402.226,1237.516a.1.1,0,0,1-.038-.008c-2.25-1-5.068-1.906-5.1-1.916a.093.093,0,0,1,.057-.178c.028.009,2.855.918,5.115,1.922a.093.093,0,0,1-.038.179" transform="translate(-1214.181 -1073.717)" fill="#fff"/>
          <path id="Trazado_224560" data-name="Trazado 224560" d="M1388.559,1152.438c-.084-.88-.567-4.191-.008-4.594l2.868-.57c.658,3.615-1.792,5.419-2.86,5.164" transform="translate(-1206.583 -997.116)" fill="#d97661"/>
          <path id="Trazado_224561" data-name="Trazado 224561" d="M1360.889,1105.377c-.139,2.956-2.771,5.25-4.729,5.141s-4.365-2.607-4.225-5.563,2.257-5.258,4.729-5.141,4.365,2.607,4.225,5.563" transform="translate(-1174.985 -955.864)" fill="#f7a594"/>
          <path id="Trazado_224562" data-name="Trazado 224562" d="M1342,1096.335c-2.476-2.031-4.151-.614-5.7.917-1.085,1.075-1.855,1.848-3.045,1.883,1.9,3.11,6.62,1.795,8.385-.87a3.437,3.437,0,0,0,3.018,3.215c.649-1.746-.148-5.535-2.662-5.145" transform="translate(-1158.759 -951.967)" fill="#0e0e0e"/>
          <path id="Trazado_224563" data-name="Trazado 224563" d="M1411.07,1136.639a1.021,1.021,0,1,1-.888-1.138,1.021,1.021,0,0,1,.888,1.138" transform="translate(-1224.618 -986.877)" fill="#f7a594"/>
          <path id="Trazado_224564" data-name="Trazado 224564" d="M1010.7,1007.469l-1.891,1.056-.479-.862,0-.005-3.388-6.1,0,0-1.759-1.859-3.36-3.55c-1.727-2.275,1.242-5.034,3.244-3.061a31.433,31.433,0,0,1,4.795,6.624,68.522,68.522,0,0,1,2.6,7.022l.021.065c.137.42.219.674.219.674" transform="translate(-868.505 -862.521)" fill="#ffb900"/>
          <path id="Trazado_224565" data-name="Trazado 224565" d="M1071.188,1103.148l-.828-2.458a2.915,2.915,0,0,1-2.083,1.076s.986,1.888,1.243,2.22,1.538-.013,1.667-.837" transform="translate(-928.459 -956.629)" fill="#cf6d53"/>
          <path id="Trazado_224566" data-name="Trazado 224566" d="M1075.941,1117.447c0,.018-.005.041,0,.058a1.677,1.677,0,0,0,.71,1.448.1.1,0,0,0,.043.024c-.594-.2-.88.594-.594.822a1.714,1.714,0,0,0,2.376-.445c.175-.5-.631-2.331-.631-2.331-.468-.487-1.81-.59-1.9.424" transform="translate(-935.113 -970.513)" fill="#cf6d53"/>
          <path id="Trazado_224567" data-name="Trazado 224567" d="M1075.917,1122.236a1.62,1.62,0,0,0,.739,1.463c.5.05.687.042,1.166.1a1.114,1.114,0,0,1-.535-1.436,1.365,1.365,0,0,0-1.37-.131" transform="translate(-935.092 -975.244)" fill="#9e533f"/>
          <path id="Trazado_224568" data-name="Trazado 224568" d="M1074.3,1117.216a5.857,5.857,0,0,0-.193,2.414s.479.086.549-.83c.018-.238.118-.749.374-.89.782-.386.954-.808.735-1.2-.292-.523-1.351-.164-1.464.507" transform="translate(-933.476 -970.334)" fill="#cf6d53"/>
          <path id="Trazado_224569" data-name="Trazado 224569" d="M1079.717,1137.413c-.426.222-1.529.617-1.676.466s.793-.928,1.343-.977.551.4.333.51" transform="translate(-936.93 -988.098)" fill="#cf6d53"/>
          <path id="Trazado_224570" data-name="Trazado 224570" d="M1030.689,1025.344l-1.759-1.859.381-3.7a18.965,18.965,0,0,0,1.378,5.563" transform="translate(-894.261 -886.309)" fill="#a85900"/>
          <path id="Trazado_224571" data-name="Trazado 224571" d="M969.582,966.6l.7,2.817.127.524c.142.665,4.537.382,4.226-.4l-.262-.573L973.022,966Z" transform="translate(-842.68 -839.569)" fill="#cf6d53"/>
          <path id="Trazado_224572" data-name="Trazado 224572" d="M949.453,910.341c-.373,3.125.648,5.54,3.285,5.149,2.2-.325,4.673-1.514,4.751-5.188a4.094,4.094,0,0,0-4.038-4.219c-2.219.011-3.667,1.495-4,4.258" transform="translate(-825.121 -787.493)" fill="#cf6d53"/>
          <path id="Trazado_224573" data-name="Trazado 224573" d="M947.3,1378.632c-.261-.277-1.494-.281-1.606.128s.1.7-.415,1.35a5.266,5.266,0,0,0,1.686,0c.325-.094.6-1.2.336-1.478" transform="translate(-821.56 -1198.023)" fill="#e6f9ff"/>
          <path id="Trazado_224574" data-name="Trazado 224574" d="M956.9,1138.785h-2.382c-.223-10.082-.18-21.057-.1-29.322a20.622,20.622,0,0,1,.647-6.234c1.084-3.588,6.182-2.484,6.544.769.151,1.805,1.184,5.346-2.152,17.311-.035,7.929-2,11.565-2.557,17.477" transform="translate(-829.44 -956.898)" fill="#7d73ab"/>
          <path id="Trazado_224575" data-name="Trazado 224575" d="M930.444,1386.007a3.262,3.262,0,0,0,1.67-.743,1.829,1.829,0,0,0,1.606.3c.852-.127.965-.523,1.576-.47.258.717.886,2.325.28,2.7h-6.314c-.564-.515-.549-1.613,1.182-1.786" transform="translate(-807.35 -1203.806)" fill="#e6f9ff"/>
          <path id="Trazado_224576" data-name="Trazado 224576" d="M1038.74,1379.359c-.237-.251-1.355-.255-1.457.116s.095.636-.377,1.225a4.78,4.78,0,0,0,1.529,0c.295-.086.541-1.09.3-1.341" transform="translate(-901.193 -1198.671)" fill="#e6f9ff"/>
          <path id="Trazado_224577" data-name="Trazado 224577" d="M993.193,1105.559c.487-3.717,7.1-3.335,7.539-.09.159,1.746.848,3.8-.395,16.773,2.621,4.95,1.676,12.625,2.46,17.854.086.8-2.167.987-2.342.278-2.4-9.7-5.757-20.583-7-28.654a19.341,19.341,0,0,1-.257-6.161" transform="translate(-863.076 -958.551)" fill="#7d73ab"/>
          <path id="Trazado_224578" data-name="Trazado 224578" d="M1020.269,1383.015a2.509,2.509,0,0,0,1.391-.964,1.913,1.913,0,0,0,1.68.7c.92-.137,1.041-.565,1.7-.508.278.773.956,2.509.3,2.911h-6.628c-.608-.556-.314-1.95,1.554-2.136" transform="translate(-885.134 -1201.164)" fill="#e6f9ff"/>
          <path id="Trazado_224579" data-name="Trazado 224579" d="M851.739,975.227l.762-1.008c.578.3,1.554.656,2.573,1.177l-1.111,1.772c-.916-.766-1.708-1.464-2.224-1.942" transform="translate(-740.261 -846.711)" fill="#cf6d53"/>
          <path id="Trazado_224580" data-name="Trazado 224580" d="M869.419,981.727l6.314,1.758,7.615-.347c1.956-.124,2.942,6.764-1.25,5.847l-5.572-1.73s-5.667-1.78-7.8-3.561Z" transform="translate(-755.027 -853.236)" fill="#ffb900"/>
          <path id="Trazado_224581" data-name="Trazado 224581" d="M840.894,969.236c-.37-.8.362-1.837.418-1.916l1.631.878c.818.405.376,1.447-.531,1.539,0,0-1.124.221-1.517-.5" transform="translate(-730.745 -840.715)" fill="#cf6d53"/>
          <path id="Trazado_224582" data-name="Trazado 224582" d="M835.528,962.227c-1.658-1.215-1.238-1.484-1.238-1.484s.619.357,1.682,1.05c.588.424-.006.691-.444.434" transform="translate(-725.054 -834.998)" fill="#cf6d53"/>
          <path id="Trazado_224583" data-name="Trazado 224583" d="M953.4,989.826c-.418-2.034-.642-4.042,1.454-5.3.6-1.948,5.984-3.074,7.105-.665,1.882.841,1.475,4.51,1.828,10.3,1.3,2.891,1.861,3.841,2.245,6.657,0,0-.694,2.122-5.582,2.125-2.22,0-5.489-.2-6.976-1.328.148-1.92.951-3.771,1.286-6.489,0,0-1.329-5.064-1.36-5.3" transform="translate(-828.377 -853.898)" fill="#ffb900"/>
          <path id="Trazado_224584" data-name="Trazado 224584" d="M946.965,945.012s-.969.666-.454,1.09a.708.708,0,0,0,.908.106Z" transform="translate(-822.498 -821.326)" fill="#cf6d53"/>
          <path id="Trazado_224585" data-name="Trazado 224585" d="M951.718,904.841s1.3,6.266,6.147,6.007c2.49-2.651,3.2-7.93-.647-9.053-4.244-1.239-5.537,2.2-5.5,3.046" transform="translate(-827.154 -783.534)" fill="#0d192b"/>
          <path id="Trazado_224586" data-name="Trazado 224586" d="M946.475,930.535l-.337,2.083.174.05.329-2.09Z" transform="translate(-822.305 -808.744)" fill="#0d192b"/>
          <path id="Trazado_224587" data-name="Trazado 224587" d="M950.265,941.086a.059.059,0,0,1-.009-.117.66.66,0,0,0,.477-.561.691.691,0,0,0-.3-.75,22.713,22.713,0,0,0-2.536-.722.059.059,0,0,1,.027-.114,21.865,21.865,0,0,1,2.568.735.805.805,0,0,1,.353.873.766.766,0,0,1-.575.654h-.009" transform="translate(-823.797 -815.946)" fill="#0d192b"/>
          <path id="Trazado_224588" data-name="Trazado 224588" d="M958.207,943.2a.785.785,0,0,0,.108,1.035c.279.174.683-.007.9-.4a.785.785,0,0,0-.108-1.036c-.279-.174-.683.007-.9.4" transform="translate(-832.675 -819.339)" fill="#cf6d53"/>
          <path id="Trazado_224589" data-name="Trazado 224589" d="M998.545,912.678a.862.862,0,0,1-.349-1.158c.317-.84,1.871-.7,2,.159s-.222.793-.222.793Z" transform="translate(-867.474 -791.73)" fill="#ed5a24"/>
          <path id="Trazado_224590" data-name="Trazado 224590" d="M1000.717,915.554a81.42,81.42,0,0,1,1.138,19.515c.076,2.2,5.243,2.021,5.167-.178,0,0-.429-13.953-5.082-19.845a.855.855,0,0,0-1.224.508" transform="translate(-869.74 -795.194)" fill="#0d192b"/>
          <path id="Trazado_224591" data-name="Trazado 224591" d="M582.372,748.965h1.459l17.387-95.54h-1.459Z" transform="translate(-506.149 -567.903)"/>
          <path id="Trazado_224592" data-name="Trazado 224592" d="M416.6,748.965h1.459l17.387-95.54h-1.459Z" transform="translate(-362.071 -567.903)"/>
          <path id="Trazado_224593" data-name="Trazado 224593" d="M537.211,714.18H560l.282-1.55H537.493Z" transform="translate(-466.899 -619.359)"/>
          <path id="Trazado_224594" data-name="Trazado 224594" d="M523.14,791.5h22.791l.282-1.55H523.422Z" transform="translate(-454.67 -686.555)"/>
          <path id="Trazado_224595" data-name="Trazado 224595" d="M509.07,868.811h22.791l.282-1.55H509.352Z" transform="translate(-442.441 -753.752)"/>
          <path id="Trazado_224596" data-name="Trazado 224596" d="M495,946.126H517.79l.282-1.55H495.281Z" transform="translate(-430.212 -820.947)"/>
          <path id="Trazado_224597" data-name="Trazado 224597" d="M480.928,1023.441h22.791l.282-1.55H481.21Z" transform="translate(-417.983 -888.143)"/>
          <path id="Trazado_224598" data-name="Trazado 224598" d="M466.858,1100.756h22.791l.282-1.55H467.14Z" transform="translate(-405.754 -955.339)"/>
          <path id="Trazado_224599" data-name="Trazado 224599" d="M452.787,1178.072h22.791l.282-1.55H453.069Z" transform="translate(-393.525 -1022.535)"/>
          <path id="Trazado_224600" data-name="Trazado 224600" d="M438.716,1255.387h22.791l.282-1.55H439Z" transform="translate(-381.296 -1089.732)"/>
          <path id="Trazado_224601" data-name="Trazado 224601" d="M424.646,1332.7h22.791l.282-1.55H424.928Z" transform="translate(-369.067 -1156.927)"/>
          <path id="Trazado_224602" data-name="Trazado 224602" d="M483.918,1078.368a6.473,6.473,0,0,1,.1-3.085l4.447.005s4.66.25,4.031,3.079Z" transform="translate(-420.459 -934.547)" fill="#fff"/>
          <path id="Trazado_224603" data-name="Trazado 224603" d="M507.033,1078.368a6.474,6.474,0,0,1,.1-3.085l4.447.005s4.66.25,4.031,3.079Z" transform="translate(-440.549 -934.547)" fill="#fff"/>
          <path id="Trazado_224604" data-name="Trazado 224604" d="M486.038,835.766h4.843c.558-3.715,4.3-28.814,4.651-36.293h-8.983l2.082,15.312c-.9,6.8-2.167,15.007-2.593,20.981" transform="translate(-422.424 -694.836)"/>
          <path id="Trazado_224605" data-name="Trazado 224605" d="M617.532,604.552a3.028,3.028,0,0,1,1.465-.933c.57-.118,1.181,1.126,1.144,1.356a.984.984,0,0,1-1.2.754c-.828-.184-1.589-.5-1.4-1.177" transform="translate(-536.683 -524.609)" fill="#f77854"/>
          <path id="Trazado_224606" data-name="Trazado 224606" d="M615.946,609.728a10.8,10.8,0,0,1,.233-2.527c.225-.281.781-.776,1.23-.383.066,1.967,1.071.741,1.615,1.72a3.417,3.417,0,0,1-1.815,1.916c-.758.14-1.263-.726-1.263-.726" transform="translate(-535.329 -527.269)" fill="#f7a58e"/>
          <path id="Trazado_224607" data-name="Trazado 224607" d="M620.6,591.793s.116-2.906.43-3.264.566,2.579.371,3.042-.583.545-.8.222" transform="translate(-539.371 -511.475)" fill="#f7a58e"/>
          <path id="Trazado_224608" data-name="Trazado 224608" d="M628.436,606.671l.719-.542a1.262,1.262,0,0,1-.365-.821c.015-.449.346-.464.346-.464s.764.954.764,1.433a2.837,2.837,0,0,1-.885,1.675c-.268.241-1.2-.529-.578-1.281" transform="translate(-546 -525.68)" fill="#f7a58e"/>
          <path id="Trazado_224609" data-name="Trazado 224609" d="M530.946,630.654s-1.115,9.818-4.427,9.468c-.569-.06-1.166-.138-1.766-.227h0c-.768-.113-1.538-.242-2.255-.371-1.984-.356-3.564-.71-3.564-.71s-4.261-1.03-3.159-4.287,4.809-1.695,4.809-1.695l5.632,2.11,2.512-4.918Z" transform="translate(-448.11 -547.565)" fill="#ffb900"/>
          <path id="Trazado_224610" data-name="Trazado 224610" d="M611.756,631.1l.548-1.083a5.022,5.022,0,0,1,2.383.685v1.411a4.6,4.6,0,0,0-2.932-1.014" transform="translate(-531.688 -547.563)" fill="#ffb900"/>
          <path id="Trazado_224611" data-name="Trazado 224611" d="M520.225,618.513l-4.958-1.759,2.869-6.26,3.626,1.541Z" transform="translate(-447.828 -530.591)" fill="#f7a58e"/>
          <path id="Trazado_224612" data-name="Trazado 224612" d="M528.684,562.2c.747,2.689-.145,5.838-1.884,6.106-2.385.368-5.791-1.077-6.538-3.766s.533-5.393,2.858-6.039,4.817,1.01,5.564,3.7" transform="translate(-451.983 -485.28)" fill="#f7a58e"/>
          <path id="Trazado_224613" data-name="Trazado 224613" d="M515.336,559.915a8.344,8.344,0,0,1-2.159-5.413c.046-3.152,1.952-4.274,4.472-4.548s4.3,1.616,7.206,1.155c.03,1.019-1.195,2.884-2.69,2.678-1.669.441-2.068,1.558-2.2,3.975,0,0-.355-1.5-1.059-1.265-.818.272-.633,1.375-.194,1.776-.39.735-2.794,1.346-3.371,1.642" transform="translate(-446.011 -477.95)"/>
          <path id="Trazado_224614" data-name="Trazado 224614" d="M509.393,832.492h4.831c.562-3.8,4.4-29.978,4.674-36.786h-9.053l1.654,17.279c-.9,6.794-1.629,13.588-2.107,19.507" transform="translate(-442.722 -691.562)"/>
          <path id="Trazado_224615" data-name="Trazado 224615" d="M500.927,662.557l-12.734-.137s.468-14.972.986-17.058,2.834-4.446,2.834-4.446l5.216,1.252c1.015,1.856,2.173,6.806,2.914,10.979.036.194.072.417.108.662.237,1.554.482,3.885.583,5.087a5.483,5.483,0,0,1,.036.784,8.287,8.287,0,0,0,.058,2.878" transform="translate(-424.297 -557.031)" fill="#ffb900"/>
          <path id="Trazado_224616" data-name="Trazado 224616" d="M518.414,710.634a9.4,9.4,0,0,1-2.439-.086c-3.281-.489-7.554-10.1-7.554-10.1l6.82,5.1h2.59c.237,1.554.482,3.885.583,5.087" transform="translate(-441.877 -608.77)" fill="#e89a00"/>
          <path id="Trazado_224617" data-name="Trazado 224617" d="M517.391,634.569l.369-.955a18.619,18.619,0,0,1,5.524,2.193l.434,2.4a17.209,17.209,0,0,0-6.328-3.637" transform="translate(-449.673 -550.685)" fill="#ffb900"/>
          <path id="Trazado_224618" data-name="Trazado 224618" d="M619.208,728.544s2.133-.4,2.542-1.711-4.638-.929-4.2.708c.294,1.106,1.66,1,1.66,1" transform="translate(-536.698 -631.017)" fill="#f7b28a"/>
          <path id="Trazado_224619" data-name="Trazado 224619" d="M617.01,695.354l-1.24-4.313,8.721-2.616,1.24,4.313Z" transform="translate(-535.176 -598.322)" fill="#4d4d4d"/>
          <path id="Trazado_224620" data-name="Trazado 224620" d="M615.681,694.057l-1.24-4.313,8.721-2.616,1.24,4.313Z" transform="translate(-534.021 -597.194)" fill="#fff"/>
          <path id="Trazado_224621" data-name="Trazado 224621" d="M680.43,698.07l.634-.175.422,1.549-.651.205Z" transform="translate(-591.373 -606.552)" fill="#ccc"/>
          <path id="Trazado_224622" data-name="Trazado 224622" d="M521.837,674l-6.8-.716-2.809-5.263s-1.366-3.783-4.507-2.384-1.008,5.229-1.008,5.229,2.768,4.832,5.5,6.741S522,675.839,522,675.839c.706-.062.543-1.905-.163-1.843" transform="translate(-439.775 -578.245)" fill="#ffb900"/>
          <path id="Trazado_224623" data-name="Trazado 224623" d="M555.3,680.031H555.3l-6.347-.642-.017-.039a34.621,34.621,0,0,0-3.873-6.974.072.072,0,1,1,.115-.086,34.662,34.662,0,0,1,3.873,6.964l6.263.633a.072.072,0,0,1-.007.144" transform="translate(-473.707 -584.273)" fill="#e89a00"/>
          <path id="Trazado_224624" data-name="Trazado 224624" d="M629.907,727.962s1.292-1.949,1.712-1.685c.449.282-.328,1.67-.8,1.971s-.881.149-.916-.286" transform="translate(-547.463 -631.199)" fill="#f7b28a"/>
          <path id="Trazado_224625" data-name="Trazado 224625" d="M620.479,729.281a2.176,2.176,0,0,1,.844,1.144,1.584,1.584,0,0,1-.251,1.266l.664-.245a2.035,2.035,0,0,0,.262-.977,1.67,1.67,0,0,0-.441-1.028Z" transform="translate(-539.269 -633.831)" fill="#ffb900"/>
        </g>
      </g>
    </g>
  </g>
</svg>
