<svg xmlns="http://www.w3.org/2000/svg" width="206.451" height="217.045" viewBox="0 0 206.451 217.045">
  <g id="Grupo_117815" data-name="Grupo 117815" transform="translate(-1105 -451)">
    <g id="Grupo_117814" data-name="Grupo 117814">
      <g id="Grupo_114525" data-name="Grupo 114525" transform="translate(898 -397.107)">
        <path id="Trazado_225939" data-name="Trazado 225939" d="M104.43,279.317A79.073,79.073,0,1,1,183.5,358.39a79.073,79.073,0,0,1-79.073-79.073" transform="translate(126.731 677.263)" fill="#ffcecc"/>
        <path id="Trazado_225940" data-name="Trazado 225940" d="M784.989,262.9a1.316,1.316,0,0,1-1.059-.533c-1.028-1.385-2.106-2.762-3.206-4.095a1.318,1.318,0,1,1,2.033-1.678c1.128,1.367,2.235,2.781,3.289,4.2a1.318,1.318,0,0,1-1.057,2.1" transform="translate(-392.863 634.316)" fill="#0e5489"/>
        <path id="Trazado_225941" data-name="Trazado 225941" d="M827.352,405.633a1.319,1.319,0,0,1-1.216-1.825,100.2,100.2,0,0,0,3.49-9.776,1.318,1.318,0,0,1,2.525.756,102.853,102.853,0,0,1-3.582,10.034,1.318,1.318,0,0,1-1.217.811m6.026-20.124a1.319,1.319,0,0,1-1.3-1.563,101.093,101.093,0,0,0,1.4-10.287,1.318,1.318,0,1,1,2.626.22,103.663,103.663,0,0,1-1.436,10.556,1.318,1.318,0,0,1-1.294,1.073m1.759-20.933a1.318,1.318,0,0,1-1.317-1.294,101.877,101.877,0,0,0-.717-10.357,1.318,1.318,0,0,1,2.617-.317,104.542,104.542,0,0,1,.736,10.626,1.318,1.318,0,0,1-1.294,1.341h-.024m-2.528-20.851a1.318,1.318,0,0,1-1.284-1.025,100.239,100.239,0,0,0-2.828-9.986,1.318,1.318,0,1,1,2.5-.849,102.809,102.809,0,0,1,2.9,10.25,1.319,1.319,0,0,1-1.286,1.611m-6.763-19.883a1.318,1.318,0,0,1-1.2-.767,100.69,100.69,0,0,0-4.827-9.189,1.318,1.318,0,0,1,2.267-1.345,103.3,103.3,0,0,1,4.954,9.43,1.318,1.318,0,0,1-1.2,1.87" transform="translate(-423.004 591.443)" fill="#0e5489"/>
        <path id="Trazado_225942" data-name="Trazado 225942" d="M817.511,753.936a1.318,1.318,0,0,1-1.122-2.008c.9-1.472,1.78-2.986,2.6-4.5a1.318,1.318,0,1,1,2.315,1.261c-.847,1.554-1.746,3.108-2.673,4.618a1.317,1.317,0,0,1-1.124.629" transform="translate(-420.358 257.205)" fill="#0e5489"/>
        <path id="Trazado_225943" data-name="Trazado 225943" d="M1.318,521.443A1.318,1.318,0,0,1,0,520.125c0-1.777.046-3.573.136-5.338a1.318,1.318,0,0,1,2.632.134c-.088,1.721-.132,3.472-.132,5.2a1.318,1.318,0,0,1-1.318,1.318" transform="translate(207 436.455)" fill="#0e5489"/>
        <path id="Trazado_225944" data-name="Trazado 225944" d="M6.081,324.565a1.32,1.32,0,0,1-1.305-1.511c.483-3.269,1.132-6.549,1.927-9.75a1.318,1.318,0,1,1,2.558.636c-.775,3.119-1.407,6.315-1.878,9.5a1.319,1.319,0,0,1-1.3,1.125m4.726-19.02a1.319,1.319,0,0,1-1.242-1.759c1.1-3.11,2.371-6.2,3.771-9.2a1.318,1.318,0,1,1,2.387,1.117c-1.364,2.915-2.6,5.929-3.674,8.959a1.319,1.319,0,0,1-1.242.878m8.3-17.753a1.318,1.318,0,0,1-1.133-1.989c1.679-2.839,3.518-5.632,5.465-8.3a1.318,1.318,0,1,1,2.129,1.553c-1.9,2.6-3.689,5.322-5.325,8.088a1.318,1.318,0,0,1-1.136.647" transform="translate(203.34 618.295)" fill="#0e5489"/>
        <path id="Trazado_225945" data-name="Trazado 225945" d="M112.338,233.784a1.318,1.318,0,0,1-.985-2.193c1.176-1.325,2.4-2.636,3.645-3.9a1.318,1.318,0,1,1,1.878,1.849c-1.211,1.23-2.406,2.508-3.552,3.8a1.314,1.314,0,0,1-.986.443" transform="translate(121.665 656.467)" fill="#0e5489"/>
        <path id="Trazado_225946" data-name="Trazado 225946" d="M424.314,979.017c-1.775,0-3.571-.046-5.338-.136a1.318,1.318,0,0,1,.134-2.632c1.722.088,3.473.132,5.2.132a1.318,1.318,0,0,1,0,2.636" transform="translate(-114.08 80.797)" fill="#0e5489"/>
        <path id="Trazado_225947" data-name="Trazado 225947" d="M356.311,970.9a1.314,1.314,0,0,1-.175-.012c-2.763-.366-5.543-.85-8.261-1.439a1.318,1.318,0,1,1,.558-2.576c2.649.574,5.357,1.045,8.05,1.4a1.318,1.318,0,0,1-.171,2.625" transform="translate(-59.591 88.023)" fill="#0e5489"/>
        <path id="Trazado_225948" data-name="Trazado 225948" d="M296.908,954.957a1.316,1.316,0,0,1-.384-.057c-1.695-.515-3.4-1.082-5.065-1.685a1.318,1.318,0,1,1,.9-2.478c1.623.587,3.283,1.139,4.934,1.641a1.318,1.318,0,0,1-.383,2.579" transform="translate(-16.358 100.467)" fill="#0e5489"/>
        <path id="Trazado_225949" data-name="Trazado 225949" d="M557.719,646.862l3.609-3.609,8.079,8.079-6.5,6.5,25.874,3.149-3.148-25.874-6.5,6.5-6.817-6.817a15.537,15.537,0,0,0-21.973,0l-2.347,2.347" transform="translate(-214.209 346.752)" fill="#fff"/>
        <path id="Trazado_225950" data-name="Trazado 225950" d="M584.4,657.946a1.3,1.3,0,0,1-.159-.01l-25.874-3.148a1.318,1.318,0,0,1-.773-2.24l5.568-5.568-6.215-6.215-2.677,2.677a1.318,1.318,0,0,1-1.864-1.864l3.609-3.609a1.357,1.357,0,0,1,1.864,0l8.078,8.079a1.318,1.318,0,0,1,0,1.864l-4.587,4.587,21.517,2.619L580.271,633.6l-4.587,4.587a1.318,1.318,0,0,1-1.864,0L567,631.37a14.236,14.236,0,0,0-20.109,0l-2.347,2.347a1.318,1.318,0,0,1-1.864-1.864l2.347-2.347a16.875,16.875,0,0,1,23.837,0l5.885,5.885,5.568-5.568a1.318,1.318,0,0,1,2.24.773l3.148,25.874a1.318,1.318,0,0,1-1.308,1.477" transform="translate(-209.83 351.104)" fill="#1c5a89"/>
        <line id="Línea_1934" data-name="Línea 1934" x1="3.343" y1="3.343" transform="translate(343.775 986.662)" fill="#fff"/>
        <path id="Trazado_225951" data-name="Trazado 225951" d="M590.141,672.321a1.314,1.314,0,0,1-.932-.386l-3.343-3.343a1.318,1.318,0,0,1,1.864-1.864l3.343,3.343a1.318,1.318,0,0,1-.932,2.25" transform="translate(-243.022 319.002)" fill="#1c5a89"/>
        <path id="Trazado_225952" data-name="Trazado 225952" d="M669.952,760.463l5.1,5.1-8.079,8.079-6.5-6.5-3.149,25.874,25.874-3.148-6.5-6.5,6.817-6.817a15.537,15.537,0,0,0,0-21.973l-3.837-3.837" transform="translate(-298.244 254.133)" fill="#fc9081"/>
        <path id="Trazado_225953" data-name="Trazado 225953" d="M652.945,789.953a1.318,1.318,0,0,1-1.308-1.477l3.149-25.874a1.318,1.318,0,0,1,2.24-.773l5.568,5.568,6.215-6.215-4.167-4.167a1.318,1.318,0,1,1,1.864-1.864l5.1,5.1a1.318,1.318,0,0,1,0,1.864l-8.079,8.079a1.318,1.318,0,0,1-1.864,0l-4.587-4.587-2.618,21.517,21.517-2.618-4.587-4.587a1.318,1.318,0,0,1,0-1.864l6.817-6.817a14.22,14.22,0,0,0,0-20.109l-3.837-3.837a1.318,1.318,0,0,1,1.864-1.864l3.837,3.837a16.855,16.855,0,0,1,0,23.837l-5.885,5.885,5.569,5.568a1.318,1.318,0,0,1-.773,2.24L653.1,789.944a1.314,1.314,0,0,1-.159.01" transform="translate(-293.865 258.511)" fill="#0e5489"/>
        <line id="Línea_1935" data-name="Línea 1935" y1="3.343" x2="3.343" transform="translate(376.807 1016.351)" fill="#fff"/>
        <path id="Trazado_225954" data-name="Trazado 225954" d="M729.569,800.643a1.318,1.318,0,0,1-.932-2.25l3.343-3.343a1.318,1.318,0,0,1,1.864,1.864l-3.343,3.343a1.314,1.314,0,0,1-.932.386" transform="translate(-352.762 220.369)" fill="#1c5a89"/>
        <path id="Trazado_225955" data-name="Trazado 225955" d="M523,875.652,518.657,880l-8.079-8.079,6.5-6.5L491.2,862.271l3.149,25.874,6.5-6.5,6.817,6.817a15.538,15.538,0,0,0,21.973,0l3.085-3.085" transform="translate(-170.559 168.404)" fill="#fff"/>
        <path id="Trazado_225956" data-name="Trazado 225956" d="M514.279,889.952a16.745,16.745,0,0,1-11.919-4.937l-5.885-5.885-5.569,5.569a1.318,1.318,0,0,1-2.24-.773l-3.148-25.874a1.318,1.318,0,0,1,1.467-1.468l25.874,3.149a1.318,1.318,0,0,1,.772,2.24l-5.568,5.568,6.215,6.215,3.415-3.415a1.318,1.318,0,1,1,1.864,1.864l-4.347,4.347a1.356,1.356,0,0,1-1.864,0l-8.079-8.079a1.318,1.318,0,0,1,0-1.864l4.587-4.587L488.338,859.4l2.618,21.517,4.587-4.587a1.357,1.357,0,0,1,1.864,0l6.817,6.817a14.219,14.219,0,0,0,20.109,0l3.085-3.085a1.318,1.318,0,0,1,1.864,1.864l-3.085,3.085a16.745,16.745,0,0,1-11.919,4.937" transform="translate(-166.181 172.782)" fill="#1c5a89"/>
        <line id="Línea_1936" data-name="Línea 1936" x2="3.343" y2="3.343" transform="translate(348.099 1048.402)" fill="#fff"/>
        <path id="Trazado_225957" data-name="Trazado 225957" d="M608.825,939.177a1.314,1.314,0,0,1-.932-.386l-3.343-3.343a1.318,1.318,0,0,1,1.864-1.864l3.343,3.343a1.318,1.318,0,0,1-.932,2.25" transform="translate(-257.383 113.886)" fill="#1c5a89"/>
        <path id="Trazado_225958" data-name="Trazado 225958" d="M443.4,724.47l-5.1-5.1,8.079-8.078,6.5,6.5,3.149-25.874-25.874,3.148,6.5,6.5-6.817,6.817a15.537,15.537,0,0,0,0,21.973l3.837,3.837" transform="translate(-119.896 299.343)" fill="#fc9081"/>
        <path id="Trazado_225959" data-name="Trazado 225959" d="M429.328,731.133a1.314,1.314,0,0,1-.932-.386l-3.837-3.837a16.875,16.875,0,0,1,0-23.837l5.885-5.885-5.569-5.569a1.318,1.318,0,0,1,.773-2.24l25.874-3.149a1.318,1.318,0,0,1,1.468,1.468l-3.149,25.874a1.318,1.318,0,0,1-2.24.773l-5.569-5.569-6.215,6.215,4.167,4.167a1.318,1.318,0,1,1-1.864,1.864l-5.1-5.1a1.318,1.318,0,0,1,0-1.864l8.079-8.079a1.318,1.318,0,0,1,1.864,0l4.587,4.587,2.618-21.517-21.517,2.618,4.587,4.587a1.318,1.318,0,0,1,0,1.864l-6.817,6.817a14.235,14.235,0,0,0,0,20.109l3.837,3.837a1.318,1.318,0,0,1-.932,2.25" transform="translate(-115.544 303.723)" fill="#0e5489"/>
        <line id="Línea_1937" data-name="Línea 1937" x1="3.343" y2="3.343" transform="translate(315.067 1018.714)" fill="#fff"/>
        <path id="Trazado_225960" data-name="Trazado 225960" d="M462.712,810.856a1.318,1.318,0,0,1-.932-2.25l3.343-3.343a1.318,1.318,0,1,1,1.864,1.864l-3.343,3.343a1.314,1.314,0,0,1-.932.386" transform="translate(-147.645 212.52)" fill="#1c5a89"/>
        <path id="Trazado_225961" data-name="Trazado 225961" d="M42.418,604.32H22.937a4.393,4.393,0,0,1-4.393-4.393V586.3a4.393,4.393,0,0,1,4.393-4.393H42.418a4.393,4.393,0,0,1,4.393,4.393v13.626a4.393,4.393,0,0,1-4.393,4.393" transform="translate(192.747 383.901)" fill="#fc9081"/>
        <path id="Trazado_225962" data-name="Trazado 225962" d="M38.04,601.259H18.559a5.717,5.717,0,0,1-5.711-5.711V581.923a5.717,5.717,0,0,1,5.711-5.711H38.04a5.717,5.717,0,0,1,5.711,5.711v13.626a5.717,5.717,0,0,1-5.711,5.711M18.559,578.848a3.078,3.078,0,0,0-3.075,3.075v13.626a3.078,3.078,0,0,0,3.075,3.075H38.04a3.078,3.078,0,0,0,3.075-3.075V581.923a3.078,3.078,0,0,0-3.075-3.075Z" transform="translate(197.125 388.279)" fill="#0e5489"/>
        <line id="Línea_1938" data-name="Línea 1938" x1="6.057" transform="translate(233.502 973.682)" fill="#8db8f7"/>
        <path id="Trazado_225963" data-name="Trazado 225963" d="M116.227,612.874H110.17a1.318,1.318,0,1,1,0-2.636h6.057a1.318,1.318,0,0,1,0,2.636" transform="translate(123.332 362.126)" fill="#0e5489"/>
        <line id="Línea_1939" data-name="Línea 1939" x1="15.948" transform="translate(211.291 973.682)" fill="#8db8f7"/>
        <path id="Trazado_225964" data-name="Trazado 225964" d="M30.115,612.874H14.166a1.318,1.318,0,1,1,0-2.636H30.115a1.318,1.318,0,0,1,0,2.636" transform="translate(197.125 362.126)" fill="#0e5489"/>
        <path id="Trazado_225965" data-name="Trazado 225965" d="M260.36,604.32H240.879a4.393,4.393,0,0,1-4.393-4.393V586.3a4.393,4.393,0,0,1,4.393-4.393H260.36a4.393,4.393,0,0,1,4.393,4.393v13.626a4.393,4.393,0,0,1-4.393,4.393" transform="translate(25.228 383.901)" fill="#fff"/>
        <path id="Trazado_225966" data-name="Trazado 225966" d="M255.981,601.259H236.5a5.717,5.717,0,0,1-5.711-5.711V581.923a5.717,5.717,0,0,1,5.711-5.711h19.481a5.717,5.717,0,0,1,5.711,5.711v13.626a5.717,5.717,0,0,1-5.711,5.711M236.5,578.848a3.078,3.078,0,0,0-3.075,3.075v13.626a3.078,3.078,0,0,0,3.075,3.075h19.481a3.078,3.078,0,0,0,3.075-3.075V581.923a3.078,3.078,0,0,0-3.075-3.075Z" transform="translate(29.607 388.279)" fill="#0e5489"/>
        <line id="Línea_1940" data-name="Línea 1940" x1="6.057" transform="translate(283.925 973.682)" fill="#8db8f7"/>
        <path id="Trazado_225967" data-name="Trazado 225967" d="M334.168,612.874h-6.057a1.318,1.318,0,1,1,0-2.636h6.057a1.318,1.318,0,1,1,0,2.636" transform="translate(-44.186 362.126)" fill="#0e5489"/>
        <line id="Línea_1941" data-name="Línea 1941" x1="15.948" transform="translate(261.714 973.682)" fill="#8db8f7"/>
        <path id="Trazado_225968" data-name="Trazado 225968" d="M248.056,612.874H232.107a1.318,1.318,0,1,1,0-2.636h15.948a1.318,1.318,0,0,1,0,2.636" transform="translate(29.607 362.126)" fill="#0e5489"/>
        <path id="Trazado_225969" data-name="Trazado 225969" d="M42.418,760.53H22.937a4.393,4.393,0,0,1-4.393-4.393V742.511a4.393,4.393,0,0,1,4.393-4.393H42.418a4.393,4.393,0,0,1,4.393,4.393v13.626a4.393,4.393,0,0,1-4.393,4.393" transform="translate(192.747 263.833)" fill="#fff"/>
        <path id="Trazado_225970" data-name="Trazado 225970" d="M38.04,757.47H18.559a5.717,5.717,0,0,1-5.711-5.711V738.134a5.717,5.717,0,0,1,5.711-5.711H38.04a5.717,5.717,0,0,1,5.711,5.711v13.626a5.717,5.717,0,0,1-5.711,5.711M18.559,735.059a3.078,3.078,0,0,0-3.075,3.075v13.626a3.079,3.079,0,0,0,3.075,3.075H38.04a3.079,3.079,0,0,0,3.075-3.075V738.134a3.078,3.078,0,0,0-3.075-3.075Z" transform="translate(197.125 268.21)" fill="#0e5489"/>
        <line id="Línea_1942" data-name="Línea 1942" x1="6.057" transform="translate(233.502 1009.823)" fill="#8db8f7"/>
        <path id="Trazado_225971" data-name="Trazado 225971" d="M116.227,769.085H110.17a1.318,1.318,0,1,1,0-2.636h6.057a1.318,1.318,0,0,1,0,2.636" transform="translate(123.332 242.057)" fill="#0e5489"/>
        <line id="Línea_1943" data-name="Línea 1943" x1="15.948" transform="translate(211.291 1009.823)" fill="#8db8f7"/>
        <path id="Trazado_225972" data-name="Trazado 225972" d="M30.115,769.085H14.166a1.318,1.318,0,1,1,0-2.636H30.115a1.318,1.318,0,0,1,0,2.636" transform="translate(197.125 242.057)" fill="#0e5489"/>
        <path id="Trazado_225973" data-name="Trazado 225973" d="M260.36,760.53H240.879a4.393,4.393,0,0,1-4.393-4.393V741.81a3.692,3.692,0,0,1,3.692-3.692H260.36a4.393,4.393,0,0,1,4.393,4.393v13.626a4.393,4.393,0,0,1-4.393,4.393" transform="translate(25.228 263.833)" fill="#fc9081"/>
        <path id="Trazado_225974" data-name="Trazado 225974" d="M255.981,757.47H236.5a5.717,5.717,0,0,1-5.711-5.711V737.432a5.015,5.015,0,0,1,5.01-5.009h20.182a5.717,5.717,0,0,1,5.711,5.711v13.626a5.718,5.718,0,0,1-5.711,5.711M235.8,735.059a2.376,2.376,0,0,0-2.374,2.374v14.327a3.079,3.079,0,0,0,3.075,3.075h19.481a3.079,3.079,0,0,0,3.075-3.075V738.134a3.078,3.078,0,0,0-3.075-3.075Z" transform="translate(29.607 268.21)" fill="#0e5489"/>
        <line id="Línea_1944" data-name="Línea 1944" x1="6.057" transform="translate(283.925 1009.823)" fill="#8db8f7"/>
        <path id="Trazado_225975" data-name="Trazado 225975" d="M334.168,769.085h-6.057a1.318,1.318,0,1,1,0-2.636h6.057a1.318,1.318,0,1,1,0,2.636" transform="translate(-44.186 242.057)" fill="#0e5489"/>
        <line id="Línea_1945" data-name="Línea 1945" x1="15.948" transform="translate(261.714 1009.823)" fill="#8db8f7"/>
        <path id="Trazado_225976" data-name="Trazado 225976" d="M248.056,769.085H232.107a1.318,1.318,0,1,1,0-2.636h15.948a1.318,1.318,0,0,1,0,2.636" transform="translate(29.607 242.057)" fill="#0e5489"/>
        <path id="Trazado_225977" data-name="Trazado 225977" d="M122.761,885.979a15.648,15.648,0,1,1,15.648,15.648,15.648,15.648,0,0,1-15.648-15.648" transform="translate(112.641 162.209)" fill="#abf5ff"/>
        <path id="Trazado_225978" data-name="Trazado 225978" d="M134.031,898.566A16.966,16.966,0,1,1,151,881.6a16.985,16.985,0,0,1-16.965,16.966m0-31.3a14.33,14.33,0,1,0,14.33,14.33,14.346,14.346,0,0,0-14.33-14.33" transform="translate(117.02 166.587)" fill="#0e5489"/>
        <path id="Trazado_225979" data-name="Trazado 225979" d="M145.267,903.277a10.441,10.441,0,1,1,10.441,10.441,10.441,10.441,0,0,1-10.441-10.441" transform="translate(95.342 144.91)" fill="#fff"/>
        <path id="Trazado_225980" data-name="Trazado 225980" d="M151.329,910.657A11.759,11.759,0,1,1,163.087,898.9a11.772,11.772,0,0,1-11.758,11.759m0-20.882a9.123,9.123,0,1,0,9.123,9.123,9.133,9.133,0,0,0-9.123-9.123" transform="translate(99.721 149.288)" fill="#0e5489"/>
        <path id="Trazado_225981" data-name="Trazado 225981" d="M170.7,927.491a1.318,1.318,0,0,1-.932-.386l-3.192-3.192a1.318,1.318,0,1,1,1.864-1.864l2.26,2.26,5.452-5.452a1.318,1.318,0,0,1,1.864,1.864l-6.383,6.383a1.318,1.318,0,0,1-.932.386" transform="translate(79.257 125.206)" fill="#0e5489"/>
        <line id="Línea_1946" data-name="Línea 1946" x2="22.156" transform="translate(239.558 977.016)" fill="#8db8f7"/>
        <path id="Trazado_225982" data-name="Trazado 225982" d="M158.5,627.282H136.342a1.318,1.318,0,1,1,0-2.636H158.5a1.318,1.318,0,1,1,0,2.636" transform="translate(103.215 351.052)" fill="#0e5489"/>
        <line id="Línea_1947" data-name="Línea 1947" y2="13.729" transform="translate(275.847 988.221)" fill="#8db8f7"/>
        <path id="Trazado_225983" data-name="Trazado 225983" d="M293.195,689.445a1.318,1.318,0,0,1-1.318-1.318V674.4a1.318,1.318,0,0,1,2.636,0v13.73a1.318,1.318,0,0,1-1.318,1.318" transform="translate(-17.348 313.823)" fill="#0e5489"/>
        <line id="Línea_1948" data-name="Línea 1948" x2="22.156" transform="translate(239.558 1013.156)" fill="#8db8f7"/>
        <path id="Trazado_225984" data-name="Trazado 225984" d="M158.5,783.493H136.342a1.318,1.318,0,1,1,0-2.636H158.5a1.318,1.318,0,1,1,0,2.636" transform="translate(103.215 230.981)" fill="#0e5489"/>
        <path id="Trazado_225985" data-name="Trazado 225985" d="M85.232,855.752H77.677a3.745,3.745,0,0,1-3.741-3.741v-21.4a1.318,1.318,0,0,1,2.636,0v21.4a1.106,1.106,0,0,0,1.1,1.105h7.555a1.318,1.318,0,1,1,0,2.636" transform="translate(150.17 193.754)" fill="#0e5489"/>
        <path id="Trazado_225986" data-name="Trazado 225986" d="M296.906,81.858c0-1.651-1.021-2.99-2.281-2.99H165.852c-1.26,0-2.281,1.339-2.281,2.99V95.285H296.906Z" transform="translate(81.273 770.558)" fill="#abf5ff"/>
        <path id="Trazado_225987" data-name="Trazado 225987" d="M292.527,92.224H159.192a1.318,1.318,0,0,1-1.318-1.318V77.48c0-2.416,1.581-4.308,3.6-4.308H290.246c2.018,0,3.6,1.892,3.6,4.308V90.907a1.318,1.318,0,0,1-1.318,1.318M160.51,89.589h130.7V77.48c0-.942-.518-1.673-.963-1.673H161.473c-.445,0-.963.731-.963,1.673Z" transform="translate(85.652 774.936)" fill="#0e5489"/>
        <path id="Trazado_225988" data-name="Trazado 225988" d="M163.57,149.825v86.637c0,1.651,1.021,2.99,2.281,2.99H294.624c1.26,0,2.281-1.339,2.281-2.99V149.825Z" transform="translate(81.274 716.017)" fill="#fff"/>
        <path id="Trazado_225989" data-name="Trazado 225989" d="M290.246,236.392H161.473c-2.018,0-3.6-1.892-3.6-4.308V145.447a1.318,1.318,0,0,1,1.318-1.318H292.527a1.318,1.318,0,0,1,1.318,1.318v86.637c0,2.416-1.581,4.308-3.6,4.308M160.51,146.765v85.319c0,.942.518,1.672.963,1.672H290.246c.445,0,.963-.73.963-1.672V146.765Z" transform="translate(85.652 720.396)" fill="#0e5489"/>
        <line id="Línea_1949" data-name="Línea 1949" x2="26.537" transform="translate(267.331 884.142)" fill="#fff"/>
        <path id="Trazado_225990" data-name="Trazado 225990" d="M282.923,225.859H256.386a1.318,1.318,0,1,1,0-2.636h26.537a1.318,1.318,0,1,1,0,2.636" transform="translate(10.945 659.601)" fill="#0e5489"/>
        <line id="Línea_1950" data-name="Línea 1950" x2="10.952" transform="translate(298.379 884.142)" fill="#fff"/>
        <path id="Trazado_225991" data-name="Trazado 225991" d="M401.534,225.859H390.582a1.318,1.318,0,0,1,0-2.636h10.952a1.318,1.318,0,1,1,0,2.636" transform="translate(-92.203 659.601)" fill="#0e5489"/>
        <line id="Línea_1951" data-name="Línea 1951" x2="21.251" transform="translate(314.104 884.142)" fill="#fff"/>
        <path id="Trazado_225992" data-name="Trazado 225992" d="M479.8,225.859H458.547a1.318,1.318,0,1,1,0-2.636H479.8a1.318,1.318,0,1,1,0,2.636" transform="translate(-144.444 659.601)" fill="#0e5489"/>
        <line id="Línea_1952" data-name="Línea 1952" x2="19.009" transform="translate(267.331 891.836)" fill="#fff"/>
        <path id="Trazado_225993" data-name="Trazado 225993" d="M275.4,259.118H256.387a1.318,1.318,0,0,1,0-2.636H275.4a1.318,1.318,0,0,1,0,2.636" transform="translate(10.944 634.036)" fill="#0e5489"/>
        <line id="Línea_1953" data-name="Línea 1953" x2="8.699" transform="translate(285.169 891.836)" fill="#fff"/>
        <path id="Trazado_225994" data-name="Trazado 225994" d="M342.187,259.118h-8.7a1.318,1.318,0,1,1,0-2.636h8.7a1.318,1.318,0,1,1,0,2.636" transform="translate(-48.318 634.036)" fill="#0e5489"/>
        <line id="Línea_1954" data-name="Línea 1954" x2="20.325" transform="translate(297.632 891.836)" fill="#fff"/>
        <path id="Trazado_225995" data-name="Trazado 225995" d="M407.68,259.118H387.355a1.318,1.318,0,0,1,0-2.636H407.68a1.318,1.318,0,0,1,0,2.636" transform="translate(-89.723 634.036)" fill="#0e5489"/>
        <line id="Línea_1955" data-name="Línea 1955" x2="8.376" transform="translate(322.628 891.836)" fill="#fff"/>
        <path id="Trazado_225996" data-name="Trazado 225996" d="M503.771,259.118H495.4a1.318,1.318,0,1,1,0-2.636h8.376a1.318,1.318,0,0,1,0,2.636" transform="translate(-172.767 634.036)" fill="#0e5489"/>
        <line id="Línea_1956" data-name="Línea 1956" x2="8.203" transform="translate(339.865 884.142)" fill="#fff"/>
        <path id="Trazado_225997" data-name="Trazado 225997" d="M578.1,225.859h-8.2a1.318,1.318,0,0,1,0-2.636h8.2a1.318,1.318,0,1,1,0,2.636" transform="translate(-230.03 659.601)" fill="#0e5489"/>
        <line id="Línea_1957" data-name="Línea 1957" x2="8.25" transform="translate(351.862 884.142)" fill="#fff"/>
        <path id="Trazado_225998" data-name="Trazado 225998" d="M630,225.859h-8.25a1.318,1.318,0,1,1,0-2.636H630a1.318,1.318,0,0,1,0,2.636" transform="translate(-269.889 659.601)" fill="#0e5489"/>
        <line id="Línea_1958" data-name="Línea 1958" x2="9.462" transform="translate(257.869 897.523)" fill="#fff"/>
        <path id="Trazado_225999" data-name="Trazado 225999" d="M224.952,283.7H215.49a1.318,1.318,0,1,1,0-2.636h9.462a1.318,1.318,0,1,1,0,2.636" transform="translate(42.379 615.141)" fill="#0e5489"/>
        <line id="Línea_1959" data-name="Línea 1959" x2="27.852" transform="translate(267.772 903.546)" fill="#fff"/>
        <path id="Trazado_226000" data-name="Trazado 226000" d="M286.145,309.731H258.292a1.318,1.318,0,1,1,0-2.636h27.853a1.318,1.318,0,0,1,0,2.636" transform="translate(9.48 595.133)" fill="#0e5489"/>
        <line id="Línea_1960" data-name="Línea 1960" x2="10.338" transform="translate(299.84 903.546)" fill="#fff"/>
        <path id="Trazado_226001" data-name="Trazado 226001" d="M407.235,309.731H396.9a1.318,1.318,0,0,1,0-2.636h10.338a1.318,1.318,0,0,1,0,2.636" transform="translate(-97.057 595.133)" fill="#0e5489"/>
        <line id="Línea_1961" data-name="Línea 1961" x2="18.663" transform="translate(314.349 903.546)" fill="#fff"/>
        <path id="Trazado_226002" data-name="Trazado 226002" d="M478.273,309.731H459.61a1.318,1.318,0,0,1,0-2.636h18.663a1.318,1.318,0,0,1,0,2.636" transform="translate(-145.261 595.133)" fill="#0e5489"/>
        <line id="Línea_1962" data-name="Línea 1962" x2="9.462" transform="translate(257.869 878.203)" fill="#fff"/>
        <path id="Trazado_226003" data-name="Trazado 226003" d="M224.952,200.191H215.49a1.318,1.318,0,0,1,0-2.636h9.462a1.318,1.318,0,1,1,0,2.636" transform="translate(42.379 679.33)" fill="#0e5489"/>
        <line id="Línea_1963" data-name="Línea 1963" x2="17.786" transform="translate(337.308 903.546)" fill="#fff"/>
        <path id="Trazado_226004" data-name="Trazado 226004" d="M576.628,309.731H558.842a1.318,1.318,0,1,1,0-2.636h17.786a1.318,1.318,0,0,1,0,2.636" transform="translate(-221.534 595.133)" fill="#0e5489"/>
        <line id="Línea_1964" data-name="Línea 1964" x2="15.557" transform="translate(267.772 910.906)" fill="#fff"/>
        <path id="Trazado_226005" data-name="Trazado 226005" d="M273.85,341.545H258.293a1.318,1.318,0,1,1,0-2.636H273.85a1.318,1.318,0,1,1,0,2.636" transform="translate(9.479 570.68)" fill="#0e5489"/>
        <line id="Línea_1965" data-name="Línea 1965" x2="12.379" transform="translate(287.344 910.906)" fill="#fff"/>
        <path id="Trazado_226006" data-name="Trazado 226006" d="M355.267,341.545H342.888a1.318,1.318,0,0,1,0-2.636h12.379a1.318,1.318,0,0,1,0,2.636" transform="translate(-55.544 570.68)" fill="#0e5489"/>
        <line id="Línea_1966" data-name="Línea 1966" x2="27.142" transform="translate(299.723 917.473)" fill="#fff"/>
        <path id="Trazado_226007" data-name="Trazado 226007" d="M423.534,369.924H396.392a1.318,1.318,0,1,1,0-2.636h27.142a1.318,1.318,0,1,1,0,2.636" transform="translate(-96.669 548.866)" fill="#0e5489"/>
        <line id="Línea_1967" data-name="Línea 1967" x2="10.539" transform="translate(267.772 924.456)" fill="#fff"/>
        <path id="Trazado_226008" data-name="Trazado 226008" d="M268.832,400.11H258.293a1.318,1.318,0,1,1,0-2.636h10.539a1.318,1.318,0,1,1,0,2.636" transform="translate(9.479 525.664)" fill="#0e5489"/>
        <line id="Línea_1968" data-name="Línea 1968" x2="15.563" transform="translate(283.156 924.456)" fill="#fff"/>
        <path id="Trazado_226009" data-name="Trazado 226009" d="M340.348,400.11H324.785a1.318,1.318,0,1,1,0-2.636h15.563a1.318,1.318,0,1,1,0,2.636" transform="translate(-41.629 525.664)" fill="#0e5489"/>
        <line id="Línea_1969" data-name="Línea 1969" x2="13.849" transform="translate(303.481 924.456)" fill="#fff"/>
        <path id="Trazado_226010" data-name="Trazado 226010" d="M426.483,400.11H412.634a1.318,1.318,0,0,1,0-2.636h13.849a1.318,1.318,0,1,1,0,2.636" transform="translate(-109.153 525.664)" fill="#0e5489"/>
        <line id="Línea_1970" data-name="Línea 1970" x2="17.397" transform="translate(321.303 924.456)" fill="#fff"/>
        <path id="Trazado_226011" data-name="Trazado 226011" d="M507.061,400.11h-17.4a1.318,1.318,0,1,1,0-2.636h17.4a1.318,1.318,0,1,1,0,2.636" transform="translate(-168.361 525.664)" fill="#0e5489"/>
        <line id="Línea_1971" data-name="Línea 1971" x2="20.608" transform="translate(282.326 932.486)" fill="#fff"/>
        <path id="Trazado_226012" data-name="Trazado 226012" d="M341.8,434.816H321.2a1.318,1.318,0,1,1,0-2.636H341.8a1.318,1.318,0,1,1,0,2.636" transform="translate(-38.871 498.988)" fill="#0e5489"/>
        <line id="Línea_1972" data-name="Línea 1972" x2="13.508" transform="translate(307.794 932.486)" fill="#fff"/>
        <path id="Trazado_226013" data-name="Trazado 226013" d="M444.787,434.816H431.279a1.318,1.318,0,0,1,0-2.636h13.508a1.318,1.318,0,0,1,0,2.636" transform="translate(-123.484 498.988)" fill="#0e5489"/>
        <line id="Línea_1973" data-name="Línea 1973" x2="19.384" transform="translate(325.986 932.486)" fill="#fff"/>
        <path id="Trazado_226014" data-name="Trazado 226014" d="M529.293,434.816H509.909a1.318,1.318,0,1,1,0-2.636h19.384a1.318,1.318,0,1,1,0,2.636" transform="translate(-183.922 498.988)" fill="#0e5489"/>
        <line id="Línea_1974" data-name="Línea 1974" x2="8.25" transform="translate(343.833 926.464)" fill="#fff"/>
        <path id="Trazado_226015" data-name="Trazado 226015" d="M595.295,408.786h-8.25a1.318,1.318,0,1,1,0-2.636h8.25a1.318,1.318,0,0,1,0,2.636" transform="translate(-243.212 518.996)" fill="#0e5489"/>
        <line id="Línea_1975" data-name="Línea 1975" x2="9.903" transform="translate(257.869 936.919)" fill="#fff"/>
        <path id="Trazado_226016" data-name="Trazado 226016" d="M225.393,453.977h-9.9a1.318,1.318,0,1,1,0-2.636h9.9a1.318,1.318,0,1,1,0,2.636" transform="translate(42.379 484.261)" fill="#0e5489"/>
        <line id="Línea_1976" data-name="Línea 1976" x2="21.747" transform="translate(267.772 942.941)" fill="#fff"/>
        <path id="Trazado_226017" data-name="Trazado 226017" d="M280.039,480.006H258.292a1.318,1.318,0,0,1,0-2.636h21.747a1.318,1.318,0,0,1,0,2.636" transform="translate(9.48 464.254)" fill="#0e5489"/>
        <line id="Línea_1977" data-name="Línea 1977" x2="27.641" transform="translate(295.625 942.941)" fill="#fff"/>
        <path id="Trazado_226018" data-name="Trazado 226018" d="M406.319,480.006H378.678a1.318,1.318,0,0,1,0-2.636h27.641a1.318,1.318,0,1,1,0,2.636" transform="translate(-83.053 464.254)" fill="#0e5489"/>
        <path id="Trazado_226019" data-name="Trazado 226019" d="M205.849,106.537a2.725,2.725,0,1,1-2.725-2.725,2.725,2.725,0,0,1,2.725,2.725" transform="translate(52.966 751.385)" fill="#fff"/>
        <path id="Trazado_226020" data-name="Trazado 226020" d="M198.746,106.2a4.043,4.043,0,1,1,4.043-4.043,4.048,4.048,0,0,1-4.043,4.043m0-5.45a1.407,1.407,0,1,0,1.407,1.407,1.409,1.409,0,0,0-1.407-1.407" transform="translate(57.344 755.763)" fill="#0e5489"/>
        <path id="Trazado_226021" data-name="Trazado 226021" d="M252.25,106.537a2.725,2.725,0,1,1-2.725-2.725,2.725,2.725,0,0,1,2.725,2.725" transform="translate(17.3 751.385)" fill="#fff"/>
        <path id="Trazado_226022" data-name="Trazado 226022" d="M245.147,106.2a4.043,4.043,0,1,1,4.043-4.043,4.048,4.048,0,0,1-4.043,4.043m0-5.45a1.407,1.407,0,1,0,1.407,1.407,1.409,1.409,0,0,0-1.407-1.407" transform="translate(21.678 755.763)" fill="#0e5489"/>
        <path id="Trazado_226023" data-name="Trazado 226023" d="M298.65,106.537a2.725,2.725,0,1,1-2.725-2.725,2.725,2.725,0,0,1,2.725,2.725" transform="translate(-18.365 751.385)" fill="#fff"/>
        <path id="Trazado_226024" data-name="Trazado 226024" d="M291.547,106.2a4.043,4.043,0,1,1,4.043-4.043,4.048,4.048,0,0,1-4.043,4.043m0-5.45a1.407,1.407,0,1,0,1.407,1.407,1.409,1.409,0,0,0-1.407-1.407" transform="translate(-13.986 755.763)" fill="#0e5489"/>
        <path id="Trazado_226025" data-name="Trazado 226025" d="M601.064,364.269a29.091,29.091,0,1,1-29.091-29.091,29.091,29.091,0,0,1,29.091,29.091" transform="translate(-210.28 573.548)" fill="#fc9081"/>
        <path id="Trazado_226026" data-name="Trazado 226026" d="M567.594,390.3A30.409,30.409,0,1,1,598,359.891,30.443,30.443,0,0,1,567.594,390.3m0-58.182a27.773,27.773,0,1,0,27.773,27.773,27.8,27.8,0,0,0-27.773-27.773" transform="translate(-205.901 577.926)" fill="#0e5489"/>
        <path id="Trazado_226027" data-name="Trazado 226027" d="M615.6,385.067a22.831,22.831,0,1,1-22.831-22.831A22.831,22.831,0,0,1,615.6,385.067" transform="translate(-231.077 552.75)" fill="#fff"/>
        <path id="Trazado_226028" data-name="Trazado 226028" d="M588.392,404.839a24.149,24.149,0,1,1,24.149-24.149,24.176,24.176,0,0,1-24.149,24.149m0-45.662a21.513,21.513,0,1,0,21.513,21.513,21.538,21.538,0,0,0-21.513-21.513" transform="translate(-226.699 557.127)" fill="#0e5489"/>
        <line id="Línea_1978" data-name="Línea 1978" y2="3.105" transform="translate(361.693 954.761)" fill="#fff"/>
        <path id="Trazado_226029" data-name="Trazado 226029" d="M664.242,534.2a1.318,1.318,0,0,1-1.318-1.318v-3.105a1.318,1.318,0,1,1,2.636,0v3.105a1.318,1.318,0,0,1-1.318,1.318" transform="translate(-302.549 424.986)" fill="#0e5489"/>
        <line id="Línea_1979" data-name="Línea 1979" y2="3.105" transform="translate(361.693 917.728)" fill="#fff"/>
        <path id="Trazado_226030" data-name="Trazado 226030" d="M664.242,374.132a1.318,1.318,0,0,1-1.318-1.318v-3.105a1.318,1.318,0,0,1,2.636,0v3.105a1.318,1.318,0,0,1-1.318,1.318" transform="translate(-302.549 548.019)" fill="#0e5489"/>
        <line id="Línea_1980" data-name="Línea 1980" x2="3.105" transform="translate(379.386 937.501)" fill="#fff"/>
        <path id="Trazado_226031" data-name="Trazado 226031" d="M743.819,456.494h-3.105a1.318,1.318,0,1,1,0-2.636h3.105a1.318,1.318,0,0,1,0,2.636" transform="translate(-361.328 482.325)" fill="#0e5489"/>
        <line id="Línea_1981" data-name="Línea 1981" x1="3.105" transform="translate(340.896 937.501)" fill="#fff"/>
        <path id="Trazado_226032" data-name="Trazado 226032" d="M577.455,456.494H574.35a1.318,1.318,0,1,1,0-2.636h3.105a1.318,1.318,0,0,1,0,2.636" transform="translate(-233.454 482.325)" fill="#0e5489"/>
        <line id="Línea_1982" data-name="Línea 1982" x2="1.021" y2="1.021" transform="translate(374.766 949.527)" fill="#fff"/>
        <path id="Trazado_226033" data-name="Trazado 226033" d="M721.765,509.495a1.314,1.314,0,0,1-.932-.386l-1.021-1.021a1.318,1.318,0,0,1,1.864-1.864l1.021,1.021a1.318,1.318,0,0,1-.932,2.25" transform="translate(-345.979 442.372)" fill="#0e5489"/>
        <line id="Línea_1983" data-name="Línea 1983" y1="1.021" x2="1.021" transform="translate(374.766 922.362)" fill="#fff"/>
        <path id="Trazado_226034" data-name="Trazado 226034" d="M720.744,392.079a1.318,1.318,0,0,1-.932-2.25l1.021-1.021a1.318,1.318,0,0,1,1.864,1.864l-1.021,1.021a1.314,1.314,0,0,1-.932.386" transform="translate(-345.979 532.622)" fill="#0e5489"/>
        <line id="Línea_1984" data-name="Línea 1984" x1="1.021" y1="1.021" transform="translate(347.6 922.362)" fill="#fff"/>
        <path id="Trazado_226035" data-name="Trazado 226035" d="M604.348,392.079a1.314,1.314,0,0,1-.932-.386l-1.021-1.021a1.318,1.318,0,0,1,1.864-1.864l1.021,1.021a1.318,1.318,0,0,1-.932,2.25" transform="translate(-255.727 532.622)" fill="#0e5489"/>
        <line id="Línea_1985" data-name="Línea 1985" x1="1.021" y2="1.021" transform="translate(347.6 949.527)" fill="#fff"/>
        <path id="Trazado_226036" data-name="Trazado 226036" d="M603.327,509.495a1.318,1.318,0,0,1-.932-2.25l1.021-1.021a1.318,1.318,0,0,1,1.864,1.864l-1.021,1.021a1.314,1.314,0,0,1-.932.386" transform="translate(-255.727 442.372)" fill="#0e5489"/>
        <path id="Trazado_226037" data-name="Trazado 226037" d="M668.62,416.465V426.75h12.334" transform="translate(-306.927 511.067)" fill="#fff"/>
        <path id="Trazado_226038" data-name="Trazado 226038" d="M676.577,423.689H664.243a1.318,1.318,0,0,1-1.318-1.318V412.087a1.318,1.318,0,1,1,2.636,0v8.967h11.016a1.318,1.318,0,1,1,0,2.636" transform="translate(-302.549 515.445)" fill="#0e5489"/>
        <path id="Trazado_226039" data-name="Trazado 226039" d="M663.107,453.029a2.374,2.374,0,1,1-2.374-2.374,2.374,2.374,0,0,1,2.374,2.374" transform="translate(-299.04 484.787)" fill="#ababff"/>
        <path id="Trazado_226040" data-name="Trazado 226040" d="M656.354,452.344a3.692,3.692,0,1,1,3.692-3.692,3.7,3.7,0,0,1-3.692,3.692m0-4.748a1.056,1.056,0,1,0,1.056,1.056,1.057,1.057,0,0,0-1.056-1.056" transform="translate(-294.661 489.165)" fill="#0e5489"/>
      </g>
    </g>
  </g>
</svg>
