<svg xmlns="http://www.w3.org/2000/svg" xmlns:xlink="http://www.w3.org/1999/xlink" width="633.505" height="486.186" viewBox="0 0 633.505 486.186">
  <defs>
    <clipPath id="clip-path">
      <rect id="Rectángulo_50947" data-name="Rectángulo 50947" width="633.505" height="413.686" fill="none"/>
    </clipPath>
    <clipPath id="clip-path-3">
      <rect id="Rectángulo_50943" data-name="Rectángulo 50943" width="64.831" height="48.101" fill="none"/>
    </clipPath>
    <clipPath id="clip-path-4">
      <rect id="Rectángulo_50944" data-name="Rectángulo 50944" width="22.784" height="26.362" fill="none"/>
    </clipPath>
  </defs>
  <g id="Grupo_117861" data-name="Grupo 117861" transform="translate(-483 -3924.5)">
    <path id="Trazado_232561" data-name="Trazado 232561" d="M194.494,8.339h-3.92V19h-2.637V8.339H184.07V6.2h10.424Zm-.888,5.818a5.64,5.64,0,0,1,.545-2.522,3.989,3.989,0,0,1,1.569-1.714,4.577,4.577,0,0,1,2.377-.606,4.33,4.33,0,0,1,3.142,1.178,4.727,4.727,0,0,1,1.358,3.2l.018.65a4.97,4.97,0,0,1-1.222,3.511,4.735,4.735,0,0,1-6.561,0,5.058,5.058,0,0,1-1.226-3.586Zm2.54.18a3.555,3.555,0,0,0,.51,2.073,1.831,1.831,0,0,0,2.9.009,3.89,3.89,0,0,0,.519-2.267,3.519,3.519,0,0,0-.519-2.06,1.686,1.686,0,0,0-1.459-.731,1.658,1.658,0,0,0-1.441.726A3.955,3.955,0,0,0,196.146,14.338Zm13.377-2.465a6.9,6.9,0,0,0-.914-.07,1.86,1.86,0,0,0-1.89.976V19h-2.54V9.49h2.4l.07,1.134a2.354,2.354,0,0,1,2.118-1.31,2.662,2.662,0,0,1,.791.114Zm3.6-2.382.079,1.063a3.342,3.342,0,0,1,2.733-1.239,2.536,2.536,0,0,1,2.522,1.45,3.265,3.265,0,0,1,2.856-1.45,2.836,2.836,0,0,1,2.3.9,4.141,4.141,0,0,1,.756,2.711V19h-2.549V12.936a1.811,1.811,0,0,0-.316-1.182,1.4,1.4,0,0,0-1.116-.374,1.585,1.585,0,0,0-1.582,1.09l.009,6.53h-2.54V12.944a1.789,1.789,0,0,0-.325-1.2,1.416,1.416,0,0,0-1.107-.369,1.646,1.646,0,0,0-1.564.9V19h-2.54V9.49ZM230.7,19.176a4.668,4.668,0,0,1-3.406-1.283,4.561,4.561,0,0,1-1.314-3.419v-.246a5.745,5.745,0,0,1,.554-2.562,4.064,4.064,0,0,1,1.569-1.74,4.4,4.4,0,0,1,2.316-.611,3.947,3.947,0,0,1,3.072,1.23,5,5,0,0,1,1.121,3.489v1.037H228.56a2.36,2.36,0,0,0,.743,1.494,2.245,2.245,0,0,0,1.569.563,2.742,2.742,0,0,0,2.294-1.063l1.248,1.4a3.813,3.813,0,0,1-1.547,1.261A5.075,5.075,0,0,1,230.7,19.176Zm-.29-7.813a1.587,1.587,0,0,0-1.226.512,2.651,2.651,0,0,0-.6,1.466h3.533v-.2a1.891,1.891,0,0,0-.457-1.311A1.638,1.638,0,0,0,230.415,11.362ZM238.4,9.49l.079,1.1a3.32,3.32,0,0,1,2.733-1.274,2.759,2.759,0,0,1,2.25.888,4.142,4.142,0,0,1,.756,2.654V19h-2.54V12.918a1.648,1.648,0,0,0-.352-1.173,1.574,1.574,0,0,0-1.169-.365,1.747,1.747,0,0,0-1.608.914V19H236V9.49Zm10.784-2.338V9.49h1.626v1.863h-1.626V16.1a1.133,1.133,0,0,0,.2.756,1.015,1.015,0,0,0,.773.229,4.051,4.051,0,0,0,.747-.062v1.925a5.229,5.229,0,0,1-1.538.229,2.425,2.425,0,0,1-2.725-2.7V11.354H245.25V9.49h1.389V7.152ZM257.731,19a2.821,2.821,0,0,1-.255-.853,3.073,3.073,0,0,1-2.4,1.028,3.376,3.376,0,0,1-2.316-.809,2.6,2.6,0,0,1-.918-2.039,2.687,2.687,0,0,1,1.121-2.32,5.529,5.529,0,0,1,3.239-.817h1.169v-.545a1.567,1.567,0,0,0-.338-1.055,1.331,1.331,0,0,0-1.068-.4,1.513,1.513,0,0,0-1.006.308,1.045,1.045,0,0,0-.365.844h-2.54a2.551,2.551,0,0,1,.51-1.529A3.37,3.37,0,0,1,254,9.714a5.253,5.253,0,0,1,2.092-.4,4.15,4.15,0,0,1,2.791.883,3.09,3.09,0,0,1,1.033,2.483V16.8a4.546,4.546,0,0,0,.378,2.048V19Zm-2.1-1.767a2.188,2.188,0,0,0,1.037-.25,1.645,1.645,0,0,0,.7-.672V14.676h-.949q-1.907,0-2.03,1.318l-.009.149a1.017,1.017,0,0,0,.334.782A1.3,1.3,0,0,0,255.63,17.233Zm10.327-3.059a5.731,5.731,0,0,1,1-3.542,3.237,3.237,0,0,1,2.729-1.318,2.913,2.913,0,0,1,2.294,1.037V5.5h2.549V19h-2.294l-.123-1.011a2.989,2.989,0,0,1-2.443,1.187,3.228,3.228,0,0,1-2.694-1.323A5.916,5.916,0,0,1,265.958,14.175Zm2.54.189a3.754,3.754,0,0,0,.466,2.051,1.517,1.517,0,0,0,1.354.713,1.7,1.7,0,0,0,1.661-.995V12.375a1.675,1.675,0,0,0-1.644-.995Q268.5,11.38,268.5,14.364Zm12.375,4.812a4.668,4.668,0,0,1-3.406-1.283,4.561,4.561,0,0,1-1.314-3.419v-.246a5.745,5.745,0,0,1,.554-2.562,4.064,4.064,0,0,1,1.569-1.74,4.4,4.4,0,0,1,2.316-.611,3.947,3.947,0,0,1,3.072,1.23,5,5,0,0,1,1.121,3.489v1.037h-6.056a2.36,2.36,0,0,0,.743,1.494,2.245,2.245,0,0,0,1.569.563,2.742,2.742,0,0,0,2.294-1.063l1.248,1.4a3.813,3.813,0,0,1-1.547,1.261A5.075,5.075,0,0,1,280.873,19.176Zm-.29-7.813a1.587,1.587,0,0,0-1.226.512,2.651,2.651,0,0,0-.6,1.466h3.533v-.2a1.891,1.891,0,0,0-.457-1.311A1.638,1.638,0,0,0,280.583,11.362ZM293.388,19h-2.549V9.49h2.549Zm-2.7-11.971a1.251,1.251,0,0,1,.382-.94,1.648,1.648,0,0,1,2.079,0,1.244,1.244,0,0,1,.387.94,1.247,1.247,0,0,1-.391.949,1.629,1.629,0,0,1-2.065,0A1.247,1.247,0,0,1,290.69,7.029Zm4.395,7.146a5.731,5.731,0,0,1,1-3.542,3.237,3.237,0,0,1,2.729-1.318,2.913,2.913,0,0,1,2.294,1.037V5.5h2.549V19H301.36l-.123-1.011a2.989,2.989,0,0,1-2.443,1.187,3.228,3.228,0,0,1-2.694-1.323A5.916,5.916,0,0,1,295.084,14.175Zm2.54.189a3.754,3.754,0,0,0,.466,2.051,1.517,1.517,0,0,0,1.354.713,1.7,1.7,0,0,0,1.661-.995V12.375a1.675,1.675,0,0,0-1.644-.995Q297.625,11.38,297.625,14.364ZM310,19.176a4.668,4.668,0,0,1-3.406-1.283,4.561,4.561,0,0,1-1.314-3.419v-.246a5.745,5.745,0,0,1,.554-2.562,4.064,4.064,0,0,1,1.569-1.74,4.4,4.4,0,0,1,2.316-.611,3.947,3.947,0,0,1,3.072,1.23,5,5,0,0,1,1.121,3.489v1.037h-6.056a2.36,2.36,0,0,0,.743,1.494,2.245,2.245,0,0,0,1.569.563,2.742,2.742,0,0,0,2.294-1.063l1.248,1.4a3.813,3.813,0,0,1-1.547,1.261A5.075,5.075,0,0,1,310,19.176Zm-.29-7.813a1.587,1.587,0,0,0-1.226.512,2.651,2.651,0,0,0-.6,1.466h3.533v-.2a1.891,1.891,0,0,0-.457-1.311A1.638,1.638,0,0,0,309.709,11.362ZM320.863,19a2.821,2.821,0,0,1-.255-.853,3.073,3.073,0,0,1-2.4,1.028,3.376,3.376,0,0,1-2.316-.809,2.6,2.6,0,0,1-.918-2.039,2.687,2.687,0,0,1,1.121-2.32,5.529,5.529,0,0,1,3.239-.817H320.5v-.545a1.567,1.567,0,0,0-.338-1.055,1.331,1.331,0,0,0-1.068-.4,1.513,1.513,0,0,0-1.006.308,1.045,1.045,0,0,0-.365.844h-2.54a2.551,2.551,0,0,1,.51-1.529,3.37,3.37,0,0,1,1.441-1.1,5.253,5.253,0,0,1,2.092-.4,4.15,4.15,0,0,1,2.791.883,3.09,3.09,0,0,1,1.033,2.483V16.8a4.546,4.546,0,0,0,.378,2.048V19Zm-2.1-1.767a2.188,2.188,0,0,0,1.037-.25,1.645,1.645,0,0,0,.7-.672V14.676h-.949q-1.907,0-2.03,1.318l-.009.149a1.017,1.017,0,0,0,.334.782A1.3,1.3,0,0,0,318.762,17.233Zm11.391-.861a.818.818,0,0,0-.461-.734,5.241,5.241,0,0,0-1.481-.479q-3.393-.712-3.393-2.883a2.613,2.613,0,0,1,1.05-2.114,4.237,4.237,0,0,1,2.747-.848,4.56,4.56,0,0,1,2.9.853,2.687,2.687,0,0,1,1.085,2.215h-2.54a1.229,1.229,0,0,0-.352-.9,1.488,1.488,0,0,0-1.1-.356,1.52,1.52,0,0,0-.993.29.916.916,0,0,0-.352.738.783.783,0,0,0,.4.681,4.114,4.114,0,0,0,1.349.448,11.019,11.019,0,0,1,1.6.426,2.628,2.628,0,0,1,2.013,2.558,2.481,2.481,0,0,1-1.116,2.1,4.815,4.815,0,0,1-2.883.8,5.029,5.029,0,0,1-2.123-.426,3.561,3.561,0,0,1-1.455-1.169,2.716,2.716,0,0,1-.527-1.6h2.408a1.326,1.326,0,0,0,.5,1.037,1.987,1.987,0,0,0,1.248.36,1.839,1.839,0,0,0,1.1-.277A.861.861,0,0,0,330.153,16.372Z" transform="translate(542 3919)" fill="#12263f"/>
    <g id="Grupo_117853" data-name="Grupo 117853">
      <g id="Grupo_115612" data-name="Grupo 115612" transform="translate(483 3997)">
        <g id="Grupo_115611" data-name="Grupo 115611" clip-path="url(#clip-path)">
          <g id="Grupo_115610" data-name="Grupo 115610">
            <g id="Grupo_115609" data-name="Grupo 115609" clip-path="url(#clip-path)">
              <path id="Trazado_230898" data-name="Trazado 230898" d="M462.386,61.9c-41.474-13.192-90.418-19.475-133.858-21.614A395.6,395.6,0,0,0,102.57,98.564c-36,22.269-69.123,51.389-87.937,89.3-47.213,95.145,27,182.342,120.108,200.875,46.951,9.345,95.383,5.449,143.161,2.423,62.089-3.934,124.421-6.332,186.489-2.091,23.673,1.617,47.746,4.171,70.907-.985,54.233-12.074,92.219-66.348,97.473-121.661a172.6,172.6,0,0,0-41.505-128.444c-13.164-15.017-28.9-27.574-45.9-37.988A377.292,377.292,0,0,0,462.386,61.9" transform="translate(0 19.079)" fill="#d7eff9"/>
              <g id="Grupo_115605" data-name="Grupo 115605" transform="translate(522.701 135.355)" style="mix-blend-mode: multiply;isolation: isolate">
                <g id="Grupo_115604" data-name="Grupo 115604">
                  <g id="Grupo_115603" data-name="Grupo 115603" clip-path="url(#clip-path-3)">
                    <path id="Trazado_230899" data-name="Trazado 230899" d="M364.682,112.425l-11.293,7.682,17.567,4.656v14.849l8.574-10.457,19.449,4.945,19.24-42.588Z" transform="translate(-353.389 -91.511)" fill="#a7a9ac"/>
                  </g>
                </g>
              </g>
              <path id="Trazado_230900" data-name="Trazado 230900" d="M363.983,110.844v13.992l12.009-12.71Z" transform="translate(174.387 53.107)" fill="#fff"/>
              <path id="Trazado_230901" data-name="Trazado 230901" d="M366.019,124.055l47.292-38.1-22.54,44.458Z" transform="translate(175.363 41.179)" fill="#fff"/>
              <path id="Trazado_230902" data-name="Trazado 230902" d="M419.617,85.95l-66.763,29.808,19.471,8.3Z" transform="translate(169.056 41.179)" fill="#fff"/>
              <path id="Trazado_230903" data-name="Trazado 230903" d="M366.995,124.055l-3.011-1.282,50.3-36.822Z" transform="translate(174.388 41.179)" fill="#19365a"/>
              <path id="Trazado_230904" data-name="Trazado 230904" d="M409.216,131.042c-14.142,12.629-33.923,17.362-52.88,17.054-8.262-.135-16.67-1.183-24.151-4.689a23.272,23.272,0,0,1-9.883-7.959c-2.336-3.593-3.151-8.354-1.346-12.241s6.547-6.413,10.6-5.027c4.354,1.489,6.474,6.844,5.545,11.351s-4.195,8.188-7.8,11.047c-9.055,7.174-20.807,10.406-32.357,10.545s-22.968-2.636-33.87-6.456" transform="translate(126.041 56.437)" fill="none" stroke="#244e80" stroke-linecap="round" stroke-linejoin="round" stroke-width="0.85" stroke-dasharray="2.835 2.835"/>
              <path id="Trazado_230905" data-name="Trazado 230905" d="M170.888,128.361a12.9,12.9,0,0,0,4.8-.74,8.8,8.8,0,0,0,2.908-2.167c5.763-6.229,3.625-17.822-3.98-21.585s-18.119,1.575-19.572,9.935a6.544,6.544,0,0,0-12.268-1.316c-1.766-6.715-4.779-13.393-10.147-17.8s-13.489-5.953-19.366-2.256c-7.449,4.689-8.429,15.056-7.848,23.839-.385-5.813-11.916.478-13.058,3.337-4.735-3.471-13.707.254-9.406,6.021,3.621,4.854,16.118,3.927,21.23,3.909,22.237-.072,44.483-.6,66.711-1.18" transform="translate(39.197 43.293)" fill="#fff"/>
              <path id="Trazado_230906" data-name="Trazado 230906" d="M374.2,53.043a12.9,12.9,0,0,0,4.8-.74,8.8,8.8,0,0,0,2.908-2.167c5.763-6.229,3.625-17.822-3.98-21.585s-18.119,1.575-19.572,9.934a6.545,6.545,0,0,0-12.268-1.315c-1.766-6.715-4.779-13.393-10.147-17.8s-13.489-5.955-19.366-2.257c-7.449,4.689-8.429,15.056-7.848,23.839-.385-5.813-11.916.478-13.058,3.337-4.735-3.471-13.707.254-9.406,6.021,3.621,4.854,16.118,3.927,21.23,3.909,22.237-.072,44.483-.6,66.711-1.18" transform="translate(136.608 7.207)" fill="#d7eff9"/>
              <path id="Trazado_230907" data-name="Trazado 230907" d="M296.173,300.108,249.3,294.981l6.2-56.684a11.96,11.96,0,0,1,13.149-10.556l23.163,2.534a11.959,11.959,0,0,1,10.556,13.149Z" transform="translate(119.444 109.079)" fill="#19365a"/>
              <path id="Trazado_230908" data-name="Trazado 230908" d="M258.591,241.051a27.288,27.288,0,0,1-11.882-7.28c-7.8-7.919-11.448-19.993-10.845-35.883v-.05c-5.937-.975-16.6-.593-16.6-.593-1.01,26.54,8.311,41.418,16.439,49.222,9.042,8.682,18.413,10.787,19.452,11a8.538,8.538,0,0,0,1.686.17,8.38,8.38,0,0,0,1.754-16.584" transform="translate(105.013 94.466)" fill="#a05e47"/>
              <path id="Trazado_230909" data-name="Trazado 230909" d="M251.714,247.637a8.7,8.7,0,0,0,10.258-6.745,8.613,8.613,0,0,0-6.706-10.2A28.17,28.17,0,0,1,243,223.182a33.223,33.223,0,0,1-3.735-4.565l-12.438,12.3a48.669,48.669,0,0,0,4.809,5.363c9.333,8.962,19.005,11.135,20.077,11.352" transform="translate(108.675 104.741)" fill="#e59b39"/>
              <path id="Trazado_230910" data-name="Trazado 230910" d="M235.441,192.462a4.044,4.044,0,0,0-.682-2,1.48,1.48,0,0,0-1.893-.444c-.9.621-.419,2.071-.873,3.068a2.443,2.443,0,0,1-2,1.237,17.327,17.327,0,0,1-2.46-.077,8.468,8.468,0,0,0-8.323,6.912,2.916,2.916,0,0,0,.318,2.148,3.551,3.551,0,0,0,2.5,1.1,33.35,33.35,0,0,0,7.517.527c2.262-.185,6-.812,6.366-3.432a34.04,34.04,0,0,0-.469-9.033" transform="translate(104.993 90.948)" fill="#a05e47"/>
              <path id="Trazado_230911" data-name="Trazado 230911" d="M221.788,201.563a2.639,2.639,0,0,1-.3-.4.29.29,0,1,1,.494-.3,1.146,1.146,0,0,0,.876.651c.64.035,1.347-.683,1.565-.963a.3.3,0,0,1,.2-.111.29.29,0,0,1,.219.074,1.523,1.523,0,0,0,1.3.538c.564-.138.843-.871.846-.879a.29.29,0,0,1,.246-.188.293.293,0,0,1,.275.138,1.317,1.317,0,0,0,.814.707.75.75,0,0,0,.559-.13c2.367-1.7-.519-7.234-.549-7.289a.294.294,0,0,1,.121-.393.29.29,0,0,1,.392.121c.13.247,3.151,6.039.385,8.024a1.344,1.344,0,0,1-1,.24,1.588,1.588,0,0,1-.93-.578,1.76,1.76,0,0,1-1.015.79,1.872,1.872,0,0,1-1.608-.479,2.658,2.658,0,0,1-1.855.958,1.5,1.5,0,0,1-1.041-.525" transform="translate(106.096 92.457)" fill="#632a1a"/>
              <path id="Trazado_230912" data-name="Trazado 230912" d="M225.816,200.519a.284.284,0,0,1-.072-.151c-.009-.055-.89-5.57-1.679-7.079a.289.289,0,0,1,.123-.39.286.286,0,0,1,.391.121c.833,1.593,1.7,7.027,1.738,7.258a.289.289,0,0,1-.241.331.286.286,0,0,1-.259-.09" transform="translate(107.336 92.403)" fill="#632a1a"/>
              <path id="Trazado_230913" data-name="Trazado 230913" d="M224.082,200.761a.293.293,0,0,1-.072-.145c-.009-.055-1-5.5-1.782-6.875a.291.291,0,1,1,.507-.285c.828,1.463,1.806,6.831,1.846,7.058a.29.29,0,0,1-.5.247" transform="translate(106.453 92.615)" fill="#632a1a"/>
              <path id="Trazado_230914" data-name="Trazado 230914" d="M227.22,199.712a.3.3,0,0,1-.067-.275,1.431,1.431,0,0,1,.788-.9,12.785,12.785,0,0,1-.785-2.272,4.691,4.691,0,0,1,.081-2.535,1.771,1.771,0,0,1,.583-.885,1.577,1.577,0,0,1,1.581-.1,3.267,3.267,0,0,1,1.121.957,8.886,8.886,0,0,1,1.756,3.479.291.291,0,0,1-.565.136,8.3,8.3,0,0,0-1.64-3.248,2.69,2.69,0,0,0-.914-.8.991.991,0,0,0-.991.038,1.225,1.225,0,0,0-.382.608,4.133,4.133,0,0,0-.062,2.226,12.316,12.316,0,0,0,.778,2.22.469.469,0,0,1-.291.689.843.843,0,0,0-.5.544.291.291,0,0,1-.358.2.3.3,0,0,1-.135-.084" transform="translate(108.769 92.265)" fill="#632a1a"/>
              <path id="Trazado_230915" data-name="Trazado 230915" d="M236.374,241.129l4.05,52.406s11.834,6.443,28.538,4.5,20.363-9.323,20.363-9.323-2.886-51.421-3.372-51.93-2.461-17.406-26.63-13.954-22.948,18.3-22.948,18.3" transform="translate(113.244 106.537)" fill="#fbb040"/>
              <path id="Trazado_230916" data-name="Trazado 230916" d="M259.959,236.44s13.4,22.605,4.782,47.7c0,0,13.79-19.86,13.279-26.408s-18.061-21.3-18.061-21.3" transform="translate(124.549 113.28)" fill="#d38e33"/>
              <path id="Trazado_230917" data-name="Trazado 230917" d="M292.377,259.937,272.655,228.63a8.385,8.385,0,0,0-14.191,8.938l17.3,27.463-12.155,26.441s5.97,7.208,15.238,7.007L292.9,267.909a8.389,8.389,0,0,0-.524-7.972" transform="translate(123.214 107.662)" fill="#a05e47"/>
              <path id="Trazado_230918" data-name="Trazado 230918" d="M265.227,216.438,259.993,230l-8.446,3.281-4.644-6.042,3.148-8.159Z" transform="translate(118.293 103.697)" fill="#a05e47"/>
              <path id="Trazado_230919" data-name="Trazado 230919" d="M260.788,220.809l-11.987-.58-1.676,4.343c6.236,1.5,13.663-3.763,13.663-3.763" transform="translate(118.4 105.514)" fill="#774031"/>
              <path id="Trazado_230920" data-name="Trazado 230920" d="M253.926,234.093l-5.6-2.162a9.365,9.365,0,0,1-5.35-12.073l5.982-15.5a9.364,9.364,0,0,1,12.072-5.351l5.6,2.162a9.366,9.366,0,0,1,5.35,12.074l-5.98,15.5a9.366,9.366,0,0,1-12.074,5.35" transform="translate(116.111 95.047)" fill="#a05e47"/>
              <g id="Grupo_115608" data-name="Grupo 115608" transform="translate(365.93 293.429)" opacity="0.3">
                <g id="Grupo_115607" data-name="Grupo 115607">
                  <g id="Grupo_115606" data-name="Grupo 115606" clip-path="url(#clip-path-4)">
                    <path id="Trazado_230921" data-name="Trazado 230921" d="M264.211,201.168l-5.6-2.162a9.375,9.375,0,0,0-11.207,3.65,8.654,8.654,0,0,0,3.279,3.156,14.291,14.291,0,0,0,8.453,1.1,9.162,9.162,0,0,1,3.35-.075,2.578,2.578,0,0,1,2.094,2.313,2.976,2.976,0,0,1-1.513,2.219,5.8,5.8,0,0,0-1.376,1.041,3.959,3.959,0,0,0-.676,2.086c-.274,2.374-.293,4.922.923,6.981a11.266,11.266,0,0,0,2.646,2.843c.176.145.358.288.543.426l4.437-11.5a9.365,9.365,0,0,0-5.35-12.074" transform="translate(-247.399 -198.382)" fill="#171e26"/>
                  </g>
                </g>
              </g>
              <path id="Trazado_230922" data-name="Trazado 230922" d="M264.127,217.692a3.025,3.025,0,1,1-1.734-3.911,3.024,3.024,0,0,1,1.734,3.911" transform="translate(123.744 102.327)" fill="#a05e47"/>
              <path id="Trazado_230923" data-name="Trazado 230923" d="M272.655,228.63a8.385,8.385,0,0,0-14.191,8.938l8.888,14.108c2.819-1.093,10.139-4.119,14.926-7.771Z" transform="translate(123.214 107.662)" fill="#fbb040"/>
              <path id="Trazado_230924" data-name="Trazado 230924" d="M276.377,280.278a6.326,6.326,0,0,1-1.754,2.475,2.207,2.207,0,0,1-2.806-.018c-.367-.385-.565-.964-1.059-1.161-.62-.247-1.257.263-1.9.448a2.562,2.562,0,0,1-2.89-1.686,2.038,2.038,0,0,0-.574-1.047c-.74-.509-1.871.463-2.6-.059-.559-.4-.4-1.371-.951-1.785-.3-.225-.71-.209-1.052-.356a1.587,1.587,0,0,1-.828-1.556,4.646,4.646,0,0,1,.581-1.771q.643-1.329,1.288-2.656a4.564,4.564,0,0,1,.947-1.448c.924-.84,2.331-.788,3.572-.632a19.886,19.886,0,0,1,6.868,1.942,9.9,9.9,0,0,1,4.27,4.093c.806,1.623-.383,3.721-1.111,5.218" transform="translate(124.549 128.848)" fill="#a05e47"/>
              <path id="Trazado_230925" data-name="Trazado 230925" d="M85.186,298.938H38.038V241.915a11.96,11.96,0,0,1,11.925-11.923h23.3a11.959,11.959,0,0,1,11.923,11.923Z" transform="translate(18.224 110.191)" fill="#19365a"/>
              <path id="Trazado_230926" data-name="Trazado 230926" d="M71.741,230.225a8.392,8.392,0,0,1,11.207,3.9l13.037,26.957,30.62-11.392c1.608,10.315,5.894,14.954,5.894,14.954L94.8,279.516a8.391,8.391,0,0,1-10.564-4.18l-16.4-33.9a8.391,8.391,0,0,1,3.9-11.207" transform="translate(32.1 109.901)" fill="#a05e47"/>
              <path id="Trazado_230927" data-name="Trazado 230927" d="M87.539,273.316a8.371,8.371,0,0,0,5.844-.064l13.964-5.508a48.139,48.139,0,0,1-11.425-13.429l-1.353.5-5.047-10.435c-4.946-1.713-13.757-1.963-19.567-1.915l12.864,26.6a8.381,8.381,0,0,0,4.72,4.245" transform="translate(33.516 116.166)" fill="#7f4637"/>
              <path id="Trazado_230928" data-name="Trazado 230928" d="M71.642,253.488l7.495,9.673,12.438-7.005L80.916,234.117a8.375,8.375,0,0,0-9.287-4.532l-.389.21Z" transform="translate(34.132 109.909)" fill="#d3afa5"/>
              <path id="Trazado_230929" data-name="Trazado 230929" d="M116.16,241.043a3.934,3.934,0,0,1,2.034-.143,1.429,1.429,0,0,1,1.1,1.518c-.216,1.032-1.683,1.146-2.4,1.923a2.35,2.35,0,0,0-.349,2.242,16.537,16.537,0,0,0,.988,2.155,8.162,8.162,0,0,1-3.028,9.98,2.806,2.806,0,0,1-2.026.521c-.882-.2-1.442-1.04-1.91-1.813a32.065,32.065,0,0,1-3.279-6.481c-.682-2.077-1.523-5.635.667-6.939a32.808,32.808,0,0,1,8.2-2.961" transform="translate(51.048 115.377)" fill="#a05e47"/>
              <path id="Trazado_230930" data-name="Trazado 230930" d="M110.792,254.01a2.588,2.588,0,0,0,.469.115.28.28,0,0,0,.086-.553,1.1,1.1,0,0,1-.907-.535,2.291,2.291,0,0,1,.271-1.75.284.284,0,0,0,.022-.222.28.28,0,0,0-.148-.167c-.583-.274-.908-.595-.966-.956a1.468,1.468,0,0,1,.464-1.081.28.28,0,0,0-.149-.481,1.276,1.276,0,0,1-.933-.457.723.723,0,0,1-.093-.546c.624-2.739,6.62-2.245,6.681-2.239a.28.28,0,1,0,.049-.558c-.268-.024-6.544-.54-7.271,2.659a1.284,1.284,0,0,0,.161.979,1.527,1.527,0,0,0,.862.609,1.706,1.706,0,0,0-.324,1.2,1.808,1.808,0,0,0,1.028,1.248,2.565,2.565,0,0,0-.158,2.007,1.45,1.45,0,0,0,.856.728" transform="translate(51.903 117.159)" fill="#7f4637"/>
              <path id="Trazado_230931" data-name="Trazado 230931" d="M109.383,248.056a.284.284,0,0,0,.161.009c.052-.013,5.282-1.293,6.916-1.157a.28.28,0,0,0,.047-.558c-1.726-.143-6.879,1.117-7.1,1.17a.281.281,0,0,0-.2.339.278.278,0,0,0,.177.2" transform="translate(52.317 118.023)" fill="#7f4637"/>
              <path id="Trazado_230932" data-name="Trazado 230932" d="M109.773,249.689a.271.271,0,0,0,.154.01c.053-.012,5.258-1.167,6.774-.988a.281.281,0,0,0,.065-.558c-1.608-.188-6.742.951-6.961,1a.279.279,0,0,0-.033.535" transform="translate(52.503 118.883)" fill="#7f4637"/>
              <path id="Trazado_230933" data-name="Trazado 230933" d="M110.337,251.537a.282.282,0,0,0,.2,0,16.726,16.726,0,0,1,5.445-1.062.279.279,0,0,0,.287-.272.284.284,0,0,0-.272-.288,17.05,17.05,0,0,0-5.663,1.1.279.279,0,0,0,.007.524" transform="translate(52.775 119.734)" fill="#7f4637"/>
              <path id="Trazado_230934" data-name="Trazado 230934" d="M109.035,247.471a.284.284,0,0,0,.269-.044,1.371,1.371,0,0,0,.507-1.038,12.247,12.247,0,0,0,2.312-.152,4.526,4.526,0,0,0,2.223-1.019,1.722,1.722,0,0,0,.568-.848,1.522,1.522,0,0,0-.5-1.444,3.15,3.15,0,0,0-1.269-.639,8.552,8.552,0,0,0-3.748-.257.28.28,0,0,0,.09.552,7.987,7.987,0,0,1,3.5.243,2.588,2.588,0,0,1,1.049.515.957.957,0,0,1,.337.893,1.177,1.177,0,0,1-.4.568,3.982,3.982,0,0,1-1.954.887,11.825,11.825,0,0,1-2.263.139.453.453,0,0,0-.5.516.811.811,0,0,1-.3.646.28.28,0,0,0,.08.482" transform="translate(52.151 115.909)" fill="#7f4637"/>
              <path id="Trazado_230935" data-name="Trazado 230935" d="M97.088,244.388,93,297.3s-11.948,6.505-28.812,4.545-20.558-9.413-20.558-9.413,2.914-51.914,3.4-52.427,2.485-17.572,26.886-14.089,23.167,18.476,23.167,18.476" transform="translate(20.904 108.012)" fill="#eacfc5"/>
              <path id="Trazado_230936" data-name="Trazado 230936" d="M60.3,215.516V230.2l8.783,7.046,4.55-4.89v-8.829Z" transform="translate(28.888 103.256)" fill="#a05e47"/>
              <path id="Trazado_230937" data-name="Trazado 230937" d="M61.535,220.723l11.5,3.81v4.7c-6.416-.858-11.5-8.509-11.5-8.509" transform="translate(29.482 105.75)" fill="#7f4637"/>
              <path id="Trazado_230938" data-name="Trazado 230938" d="M71.176,236.306h3.158a10.912,10.912,0,0,0,10.88-10.88V211.557a10.912,10.912,0,0,0-10.88-10.88H71.176a10.912,10.912,0,0,0-10.88,10.88v13.868a10.912,10.912,0,0,0,10.88,10.88" transform="translate(28.888 96.146)" fill="#a05e47"/>
              <path id="Trazado_230939" data-name="Trazado 230939" d="M62.089,221.73c.4.994,1.734,1.79,2.516,1.058a2.032,2.032,0,0,0,.5-1.043,15.966,15.966,0,0,0,.262-6.375c-.4-2.483-1.333-5.258.087-7.336a3.9,3.9,0,0,1,4.366-1.444c.809.281,1.507.828,2.322,1.089,1.626.521,3.356-.173,5.048-.39,3.114-.4,6.5.793,9.3-.635a5.534,5.534,0,0,0,2.914-4.109,2.524,2.524,0,0,0-2.38-3.059c-2.167-.4-4.44.635-6.575.089-1.331-.34-2.475-1.269-3.832-1.482-1.895-.3-3.683.846-5.551,1.278-1.905.441-3.92.135-5.829.553-3.988.873-6.72,4.807-7.458,8.821s.111,8.134.96,12.127q.455,2.148.913,4.3c.253,1.192.59,2.512,1.62,3.165a.89.89,0,0,0,.553.173c.534-.053.68-.756.672-1.293a38.075,38.075,0,0,0-1.044-7.82c.317.747.33,1.578.637,2.336" transform="translate(27.547 94.885)" fill="#171c27"/>
              <path id="Trazado_230940" data-name="Trazado 230940" d="M58.332,215.564a3.054,3.054,0,1,0,3.054-3.054,3.054,3.054,0,0,0-3.054,3.054" transform="translate(27.947 101.815)" fill="#a05e47"/>
              <path id="Trazado_230941" data-name="Trazado 230941" d="M88.918,267.924a.665.665,0,0,1,.606-.083.709.709,0,0,1,.256.4,3.061,3.061,0,0,0,2.432,2.062,2.054,2.054,0,0,0,2.247-1.939,3.4,3.4,0,0,0-1.074-1.963c1,1.123,2.14,2.322,3.636,2.46a.846.846,0,0,0,.521-.08.865.865,0,0,0,.324-.494,3.476,3.476,0,0,0-.322-2.834,4.555,4.555,0,0,0,1.37,1.028,1.541,1.541,0,0,0,1.618-.2c.661-.635.331-1.735-.041-2.572q-.606-1.362-1.213-2.725A13.992,13.992,0,0,0,97.645,258a10.8,10.8,0,0,0-4.674-3.148,23.581,23.581,0,0,0-11.8-1.414,2.039,2.039,0,0,0-.75.207,2.088,2.088,0,0,0-.8,1.413,26.229,26.229,0,0,0,.179,13.029c.47,1.7,1.09,2.176,2.914,2.007a18.01,18.01,0,0,0,6.212-2.174" transform="translate(37.791 121.322)" fill="#a05e47"/>
              <path id="Trazado_230942" data-name="Trazado 230942" d="M55.223,228.058a8.393,8.393,0,0,1,9.119,7.594l2.722,29.82,32.668-.237a100.859,100.859,0,0,0-2.238,16.952l-38.025.123a8.391,8.391,0,0,1-8.418-7.629l-3.421-37.5a8.388,8.388,0,0,1,7.594-9.119" transform="translate(22.803 109.248)" fill="#a05e47"/>
              <path id="Trazado_230943" data-name="Trazado 230943" d="M90.8,264.556a40.461,40.461,0,0,0-3-5.436,3.415,3.415,0,0,0-2.843-1.3" transform="translate(40.7 123.523)" fill="none" stroke="#7f4637" stroke-linecap="round" stroke-linejoin="round" stroke-width="0.567"/>
              <path id="Trazado_230944" data-name="Trazado 230944" d="M93.439,264.186l-2.621-5.777a5.35,5.35,0,0,0-3.375-2.532" transform="translate(41.895 122.592)" fill="none" stroke="#7f4637" stroke-linecap="round" stroke-linejoin="round" stroke-width="0.567"/>
              <path id="Trazado_230945" data-name="Trazado 230945" d="M64.713,235.526A8.691,8.691,0,1,0,47.4,237.1l2.266,24.825,17.252-2.21Z" transform="translate(22.694 109.056)" fill="#eacfc5"/>
              <path id="Trazado_230946" data-name="Trazado 230946" d="M47.594,237.581l1.964,21.53s13.2-1.686,17.252-2.21l-2.136-23.4" transform="translate(22.803 111.873)" fill="none" stroke="#a5867c" stroke-linecap="round" stroke-linejoin="round" stroke-width="0.283"/>
              <path id="Trazado_230947" data-name="Trazado 230947" d="M57.978,225.9l5.913,11.71,6.338-4.829,6.1,4.371s2.176-4.974,2.176-7.509" transform="translate(27.778 108.229)" fill="none" stroke="#a5867c" stroke-linecap="round" stroke-linejoin="round" stroke-width="0.283"/>
              <path id="Trazado_230948" data-name="Trazado 230948" d="M65.779,231l-.356,19H69.56" transform="translate(31.345 110.675)" fill="none" stroke="#a5867c" stroke-linecap="round" stroke-linejoin="round" stroke-width="0.283"/>
              <path id="Trazado_230949" data-name="Trazado 230949" d="M186.49,295.2l-46.7,6.489-7.848-56.48a11.959,11.959,0,0,1,10.169-13.451l23.08-3.207a11.96,11.96,0,0,1,13.451,10.169Z" transform="translate(63.161 109.445)" fill="#19365a"/>
              <path id="Trazado_230950" data-name="Trazado 230950" d="M179.426,201.284a19.2,19.2,0,0,0-6.85-1.415c-2.282-.049-4.6-.327-6.82.359-3.114.958-5.474,3.616-6.841,6.575a27.181,27.181,0,0,0-1.921,6.65c-.388,2.164-.886,4.27-1.151,6.459-.569,4.718-.614,9.49-1.377,14.185-1.4,8.614-5.156,16.641-7.693,24.993s-3.789,17.643-.243,25.617a4.234,4.234,0,0,0,1.253,1.8,4.528,4.528,0,0,0,1.907.654,70.318,70.318,0,0,0,12.64,1.069,11.532,11.532,0,0,0,4.5-.677,9.129,9.129,0,0,0,3.165-2.46c3.374-3.838,4.775-8.977,6.073-13.92l3.736-14.216c3.476-13.226,6.973-26.594,7.363-40.266.133-4.659-.325-9.854-3.753-13.013a13.172,13.172,0,0,0-3.991-2.389" transform="translate(69.153 95.712)" fill="#503972"/>
              <path id="Trazado_230951" data-name="Trazado 230951" d="M220.966,251.288c-34.349,4.973-44.583-19.452-45.03-20.577a6.884,6.884,0,0,0-12.852,4.94,47.348,47.348,0,0,0,12.87,17.4c8.174,7.092,22.564,14.834,45.077,12.12.624-.075,1.259-.16,1.9-.251a38.241,38.241,0,0,0-1.961-13.629" transform="translate(77.918 108.428)" fill="#dba38d"/>
              <path id="Trazado_230952" data-name="Trazado 230952" d="M209.391,241.255a4.918,4.918,0,0,1,2.8-.479c.938.214,1.742,1.26,1.34,2.133-.345.745-1.438,1.259-1.183,2.04a1.312,1.312,0,0,0,.487.581c2.528,1.966,5.908,2.343,8.855,3.59,1.333.564,2.7,1.461,3.038,2.868a3.542,3.542,0,0,1-.893,3.05,8.017,8.017,0,0,1-2.7,1.865,22.62,22.62,0,0,1-17.044.861,4.435,4.435,0,0,1-1.7-.933,4.919,4.919,0,0,1-.951-1.639,15.631,15.631,0,0,1-1.16-3.587,8.738,8.738,0,0,1,2.37-7.064c2-2.194,4.161-2.3,6.736-3.285" transform="translate(95.919 115.326)" fill="#dba38d"/>
              <path id="Trazado_230953" data-name="Trazado 230953" d="M182.546,240.347a32.633,32.633,0,0,1-6.61-9.636,6.884,6.884,0,0,0-12.852,4.94,45.856,45.856,0,0,0,9.534,14.222,48.325,48.325,0,0,0,9.928-9.525" transform="translate(77.918 108.428)" fill="#f75454"/>
              <path id="Trazado_230954" data-name="Trazado 230954" d="M172.574,248.75a.23.23,0,0,1-.194-.068,46.182,46.182,0,0,1-9.583-14.3.23.23,0,0,1,.43-.163,45.564,45.564,0,0,0,9.346,14,48.56,48.56,0,0,0,9.6-9.2,32.844,32.844,0,0,1-6.521-9.57.23.23,0,0,1,.427-.169,32.368,32.368,0,0,0,6.56,9.561.229.229,0,0,1,.018.3,48.876,48.876,0,0,1-9.977,9.574.228.228,0,0,1-.105.041" transform="translate(77.99 109.779)" fill="#bf4040"/>
              <path id="Trazado_230955" data-name="Trazado 230955" d="M187.808,239.872c.7,4.622.328,9.354.217,14.038-.246,10.345.092,20.934,3.519,30.751,1.161,3.327,2.239,6.305-.386,9.222-5.218,5.8-17.556,7.144-24.735,7.357-4.584.136-19.872-.127-21.823-6.535-.632-2.08,1.673-6.8,2.071-9.018.855-4.772.379-10.256.383-15.14,0-6.356-.1-13.205-1.59-19.4A25.4,25.4,0,0,1,146.8,234.09a14.6,14.6,0,0,1,5.992-7.036c3.684-1.975,8.141-2.584,12.246-2.6,4.817-.018,11.148.234,15.482,2.557,4.085,2.189,6.317,7.6,7.12,11.886q.091.486.166.973" transform="translate(69.227 107.538)" fill="#f75454"/>
              <path id="Trazado_230956" data-name="Trazado 230956" d="M168.2,223.359l.249,8.854s.061,4.252-6.476,4.2a6.606,6.606,0,0,1-6.956-5.986l-.414-14.72Z" transform="translate(74.069 103.347)" fill="#eeb399"/>
              <path id="Trazado_230957" data-name="Trazado 230957" d="M155.981,220.689l11.641,3.5.133,4.712c-6.459-.679-11.774-8.209-11.774-8.209" transform="translate(74.732 105.734)" fill="#c18b76"/>
              <path id="Trazado_230958" data-name="Trazado 230958" d="M164.429,236.234l6.322-.177a9.368,9.368,0,0,0,9.071-9.6l-.481-17.062a9.365,9.365,0,0,0-9.6-9.071l-6.322.177a9.366,9.366,0,0,0-9.071,9.6l.481,17.062a9.364,9.364,0,0,0,9.6,9.071" transform="translate(73.95 95.976)" fill="#eeb399"/>
              <path id="Trazado_230959" data-name="Trazado 230959" d="M152.6,215.635a3.064,3.064,0,1,0,2.976-3.149,3.062,3.062,0,0,0-2.976,3.149" transform="translate(73.11 101.803)" fill="#eeb399"/>
              <path id="Trazado_230960" data-name="Trazado 230960" d="M180.366,205.489S169.817,219.8,154.01,218.823c0,0-3.5-18.891,11.882-19.452a17.83,17.83,0,0,1,14.475,6.118" transform="translate(73.624 95.496)" fill="#503972"/>
              <path id="Trazado_230961" data-name="Trazado 230961" d="M192.541,271.919c-33.156-10.259-31.91-36.713-31.829-37.921a6.885,6.885,0,0,0-13.729-1.058,47.368,47.368,0,0,0,4.152,21.238c4.335,9.914,14.006,23.086,35.5,30.3q.894.3,1.821.589a38.269,38.269,0,0,0,4.081-13.151" transform="translate(70.391 108.568)" fill="#eeb399"/>
              <path id="Trazado_230962" data-name="Trazado 230962" d="M162.543,245.539A32.627,32.627,0,0,1,160.712,234a6.884,6.884,0,0,0-13.728-1.058,45.818,45.818,0,0,0,2.5,16.939,48.391,48.391,0,0,0,13.056-4.34" transform="translate(70.392 108.568)" fill="#f75454"/>
              <path id="Trazado_230963" data-name="Trazado 230963" d="M149.487,248.118a.231.231,0,0,1-.145-.145,46.194,46.194,0,0,1-2.514-17.029.231.231,0,0,1,.249-.21.228.228,0,0,1,.21.247,45.6,45.6,0,0,0,2.429,16.658,48.439,48.439,0,0,0,12.621-4.192,32.821,32.821,0,0,1-1.779-11.441.23.23,0,1,1,.459.03,32.39,32.39,0,0,0,1.818,11.453.228.228,0,0,1-.111.277,48.811,48.811,0,0,1-13.121,4.36.212.212,0,0,1-.114-.007" transform="translate(70.317 110.546)" fill="#bf4040"/>
              <path id="Trazado_230964" data-name="Trazado 230964" d="M186.735,257.454a4.934,4.934,0,0,1,2.736.769,1.7,1.7,0,0,1,.293,2.5c-.63.527-1.837.519-1.944,1.334a1.32,1.32,0,0,0,.189.734c1.439,2.861,4.329,4.653,6.456,7.046.961,1.08,1.812,2.479,1.512,3.893a3.545,3.545,0,0,1-2.117,2.371,7.975,7.975,0,0,1-3.236.525,22.615,22.615,0,0,1-15.763-6.541,4.434,4.434,0,0,1-1.132-1.572,4.88,4.88,0,0,1-.155-1.889,15.458,15.458,0,0,1,.493-3.736,8.735,8.735,0,0,1,5.174-5.363c2.745-1.123,4.743-.287,7.493-.074" transform="translate(83.151 123.109)" fill="#eeb399"/>
              <path id="Trazado_230965" data-name="Trazado 230965" d="M406.808,297.383H359.661V240.36a11.958,11.958,0,0,1,11.923-11.923h23.3a11.958,11.958,0,0,1,11.923,11.923Z" transform="translate(172.317 109.446)" fill="#19365a"/>
              <path id="Trazado_230966" data-name="Trazado 230966" d="M378.008,231.6a8.31,8.31,0,0,0-11.753-.114L345.077,252.25l-24.939-20.52c-4.952,9.077-10.425,11.984-10.425,11.984l30.3,26.118a8.311,8.311,0,0,0,11.247-.362l26.634-26.118a8.31,8.31,0,0,0,.114-11.753" transform="translate(148.386 109.767)" fill="#eeb399"/>
              <path id="Trazado_230967" data-name="Trazado 230967" d="M366.177,231.6a8.31,8.31,0,0,0-11.753-.114l-20.017,19.626c1.578,3.98,4.681,10.619,9.03,14.429l22.626-22.188a8.31,8.31,0,0,0,.114-11.753" transform="translate(160.217 109.767)" fill="#638dce"/>
              <path id="Trazado_230968" data-name="Trazado 230968" d="M314.026,227.167a3.87,3.87,0,0,0-1.847-.813,1.413,1.413,0,0,0-1.535,1.044c-.145,1.035,1.185,1.633,1.593,2.6a2.336,2.336,0,0,1-.425,2.208,16.6,16.6,0,0,1-1.645,1.677,8.086,8.086,0,0,0-.518,10.317,2.784,2.784,0,0,0,1.716,1.164,3.385,3.385,0,0,0,2.386-1.05,31.8,31.8,0,0,0,5.227-4.945c1.331-1.708,3.307-4.745,1.7-6.693a32.5,32.5,0,0,0-6.653-5.505" transform="translate(147.583 108.446)" fill="#eeb399"/>
              <path id="Trazado_230969" data-name="Trazado 230969" d="M312.319,240.413a2.489,2.489,0,0,1-.475-.049.277.277,0,1,1,.105-.544,1.093,1.093,0,0,0,1.024-.2,2.276,2.276,0,0,0,.334-1.722.271.271,0,0,1,.053-.214.276.276,0,0,1,.194-.108,1.116,1.116,0,0,0,1.149-1.731.276.276,0,0,1,.025-.293.281.281,0,0,1,.275-.105,1.254,1.254,0,0,0,1.022-.114.722.722,0,0,0,.271-.478c.334-2.762-5.421-4.309-5.479-4.323a.277.277,0,1,1,.141-.537c.257.068,6.28,1.688,5.888,4.914a1.281,1.281,0,0,1-.478.859,1.508,1.508,0,0,1-1.007.28,1.69,1.69,0,0,1-.1,1.225,1.79,1.79,0,0,1-1.376.819,2.55,2.55,0,0,1-.524,1.924,1.436,1.436,0,0,1-1.043.392" transform="translate(148.816 110.191)" fill="#b57359"/>
              <path id="Trazado_230970" data-name="Trazado 230970" d="M315.624,235.346a.274.274,0,0,1-.152-.046c-.046-.03-4.492-2.973-6.061-3.395a.276.276,0,0,1,.144-.534c1.655.444,6.038,3.343,6.224,3.467a.277.277,0,0,1-.154.507" transform="translate(148.143 110.847)" fill="#b57359"/>
              <path id="Trazado_230971" data-name="Trazado 230971" d="M314.674,236.721a.272.272,0,0,1-.148-.043c-.044-.028-4.511-2.849-5.985-3.189a.277.277,0,0,1,.126-.54c1.563.362,5.968,3.143,6.155,3.261a.277.277,0,0,1-.148.51" transform="translate(147.722 111.605)" fill="#b57359"/>
              <path id="Trazado_230972" data-name="Trazado 230972" d="M313.13,238.116a.273.273,0,0,1-.182-.068,16.6,16.6,0,0,0-4.721-2.812.277.277,0,0,1,.173-.527,16.83,16.83,0,0,1,4.912,2.921.277.277,0,0,1-.182.485" transform="translate(147.583 112.445)" fill="#b57359"/>
              <path id="Trazado_230973" data-name="Trazado 230973" d="M315.921,234.486a.277.277,0,0,1-.235-.13,1.365,1.365,0,0,1-.127-1.139,12.126,12.126,0,0,1-2.1-.916,4.489,4.489,0,0,1-1.731-1.7,1.692,1.692,0,0,1-.246-.981,1.506,1.506,0,0,1,.95-1.177,3.1,3.1,0,0,1,1.4-.17,8.465,8.465,0,0,1,3.581,1.013.277.277,0,0,1-.269.485,7.9,7.9,0,0,0-3.343-.945,2.533,2.533,0,0,0-1.149.129.943.943,0,0,0-.614.72,1.163,1.163,0,0,0,.18.661,3.943,3.943,0,0,0,1.524,1.482,11.768,11.768,0,0,0,2.063.887.448.448,0,0,1,.3.651.8.8,0,0,0,.061.7.276.276,0,0,1-.235.423" transform="translate(149.229 109.364)" fill="#b57359"/>
              <path id="Trazado_230974" data-name="Trazado 230974" d="M343.606,244.711l4.05,52.406s11.834,6.443,28.538,4.5,20.363-9.323,20.363-9.323-2.886-51.421-3.372-51.93-2.461-17.406-26.63-13.954-22.948,18.3-22.948,18.3" transform="translate(164.62 108.253)" fill="#7298e2"/>
              <rect id="Rectángulo_50945" data-name="Rectángulo 50945" width="548.257" height="12.992" transform="translate(42.624 399.666)" fill="#5f87df"/>
              <path id="Trazado_230975" data-name="Trazado 230975" d="M61.137,273.115H133.49a.743.743,0,0,0,.74-.74v-2.117a.743.743,0,0,0-.74-.74H61.137a.742.742,0,0,0-.74.74v2.117a.742.742,0,0,0,.74.74" transform="translate(28.937 129.129)" fill="#0d2638"/>
              <path id="Trazado_230976" data-name="Trazado 230976" d="M88.008,285.437h60.25a5.446,5.446,0,0,0,5.167-4.461l5.2-32.826a3.722,3.722,0,0,0-3.754-4.461H94.62a5.446,5.446,0,0,0-5.167,4.461l-5.2,32.826a3.721,3.721,0,0,0,3.754,4.461" transform="translate(40.34 116.754)" fill="#224cb3"/>
              <path id="Trazado_230977" data-name="Trazado 230977" d="M117.606,259.539a5.55,5.55,0,1,1-5.551-5.551,5.551,5.551,0,0,1,5.551,5.551" transform="translate(51.027 121.688)" fill="#fff"/>
              <path id="Trazado_230978" data-name="Trazado 230978" d="M387.074,241.029s3.7,44.253-7.147,45.12-29.132,0-29.132,0,22.074-4.226,24.492-16.507,11.787-28.613,11.787-28.613" transform="translate(168.068 115.479)" fill="#3f649e"/>
              <path id="Trazado_230979" data-name="Trazado 230979" d="M362.786,239.17c8.441-1.186,9.632-8.765,9.625-13.024a38.55,38.55,0,0,0-9.8.265,43.139,43.139,0,0,0-10.79,2.849c.259,3.588,1.87,11.189,10.963,9.91" transform="translate(168.561 108.253)" fill="#eeb399"/>
              <path id="Trazado_230980" data-name="Trazado 230980" d="M367.172,216.313v14.54l-6.7,6.1-6.508-3.965v-8.745Z" transform="translate(169.588 103.637)" fill="#eeb399"/>
              <path id="Trazado_230981" data-name="Trazado 230981" d="M365.357,221.27l-11.392,3.773V229.7c6.357-.849,11.392-8.428,11.392-8.428" transform="translate(169.588 106.012)" fill="#cc957f"/>
              <path id="Trazado_230982" data-name="Trazado 230982" d="M361.551,236.705h-6.007a9.365,9.365,0,0,1-9.338-9.338V210.753a9.364,9.364,0,0,1,9.338-9.338h6.007a9.364,9.364,0,0,1,9.338,9.338v16.615a9.365,9.365,0,0,1-9.338,9.338" transform="translate(165.871 96.5)" fill="#eeb399"/>
              <path id="Trazado_230983" data-name="Trazado 230983" d="M345.405,206.174a2.58,2.58,0,0,0-.738,2.615,2.415,2.415,0,0,0,1.049,1.029,5.656,5.656,0,0,0,5.041.265,1.474,1.474,0,0,0-.019,1.9,2.794,2.794,0,0,0,1.8.927,7.189,7.189,0,0,0,5.875-2.192,2.679,2.679,0,0,0,2.494,2.688c1.228.04,2.412-.791,3.613-.533.352.593-.206,1.562.361,1.957a.977.977,0,0,0,.476.139c1.139.109,2.5-.095,3.233.781.71.846.328,2.108.035,3.173a3.738,3.738,0,0,0,.115,2.935c.53.859,1.985,1.132,2.512.272.149-.244.2-.537.361-.775s.5-.405.728-.237a.654.654,0,0,1,.189.578c-.058,1.272-.842,2.378-1.284,3.571s-.393,2.81.723,3.418a3.13,3.13,0,0,0,1.1.294,4.727,4.727,0,0,0,3.458-.525,5.228,5.228,0,0,0,1.574-2.97,3.252,3.252,0,0,0,.17-1.313,1.106,1.106,0,0,0-.8-.958c-.527-1.467,1.065-3.29.121-4.529a4.954,4.954,0,0,0-.768-.68,4.221,4.221,0,0,1-1.279-2.642,19.11,19.11,0,0,1-.041-3,24.3,24.3,0,0,0-.595-5.783,5.72,5.72,0,0,0-.882-2.216,2.3,2.3,0,0,0-2.063-.994,5.922,5.922,0,0,0-2.372-3.667,3.585,3.585,0,0,0-4.171.115,1.862,1.862,0,0,1-.813.549,1.436,1.436,0,0,1-.768-.157c-2.294-.932-4.951-1.719-7.172-.626a3.408,3.408,0,0,1-1.028.416,3.013,3.013,0,0,1-1.108-.176,3.065,3.065,0,0,0-2.6.285c-.8.6-.454,1.266-.521,2.063-.074.907-.578.85-1.438,1.173a11.081,11.081,0,0,0-4.568,2.83" transform="translate(165.066 95.367)" fill="#171e26"/>
              <path id="Trazado_230984" data-name="Trazado 230984" d="M367.57,216.161a3.025,3.025,0,1,1-3.025-3.025,3.025,3.025,0,0,1,3.025,3.025" transform="translate(173.207 102.115)" fill="#eeb399"/>
              <path id="Trazado_230985" data-name="Trazado 230985" d="M385.428,229.059a8.4,8.4,0,0,0-9.091,7.616l-3.177,36L339.4,274.847s-1.108,8.9,1.074,16.735l40.948-2.631a8.382,8.382,0,0,0,7.816-7.631l3.81-43.171a8.384,8.384,0,0,0-7.616-9.089" transform="translate(162.473 109.729)" fill="#eeb399"/>
              <path id="Trazado_230986" data-name="Trazado 230986" d="M338.484,276.957a6.325,6.325,0,0,1-2.921-.818,2.21,2.21,0,0,1-.929-2.649c.24-.475.719-.858.738-1.387.025-.667-.67-1.1-1.062-1.639a2.561,2.561,0,0,1,.615-3.288c.308-.263.689-.5.791-.893.231-.868-1.065-1.606-.818-2.47.186-.661,1.155-.839,1.359-1.5a4.665,4.665,0,0,0-.018-1.111,1.592,1.592,0,0,1,1.186-1.3,4.68,4.68,0,0,1,1.865-.047l2.935.32a4.605,4.605,0,0,1,1.682.4c1.1.587,1.526,1.93,1.8,3.151a19.891,19.891,0,0,1,.482,7.122,9.919,9.919,0,0,1-2.417,5.4c-1.257,1.3-3.631.89-5.286.71" transform="translate(159.995 124.465)" fill="#eeb399"/>
              <path id="Trazado_230987" data-name="Trazado 230987" d="M374.326,228.766a8.576,8.576,0,0,0-9.28,7.776l-2.667,30.218c3,1.333,9.975,4.115,16.785,4.565l2.938-33.278a8.561,8.561,0,0,0-7.776-9.28" transform="translate(173.619 109.588)" fill="#7298e2"/>
              <path id="Trazado_230988" data-name="Trazado 230988" d="M364.834,235.636l-2.455,27.816s10.289,4.412,16.785,4.565l2.769-28.637" transform="translate(173.619 112.895)" fill="none" stroke="#3c62a0" stroke-linecap="round" stroke-linejoin="round" stroke-width="0.283"/>
              <path id="Trazado_230989" data-name="Trazado 230989" d="M382.837,273.115H310.484a.742.742,0,0,1-.74-.74v-2.117a.742.742,0,0,1,.74-.74h72.354a.742.742,0,0,1,.74.74v2.117a.742.742,0,0,1-.74.74" transform="translate(148.401 129.129)" fill="#0d2638"/>
              <path id="Trazado_230990" data-name="Trazado 230990" d="M356.176,285.437h-60.25a5.446,5.446,0,0,1-5.167-4.461l-5.2-32.826a3.721,3.721,0,0,1,3.754-4.461h60.25a5.446,5.446,0,0,1,5.167,4.461l5.2,32.826a3.721,3.721,0,0,1-3.754,4.461" transform="translate(136.788 116.754)" fill="#173658"/>
              <path id="Trazado_230991" data-name="Trazado 230991" d="M307.881,260.064a12.938,12.938,0,0,0-.87,1.651,1.581,1.581,0,0,0,.922,2.251,3.93,3.93,0,0,0,4.171-1.126,6.287,6.287,0,0,0,1.494-4.23,3.844,3.844,0,0,0-1.321-3.278,2.891,2.891,0,0,0-1.049-.432,2.441,2.441,0,0,0-1.76.228c-.753.459-.808,1.318-.883,2.1a7.3,7.3,0,0,1-.7,2.833" transform="translate(147.026 122.093)" fill="#fff"/>
              <path id="Trazado_230992" data-name="Trazado 230992" d="M309.3,254.472a2.147,2.147,0,0,1,.052-.936.988.988,0,0,1,.627-.657,1.251,1.251,0,0,1,.331-.038,1,1,0,0,1,.7.2.728.728,0,0,1,.2.561,1.407,1.407,0,0,1-.182.583,2.023,2.023,0,0,1-.984.939c-.606.248-.683-.1-.751-.655" transform="translate(148.174 121.138)" fill="#fff"/>
              <path id="Trazado_230993" data-name="Trazado 230993" d="M107.332,172.057a32.123,32.123,0,1,0-33.8,32.08l4.665,11.445,5.548-12.556a32.133,32.133,0,0,0,23.59-30.97" transform="translate(20.642 67.044)" fill="#fff"/>
              <path id="Trazado_230994" data-name="Trazado 230994" d="M107.332,172.057a32.123,32.123,0,1,0-33.8,32.08l4.665,11.445,5.548-12.556A32.133,32.133,0,0,0,107.332,172.057Z" transform="translate(20.642 67.044)" fill="none" stroke="#1f74c2" stroke-linecap="round" stroke-linejoin="round" stroke-width="1"/>
              <path id="Trazado_230995" data-name="Trazado 230995" d="M81.033,162.122v-7.56h-7.56a5.682,5.682,0,1,0-11.364,0H54.55v26.483h7.56a5.682,5.682,0,0,1,11.364,0h7.56v-7.56a5.682,5.682,0,1,0,0-11.364" transform="translate(26.135 71.33)" fill="#4dd0e1"/>
              <path id="Trazado_230996" data-name="Trazado 230996" d="M418.95,188.833a32.124,32.124,0,1,0-44.165,14.875l-.584,12.346L384.518,207a32.133,32.133,0,0,0,34.432-18.166" transform="translate(171.367 68.6)" fill="#fff"/>
              <path id="Trazado_230997" data-name="Trazado 230997" d="M418.95,188.833a32.124,32.124,0,1,0-44.165,14.875l-.584,12.346L384.518,207A32.133,32.133,0,0,0,418.95,188.833Z" transform="translate(171.367 68.6)" fill="none" stroke="#1f74c2" stroke-linecap="round" stroke-linejoin="round" stroke-width="1"/>
              <path id="Trazado_230998" data-name="Trazado 230998" d="M399.7,163.41a5.581,5.581,0,0,0-1.4.194V155.85h-7.56a5.682,5.682,0,0,1-11.364,0h-7.56v7.56a5.682,5.682,0,1,0,0,11.364v7.56h7.714a5.682,5.682,0,0,1,11.364,0H398.3V174.58a5.673,5.673,0,1,0,1.4-11.17" transform="translate(175.419 74.669)" fill="#039be5"/>
              <path id="Trazado_230999" data-name="Trazado 230999" d="M128.143,190.362a32.124,32.124,0,1,1,44.165,14.875l.584,12.346-10.317-9.055a32.133,32.133,0,0,1-34.432-18.166" transform="translate(59.961 69.333)" fill="#fff"/>
              <path id="Trazado_231000" data-name="Trazado 231000" d="M128.143,190.362a32.124,32.124,0,1,1,44.165,14.875l.584,12.346-10.317-9.055A32.133,32.133,0,0,1,128.143,190.362Z" transform="translate(59.961 69.333)" fill="none" stroke="#1f74c2" stroke-linecap="round" stroke-linejoin="round" stroke-width="1"/>
              <path id="Trazado_231001" data-name="Trazado 231001" d="M156.975,160.174a5.682,5.682,0,0,0-11.364,0h-7.56v26.483h7.56a5.682,5.682,0,0,1,11.364,0h7.56V160.174Z" transform="translate(66.141 74.019)" fill="#039be5"/>
              <path id="Trazado_231002" data-name="Trazado 231002" d="M325.507,205.587a32.123,32.123,0,1,0-46.317-5.15l-5.74,10.945,13.174-3.856a32.131,32.131,0,0,0,38.883-1.939" transform="translate(130.638 71.344)" fill="#fff"/>
              <path id="Trazado_231003" data-name="Trazado 231003" d="M325.507,205.587a32.123,32.123,0,1,0-46.317-5.15l-5.74,10.945,13.174-3.856A32.131,32.131,0,0,0,325.507,205.587Z" transform="translate(130.638 71.344)" fill="none" stroke="#1f74c2" stroke-linecap="round" stroke-linejoin="round" stroke-width="1"/>
              <path id="Trazado_231004" data-name="Trazado 231004" d="M311.612,171.714v-7.56h-7.56a5.682,5.682,0,1,0-11.364,0h-7.56v7.56a5.682,5.682,0,0,1,0,11.364v7.56h7.56a5.682,5.682,0,0,1,11.364,0h7.56v-7.56a5.682,5.682,0,0,0,0-11.364" transform="translate(136.608 75.925)" fill="#4dd0e1"/>
              <path id="Trazado_231005" data-name="Trazado 231005" d="M194.871,175.614s-.336,13.047,28.517,13.047S250.9,175.614,250.9,175.614Z" transform="translate(93.364 84.138)" fill="#224cb3"/>
              <path id="Trazado_231006" data-name="Trazado 231006" d="M254.862,190.26H196.646a6.966,6.966,0,0,1-6.965-6.965V159.617a6.966,6.966,0,0,1,6.965-6.965h58.216a6.965,6.965,0,0,1,6.965,6.965v23.678a6.965,6.965,0,0,1-6.965,6.965" transform="translate(90.878 73.137)" fill="#19365a"/>
              <path id="Trazado_231007" data-name="Trazado 231007" d="M333.988,86.722c-2-28.217-19.422-83.258-87.225-86.563V0q-1.642,0-3.247.04C242.446.015,241.367,0,240.271,0V.158c-67.8,3.306-85.223,58.346-87.223,86.563-2.063,29.1,13.059,51.781,25.661,74.463s17.183,53.041,19.131,64.04,11.914,10.654,11.914,10.654h67.527s9.968.343,11.914-10.654,6.53-41.356,19.132-64.04,27.723-45.364,25.661-74.463" transform="translate(73.235)" fill="#ffca28"/>
              <path id="Trazado_231008" data-name="Trazado 231008" d="M199.1,197.386a238.46,238.46,0,0,0,11.331-75.452c-.121-10.082-.936-20.381-4.946-29.63-.723-1.668-1.973-3.553-3.785-3.409-1.6.127-2.585,1.793-3.1,3.313a19.931,19.931,0,0,0,16.717,26.239,10.281,10.281,0,0,0,4.686-.4c3.079-1.139,4.933-4.273,6.1-7.342a35.68,35.68,0,0,0,1.294-21.086c-.426-1.729-1.475-3.788-3.251-3.661-1.253.089-2.117,1.275-2.682,2.4-3.035,6.017-2.686,13.265-.734,19.714a17.834,17.834,0,0,0,4.165,7.721c5.152,5.064,14.331,3.757,19.546-1.244S251.6,102,252.1,94.8c.238-3.463-.657-8-4.094-8.483-3.541-.491-5.585,3.841-6.381,7.326a264.856,264.856,0,0,0-4.5,92.428c.744,5.8,1.784,11.831,5.286,16.514" transform="translate(94.652 41.179)" fill="none" stroke="#19365a" stroke-miterlimit="10" stroke-width="1"/>
              <path id="Trazado_231009" data-name="Trazado 231009" d="M172.778,33.995c-2.534,2.988-5.011,6.153-6.234,9.875s-.985,8.147,1.534,11.148c3.554,4.233,10.372,4.165,15.232,1.529s8.323-7.181,11.979-11.326c5.758-6.526,12.587-12.479,20.867-15.156,3.14-1.016,6.437-1.543,9.508-2.754s6.016-3.276,7.251-6.338c1.661-4.115-.364-9.1-3.961-11.7-8.693-6.282-19.975-.324-28.494,3.3-11.142,4.736-19.893,12.241-27.682,21.426" transform="translate(79.449 3.125)" fill="#ffa726"/>
              <path id="Trazado_231010" data-name="Trazado 231010" d="M178.57,64.714v-7.56h-7.56a5.682,5.682,0,1,0-11.364,0h-7.56V83.638h7.56a5.682,5.682,0,0,1,11.364,0h7.56v-7.56a5.682,5.682,0,1,0,0-11.364" transform="translate(72.866 24.661)" fill="#d7eff9"/>
              <path id="Trazado_231011" data-name="Trazado 231011" d="M284.056,56.333a5.64,5.64,0,0,0-1.4.194V48.773H275.1a5.682,5.682,0,0,1-11.364,0h-7.56v7.56a5.682,5.682,0,1,0,0,11.364v7.56h7.714a5.682,5.682,0,0,1,11.364,0h7.406V67.5a5.673,5.673,0,1,0,1.4-11.17" transform="translate(120.014 23.368)" fill="#d7eff9"/>
              <path id="Trazado_231012" data-name="Trazado 231012" d="M194.145,122.945a5.682,5.682,0,1,0-11.364,0h-7.56v26.483h7.56a5.682,5.682,0,0,1,11.364,0h7.56V122.945Z" transform="translate(83.95 56.181)" fill="#d7eff9"/>
              <path id="Trazado_231013" data-name="Trazado 231013" d="M259.653,123.024v-7.56h-7.56a5.682,5.682,0,1,0-11.364,0h-7.56v7.56a5.682,5.682,0,0,1,0,11.364v7.56h7.56a5.682,5.682,0,0,1,11.364,0h7.56v-7.56a5.682,5.682,0,1,0,0-11.364" transform="translate(111.714 52.598)" fill="#d7eff9"/>
            </g>
          </g>
        </g>
      </g>
    </g>
  </g>
</svg>
