<svg xmlns="http://www.w3.org/2000/svg" xmlns:xlink="http://www.w3.org/1999/xlink" width="438.527" height="440.986" viewBox="0 0 438.527 440.986">
  <defs>
    <clipPath id="clip-path">
      <rect id="Rectángulo_50794" data-name="Rectángulo 50794" width="438.527" height="440.986" fill="none"/>
    </clipPath>
    <clipPath id="clip-path-4">
      <rect id="Rectángulo_50782" data-name="Rectángulo 50782" width="42.017" height="51.193" transform="translate(361.793 389.272)" fill="none"/>
    </clipPath>
    <clipPath id="clip-path-6">
      <rect id="Rectángulo_50785" data-name="Rectángulo 50785" width="22.723" height="41.906" transform="translate(152.934 335.67)" fill="none"/>
    </clipPath>
    <clipPath id="clip-path-7">
      <rect id="Rectángulo_50786" data-name="Rectángulo 50786" width="47.889" height="17.689" transform="translate(128.921 377.754)" fill="none"/>
    </clipPath>
    <clipPath id="clip-path-8">
      <rect id="Rectángulo_50787" data-name="Rectángulo 50787" width="18.503" height="23.74" transform="translate(254.279 376.79)" fill="none"/>
    </clipPath>
    <clipPath id="clip-path-11">
      <rect id="Rectángulo_50790" data-name="Rectángulo 50790" width="26.315" height="12.297" transform="translate(34.845 237.377)" fill="none"/>
    </clipPath>
    <clipPath id="clip-path-12">
      <rect id="Rectángulo_50791" data-name="Rectángulo 50791" width="5.7" height="5.7" transform="translate(42.303 230.01)" fill="none"/>
    </clipPath>
  </defs>
  <g id="Grupo_117850" data-name="Grupo 117850" transform="translate(-936 -21314.652)">
    <g id="Grupo_115584" data-name="Grupo 115584" transform="translate(936 21314.652)">
      <g id="Grupo_115583" data-name="Grupo 115583" clip-path="url(#clip-path)">
        <g id="Grupo_115554" data-name="Grupo 115554">
          <g id="Grupo_115553" data-name="Grupo 115553" clip-path="url(#clip-path)">
            <path id="Trazado_230321" data-name="Trazado 230321" d="M55.346,333.222H23.421a4.474,4.474,0,0,1-4.474-4.473V296.823a4.474,4.474,0,0,1,4.474-4.473H55.346a4.473,4.473,0,0,1,4.473,4.473v31.926a4.473,4.473,0,0,1-4.473,4.473" fill="#ebebeb"/>
            <path id="Trazado_230322" data-name="Trazado 230322" d="M22.9,324.839l-.765-.645,8.264-9.817a2.887,2.887,0,0,1,3.965-.7l4.958,3.305,5.8-7.33a2.909,2.909,0,0,1,2.174-1.1,2.864,2.864,0,0,1,2.251.933l7.072,7.645-.735.68-7.071-7.646a1.888,1.888,0,0,0-1.479-.613,1.915,1.915,0,0,0-1.428.726l-6.372,8.052-5.724-3.816a1.9,1.9,0,0,0-2.621.482Z" fill="#fff"/>
            <path id="Trazado_230323" data-name="Trazado 230323" d="M39.383,302.961a3.654,3.654,0,1,1-3.654-3.654,3.654,3.654,0,0,1,3.654,3.654" fill="#fff"/>
            <path id="Trazado_230324" data-name="Trazado 230324" d="M438.3,174.784a15.068,15.068,0,0,1-.384-3.384,27.828,27.828,0,0,0-.453-4.064,39.808,39.808,0,0,0-1.068-5.461,51.159,51.159,0,0,0-5.671-14.048A52.624,52.624,0,0,0,417.66,132.78a52.05,52.05,0,0,0-49.064-8.432,48.765,48.765,0,0,0-13.271,6.77,47.473,47.473,0,0,0-11.2,10.753,51.64,51.64,0,0,0-1.49,61.21A47.416,47.416,0,0,0,353.3,214.369a48.773,48.773,0,0,0,12.929,7.408,52.451,52.451,0,0,0,63.2-20.438,51.2,51.2,0,0,0,6.344-13.756,39.732,39.732,0,0,0,1.331-5.4,27.713,27.713,0,0,0,.65-4.036,15.12,15.12,0,0,1,.548-3.361,14.84,14.84,0,0,1,.04,3.413,23.818,23.818,0,0,1-.379,4.127,36.986,36.986,0,0,1-1.092,5.563,50.113,50.113,0,0,1-6.057,14.323A53.96,53.96,0,0,1,393.83,227.2a54.449,54.449,0,0,1-28.58-2.912,51.194,51.194,0,0,1-13.666-7.714,49.974,49.974,0,0,1-11.3-11.852,54.259,54.259,0,0,1,1.573-64.606,49.942,49.942,0,0,1,11.861-11.285,51.2,51.2,0,0,1,14.022-7.041,54.451,54.451,0,0,1,28.685-1.522,53.96,53.96,0,0,1,35.725,26.755,50.1,50.1,0,0,1,5.356,14.6,37.013,37.013,0,0,1,.821,5.611,23.806,23.806,0,0,1,.178,4.142,14.809,14.809,0,0,1-.2,3.407" fill="#ebebeb"/>
            <path id="Trazado_230325" data-name="Trazado 230325" d="M427.651,141.528c.117.164-.843,1-2.7,2.378l-3.426,2.458c-.679.465-1.389.991-2.179,1.486l-2.622,1.37a60.075,60.075,0,0,1-31.294,7.881l-4.737-.211-4.546-.711c-.743-.126-1.485-.225-2.209-.371l-2.122-.565c-1.4-.388-2.778-.716-4.092-1.137a68.574,68.574,0,0,1-13.278-6.118c-7.133-4.313-10.605-8.237-10.335-8.489.287-.329,4.165,2.955,11.35,6.685a79.916,79.916,0,0,0,13.07,5.348c1.273.37,2.605.65,3.948,1l2.04.505,2.116.32,4.344.64,4.516.182a64.8,64.8,0,0,0,30.3-6.805l2.652-1.151c.807-.422,1.54-.875,2.246-1.265l3.632-2c2.021-1.069,3.2-1.588,3.32-1.424" fill="#ebebeb"/>
            <path id="Trazado_230326" data-name="Trazado 230326" d="M342.493,206.247c-.118-.165.843-1,2.7-2.378l3.426-2.458c.679-.465,1.389-.991,2.179-1.486l2.622-1.37a60.075,60.075,0,0,1,31.294-7.881l4.736.211,4.547.711c.743.126,1.484.225,2.209.371l2.122.565c1.4.388,2.778.716,4.092,1.138a68.447,68.447,0,0,1,13.277,6.117c7.134,4.313,10.606,8.237,10.336,8.489-.288.329-4.164-2.955-11.35-6.685a80.088,80.088,0,0,0-13.07-5.349c-1.273-.369-2.606-.649-3.948-.994l-2.04-.507-2.117-.319-4.344-.639-4.515-.183a64.8,64.8,0,0,0-30.3,6.8l-2.652,1.151c-.807.422-1.541.875-2.246,1.265l-3.633,2c-2.02,1.069-3.2,1.588-3.319,1.424" fill="#ebebeb"/>
            <path id="Trazado_230327" data-name="Trazado 230327" d="M438.269,176.02c-.02.808-23.864.885-53.25.171s-53.2-1.948-53.185-2.756,23.859-.884,53.256-.17,53.2,1.948,53.179,2.755" fill="#ebebeb"/>
            <path id="Trazado_230328" data-name="Trazado 230328" d="M382.6,226.66c-.808-.02-.885-23.856-.171-53.232s1.947-53.187,2.755-53.167.884,23.85.171,53.238-1.947,53.181-2.755,53.161" fill="#ebebeb"/>
            <path id="Trazado_230329" data-name="Trazado 230329" d="M382.6,226.58c-.2.309-6.065-3.666-12.833-12.668a71.577,71.577,0,0,1-9.512-17.274,64.173,64.173,0,0,1-4.119-23.849,61.047,61.047,0,0,1,5.373-23.609A73.97,73.97,0,0,1,371.9,132.439c7.168-8.662,13.08-12.5,13.279-12.193.287.332-5.068,4.689-11.648,13.468a79.684,79.684,0,0,0-9.551,16.537,61.326,61.326,0,0,0-4.922,22.594,64.818,64.818,0,0,0,3.725,22.867,76.8,76.8,0,0,0,8.669,17c6.161,9.072,11.44,13.543,11.144,13.865" fill="#ebebeb"/>
            <path id="Trazado_230330" data-name="Trazado 230330" d="M386.374,120.275c.2-.309,6.065,3.667,12.832,12.668a71.578,71.578,0,0,1,9.514,17.274,64.193,64.193,0,0,1,4.118,23.849,61.047,61.047,0,0,1-5.373,23.609,73.97,73.97,0,0,1-10.395,16.741c-7.168,8.662-13.08,12.5-13.278,12.193-.288-.333,5.067-4.689,11.648-13.468a79.73,79.73,0,0,0,9.55-16.537,61.326,61.326,0,0,0,4.922-22.594,64.818,64.818,0,0,0-3.725-22.867,76.841,76.841,0,0,0-8.668-17c-6.162-9.072-11.442-13.543-11.145-13.865" fill="#ebebeb"/>
            <path id="Trazado_230331" data-name="Trazado 230331" d="M401.8,22.227H354.28a2.4,2.4,0,1,1,0-4.8H401.8a2.4,2.4,0,1,1,0,4.8" fill="#e0e0e0"/>
            <path id="Trazado_230332" data-name="Trazado 230332" d="M401.8,32.932H354.28a2.4,2.4,0,1,1,0-4.8H401.8a2.4,2.4,0,1,1,0,4.8" fill="#e0e0e0"/>
            <path id="Trazado_230333" data-name="Trazado 230333" d="M401.8,43.637H354.28a2.4,2.4,0,1,1,0-4.8H401.8a2.4,2.4,0,1,1,0,4.8" fill="#e0e0e0"/>
            <path id="Trazado_230334" data-name="Trazado 230334" d="M407.13,277.546H361.792a2.289,2.289,0,0,1,0-4.579H407.13a2.289,2.289,0,1,1,0,4.579" fill="#f5f5f5"/>
            <path id="Trazado_230335" data-name="Trazado 230335" d="M407.13,287.759H361.792a2.29,2.29,0,0,1,0-4.579H407.13a2.29,2.29,0,1,1,0,4.579" fill="#f5f5f5"/>
            <path id="Trazado_230336" data-name="Trazado 230336" d="M407.13,297.973H361.792a2.289,2.289,0,0,1,0-4.579H407.13a2.289,2.289,0,1,1,0,4.579" fill="#f5f5f5"/>
            <path id="Trazado_230337" data-name="Trazado 230337" d="M40.41,39.845a14.929,14.929,0,1,0-27.8,7.543H12.6l.042.056c.573.965,1.29,1.655,2.014,2.668l8.668,11.482a2.7,2.7,0,0,0,4.3,0L36.156,50.3a32.136,32.136,0,0,0,2.168-2.874l.031-.04h-.006a14.834,14.834,0,0,0,2.061-7.543m-14.929,6.5a6.569,6.569,0,1,1,6.57-6.569,6.569,6.569,0,0,1-6.57,6.569" fill="#ebebeb"/>
            <path id="Trazado_230338" data-name="Trazado 230338" d="M43.843,370.127s-11.424,8.7-.479,20.2a1,1,0,0,0,.724.306l99.807-.582s8.524-9.56,1.451-20.575Z" fill="#ebebeb"/>
            <path id="Trazado_230339" data-name="Trazado 230339" d="M121.837,379.211c0,.111-12.428.2-27.756.2s-27.758-.091-27.758-.2,12.425-.2,27.758-.2,27.756.09,27.756.2" fill="#e0e0e0"/>
            <path id="Trazado_230340" data-name="Trazado 230340" d="M106.312,382.822c0,.111-5.843.2-13.049.2s-13.051-.091-13.051-.2,5.842-.2,13.051-.2,13.049.09,13.049.2" fill="#e0e0e0"/>
            <path id="Trazado_230341" data-name="Trazado 230341" d="M132.042,389.733c-.065-.017.218-1.146.528-2.995a41.37,41.37,0,0,0-.138-14.553c-.343-1.842-.649-2.965-.584-2.984a3.231,3.231,0,0,1,.289.768c.166.5.366,1.239.575,2.159a35.375,35.375,0,0,1,.138,14.662c-.19.924-.377,1.666-.534,2.17a3.317,3.317,0,0,1-.274.773" fill="#e0e0e0"/>
            <path id="Trazado_230342" data-name="Trazado 230342" d="M139.491,369.353a3.461,3.461,0,0,1,.444.726,8.422,8.422,0,0,1,.444.893c.156.357.352.756.509,1.221a21.22,21.22,0,0,1,.95,3.312,22.233,22.233,0,0,1,.068,8.407,21.286,21.286,0,0,1-.9,3.327c-.149.467-.339.87-.489,1.229a8.749,8.749,0,0,1-.429.9,3.43,3.43,0,0,1-.433.733c-.069-.034.487-1.109,1.081-2.953a24.031,24.031,0,0,0,.8-3.3,23.718,23.718,0,0,0-.067-8.273,24.041,24.041,0,0,0-.853-3.286c-.624-1.835-1.2-2.9-1.129-2.936" fill="#e0e0e0"/>
            <path id="Trazado_230343" data-name="Trazado 230343" d="M59.591,389.866a3.143,3.143,0,0,1-.465-.667,6.992,6.992,0,0,1-.466-.833,11.67,11.67,0,0,1-.533-1.147,17.49,17.49,0,0,1-.974-3.149,18.541,18.541,0,0,1,.108-8.03,17.473,17.473,0,0,1,1.058-3.122,11.717,11.717,0,0,1,.564-1.133,7.135,7.135,0,0,1,.488-.819,3.105,3.105,0,0,1,.483-.655c.068.042-.574,1.007-1.273,2.719a19.483,19.483,0,0,0-.958,3.092,19.558,19.558,0,0,0-.1,7.875,19.278,19.278,0,0,0,.874,3.117c.652,1.73,1.268,2.712,1.2,2.752" fill="#e0e0e0"/>
            <path id="Trazado_230344" data-name="Trazado 230344" d="M48.814,392.3a3.957,3.957,0,0,1-.513-.757,8.652,8.652,0,0,1-.522-.937c-.183-.375-.416-.794-.6-1.288a21.273,21.273,0,0,1-1.143-3.522,22.288,22.288,0,0,1-.2-9.028,21.235,21.235,0,0,1,.986-3.571,14.1,14.1,0,0,1,.546-1.313,8.783,8.783,0,0,1,.479-.959,3.951,3.951,0,0,1,.479-.778c.072.037-.566,1.173-1.236,3.146a23.527,23.527,0,0,0-.888,3.539,23.507,23.507,0,0,0,.2,8.883,23.486,23.486,0,0,0,1.044,3.5c.756,1.941,1.444,3.048,1.374,3.088" fill="#e0e0e0"/>
            <rect id="Rectángulo_50777" data-name="Rectángulo 50777" width="36.958" height="19.099" transform="translate(103.276 420.45)" fill="#ebebeb"/>
            <path id="Trazado_230345" data-name="Trazado 230345" d="M20.873,430.176c.006.168.014.337.022.506a10.944,10.944,0,0,0,10.994,10.249H141.956v-1.382H115.827a9.55,9.55,0,0,1,0-19.1h26.129V418.42l-110.1.372a11.012,11.012,0,0,0-10.983,11.384" fill="#e0e0e0"/>
            <path id="Trazado_230346" data-name="Trazado 230346" d="M140.234,430.254c0,.111-7.6.2-16.971.2s-16.972-.091-16.972-.2,7.6-.2,16.972-.2,16.971.091,16.971.2" fill="#e0e0e0"/>
            <path id="Trazado_230347" data-name="Trazado 230347" d="M139.7,434.558c0,.111-7.19.2-16.058.2s-16.06-.091-16.06-.2,7.189-.2,16.06-.2,16.058.09,16.058.2" fill="#e0e0e0"/>
            <path id="Trazado_230348" data-name="Trazado 230348" d="M140.234,438.494c0,.111-6.465.2-14.438.2s-14.439-.091-14.439-.2,6.464-.2,14.439-.2,14.438.09,14.438.2" fill="#e0e0e0"/>
            <path id="Trazado_230349" data-name="Trazado 230349" d="M140.234,426.387c0,.111-7.443.2-16.623.2s-16.625-.091-16.625-.2,7.442-.2,16.625-.2,16.623.09,16.623.2" fill="#e0e0e0"/>
            <path id="Trazado_230350" data-name="Trazado 230350" d="M139.7,422.52c0,.111-6.625.2-14.8.2s-14.8-.091-14.8-.2,6.624-.2,14.8-.2,14.8.091,14.8.2" fill="#e0e0e0"/>
            <path id="Trazado_230351" data-name="Trazado 230351" d="M34.209,419.112a24.43,24.43,0,0,0-2.338,2.781,14.142,14.142,0,0,0,.193,16.367,24.574,24.574,0,0,0,2.4,2.725,3.858,3.858,0,0,1-.794-.586,12.625,12.625,0,0,1-1.839-1.97,13.932,13.932,0,0,1-.2-16.7,12.512,12.512,0,0,1,1.792-2.013,3.834,3.834,0,0,1,.78-.605" fill="#f5f5f5"/>
            <path id="Trazado_230352" data-name="Trazado 230352" d="M30.487,418.7a24.428,24.428,0,0,0-2.338,2.781,14.142,14.142,0,0,0,.193,16.367,24.576,24.576,0,0,0,2.4,2.725,3.858,3.858,0,0,1-.794-.586,12.625,12.625,0,0,1-1.839-1.97,13.932,13.932,0,0,1-.2-16.7,12.563,12.563,0,0,1,1.792-2.013,3.833,3.833,0,0,1,.78-.6" fill="#f5f5f5"/>
            <path id="Trazado_230353" data-name="Trazado 230353" d="M105.275,419.112a24.43,24.43,0,0,0-2.338,2.781,14.142,14.142,0,0,0,.193,16.367,24.574,24.574,0,0,0,2.4,2.725,3.858,3.858,0,0,1-.794-.586,12.625,12.625,0,0,1-1.839-1.97,13.932,13.932,0,0,1-.2-16.7,12.512,12.512,0,0,1,1.792-2.013,3.834,3.834,0,0,1,.78-.605" fill="#f5f5f5"/>
            <path id="Trazado_230354" data-name="Trazado 230354" d="M101.554,418.7a24.427,24.427,0,0,0-2.338,2.781,14.142,14.142,0,0,0,.193,16.367,24.578,24.578,0,0,0,2.4,2.725,3.858,3.858,0,0,1-.794-.586,12.625,12.625,0,0,1-1.839-1.97,13.932,13.932,0,0,1-.2-16.7,12.515,12.515,0,0,1,1.792-2.013,3.833,3.833,0,0,1,.78-.6" fill="#f5f5f5"/>
            <path id="Trazado_230355" data-name="Trazado 230355" d="M46.735,432.861q-.052-3.883-.1-7.766a5.559,5.559,0,0,0-.274-2,1.885,1.885,0,0,0-1.474-1.245c-.973-.43-2.489.381-3.168,1.5a7.366,7.366,0,0,0-.763,3.806,54.9,54.9,0,0,0,.3,6.135,7.049,7.049,0,0,0,.722,2.808,2.621,2.621,0,0,0,2.369,1.425,2.651,2.651,0,0,0,2.076-1.8,7.794,7.794,0,0,0,.318-2.862" fill="#f5f5f5"/>
            <path id="Trazado_230356" data-name="Trazado 230356" d="M89.483,430.628c0,.111-7.957.2-17.77.2s-17.773-.091-17.773-.2,7.956-.2,17.773-.2,17.77.091,17.77.2" fill="#f5f5f5"/>
            <path id="Trazado_230357" data-name="Trazado 230357" d="M39.362,418.348l-.2-18.1h9.855l.34,18.1Z" fill="#f5f5f5"/>
            <path id="Trazado_230358" data-name="Trazado 230358" d="M48.431,403.465a26.192,26.192,0,0,1-4.579.2,26.2,26.2,0,0,1-4.58-.2,26.2,26.2,0,0,1,4.58-.2,26.192,26.192,0,0,1,4.579.2" fill="#e0e0e0"/>
            <path id="Trazado_230359" data-name="Trazado 230359" d="M48.431,406.26a26.192,26.192,0,0,1-4.579.2,26.2,26.2,0,0,1-4.58-.2,26.2,26.2,0,0,1,4.58-.2,26.188,26.188,0,0,1,4.579.2" fill="#e0e0e0"/>
            <path id="Trazado_230360" data-name="Trazado 230360" d="M48.431,409.054a26.186,26.186,0,0,1-4.579.2,26.194,26.194,0,0,1-4.58-.2,26.2,26.2,0,0,1,4.58-.2,26.192,26.192,0,0,1,4.579.2" fill="#e0e0e0"/>
            <path id="Trazado_230361" data-name="Trazado 230361" d="M48.431,411.848a26.188,26.188,0,0,1-4.579.2,26.2,26.2,0,0,1-4.58-.2,26.2,26.2,0,0,1,4.58-.2,26.192,26.192,0,0,1,4.579.2" fill="#e0e0e0"/>
            <path id="Trazado_230362" data-name="Trazado 230362" d="M48.431,414.642a26.192,26.192,0,0,1-4.579.2,26.2,26.2,0,0,1-4.58-.2,26.2,26.2,0,0,1,4.58-.2,26.192,26.192,0,0,1,4.579.2" fill="#e0e0e0"/>
            <path id="Trazado_230363" data-name="Trazado 230363" d="M38.635,399.765H147.858c1.348,5.995,1.159,12.592,0,19.568H39.1V418h6.645a3.138,3.138,0,0,0,3.139-3.138V404.035a3.138,3.138,0,0,0-3.139-3.138H38.635Z" fill="#ebebeb"/>
            <path id="Trazado_230364" data-name="Trazado 230364" d="M64.457,409.561h1.822a.426.426,0,0,1,.2.049.373.373,0,0,1,.2.343.4.4,0,0,1-.015.117c-.036.155-.077.31-.123.466a5.2,5.2,0,0,1-1.141,2.063,2.157,2.157,0,0,1-1.554.8,1.665,1.665,0,0,1-.22-.014,1.776,1.776,0,0,1-1.239-.9,4.092,4.092,0,0,1-.544-2.2,5.859,5.859,0,0,1,.216-1.563,5.233,5.233,0,0,1,1.082-2.112,2.2,2.2,0,0,1,1.642-.872,1.551,1.551,0,0,1,.69.157,2.237,2.237,0,0,1,1.064,1.331.4.4,0,0,1,.043.181.385.385,0,0,1-.053.2.374.374,0,0,1-.338.195.424.424,0,0,1-.123-.019.373.373,0,0,1-.25-.246l-.019-.035a1.983,1.983,0,0,0-.22-.431,1.041,1.041,0,0,0-.873-.52,1.021,1.021,0,0,0-.6.22,3.221,3.221,0,0,0-1,1.43,5.363,5.363,0,0,0-.431,2.056,3.69,3.69,0,0,0,.313,1.615,1.061,1.061,0,0,0,.951.715,1.3,1.3,0,0,0,.881-.532,4.826,4.826,0,0,0,.936-1.692c-.839,0-1.275-.006-1.307-.015q-.428-.069-.437-.441a.392.392,0,0,1,.04-.132.412.412,0,0,1,.411-.221" fill="#fafafa"/>
            <path id="Trazado_230365" data-name="Trazado 230365" d="M70.658,406a1.111,1.111,0,0,1,.049.132q.115.4,1.286,6.768a.283.283,0,0,1,.018.1.408.408,0,0,1-.053.2.36.36,0,0,1-.326.2.486.486,0,0,1-.063,0,.358.358,0,0,1-.3-.27l-.434-2.249H68.589l-1.078,2.257a.511.511,0,0,1-.036.075.434.434,0,0,1-.338.191.389.389,0,0,1-.213-.063.381.381,0,0,1-.179-.329.29.29,0,0,1,.025-.117c.067-.157.179-.4.334-.742q2.355-5.142,2.816-6.069a.426.426,0,0,1,.379-.274.414.414,0,0,1,.359.2m-.489,1.513-1.214,2.553h1.714Z" fill="#fafafa"/>
            <path id="Trazado_230366" data-name="Trazado 230366" d="M76.75,413.4H73.458a.374.374,0,0,1-.211-.064.6.6,0,0,1-.186-.411v-.005q0-.2.909-6.74a1.111,1.111,0,0,1,.02-.144.358.358,0,0,1,.353-.24.388.388,0,0,1,.182.044.365.365,0,0,1,.206.348q-.043.445-.224,1.847-.564,4.316-.589,4.556h2.8a.582.582,0,0,1,.211.039.37.37,0,0,1,.25.368.472.472,0,0,1-.019.128.463.463,0,0,1-.407.274" fill="#fafafa"/>
            <path id="Trazado_230367" data-name="Trazado 230367" d="M81.251,406a1.323,1.323,0,0,1,.049.132q.115.4,1.286,6.768a.283.283,0,0,1,.018.1.4.4,0,0,1-.054.2.359.359,0,0,1-.325.2.486.486,0,0,1-.063,0,.358.358,0,0,1-.3-.27l-.434-2.249H79.182L78.1,413.136a.5.5,0,0,1-.035.075.436.436,0,0,1-.338.191.389.389,0,0,1-.213-.063.378.378,0,0,1-.179-.329.29.29,0,0,1,.025-.117c.067-.157.179-.4.334-.742q2.355-5.142,2.816-6.069a.426.426,0,0,1,.379-.274.414.414,0,0,1,.359.2m-.489,1.513-1.214,2.553h1.714Z" fill="#fafafa"/>
            <path id="Trazado_230368" data-name="Trazado 230368" d="M86.5,409.888q.384,1.07.6,1.649.508,1.407.509,1.486a.348.348,0,0,1-.063.2.372.372,0,0,1-.329.18.358.358,0,0,1-.326-.264c-.025-.071-.046-.126-.062-.167q-.269-.613-.88-2.32L84.077,413.2a.454.454,0,0,1-.348.206.415.415,0,0,1-.2-.054.36.36,0,0,1-.185-.328.519.519,0,0,1,.005-.084.98.98,0,0,1,.195-.318q.938-1.209,2.069-2.882-.119-.327-.226-.621-1.05-2.817-1.05-2.911a.427.427,0,0,1,.049-.2.343.343,0,0,1,.318-.195.393.393,0,0,1,.367.217l1.1,2.963,2.2-2.989a.438.438,0,0,1,.349-.186.366.366,0,0,1,.18.044.37.37,0,0,1,.191.35.509.509,0,0,1-.039.18Z" fill="#fafafa"/>
            <path id="Trazado_230369" data-name="Trazado 230369" d="M94.642,405.833a.392.392,0,0,1,.181.044.388.388,0,0,1,.211.338q-.808,6.384-.892,6.9a4.2,4.2,0,0,1-.705,1.8,2.539,2.539,0,0,1-3.239.794,2.337,2.337,0,0,1-1.161-1.019.429.429,0,0,1-.044-.191.386.386,0,0,1,.054-.2.373.373,0,0,1,.338-.2.379.379,0,0,1,.3.162,2.118,2.118,0,0,0,1.686.96,1.666,1.666,0,0,0,1.307-.664,3.632,3.632,0,0,0,.726-2.069,1.983,1.983,0,0,1-1.666.9,1.673,1.673,0,0,1-.221-.015,1.763,1.763,0,0,1-1.249-.9,4.062,4.062,0,0,1-.549-2.194q0-.6.055-1.235.093-1,.445-2.837a.436.436,0,0,1,.035-.113.36.36,0,0,1,.352-.269.365.365,0,0,1,.191.054.346.346,0,0,1,.2.313,14.513,14.513,0,0,1-.181,1.5,20.7,20.7,0,0,0-.26,2.3,4.6,4.6,0,0,0,.294,1.786c.225.535.551.8.975.8a.634.634,0,0,0,.133-.016,1.793,1.793,0,0,0,.984-.787,4.907,4.907,0,0,0,.814-1.815l.5-3.753a.484.484,0,0,1,.05-.166.358.358,0,0,1,.342-.215" fill="#fafafa"/>
            <path id="Trazado_230370" data-name="Trazado 230370" d="M143.756,419.588c-.111,0-.2-4.5-.2-10.038s.091-10.039.2-10.039.2,4.493.2,10.039-.091,10.038-.2,10.038" fill="#f5f5f5"/>
            <path id="Trazado_230371" data-name="Trazado 230371" d="M54.378,419.588c-.111,0-.2-4.5-.2-10.038s.091-10.039.2-10.039.2,4.493.2,10.039-.09,10.038-.2,10.038" fill="#e0e0e0"/>
            <path id="Trazado_230372" data-name="Trazado 230372" d="M145.672,419.588c-.111,0-.2-4.5-.2-10.038s.09-10.039.2-10.039.2,4.493.2,10.039-.091,10.038-.2,10.038" fill="#f5f5f5"/>
            <path id="Trazado_230373" data-name="Trazado 230373" d="M52.587,419.588c-.111,0-.2-4.5-.2-10.038s.091-10.039.2-10.039.2,4.493.2,10.039-.09,10.038-.2,10.038" fill="#e0e0e0"/>
            <path id="Trazado_230374" data-name="Trazado 230374" d="M117.272,402.818l-.017-.035L128.8,412.1l.1.083-.127.033-1.536.4-9.746,2.557-.02,0-.019-.008-8.833-3.746-2.5-1.071-.66-.288-.168-.076a.268.268,0,0,1-.056-.029.249.249,0,0,1,.06.02l.172.067.667.271,2.513,1.04,8.853,3.7-.039,0,9.743-2.57,1.536-.4-.025.116-11.52-9.344-.016-.013v-.021" fill="#e0e0e0"/>
            <path id="Trazado_230375" data-name="Trazado 230375" d="M127.755,410.647l.629.592.845-.182-.369.781.435.747-.857-.109-.576.644-.161-.849-.791-.349.758-.415Z" fill="#e0e0e0"/>
            <path id="Trazado_230376" data-name="Trazado 230376" d="M116.682,414.317l.43.358.538-.151-.207.519.31.465-.558-.036-.347.439-.137-.543-.525-.194.473-.3Z" fill="#e0e0e0"/>
            <path id="Trazado_230377" data-name="Trazado 230377" d="M104.451,409.3l.685.043.424-.54.171.665.644.236-.579.368-.026.686-.529-.438-.66.188.253-.638Z" fill="#e0e0e0"/>
            <path id="Trazado_230378" data-name="Trazado 230378" d="M132.931,402.965l.685.043.424-.54.171.665.644.236-.579.368-.026.686-.529-.438-.66.188.253-.638Z" fill="#e0e0e0"/>
            <path id="Trazado_230379" data-name="Trazado 230379" d="M116.713,402.514l.437.027.271-.344.109.424.411.151-.37.235-.016.437-.338-.279-.421.12.161-.407Z" fill="#e0e0e0"/>
            <path id="Trazado_230380" data-name="Trazado 230380" d="M133.893,403.445c0,.044-3.736-.079-8.34-.276s-8.335-.393-8.333-.438,3.735.079,8.34.277,8.335.393,8.333.437" fill="#e0e0e0"/>
            <path id="Trazado_230381" data-name="Trazado 230381" d="M138.088,399.6H27.314c-1.452-3.292-1.807-6.419,0-9.221H138.088a10.688,10.688,0,0,1,0,9.221" fill="#e0e0e0"/>
            <rect id="Rectángulo_50778" data-name="Rectángulo 50778" width="60.014" height="3.356" transform="translate(50.251 393.009)" fill="#ebebeb"/>
            <path id="Trazado_230382" data-name="Trazado 230382" d="M31.565,399.645a3.234,3.234,0,0,1-.875-1.115,8.145,8.145,0,0,1-.587-6.672,3.218,3.218,0,0,1,.667-1.25,10.515,10.515,0,0,1-.4,1.336,9.318,9.318,0,0,0,.568,6.454,10.713,10.713,0,0,1,.622,1.247" fill="#e0e0e0"/>
            <path id="Trazado_230383" data-name="Trazado 230383" d="M33.962,399.645a3.234,3.234,0,0,1-.875-1.115,8.139,8.139,0,0,1-.586-6.672,3.21,3.21,0,0,1,.666-1.25,10.514,10.514,0,0,1-.4,1.336,9.318,9.318,0,0,0,.568,6.454,10.515,10.515,0,0,1,.622,1.247" fill="#e0e0e0"/>
            <path id="Trazado_230384" data-name="Trazado 230384" d="M133.606,399.43a13.9,13.9,0,0,0,.052-9.025,9.378,9.378,0,0,1-.052,9.025" fill="#f5f5f5"/>
            <path id="Trazado_230385" data-name="Trazado 230385" d="M131.544,399.408c-.121-.028.345-1.974.333-4.415.006-2.442-.466-4.386-.345-4.415a13.506,13.506,0,0,1,.012,8.83" fill="#f5f5f5"/>
          </g>
        </g>
        <g id="Grupo_115559" data-name="Grupo 115559">
          <g id="Grupo_115558" data-name="Grupo 115558" clip-path="url(#clip-path)">
            <path id="Trazado_230386" data-name="Trazado 230386" d="M365.452,393.939S341.164,365.985,332,338.031s-4.812-24.746-4.812-24.746,12.373,27.155,21.767,40.271,26.121,32.363,26.121,32.363Z" fill="#455a64"/>
            <path id="Trazado_230387" data-name="Trazado 230387" d="M370.293,317.64a1.415,1.415,0,0,0-2.634.9c1.48,9.819,4.681,32.862,4.556,47.807-.164,19.414.006,26.919.006,26.919H382.33s-1.795-40.134-4.079-52.371c-1.6-8.58-5-18.1-7.958-23.255" fill="#455a64"/>
            <path id="Trazado_230388" data-name="Trazado 230388" d="M375.8,390a107.03,107.03,0,0,0,8.32-30.182c.833-7.147-.652-16.8-2.861-29.693a79.868,79.868,0,0,1-1.278-14.288,2.412,2.412,0,0,1,4.528-1.131c1.22,2.178,4.751,9.615,5.648,14.277,2.447,12.725,5.221,19.088,3.1,31.161s-9.952,30.672-9.952,30.672Z" fill="#455a64"/>
            <path id="Trazado_230389" data-name="Trazado 230389" d="M384.909,390.818s26.667-57.308,28.515-65.81,8.133-28.094,8.872-26.985,1.848,11.459-2.957,23.288-25.324,71.253-25.324,71.253h-9.106" fill="#455a64"/>
            <path id="Trazado_230390" data-name="Trazado 230390" d="M372.884,388.254a5.271,5.271,0,0,1-.747-.513c-.474-.359-1.192-.863-2.066-1.577a94.479,94.479,0,0,1-7.167-6.327,120.275,120.275,0,0,1-19.347-24.831A162.716,162.716,0,0,1,330.351,326.4c-1.341-3.806-2.32-6.922-2.954-9.086-.326-1.08-.551-1.927-.708-2.5a5.36,5.36,0,0,1-.207-.883,5.382,5.382,0,0,1,.317.851q.3.92.809,2.466c.7,2.142,1.735,5.234,3.122,9.015a173,173,0,0,0,13.317,28.453,125.5,125.5,0,0,0,19.14,24.835c2.854,2.837,5.3,5,7.024,6.442.851.739,1.546,1.27,2,1.658a5.434,5.434,0,0,1,.677.6" fill="#263238"/>
            <path id="Trazado_230391" data-name="Trazado 230391" d="M375.8,360.761a9.513,9.513,0,0,1-.239-1.682c-.128-1.186-.293-2.732-.493-4.594-.422-3.876-1.08-9.223-2.023-15.1s-2-11.159-2.81-14.973c-.395-1.83-.723-3.35-.974-4.516a9.663,9.663,0,0,1-.3-1.672,9.7,9.7,0,0,1,.514,1.619c.3,1.05.694,2.581,1.151,4.48.917,3.8,2.031,9.083,2.98,14.972s1.542,11.256,1.862,15.149c.162,1.946.266,3.524.313,4.615a9.956,9.956,0,0,1,.018,1.7" fill="#263238"/>
            <path id="Trazado_230392" data-name="Trazado 230392" d="M382.048,314.26a4.2,4.2,0,0,1,.315.728c.2.54.468,1.247.8,2.129.353.923.758,2.062,1.144,3.412s.911,2.863,1.3,4.589q.316,1.29.66,2.695c.224.938.383,1.93.587,2.949.436,2.035.7,4.241,1.028,6.557a97.915,97.915,0,0,1-1.085,30.294c-.489,2.287-.915,4.468-1.495,6.467-.277,1-.506,1.98-.8,2.9l-.852,2.641c-.508,1.694-1.129,3.17-1.621,4.484s-.968,2.425-1.386,3.321c-.393.856-.709,1.542-.949,2.066a4.1,4.1,0,0,1-.366.7,4.106,4.106,0,0,1,.261-.75c.215-.534.5-1.233.85-2.106.386-.906.84-2.022,1.292-3.347s1.054-2.8,1.536-4.495q.39-1.265.813-2.64c.279-.919.5-1.9.762-2.9.557-1.994.964-4.168,1.436-6.446a101.179,101.179,0,0,0,1.08-30.135c-.308-2.3-.558-4.5-.971-6.532-.193-1.016-.34-2.006-.552-2.942s-.424-1.833-.622-2.692c-.359-1.725-.844-3.243-1.211-4.593s-.729-2.5-1.049-3.432c-.289-.9-.52-1.614-.7-2.161a4.178,4.178,0,0,1-.207-.768" fill="#263238"/>
            <path id="Trazado_230393" data-name="Trazado 230393" d="M421.991,299.175a.876.876,0,0,1-.021.257c-.032.2-.071.446-.118.745-.118.652-.265,1.62-.526,2.852-.515,2.465-1.373,6.013-2.707,10.317s-3.15,9.354-5.31,14.9-4.652,11.592-7.02,18.027c-2.4,6.424-4.255,12.694-6,18.384-1.724,5.694-3.36,10.8-4.941,15.025a96.251,96.251,0,0,1-4.21,9.8c-.546,1.135-1.038,1.982-1.355,2.564-.149.263-.272.478-.373.655-.087.147-.135.219-.144.214a.878.878,0,0,1,.093-.241c.087-.184.193-.408.323-.681.283-.6.742-1.46,1.256-2.608,1.074-2.271,2.519-5.611,4.032-9.842,1.528-4.226,3.121-9.336,4.817-15.038,1.712-5.694,3.553-11.986,5.964-18.429,2.373-6.45,4.889-12.489,7.065-18.022s4.041-10.55,5.415-14.828,2.294-7.8,2.874-10.244c.294-1.222.476-2.181.63-2.826l.174-.733a.866.866,0,0,1,.078-.247" fill="#263238"/>
            <path id="Trazado_230394" data-name="Trazado 230394" d="M339.76,286.516a2.3,2.3,0,0,0-3.78,2.341,65.7,65.7,0,0,0,3.351,8.617c3.666,7.79,14.435,35.745,19.476,51.1s12.144,43.994,12.144,43.994l10.765-1.746s-9.848-47.059-19.472-64.015c-7.732-13.624-15.465-33.313-22.484-40.287" fill="#455a64"/>
            <path id="Trazado_230395" data-name="Trazado 230395" d="M361.754,358.172a6.674,6.674,0,0,1,.555,1.29c.318.844.752,2.077,1.241,3.614.991,3.071,2.2,7.36,3.427,12.125s2.234,9.1,2.942,12.247c.323,1.487.594,2.737.81,3.73a6.636,6.636,0,0,1,.223,1.386,6.6,6.6,0,0,1-.438-1.334c-.263-.982-.593-2.217-.986-3.687-.823-3.238-1.906-7.494-3.1-12.2-1.221-4.759-2.37-9.056-3.261-12.149l-1.066-3.661a6.71,6.71,0,0,1-.344-1.36" fill="#263238"/>
            <path id="Trazado_230396" data-name="Trazado 230396" d="M376.359,391.691a1.13,1.13,0,0,1-.061-.287c-.032-.224-.072-.5-.122-.848-.113-.744-.214-1.849-.441-3.259-.395-2.828-1.1-6.9-2.257-11.874a170.041,170.041,0,0,0-5.038-17.2c-2.208-6.378-4.978-13.269-8.116-20.4-6.333-14.246-12.659-26.882-16.817-36.226-2.1-4.661-3.728-8.466-4.8-11.117-.547-1.321-.937-2.36-1.21-3.062l-.3-.8a1.156,1.156,0,0,1-.084-.281,1.108,1.108,0,0,1,.138.259c.092.206.208.463.351.781.317.73.754,1.739,1.308,3.019,1.134,2.623,2.815,6.4,4.962,11.036,4.247,9.293,10.628,21.9,16.971,36.164,3.143,7.142,5.9,14.055,8.091,20.458a161.762,161.762,0,0,1,4.935,17.279,120.386,120.386,0,0,1,2.084,11.934c.194,1.418.259,2.529.335,3.277.027.348.049.629.066.854a1.09,1.09,0,0,1,0,.293" fill="#263238"/>
            <path id="Trazado_230397" data-name="Trazado 230397" d="M381.716,390.818a11.494,11.494,0,0,1-.363-1.809c-.214-1.264-.5-2.932-.838-4.949-.742-4.17-1.874-9.915-3.5-16.167-1.612-6.259-3.428-11.826-4.826-15.824-.686-1.927-1.253-3.521-1.683-4.728a11.559,11.559,0,0,1-.573-1.754,11.275,11.275,0,0,1,.779,1.673c.464,1.092,1.112,2.683,1.856,4.671a156.415,156.415,0,0,1,5,15.819,164.189,164.189,0,0,1,3.349,16.245c.307,2.1.541,3.8.661,4.983a11.433,11.433,0,0,1,.143,1.84" fill="#263238"/>
            <rect id="Rectángulo_50780" data-name="Rectángulo 50780" width="42.018" height="51.193" transform="translate(361.792 389.272)" fill="#4dd0e1"/>
            <g id="Grupo_115557" data-name="Grupo 115557" opacity="0.3">
              <g id="Grupo_115556" data-name="Grupo 115556">
                <g id="Grupo_115555" data-name="Grupo 115555" clip-path="url(#clip-path-4)">
                  <rect id="Rectángulo_50781" data-name="Rectángulo 50781" width="42.018" height="51.193" transform="translate(361.792 389.272)"/>
                </g>
              </g>
            </g>
            <rect id="Rectángulo_50783" data-name="Rectángulo 50783" width="37.278" height="51.193" transform="translate(353.129 389.272)" fill="#4dd0e1"/>
          </g>
        </g>
        <g id="Grupo_115570" data-name="Grupo 115570">
          <g id="Grupo_115569" data-name="Grupo 115569" clip-path="url(#clip-path)">
            <path id="Trazado_230398" data-name="Trazado 230398" d="M123.5,224.51l.028-.015c-.013-.044-.021-.028-.028.015" fill="#4dd0e1"/>
            <path id="Trazado_230399" data-name="Trazado 230399" d="M320.724,363.927c-.326-7.183-11.109-103.836-12.734-116.245-2.6-19.818-18.541-24.79-18.543-24.791l-54.189-18.7H181.64l-58.11,20.3-.028.987a9.262,9.262,0,0,1,0-.971c-.579.322-14.886,4.387-18.309,18.48-1.871,7.7-23.7,116.934-24.025,120.143s2.567,22.786,17.971,25.353c5.773.963,18.258.077,31.613-1.407L120.32,440.642H288.759l-5.954-38.27c13.4-5.216,27.416-11.051,29.756-13.483,4.571-4.754,8.49-17.778,8.163-24.962M130.178,336.406h0Z" fill="#4dd0e1"/>
            <g id="Grupo_115562" data-name="Grupo 115562" opacity="0.3">
              <g id="Grupo_115561" data-name="Grupo 115561">
                <g id="Grupo_115560" data-name="Grupo 115560" clip-path="url(#clip-path-6)">
                  <path id="Trazado_230400" data-name="Trazado 230400" d="M174.218,352.571a30.422,30.422,0,0,0-2.481-9.987c-1.522-3.093-4.152-5.8-7.49-6.662s-7.335.532-8.815,3.646c-6.079,17.057-.551,26.661,11.041,35.877,1.837,1.461,4.109,2.609,6.356,1.931,2.211-.666,2.664-2.287,2.766-4.6.3-6.826-.583-13.424-1.377-20.21"/>
                </g>
              </g>
            </g>
            <path id="Trazado_230401" data-name="Trazado 230401" d="M247.267,272.873" fill="#ebebeb"/>
            <path id="Trazado_230402" data-name="Trazado 230402" d="M247.267,272.873" fill="#ebebeb"/>
            <path id="Trazado_230403" data-name="Trazado 230403" d="M150.484,333.2a5.259,5.259,0,0,1-1.1.179l-3.052.323c-2.6.255-6.237.582-10.388.929l.125-.044c-.947.659-1.927,1.343-2.914,2.063a53.371,53.371,0,0,0-9.558,8.471,27.836,27.836,0,0,0-2.269,3.136,8.659,8.659,0,0,1-.746,1.218,6.649,6.649,0,0,1,.57-1.318,22.441,22.441,0,0,1,2.159-3.269,48.5,48.5,0,0,1,9.538-8.659c.991-.724,1.978-1.407,2.931-2.063l.056-.039.067-.005c4.153-.323,7.8-.585,10.4-.751l3.065-.171a5.252,5.252,0,0,1,1.116,0" fill="#263238"/>
            <path id="Trazado_230404" data-name="Trazado 230404" d="M176.687,351.921a1.349,1.349,0,0,1,.083.3c.049.23.112.525.192.9.144.791.351,1.96.529,3.477a113.118,113.118,0,0,1,.7,12.913q.011,2.048-.034,4.286a6.313,6.313,0,0,1-1.506,4.423,6.806,6.806,0,0,1-4.473,2.241l-5.191.9c-7.1,1.249-14.89,2.753-23.114,4.077s-16.115,2.271-23.306,2.9c-7.178.674-13.694,1.138-19.164.74a27.277,27.277,0,0,1-3.878-.537,10.955,10.955,0,0,1-3.243-1.326,25.439,25.439,0,0,1-4.353-3.485c-1.1-1.066-1.9-1.934-2.449-2.524l-.612-.679a1.429,1.429,0,0,1-.2-.244,1.365,1.365,0,0,1,.234.207l.65.643c.569.566,1.4,1.411,2.513,2.449a26.023,26.023,0,0,0,4.361,3.383,10.758,10.758,0,0,0,3.169,1.253,27.25,27.25,0,0,0,3.83.493c5.43.348,11.921-.151,19.1-.851,7.18-.655,15.052-1.6,23.267-2.937s16-2.812,23.113-4.036l5.2-.881a6.371,6.371,0,0,0,4.223-2.073,5.9,5.9,0,0,0,1.429-4.149q.063-2.23.067-4.277a124.8,124.8,0,0,0-.53-12.89c-.147-1.517-.321-2.688-.432-3.482l-.14-.9a1.394,1.394,0,0,1-.031-.311" fill="#263238"/>
            <path id="Trazado_230405" data-name="Trazado 230405" d="M142.162,270.9c.143.014-1.138,14.236-2.86,31.761s-3.236,31.726-3.379,31.712,1.137-14.232,2.861-31.763,3.235-31.724,3.378-31.71" fill="#263238"/>
            <path id="Trazado_230406" data-name="Trazado 230406" d="M280.319,258.524a.851.851,0,0,1,.015.244c0,.19-.006.422-.009.709q-.032,1-.085,2.726c-.079,2.367-.238,5.791-.462,10.02-.446,8.459-1.254,20.134-2.249,33.017s-1.861,24.554-2.4,33c-.263,4.192-.476,7.6-.628,10.009q-.114,1.721-.182,2.72c-.024.285-.044.517-.06.707a.891.891,0,0,1-.038.241.852.852,0,0,1-.015-.243c0-.191.005-.424.009-.709q.03-1,.084-2.726c.079-2.368.239-5.791.462-10.021.447-8.459,1.254-20.134,2.25-33.021s1.86-24.549,2.4-33c.263-4.191.477-7.6.628-10.008.077-1.147.138-2.056.182-2.722.025-.283.044-.517.061-.707a.841.841,0,0,1,.038-.24" fill="#263238"/>
            <path id="Trazado_230407" data-name="Trazado 230407" d="M315.719,362.226a40,40,0,0,0-3.111-4.42,24.373,24.373,0,0,0-10.613-7.224,43.333,43.333,0,0,0-6.977-1.628,15.325,15.325,0,0,0-9.478,1.548,9.838,9.838,0,0,1-1.306.648c-.009-.015.092-.1.3-.238s.5-.359.914-.588a14.661,14.661,0,0,1,3.7-1.535,16.131,16.131,0,0,1,5.934-.311,40.8,40.8,0,0,1,7.085,1.611,23.693,23.693,0,0,1,10.73,7.481,21.429,21.429,0,0,1,2.223,3.322,6.882,6.882,0,0,1,.6,1.334" fill="#263238"/>
            <path id="Trazado_230408" data-name="Trazado 230408" d="M287.492,400.53a3.113,3.113,0,0,1-.585.3l-1.716.77c-1.495.659-3.657,1.614-6.349,2.754a62.932,62.932,0,0,1-9.7,3.413,14.611,14.611,0,0,1-6.115.175,11.834,11.834,0,0,1-5.721-3.207,16.228,16.228,0,0,1-3.545-5.526,37.479,37.479,0,0,1-1.887-5.792,85.226,85.226,0,0,1-1.8-10.122c-.353-2.9-.552-5.26-.688-6.888-.057-.771-.1-1.393-.14-1.876a3.076,3.076,0,0,1-.014-.658,3.1,3.1,0,0,1,.118.647c.062.481.14,1.1.238,1.867.2,1.621.452,3.971.852,6.861a91.361,91.361,0,0,0,1.9,10.051,37.759,37.759,0,0,0,1.891,5.709,15.864,15.864,0,0,0,3.434,5.348,11.391,11.391,0,0,0,5.473,3.088,14.251,14.251,0,0,0,5.9-.146,66.4,66.4,0,0,0,9.666-3.285l6.41-2.6,1.755-.68a3.043,3.043,0,0,1,.625-.2" fill="#263238"/>
            <g id="Grupo_115565" data-name="Grupo 115565" opacity="0.3">
              <g id="Grupo_115564" data-name="Grupo 115564">
                <g id="Grupo_115563" data-name="Grupo 115563" clip-path="url(#clip-path-7)">
                  <path id="Trazado_230409" data-name="Trazado 230409" d="M176.795,377.754c-1.494,2.084-4.666,2.511-7.195,2.94-13.375,2.269-25.45,4.436-38.959,5.9l-1.72,8.845c13.68-2.2,27.754-5.077,40.669-10.1a16.18,16.18,0,0,0,4.925-2.668,6.135,6.135,0,0,0,2.28-4.925"/>
                </g>
              </g>
            </g>
            <g id="Grupo_115568" data-name="Grupo 115568" opacity="0.3">
              <g id="Grupo_115567" data-name="Grupo 115567">
                <g id="Grupo_115566" data-name="Grupo 115566" clip-path="url(#clip-path-8)">
                  <path id="Trazado_230410" data-name="Trazado 230410" d="M254.279,376.79a50.428,50.428,0,0,0,6.179,20.9c.833,1.434,2.094,3.01,3.743,2.826,1.275-.142,2.165-1.3,2.84-2.389,2.586-4.175,4.938-8.152,5.74-13l-12.77-5.089Z"/>
                </g>
              </g>
            </g>
            <path id="Trazado_230411" data-name="Trazado 230411" d="M226.436,375.293c.088.114-9.623,7.739-21.686,17.028s-21.919,16.731-22.007,16.617,9.621-7.737,21.689-17.03,21.916-16.729,22-16.615" fill="#263238"/>
            <path id="Trazado_230412" data-name="Trazado 230412" d="M279.6,357.643a10.117,10.117,0,0,1,.14,1.664,18.016,18.016,0,0,1-.021,1.96c-.007.766-.1,1.632-.208,2.588a66.944,66.944,0,0,1-3.614,14.554A78.987,78.987,0,0,1,269.545,392a40.624,40.624,0,0,1-2.536,3.779,10.117,10.117,0,0,1-1.079,1.274,10.38,10.38,0,0,1,.914-1.393c.6-.885,1.445-2.181,2.383-3.846a89.457,89.457,0,0,0,6.175-13.582,74.245,74.245,0,0,0,3.739-14.424c.13-.946.248-1.8.283-2.56s.128-1.408.108-1.941a10.31,10.31,0,0,1,.063-1.665" fill="#263238"/>
            <path id="Trazado_230413" data-name="Trazado 230413" d="M204.884,324.476s-14.842-23.712-26.491-19.052c0,0-5.922-4.854-9.708-1.747s-2.427,9.416-2.427,9.416-7.184-5.824-10.387-2.815-.874,8.155,0,10.679a46.379,46.379,0,0,1,1.359,7.863s-4.369-2.233-6.407,1.359,5.727,15.63,6.892,17.28,8.64,9.029,13.785,7.087,8.738-7.087,8.738-7.087Z" fill="#ffbe9d"/>
            <path id="Trazado_230414" data-name="Trazado 230414" d="M166.249,314a9.3,9.3,0,0,1,1.344.838l3.551,2.443,5.229,3.681a7.852,7.852,0,0,1,1.423,1.263,3.165,3.165,0,0,1,.791,1.894,3.868,3.868,0,0,1-2.263,3.443A6.51,6.51,0,0,1,172.2,328a14.027,14.027,0,0,1-3.587-1.345c-2.148-1.106-4.025-2.2-5.575-3.158s-2.768-1.795-3.6-2.388a8.425,8.425,0,0,1-1.248-.976,10.35,10.35,0,0,1,1.361.808c.861.54,2.106,1.322,3.673,2.24s3.458,1.971,5.6,3.044A13.842,13.842,0,0,0,172.3,327.5a6.053,6.053,0,0,0,3.8-.4,3.378,3.378,0,0,0,1.985-2.956c-.044-1.219-1.06-2.1-1.989-2.791l-5.159-3.769-3.455-2.577a9.184,9.184,0,0,1-1.225-1" fill="#eb996e"/>
            <path id="Trazado_230415" data-name="Trazado 230415" d="M166.444,313.279a2.073,2.073,0,0,1,.442.294l1.21.914c1.048.8,2.558,1.955,4.483,3.3a30.547,30.547,0,0,0,7.17,3.945,17.8,17.8,0,0,0,4.686,1.042,10.12,10.12,0,0,0,5-.676,4.033,4.033,0,0,0,1.791-1.684,2.979,2.979,0,0,0,.2-2.312,11.64,11.64,0,0,0-2.672-3.9,54.809,54.809,0,0,0-6.137-5.478c-1.852-1.445-3.4-2.548-4.479-3.3l-1.242-.868a1.952,1.952,0,0,1-.417-.329,2.051,2.051,0,0,1,.474.241c.3.17.739.438,1.3.787,1.114.7,2.7,1.766,4.591,3.18a51.314,51.314,0,0,1,6.262,5.441c.534.575,1.071,1.176,1.574,1.833a7.356,7.356,0,0,1,1.238,2.252,3.5,3.5,0,0,1-.234,2.7,4.536,4.536,0,0,1-2.017,1.908,10.5,10.5,0,0,1-5.271.719,18.032,18.032,0,0,1-4.811-1.1,29.764,29.764,0,0,1-7.219-4.1c-1.907-1.391-3.385-2.6-4.4-3.442l-1.149-.992a2.026,2.026,0,0,1-.376-.375" fill="#eb996e"/>
            <path id="Trazado_230416" data-name="Trazado 230416" d="M156.561,328.783,167,333.794c1.186.57,2.556,1.426,2.509,2.741a2.705,2.705,0,0,1-.761,1.611,8.487,8.487,0,0,1-6.935,2.506,25.137,25.137,0,0,1-7.348-1.975" fill="#ffbe9d"/>
            <path id="Trazado_230417" data-name="Trazado 230417" d="M154.463,338.677c.034-.1,1.731.619,4.567,1.341a12.812,12.812,0,0,0,5.049.283,8.458,8.458,0,0,0,2.793-.966,5.585,5.585,0,0,0,2.206-2.148,1.586,1.586,0,0,0,.013-1.39,2.982,2.982,0,0,0-1-1.082,22.4,22.4,0,0,0-2.665-1.408l-4.646-2.292-3.113-1.587a6.019,6.019,0,0,1-1.11-.645,6.049,6.049,0,0,1,1.2.463l3.184,1.437,4.7,2.192a21.379,21.379,0,0,1,2.752,1.424,3.462,3.462,0,0,1,1.169,1.275,2.112,2.112,0,0,1-.007,1.83,7.279,7.279,0,0,1-5.4,3.371,12.7,12.7,0,0,1-5.216-.4,27.807,27.807,0,0,1-3.314-1.152,5.84,5.84,0,0,1-1.163-.547" fill="#eb996e"/>
            <path id="Trazado_230418" data-name="Trazado 230418" d="M172.829,353.954,157.1,365.819s-7.626-10.624-2.561-23.512h3.787l-.861,4.227,7.168,1.5Z" fill="#ffbe9d"/>
            <path id="Trazado_230419" data-name="Trazado 230419" d="M154.207,342.024l5.778,7.525a12.08,12.08,0,0,0,2.244,2.428,4.079,4.079,0,0,0,3.1.877" fill="#ffbe9d"/>
            <path id="Trazado_230420" data-name="Trazado 230420" d="M165.331,352.855a2.794,2.794,0,0,1-2.37-.215,6.455,6.455,0,0,1-2.082-1.6c-.663-.731-1.286-1.585-1.97-2.462-1.356-1.766-2.56-3.382-3.411-4.568a10.73,10.73,0,0,1-1.291-1.984,10.68,10.68,0,0,1,1.583,1.76c.926,1.128,2.176,2.709,3.532,4.474.683.878,1.3,1.746,1.916,2.461a6.627,6.627,0,0,0,1.885,1.59,5.2,5.2,0,0,0,2.208.545" fill="#eb996e"/>
            <path id="Trazado_230421" data-name="Trazado 230421" d="M158.726,343.709l19.257-18.419a9.765,9.765,0,0,1,7.037-2.705l98.814,2.887A2.073,2.073,0,0,1,285,329.214L257.248,349.6a2.631,2.631,0,0,1-1.672.508l-96.012-4.168a1.294,1.294,0,0,1-.838-2.228" fill="#e0e0e0"/>
            <path id="Trazado_230422" data-name="Trazado 230422" d="M285.806,327.955a1.684,1.684,0,0,1-.348.017l-1.017,0-3.91-.062-14.376-.326-47.424-1.27-26.11-.762-5.863-.177a21.4,21.4,0,0,0-2.774,0,6.964,6.964,0,0,0-2.5.805,9.428,9.428,0,0,0-2.024,1.583l-1.864,1.719-3.5,3.229-10.6,9.72-2.9,2.623-.763.673a1.811,1.811,0,0,1-.272.216,1.7,1.7,0,0,1,.236-.255l.727-.711,2.833-2.7,10.484-9.841,3.481-3.254,1.853-1.729a9.766,9.766,0,0,1,2.1-1.656,7.4,7.4,0,0,1,2.65-.869,21.54,21.54,0,0,1,2.84-.013l5.864.155,26.112.721,47.42,1.423,14.373.491,3.906.16,1.016.055a1.731,1.731,0,0,1,.346.036" fill="#263238"/>
            <path id="Trazado_230423" data-name="Trazado 230423" d="M305.393,275.987c.127.068-4.8,9.576-10.995,21.234s-11.329,21.06-11.456,20.992,4.8-9.573,11-21.236,11.328-21.058,11.455-20.99" fill="#fff"/>
            <path id="Trazado_230424" data-name="Trazado 230424" d="M269.2,274.026c.14.035-1.836,8.531-4.411,18.975s-4.778,18.886-4.918,18.851,1.835-8.529,4.412-18.976,4.777-18.884,4.917-18.85" fill="#fff"/>
            <path id="Trazado_230425" data-name="Trazado 230425" d="M118.009,289.566c.108-.1,6.155,6.643,13.5,15.048s13.222,15.3,13.113,15.392-6.153-6.642-13.505-15.049-13.22-15.3-13.112-15.391" fill="#fff"/>
            <path id="Trazado_230426" data-name="Trazado 230426" d="M141.874,256.126c.138-.04,3.3,10.4,7.057,23.311s6.7,23.418,6.557,23.459-3.3-10.4-7.057-23.314-6.7-23.416-6.557-23.456" fill="#fff"/>
            <path id="Trazado_230427" data-name="Trazado 230427" d="M239.62,244.686a3.619,3.619,0,0,1,.045.709c.008.516.017,1.19.029,2.031,0,1.823,0,4.36.007,7.468-.044,6.359-.1,15.044-.171,24.639-.126,9.6-.24,18.284-.324,24.642-.065,3.109-.119,5.645-.158,7.468-.028.84-.051,1.514-.069,2.03a3.616,3.616,0,0,1-.059.708,3.65,3.65,0,0,1-.046-.708c-.007-.516-.016-1.19-.028-2.03,0-1.824,0-4.36-.008-7.468.044-6.359.1-15.046.171-24.645.127-9.6.241-18.28.324-24.639.066-3.108.12-5.644.158-7.467.029-.84.052-1.514.069-2.03a3.64,3.64,0,0,1,.06-.708" fill="#fff"/>
            <path id="Trazado_230428" data-name="Trazado 230428" d="M273.373,122.536c-3.732-4-8.251-7.769-9.556-13.079-1.2-4.882.523-10.475-2.06-14.787-3.18-5.307-11.112-5.747-14.934-10.612-1.85-2.355-2.5-5.478-4.326-7.849-3.118-4.041-8.918-4.951-13.973-4.245s-9.881,2.687-14.958,3.208c-6.966.714-14.245-1.329-20.885.894-7.326,2.453-11.637,9.146-16.242,15.639L170.4,99.258a27.541,27.541,0,0,1-4.07,3.527c-2.583,1.793-5.565,3.07-7.763,5.319-4.7,4.813-4,13.756,1.391,17.778a13.22,13.22,0,0,0-8.484,13.251c.28,3.094,1.661,5.96,2.687,8.892s1.692,6.212.547,9.1-4.72,4.958-7.474,3.522a13.911,13.911,0,0,0,7.883,9.015,8.313,8.313,0,0,1-5.508,2.667c6.1,13.112,21.739,19.591,36.195,19.182s28.107-6.354,41.335-12.2l38.576-11.427c3.391-.9,4.673-5.1,4.506-8.6s-1.18-7.122-.039-10.438c1.564-4.548,6.7-7.107,8.349-11.626,1.871-5.138-1.43-10.685-5.162-14.681" fill="#263238"/>
            <path id="Trazado_230429" data-name="Trazado 230429" d="M182.5,161.15c-3.116-8.7-6.2-17.464-7.772-26.57s-1.58-18.644,1.38-27.4c.449-1.327,4.345-10.256,5.743-10.16,1,.069-1.319,8.359-.79,9.209,5.052,8.11,6.654,18,6.17,27.538a125.147,125.147,0,0,1-4.731,27.38" fill="#263238"/>
            <path id="Trazado_230430" data-name="Trazado 230430" d="M216.661,81.945l-2.145-.05c-23.159.8-35.418,20.916-33.977,44.045l.66,79.758a27.127,27.127,0,0,0,54.242.544c.119-4.192.216-7.124.232-7.125,0,0,22.315-2.928,23.119-25.15.388-10.735-.612-32.907-1.749-52.96a41.428,41.428,0,0,0-40.382-39.062" fill="#ffbe9d"/>
            <path id="Trazado_230431" data-name="Trazado 230431" d="M235.673,199.117s-14.031.489-28.74-9.246c0,0,6.316,16.543,28.545,15.069Z" fill="#eb996e"/>
            <path id="Trazado_230432" data-name="Trazado 230432" d="M247.248,141.528a3.174,3.174,0,0,1-3.137,3.13,3.036,3.036,0,0,1-3.2-2.94,3.175,3.175,0,0,1,3.133-3.132,3.04,3.04,0,0,1,3.208,2.942" fill="#263238"/>
            <path id="Trazado_230433" data-name="Trazado 230433" d="M252.072,130.12c-.4.4-2.766-1.433-6.183-1.5-3.411-.121-5.96,1.577-6.32,1.149-.178-.189.241-.927,1.351-1.7a8.712,8.712,0,0,1,5.073-1.432,8.374,8.374,0,0,1,4.908,1.714c1.031.832,1.37,1.589,1.171,1.77" fill="#263238"/>
            <path id="Trazado_230434" data-name="Trazado 230434" d="M216.327,141.528a3.174,3.174,0,0,1-3.137,3.13,3.037,3.037,0,0,1-3.2-2.94,3.177,3.177,0,0,1,3.134-3.132,3.039,3.039,0,0,1,3.207,2.942" fill="#263238"/>
            <path id="Trazado_230435" data-name="Trazado 230435" d="M218.578,130.706c-.4.4-2.77-1.432-6.184-1.5-3.41-.121-5.96,1.577-6.321,1.15-.176-.19.238-.927,1.353-1.7a8.714,8.714,0,0,1,5.072-1.433,8.38,8.38,0,0,1,4.909,1.715c1.028.831,1.368,1.589,1.171,1.769" fill="#263238"/>
            <path id="Trazado_230436" data-name="Trazado 230436" d="M230.207,157.246c-.011-.194,2.121-.51,5.572-.868.875-.069,1.7-.223,1.866-.815a4.45,4.45,0,0,0-.521-2.6q-1.155-3.194-2.422-6.7c-3.357-9.543-5.765-17.379-5.38-17.512s3.42,7.5,6.777,17.038c.807,2.354,1.579,4.6,2.312,6.741a5.052,5.052,0,0,1,.371,3.435,2.189,2.189,0,0,1-1.464,1.241,5.867,5.867,0,0,1-1.487.17c-3.467.105-5.615.068-5.624-.126" fill="#263238"/>
            <path id="Trazado_230437" data-name="Trazado 230437" d="M220.1,159.37c.557-.019.475,3.689,3.587,6.4s7.067,2.394,7.084,2.913c.046.233-.9.7-2.567.705a9.239,9.239,0,0,1-5.919-2.222,8.044,8.044,0,0,1-2.769-5.357c-.1-1.554.331-2.463.584-2.435" fill="#263238"/>
            <path id="Trazado_230438" data-name="Trazado 230438" d="M218.719,116.839c-.359.921-3.759.4-7.778.787-4.028.307-7.288,1.4-7.8.558-.228-.4.357-1.264,1.684-2.133a13.6,13.6,0,0,1,11.868-1.024c1.457.627,2.181,1.375,2.025,1.812" fill="#263238"/>
            <path id="Trazado_230439" data-name="Trazado 230439" d="M250.93,118.731c-.619.761-2.953-.1-5.782-.205-2.825-.205-5.239.4-5.771-.428-.232-.4.163-1.168,1.228-1.877a8.375,8.375,0,0,1,9.309.51c.981.821,1.29,1.628,1.016,2" fill="#263238"/>
            <path id="Trazado_230440" data-name="Trazado 230440" d="M181.963,142.443c-.375-.173-15.167-4.881-15.043,10.328s15.368,11.947,15.391,11.511-.348-21.839-.348-21.839" fill="#ffbe9d"/>
            <path id="Trazado_230441" data-name="Trazado 230441" d="M177.618,158.558c-.068-.048-.264.187-.71.4a2.647,2.647,0,0,1-1.98.057c-1.611-.577-2.985-3.116-3.081-5.857a8.74,8.74,0,0,1,.711-3.8,3.062,3.062,0,0,1,1.976-2.051,1.35,1.35,0,0,1,1.57.714c.207.423.113.728.194.753.043.038.324-.257.2-.884a1.684,1.684,0,0,0-.606-.948,2,2,0,0,0-1.468-.376,3.727,3.727,0,0,0-2.749,2.381,8.993,8.993,0,0,0-.884,4.247c.123,3.063,1.715,5.919,3.919,6.536a2.838,2.838,0,0,0,2.42-.422c.468-.38.545-.72.492-.747" fill="#eb996e"/>
            <path id="Trazado_230442" data-name="Trazado 230442" d="M246.777,95.981c2.438-1.4-5.083-9.245-11.178-11.886-9.211-3.993-23.213-6.31-31.6-3.777-10.1,3.05-18.443,8.241-23.381,17.564s-6.671,20.115-6.2,30.653c.145,3.216.535,6.563,2.3,9.255,2.181,3.326,6.293,5.374,6.193,10.015a6.366,6.366,0,0,0,1.658,4.616c2.832,2.913,6.189.074,7.707-2.741,3.242-6.013,3.493-13.131,3.672-19.959.126-4.854.239-9.812-1.208-14.446-.786-2.523-2.022-4.9-2.668-7.459s-.618-5.483.948-7.611a9.492,9.492,0,0,1,1.215-1.27,15.859,15.859,0,0,1,15.683-3.262c8.614,2.884,23.316,7.161,27.086,4.19,5.424-4.274,6.692-7.023,6.692-7.023Z" fill="#263238"/>
            <path id="Trazado_230443" data-name="Trazado 230443" d="M204.757,78.241c8.309-2.936,17.825-2.951,25.715.973,4.188,2.084,8,5.462,9.339,9.944s-.485,10.054-4.787,11.892l-.295.192c-6.451,2.294-10.683,1.5-17.19-.633-5.474-1.792-10.373-5.069-15.856-6.834a30.906,30.906,0,0,0-18.1-.22c5.7-6.716,12.864-12.378,21.172-15.314" fill="#263238"/>
            <path id="Trazado_230444" data-name="Trazado 230444" d="M169.283,143.581a6.494,6.494,0,0,1-.757-.883,12.21,12.21,0,0,1-1.611-2.924,12.942,12.942,0,0,1-.879-5.206,12.764,12.764,0,0,1,2.209-6.616,13.16,13.16,0,0,1,2.8-2.994,14.433,14.433,0,0,1,3.9-2.115c2.84-1.1,6.138-1.672,8.838-3.712a7.4,7.4,0,0,0,2.81-4.119,17.117,17.117,0,0,0,.3-5.361c-.258-3.685-.4-7.664.83-11.5a17.593,17.593,0,0,1,7.08-9.018,26.419,26.419,0,0,1,9.926-4.123,25.127,25.127,0,0,1,9.729.014,21.088,21.088,0,0,1,7.8,3.306,20.606,20.606,0,0,1,7.6,9.473,17.162,17.162,0,0,1,.907,3.211l.119.86a1.254,1.254,0,0,1,.022.294,23.352,23.352,0,0,0-1.236-4.29,21.007,21.007,0,0,0-15.294-12.431,24.838,24.838,0,0,0-9.551.033,26.06,26.06,0,0,0-9.728,4.073,17.121,17.121,0,0,0-6.875,8.759c-1.2,3.722-1.069,7.622-.815,11.31a17.551,17.551,0,0,1-.326,5.519,7.886,7.886,0,0,1-3,4.372c-2.84,2.117-6.185,2.664-8.976,3.734a13.031,13.031,0,0,0-6.552,4.913,12.532,12.532,0,0,0-2.222,6.422,12.944,12.944,0,0,0,.778,5.121,15.022,15.022,0,0,0,2.178,3.878" fill="#455a64"/>
            <path id="Trazado_230445" data-name="Trazado 230445" d="M167.639,147.048a8.378,8.378,0,0,1-1.169-.676,15.439,15.439,0,0,1-2.929-2.537,16.2,16.2,0,0,1-3.14-5.261,15.456,15.456,0,0,1-.625-8.068,15.825,15.825,0,0,1,4.617-8.619c2.558-2.518,5.944-4.316,9.1-6.661a18.722,18.722,0,0,0,4.268-4.2,20.642,20.642,0,0,0,2.713-5.638c1.355-4.064,1.97-8.567,3.9-12.8a24.18,24.18,0,0,1,8.808-10.019A24.742,24.742,0,0,1,205,78.636a27,27,0,0,1,11.162,1.645,27.582,27.582,0,0,1,8.462,5.018,29.786,29.786,0,0,1,8.094,11.607,22.829,22.829,0,0,1,1.423,5.019,1.681,1.681,0,0,1-.1-.328c-.065-.245-.149-.566-.256-.971a33.706,33.706,0,0,0-1.251-3.644,30.1,30.1,0,0,0-8.147-11.4,27.36,27.36,0,0,0-8.369-4.891,26.65,26.65,0,0,0-10.981-1.572,24.326,24.326,0,0,0-11.562,3.878,23.722,23.722,0,0,0-8.613,9.809c-1.894,4.134-2.516,8.621-3.893,12.741a21.043,21.043,0,0,1-2.792,5.766,19.16,19.16,0,0,1-4.386,4.3c-3.214,2.364-6.58,4.136-9.091,6.586a15.483,15.483,0,0,0-4.556,8.377,15.237,15.237,0,0,0,.537,7.9,16.273,16.273,0,0,0,3.018,5.225,16.54,16.54,0,0,0,2.836,2.584c.715.515,1.125.736,1.11.762" fill="#455a64"/>
            <path id="Trazado_230446" data-name="Trazado 230446" d="M257.536,345.065s-41.307-9.614-47.615-10.083c-5.92-.441-7.467,3.267-7.467,3.267s-8.853-1.111-10.809,4.058c0,0-1.56,3.012,2.072,4.548s23.329,5.867,27.38,9.639,38,23.049,38,23.049l13.69,5.587s6.146-16.064,6.426-20.674a12.238,12.238,0,0,0-1.4-7.124s8.521-8.661,9.5-12.153,7.124-15.506,7.124-15.506-5.768-5.884-11.475,1.039-8.911,10.024-10.456,11.254c-4.442,3.534-12.336,3.93-14.967,3.1" fill="#ffbe9d"/>
            <path id="Trazado_230447" data-name="Trazado 230447" d="M243.788,357.115a1.59,1.59,0,0,1-.439-.171l-1.211-.579-4.448-2.134c-3.773-1.763-9.04-4.085-15.005-6.269-2.981-1.1-5.85-2.06-8.477-2.882-2.615-.845-5.04-1.423-6.978-2.272a9.266,9.266,0,0,1-4-2.909,5.154,5.154,0,0,1-.643-1.2,1.577,1.577,0,0,1-.129-.454,12.746,12.746,0,0,0,.934,1.527,9.477,9.477,0,0,0,3.985,2.693c1.908.786,4.34,1.329,6.976,2.152,2.642.8,5.525,1.753,8.516,2.852a153.338,153.338,0,0,1,14.984,6.426c1.868.932,3.361,1.72,4.382,2.286l1.167.666a1.63,1.63,0,0,1,.39.264" fill="#eb996e"/>
            <path id="Trazado_230448" data-name="Trazado 230448" d="M270.628,343.287a11.967,11.967,0,0,1-8.362,4.427c-.032-.157,2.086-.576,4.393-1.813,2.32-1.213,3.857-2.729,3.969-2.614" fill="#eb996e"/>
          </g>
        </g>
        <g id="Grupo_115572" data-name="Grupo 115572">
          <g id="Grupo_115571" data-name="Grupo 115571" clip-path="url(#clip-path)">
            <path id="Trazado_230449" data-name="Trazado 230449" d="M416.02,440.725c0,.144-89.1.26-198.981.26-109.921,0-199-.116-199-.26s89.08-.26,199-.26c109.883,0,198.981.116,198.981.26" fill="#263238"/>
          </g>
        </g>
        <path id="Trazado_230450" data-name="Trazado 230450" d="M.26,113.547v54.158H118.632l8.068,8.067v-8.067h5.18V113.547Z" fill="#fff"/>
        <g id="Grupo_115580" data-name="Grupo 115580">
          <g id="Grupo_115579" data-name="Grupo 115579" clip-path="url(#clip-path)">
            <path id="Trazado_230451" data-name="Trazado 230451" d="M131.88,113.547s.012.306.019.923.01,1.551.019,2.754c.01,2.446.025,6.038.045,10.679.023,9.341.056,22.9.1,39.8v.18h-.181l-5.179.008.187-.188c0,2.49.007,5.243.01,8.068v.477l-.338-.337-8.077-8.059.149.061-112.658.05H0v-.26c0-19,.009-37.274.013-54.158V113.3H.261l94.625.118,27.258.068,7.253.031,1.862.015c.416.005.621.015.621.015s-.225.01-.651.015l-1.891.015-7.3.031-27.314.069-94.459.117.247-.247c0,16.884.009,35.155.013,54.158l-.26-.26H5.975l112.658.051h.087l.061.061,8.059,8.077-.337.14c0-2.825.007-5.578.01-8.068v-.188h.188l5.179.007-.18.181c.041-16.861.074-30.377.1-39.693.02-4.658.035-8.264.045-10.719q.014-1.826.019-2.786c.007-.629.019-.96.019-.96" fill="#263238"/>
            <path id="Trazado_230452" data-name="Trazado 230452" d="M117.777,133.571H57.432a2.148,2.148,0,0,1-2.148-2.148v-.231a2.148,2.148,0,0,1,2.148-2.148h60.345a2.148,2.148,0,0,1,2.148,2.148v.231a2.148,2.148,0,0,1-2.148,2.148" fill="#e0e0e0"/>
            <path id="Trazado_230453" data-name="Trazado 230453" d="M117.777,143.669H57.432a2.148,2.148,0,0,1-2.148-2.148v-.231a2.148,2.148,0,0,1,2.148-2.148h60.345a2.148,2.148,0,0,1,2.148,2.148v.231a2.148,2.148,0,0,1-2.148,2.148" fill="#e0e0e0"/>
            <path id="Trazado_230454" data-name="Trazado 230454" d="M117.777,153.767H57.432a2.148,2.148,0,0,1-2.148-2.148v-.231a2.148,2.148,0,0,1,2.148-2.148h60.345a2.148,2.148,0,0,1,2.148,2.148v.231a2.148,2.148,0,0,1-2.148,2.148" fill="#e0e0e0"/>
            <path id="Trazado_230455" data-name="Trazado 230455" d="M39.974,158.055H15.621a4.473,4.473,0,0,1-4.473-4.473V129.229a4.473,4.473,0,0,1,4.473-4.474H39.974a4.474,4.474,0,0,1,4.473,4.474v24.353a4.473,4.473,0,0,1-4.473,4.473" fill="#455a64"/>
            <path id="Trazado_230456" data-name="Trazado 230456" d="M14.437,151.285l-.765-.643,6.733-8a2.445,2.445,0,0,1,3.353-.589l3.968,2.645,4.673-5.9a2.468,2.468,0,0,1,3.746-.144l5.761,6.229-.735.679-5.761-6.229a1.444,1.444,0,0,0-1.133-.47,1.464,1.464,0,0,0-1.094.555l-5.245,6.629L23.2,142.885a1.46,1.46,0,0,0-2.008.369Z" fill="#fff"/>
            <path id="Trazado_230457" data-name="Trazado 230457" d="M27.8,133.4a2.977,2.977,0,1,1-2.977-2.977A2.977,2.977,0,0,1,27.8,133.4" fill="#fff"/>
            <path id="Trazado_230458" data-name="Trazado 230458" d="M368.881,211.712H249.227v50.979H261.57l1.3,11.231,9.216-11.231h96.791Z" fill="#fff"/>
            <path id="Trazado_230459" data-name="Trazado 230459" d="M368.881,211.712s.012.288.019.87.011,1.463.019,2.6c.011,2.308.026,5.692.045,10.062.023,8.8.057,21.56.1,37.451v.182h-.182l-96.791.075.2-.094-9.214,11.233-.388.473-.07-.607c-.414-3.56-.858-7.38-1.306-11.231l.259.23h-12.6v-.261c.006-17.9.01-35.091.015-50.978v-.246h.246l86.091.118,24.74.067,6.574.031,1.687.015c.377,0,.562.015.562.015s-.205.01-.592.015l-1.715.015-6.625.031-24.8.067-85.926.118.245-.246c.005,15.887.01,33.075.015,50.978l-.26-.26H261.8l.026.231c.447,3.851.891,7.671,1.3,11.231l-.458-.135,9.218-11.229.077-.094h.121l96.791.075-.181.181c.041-15.845.075-28.566.1-37.341.019-4.388.035-7.786.045-10.1q.012-1.72.019-2.629c.007-.593.019-.906.019-.906" fill="#263238"/>
            <path id="Trazado_230460" data-name="Trazado 230460" d="M354.628,227.8H307.111a2.4,2.4,0,1,1,0-4.8h47.517a2.4,2.4,0,1,1,0,4.8" fill="#e0e0e0"/>
            <path id="Trazado_230461" data-name="Trazado 230461" d="M354.628,238.5H307.111a2.4,2.4,0,1,1,0-4.8h47.517a2.4,2.4,0,1,1,0,4.8" fill="#e0e0e0"/>
            <path id="Trazado_230462" data-name="Trazado 230462" d="M354.628,249.208H307.111a2.4,2.4,0,1,1,0-4.8h47.517a2.4,2.4,0,1,1,0,4.8" fill="#e0e0e0"/>
            <path id="Trazado_230463" data-name="Trazado 230463" d="M288.75,253.754H262.4a4.473,4.473,0,0,1-4.473-4.473V222.927a4.473,4.473,0,0,1,4.473-4.473H288.75a4.473,4.473,0,0,1,4.473,4.473v26.354a4.473,4.473,0,0,1-4.473,4.473" fill="#ebebeb"/>
            <path id="Trazado_230464" data-name="Trazado 230464" d="M261.388,246.558l-.767-.645,7.138-8.479a2.566,2.566,0,0,1,3.516-.618l4.229,2.819,4.97-6.282a2.589,2.589,0,0,1,1.93-.979,2.62,2.62,0,0,1,2,.827l6.107,6.6-.735.68-6.108-6.6a1.566,1.566,0,0,0-1.224-.508,1.588,1.588,0,0,0-1.183.6l-5.542,7.005-5-3.331a1.58,1.58,0,0,0-2.171.4Z" fill="#fff"/>
            <path id="Trazado_230465" data-name="Trazado 230465" d="M275.573,227.619a3.156,3.156,0,1,1-3.156-3.156,3.156,3.156,0,0,1,3.156,3.156" fill="#fff"/>
            <path id="Trazado_230466" data-name="Trazado 230466" d="M122.72,200.824H27.462a6.271,6.271,0,0,0-6.271,6.271v55.421a5.5,5.5,0,0,0,5.5,5.5h77.633l12.207,12.207V268.015h4.524a6.635,6.635,0,0,0,6.635-6.634V205.793a4.969,4.969,0,0,0-4.969-4.969" fill="#fff"/>
            <path id="Trazado_230467" data-name="Trazado 230467" d="M127.128,213.879H21.751a.56.56,0,0,1-.56-.56V207.5a6.675,6.675,0,0,1,6.674-6.675h94.971a4.852,4.852,0,0,1,4.852,4.852v7.644a.56.56,0,0,1-.56.56" fill="#e0e0e0"/>
            <path id="Trazado_230468" data-name="Trazado 230468" d="M59.469,256.462H36.536a4.473,4.473,0,0,1-4.473-4.472V229.057a4.474,4.474,0,0,1,4.473-4.474H59.469a4.474,4.474,0,0,1,4.473,4.474V251.99a4.473,4.473,0,0,1-4.473,4.472" fill="#4dd0e1"/>
            <g id="Grupo_115575" data-name="Grupo 115575" opacity="0.3">
              <g id="Grupo_115574" data-name="Grupo 115574">
                <g id="Grupo_115573" data-name="Grupo 115573" clip-path="url(#clip-path-11)">
                  <path id="Trazado_230469" data-name="Trazado 230469" d="M61.158,244.172a7.815,7.815,0,0,1-1.06-1l-2.748-2.849-1.879-1.983a1.665,1.665,0,0,0-2.446.065l-4.441,5.637c-.115.146-.231.291-.344.435l-.149.188-.2-.133-3.444-2.306-.8-.535a1.634,1.634,0,0,0-.789-.225,1.662,1.662,0,0,0-1.374.68l-.006.009,0,.006-4.736,5.48-1.364,1.521a2.776,2.776,0,0,1-.523.508,2.79,2.79,0,0,1,.412-.6c.343-.436.763-.968,1.266-1.605l4.591-5.6-.011.014a2.118,2.118,0,0,1,2.788-.616c.3.185.551.36.835.544L48.18,244.1l-.348.055q.169-.216.344-.435l4.488-5.63a2.107,2.107,0,0,1,3.121-.045l1.835,2.029,2.627,2.962a7.811,7.811,0,0,1,.911,1.134"/>
                </g>
              </g>
            </g>
            <g id="Grupo_115578" data-name="Grupo 115578" opacity="0.3">
              <g id="Grupo_115577" data-name="Grupo 115577">
                <g id="Grupo_115576" data-name="Grupo 115576" clip-path="url(#clip-path-12)">
                  <path id="Trazado_230470" data-name="Trazado 230470" d="M48,232.86a2.85,2.85,0,1,1-2.85-2.85A2.85,2.85,0,0,1,48,232.86"/>
                </g>
              </g>
            </g>
            <path id="Trazado_230471" data-name="Trazado 230471" d="M122.72,200.824a4.115,4.115,0,0,1,1.407.171,5,5,0,0,1,3.115,2.6,5.919,5.919,0,0,1,.527,2.987q.006,1.676.015,3.654c.008,2.639.018,5.673.028,9.075.014,6.812.032,15.1.051,24.631.007,4.77.014,9.852.022,15.22a11.528,11.528,0,0,1-.409,4.1A7.337,7.337,0,0,1,125,266.7a7.254,7.254,0,0,1-4.07,1.509c-1.467.043-2.912.015-4.4.025l.216-.215c0,3.816.007,7.957.011,12.207v.548l-.387-.387-12.217-12.2.17.07-69.6.021H27.87a11.967,11.967,0,0,1-2.313-.113A5.762,5.762,0,0,1,21,263.334a19.433,19.433,0,0,1-.064-2.272q0-8.936,0-17.6c0-11.536.011-22.663.015-33.263q0-.993,0-1.981a16.045,16.045,0,0,1,.065-2,6.454,6.454,0,0,1,1.715-3.59,6.549,6.549,0,0,1,3.43-1.914,9.661,9.661,0,0,1,1.942-.128H30l14.609.013,26.223.032,37.97.083,10.324.048,2.684.026c.605.009.915.027.915.027s-.31.018-.915.027l-2.684.026-10.324.048-37.97.083L44.6,201.04,30,201.053a26.593,26.593,0,0,0-3.74.124,6.072,6.072,0,0,0-3.18,1.781,5.971,5.971,0,0,0-1.586,3.331,15.539,15.539,0,0,0-.059,1.934q0,.987,0,1.981c.005,10.6.01,21.727.015,33.263q0,8.652,0,17.6a19.343,19.343,0,0,0,.06,2.2,5.24,5.24,0,0,0,4.148,4.392,11.688,11.688,0,0,0,2.212.1h6.85l69.6.021h.1l.07.071,12.2,12.216-.387.16c0-4.25.008-8.391.012-12.207V267.8h.215c1.472-.007,2.951.023,4.372-.015a6.839,6.839,0,0,0,3.842-1.415,6.933,6.933,0,0,0,2.351-3.242,11.167,11.167,0,0,0,.4-3.966c.008-5.368.015-10.45.022-15.22.02-9.535.037-17.819.051-24.631.01-3.4.02-6.436.028-9.075q.009-1.977.015-3.654a5.8,5.8,0,0,0-.482-2.931,4.966,4.966,0,0,0-3.018-2.592,7.137,7.137,0,0,0-1.388-.234" fill="#263238"/>
            <path id="Trazado_230472" data-name="Trazado 230472" d="M30.377,207.125a2.244,2.244,0,1,1-2.243-2.243,2.244,2.244,0,0,1,2.243,2.243" fill="#fff"/>
            <path id="Trazado_230473" data-name="Trazado 230473" d="M37.124,207.125a2.243,2.243,0,1,1-2.243-2.243,2.244,2.244,0,0,1,2.243,2.243" fill="#fff"/>
            <path id="Trazado_230474" data-name="Trazado 230474" d="M43.87,207.125a2.243,2.243,0,1,1-2.243-2.243,2.244,2.244,0,0,1,2.243,2.243" fill="#fff"/>
            <path id="Trazado_230475" data-name="Trazado 230475" d="M113.444,230.816c0,.144-8.705.26-19.441.26s-19.442-.116-19.442-.26,8.7-.26,19.442-.26,19.441.116,19.441.26" fill="#263238"/>
            <path id="Trazado_230476" data-name="Trazado 230476" d="M113.444,238.185c0,.144-8.705.26-19.441.26s-19.442-.116-19.442-.26,8.7-.26,19.442-.26,19.441.116,19.441.26" fill="#263238"/>
            <path id="Trazado_230477" data-name="Trazado 230477" d="M113.444,245.554c0,.144-8.705.26-19.441.26s-19.442-.116-19.442-.26,8.7-.26,19.442-.26,19.441.116,19.441.26" fill="#263238"/>
            <path id="Trazado_230478" data-name="Trazado 230478" d="M289.675,137.737H391.721V189.3H307.606l-9.368,9.368V189.3h-8.563Z" fill="#fff"/>
            <path id="Trazado_230479" data-name="Trazado 230479" d="M289.674,137.737s.013.32.02.925.012,1.51.021,2.677c.011,2.359.027,5.812.047,10.26.024,8.9.059,21.764.1,37.7l-.191-.19,8.563-.012h.2v.2c0,2.915.007,6.1.011,9.368l-.365-.151,9.358-9.378.067-.066h.094l77.484-.033h6.631l-.26.26c.006-18.187.012-35.572.018-51.562l.242.243-73.37-.118-21.089-.066-5.627-.03-1.457-.015c-.328,0-.5-.014-.5-.014s.155-.01.475-.015l1.429-.014,5.578-.03,21.033-.066,73.531-.118h.244v.243c0,15.99.01,33.375.016,51.562v.26h-6.891l-77.484-.033.161-.067-9.378,9.359-.366.365v-.517c0-3.271.008-6.453.011-9.368l.2.2-8.563-.012h-.191V189.3c.043-15.985.078-28.89.1-37.816.02-4.43.036-7.869.047-10.218q.014-1.727.021-2.642c.007-.593.02-.886.02-.886" fill="#263238"/>
            <path id="Trazado_230480" data-name="Trazado 230480" d="M374.536,153.464c0,.144-15.254.26-34.066.26s-34.069-.116-34.069-.26,15.25-.26,34.069-.26,34.066.116,34.066.26" fill="#263238"/>
            <path id="Trazado_230481" data-name="Trazado 230481" d="M374.536,160.833c0,.144-15.254.26-34.066.26s-34.069-.116-34.069-.26,15.25-.26,34.069-.26,34.066.116,34.066.26" fill="#263238"/>
            <path id="Trazado_230482" data-name="Trazado 230482" d="M374.536,168.2c0,.144-15.254.26-34.066.26s-34.069-.116-34.069-.26,15.25-.26,34.069-.26,34.066.116,34.066.26" fill="#263238"/>
            <path id="Trazado_230483" data-name="Trazado 230483" d="M136.639,40.524H64.3V92.086h54.4l9.368,9.368V92.086h8.563Z" fill="#fff"/>
            <path id="Trazado_230484" data-name="Trazado 230484" d="M136.639,40.524s.015.3.021.9c.007.623.013,1.518.024,2.684.013,2.385.03,5.863.052,10.317.026,8.985.063,21.893.109,37.659v.207h-.206l-8.563.012.218-.219c0,2.931.007,6.108.011,9.368l0,.556-.4-.393c-2.962-2.958-6.124-6.114-9.376-9.359l.172.071-47.773.018H64.044v-.26c.01-18.571.019-36.087.028-51.562v-.233H64.3l52.373.117,14.757.061,3.886.028.993.014c.22,0,.326.013.326.013s-.125.009-.354.013l-1.017.014-3.931.028-14.81.061L64.3,40.757l.233-.233c.008,15.475.018,32.991.027,51.562l-.26-.26h6.631l47.773.018h.1l.07.071c3.246,3.252,6.4,6.413,9.359,9.377l-.393.162c0-3.26.009-6.437.011-9.368v-.219h.22l8.563.012-.207.207c.045-15.712.082-28.576.108-37.53.023-4.474.04-7.968.053-10.365.011-1.182.017-2.09.024-2.722s.022-.945.022-.945" fill="#263238"/>
            <path id="Trazado_230485" data-name="Trazado 230485" d="M81.03,56.252c0-.144,8.705-.26,19.441-.26s19.442.116,19.442.26-8.7.26-19.442.26S81.03,56.4,81.03,56.252" fill="#263238"/>
            <path id="Trazado_230486" data-name="Trazado 230486" d="M81.03,63.62c0-.144,8.705-.26,19.441-.26s19.442.116,19.442.26-8.7.26-19.442.26-19.441-.116-19.441-.26" fill="#263238"/>
            <path id="Trazado_230487" data-name="Trazado 230487" d="M81.03,70.989c0-.144,8.705-.26,19.441-.26s19.442.116,19.442.26-8.7.26-19.442.26-19.441-.116-19.441-.26" fill="#263238"/>
            <path id="Trazado_230488" data-name="Trazado 230488" d="M218.395.435H168.427V50.4h4.779v7.444L180.65,50.4h37.745Z" fill="#fff"/>
            <path id="Trazado_230489" data-name="Trazado 230489" d="M218.4.435s.016.294.025.889c.006.618.014,1.5.025,2.641.013,2.349.033,5.76.058,10.1.027,8.768.066,21.278.113,36.341v.221H218.4l-37.745.036.181-.075-7.442,7.445-.443.444v-.627c0-2.209,0-4.572,0-6.954V50.4l.261.26h-5.039V50.4c.014-18.348.027-35.431.039-49.968V.213h.221l36.329.113,10.1.058,2.644.025c.6.009.89.025.89.025s-.327.016-.938.025L214.77.485,204.615.543,168.427.656l.221-.221c.012,14.537.025,31.62.039,49.968l-.26-.26h5.039v7.7l-.444-.184,7.446-7.441.075-.076h.107l37.745.036-.221.221c.047-15.005.086-27.467.113-36.2.025-4.36.044-7.787.058-10.148.011-1.159.019-2.055.025-2.683.009-.61.025-.937.025-.937" fill="#263238"/>
            <path id="Trazado_230490" data-name="Trazado 230490" d="M196.081,25.421a7.554,7.554,0,0,0,4.5-6.99,7.1,7.1,0,1,0-14.173-.066,7.544,7.544,0,0,0,4.516,7.056c-10.9,1.643-10.411,13.5-10.411,13.5l25.788.118s.588-11.98-10.222-13.614" fill="#455a64"/>
            <path id="Trazado_230491" data-name="Trazado 230491" d="M326.092,66.97H376.06v49.968h-4.779v7.444l-7.443-7.444H326.092Z" fill="#fff"/>
            <path id="Trazado_230492" data-name="Trazado 230492" d="M326.092,66.97s.016.327.025.937c.006.628.014,1.524.025,2.683.014,2.361.033,5.788.058,10.148.027,8.733.066,21.195.113,36.2l-.221-.221,37.746-.036h.106l.075.076,7.446,7.441-.443.184c0-2.209,0-4.572,0-6.954v-.75h5.039l-.26.26c.014-18.348.027-35.431.039-49.968l.221.221-36.188-.113-10.155-.058L327.03,67c-.611-.009-.938-.025-.938-.025s.295-.016.89-.025l2.644-.025,10.1-.058,36.329-.113h.221v.222c.011,14.537.024,31.62.038,49.968v.26h-5.039l.261-.26v.49c0,2.382,0,4.745,0,6.954v.627l-.443-.444-7.442-7.445.182.075-37.746-.036h-.222v-.221c.047-15.063.086-27.573.113-36.341.025-4.337.045-7.748.058-10.1.011-1.141.019-2.023.025-2.641.009-.6.025-.889.025-.889" fill="#263238"/>
            <path id="Trazado_230493" data-name="Trazado 230493" d="M363.229,88.935A12.153,12.153,0,1,0,340.6,95.074h-.007l.034.046c.466.786,1.05,1.347,1.64,2.172l7.056,9.347a2.195,2.195,0,0,0,3.5,0l6.939-9.193a26.191,26.191,0,0,0,1.765-2.338l.025-.034h-.005a12.071,12.071,0,0,0,1.678-6.139m-12.153,5.291a5.348,5.348,0,1,1,5.348-5.348,5.348,5.348,0,0,1-5.348,5.348" fill="#4dd0e1"/>
            <path id="Trazado_230494" data-name="Trazado 230494" d="M220.89,238.5h-52a4.73,4.73,0,0,0-4.73,4.73v47.952a4.73,4.73,0,0,0,4.73,4.73h42.684l8.553,8.552v-8.552h.761a4.73,4.73,0,0,0,4.73-4.73V243.234a4.73,4.73,0,0,0-4.73-4.73" fill="#fff"/>
            <path id="Trazado_230495" data-name="Trazado 230495" d="M220.89,238.5a3.7,3.7,0,0,1,1.167.114,4.738,4.738,0,0,1,2.79,1.9,4.8,4.8,0,0,1,.843,2.364c.041.93.021,1.923.034,3.008.009,2.167.019,4.653.03,7.435.015,5.574.033,12.33.054,20.068.007,3.872.014,7.99.022,12.328q0,1.627.005,3.3,0,.834,0,1.677a6.228,6.228,0,0,1-.162,1.74,4.97,4.97,0,0,1-2.048,2.881,4.84,4.84,0,0,1-1.684.714,8.366,8.366,0,0,1-1.814.117l.229-.229c0,2.674.006,5.581.009,8.552v.575l-.407-.406-8.56-8.546.175.073-36.631.012-6.229-.009a4.967,4.967,0,0,1-4.669-3.809,6.056,6.056,0,0,1-.143-1.571v-1.515q0-1.512,0-3.013,0-3,0-5.952c.005-7.868.01-15.458.015-22.688q.006-5.422.011-10.565,0-1.284,0-2.55l0-1.26a5.167,5.167,0,0,1,.175-1.294,4.94,4.94,0,0,1,3.454-3.477,8.747,8.747,0,0,1,2.432-.181l2.348,0,4.566.008,8.582.017,25.9.083,7.041.048,1.831.026c.413.009.624.027.624.027s-.211.018-.624.027l-1.831.026-7.041.048-25.9.083-8.582.017-4.566.008-2.348,0a8.387,8.387,0,0,0-2.316.173,4.5,4.5,0,0,0-3.139,3.176,9.3,9.3,0,0,0-.156,2.439q0,1.266,0,2.55.006,5.138.011,10.565c.005,7.23.01,14.82.015,22.688q0,2.95,0,5.952,0,1.5,0,3.013a15.5,15.5,0,0,0,.13,2.964,4.445,4.445,0,0,0,4.183,3.411l6.211.008,36.631.013h.1l.073.072,8.545,8.56-.406.168c0-2.971.006-5.878.009-8.552v-.228h.229a7.959,7.959,0,0,0,1.718-.1,4.411,4.411,0,0,0,1.532-.645,4.524,4.524,0,0,0,1.87-2.618,5.732,5.732,0,0,0,.153-1.629q0-.843,0-1.677,0-1.668,0-3.3c.008-4.338.015-8.456.022-12.328.021-7.738.039-14.494.054-20.068.011-2.782.021-5.268.03-7.435,0-1.079.028-2.091,0-3a4.659,4.659,0,0,0-.784-2.3,4.729,4.729,0,0,0-2.691-1.91,8.387,8.387,0,0,0-1.149-.184" fill="#263238"/>
            <path id="Trazado_230496" data-name="Trazado 230496" d="M208.541,285.231h-26.5a7.673,7.673,0,0,1-7.673-7.673V257.682a7.672,7.672,0,0,1,7.673-7.672h26.5a7.672,7.672,0,0,1,7.673,7.672v19.876a7.673,7.673,0,0,1-7.673,7.673" fill="#455a64"/>
            <path id="Trazado_230497" data-name="Trazado 230497" d="M192.538,275.363a1.632,1.632,0,0,1-2.448-1.413V261.29a1.632,1.632,0,0,1,2.448-1.413l5.482,3.164,5.482,3.166a1.631,1.631,0,0,1,0,2.826L198.02,272.2Z" fill="#fff"/>
          </g>
        </g>
        <g id="Grupo_115582" data-name="Grupo 115582">
          <g id="Grupo_115581" data-name="Grupo 115581" clip-path="url(#clip-path)">
            <path id="Trazado_230498" data-name="Trazado 230498" d="M321.428,35.837A35.623,35.623,0,1,1,285.8.214a35.623,35.623,0,0,1,35.623,35.623" fill="#fff"/>
            <path id="Trazado_230499" data-name="Trazado 230499" d="M321.428,35.837s-.028-.2-.056-.577c-.026-.4-.063-.961-.111-1.69q-.034-.56-.075-1.245c-.049-.456-.147-.95-.227-1.487a26.128,26.128,0,0,0-.743-3.674,34.016,34.016,0,0,0-3.948-9.444A35.591,35.591,0,0,0,292.34,1.058a32.947,32.947,0,0,0-4.477-.517c-.763-.026-1.532-.1-2.307-.088l-2.342.121c-.393.028-.79.025-1.183.077l-1.18.182c-.787.131-1.588.223-2.38.387a37.533,37.533,0,0,0-4.718,1.386,36.846,36.846,0,0,0-4.614,2.028c-.747.405-1.463.877-2.2,1.316A18.067,18.067,0,0,0,264.8,7.421a39.727,39.727,0,0,0-4.012,3.411,40.05,40.05,0,0,0-3.466,4.1,34.271,34.271,0,0,0-5.056,9.743,37.779,37.779,0,0,0-1.825,11.157,37.809,37.809,0,0,0,1.823,11.161q.481,1.315.959,2.62l1.2,2.5a8.81,8.81,0,0,0,.659,1.207l.711,1.171.712,1.165.814,1.088a39.934,39.934,0,0,0,3.466,4.1,39.853,39.853,0,0,0,4.012,3.412,18.162,18.162,0,0,0,2.135,1.471c.74.439,1.456.911,2.2,1.317a38.72,38.72,0,0,0,9.333,3.414c.792.164,1.594.256,2.381.387l1.18.182c.393.052.791.049,1.183.077l2.343.121c.775.012,1.544-.062,2.307-.088a32.948,32.948,0,0,0,4.477-.517,35.6,35.6,0,0,0,23.927-16.664,33.975,33.975,0,0,0,3.947-9.443,25.985,25.985,0,0,0,.743-3.674c.08-.537.178-1.031.227-1.487q.041-.684.075-1.244c.048-.729.085-1.29.111-1.69.028-.382.056-.577.056-.577s.008.195,0,.577c-.014.4-.033.965-.059,1.7-.016.375-.032.792-.051,1.251-.04.458-.13.955-.2,1.5a25.38,25.38,0,0,1-.7,3.7,33.792,33.792,0,0,1-3.893,9.543,35.812,35.812,0,0,1-24.1,16.939,33.234,33.234,0,0,1-4.53.537c-.773.029-1.552.106-2.337.1l-2.372-.117c-.4-.026-.8-.023-1.2-.075l-1.2-.181c-.8-.13-1.611-.222-2.413-.387a37.875,37.875,0,0,1-4.786-1.393,37.428,37.428,0,0,1-4.682-2.049c-.758-.41-1.485-.887-2.236-1.331a18.431,18.431,0,0,1-2.167-1.489,40.213,40.213,0,0,1-4.073-3.454,40.373,40.373,0,0,1-3.52-4.156l-.826-1.1-.724-1.18-.722-1.188a8.9,8.9,0,0,1-.67-1.224q-.607-1.26-1.22-2.531-.484-1.323-.975-2.658a38.242,38.242,0,0,1-1.851-11.324,38.251,38.251,0,0,1,1.854-11.321,34.679,34.679,0,0,1,5.136-9.881,40.378,40.378,0,0,1,3.52-4.155,40.339,40.339,0,0,1,4.073-3.454,18.373,18.373,0,0,1,2.167-1.488c.75-.444,1.477-.921,2.235-1.33a37.12,37.12,0,0,1,4.681-2.048A37.75,37.75,0,0,1,278.374.761c.8-.165,1.614-.257,2.413-.387l1.2-.181c.4-.052.8-.049,1.2-.075L285.553,0c.785-.01,1.564.067,2.336.1a33.077,33.077,0,0,1,4.53.537,35.807,35.807,0,0,1,24.1,16.937,33.761,33.761,0,0,1,3.894,9.544,25.38,25.38,0,0,1,.7,3.7c.073.541.163,1.038.2,1.5.019.458.035.875.051,1.25.026.732.045,1.3.059,1.7.011.382,0,.577,0,.577" fill="#263238"/>
            <path id="Trazado_230500" data-name="Trazado 230500" d="M279.3,49.609a6.1,6.1,0,0,0,3.218-.869q.666-.632.667-3.42V33.952a7.236,7.236,0,0,0-.215-2.146,1.44,1.44,0,0,0-1.5-.977,2.805,2.805,0,0,0-.513.048q-.25.048-1.441.381v-.739l1.024-.333q4.17-1.359,5.816-2.05a3.119,3.119,0,0,1,.857-.286,1.3,1.3,0,0,1,.048.358V45.32q0,2.717.655,3.407a4.887,4.887,0,0,0,2.968.882v.668H279.3Zm3.789-31.867a2.366,2.366,0,0,1,1.764-.735,2.488,2.488,0,1,1-2.479,2.49,2.432,2.432,0,0,1,.715-1.755" fill="#263238"/>
            <path id="Trazado_230501" data-name="Trazado 230501" d="M261.826,75.231a5.6,5.6,0,1,1-5.6-5.6,5.6,5.6,0,0,1,5.6,5.6" fill="#fff"/>
            <path id="Trazado_230502" data-name="Trazado 230502" d="M261.826,75.231c-.053,0-.039-.5-.274-1.343a5.58,5.58,0,0,0-2.051-2.964,5.378,5.378,0,1,0,0,8.614,5.6,5.6,0,0,0,2.051-2.964c.234-.844.22-1.346.273-1.343.018,0,.029.123.034.36a4.276,4.276,0,0,1-.111,1.033,5.582,5.582,0,0,1-2.024,3.207,5.788,5.788,0,0,1-8.22-1.138,5.8,5.8,0,0,1,0-6.925,5.789,5.789,0,0,1,8.219-1.137,5.573,5.573,0,0,1,2.025,3.207,4.276,4.276,0,0,1,.111,1.033c0,.237-.016.36-.034.36" fill="#263238"/>
          </g>
        </g>
      </g>
    </g>
  </g>
</svg>
