<svg xmlns="http://www.w3.org/2000/svg" xmlns:xlink="http://www.w3.org/1999/xlink" width="367.532" height="268.217" viewBox="0 0 367.532 268.217">
  <defs>
    <clipPath id="clip-path">
      <rect id="Rectángulo_48476" data-name="Rectángulo 48476" width="367.532" height="268.216" fill="none"/>
    </clipPath>
    <clipPath id="clip-path-2">
      <rect id="Rectángulo_48475" data-name="Rectángulo 48475" width="367.533" height="268.216" fill="none"/>
    </clipPath>
    <clipPath id="clip-path-3">
      <rect id="Rectángulo_48449" data-name="Rectángulo 48449" width="10.437" height="10.436" fill="none"/>
    </clipPath>
    <clipPath id="clip-path-4">
      <rect id="Rectángulo_48463" data-name="Rectángulo 48463" width="3.433" height="4.12" fill="none"/>
    </clipPath>
    <clipPath id="clip-path-5">
      <rect id="Rectángulo_48465" data-name="Rectángulo 48465" width="43.16" height="70.789" fill="none"/>
    </clipPath>
    <clipPath id="clip-path-6">
      <rect id="Rectángulo_48466" data-name="Rectángulo 48466" width="3.46" height="2.996" fill="none"/>
    </clipPath>
    <clipPath id="clip-path-7">
      <rect id="Rectángulo_48467" data-name="Rectángulo 48467" width="18.015" height="26.375" fill="none"/>
    </clipPath>
    <clipPath id="clip-path-9">
      <rect id="Rectángulo_48469" data-name="Rectángulo 48469" width="2.458" height="1.344" fill="none"/>
    </clipPath>
    <clipPath id="clip-path-10">
      <rect id="Rectángulo_48472" data-name="Rectángulo 48472" width="4.437" height="8.172" fill="none"/>
    </clipPath>
    <clipPath id="clip-path-11">
      <rect id="Rectángulo_48473" data-name="Rectángulo 48473" width="5.627" height="6.955" fill="none"/>
    </clipPath>
    <clipPath id="clip-path-12">
      <rect id="Rectángulo_48474" data-name="Rectángulo 48474" width="1.956" height="2.418" fill="none"/>
    </clipPath>
  </defs>
  <g id="Grupo_117837" data-name="Grupo 117837" transform="translate(-928.577 -12556.15)">
    <g id="Grupo_114312" data-name="Grupo 114312" transform="translate(928.577 12556.15)">
      <g id="Grupo_114311" data-name="Grupo 114311" clip-path="url(#clip-path)">
        <g id="Grupo_114310" data-name="Grupo 114310">
          <g id="Grupo_114309" data-name="Grupo 114309" clip-path="url(#clip-path-2)">
            <path id="Trazado_224748" data-name="Trazado 224748" d="M162.242,5.943a2.511,2.511,0,0,0,2.167,2.483V24.887L151.542,37.754V49.713a.6.6,0,1,0,1.207,0V38.253l12.866-12.866V8.3a2.508,2.508,0,1,0-3.374-2.352m3.812,0a1.3,1.3,0,1,1-1.3-1.3,1.3,1.3,0,0,1,1.3,1.3" transform="translate(-49.917 -1.131)" fill="#d1d5ed"/>
            <path id="Trazado_224749" data-name="Trazado 224749" d="M30.315,239.4a2.51,2.51,0,0,0,2.483-2.167H49.259L62.126,250.1H74.085a.6.6,0,0,0,0-1.208H62.625L49.759,236.03H32.668a2.508,2.508,0,1,0-2.352,3.373m0-3.812a1.3,1.3,0,1,1-1.3,1.3,1.3,1.3,0,0,1,1.3-1.3" transform="translate(-9.159 -77.205)" fill="#d1d5ed"/>
            <path id="Trazado_224750" data-name="Trazado 224750" d="M498.877,84.522a2.507,2.507,0,0,0-4.862-.864H476.924L464.058,96.525H452.6a.6.6,0,1,0,0,1.206h11.959l12.866-12.866h16.461a2.508,2.508,0,0,0,4.992-.343m-1.207,0a1.3,1.3,0,1,1-1.3-1.3,1.3,1.3,0,0,1,1.3,1.3" transform="translate(-148.884 -27.015)" fill="#d1d5ed"/>
            <path id="Trazado_224751" data-name="Trazado 224751" d="M458.477,53.167l-.573-1.221a17.585,17.585,0,0,0,3.649-3.792l1.487.538a4.278,4.278,0,0,0,2.907-8.046l-1.27-.459a17.483,17.483,0,0,0-.1-5.259v0l1.431-.671a4.278,4.278,0,0,0-3.633-7.746l-1.221.573a17.6,17.6,0,0,0-3.792-3.649l.537-1.486a4.277,4.277,0,1,0-8.045-2.908l-.459,1.269a17.512,17.512,0,0,0-5.26.1h0l-.671-1.43a4.277,4.277,0,1,0-7.745,3.633l.572,1.221a17.6,17.6,0,0,0-3.649,3.792l-1.486-.537a4.277,4.277,0,0,0-2.907,8.045l1.265.458h0a17.781,17.781,0,0,0,.1,5.264l-1.427.669a4.278,4.278,0,0,0,3.633,7.746l1.22-.573a17.6,17.6,0,0,0,3.792,3.649l-.536,1.487a4.277,4.277,0,1,0,8.046,2.906l.457-1.265a17.759,17.759,0,0,0,5.264-.1l.67,1.428a4.278,4.278,0,0,0,7.745-3.634m-5.97-3.748a12.736,12.736,0,1,1,6.121-16.939,12.737,12.737,0,0,1-6.121,16.939" transform="translate(-140.132 -5.341)" fill="#d1d5ed"/>
            <path id="Trazado_224752" data-name="Trazado 224752" d="M450.371,37.293a8.052,8.052,0,1,0,10.71,3.867,8.05,8.05,0,0,0-10.71-3.867" transform="translate(-146.823 -12.032)" fill="#d1d5ed"/>
            <path id="Trazado_224753" data-name="Trazado 224753" d="M396.949,41.815l-.4-.846a12.162,12.162,0,0,0,2.528-2.627l1.03.372a2.963,2.963,0,0,0,2.014-5.574l-.88-.318a12.1,12.1,0,0,0-.069-3.643h0l.992-.465a2.964,2.964,0,1,0-2.517-5.366l-.845.4a12.258,12.258,0,0,0-2.627-2.528l.372-1.03a2.963,2.963,0,1,0-5.574-2.014l-.318.879a12.1,12.1,0,0,0-3.643.069h0l-.465-.991a2.963,2.963,0,0,0-5.366,2.517l.4.846a12.161,12.161,0,0,0-2.528,2.627l-1.03-.372a2.963,2.963,0,1,0-2.014,5.574l.876.317h0a12.325,12.325,0,0,0,.07,3.646l-.988.464a2.963,2.963,0,1,0,2.517,5.366l.844-.4a12.227,12.227,0,0,0,2.627,2.528l-.372,1.029a2.963,2.963,0,1,0,5.574,2.014l.317-.876a12.329,12.329,0,0,0,3.647-.07l.464.989a2.964,2.964,0,0,0,5.366-2.517m-4.136-2.6a8.824,8.824,0,1,1,4.24-11.736,8.825,8.825,0,0,1-4.24,11.736" transform="translate(-123.209 -5.341)" fill="#d1d5ed"/>
            <path id="Trazado_224754" data-name="Trazado 224754" d="M391.332,30.817a5.578,5.578,0,1,0,7.42,2.68,5.578,5.578,0,0,0-7.42-2.68" transform="translate(-127.845 -9.976)" fill="#d1d5ed"/>
            <path id="Trazado_224755" data-name="Trazado 224755" d="M367.533,370.918c0,8.092-82.275,14.651-183.766,14.651S0,379.009,0,370.918s82.275-14.651,183.766-14.651,183.766,6.559,183.766,14.651" transform="translate(0 -117.352)" fill="#e6e6ed"/>
            <path id="Trazado_224756" data-name="Trazado 224756" d="M74.022,217.772a25.8,25.8,0,0,1-6.829-8.071,18.6,18.6,0,0,1-1.88-4.682l.117.1c.416.154,3.3,1.176,5.278-.3,1.611-1.2,1.953-3.546,2.226-5.422a13.746,13.746,0,0,0,.138-1.62,10.038,10.038,0,0,1-2.88,2.005c-1.052.481-1.567.488-2.257.819a5.838,5.838,0,0,0-2.786,3.5,13.373,13.373,0,0,1,.491-4.93,28.273,28.273,0,0,0,1.009-4.875,7.424,7.424,0,0,0-.625-3.611c.769.26,3.3.974,5.1-.362,1.61-1.2,1.953-3.545,2.226-5.422a13.761,13.761,0,0,0,.139-1.62,10.069,10.069,0,0,1-2.88,2.005c-1.052.481-1.567.488-2.256.818a5.932,5.932,0,0,0-2.839,3.641,24.848,24.848,0,0,0-3.543-4.185c-.628-.629-1.292-1.217-1.959-1.8.987.293,3.2.752,4.819-.451s1.952-3.546,2.226-5.422a13.749,13.749,0,0,0,.139-1.62,10.056,10.056,0,0,1-2.88,2.005c-1.052.481-1.567.488-2.256.818-.944.452-2.094,1.454-2.929,3.894-.342-.3-.681-.61-1.012-.925a7.448,7.448,0,0,1-2.676-5.042l.243.217c.416.154,3.3,1.176,5.279-.3,1.61-1.2,1.952-3.546,2.226-5.422a13.76,13.76,0,0,0,.139-1.62,10.069,10.069,0,0,1-2.88,2.005c-1.052.481-1.567.488-2.256.818a5.738,5.738,0,0,0-2.724,3.338,13.254,13.254,0,0,1,1.243-4.127l.52-.081c.4-.233,3.119-1.876,3.24-4.441.1-2.085-1.563-3.908-2.892-5.364a14.246,14.246,0,0,0-1.21-1.179,10.465,10.465,0,0,1-.287,3.637c-.306,1.163-.64,1.581-.829,2.354-.26,1.059-.212,2.65,1.209,4.937a14.139,14.139,0,0,0-1.253,4.054,6.611,6.611,0,0,0,.782,4.067,5.066,5.066,0,0,0-3.955-1.549c-1.837.281-3.137,2.052-4.176,3.468a12.648,12.648,0,0,0-.817,1.265,9.3,9.3,0,0,1,3.226-.389c1.07.063,1.494.281,2.2.31.993.041,2.416-.3,4.221-2.041l-.021-.057a24.791,24.791,0,0,0,3.267,3.131q1.266,1.107,2.428,2.326l-.069-.05c-.4-.1-3.147-.782-4.838.758-1.374,1.252-1.475,3.446-1.556,5.2a12.754,12.754,0,0,0,.02,1.5,9.325,9.325,0,0,1,2.471-2.111c.925-.54,1.4-.593,2-.96.836-.508,1.817-1.552,2.359-3.925q.718.776,1.392,1.593a13.385,13.385,0,0,1,1.234,1.736c-.008.023-.015.045-.023.068l.123.11a6.734,6.734,0,0,1,.9,3.068,12.682,12.682,0,0,1-.412,3.348l-.359-.307c-.389-.135-3.077-1.024-4.882.38-1.468,1.141-1.738,3.322-1.955,5.064a12.742,12.742,0,0,0-.1,1.5,9.318,9.318,0,0,1,2.627-1.913c.965-.466,1.441-.482,2.074-.8a5.061,5.061,0,0,0,2.3-2.744l-.131.5a17.03,17.03,0,0,0-.754,4.9,9.493,9.493,0,0,0,.159,1.365l-.007.019.012.011a16.773,16.773,0,0,0,1.472,4.128A26.115,26.115,0,0,0,73.849,218a.142.142,0,0,0,.174-.225" transform="translate(-15.496 -52.989)" fill="#5085c7"/>
            <path id="Trazado_224757" data-name="Trazado 224757" d="M463.027,187.648a2.129,2.129,0,0,0,1.027-1.967,3.229,3.229,0,0,0-.99-2.061,6.944,6.944,0,0,0-1.938-1.292,8.757,8.757,0,0,0-3.713-1,36.968,36.968,0,0,1,4.4-3.59c.142-.1.286-.194.429-.291l2.074,3.485a7.1,7.1,0,0,0,1.656,2.117,2.422,2.422,0,0,0,2.536.366,2.129,2.129,0,0,0,1.027-1.968,3.227,3.227,0,0,0-.99-2.061,6.943,6.943,0,0,0-1.938-1.292,8.63,8.63,0,0,0-3.834-1,37.677,37.677,0,0,1,5.559-2.985l2.237,3.45a7.094,7.094,0,0,0,1.737,2.052,2.421,2.421,0,0,0,2.548.269,2.129,2.129,0,0,0,.95-2.005,3.225,3.225,0,0,0-1.068-2.022,6.946,6.946,0,0,0-1.986-1.216,8.922,8.922,0,0,0-3.625-.86,37.218,37.218,0,0,1,4.329-1.459c.435-.117.874-.223,1.313-.324l2.417,3.473a7.107,7.107,0,0,0,1.8,1.994,2.422,2.422,0,0,0,2.556.185,2.129,2.129,0,0,0,.883-2.035,3.224,3.224,0,0,0-1.134-1.986,6.935,6.935,0,0,0-2.025-1.151,9.413,9.413,0,0,0-3.25-.745,35.529,35.529,0,0,1,4.551-.571l3.684,1.856a7.114,7.114,0,0,0,2.537.9,2.424,2.424,0,0,0,2.337-1.052,2.125,2.125,0,0,0-.192-2.209,3.235,3.235,0,0,0-1.945-1.206,6.946,6.946,0,0,0-2.33-.049,8.308,8.308,0,0,0-4.032,1.4h-.015a35.846,35.846,0,0,0-4.842.618,9.2,9.2,0,0,0,2.528-2.415,6.956,6.956,0,0,0,1.131-2.037,3.229,3.229,0,0,0-.064-2.286,2.129,2.129,0,0,0-1.813-1.278,2.426,2.426,0,0,0-2.086,1.487,7.114,7.114,0,0,0-.5,2.642q-.126,2.057-.251,4.113a36.993,36.993,0,0,0-5.7,1.794A8.973,8.973,0,0,0,471,170.334a6.935,6.935,0,0,0,.59-2.253,3.229,3.229,0,0,0-.63-2.2,2.131,2.131,0,0,0-2.075-.789,2.423,2.423,0,0,0-1.652,1.958,7.108,7.108,0,0,0,.168,2.683l.779,4.044-.173.074a38.261,38.261,0,0,0-5.42,2.931,8.471,8.471,0,0,0,1.575-3.78,6.921,6.921,0,0,0,.121-2.324,3.226,3.226,0,0,0-1.062-2.025,2.13,2.13,0,0,0-2.192-.352,2.419,2.419,0,0,0-1.221,2.251,7.116,7.116,0,0,0,.709,2.593l1.634,3.924-.071.048-.038-.015.017.029a37.57,37.57,0,0,0-4.69,3.733,9.179,9.179,0,0,0,.154-3.7,7.067,7.067,0,0,0-.631-2.287,3.292,3.292,0,0,0-1.678-1.618,2.17,2.17,0,0,0-2.23.361,2.465,2.465,0,0,0-.456,2.568,7.258,7.258,0,0,0,1.519,2.28l2.568,2.957.06.1a35.776,35.776,0,0,0-4.253,5.049c-.133.191.14.435.275.241a35.8,35.8,0,0,1,4.171-4.966l1.967,3.306a7.1,7.1,0,0,0,1.657,2.117,2.422,2.422,0,0,0,2.536.366" transform="translate(-149.005 -53.82)" fill="#ffb27a"/>
            <path id="Trazado_224758" data-name="Trazado 224758" d="M461.612,147.779a8.764,8.764,0,0,1-2.729.3,27.37,27.37,0,0,1-6.908-.478,13.222,13.222,0,0,1-4.71-1.9l-.561-.41a4.933,4.933,0,0,1-.516-.449c-.127-.115-.253-.231-.372-.352a2.268,2.268,0,0,1-.19-.186,12.54,12.54,0,0,1-2.833-12.964c.8-2.183,2.527-4.941,3.963-4.625a1.706,1.706,0,0,0,.864.177c.719-.1,1.018-.907,1.517-1.941.919-1.916,1.365-2.88,2.05-3.2a11.617,11.617,0,0,1,2.693-.363c1.1-.1,1.163-.061,1.355-.178.938-.614.084-2.189.794-3.911a4.032,4.032,0,0,1,3.33-2.5c.835-.008,1.045.37,2.615.539a5.2,5.2,0,0,0,2.214-.017c2.063-.718,1.335-4.352,3.087-4.794.866-.216,1.964.437,3.014,1.058,1.064.65,1.2,1.034,1.66,1.247,2.613,1.253,7.395-7.1,8.558-6.406.882.529.2,6.787-1.827,10.462a4.246,4.246,0,0,0-.72,3.012c.3,1.574,1.521,1.937,1.5,3.018-.025.544-.342.84-3.406,3.377-.982.8-1.665,1.361-1.512,1.957s.988.761,1.177,1.6a1.428,1.428,0,0,1-.08.884c-.5,1.536-2.433,2.784-3.393,3.374-1.915,1.19-2.988,1.63-2.871,2.131.137.492,1.234.4,1.677,1.243a2,2,0,0,1-.158,1.767c-.344.61-.942.815-2.773,1.247-1.878.446-2.182.45-3.167.725-1.705.445-3.254.857-3.26,1.592,0,.664,1.22.906,1.582,2.131a2.152,2.152,0,0,1-1.664,2.829" transform="translate(-145.617 -35.045)" fill="#5085c7"/>
            <path id="Trazado_224759" data-name="Trazado 224759" d="M460.322,149.14c-.96.653-2.133-.047-3.076-.382a17.1,17.1,0,0,0-8.173-.815l.015-.016c1.483-1.5,2.846-3.134,4.215-4.714a45.325,45.325,0,0,1,4.494-4.655,27.954,27.954,0,0,1,4.409-3.01l0,0c1.987.259,3.735,1.28,5.674,1.7,1.7.373,3.753.072,4.667-1.587.081-.148-.158-.255-.239-.108-.966,1.754-3.22,1.786-4.914,1.3a46.166,46.166,0,0,0-4.828-1.518l.008,0,.549-.312a19.955,19.955,0,0,0,4.23-2.929,29.22,29.22,0,0,0,2.4-2.654,9.207,9.207,0,0,0,5.454-1.271c.143-.089-.009-.3-.152-.213a8.876,8.876,0,0,1-5.1,1.233c.041-.048.075-.1.116-.144a81.894,81.894,0,0,0,5.016-6.95c.133-.21.271-.423.4-.638.087-.139-.113-.3-.2-.166a77.076,77.076,0,0,1-4.657,6.624c-.88,1.13-1.786,2.241-2.768,3.29-.229.239-.456.471-.695.685h0a3.609,3.609,0,0,1,.015-2.733,8.194,8.194,0,0,0-1.379-6.813c-.1-.135-.314.016-.214.152a8.026,8.026,0,0,1,1.565,4.71,10.877,10.877,0,0,1-.38,2.525,3.041,3.041,0,0,0,.193,2.336s0,0,.007,0h0a16.166,16.166,0,0,1-2.456,1.837c-1.811,1.111-3.735,2.025-5.451,3.287a31.262,31.262,0,0,0-4.539,4.23c-.119.13-.236.264-.353.4v0c-.533-2.174-1.074-4.466-.479-6.687a6.1,6.1,0,0,1,.607-1.467,8.839,8.839,0,0,0,.747-1.353,4.142,4.142,0,0,0-.236-2.729c-.053-.16-.3-.07-.246.089a6.433,6.433,0,0,1,.37,1.549,2.662,2.662,0,0,1-.374,1.51c-.26.466-.569.9-.787,1.387a6.76,6.76,0,0,0-.435,1.378,14.745,14.745,0,0,0,.6,6.458.1.1,0,0,0,.053.068l0,0c-1.77,1.992-3.452,4.089-5.344,5.962l-.017.017a.119.119,0,0,0-.048.047l-.007.006c-.392.388-.791.766-1.205,1.124a2.491,2.491,0,0,0,.19.186c.419-.368.822-.75,1.219-1.141l0,0a17.167,17.167,0,0,1,6.08.127,17.668,17.668,0,0,1,2.978.9,2.756,2.756,0,0,0,2.633.091c.139-.095-.012-.308-.152-.213" transform="translate(-147.361 -39.936)" fill="#fff"/>
            <rect id="Rectángulo_48448" data-name="Rectángulo 48448" width="235.57" height="133.706" transform="translate(58.119 52.675)" fill="#fff"/>
            <path id="Trazado_224760" data-name="Trazado 224760" d="M322.446,72.317H84.5a3.389,3.389,0,0,0-3.545,3.205v141.34a3.389,3.389,0,0,0,3.545,3.206H322.446a3.388,3.388,0,0,0,3.544-3.206V75.522a3.388,3.388,0,0,0-3.544-3.205m-2.63,128.864a3.568,3.568,0,0,1-3.759,3.335H89.455a3.567,3.567,0,0,1-3.759-3.335V79.83A3.565,3.565,0,0,1,89.455,76.5h226.6a3.566,3.566,0,0,1,3.759,3.335Z" transform="translate(-26.666 -23.821)" fill="#a0acdb"/>
            <path id="Trazado_224761" data-name="Trazado 224761" d="M256.174,277a5.732,5.732,0,1,1,5.731,5.732A5.732,5.732,0,0,1,256.174,277" transform="translate(-84.382 -89.356)" fill="#fff"/>
            <g id="Grupo_114281" data-name="Grupo 114281" transform="translate(172.819 182.945)" style="mix-blend-mode: multiply;isolation: isolate">
              <g id="Grupo_114280" data-name="Grupo 114280">
                <g id="Grupo_114279" data-name="Grupo 114279" clip-path="url(#clip-path-3)">
                  <path id="Trazado_224762" data-name="Trazado 224762" d="M265.673,272.806a5.723,5.723,0,0,1-7.967,7.967,5.727,5.727,0,1,0,7.967-7.967" transform="translate(-257.705 -272.806)" fill="#dde1f0"/>
                </g>
              </g>
            </g>
            <path id="Trazado_224763" data-name="Trazado 224763" d="M302.006,364.589H271.469c-11.75-.9-26.08-1.433-41.527-1.433s-29.777.53-41.527,1.433H157.878a1.088,1.088,0,0,0-.3.716v5.732a1.088,1.088,0,0,0,.3.716c3.338,4.026,34.334,7.165,72.063,7.165s68.725-3.138,72.064-7.165a1.092,1.092,0,0,0,.3-.716v-5.732a1.092,1.092,0,0,0-.3-.716" transform="translate(-51.905 -119.621)" fill="#515f94"/>
            <path id="Trazado_224764" data-name="Trazado 224764" d="M302.307,362.49c0,1.017-1.748,1.977-4.93,2.866h-.014c-5.231,1.461-14.315,2.708-25.894,3.582-11.75.9-26.079,1.433-41.527,1.433s-29.776-.53-41.527-1.433c-11.579-.874-20.663-2.121-25.894-3.582h-.014c-3.181-.889-4.929-1.849-4.929-2.866a1.087,1.087,0,0,1,.3-.716c3.339-4.027,34.334-7.165,72.063-7.165s68.726,3.138,72.064,7.165a1.088,1.088,0,0,1,.3.716" transform="translate(-51.905 -116.806)" fill="#6674a8"/>
            <path id="Trazado_224765" data-name="Trazado 224765" d="M277.141,339.929h-53.02l7.8-42.831v-.015l.8-4.442h37.258Z" transform="translate(-73.824 -96.394)" fill="#6674a8"/>
            <path id="Trazado_224766" data-name="Trazado 224766" d="M280.969,339.929h-6.306s-3-25.873-10.322-34.335c-9.644-11.12-28.6-8.5-28.6-8.5v-.015l.8-4.442H273.8Z" transform="translate(-77.653 -96.394)" fill="#515f94"/>
            <path id="Trazado_224767" data-name="Trazado 224767" d="M356.143,69.741H172.58a6.978,6.978,0,0,1-6.978-6.978V52.748a6.978,6.978,0,0,1,6.978-6.978H356.143a6.978,6.978,0,0,1,6.978,6.978V62.763a6.978,6.978,0,0,1-6.978,6.978" transform="translate(-54.548 -15.076)" fill="#326ab3"/>
            <path id="Trazado_224768" data-name="Trazado 224768" d="M176.985,56.831a1.912,1.912,0,1,1,1.909,1.792,1.853,1.853,0,0,1-1.909-1.792" transform="translate(-58.298 -18.129)" fill="#fff"/>
            <path id="Trazado_224769" data-name="Trazado 224769" d="M184.953,56.831a1.912,1.912,0,1,1,1.909,1.792,1.853,1.853,0,0,1-1.909-1.792" transform="translate(-60.922 -18.129)" fill="#fff"/>
            <path id="Trazado_224770" data-name="Trazado 224770" d="M192.922,56.831a1.912,1.912,0,1,1,1.909,1.792,1.853,1.853,0,0,1-1.909-1.792" transform="translate(-63.547 -18.129)" fill="#fff"/>
            <path id="Trazado_224771" data-name="Trazado 224771" d="M337.213,59.261H209.541a3.053,3.053,0,1,1,0-6.093H337.213a3.053,3.053,0,1,1,0,6.093" transform="translate(-67.953 -17.513)" fill="#fff"/>
            <path id="Trazado_224772" data-name="Trazado 224772" d="M433.132,59.261H415.574a3.053,3.053,0,1,1,0-6.093h17.557a3.053,3.053,0,1,1,0,6.093" transform="translate(-135.819 -17.513)" fill="#fff"/>
            <path id="Trazado_224773" data-name="Trazado 224773" d="M360.676,195.586H168.835a2.036,2.036,0,0,1-2.036-2.036V68.748a2.036,2.036,0,0,1,2.036-2.036H360.676a2.036,2.036,0,0,1,2.036,2.036v124.8a2.036,2.036,0,0,1-2.036,2.036" transform="translate(-54.943 -21.975)" fill="#fff"/>
            <path id="Trazado_224774" data-name="Trazado 224774" d="M358.467,195.995H170.256a4.654,4.654,0,0,1-4.654-4.654V70.168a4.654,4.654,0,0,1,4.654-4.654H358.467a4.654,4.654,0,0,1,4.654,4.654V191.341a4.654,4.654,0,0,1-4.654,4.654M170.256,67.119a3.048,3.048,0,0,0-3.048,3.049V191.341a3.048,3.048,0,0,0,3.048,3.048H358.467a3.048,3.048,0,0,0,3.048-3.048V70.168a3.048,3.048,0,0,0-3.048-3.049Z" transform="translate(-54.548 -21.58)" fill="#326ab3"/>
            <path id="Trazado_224775" data-name="Trazado 224775" d="M290.319,138.164l9.743,3.267a42.061,42.061,0,0,0-2.53,12.188H287.226a52,52,0,0,1,3.093-15.455" transform="translate(-94.61 -45.51)" fill="#fce9c5"/>
            <path id="Trazado_224776" data-name="Trazado 224776" d="M314.639,112.958a42.585,42.585,0,0,0-10.811,14.048l-9.787-3.281a53.155,53.155,0,0,1,10.884-15.673q1.433-1.433,2.952-2.742Z" transform="translate(-96.855 -34.688)" fill="#fcdea6"/>
            <path id="Trazado_224777" data-name="Trazado 224777" d="M341.6,98.034a42.219,42.219,0,0,0-15.584,6.813l-6.8-7.693a52.112,52.112,0,0,1,20.339-9.2Z" transform="translate(-105.148 -28.972)" fill="#fcd488"/>
            <path id="Trazado_224778" data-name="Trazado 224778" d="M399.242,101.56l-7.664,6.776a42.372,42.372,0,0,0-34.245-11.491l-2.055-10.111a52.388,52.388,0,0,1,43.964,14.825" transform="translate(-117.026 -28.416)" fill="#fcbf79"/>
            <path id="Trazado_224779" data-name="Trazado 224779" d="M434.071,145.432h-10.3a42.231,42.231,0,0,0-10.342-25.365l7.646-6.757a52.159,52.159,0,0,1,13,32.122" transform="translate(-136.18 -37.324)" fill="#fca76a"/>
            <path id="Trazado_224780" data-name="Trazado 224780" d="M384.856,93.187l-19.08,34.3,4.55,2.755Z" transform="translate(-120.484 -30.695)" fill="#6275b5"/>
            <path id="Trazado_224781" data-name="Trazado 224781" d="M357.538,148.744a6.486,6.486,0,1,1,6.486,6.486,6.486,6.486,0,0,1-6.486-6.486" transform="translate(-117.771 -46.859)" fill="#6275b5"/>
            <path id="Trazado_224782" data-name="Trazado 224782" d="M360.371,149.677a4.586,4.586,0,1,1,4.586,4.586,4.586,4.586,0,0,1-4.586-4.586" transform="translate(-118.704 -47.792)" fill="#95a7e8"/>
            <path id="Trazado_224783" data-name="Trazado 224783" d="M363.844,150.821a2.258,2.258,0,1,1,2.257,2.258,2.257,2.257,0,0,1-2.257-2.258" transform="translate(-119.848 -48.936)" fill="#fff"/>
            <path id="Trazado_224784" data-name="Trazado 224784" d="M392.681,178.644H288.065a.838.838,0,0,1-.838-.838v-.088a.838.838,0,0,1,.838-.839H392.681a.839.839,0,0,1,.838.839v.088a.839.839,0,0,1-.838.838" transform="translate(-94.611 -58.263)" fill="#c9cef0"/>
            <path id="Trazado_224785" data-name="Trazado 224785" d="M392.681,188.5H288.065a.838.838,0,0,1-.838-.838v-.088a.838.838,0,0,1,.838-.839H392.681a.839.839,0,0,1,.838.839v.088a.839.839,0,0,1-.838.838" transform="translate(-94.611 -61.509)" fill="#c9cef0"/>
            <path id="Trazado_224786" data-name="Trazado 224786" d="M392.681,198.354H288.065a.838.838,0,0,1-.838-.838v-.088a.838.838,0,0,1,.838-.839H392.681a.839.839,0,0,1,.838.839v.088a.839.839,0,0,1-.838.838" transform="translate(-94.611 -64.755)" fill="#c9cef0"/>
            <path id="Trazado_224787" data-name="Trazado 224787" d="M392.681,208.209H288.065a.838.838,0,0,1-.838-.838v-.088a.838.838,0,0,1,.838-.839H392.681a.839.839,0,0,1,.838.839v.088a.839.839,0,0,1-.838.838" transform="translate(-94.611 -68.001)" fill="#c9cef0"/>
            <path id="Trazado_224788" data-name="Trazado 224788" d="M295.244,223.594h-5.33a1.919,1.919,0,0,0-1.919,1.919v5.33a1.919,1.919,0,0,0,1.919,1.919h5.33a1.919,1.919,0,0,0,1.919-1.919v-5.33a1.919,1.919,0,0,0-1.919-1.919" transform="translate(-94.864 -73.65)" fill="#c9cef0"/>
            <path id="Trazado_224789" data-name="Trazado 224789" d="M317.5,223.594h-5.33a1.919,1.919,0,0,0-1.919,1.919v5.33a1.919,1.919,0,0,0,1.919,1.919h5.33a1.919,1.919,0,0,0,1.919-1.919v-5.33a1.919,1.919,0,0,0-1.919-1.919" transform="translate(-102.194 -73.65)" fill="#c9cef0"/>
            <path id="Trazado_224790" data-name="Trazado 224790" d="M339.75,223.594h-5.33a1.919,1.919,0,0,0-1.919,1.919v5.33a1.919,1.919,0,0,0,1.919,1.919h5.33a1.919,1.919,0,0,0,1.919-1.919v-5.33a1.919,1.919,0,0,0-1.919-1.919" transform="translate(-109.524 -73.65)" fill="#c9cef0"/>
            <path id="Trazado_224791" data-name="Trazado 224791" d="M420.142,225.345H371.409a.832.832,0,0,1-.832-.832v-.087a.832.832,0,0,1,.832-.832h48.734a.833.833,0,0,1,.832.832v.087a.832.832,0,0,1-.832.832" transform="translate(-122.066 -73.65)" fill="#c9cef0"/>
            <path id="Trazado_224792" data-name="Trazado 224792" d="M420.142,236.4H371.409a.832.832,0,0,1-.832-.832v-.087a.832.832,0,0,1,.832-.832h48.734a.833.833,0,0,1,.832.832v.087a.832.832,0,0,1-.832.832" transform="translate(-122.066 -77.293)" fill="#c9cef0"/>
            <path id="Trazado_224793" data-name="Trazado 224793" d="M212.264,87.665v95.041a3.439,3.439,0,0,1-3.44,3.44H113.783a3.44,3.44,0,0,1-3.44-3.44V87.665a3.44,3.44,0,0,1,3.44-3.44h95.041a3.44,3.44,0,0,1,3.44,3.44" transform="translate(-36.346 -27.743)" fill="#70bdff"/>
            <path id="Rectángulo_48450" data-name="Rectángulo 48450" d="M3.5,0H95.125a3.5,3.5,0,0,1,3.5,3.5V95.127a3.5,3.5,0,0,1-3.5,3.5H3.5a3.5,3.5,0,0,1-3.5-3.5V3.5A3.5,3.5,0,0,1,3.5,0Z" transform="translate(75.644 58.129)" fill="#fff"/>
            <path id="Trazado_224794" data-name="Trazado 224794" d="M212.264,87.665V99.3H110.343V87.665a3.44,3.44,0,0,1,3.44-3.44h95.041a3.44,3.44,0,0,1,3.44,3.44" transform="translate(-36.346 -27.743)" fill="#70bdff"/>
            <path id="Trazado_224795" data-name="Trazado 224795" d="M196.626,92.233h-75.2a1.226,1.226,0,0,0-1.226,1.226v3.228a1.226,1.226,0,0,0,1.226,1.226h75.2a1.226,1.226,0,0,0,1.226-1.226V93.459a1.226,1.226,0,0,0-1.226-1.226" transform="translate(-39.592 -30.381)" fill="#fff"/>
            <path id="Trazado_224796" data-name="Trazado 224796" d="M248.835,96.886l-1.206-.845a.315.315,0,0,0-.044-.025,1.569,1.569,0,1,0-.358.453.3.3,0,0,0,.06.059l1.206.845a.3.3,0,0,0,.222.05.3.3,0,0,0,.119-.537M246.2,96.41a1.116,1.116,0,1,1,1.116-1.116A1.117,1.117,0,0,1,246.2,96.41" transform="translate(-80.583 -30.875)" fill="#70bdff"/>
            <path id="Trazado_224797" data-name="Trazado 224797" d="M247.59,97.912h-5.06a2.84,2.84,0,1,1,0-5.679h5.06a2.84,2.84,0,1,1,0,5.679" transform="translate(-78.952 -30.381)" fill="#fff"/>
            <path id="Trazado_224798" data-name="Trazado 224798" d="M248.625,97.034,247.142,96a.391.391,0,0,0-.054-.03,1.932,1.932,0,1,0-.441.557.345.345,0,0,0,.074.072l1.483,1.04a.366.366,0,0,0,.42-.6m-3.239-.586a1.372,1.372,0,1,1,1.372-1.372,1.374,1.374,0,0,1-1.372,1.372" transform="translate(-80.196 -30.685)" fill="#70bdff"/>
            <path id="Trazado_224799" data-name="Trazado 224799" d="M183.665,121.8H122.924a2.88,2.88,0,0,0-2.88,2.88v18.3a2.88,2.88,0,0,0,2.88,2.88h60.741a2.88,2.88,0,0,0,2.88-2.88v-18.3a2.88,2.88,0,0,0-2.88-2.88" transform="translate(-39.542 -40.119)" fill="#fcbf79"/>
            <rect id="Rectángulo_48451" data-name="Rectángulo 48451" width="5.783" height="5.783" transform="translate(155.364 81.678)" fill="#d1d5ed"/>
            <rect id="Rectángulo_48452" data-name="Rectángulo 48452" width="5.783" height="5.783" transform="translate(162.91 81.678)" fill="#d1d5ed"/>
            <rect id="Rectángulo_48453" data-name="Rectángulo 48453" width="5.783" height="5.783" transform="translate(155.364 90.869)" fill="#d1d5ed"/>
            <rect id="Rectángulo_48454" data-name="Rectángulo 48454" width="5.783" height="5.783" transform="translate(162.91 90.869)" fill="#d1d5ed"/>
            <rect id="Rectángulo_48455" data-name="Rectángulo 48455" width="5.783" height="5.783" transform="translate(155.364 100.059)" fill="#d1d5ed"/>
            <rect id="Rectángulo_48456" data-name="Rectángulo 48456" width="5.783" height="5.783" transform="translate(162.91 100.059)" fill="#d1d5ed"/>
            <path id="Trazado_224800" data-name="Trazado 224800" d="M207.145,166.565H121.024a.826.826,0,1,1,0-1.652h86.121a.826.826,0,1,1,0,1.652" transform="translate(-39.592 -54.321)" fill="#d1d5ed"/>
            <path id="Trazado_224801" data-name="Trazado 224801" d="M207.145,172.262H121.024a.826.826,0,0,1,0-1.652h86.121a.826.826,0,1,1,0,1.652" transform="translate(-39.592 -56.198)" fill="#d1d5ed"/>
            <path id="Trazado_224802" data-name="Trazado 224802" d="M124.638,185.085h-2.167a2.427,2.427,0,0,0-2.427,2.427v2.167a2.427,2.427,0,0,0,2.427,2.428h2.167a2.427,2.427,0,0,0,2.427-2.428v-2.167a2.427,2.427,0,0,0-2.427-2.427" transform="translate(-39.542 -60.966)" fill="#d1d5ed"/>
            <path id="Trazado_224803" data-name="Trazado 224803" d="M138.5,185.085H136.33a2.427,2.427,0,0,0-2.427,2.427v2.167a2.427,2.427,0,0,0,2.427,2.428H138.5a2.428,2.428,0,0,0,2.428-2.428v-2.167a2.427,2.427,0,0,0-2.428-2.427" transform="translate(-44.107 -60.966)" fill="#d1d5ed"/>
            <path id="Trazado_224804" data-name="Trazado 224804" d="M152.356,185.085h-2.167a2.427,2.427,0,0,0-2.427,2.427v2.167a2.427,2.427,0,0,0,2.427,2.428h2.167a2.428,2.428,0,0,0,2.428-2.428v-2.167a2.427,2.427,0,0,0-2.428-2.427" transform="translate(-48.672 -60.966)" fill="#d1d5ed"/>
            <rect id="Rectángulo_48457" data-name="Rectángulo 48457" width="25.506" height="18.794" transform="translate(80.606 135.582)" fill="#d1d5ed"/>
            <rect id="Rectángulo_48458" data-name="Rectángulo 48458" width="55.452" height="7.022" transform="translate(112.927 124.119)" fill="#d1d5ed"/>
            <path id="Trazado_224805" data-name="Trazado 224805" d="M222.97,203.933h-53.7a.878.878,0,0,1,0-1.756h53.7a.878.878,0,1,1,0,1.756" transform="translate(-55.468 -66.596)" fill="#d1d5ed"/>
            <path id="Trazado_224806" data-name="Trazado 224806" d="M222.97,213.48h-53.7a.878.878,0,0,1,0-1.756h53.7a.878.878,0,1,1,0,1.756" transform="translate(-55.468 -69.741)" fill="#d1d5ed"/>
            <path id="Trazado_224807" data-name="Trazado 224807" d="M222.97,223.027h-53.7a.878.878,0,0,1,0-1.756h53.7a.878.878,0,1,1,0,1.756" transform="translate(-55.468 -72.885)" fill="#d1d5ed"/>
            <path id="Trazado_224808" data-name="Trazado 224808" d="M139.215,142.115V134.68h.984v6.557h3.662v.877Z" transform="translate(-45.857 -44.363)" fill="#fff"/>
            <path id="Trazado_224809" data-name="Trazado 224809" d="M147.208,140.369a2.776,2.776,0,0,1,.832-2.216,2.51,2.51,0,0,1,1.694-.6,2.417,2.417,0,0,1,1.815.728,2.769,2.769,0,0,1,.7,2.011,3.561,3.561,0,0,1-.312,1.635,2.2,2.2,0,0,1-.908.925,2.64,2.64,0,0,1-1.3.33,2.421,2.421,0,0,1-1.828-.726,2.9,2.9,0,0,1-.7-2.089m.938,0a2.293,2.293,0,0,0,.451,1.549,1.5,1.5,0,0,0,2.267,0,2.346,2.346,0,0,0,.451-1.577,2.224,2.224,0,0,0-.454-1.514,1.5,1.5,0,0,0-2.264,0,2.282,2.282,0,0,0-.451,1.546" transform="translate(-48.489 -45.309)" fill="#fff"/>
            <path id="Trazado_224810" data-name="Trazado 224810" d="M159.689,142.4a3.4,3.4,0,0,1-.976.608,2.815,2.815,0,0,1-1.007.178,1.956,1.956,0,0,1-1.364-.434,1.43,1.43,0,0,1-.477-1.108,1.472,1.472,0,0,1,.18-.722,1.488,1.488,0,0,1,.471-.525,2.217,2.217,0,0,1,.657-.3,6.391,6.391,0,0,1,.811-.137,8.368,8.368,0,0,0,1.628-.315c0-.125,0-.2,0-.239a1.009,1.009,0,0,0-.258-.786,1.53,1.53,0,0,0-1.039-.309,1.608,1.608,0,0,0-.951.226,1.377,1.377,0,0,0-.454.8l-.893-.122a2.21,2.21,0,0,1,.4-.925,1.759,1.759,0,0,1,.807-.543,3.6,3.6,0,0,1,1.222-.19,3.236,3.236,0,0,1,1.121.162,1.485,1.485,0,0,1,.634.408,1.444,1.444,0,0,1,.284.621,5.1,5.1,0,0,1,.046.842V140.8a12.9,12.9,0,0,0,.058,1.61,2.03,2.03,0,0,0,.231.646h-.954a1.944,1.944,0,0,1-.182-.664m-.076-2.039a6.679,6.679,0,0,1-1.491.345,3.5,3.5,0,0,0-.8.182.794.794,0,0,0-.359.3.807.807,0,0,0,.15,1.042,1.187,1.187,0,0,0,.809.243,1.887,1.887,0,0,0,.938-.231,1.424,1.424,0,0,0,.6-.632,2.206,2.206,0,0,0,.147-.913Z" transform="translate(-51.341 -45.309)" fill="#fff"/>
            <path id="Trazado_224811" data-name="Trazado 224811" d="M168.273,142.115v-.679a1.676,1.676,0,0,1-1.506.8,2.112,2.112,0,0,1-1.184-.355,2.337,2.337,0,0,1-.837-.991,3.435,3.435,0,0,1-.3-1.463,3.829,3.829,0,0,1,.269-1.463,2.117,2.117,0,0,1,.806-1.007,2.154,2.154,0,0,1,1.2-.349,1.789,1.789,0,0,1,.867.205,1.812,1.812,0,0,1,.619.535v-2.668h.907v7.434Zm-2.886-2.688a2.337,2.337,0,0,0,.436,1.546,1.315,1.315,0,0,0,1.029.512,1.29,1.29,0,0,0,1.017-.489,2.255,2.255,0,0,0,.418-1.493,2.53,2.53,0,0,0-.426-1.623,1.31,1.31,0,0,0-1.049-.517,1.264,1.264,0,0,0-1.017.5,2.451,2.451,0,0,0-.408,1.567" transform="translate(-54.168 -44.363)" fill="#fff"/>
            <path id="Trazado_224812" data-name="Trazado 224812" d="M173.561,134.681h.913v1.049h-.913Zm0,2.049h.913v5.386h-.913Z" transform="translate(-57.17 -44.363)" fill="#fff"/>
            <path id="Trazado_224813" data-name="Trazado 224813" d="M176.994,143.061v-5.386h.821v.766a1.936,1.936,0,0,1,1.714-.887,2.249,2.249,0,0,1,.9.175,1.414,1.414,0,0,1,.611.459,1.766,1.766,0,0,1,.284.675,5.175,5.175,0,0,1,.051.887v3.311h-.913v-3.276a2.458,2.458,0,0,0-.107-.834.88.88,0,0,0-.378-.441,1.2,1.2,0,0,0-.637-.165,1.478,1.478,0,0,0-1.006.371,1.825,1.825,0,0,0-.424,1.4v2.941Z" transform="translate(-58.301 -45.309)" fill="#fff"/>
            <path id="Trazado_224814" data-name="Trazado 224814" d="M185.267,143.507l.888.132a.844.844,0,0,0,.309.6,1.52,1.52,0,0,0,.928.253,1.63,1.63,0,0,0,.978-.253,1.248,1.248,0,0,0,.467-.71,5.874,5.874,0,0,0,.066-1.172,1.877,1.877,0,0,1-1.491.7,2.033,2.033,0,0,1-1.719-.8,3.089,3.089,0,0,1-.608-1.922,3.581,3.581,0,0,1,.279-1.422,2.229,2.229,0,0,1,.809-1.007,2.184,2.184,0,0,1,1.245-.355,1.932,1.932,0,0,1,1.573.771v-.649h.842v4.655a4.411,4.411,0,0,1-.256,1.782,1.872,1.872,0,0,1-.811.829,2.807,2.807,0,0,1-1.367.3,2.576,2.576,0,0,1-1.556-.433,1.467,1.467,0,0,1-.573-1.306m.756-3.235a2.332,2.332,0,0,0,.421,1.546,1.388,1.388,0,0,0,2.109,0,2.258,2.258,0,0,0,.426-1.519,2.208,2.208,0,0,0-.439-1.491,1.355,1.355,0,0,0-1.057-.5,1.317,1.317,0,0,0-1.035.494,2.2,2.2,0,0,0-.426,1.468" transform="translate(-60.966 -45.309)" fill="#fff"/>
            <rect id="Rectángulo_48459" data-name="Rectángulo 48459" width="1.039" height="1.039" transform="translate(130.503 96.712)" fill="#fff"/>
            <rect id="Rectángulo_48460" data-name="Rectángulo 48460" width="1.039" height="1.039" transform="translate(133.389 96.712)" fill="#fff"/>
            <rect id="Rectángulo_48461" data-name="Rectángulo 48461" width="1.039" height="1.039" transform="translate(136.275 96.712)" fill="#fff"/>
            <rect id="Rectángulo_48462" data-name="Rectángulo 48462" width="3.337" height="11.679" transform="translate(48.911 184.846) rotate(-28.548)" fill="#23599e"/>
            <path id="Trazado_224815" data-name="Trazado 224815" d="M75.786,267.758a5.439,5.439,0,1,1-7.546-1.489,5.439,5.439,0,0,1,7.546,1.489" transform="translate(-21.684 -87.404)" fill="#326ab3"/>
            <g id="Grupo_114284" data-name="Grupo 114284" transform="translate(45.343 179.56)" style="mix-blend-mode: overlay;isolation: isolate">
              <g id="Grupo_114283" data-name="Grupo 114283">
                <g id="Grupo_114282" data-name="Grupo 114282" clip-path="url(#clip-path-4)">
                  <path id="Trazado_224816" data-name="Trazado 224816" d="M70.348,270.547c-.763,1.064-1.837,1.6-2.4,1.2s-.4-1.593.365-2.656,1.838-1.6,2.4-1.2.4,1.592-.365,2.656" transform="translate(-67.614 -267.757)" fill="#ccc"/>
                </g>
              </g>
            </g>
            <rect id="Rectángulo_48464" data-name="Rectángulo 48464" width="30.685" height="4.681" transform="translate(71.312 207.299) rotate(-77.951)" fill="#23599e"/>
            <path id="Trazado_224817" data-name="Trazado 224817" d="M53.67,305.524a35.626,35.626,0,1,0,42.278-27.406A35.626,35.626,0,0,0,53.67,305.524" transform="translate(-17.418 -91.349)" fill="#326ab3"/>
            <g id="Grupo_114287" data-name="Grupo 114287" transform="translate(63.568 185.977)" style="mix-blend-mode: multiply;isolation: isolate">
              <g id="Grupo_114286" data-name="Grupo 114286">
                <g id="Grupo_114285" data-name="Grupo 114285" clip-path="url(#clip-path-5)">
                  <path id="Trazado_224818" data-name="Trazado 224818" d="M109.754,278.119a35.5,35.5,0,0,0-14.962.011,35.635,35.635,0,0,1,13.354,69.986,35.632,35.632,0,0,0,1.607-70" transform="translate(-94.792 -277.327)" fill="#ccc"/>
                </g>
              </g>
            </g>
            <path id="Trazado_224819" data-name="Trazado 224819" d="M60.166,308.619A31.205,31.205,0,1,0,97.2,284.614a31.2,31.2,0,0,0-37.032,24.005" transform="translate(-19.59 -93.522)" fill="#fff"/>
            <path id="Trazado_224820" data-name="Trazado 224820" d="M98.827,368.643a2.249,2.249,0,1,0-2.669,1.73,2.248,2.248,0,0,0,2.669-1.73" transform="translate(-31.087 -120.533)" fill="#d1d5ed"/>
            <path id="Trazado_224821" data-name="Trazado 224821" d="M74.91,351.612a1.312,1.312,0,1,0-1.557,1.009,1.312,1.312,0,0,0,1.557-1.009" transform="translate(-23.82 -115.296)" fill="#d1d5ed"/>
            <path id="Trazado_224822" data-name="Trazado 224822" d="M127.164,360.279a1.312,1.312,0,1,0,1.009,1.557,1.312,1.312,0,0,0-1.009-1.557" transform="translate(-41.364 -118.664)" fill="#d1d5ed"/>
            <path id="Trazado_224823" data-name="Trazado 224823" d="M135.831,308.025a1.312,1.312,0,1,0,1.557-1.009,1.312,1.312,0,0,0-1.557,1.009" transform="translate(-44.732 -101.119)" fill="#d1d5ed"/>
            <path id="Trazado_224824" data-name="Trazado 224824" d="M83.577,299.359a1.312,1.312,0,1,0-1.009-1.557,1.312,1.312,0,0,0,1.009,1.557" transform="translate(-27.188 -97.752)" fill="#d1d5ed"/>
            <path id="Trazado_224825" data-name="Trazado 224825" d="M144.194,335.442a2.249,2.249,0,1,0,1.73,2.669,2.248,2.248,0,0,0-1.73-2.669" transform="translate(-46.601 -110.476)" fill="#d1d5ed"/>
            <path id="Trazado_224826" data-name="Trazado 224826" d="M110.994,290.074a2.249,2.249,0,1,0,2.668-1.73,2.248,2.248,0,0,0-2.668,1.73" transform="translate(-36.544 -94.962)" fill="#d1d5ed"/>
            <path id="Trazado_224827" data-name="Trazado 224827" d="M65.626,323.275a2.249,2.249,0,1,0-1.73-2.669,2.249,2.249,0,0,0,1.73,2.669" transform="translate(-21.03 -105.019)" fill="#d1d5ed"/>
            <path id="Trazado_224828" data-name="Trazado 224828" d="M109.91,300.588a10.339,10.339,0,0,1-.221-1.742,10.268,10.268,0,0,1-.915,1.5c-.451.613-.755.879-.709,1.233a.818.818,0,0,0,.369.532l-4.38,20.478,1.064.23,4.38-20.478a.816.816,0,0,0,.554-.333c.187-.3.019-.672-.142-1.417" transform="translate(-34.275 -98.438)" fill="#fcbf79"/>
            <path id="Trazado_224829" data-name="Trazado 224829" d="M103.114,329.364l-.441-1.223-12.9,4.651a.965.965,0,0,0-.67-.357c-.413,0-.667.4-1.292,1.019a11.623,11.623,0,0,1-1.559,1.3,11.59,11.59,0,0,1,2.03.005c.878.08,1.328.225,1.644-.04a.966.966,0,0,0,.288-.7Z" transform="translate(-28.413 -108.088)" fill="#fca76a"/>
            <path id="Trazado_224830" data-name="Trazado 224830" d="M103.27,329.174a1.821,1.821,0,1,0,2.16-1.4,1.821,1.821,0,0,0-2.16,1.4" transform="translate(-34.003 -107.953)" fill="#666"/>
            <g id="Grupo_114290" data-name="Grupo 114290" transform="translate(69.227 219.78)" style="mix-blend-mode: overlay;isolation: isolate">
              <g id="Grupo_114289" data-name="Grupo 114289">
                <g id="Grupo_114288" data-name="Grupo 114288" clip-path="url(#clip-path-6)">
                  <path id="Trazado_224831" data-name="Trazado 224831" d="M103.522,329.562a1.818,1.818,0,0,1,3.169-.8,1.819,1.819,0,1,0-3.028,1.963,1.808,1.808,0,0,1-.141-1.168" transform="translate(-103.23 -327.733)" fill="#999"/>
                </g>
              </g>
            </g>
            <g id="Grupo_114293" data-name="Grupo 114293" transform="translate(58.426 201.22)" style="mix-blend-mode: multiply;isolation: isolate">
              <g id="Grupo_114292" data-name="Grupo 114292">
                <g id="Grupo_114291" data-name="Grupo 114291" clip-path="url(#clip-path-7)">
                  <path id="Trazado_224832" data-name="Trazado 224832" d="M103.98,320.926l-.441-1.223-1.661.6a1.829,1.829,0,0,0-.264-.337h0c-.044-.044-.092-.087-.141-.127l-.034-.026c-.04-.03-.08-.059-.122-.086l-.05-.032c-.039-.023-.079-.046-.12-.066l-.058-.029-.018-.009,3.431-16.04a.815.815,0,0,0,.554-.333c.187-.3.019-.672-.142-1.417a10.4,10.4,0,0,1-.222-1.742,10.331,10.331,0,0,1-.914,1.5c-.451.613-.756.879-.71,1.233a.82.82,0,0,0,.369.532l-3.452,16.142a1.827,1.827,0,0,0-1.44,1.409v0c-.013.066-.023.131-.03.2,0,.021,0,.042,0,.062,0,.046,0,.093,0,.139,0,.022,0,.044,0,.066,0,.046.006.091.011.135,0,.012,0,.025,0,.037l-7.88,2.842a.964.964,0,0,0-.67-.357c-.413,0-.667.4-1.292,1.019a11.625,11.625,0,0,1-1.559,1.3,11.6,11.6,0,0,1,2.03,0c.878.08,1.328.226,1.644-.04a.967.967,0,0,0,.288-.7l8.09-2.917c.036.029.07.058.109.084l-.226,1.055,1.065.229.2-.957a1.82,1.82,0,0,0,1.779-1.44c0-.01,0-.02.005-.03Z" transform="translate(-87.124 -300.057)" fill="#ccc"/>
                </g>
              </g>
            </g>
            <path id="Trazado_224833" data-name="Trazado 224833" d="M108.18,263.917l12.207,2.606a3.121,3.121,0,0,0,1.3-6.1l-12.208-2.6a3.12,3.12,0,1,0-1.3,6.1" transform="translate(-34.82 -84.9)" fill="#d1d5ed"/>
            <path id="Trazado_224834" data-name="Trazado 224834" d="M108.18,263.917l12.207,2.606a3.121,3.121,0,0,0,1.3-6.1l-12.208-2.6a3.12,3.12,0,1,0-1.3,6.1" transform="translate(-34.82 -84.9)" fill="#326ab3"/>
            <path id="Trazado_224835" data-name="Trazado 224835" d="M111.587,263.592h0a.591.591,0,0,1-.455-.7l.412-1.929a.592.592,0,1,1,1.157.247l-.412,1.929a.591.591,0,0,1-.7.455" transform="translate(-36.602 -85.804)" fill="#23599e"/>
            <path id="Trazado_224836" data-name="Trazado 224836" d="M113.888,264.083h0a.592.592,0,0,1-.455-.7l.412-1.929A.592.592,0,1,1,115,261.7l-.412,1.929a.591.591,0,0,1-.7.455" transform="translate(-37.36 -85.966)" fill="#23599e"/>
            <path id="Trazado_224837" data-name="Trazado 224837" d="M116.19,264.575h0a.592.592,0,0,1-.455-.7l.412-1.929a.592.592,0,1,1,1.157.247l-.412,1.929a.591.591,0,0,1-.7.455" transform="translate(-38.118 -86.128)" fill="#23599e"/>
            <path id="Trazado_224838" data-name="Trazado 224838" d="M118.491,265.066h0a.592.592,0,0,1-.455-.7l.412-1.929a.592.592,0,1,1,1.157.247l-.412,1.929a.591.591,0,0,1-.7.455" transform="translate(-38.876 -86.29)" fill="#23599e"/>
            <path id="Trazado_224839" data-name="Trazado 224839" d="M120.793,265.557h0a.591.591,0,0,1-.455-.7l.412-1.929a.592.592,0,1,1,1.157.247l-.412,1.929a.591.591,0,0,1-.7.455" transform="translate(-39.634 -86.452)" fill="#23599e"/>
            <path id="Trazado_224840" data-name="Trazado 224840" d="M123.095,266.048h0a.592.592,0,0,1-.455-.7l.412-1.929a.592.592,0,1,1,1.157.247l-.412,1.929a.591.591,0,0,1-.7.455" transform="translate(-40.392 -86.613)" fill="#23599e"/>
            <path id="Trazado_224841" data-name="Trazado 224841" d="M125.4,266.539h0a.591.591,0,0,1-.455-.7l.412-1.929a.592.592,0,0,1,1.157.247l-.412,1.929a.591.591,0,0,1-.7.455" transform="translate(-41.15 -86.775)" fill="#23599e"/>
            <path id="Trazado_224842" data-name="Trazado 224842" d="M109.91,300.588a10.339,10.339,0,0,1-.221-1.742,10.268,10.268,0,0,1-.915,1.5c-.451.613-.755.879-.709,1.233a.818.818,0,0,0,.369.532l-4.38,20.478,1.064.23,4.38-20.478a.816.816,0,0,0,.554-.333c.187-.3.019-.672-.142-1.417" transform="translate(-34.275 -98.438)" fill="#fcbf79"/>
            <path id="Trazado_224843" data-name="Trazado 224843" d="M103.114,329.364l-.441-1.223-12.9,4.651a.965.965,0,0,0-.67-.357c-.413,0-.667.4-1.292,1.019a11.623,11.623,0,0,1-1.559,1.3,11.59,11.59,0,0,1,2.03.005c.878.08,1.328.225,1.644-.04a.966.966,0,0,0,.288-.7Z" transform="translate(-28.413 -108.088)" fill="#fca76a"/>
            <path id="Trazado_224844" data-name="Trazado 224844" d="M103.27,329.174a1.821,1.821,0,1,0,2.16-1.4,1.821,1.821,0,0,0-2.16,1.4" transform="translate(-34.003 -107.953)" fill="#326ab3"/>
            <g id="Grupo_114296" data-name="Grupo 114296" transform="translate(69.227 219.78)" style="mix-blend-mode: overlay;isolation: isolate">
              <g id="Grupo_114295" data-name="Grupo 114295">
                <g id="Grupo_114294" data-name="Grupo 114294" clip-path="url(#clip-path-6)">
                  <path id="Trazado_224845" data-name="Trazado 224845" d="M103.522,329.562a1.818,1.818,0,0,1,3.169-.8,1.819,1.819,0,1,0-3.028,1.963,1.808,1.808,0,0,1-.141-1.168" transform="translate(-103.23 -327.733)" fill="#999"/>
                </g>
              </g>
            </g>
            <g id="Grupo_114299" data-name="Grupo 114299" transform="translate(72.107 173.281)" style="mix-blend-mode: overlay;isolation: isolate">
              <g id="Grupo_114298" data-name="Grupo 114298">
                <g id="Grupo_114297" data-name="Grupo 114297" clip-path="url(#clip-path-9)">
                  <path id="Trazado_224846" data-name="Trazado 224846" d="M109.971,258.673c-.1-.3-.721-.367-1.393-.15s-1.137.638-1.039.938.721.367,1.392.15,1.137-.638,1.04-.938" transform="translate(-107.525 -258.394)" fill="#ccc"/>
                </g>
              </g>
            </g>
            <path id="Trazado_224847" data-name="Trazado 224847" d="M452.072,363.845c0,.974-12.717,1.762-28.4,1.762s-28.4-.789-28.4-1.762,12.717-1.762,28.4-1.762,28.4.789,28.4,1.762" transform="translate(-130.197 -119.268)" fill="#455896"/>
            <path id="Trazado_224848" data-name="Trazado 224848" d="M454.242,369.533c0,.974-14.655,1.762-32.732,1.762s-32.732-.789-32.732-1.762,14.654-1.762,32.732-1.762,32.732.789,32.732,1.762" transform="translate(-128.061 -121.141)" fill="#455896"/>
            <path id="Trazado_224849" data-name="Trazado 224849" d="M452,370.031q-28.32,1.289-56.64,0v-5.319a472.434,472.434,0,0,0,56.64,0Z" transform="translate(-130.228 -120.134)" fill="#5167b0"/>
            <path id="Trazado_224850" data-name="Trazado 224850" d="M452.072,375.6a421.679,421.679,0,0,1-61.132.005,2.107,2.107,0,0,1-2.161-1.83v-3.63a541.958,541.958,0,0,0,65.463,0v3.625a2.11,2.11,0,0,1-2.17,1.83" transform="translate(-128.061 -121.924)" fill="#5167b0"/>
            <path id="Trazado_224851" data-name="Trazado 224851" d="M451.181,258.127c0-.973-12.717-1.762-28.4-1.762s-28.4.789-28.4,1.762,12.717,1.762,28.4,1.762,28.4-.789,28.4-1.762" transform="translate(-129.904 -84.445)" fill="#455896"/>
            <path id="Trazado_224852" data-name="Trazado 224852" d="M453.352,252.439c0-.974-14.655-1.762-32.732-1.762s-32.732.789-32.732,1.762,14.654,1.762,32.732,1.762,32.732-.789,32.732-1.762" transform="translate(-127.768 -82.571)" fill="#455896"/>
            <path id="Trazado_224853" data-name="Trazado 224853" d="M451.107,250.745q-28.319-1.288-56.64,0v5.319a472.441,472.441,0,0,1,56.64,0Z" transform="translate(-129.935 -82.382)" fill="#5167b0"/>
            <path id="Trazado_224854" data-name="Trazado 224854" d="M451.182,244.848a432.626,432.626,0,0,0-61.132,0,2.089,2.089,0,0,0-2.162,1.782v3.537a556.083,556.083,0,0,1,65.464,0v-3.531a2.093,2.093,0,0,0-2.17-1.783" transform="translate(-127.768 -80.294)" fill="#5167b0"/>
            <path id="Trazado_224855" data-name="Trazado 224855" d="M447.986,323.583c-.026.341-.06.675-.1,1-.12,1.054-.282,2.016-.443,2.824-.288,1.447-1.914,2.512-3.824,2.512H411.051c-1.907,0-3.535-1.064-3.823-2.507-.188-.94-.378-2.088-.5-3.346-.007-.066-.013-.132-.017-.2-.373-4.009-.063-9.07,3.054-12.092,5.641-5.469,14.416-11.689,14.8-16.577.01-.109.013-.219.013-.326,0-4.936-9.044-11.31-14.812-16.9a10.211,10.211,0,0,1-2.7-5.081,24.711,24.711,0,0,1-.056-9.3c.35-2.152,2.738-3.765,5.569-3.765h28.561c2.667,0,4.963,1.436,5.5,3.438a24.685,24.685,0,0,1,.9,8.867,9.443,9.443,0,0,1-2.618,5.844c-5.768,5.592-14.812,11.965-14.812,16.9,0,.076,0,.153.007.229.272,4.9,9.128,11.17,14.806,16.674,3.044,2.954,3.413,7.849,3.077,11.812" transform="translate(-133.926 -85.582)" fill="#fcbf79"/>
            <path id="Trazado_224856" data-name="Trazado 224856" d="M445.025,281.913c-5.374-1.519-11.451,3.137-17.658,3.333s-12.874-2.671-12.874-2.671a7.776,7.776,0,0,0,2.059,3.868c4.387,4.254,12.139,9.918,12.287,13.913l1.229,20.413.772-20.413c.378-3.93,8.041-9.6,12.469-13.913a7.193,7.193,0,0,0,1.993-4.449l-.276-.081" transform="translate(-136.531 -92.76)" fill="#fff"/>
            <path id="Trazado_224857" data-name="Trazado 224857" d="M428.612,345.965c-3.381-.04-11.8,1.892-17.2,3.013a1.7,1.7,0,0,0-1.552,1.725,25.829,25.829,0,0,0,.545,2.8,2.049,2.049,0,0,0,2.08,1.318H444.33a2.039,2.039,0,0,0,2.085-1.337c.135-.583.289-1.33.424-2.185a1.659,1.659,0,0,0-1.418-1.735c-5.357-1.406-13.7-3.56-16.809-3.6" transform="translate(-135.001 -113.958)" fill="#fff"/>
            <rect id="Rectángulo_48470" data-name="Rectángulo 48470" width="1.513" height="80.605" transform="translate(267.019 164.27)" fill="#5167b0"/>
            <rect id="Rectángulo_48471" data-name="Rectángulo 48471" width="1.512" height="80.605" transform="translate(317.483 164.27)" fill="#5167b0"/>
            <g id="Grupo_114302" data-name="Grupo 114302" transform="translate(274.644 175.798)" style="mix-blend-mode: overlay;isolation: isolate">
              <g id="Grupo_114301" data-name="Grupo 114301">
                <g id="Grupo_114300" data-name="Grupo 114300" clip-path="url(#clip-path-10)">
                  <path id="Trazado_224858" data-name="Trazado 224858" d="M410.032,265.888c-.766,2.249-.61,4.226.345,4.417s2.352-1.477,3.118-3.725.611-4.226-.346-4.417-2.352,1.477-3.117,3.725" transform="translate(-409.545 -262.148)" fill="#ccc"/>
                </g>
              </g>
            </g>
            <g id="Grupo_114305" data-name="Grupo 114305" transform="translate(275.412 225.178)" style="mix-blend-mode: overlay;isolation: isolate">
              <g id="Grupo_114304" data-name="Grupo 114304">
                <g id="Grupo_114303" data-name="Grupo 114303" clip-path="url(#clip-path-11)">
                  <path id="Trazado_224859" data-name="Trazado 224859" d="M411.917,338.628c-1.283,1.888-1.611,3.7-.734,4.052s2.627-.9,3.91-2.786,1.611-3.7.734-4.052-2.627.9-3.91,2.786" transform="translate(-410.691 -335.783)" fill="#ccc"/>
                </g>
              </g>
            </g>
            <g id="Grupo_114308" data-name="Grupo 114308" transform="translate(281.187 221.847)" style="mix-blend-mode: overlay;isolation: isolate">
              <g id="Grupo_114307" data-name="Grupo 114307">
                <g id="Grupo_114306" data-name="Grupo 114306" clip-path="url(#clip-path-12)">
                  <path id="Trazado_224860" data-name="Trazado 224860" d="M419.728,331.805c-.446.657-.56,1.287-.255,1.409s.914-.312,1.36-.969.56-1.287.255-1.408-.913.312-1.359.968" transform="translate(-419.302 -330.816)" fill="#ccc"/>
                </g>
              </g>
            </g>
            <path id="Trazado_224861" data-name="Trazado 224861" d="M396.474,263.856a1.966,1.966,0,1,1,1.9,1.455,1.721,1.721,0,0,1-1.9-1.455" transform="translate(-130.596 -86.433)" fill="#5167b0"/>
            <path id="Trazado_224862" data-name="Trazado 224862" d="M471.724,263.856a1.966,1.966,0,1,1,1.9,1.455,1.722,1.722,0,0,1-1.9-1.455" transform="translate(-155.383 -86.433)" fill="#5167b0"/>
            <path id="Trazado_224863" data-name="Trazado 224863" d="M396.474,357.3a1.966,1.966,0,1,1,1.9,1.455,1.721,1.721,0,0,1-1.9-1.455" transform="translate(-130.596 -117.215)" fill="#5167b0"/>
            <path id="Trazado_224864" data-name="Trazado 224864" d="M471.724,357.3a1.966,1.966,0,1,1,1.9,1.455,1.722,1.722,0,0,1-1.9-1.455" transform="translate(-155.383 -117.215)" fill="#5167b0"/>
            <path id="Trazado_224865" data-name="Trazado 224865" d="M68.635,97.475l-5.8,17.4a1.375,1.375,0,0,0,1.931,1.661c2.447-1.261,8.189-4.12,11.134-4.12,5.143,0-3.535-17.259-3.535-17.259Z" transform="translate(-20.673 -31.345)" fill="#326ab3"/>
            <path id="Trazado_224866" data-name="Trazado 224866" d="M121.257,97.475l5.8,17.4a1.375,1.375,0,0,1-1.931,1.661c-2.447-1.261-8.189-4.12-11.134-4.12-5.143,0,3.535-17.259,3.535-17.259Z" transform="translate(-37.012 -31.345)" fill="#326ab3"/>
            <path id="Trazado_224867" data-name="Trazado 224867" d="M95.694,155.388c-7.658-9.8-6.113-14.15-3.661-16.058h7.322c2.452,1.909,4,6.259-3.661,16.058" transform="translate(-29.655 -45.894)" fill="#faaf3a"/>
            <path id="Trazado_224868" data-name="Trazado 224868" d="M96.315,151.116c-5.168-6.614-4.938-10.031-3.541-11.785h7.083c1.4,1.754,1.626,5.171-3.541,11.785" transform="translate(-30.277 -45.895)" fill="#ffbb61"/>
            <path id="Trazado_224869" data-name="Trazado 224869" d="M97.277,145.422c-2.48-3.173-2.722-5.019-2.238-6.092h4.476c.484,1.072.241,2.918-2.238,6.092" transform="translate(-31.238 -45.894)" fill="#ffcd92"/>
            <path id="Trazado_224870" data-name="Trazado 224870" d="M108,68.891q0,1.278-.1,2.633v0a37.408,37.408,0,0,1-.587,4.35c-3.344,17.3-9.34,24.244-10.884,31.465H82.549c-1.544-7.221-7.543-14.166-10.885-31.465a37.667,37.667,0,0,1-.576-4.221q-.1-1.316-.109-2.563,0-.951.041-1.86.065-1.291.221-2.491c1.308-10.256,7.065-15.832,7.065-15.832h22.37s5.685,5.505,7.04,15.635c.109.823.191,1.678.238,2.563.033.581.049,1.174.049,1.784" transform="translate(-23.38 -16.11)" fill="#fff"/>
            <path id="Trazado_224871" data-name="Trazado 224871" d="M112.961,67.107c-.046-.885-.129-1.74-.238-2.562-1.355-10.131-7.04-15.636-7.04-15.636h-.274a30.323,30.323,0,0,1,3.857,11.325c.109.822.191,1.677.237,2.562.033.582.05,1.175.05,1.784q0,1.279-.1,2.633v0a37.555,37.555,0,0,1-.587,4.35,89.424,89.424,0,0,1-6.923,21.314A17.3,17.3,0,0,1,86.18,103.031a26.414,26.414,0,0,1,1.375,4.311H101.44c1.544-7.22,7.54-14.165,10.885-31.465a37.691,37.691,0,0,0,.587-4.349v0q.1-1.357.1-2.634c0-.609-.016-1.2-.049-1.784" transform="translate(-28.387 -16.11)" fill="#dde1e6"/>
            <path id="Trazado_224872" data-name="Trazado 224872" d="M107.973,74.787l-.465.112c-.852.2-1.7.424-2.562.565l-2.582.465-.644.115-.65.085-1.3.172a81.631,81.631,0,0,1-10.463.68,82.094,82.094,0,0,1-10.464-.653c-1.735-.216-3.461-.5-5.182-.831-.858-.186-1.715-.355-2.571-.573-.016,0-.032-.008-.049-.011q.065-1.291.221-2.491c.129.03.254.054.382.082.823.183,1.658.323,2.487.475,1.669.282,3.344.533,5.027.71a83.934,83.934,0,0,0,10.144.536c.423,0,.846.019,1.27,0l1.27-.041,1.268-.041.636-.022.634-.044,2.533-.191c.21-.019.423-.03.634-.052l.628-.076,1.262-.145a83.747,83.747,0,0,0,8.3-1.385c.109.822.191,1.677.237,2.562" transform="translate(-23.4 -23.79)" fill="#326ab3"/>
            <path id="Trazado_224873" data-name="Trazado 224873" d="M108,78.706q0,1.279-.1,2.633v0l-.415.1c-.852.2-1.7.423-2.562.565l-2.582.465-.645.115-.65.087-1.3.17a81.634,81.634,0,0,1-10.464.68,82.214,82.214,0,0,1-10.463-.652c-1.735-.216-3.462-.5-5.182-.831-.852-.183-1.7-.352-2.552-.568q-.1-1.316-.109-2.563c.216.047.429.093.644.137.822.183,1.658.323,2.487.475,1.669.282,3.344.532,5.026.71a83.94,83.94,0,0,0,10.144.536c.424,0,.847.019,1.271,0l1.27-.041,1.267-.042.637-.019.634-.046,2.532-.191c.211-.019.424-.03.634-.052l.628-.076,1.263-.145A85.3,85.3,0,0,0,108,78.706" transform="translate(-23.38 -25.925)" fill="#326ab3"/>
            <path id="Trazado_224874" data-name="Trazado 224874" d="M99.565,101.449a1.931,1.931,0,1,1-1.931-1.931,1.931,1.931,0,0,1,1.931,1.931" transform="translate(-31.524 -32.781)" fill="#326ab3"/>
            <path id="Trazado_224875" data-name="Trazado 224875" d="M99.565,115.135a1.931,1.931,0,1,1-1.931-1.931,1.931,1.931,0,0,1,1.931,1.931" transform="translate(-31.524 -37.289)" fill="#326ab3"/>
            <path id="Trazado_224876" data-name="Trazado 224876" d="M81.9,44.851s11.181,7.167,22.369,0c0,0-5.982-8.132-11.188-8.261S81.9,44.851,81.9,44.851" transform="translate(-26.979 -12.052)" fill="#326ab3"/>
            <path id="Trazado_224877" data-name="Trazado 224877" d="M101.986,76.421c0,4.438-2.994,8.035-6.689,8.035s-6.689-3.6-6.689-8.035S91.6,68.386,95.3,68.386s6.689,3.6,6.689,8.035" transform="translate(-29.187 -22.526)" fill="#326ab3"/>
            <path id="Trazado_224878" data-name="Trazado 224878" d="M101.048,77.241A6.792,6.792,0,0,1,98.421,82.9,3.906,3.906,0,0,1,96.2,83.6c-2.346,0-4.3-2.2-4.747-5.109a.033.033,0,0,1,0-.013,8.641,8.641,0,0,1-.091-1.241c0-3.516,2.169-6.365,4.842-6.365s4.846,2.849,4.846,6.365" transform="translate(-30.093 -23.346)" fill="#9ed2ff"/>
            <path id="Trazado_224879" data-name="Trazado 224879" d="M99.34,73.89a.681.681,0,1,1-.671-.561.623.623,0,0,1,.671.561" transform="translate(-32.28 -24.154)" fill="#fff"/>
            <path id="Trazado_224880" data-name="Trazado 224880" d="M101.691,75.33a.681.681,0,1,1-.671-.561.624.624,0,0,1,.671.561" transform="translate(-33.055 -24.628)" fill="#fff"/>
            <path id="Trazado_224881" data-name="Trazado 224881" d="M98.467,86.639a3.906,3.906,0,0,1-2.218.707c-2.346,0-4.3-2.2-4.748-5.109a6.816,6.816,0,0,0,6.966,4.4" transform="translate(-30.14 -27.089)" fill="#67aeeb"/>
            <path id="Trazado_224882" data-name="Trazado 224882" d="M100.856,139.235H88.7a.962.962,0,0,1-1-.744l-.443-3.036a.912.912,0,0,1,1-.95H101.3a.913.913,0,0,1,1,.95l-.443,3.036a.962.962,0,0,1-1,.744" transform="translate(-28.741 -44.305)" fill="#326ab3"/>
            <path id="Trazado_224883" data-name="Trazado 224883" d="M484.176,219.383v7.772h-2.733a2.326,2.326,0,0,1-2.332-2.319v-3.13a2.328,2.328,0,0,1,2.332-2.322Z" transform="translate(-157.816 -72.263)" fill="#94ceff"/>
            <path id="Trazado_224884" data-name="Trazado 224884" d="M497.061,224.238c-.938,1.056-8.862.174-8.862.174V216.64a8.031,8.031,0,0,0,1.843-2.691c.382-1.28.727-3.13,1.721-2.868s1.436,3.841.207,5.559c0,0,3.872-1.042,4.922.1,1,1.077,1.047,6.512.169,7.5" transform="translate(-160.81 -69.521)" fill="#94ceff"/>
            <path id="Trazado_224885" data-name="Trazado 224885" d="M37.393,143.1v7.772H34.66a2.326,2.326,0,0,1-2.332-2.319v-3.13A2.329,2.329,0,0,1,34.66,143.1Z" transform="translate(-10.649 -47.137)" fill="#94ceff"/>
            <path id="Trazado_224886" data-name="Trazado 224886" d="M50.277,147.958c-.938,1.056-8.862.174-8.862.174V140.36a8.031,8.031,0,0,0,1.843-2.691c.383-1.28.727-3.13,1.721-2.868s1.436,3.841.207,5.559c0,0,3.872-1.042,4.922.1,1,1.077,1.047,6.512.169,7.5" transform="translate(-13.642 -44.394)" fill="#94ceff"/>
            <path id="Trazado_224887" data-name="Trazado 224887" d="M135.806,30.042a2.76,2.76,0,0,0-2.094-2.673V4.944a2.485,2.485,0,1,0-1.326-.229V27.369a2.756,2.756,0,1,0,3.42,2.673m-4.188,0a1.431,1.431,0,1,1,1.431,1.431,1.433,1.433,0,0,1-1.431-1.431" transform="translate(-42.917)" fill="#d1d5ed"/>
            <path id="Trazado_224888" data-name="Trazado 224888" d="M349.031,18.209l-.617-3.151a.132.132,0,0,0-.1-.1l-3.137-.681a.132.132,0,0,1,0-.258l3.151-.617a.13.13,0,0,0,.1-.1l.681-3.137a.132.132,0,0,1,.259,0l.616,3.151a.132.132,0,0,0,.1.1l3.137.682a.132.132,0,0,1,0,.258l-3.151.616a.134.134,0,0,0-.1.1l-.681,3.137a.132.132,0,0,1-.258,0" transform="translate(-113.664 -3.312)" fill="#ffc17a"/>
            <path id="Trazado_224889" data-name="Trazado 224889" d="M33.905,209.561l-.617-3.151a.13.13,0,0,0-.1-.1l-3.137-.682a.132.132,0,0,1,0-.258l3.151-.617a.131.131,0,0,0,.1-.1l.682-3.137a.132.132,0,0,1,.258,0l.617,3.15a.131.131,0,0,0,.1.1l3.137.682a.132.132,0,0,1,0,.258l-3.151.616a.132.132,0,0,0-.1.1l-.682,3.137a.132.132,0,0,1-.258,0" transform="translate(-9.864 -66.342)" fill="#ffc17a"/>
            <path id="Trazado_224890" data-name="Trazado 224890" d="M47.2,288.642l-.361-1.845a.078.078,0,0,0-.06-.06l-1.837-.4a.077.077,0,0,1,0-.151l1.845-.361a.077.077,0,0,0,.06-.06l.4-1.836a.077.077,0,0,1,.152,0l.361,1.844a.079.079,0,0,0,.06.061l1.837.4a.077.077,0,0,1,0,.151l-1.844.361a.076.076,0,0,0-.06.059l-.4,1.837a.077.077,0,0,1-.152,0" transform="translate(-14.783 -93.505)" fill="#ffc17a"/>
            <path id="Trazado_224891" data-name="Trazado 224891" d="M212.058,25.622l-.361-1.844a.077.077,0,0,0-.06-.061l-1.837-.4a.077.077,0,0,1,0-.151l1.845-.361a.077.077,0,0,0,.06-.059l.4-1.837a.077.077,0,0,1,.152,0l.361,1.845a.076.076,0,0,0,.059.06l1.837.4a.077.077,0,0,1,0,.151l-1.844.361a.08.08,0,0,0-.061.059l-.4,1.837a.077.077,0,0,1-.152,0" transform="translate(-69.087 -6.867)" fill="#ffc17a"/>
            <path id="Trazado_224892" data-name="Trazado 224892" d="M507.978,151.682l-.617-3.151a.13.13,0,0,0-.1-.1l-3.137-.682a.132.132,0,0,1,0-.258l3.151-.617a.13.13,0,0,0,.1-.1l.682-3.137a.132.132,0,0,1,.258,0l.616,3.15a.132.132,0,0,0,.1.1l3.137.681a.132.132,0,0,1,0,.259l-3.151.617a.132.132,0,0,0-.1.1l-.681,3.137a.132.132,0,0,1-.258,0" transform="translate(-166.021 -47.277)" fill="#ffc17a"/>
            <path id="Trazado_224893" data-name="Trazado 224893" d="M315.252,34.085l-.371-1.9a.079.079,0,0,0-.061-.062l-1.887-.41a.079.079,0,0,1,0-.155l1.894-.371a.079.079,0,0,0,.062-.061l.41-1.887a.079.079,0,0,1,.156,0l.371,1.9a.08.08,0,0,0,.061.062l1.887.41a.08.08,0,0,1,0,.156l-1.894.371a.079.079,0,0,0-.062.061l-.41,1.886a.079.079,0,0,1-.156,0" transform="translate(-103.058 -9.612)" fill="#ffc17a"/>
            <path id="Trazado_224894" data-name="Trazado 224894" d="M270.652,15.477a2.9,2.9,0,1,1,2.9-2.9,2.9,2.9,0,0,1-2.9,2.9m0-4.884a1.989,1.989,0,1,0,1.989,1.989,1.991,1.991,0,0,0-1.989-1.989" transform="translate(-88.197 -3.191)" fill="#326ab3"/>
            <path id="Trazado_224895" data-name="Trazado 224895" d="M520.483,199.378a2.9,2.9,0,1,1,2.895-2.9,2.9,2.9,0,0,1-2.895,2.9m0-4.884a1.989,1.989,0,1,0,1.989,1.989,1.992,1.992,0,0,0-1.989-1.989" transform="translate(-170.49 -63.767)" fill="#326ab3"/>
            <path id="Trazado_224896" data-name="Trazado 224896" d="M43.458,100.716a2.9,2.9,0,1,1,2.9-2.9,2.9,2.9,0,0,1-2.9,2.9m0-4.884a1.989,1.989,0,1,0,1.989,1.989,1.992,1.992,0,0,0-1.989-1.989" transform="translate(-13.361 -31.268)" fill="#326ab3"/>
          </g>
        </g>
      </g>
    </g>
  </g>
</svg>
