<svg xmlns="http://www.w3.org/2000/svg" xmlns:xlink="http://www.w3.org/1999/xlink" width="244" height="181" viewBox="0 0 244 181">
  <defs>
    <clipPath id="clip-path">
      <rect id="Rectángulo_50321" data-name="Rectángulo 50321" width="197.14" height="151.06" fill="none"/>
    </clipPath>
    <clipPath id="clip-path-2">
      <path id="Trazado_229081" data-name="Trazado 229081" d="M212.209,178.528l-80.088,80.088-3.941,3.941-8.414,8.414-19.511,19.511L40.014,230.239l14.655-14.651L72.6,233.523l17.238,17.238,10.413,10.413,10.413-10.413L174.124,187.3l23.431-23.431Z" transform="translate(-40.014 -163.873)" fill="none"/>
    </clipPath>
    <linearGradient id="linear-gradient" x1="0.067" y1="0.848" x2="0.067" y2="0.848" gradientUnits="objectBoundingBox">
      <stop offset="0" stop-color="#ff9f55"/>
      <stop offset="1" stop-color="#ffd255"/>
    </linearGradient>
    <clipPath id="clip-path-3">
      <path id="Trazado_229083" data-name="Trazado 229083" d="M443.582,450.032a5.424,5.424,0,0,0-5.426,5.426v64.407a5.427,5.427,0,0,0,5.426,5.426h50.15l51.1-51.1v-18.73a5.425,5.425,0,0,0-5.16-5.419c-.09,0-.176-.007-.266-.007Z" transform="translate(-438.156 -450.032)" fill="none"/>
    </clipPath>
    <linearGradient id="linear-gradient-2" x1="-0.336" y1="1.518" x2="-0.335" y2="1.518" xlink:href="#linear-gradient"/>
    <clipPath id="clip-path-5">
      <rect id="Rectángulo_50301" data-name="Rectángulo 50301" width="4.559" height="29.807" transform="matrix(0.169, -0.986, 0.986, 0.169, 0, 4.493)" fill="none"/>
    </clipPath>
    <linearGradient id="linear-gradient-3" x1="-3.05" y1="3.527" x2="-3.048" y2="3.527" gradientUnits="objectBoundingBox">
      <stop offset="0" stop-color="#40d5e6"/>
      <stop offset="1" stop-color="#57f"/>
    </linearGradient>
    <clipPath id="clip-path-7">
      <rect id="Rectángulo_50303" data-name="Rectángulo 50303" width="27.636" height="27.636" fill="none"/>
    </clipPath>
    <clipPath id="clip-path-8">
      <rect id="Rectángulo_50304" data-name="Rectángulo 50304" width="23.2" height="20.372" fill="none"/>
    </clipPath>
    <clipPath id="clip-path-9">
      <rect id="Rectángulo_50305" data-name="Rectángulo 50305" width="43.408" height="50.416" fill="none"/>
    </clipPath>
    <clipPath id="clip-path-10">
      <path id="Trazado_229232" data-name="Trazado 229232" d="M1910.3,112.71l.244.244,4.4-4.4,9.267,9.267.244-.244-9.511-9.511Z" transform="translate(-1910.299 -108.067)" fill="none"/>
    </clipPath>
    <linearGradient id="linear-gradient-4" x1="-11.047" y1="14.578" x2="-11.042" y2="14.578" xlink:href="#linear-gradient"/>
  </defs>
  <g id="Grupo_117837" data-name="Grupo 117837" transform="translate(-679 -17202)">
    <g id="Grupo_117836" data-name="Grupo 117836">
      <g id="Rectángulo_50235" data-name="Rectángulo 50235" transform="translate(679 17202)" fill="#fff" stroke="#039be5" stroke-width="4">
        <rect width="244" height="181" rx="25" stroke="none"/>
        <rect x="2" y="2" width="240" height="177" rx="23" fill="none"/>
      </g>
    </g>
    <g id="Grupo_115115" data-name="Grupo 115115" transform="translate(702 17219.502)">
      <g id="Grupo_115114" data-name="Grupo 115114" clip-path="url(#clip-path)">
        <g id="Grupo_115094" data-name="Grupo 115094" transform="translate(3.275 13.414)">
          <g id="Grupo_115093" data-name="Grupo 115093" clip-path="url(#clip-path-2)">
            <rect id="Rectángulo_50271" data-name="Rectángulo 50271" width="206.233" height="213.583" transform="translate(-61.658 77.644) rotate(-51.546)" fill="url(#linear-gradient)"/>
          </g>
        </g>
        <path id="Trazado_229082" data-name="Trazado 229082" d="M1026.672,1148.6v14.137l-3.941,3.941-8.414,8.413V1148.6Z" transform="translate(-931.289 -1054.578)" fill="#e3892b"/>
        <g id="Grupo_115096" data-name="Grupo 115096" transform="translate(35.866 36.838)">
          <g id="Grupo_115095" data-name="Grupo 115095" clip-path="url(#clip-path-3)">
            <rect id="Rectángulo_50272" data-name="Rectángulo 50272" width="106.679" height="75.26" transform="translate(0 0)" fill="url(#linear-gradient-2)"/>
          </g>
        </g>
        <g id="Grupo_115098" data-name="Grupo 115098" transform="translate(0 0)">
          <g id="Grupo_115097" data-name="Grupo 115097" clip-path="url(#clip-path)">
            <path id="Trazado_229084" data-name="Trazado 229084" d="M587.5,352.185v36.341l-35.133,35.133h-63.2V352.185Z" transform="translate(-449.127 -323.356)" fill="#fff"/>
            <rect id="Rectángulo_50273" data-name="Rectángulo 50273" width="98.326" height="8.633" transform="translate(40.042 28.828)" fill="#5d96ff"/>
            <path id="Trazado_229085" data-name="Trazado 229085" d="M552.2,388.242H540.522a1.173,1.173,0,0,1-1.173-1.173v-.917a1.173,1.173,0,0,1,1.173-1.173H552.2a1.173,1.173,0,0,1,1.173,1.173v.917a1.173,1.173,0,0,1-1.173,1.173" transform="translate(-495.2 -353.467)" fill="#f5f7ff"/>
            <path id="Trazado_229086" data-name="Trazado 229086" d="M1742.236,1286.718h.005c-.021.009-.024.01-.005,0" transform="translate(-1599.612 -1181.391)" fill="#323657"/>
            <path id="Trazado_229087" data-name="Trazado 229087" d="M1865.477,949.538l9.816-5.49-3.374-.223Z" transform="translate(-1712.776 -866.567)" fill="#d6d6d6"/>
            <path id="Trazado_229088" data-name="Trazado 229088" d="M1865.477,958.358l3.021-4.858,2.534-.067Z" transform="translate(-1712.776 -875.388)" fill="#e8e8e8"/>
            <path id="Trazado_229089" data-name="Trazado 229089" d="M1873.035,961.966l.2,1.237-7.755,2.99Z" transform="translate(-1712.775 -883.223)" fill="#c2c2c2"/>
            <path id="Trazado_229090" data-name="Trazado 229090" d="M289.594,175.64c-.032-.386-.062-.775-.089-1.158l.268-.019c.027.382.057.77.089,1.155Zm138.975-1.222-.153-.221a11.163,11.163,0,0,0,1.105-.916l.183.2a11.2,11.2,0,0,1-1.135.941m-139.156-1.386c-.027-.484-.051-.972-.07-1.451l.268-.011c.019.478.043.965.069,1.447Zm141.313-.607-.2-.177a12.443,12.443,0,0,0,.882-1.133l.221.152a12.73,12.73,0,0,1-.9,1.158m-141.428-2.3c-.012-.484-.019-.973-.023-1.453l.269,0c0,.478.011.966.022,1.448ZM432.375,170l-.24-.121a8.829,8.829,0,0,0,.538-1.323l.257.08a9.1,9.1,0,0,1-.554,1.363m-142.831-2.778-.269,0c0-.485.014-.973.027-1.453l.269.007c-.013.478-.023.965-.027,1.448m143.693-.025-.267-.031a7.209,7.209,0,0,0,.048-.827c0-.2-.008-.4-.025-.594l.268-.023c.017.2.026.412.026.617a7.48,7.48,0,0,1-.05.858m-.5-2.851a8.466,8.466,0,0,0-.506-1.333l.242-.116a8.747,8.747,0,0,1,.522,1.376Zm-143.112-.019-.268-.012c.022-.484.049-.972.08-1.451l.268.017c-.031.477-.058.963-.08,1.446m141.9-2.557a12.8,12.8,0,0,0-.861-1.148l.206-.173a13.049,13.049,0,0,1,.879,1.172Zm-141.711-.332-.268-.023c.041-.483.087-.969.136-1.446l.267.028c-.05.475-.1.96-.136,1.441m139.875-1.873-.117-.115a10.587,10.587,0,0,0-.955-.826l.163-.213a10.867,10.867,0,0,1,.979.847l.118.117Zm-139.574-1.006-.267-.033c.06-.48.126-.965.2-1.44l.266.039c-.069.473-.135.955-.195,1.434m137.315-.727a13.071,13.071,0,0,0-1.277-.647l.109-.246a13.366,13.366,0,0,1,1.3.661Zm-2.616-1.167c-.434-.148-.885-.284-1.38-.416l.07-.26c.5.134.957.272,1.4.421Zm-2.784-.756c-.427-.094-.891-.189-1.418-.289l.051-.264c.53.1,1,.2,1.426.291Zm-131.5-.214-.265-.045c.081-.478.167-.959.258-1.43l.264.051c-.09.469-.176.948-.257,1.424m128.651-.338-.433-.078-1-.179.048-.264,1,.179.433.077Zm-2.857-.527c-.513-.1-.979-.2-1.423-.3l.06-.262c.442.1.905.2,1.416.3Zm-2.836-.652c-.483-.13-.952-.27-1.4-.414l.083-.256c.44.143.905.281,1.384.41Zm-2.768-.9c-.459-.18-.909-.375-1.338-.579l.115-.243c.424.2.868.393,1.321.571Zm-119.644-.42-.263-.057c.1-.474.211-.95.323-1.417l.261.063c-.112.464-.22.939-.321,1.411m117.014-.833c-.423-.241-.838-.5-1.236-.772l.151-.222c.392.267.8.523,1.218.761Zm-2.406-1.64c-.374-.3-.743-.624-1.1-.958l.185-.2c.348.329.712.647,1.081.944Zm-113.931-.341-.26-.069c.124-.468.256-.939.39-1.4l.258.075c-.134.459-.265.928-.389,1.393m111.815-1.658c-.321-.353-.637-.727-.94-1.112l.211-.166c.3.38.611.749.928,1.1Zm-111-1.119-.256-.082c.147-.461.3-.925.461-1.378l.254.088c-.157.452-.312.913-.458,1.372m109.2-1.165c-.269-.391-.534-.8-.788-1.223l.23-.139c.251.416.513.823.779,1.21Zm-108.249-1.566-.251-.1c.171-.452.35-.907.532-1.353l.249.1c-.181.443-.359.9-.53,1.346m106.743-.921c-.223-.418-.443-.855-.654-1.3l.243-.115c.209.44.426.873.648,1.287Zm-105.648-1.756-.246-.108c.2-.443.4-.887.605-1.322l.243.115c-.205.432-.408.875-.6,1.315m104.4-.869c-.184-.436-.366-.89-.54-1.349l.251-.1c.173.456.353.907.536,1.34Zm-103.16-1.743-.239-.122c.219-.43.447-.863.678-1.286l.236.129c-.23.421-.457.851-.674,1.279m102.13-.974c-.152-.448-.3-.914-.446-1.383l.257-.079c.143.466.291.929.443,1.375ZM297.24,136.708l-.232-.135c.244-.417.5-.836.751-1.245l.228.142c-.253.406-.5.823-.747,1.238m99.894-1.214c-.126-.457-.249-.93-.368-1.406l.261-.065c.118.474.241.945.366,1.4Zm-98.365-1.24-.224-.149c.267-.4.543-.805.822-1.2l.219.155c-.277.392-.552.793-.817,1.193m97.647-1.568c-.128-.457-.276-.917-.44-1.367l.252-.092c.167.457.317.923.447,1.386Zm-95.977-.792-.215-.161c.29-.386.59-.772.891-1.149l.21.168c-.3.374-.6.759-.886,1.143m94.993-1.906c-.2-.432-.411-.865-.641-1.289l.236-.128c.233.429.451.869.649,1.306Zm-93.187-.353-.2-.174c.312-.368.634-.736.957-1.095l.2.18c-.321.357-.641.723-.952,1.089m1.935-2.149-.194-.186c.333-.349.676-.7,1.019-1.037l.189.191c-.342.337-.683.684-1.014,1.031m89.882-.029c-.253-.4-.525-.8-.809-1.192l.217-.158c.287.4.563.8.819,1.206Zm-87.825-2-.183-.2c.352-.329.715-.657,1.078-.976l.178.2c-.361.318-.721.644-1.072.971m86.134-.33c-.3-.366-.618-.732-.946-1.089l.2-.182c.331.36.652.731.956,1.1Zm-83.963-1.582-.172-.207c.37-.308.751-.615,1.131-.914l.166.211c-.378.3-.757.6-1.125.909M390.422,123c-.337-.332-.692-.664-1.054-.987l.179-.2c.365.326.723.661,1.063,1Zm-79.743-1.238-.16-.216c.385-.286.781-.571,1.176-.848l.154.22c-.393.275-.787.559-1.17.843m77.59-.687c-.368-.3-.751-.6-1.138-.89l.161-.215c.391.293.777.595,1.147.9Zm-75.226-.969-.148-.224c.4-.265.812-.529,1.221-.784l.142.228c-.407.254-.816.517-1.215.781m72.914-.765c-.391-.269-.8-.538-1.2-.8l.144-.227c.412.263.82.533,1.213.8Zm-70.463-.765-.136-.231c.414-.243.838-.486,1.261-.721l.13.235c-.421.234-.844.475-1.255.717m68.025-.791c-.409-.242-.832-.482-1.258-.715l.129-.236c.428.234.854.476,1.265.719Zm-65.5-.612-.124-.238c.427-.223.863-.444,1.3-.657l.118.241c-.432.212-.866.432-1.291.654m62.959-.778c-.424-.215-.861-.43-1.3-.637l.115-.243c.441.208.881.424,1.307.64Zm-60.362-.5-.113-.244c.437-.2.883-.4,1.327-.593l.107.247c-.442.191-.887.39-1.322.591m57.745-.739c-.436-.191-.885-.381-1.333-.564l.1-.249c.45.184.9.374,1.34.566Zm-55.088-.412-.1-.249c.446-.181.9-.359,1.354-.531l.1.251c-.451.171-.9.349-1.348.529m52.407-.681c-.447-.169-.9-.336-1.361-.5l.089-.254c.458.16.918.328,1.367.5Zm-49.7-.346-.09-.253c.454-.161.917-.318,1.377-.469l.084.255c-.457.15-.919.308-1.371.468m46.966-.612c-.455-.147-.92-.292-1.383-.431l.077-.257c.464.139.931.284,1.388.432Zm-44.215-.293-.078-.257c.461-.14.93-.278,1.4-.409l.073.259c-.463.131-.931.268-1.39.408m41.44-.537c-.462-.127-.933-.251-1.4-.369l.066-.26c.469.118.942.243,1.406.371Zm-38.652-.248-.067-.26c.465-.12.94-.238,1.411-.35l.062.261c-.47.111-.943.229-1.406.349m35.844-.46c-.467-.107-.943-.212-1.415-.31l.055-.263c.473.1.951.2,1.42.311Zm-33.026-.208-.057-.263c.471-.1.95-.2,1.424-.292l.051.264c-.472.092-.949.19-1.418.291m30.19-.383c-.471-.088-.951-.173-1.426-.253l.044-.265c.477.08.959.165,1.432.254Zm-27.348-.171-.046-.265c.473-.082.955-.162,1.433-.236l.041.266c-.477.074-.957.152-1.428.235m24.491-.307c-.475-.07-.957-.136-1.435-.2l.034-.266c.479.061.964.128,1.44.2Zm-21.631-.135-.036-.266c.477-.064.962-.125,1.441-.18l.031.267c-.477.055-.96.115-1.435.179m18.757-.233c-.478-.052-.963-.1-1.441-.143l.024-.268c.48.043.967.091,1.447.143Zm-15.884-.1-.026-.267c.479-.046.966-.088,1.445-.125l.021.268c-.478.037-.963.079-1.44.125m13-.16c-.478-.034-.965-.064-1.446-.089l.014-.268c.483.025.971.055,1.451.089ZM345.8,109.81l-.016-.268c.48-.028.967-.052,1.448-.071l.011.268c-.479.019-.965.043-1.443.071m7.223-.089c-.48-.016-.966-.028-1.446-.035l0-.269c.482.007.97.019,1.451.036Zm-4.337-.027-.006-.269c.479-.01.967-.016,1.448-.018v.269c-.48,0-.966.007-1.443.018" transform="translate(-265.595 -100.452)" fill="#e0e0e0"/>
            <path id="Trazado_229091" data-name="Trazado 229091" d="M2101.239,434.049a8.363,8.363,0,1,0-7.153,15.119c.17.08.342.155.514.223a8.363,8.363,0,0,0,6.639-15.342m2.091,10.241a6.263,6.263,0,0,1-7.964,3.153q-.194-.077-.386-.167a6.27,6.27,0,1,1,8.35-2.986" transform="translate(-1918.275 -397.779)" fill="#f0f0f0"/>
            <path id="Trazado_229092" data-name="Trazado 229092" d="M2092.108,474.01l-1.854.972a8.374,8.374,0,0,1,1.319-9.618l1.524,1.435a6.279,6.279,0,0,0-.988,7.211" transform="translate(-1918.275 -427.27)" fill="#2273b5"/>
            <path id="Trazado_229093" data-name="Trazado 229093" d="M2106.1,573.919l-.767,1.948c-.172-.068-.344-.143-.514-.223a8.324,8.324,0,0,1-3.831-3.677l1.854-.972a6.243,6.243,0,0,0,2.872,2.757c.127.06.256.116.386.167" transform="translate(-1929.012 -524.255)" fill="#4dafff"/>
            <path id="Trazado_229094" data-name="Trazado 229094" d="M2156.464,609.216a8.327,8.327,0,0,1-2.389-.555l.767-1.948a6.234,6.234,0,0,0,1.791.417Z" transform="translate(-1977.75 -557.049)" fill="#4dafff"/>
            <path id="Trazado_229095" data-name="Trazado 229095" d="M1984.938,626.946h-15.616v-.31h15.306v-6.616h.311Z" transform="translate(-1808.12 -569.267)" fill="#4dafff"/>
            <rect id="Rectángulo_50274" data-name="Rectángulo 50274" width="8.22" height="1.862" transform="translate(161.201 54.138)" fill="#e0e0e0"/>
            <rect id="Rectángulo_50275" data-name="Rectángulo 50275" width="1.631" height="10.819" transform="translate(0 26.967)" fill="#e0e0e0"/>
            <rect id="Rectángulo_50276" data-name="Rectángulo 50276" width="1.631" height="8.621" transform="translate(4.051 29.165)" fill="#e0e0e0"/>
            <rect id="Rectángulo_50277" data-name="Rectángulo 50277" width="1.631" height="10.238" transform="translate(8.102 27.548)" fill="#e0e0e0"/>
            <rect id="Rectángulo_50278" data-name="Rectángulo 50278" width="1.631" height="7.044" transform="translate(12.153 30.742)" fill="#e0e0e0"/>
            <rect id="Rectángulo_50279" data-name="Rectángulo 50279" width="1.631" height="9.906" transform="translate(16.204 27.88)" fill="#e0e0e0"/>
            <rect id="Rectángulo_50280" data-name="Rectángulo 50280" width="1.631" height="11.4" transform="translate(20.255 26.386)" fill="#e0e0e0"/>
            <rect id="Rectángulo_50281" data-name="Rectángulo 50281" width="1.631" height="12.022" transform="translate(24.306 25.764)" fill="#e0e0e0"/>
            <rect id="Rectángulo_50282" data-name="Rectángulo 50282" width="1.631" height="6.788" transform="translate(0 30.998)" fill="#5d96ff"/>
            <rect id="Rectángulo_50283" data-name="Rectángulo 50283" width="1.631" height="5.408" transform="translate(4.051 32.378)" fill="#5d96ff"/>
            <rect id="Rectángulo_50284" data-name="Rectángulo 50284" width="1.631" height="6.423" transform="translate(8.102 31.363)" fill="#5d96ff"/>
            <rect id="Rectángulo_50285" data-name="Rectángulo 50285" width="1.631" height="4.42" transform="translate(12.153 33.367)" fill="#5d96ff"/>
            <rect id="Rectángulo_50286" data-name="Rectángulo 50286" width="1.631" height="6.215" transform="translate(16.204 31.571)" fill="#5d96ff"/>
            <rect id="Rectángulo_50287" data-name="Rectángulo 50287" width="1.631" height="7.152" transform="translate(20.255 30.634)" fill="#5d96ff"/>
            <rect id="Rectángulo_50288" data-name="Rectángulo 50288" width="1.631" height="7.542" transform="translate(24.306 30.244)" fill="#5d96ff"/>
            <rect id="Rectángulo_50289" data-name="Rectángulo 50289" width="9.429" height="1.362" transform="translate(27.304 10.088)" fill="#d9d9d9"/>
            <rect id="Rectángulo_50290" data-name="Rectángulo 50290" width="13.375" height="1.362" transform="translate(27.304 12.606)" fill="#d9d9d9"/>
            <path id="Trazado_229096" data-name="Trazado 229096" d="M2265.754,293.8a6.339,6.339,0,1,0-11.937,4.269c.048.134.1.266.156.4a6.339,6.339,0,0,0,11.781-4.665m-4.368,6.61a4.746,4.746,0,0,1-5.958-2.578q-.063-.145-.117-.3a4.753,4.753,0,1,1,6.075,2.875" transform="translate(-2068.986 -265.889)" fill="#f0f0f0"/>
            <path id="Trazado_229097" data-name="Trazado 229097" d="M2258.494,294.55l-1.514-.473a6.348,6.348,0,0,1,5.862-4.448l.047,1.586a4.76,4.76,0,0,0-4.395,3.335" transform="translate(-2072.232 -265.921)" fill="#1a598c"/>
            <path id="Trazado_229098" data-name="Trazado 229098" d="M2255.428,347.759l-1.455.633c-.056-.129-.108-.261-.156-.4a6.311,6.311,0,0,1-.083-4.024l1.514.473a4.732,4.732,0,0,0,.062,3.017q.054.151.117.3" transform="translate(-2068.986 -315.816)" fill="#2273b5"/>
            <path id="Trazado_229099" data-name="Trazado 229099" d="M2260.879,392.437a6.3,6.3,0,0,1-.983-1.578l1.455-.633a4.721,4.721,0,0,0,.737,1.183Z" transform="translate(-2074.909 -358.283)" fill="#4dafff"/>
            <rect id="Rectángulo_50291" data-name="Rectángulo 50291" width="49.559" height="1.726" transform="translate(58.308 49.122)" fill="#e8e8e8"/>
            <rect id="Rectángulo_50292" data-name="Rectángulo 50292" width="49.559" height="1.726" transform="translate(58.308 54.747)" fill="#e8e8e8"/>
            <rect id="Rectángulo_50293" data-name="Rectángulo 50293" width="49.559" height="1.726" transform="translate(58.308 60.173)" fill="#e8e8e8"/>
            <rect id="Rectángulo_50294" data-name="Rectángulo 50294" width="49.559" height="1.726" transform="translate(58.308 65.798)" fill="#e8e8e8"/>
            <rect id="Rectángulo_50295" data-name="Rectángulo 50295" width="49.559" height="1.726" transform="translate(58.308 72.117)" fill="#e8e8e8"/>
            <rect id="Rectángulo_50296" data-name="Rectángulo 50296" width="49.559" height="1.726" transform="translate(58.308 77.742)" fill="#e8e8e8"/>
            <rect id="Rectángulo_50297" data-name="Rectángulo 50297" width="49.559" height="1.726" transform="translate(58.308 83.168)" fill="#e8e8e8"/>
            <rect id="Rectángulo_50298" data-name="Rectángulo 50298" width="49.559" height="1.726" transform="translate(58.308 88.793)" fill="#e8e8e8"/>
            <path id="Trazado_229100" data-name="Trazado 229100" d="M574.877,589.044h4.24a1.4,1.4,0,0,0,1.4-1.4v-4.24a1.4,1.4,0,0,0-1.4-1.4h-4.24a1.4,1.4,0,0,0-1.4,1.4v4.24a1.4,1.4,0,0,0,1.4,1.4" transform="translate(-526.538 -534.37)" fill="#4ca1f4"/>
            <path id="Trazado_229101" data-name="Trazado 229101" d="M574.877,858.349h4.24a1.4,1.4,0,0,0,1.4-1.4v-4.24a1.4,1.4,0,0,0-1.4-1.4h-4.24a1.4,1.4,0,0,0-1.4,1.4v4.24a1.4,1.4,0,0,0,1.4,1.4" transform="translate(-526.538 -781.631)" fill="#4ca1f4"/>
            <path id="Trazado_229102" data-name="Trazado 229102" d="M590.135,876.909l-1.951-1.7a.384.384,0,0,1,.5-.579l1.38,1.2,1.961-2.2a.384.384,0,0,1,.572.511Z" transform="translate(-539.916 -802.008)" fill="#fff"/>
            <path id="Trazado_229103" data-name="Trazado 229103" d="M574.877,723.168h4.24a1.4,1.4,0,0,0,1.4-1.4v-4.24a1.4,1.4,0,0,0-1.4-1.4h-4.24a1.4,1.4,0,0,0-1.4,1.4v4.24a1.4,1.4,0,0,0,1.4,1.4" transform="translate(-526.538 -657.516)" fill="#4ca1f4"/>
            <path id="Trazado_229104" data-name="Trazado 229104" d="M590.135,741.728l-1.951-1.7a.384.384,0,0,1,.5-.58l1.38,1.2,1.961-2.2a.384.384,0,0,1,.572.512Z" transform="translate(-539.916 -677.892)" fill="#fff"/>
            <path id="Trazado_229105" data-name="Trazado 229105" d="M574.877,993.531h4.24a1.4,1.4,0,0,0,1.4-1.4V987.9a1.4,1.4,0,0,0-1.4-1.4h-4.24a1.4,1.4,0,0,0-1.4,1.4v4.24a1.4,1.4,0,0,0,1.4,1.4" transform="translate(-526.538 -905.748)" fill="#4ca1f4"/>
            <path id="Trazado_229106" data-name="Trazado 229106" d="M590.135,1012.091l-1.951-1.7a.384.384,0,0,1,.5-.58l1.38,1.2,1.961-2.2a.384.384,0,1,1,.572.512Z" transform="translate(-539.916 -926.124)" fill="#fff"/>
            <path id="Trazado_229107" data-name="Trazado 229107" d="M601.405,599.893a1.849,1.849,0,0,1,.018-.262.931.931,0,0,1,.068-.241.757.757,0,0,1,.146-.217.969.969,0,0,1,.25-.184l.205-.11a2.1,2.1,0,0,0,.25-.158,1.036,1.036,0,0,0,.211-.205.414.414,0,0,0,.089-.259.365.365,0,0,0-.143-.306.522.522,0,0,0-.327-.11.478.478,0,0,0-.211.045.787.787,0,0,0-.167.107.7.7,0,0,0-.128.14l-.1.137-.613-.428a1.186,1.186,0,0,1,.491-.565,1.442,1.442,0,0,1,.759-.2,1.617,1.617,0,0,1,.452.066,1.153,1.153,0,0,1,.4.208,1.083,1.083,0,0,1,.292.369,1.215,1.215,0,0,1,.113.547,1.073,1.073,0,0,1-.14.568,1.256,1.256,0,0,1-.414.4,2.546,2.546,0,0,1-.253.149,2.368,2.368,0,0,0-.235.137.672.672,0,0,0-.172.161.351.351,0,0,0-.066.214Zm.018.565h.779v.892h-.779Z" transform="translate(-551.767 -548.198)" fill="#fff"/>
            <path id="Trazado_229108" data-name="Trazado 229108" d="M810.888,564.344a8.046,8.046,0,0,0-1.232,1.443c-.583.874-2.13.921-2.2,2.114s2.1,1.23,3.243.842,1.312-1.554,2-1.846,1.046-.527.994-1.1a6.933,6.933,0,0,0-.434-1.493,4.71,4.71,0,0,1-.68.164,5.636,5.636,0,0,1-1.695-.129" transform="translate(-741.362 -518.115)" fill="#252840"/>
            <path id="Trazado_229109" data-name="Trazado 229109" d="M854.376,130.683s-.437,2.6-.788,4.311h0a10.261,10.261,0,0,1-.352,1.419,19.953,19.953,0,0,1-1.923,2.131c-1.76,1.812-4.085,4.093-4.085,4.093l-.909-1.725s2.065-2.421,3.465-4.037c.648-.748,1.154-1.323,1.246-1.405.293-.262.633-2.842,1.11-4.968a8.562,8.562,0,0,1,1.435-3.3Z" transform="translate(-777.042 -116.788)" fill="#ffbf55"/>
            <path id="Trazado_229110" data-name="Trazado 229110" d="M851.313,247.058c-1.76,1.812-4.085,4.093-4.085,4.093l-.909-1.725s2.065-2.421,3.465-4.037a2.937,2.937,0,0,1,1.529,1.669" transform="translate(-777.042 -225.302)" fill="#eea886"/>
            <path id="Trazado_229111" data-name="Trazado 229111" d="M1015.078,555.388s.6.661.951,1.062,1.707,1.117,1.714,2.307c.008,1.29-1,1.177-1.894,1.13a2.475,2.475,0,0,1-2-1.4c-.377-.731-1.38-.922-1.451-1.512a4.1,4.1,0,0,1,.465-1.65Z" transform="translate(-929.521 -509.871)" fill="#252840"/>
            <path id="Trazado_229112" data-name="Trazado 229112" d="M1018.267,541.912l-.116,1.1s1.869.815,2.215.06l-.08-.978Z" transform="translate(-934.809 -497.553)" fill="#5f8cc9"/>
            <path id="Trazado_229113" data-name="Trazado 229113" d="M849.459,555.028l-.1.8a3.92,3.92,0,0,0,2.374-.035l.025-.707Z" transform="translate(-779.832 -509.595)" fill="#5f8cc9"/>
            <path id="Trazado_229114" data-name="Trazado 229114" d="M912.3,125.7c.065.231-11.965,0-11.965,0s3.328-2.422,3.543-3.069-.847-4.529-.986-5.793c-.111-1.011-.389-5.533.277-6.224a11.035,11.035,0,0,1,3.2-1.479l3.656.136a5.741,5.741,0,0,1,1.035.327c.431.2,2.9,1.079,3.3,2.311s-2.461,5.2-2.461,5.2-.005.178-.014.47h0c-.011.389-.027.981-.042,1.622-.019.831-.036,1.746-.036,2.414a23.863,23.863,0,0,0,.49,4.09" transform="translate(-826.637 -100.2)" fill="#ffbf55"/>
            <path id="Trazado_229115" data-name="Trazado 229115" d="M817.315,304.512s1.636,2.4,1.659,4.044-.606,6.19-.652,7.091-.894,8.412-.894,8.412-.655.609-2.619-.154c0,0-.434-7.122-.48-7.885s-.046-4.275-.485-4.783-3.1-2.1-3.443-2.4-6.385,1.141-7.018,1.305c-1.638.425-.892,3.276-.529,4.554.606,2.138,1.137,9.86,1.137,9.86a5.565,5.565,0,0,1-3.122.077s-3.838-13.942-3.962-15.329-.184-3.673,9.275-5.41Z" transform="translate(-731.653 -279.013)" fill="#323657"/>
            <path id="Trazado_229116" data-name="Trazado 229116" d="M957.691,11.527s-3.174-.716-2.449,3.278,1.488,4.308,3.4,3.482,1.743-3.386,1.84-4.641-1.781-2.076-2.794-2.119" transform="translate(-876.951 -10.537)" fill="#eea886"/>
            <path id="Trazado_229117" data-name="Trazado 229117" d="M976.107,65.213a2.832,2.832,0,0,0,3.627.136,21.518,21.518,0,0,1-.235-4.8c.262-1.573-2.9,2.437-2.9,2.437.042.022.069.172.075.386a4.3,4.3,0,0,1-.033.64c-.065.523-.228,1.075-.536,1.2" transform="translate(-896.206 -55.254)" fill="#eea886"/>
            <path id="Trazado_229118" data-name="Trazado 229118" d="M1006.834,42.215a.4.4,0,0,1,.794.047c.056.528-.317,1.456-.581,1.364s-.271-.925-.214-1.411" transform="translate(-924.391 -38.476)" fill="#eea886"/>
            <path id="Trazado_229119" data-name="Trazado 229119" d="M958.26,5.155s-.082-1.259-.542-1.3-.53.467-.53.467l-.464.088s.147-1.1-.312-1.3-2.974.607-3.342.284-.2-2.561.471-2.868,2.507-.992,3.855-.08c0,0,1.051-.12,1.207.728a11.637,11.637,0,0,1-.342,3.974" transform="translate(-874.88 0.004)" fill="#3a3f47"/>
            <path id="Trazado_229120" data-name="Trazado 229120" d="M982.65,83.306c2.292-.707,2.464-2.087,2.467-2.108a3.457,3.457,0,0,1-2.434,1.468,4.306,4.306,0,0,1-.033.64" transform="translate(-902.214 -74.551)" fill="#a77860"/>
            <path id="Trazado_229121" data-name="Trazado 229121" d="M967.709,107.2s-1.678,3.341-4.39,3.125-.462-3.574-.339-3.6a6.943,6.943,0,0,1,4.729.48" transform="translate(-883.243 -97.786)" fill="#eea886"/>
            <path id="Trazado_229122" data-name="Trazado 229122" d="M883.524,297.85s8.308,1.024,13.341.169l-9.617-1.2s-.057.245-3.723,1.032" transform="translate(-811.202 -272.521)" fill="#ffbf55"/>
            <path id="Trazado_229123" data-name="Trazado 229123" d="M952.49,292.194l-.619.313a2.834,2.834,0,0,0,.48,1.281l.694-.177a2.882,2.882,0,0,0-.556-1.417" transform="translate(-873.954 -268.276)" fill="#eea886"/>
            <path id="Trazado_229124" data-name="Trazado 229124" d="M969.044,149.667a31.429,31.429,0,0,1-3.6,1.511h0c-2.521.971-5.364,1.889-5.364,1.889l-.647-1.387s2.977-1.618,4.989-2.753c.95-.536,1.685-.964,1.789-1.063.323-.308.407-.8.169-1.664s-.786-4.822-.847-5.284.154-1.695,1.31-1.756a3.467,3.467,0,0,1,1.743.264s.29.121.506,2.925.246,6.979-.046,7.318" transform="translate(-880.896 -127.761)" fill="#ffbf55"/>
            <path id="Trazado_229125" data-name="Trazado 229125" d="M1033.572,174.256h0c-.011.389-.027.981-.042,1.622a8.1,8.1,0,0,1-.465-5.007,16.293,16.293,0,0,0,.508,3.385" transform="translate(-948.32 -156.884)" fill="#b08439"/>
            <path id="Trazado_229126" data-name="Trazado 229126" d="M929.136,190.652h0a10.267,10.267,0,0,1-.352,1.419,14.669,14.669,0,0,1-.039-4.251,24,24,0,0,0,.39,2.831" transform="translate(-852.591 -172.446)" fill="#b08439"/>
            <path id="Trazado_229127" data-name="Trazado 229127" d="M965.442,260.819h0c-2.521.971-5.456,1.919-5.456,1.919l-.556-1.417s2.977-1.618,4.989-2.753c0,0,.732.357,1.022,2.25" transform="translate(-880.896 -237.403)" fill="#eea886"/>
            <path id="Trazado_229128" data-name="Trazado 229128" d="M824.8,308.565l-11.808-.174,5.962,3.027Z" transform="translate(-746.442 -283.147)" fill="#5e5853"/>
            <path id="Trazado_229129" data-name="Trazado 229129" d="M880.638,313.367l5.846-2.265v-.589l-6.308,2.276Z" transform="translate(-808.128 -285.096)" fill="#91887f"/>
            <path id="Trazado_229130" data-name="Trazado 229130" d="M907.344,293.332s-.738-.115-1.247-.234a2.554,2.554,0,0,0-1.625.288c-.25.253-1.044,2.017-1.195,2.125s.077.357.341.232c0,0,.242.772.84.483s1-.92,1.317-1.031,2.137-.672,2.137-.672-.1-1.379-.568-1.191" transform="translate(-829.294 -269.079)" fill="#eea886"/>
            <path id="Trazado_229131" data-name="Trazado 229131" d="M905.248,295.538a5.154,5.154,0,0,0-.6.331c-.124.1-.625.477-.747.566s.183.339,1.08-.049.264-.848.264-.848" transform="translate(-829.891 -271.346)" fill="#eea886"/>
            <path id="Trazado_229132" data-name="Trazado 229132" d="M719.424,237.809l-3.512-9.59-11.323.185,3.347,8.837Z" transform="translate(-646.914 -209.538)" fill="#6e6760"/>
            <path id="Trazado_229133" data-name="Trazado 229133" d="M777.105,270.028c.346.691.241,1.443-.233,1.68s-1.139-.13-1.484-.821-.241-1.443.233-1.68,1.139.13,1.484.821" transform="translate(-711.73 -247.104)" fill="#807066"/>
            <path id="Trazado_229134" data-name="Trazado 229134" d="M1361.771,788.622h-4.6a.281.281,0,0,1-.281-.281v-.993a.281.281,0,0,1,.281-.281h4.6a.281.281,0,0,1,.281.281v.993a.281.281,0,0,1-.281.281" transform="translate(-1245.824 -722.64)" fill="#e0e0e0"/>
            <path id="Trazado_229135" data-name="Trazado 229135" d="M1361.771,834.161h-4.6a.281.281,0,0,1-.281-.281v-.993a.281.281,0,0,1,.281-.281h4.6a.281.281,0,0,1,.281.281v.993a.281.281,0,0,1-.281.281" transform="translate(-1245.824 -764.452)" fill="#e0e0e0"/>
            <path id="Trazado_229136" data-name="Trazado 229136" d="M1361.771,879.7h-4.6a.281.281,0,0,1-.281-.281v-.993a.281.281,0,0,1,.281-.281h4.6a.281.281,0,0,1,.281.281v.993a.281.281,0,0,1-.281.281" transform="translate(-1245.824 -806.263)" fill="#e0e0e0"/>
            <path id="Trazado_229137" data-name="Trazado 229137" d="M1361.771,925.238h-4.6a.281.281,0,0,1-.281-.281v-.993a.281.281,0,0,1,.281-.281h4.6a.281.281,0,0,1,.281.281v.993a.281.281,0,0,1-.281.281" transform="translate(-1245.824 -848.073)" fill="#e0e0e0"/>
            <path id="Trazado_229138" data-name="Trazado 229138" d="M1361.771,970.777h-4.6a.281.281,0,0,1-.281-.281V969.5a.281.281,0,0,1,.281-.281h4.6a.281.281,0,0,1,.281.281v.993a.281.281,0,0,1-.281.281" transform="translate(-1245.824 -889.885)" fill="#e0e0e0"/>
            <path id="Trazado_229139" data-name="Trazado 229139" d="M1361.771,1016.316h-4.6a.281.281,0,0,1-.281-.281v-.993a.281.281,0,0,1,.281-.281h4.6a.281.281,0,0,1,.281.281v.993a.281.281,0,0,1-.281.281" transform="translate(-1245.824 -931.696)" fill="#e0e0e0"/>
            <path id="Trazado_229140" data-name="Trazado 229140" d="M1447.116,788.622h-.906a.281.281,0,0,1-.281-.281v-.993a.281.281,0,0,1,.281-.281h.906a.281.281,0,0,1,.281.281v.993a.281.281,0,0,1-.281.281" transform="translate(-1327.57 -722.64)" fill="#e0e0e0"/>
            <path id="Trazado_229141" data-name="Trazado 229141" d="M1447.116,834.161h-.906a.281.281,0,0,1-.281-.281v-.993a.281.281,0,0,1,.281-.281h.906a.281.281,0,0,1,.281.281v.993a.281.281,0,0,1-.281.281" transform="translate(-1327.57 -764.452)" fill="#e0e0e0"/>
            <path id="Trazado_229142" data-name="Trazado 229142" d="M1447.116,879.7h-.906a.281.281,0,0,1-.281-.281v-.993a.281.281,0,0,1,.281-.281h.906a.281.281,0,0,1,.281.281v.993a.281.281,0,0,1-.281.281" transform="translate(-1327.57 -806.263)" fill="#e0e0e0"/>
            <path id="Trazado_229143" data-name="Trazado 229143" d="M1447.116,925.238h-.906a.281.281,0,0,1-.281-.281v-.993a.281.281,0,0,1,.281-.281h.906a.281.281,0,0,1,.281.281v.993a.281.281,0,0,1-.281.281" transform="translate(-1327.57 -848.073)" fill="#e0e0e0"/>
            <path id="Trazado_229144" data-name="Trazado 229144" d="M1447.116,970.777h-.906a.281.281,0,0,1-.281-.281V969.5a.281.281,0,0,1,.281-.281h.906a.281.281,0,0,1,.281.281v.993a.281.281,0,0,1-.281.281" transform="translate(-1327.57 -889.885)" fill="#e0e0e0"/>
            <path id="Trazado_229145" data-name="Trazado 229145" d="M1447.116,1016.316h-.906a.281.281,0,0,1-.281-.281v-.993a.281.281,0,0,1,.281-.281h.906a.281.281,0,0,1,.281.281v.993a.281.281,0,0,1-.281.281" transform="translate(-1327.57 -931.696)" fill="#e0e0e0"/>
            <path id="Trazado_229146" data-name="Trazado 229146" d="M1441.467,985.421s-2.2-4.995.353-4.581a9.315,9.315,0,0,1,1.764,2.186c.677,1.111,2.084,4.05,2.032,5.044s-.759,1.735-1.523,3.332c0,0-1.587,2.963-1.654,3.321l-1.678-.871s1.422-2.833,2.424-5.324Z" transform="translate(-1322.663 -900.529)" fill="#6f5be0"/>
          </g>
        </g>
        <g id="Grupo_115100" data-name="Grupo 115100" transform="translate(97.062 87.939)">
          <g id="Grupo_115099" data-name="Grupo 115099" transform="translate(0 0)" clip-path="url(#clip-path-5)">
            <rect id="Rectángulo_50300" data-name="Rectángulo 50300" width="31.584" height="19.282" transform="translate(-3.065 1.119) rotate(-20.045)" fill="url(#linear-gradient-3)"/>
          </g>
        </g>
        <g id="Grupo_115111" data-name="Grupo 115111" transform="translate(0 0)">
          <g id="Grupo_115110" data-name="Grupo 115110" clip-path="url(#clip-path)">
            <rect id="Rectángulo_50302" data-name="Rectángulo 50302" width="3.46" height="1.432" transform="matrix(0.168, -0.986, 0.986, 0.168, 95.744, 91.651)" fill="#2d3038"/>
            <path id="Trazado_229147" data-name="Trazado 229147" d="M1227.238,1499.2h-.416s.139-1.571-.246-1.586-1.34,1.278-1.91,1.479-3.5.369-3.511-.17,1.124-.755,1.478-.908,2.079-1.833,2.387-2.033a5.911,5.911,0,0,0,.834-1.592l1.633-.073s.092,1.3.191,1.99a6.056,6.056,0,0,1,.067.645,11.893,11.893,0,0,1-.508,2.249" transform="translate(-1121.195 -1371.996)" fill="#eea886"/>
            <path id="Trazado_229148" data-name="Trazado 229148" d="M1366.33,1496.695h-.346v-1.462a7.072,7.072,0,0,0-1.56,1.208c-.3.266-.712.254-1.977.334s-1.384-.677-1.184-.935.847-.37,1.184-.531a21.843,21.843,0,0,0,2.02-2.014,3.675,3.675,0,0,0,.57-1.37l1.478.129a9.039,9.039,0,0,0,.159,1.708h0v.006q.021.1.047.195a7.361,7.361,0,0,1-.393,2.731" transform="translate(-1249.763 -1369.802)" fill="#eea886"/>
            <path id="Trazado_229149" data-name="Trazado 229149" d="M1280.114,1133.372a14.8,14.8,0,0,0-.608,1.655,50.811,50.811,0,0,0-1.736,5.628c-.226,1.276-.852,5.271-.9,5.779-.087.869-.5,2.788-.559,3.676-.035.5-2.48,8.115-3.072,12.093a7.335,7.335,0,0,0,2.462-.071,41.674,41.674,0,0,0,3.338-9.942,40.064,40.064,0,0,1,1.908-6.831c.556-1.446,3.705-5.543,4.034-6s2.388-3,.438-5.759-5.3-.224-5.3-.224" transform="translate(-1169.015 -1039.624)" fill="#292c47"/>
            <path id="Trazado_229150" data-name="Trazado 229150" d="M1377.206,1137.855c-.178,1.186.009,2.745.382,7.082a41.148,41.148,0,0,1-.652,9.589,5.2,5.2,0,0,1-2.77,0c.034-.3,0-10.572,0-11.487s-.263-1.953-.33-3a21.394,21.394,0,0,0-.754-3.382c-.112-.4-.228-.809-.341-1.2h0l-.186-.646c-.527-1.83-1.237-8.9-1.237-8.9s3.932-3.168,5.847-.186a6.084,6.084,0,0,1,.864,5.523c-.068.373-.644,5.422-.822,6.607" transform="translate(-1259.066 -1032.403)" fill="#292c47"/>
            <path id="Trazado_229151" data-name="Trazado 229151" d="M1391.537,1210.414c-.03.068-1.99,4.417-2.494,5.171-.112-.4-.228-.809-.341-1.2h0s2.77-3.873,2.835-3.969" transform="translate(-1275.028 -1111.334)" fill="#191b2b"/>
            <path id="Trazado_229152" data-name="Trazado 229152" d="M1366.33,1514.161h-.346V1512.7a7.065,7.065,0,0,0-1.56,1.208c-.3.266-.712.254-1.977.334s-1.384-.677-1.184-.935.847-.37,1.184-.531c1.353.072,3-1.83,3.8-1.826.421,0,.417.235.43.279h0v.006c.014.066.03.131.047.195a7.362,7.362,0,0,1-.393,2.731" transform="translate(-1249.763 -1387.268)" fill="#c6c9cc"/>
            <path id="Trazado_229153" data-name="Trazado 229153" d="M1227.238,1520.979h-.416s.139-1.571-.246-1.586-1.34,1.278-1.91,1.479-3.5.369-3.511-.17,1.124-.755,1.478-.909c1.207,0,3.17-1.331,3.778-1.6a2.2,2.2,0,0,1,1.267-.107,6.057,6.057,0,0,1,.067.645,11.9,11.9,0,0,1-.508,2.249" transform="translate(-1121.195 -1393.776)" fill="#c6c9cc"/>
            <path id="Trazado_229154" data-name="Trazado 229154" d="M1399.665,929.747a4.863,4.863,0,0,1,.139,2.943s2.3-.15,2.388-.418-.093-2.756.224-3.491-2.751.966-2.751.966" transform="translate(-1285.094 -852.585)" fill="#eea886"/>
            <path id="Trazado_229155" data-name="Trazado 229155" d="M1354.6,969.534s-1.36.484-1.974.618-1.9.743-1.8,3.035a47.928,47.928,0,0,0,.627,5.265,20.755,20.755,0,0,1-.174,4.71,17.232,17.232,0,0,0,7.094,0,16,16,0,0,1-.662-2.615c.017-.537,2.266-4.961,2.37-5.659s.558-3.779-.471-4.459-1.865-.591-2.3-.9a4.781,4.781,0,0,0-2.715,0" transform="translate(-1240.255 -889.99)" fill="#6f5be0"/>
            <path id="Trazado_229156" data-name="Trazado 229156" d="M1348.871,1010.648a19.058,19.058,0,0,1-10,.006,13.781,13.781,0,0,0,.917-2.462h0a14.777,14.777,0,0,0,.343-1.652h0a14.961,14.961,0,0,0-.138-5.357c.643-5.29,8.648-6.869,9.289-5.192s-1.242,8.883-1.338,9.5a44.723,44.723,0,0,0,.927,5.156" transform="translate(-1229.276 -913.874)" fill="#6f5be0"/>
            <path id="Trazado_229157" data-name="Trazado 229157" d="M1376.768,859.27c-.925-.317-3.425-.655-4.066,3.183s.755,3.9,2.188,3.794,3.675-2.7,3.847-3.487.67-2.585-1.969-3.49" transform="translate(-1260.191 -788.769)" fill="#eea886"/>
            <path id="Trazado_229158" data-name="Trazado 229158" d="M1380.792,857.31a5.829,5.829,0,0,0,1.765,2.2,4.942,4.942,0,0,0,1.987,2.438s3.606-2.389,1.514-5.228-5.03-.578-5.266.587" transform="translate(-1267.766 -785.335)" fill="#0f324f"/>
            <path id="Trazado_229159" data-name="Trazado 229159" d="M1398.957,896.152a.471.471,0,0,1,.864.023c.242.548-.628,1.513-.867,1.461s-.306-.726,0-1.484" transform="translate(-1284.254 -822.54)" fill="#eea886"/>
            <path id="Trazado_229160" data-name="Trazado 229160" d="M1427.762,873.31c.079-.123,2.467-1.229,2.964,1.082s-1.923,5-2.348,6.151.192,3.862.192,3.862a7.967,7.967,0,0,1-1.9-2.817,11.535,11.535,0,0,1,1.089-8.278" transform="translate(-1309.592 -801.483)" fill="#0f324f"/>
            <path id="Trazado_229161" data-name="Trazado 229161" d="M1435.487,876.427a2.409,2.409,0,0,0-.825,1.491,1.792,1.792,0,0,1,.158-1.147.659.659,0,0,1,.668-.344" transform="translate(-1317.196 -804.679)" fill="#e54242"/>
            <path id="Trazado_229162" data-name="Trazado 229162" d="M1350.073,1065.132c.152-.567.35-1.808.429-2.339a1.345,1.345,0,0,0,.4-.466c.12-.375,1.046-4.959,1.046-4.959a9.778,9.778,0,0,1-1.88,7.765" transform="translate(-1239.561 -970.814)" fill="#1d3b54"/>
            <path id="Trazado_229163" data-name="Trazado 229163" d="M1257.323,1138.62s-1,.462-1.228.534a19.8,19.8,0,0,0-2.329-.446c-.145-.011-.4.12-.34.311a2.578,2.578,0,0,0,1.085.791c.307.079,1.756.655,2.463.373a2.9,2.9,0,0,0,1.187-1.181Z" transform="translate(-1150.818 -1045.416)" fill="#eea886"/>
            <path id="Trazado_229164" data-name="Trazado 229164" d="M1293.508,980.83a3.691,3.691,0,0,0-2.02,3.406,37.471,37.471,0,0,1-.32,4.443,14.615,14.615,0,0,1-.781,3.043c-.466.96-3.533,2.477-3.533,2.477l.933,1.187s4.817-2.55,5.076-3.332,1.324-6.22,1.409-7.137c.068-.739,1.043-4.032-.764-4.087" transform="translate(-1181.517 -900.543)" fill="#6f5be0"/>
            <path id="Trazado_229165" data-name="Trazado 229165" d="M806.883,869.919c0,.071-.007.142-.012.213H809.6c0-.071.007-.142.01-.213Zm-30.439-.754c0,.083,0,.164,0,.247,0,.345.02.688.049,1.028a16.2,16.2,0,0,0,.463,2.834,16.511,16.511,0,0,0,4.359,7.632c.081.083.162.162.242.24.326.313.666.614,1.018.9a16.509,16.509,0,0,0,10.459,3.713c.066,0,.132,0,.2,0a16.5,16.5,0,0,0,8.246-2.306,16.645,16.645,0,0,0,7.284-8.99q.195-.584.35-1.185a16.689,16.689,0,0,0,.4-2.2v0c.017-.159.034-.318.047-.48s.027-.308.034-.465c0-.071.007-.142.01-.213.007-.157.012-.311.015-.468,0-.1,0-.191,0-.286a16.592,16.592,0,0,0-14.069-16.4c-.154-.024-.308-.047-.465-.066s-.343-.039-.514-.054c-.154-.015-.311-.027-.465-.037-.357-.025-.717-.034-1.077-.034-.306,0-.609.007-.911.024-.516.027-1.025.081-1.53.154a16.634,16.634,0,0,0-12.806,9.857c-.024.054-.046.11-.068.164s-.044.105-.064.157c-.127.306-.242.617-.348.93a16.289,16.289,0,0,0-.631,2.518c-.042.228-.073.458-.105.69,0,.039-.007.078-.012.12,0,0,0,0,0,.01a.454.454,0,0,0,0,.059.551.551,0,0,0-.01.068v.017a.142.142,0,0,0-.005.034.375.375,0,0,0,0,.051c0,.042-.01.083-.012.125-.024.254-.044.511-.056.768,0,.034,0,.071,0,.105q0,.085-.007.169c-.007.189-.01.377-.01.568m3.718,5.162-.064-.162c-.047-.12-.091-.24-.135-.362l-.1-.294c-.024-.073-.049-.147-.071-.22,0,0,0-.01,0-.015a.273.273,0,0,1-.012-.042c-.039-.122-.073-.247-.108-.372l-.039-.144c-.037-.132-.069-.267-.1-.4,0-.012-.007-.027-.01-.042-.027-.125-.054-.25-.078-.375-.012-.051-.022-.1-.032-.154-.029-.157-.056-.316-.081-.475-.044-.279-.076-.56-.1-.844-.01-.1-.017-.193-.024-.291,0,0,0,0,0,0,0-.032,0-.061,0-.093-.007-.132-.015-.264-.02-.4V869.6c0-.029,0-.061,0-.093,0-.115,0-.23,0-.345s0-.215,0-.321a12.083,12.083,0,0,1,.088-1.273,1.189,1.189,0,0,1,.015-.132.009.009,0,0,1,0-.007s0,0,0,0a0,0,0,0,1,0-.007.09.09,0,0,1,0-.027v0s0-.007,0-.01a13.767,13.767,0,0,1,2.058-5.671A13.921,13.921,0,0,1,786.374,857a13.479,13.479,0,0,1,1.684-.783c.183-.071.372-.14.56-.2a13.564,13.564,0,0,1,3.307-.673c.367-.032.737-.047,1.111-.047.113,0,.223,0,.335,0,.13,0,.257.007.387.012.093,0,.186.012.279.02a.722.722,0,0,1,.076,0c.154.01.311.024.465.042l.118.015c.061.007.125.015.186.024s.14.017.211.029c.157.022.311.049.465.076l.042.007q.18.033.36.073l.022,0c.049.01.1.022.149.034.113.024.223.051.333.081a1.368,1.368,0,0,1,.144.037c.127.034.255.068.382.108s.242.073.362.113c.056.017.113.037.166.056.24.081.477.169.71.264.064.025.127.051.191.078.1.042.193.083.291.127.078.034.157.069.233.108.115.051.228.108.34.164s.252.13.375.2c.142.076.279.154.416.235.284.166.558.343.827.529.115.078.228.159.34.245.142.1.279.206.414.313s.24.193.357.294.24.206.357.313a13.831,13.831,0,0,1,4.533,10.256c0,.1,0,.191,0,.286,0,.157-.007.311-.017.468,0,.071-.007.142-.012.213-.012.157-.025.311-.042.465q-.066.661-.2,1.3a13.463,13.463,0,0,1-.35,1.376c-.11.357-.235.71-.375,1.052a13.862,13.862,0,0,1-12.674,8.7c-.066,0-.132,0-.2,0a13.865,13.865,0,0,1-12.25-7.362c-.061-.118-.122-.235-.181-.352l-.108-.225c-.044-.088-.083-.176-.125-.267l-.039-.088c-.034-.078-.069-.157-.1-.237Z" transform="translate(-712.887 -782.786)" fill="#3f444f"/>
            <g id="Grupo_115103" data-name="Grupo 115103" transform="translate(66.331 72.562)" opacity="0.1">
              <g id="Grupo_115102" data-name="Grupo 115102">
                <g id="Grupo_115101" data-name="Grupo 115101" clip-path="url(#clip-path-7)">
                  <path id="Trazado_229166" data-name="Trazado 229166" d="M810.333,900.265a13.818,13.818,0,1,0,13.818-13.818,13.818,13.818,0,0,0-13.818,13.818" transform="translate(-810.333 -886.447)" fill="#b8b8b8"/>
                </g>
              </g>
            </g>
            <g id="Grupo_115106" data-name="Grupo 115106" transform="translate(66.282 72.512)" opacity="0.3">
              <g id="Grupo_115105" data-name="Grupo 115105">
                <g id="Grupo_115104" data-name="Grupo 115104" clip-path="url(#clip-path-8)">
                  <path id="Trazado_229167" data-name="Trazado 229167" d="M832.93,889.456s-18-2.23-21.582,16.762h0a13.869,13.869,0,0,1,21.582-16.762" transform="translate(-809.731 -885.846)" fill="#869ac2"/>
                </g>
              </g>
            </g>
            <path id="Trazado_229168" data-name="Trazado 229168" d="M359.636,1147.433l6.013,3.305,6.038-9.5-7.3-2.537Z" transform="translate(-330.197 -1045.488)" fill="#292c47"/>
            <path id="Trazado_229169" data-name="Trazado 229169" d="M364.294,1150.3l5.623,3.091,5.647-8.887-6.83-2.372Z" transform="translate(-334.474 -1048.637)" fill="#e2d2ca"/>
            <path id="Trazado_229170" data-name="Trazado 229170" d="M339.136,1199.457s1.047-.5,1.506-.762,1.641-.621,1.737-.706,3.5-.3,3.71-.474.408.418-.475.611-2.112.667-2.179,1.012.907.427,1.006.711-.028.22-.167.281-1.159-.5-1.607-.343-1.133-.062-1.477.056-2.014.679-2.014.679Z" transform="translate(-311.376 -1099.461)" fill="#eea886"/>
            <path id="Trazado_229171" data-name="Trazado 229171" d="M425.573,1203.627s.879-.791,1.3-1.122,1.224-1.3,1.342-1.361,1.643-3.186,1.891-3.311-.235-.547-.761.21-1.45,1.731-1.8,1.66-.049-1.021-.279-1.225-.219-.06-.331.048.023,1.288-.3,1.648-.383,1.092-.628,1.37-1.425,1.633-1.425,1.633Z" transform="translate(-389.828 -1099.57)" fill="#eea886"/>
            <path id="Trazado_229172" data-name="Trazado 229172" d="M177.319,1786.021s-.19,1.32-.214,1.519-2.116-.117-2.116-.117l-.169-1.572a12.4,12.4,0,0,1,2.5.17" transform="translate(-160.51 -1639.667)" fill="#424773"/>
            <path id="Trazado_229173" data-name="Trazado 229173" d="M173.46,1803.428a5.646,5.646,0,0,0,1.3,1.142c.641.347,1.648.484,2.028.843.274.259,1,1.374-1.666,1.352s-3.946.158-4.232-.27.413-3.156.413-3.156a5.637,5.637,0,0,0,2.153.089" transform="translate(-156.842 -1655.724)" fill="#292c47"/>
            <path id="Trazado_229174" data-name="Trazado 229174" d="M360.437,1786.021s-.19,1.32-.214,1.519-2.116-.117-2.116-.117l-.169-1.572a12.4,12.4,0,0,1,2.5.17" transform="translate(-328.638 -1639.667)" fill="#424773"/>
            <path id="Trazado_229175" data-name="Trazado 229175" d="M356.577,1803.428a5.648,5.648,0,0,0,1.3,1.142c.641.347,3,.632,3.379.99.274.259.729,1.3-3.018,1.2-2.662-.069-3.946.158-4.232-.27s.413-3.156.413-3.156a5.117,5.117,0,0,0,2.153.089" transform="translate(-324.97 -1655.724)" fill="#292c47"/>
            <path id="Trazado_229176" data-name="Trazado 229176" d="M175.384,1373.525s-1.966,3.123-1.819,5.946-.713,5.905-1.008,8.854c-.329,3.288-1.676,11.071-1.725,12.829s.209,7.374.209,7.374l2.7.062s2.265-13.607,2.852-15,3.5-11.286,3.593-12.4-4.8-7.673-4.8-7.673" transform="translate(-156.843 -1261.093)" fill="#292c47"/>
            <path id="Trazado_229177" data-name="Trazado 229177" d="M225.766,1367.914s1.481,7.737,1.677,9.465.326,8.362.424,9.442.652,14.131,1.173,15.736h-3.448s-2.646-9.488-2.646-13.977-2.045-9.759-3.364-12.721-4.341-3.032-5.152-8.527c0,0,10.238-1.16,11.337.583" transform="translate(-196.877 -1255.058)" fill="#292c47"/>
            <path id="Trazado_229178" data-name="Trazado 229178" d="M248.064,1050.047s2.638-.986,3.855,1.023,1.1,6.029-.231,6.523-3.328.236-4.008-1.021a10.063,10.063,0,0,1-1.266-4.288,2.645,2.645,0,0,1,1.65-2.238" transform="translate(-226.242 -963.872)" fill="#eea886"/>
            <path id="Trazado_229179" data-name="Trazado 229179" d="M259.83,1117.985a2.282,2.282,0,0,0,.072,1.063c.181.351-3.418.36-3.418.36a23.716,23.716,0,0,0-.846-3.521c-.554-1.613,4.193,2.1,4.193,2.1" transform="translate(-234.671 -1024.172)" fill="#eea886"/>
            <path id="Trazado_229180" data-name="Trazado 229180" d="M244.747,1052.178s.248.41,1.263.251,2.251-1.508,2.675-1.656.427-.4.427-.4l.265.387.45.028s-.41-1.207.209-1.7-.642-3.907-3.895-2.77c0,0-2.5.689-2.407,2.109a7.9,7.9,0,0,0,1.014,3.747" transform="translate(-223.78 -960.462)" fill="#3a3f47"/>
            <path id="Trazado_229181" data-name="Trazado 229181" d="M265.5,1147.485s-.011-.67-.315-.735a21.709,21.709,0,0,0-3.728-.211v.781s.719.442,4.043.165" transform="translate(-240.058 -1052.65)" fill="#e2d2ca"/>
            <path id="Trazado_229182" data-name="Trazado 229182" d="M298.01,1086.3c-.057-.238-.663-.919-.9-.19s.351,1.71.676,1.626.364-.832.219-1.436" transform="translate(-272.745 -996.907)" fill="#eea886"/>
            <path id="Trazado_229183" data-name="Trazado 229183" d="M458.7,1255.316h-.005c.021.009.024.01.005,0" transform="translate(-421.146 -1152.559)" fill="#323657"/>
            <path id="Trazado_229184" data-name="Trazado 229184" d="M192.544,1181.736a27.921,27.921,0,0,0,4.377.781c2.759.3,9.653-.11,9.7-.436s-1.483-12.138-1.4-12.746.133-2.776.133-2.776a15.274,15.274,0,0,0,1.369,4.342c.264.478,1.149,1.975,1.576,1.635,2.065-1.649,5.264-7.863,5.466-7.915-.171-.074-1.516-.693-1.7-.756a17.851,17.851,0,0,0-2.558,2.5c-.4.436-.688.753-.688.753-.261-.587-1.21-4.281-1.505-5.56a12.083,12.083,0,0,1-.563-3c-2.019-.611-5.083-1.853-5.083-1.853l-4.043-.165a39.342,39.342,0,0,0-5.172,1.477c-.139.063-.139,3.31-.52,4.162l1.212,2.556s.7,5.063.845,7.315c.067,1.034-1.443,9.693-1.443,9.693" transform="translate(-176.22 -1061.864)" fill="#323657"/>
            <path id="Trazado_229185" data-name="Trazado 229185" d="M186.305,1182.953a1.6,1.6,0,0,0,.9.755,1.16,1.16,0,0,0,.647.065l.158-.029h0l2.771-.514s.606-6.982-3.785-8.654c-.116.038-1.657,5.252-.687,8.378" transform="translate(-170.762 -1078.428)" fill="#323657"/>
            <path id="Trazado_229186" data-name="Trazado 229186" d="M200.829,1246.526h0a1.159,1.159,0,0,0,.647.065l.158-.029h0l-.273-3.568Z" transform="translate(-184.39 -1141.247)" fill="#252840"/>
            <path id="Trazado_229187" data-name="Trazado 229187" d="M398.209,1277.375l.339,1.434a11.334,11.334,0,0,0,.35-2.187c-.4.436-.688.753-.688.753" transform="translate(-365.613 -1172.122)" fill="#252840"/>
            <path id="Trazado_229188" data-name="Trazado 229188" d="M239.968,1055.587s-3.458-.4-.059,5.377Z" transform="translate(-218.898 -969.175)" fill="#3a3f47"/>
            <path id="Trazado_229189" data-name="Trazado 229189" d="M441.854,1145.974l.351-.6-2.768-.955-.351.6Z" transform="translate(-403.143 -1050.737)" fill="#292c47"/>
            <path id="Trazado_229190" data-name="Trazado 229190" d="M901.017,1201.791s.548-.508.44-.889a1.632,1.632,0,0,1,.082-.836c.047-.2.066-.847.214-.811.252.06.194,1.093.224,1.313s.7-.517.925-.555,1.385,1.134.87,1.587a7.4,7.4,0,0,1-1.3.734,4.035,4.035,0,0,1-.428.366Z" transform="translate(-827.263 -1101.086)" fill="#eea987"/>
            <path id="Trazado_229191" data-name="Trazado 229191" d="M922.271,1195.195a15.326,15.326,0,0,1,1.854-1.273c.183.008.247.1.1.229s-1.579,1.284-1.579,1.284,2.233-1.184,2.384-1.21c.088-.015.155.154.081.229s-2.153,1.382-2.153,1.382,2.087-1.1,2.22-1.086a.162.162,0,0,1,.051.3c-.149.092-2.028,1.224-2.028,1.224a9.589,9.589,0,0,1,1.674-.626c.064.049.154.156-.256.325a14.709,14.709,0,0,0-1.3.711Z" transform="translate(-846.777 -1096.191)" fill="#eea987"/>
            <path id="Trazado_229192" data-name="Trazado 229192" d="M759.123,1041.442a3.516,3.516,0,0,1,3.888,3.873c-.109,4.205-.776,4.838,0,7.81s-3.9-1.687-3.9-1.687Z" transform="translate(-696.978 -956.187)" fill="#e8734d"/>
            <path id="Trazado_229193" data-name="Trazado 229193" d="M595.853,1773.306s-1.484,2.085-1.281,2.416,1.765.378,2.715,0,.973-2.822,1.4-3.872c.18-.44-.205-1.737-.747-1.831a2.2,2.2,0,0,0-1.13.182,3.118,3.118,0,0,1-.96,3.1" transform="translate(-545.886 -1625.113)" fill="#363a5e"/>
            <path id="Trazado_229194" data-name="Trazado 229194" d="M605.882,1769.849a10.2,10.2,0,0,0-.426,1.736c-.095.7-1.057,2.2-1.012,2.385a1.684,1.684,0,0,0,1.765-.127,5.885,5.885,0,0,0,.928-2.75,7.055,7.055,0,0,1,.231-1.178s-1.009-.585-1.484-.066" transform="translate(-554.965 -1624.778)" fill="#eea886"/>
            <path id="Trazado_229195" data-name="Trazado 229195" d="M754.287,1773.353s-1.431,2.051-1.227,2.381,1.765.378,2.715,0,.973-2.822,1.4-3.872c.18-.44-.205-1.737-.747-1.831a2.343,2.343,0,0,0-1.176.2,3.157,3.157,0,0,1-.967,3.12" transform="translate(-691.399 -1625.125)" fill="#363a5e"/>
            <path id="Trazado_229196" data-name="Trazado 229196" d="M764.341,1769.366a14.521,14.521,0,0,1-.294,1.653c-.181.685-1.154,2.243-1.108,2.432a1.684,1.684,0,0,0,1.765-.127,5.232,5.232,0,0,0,.928-2.75,4.728,4.728,0,0,0-.113-1.41,1.068,1.068,0,0,0-1.176.2" transform="translate(-700.486 -1624.258)" fill="#eea886"/>
            <path id="Trazado_229197" data-name="Trazado 229197" d="M624.852,1307.407s-1.274,6.183-1.566,7.74-1.112,9.1-1.2,10.379-1.329,6.113-1.271,6.571-2.016,9.534-2.016,9.534a6.147,6.147,0,0,0,2.056-.086c.4-.168,3.618-8.354,3.618-10.643,0-3.165,1.767-7.3,2.023-8.017,2.522-7.09,2.984-8.773,3.335-9.2,0,0,.053.578.173,1.539.138,1.105.74,9,1,10.034s.059,4.548.205,6.319.418,9.847.418,9.847a4.6,4.6,0,0,0,1.9-.289c.2-.116.868-8.678.9-10.785s.06-5.011.117-5.922c.542-8.729,1.874-9.975-.224-16.153-3.928-11.566-9.472-.868-9.472-.868" transform="translate(-568.147 -1196.248)" fill="#313657"/>
            <path id="Trazado_229198" data-name="Trazado 229198" d="M642.53,1790.369v2.183h-.271v-1.687Z" transform="translate(-589.685 -1643.816)" fill="#363a5e"/>
            <path id="Trazado_229199" data-name="Trazado 229199" d="M801.025,1790.369v2.183h-.271v-1.687Z" transform="translate(-735.207 -1643.816)" fill="#363a5e"/>
            <path id="Trazado_229200" data-name="Trazado 229200" d="M738.876,1128.594a16.6,16.6,0,0,0,.613-1.753c.012-.044.024-.088.035-.133.031-.121.06-.243.086-.364.015-.069.028-.137.041-.206a2.887,2.887,0,0,0,0-1.348c-.388-1.145,2.431-.352,2.431-.352s-.546,3.029,0,4.05-3.205.106-3.205.106" transform="translate(-678.394 -1032.15)" fill="#eea886"/>
            <path id="Trazado_229201" data-name="Trazado 229201" d="M676.3,1169.165c.314-.393-1.893-.53-1.893-.53l-2.575-.222a22.963,22.963,0,0,0-3.144.77c-1.374.476-3.174,3.078-3.174,3.078s2.483,5.829,2.959,7.5-.539,5.93-.539,5.93c2.976,1.62,8.854.173,8.854.173s-2.343-14.38-.489-16.7" transform="translate(-611.034 -1072.771)" fill="#eddad3"/>
            <path id="Trazado_229202" data-name="Trazado 229202" d="M803.008,1230.88s-.116.244-.433,1.206a19.268,19.268,0,0,1-.154-4.109,10.15,10.15,0,0,0,.588,2.9" transform="translate(-736.696 -1127.46)" fill="#cfbeb8"/>
            <path id="Trazado_229203" data-name="Trazado 229203" d="M741.9,1167.016l-3.03,2.47.312-2.6a5.009,5.009,0,0,1,2.718.132" transform="translate(-678.393 -1071.241)" fill="#eea886"/>
            <path id="Trazado_229204" data-name="Trazado 229204" d="M750.705,1180.012c-.417,1.728,1.691,7.138,1.691,7.138l-3.559,1.2a.759.759,0,0,1-.991-.585c-.4-2.25-1.441-8.284-1.559-10.959-.146-3.323,2.273-7.244,2.273-7.244,4.3.738,3.122,7.244,3.122,7.244s-.156.41-.365,1.051h0c-.053.161-.108.336-.166.523-.147.481-.306,1.039-.448,1.627" transform="translate(-685.194 -1073.829)" fill="#494f80"/>
            <path id="Trazado_229205" data-name="Trazado 229205" d="M665.708,1168.554l.053-.142a14.777,14.777,0,0,0-3.322.894c-1.119.559-3.262,3.447-3.262,3.447l2.8,3.7c0,2.844-.989,9.515-.989,9.515l1.948.8a.465.465,0,0,0,.642-.423c.031-2.031.126-8.046.174-10.393.058-2.844,2.088-7.444,2.088-7.444l-.133.048" transform="translate(-605.219 -1072.77)" fill="#494f80"/>
            <path id="Trazado_229206" data-name="Trazado 229206" d="M690.181,1307.847a24,24,0,0,0,2.442,0c.329-.082,2.522-1.033,2.653-1.973s-5.1.842-5.1.842Z" transform="translate(-633.685 -1198.729)" fill="#eea886"/>
            <path id="Trazado_229207" data-name="Trazado 229207" d="M674.087,1285.922l-8.576-1,3.874,3.152Z" transform="translate(-611.035 -1179.74)" fill="#707070"/>
            <path id="Trazado_229208" data-name="Trazado 229208" d="M711.064,1299.33l4.7-1.6v-.546l-4.861,1.559Z" transform="translate(-652.714 -1190.999)" fill="#a1a1a1"/>
            <path id="Trazado_229209" data-name="Trazado 229209" d="M717.51,1162.547l-1.629,2.585-.788.5,1.836-2.574Z" transform="translate(-656.558 -1067.385)" fill="#fae6de"/>
            <path id="Trazado_229210" data-name="Trazado 229210" d="M724.721,1165.132l1.159.5.312-2.6.158-.48Z" transform="translate(-665.398 -1067.385)" fill="#d6c5be"/>
            <path id="Trazado_229211" data-name="Trazado 229211" d="M623.146,1300.488a6.517,6.517,0,0,0,0,1.321s-5.289-.528-5.782-1.268a3.188,3.188,0,0,1-.475-1.638Z" transform="translate(-566.392 -1192.579)" fill="#494f80"/>
            <path id="Trazado_229212" data-name="Trazado 229212" d="M578.125,1207.874l-2.5-9.3-9.51-1,2.606,8.559Z" transform="translate(-519.775 -1099.543)" fill="#a1a1a1"/>
            <path id="Trazado_229213" data-name="Trazado 229213" d="M792.213,1199.206c.477-.393.757-.538,1.332-1.033.894-.77,2.038-1.745,2.038-1.745l1.087,1.6s-2.629,2.31-4.025,3.682c0,0-1.768,1.9-2.163,1.731a18.544,18.544,0,0,1-2.93-4.175,10.93,10.93,0,0,1-1.686-4.073c-.056-.855,2.775-1.267,2.775-1.267l2.217,4.842a7.163,7.163,0,0,0,.6.9s.5-.283.76-.458" transform="translate(-721.537 -1096.191)" fill="#494f80"/>
            <path id="Trazado_229214" data-name="Trazado 229214" d="M716.112,1046.282a3.4,3.4,0,0,0-3.9,2.688,8.275,8.275,0,0,0,.107,1.3c.109.579-.581,2.171-.459,2.267a3.647,3.647,0,0,0,.65.262s.375,1.868,1.009,1.925a5.278,5.278,0,0,0,4.469-2.276c1.384-2.112,2.126-5.511-1.875-6.166" transform="translate(-653.576 -960.601)" fill="#eea886"/>
            <path id="Trazado_229215" data-name="Trazado 229215" d="M716.325,1044.577a9.018,9.018,0,0,0,3.071,1.694,4.324,4.324,0,0,1,2.416,2.181s2.795-2.788,1.108-5.493-6.593-1.5-6.6,1.619" transform="translate(-657.689 -956.209)" fill="#e8734d"/>
            <path id="Trazado_229216" data-name="Trazado 229216" d="M757.394,1097.534s1.654,4.34,1.46,5.385a5.609,5.609,0,0,1,2.34.324s-.736-7.752-3.8-5.709" transform="translate(-695.397 -1007.379)" fill="#e8734d"/>
            <path id="Trazado_229217" data-name="Trazado 229217" d="M739.75,1166.691l-.876.419,2.976-2.95Z" transform="translate(-678.393 -1068.866)" fill="#d6c5be"/>
            <path id="Trazado_229218" data-name="Trazado 229218" d="M751.673,1164.16l-2.1,2.531,1.149,1.025,1.24-3.03Z" transform="translate(-688.215 -1068.866)" fill="#fae6de"/>
            <path id="Trazado_229219" data-name="Trazado 229219" d="M748.543,1140.137a3.66,3.66,0,0,1-1.751,1.231c.031-.121.06-.243.086-.364.015-.069.028-.138.041-.206a5.945,5.945,0,0,0,1.625-.66" transform="translate(-685.662 -1046.809)" fill="#a77860"/>
            <path id="Trazado_229220" data-name="Trazado 229220" d="M629.993,1249.717c.265.5.26,1.018-.01,1.161s-.7-.144-.968-.642-.26-1.017.01-1.161.7.144.968.642" transform="translate(-577.347 -1146.796)" fill="#828282"/>
            <path id="Trazado_229221" data-name="Trazado 229221" d="M778.765,1170.406a3.3,3.3,0,0,1,3.577,2.524s-3.522-.379-3.577-2.524" transform="translate(-715.018 -1074.586)" fill="#494f80"/>
            <g id="Grupo_115109" data-name="Grupo 115109" transform="translate(110.094 15.785)" style="mix-blend-mode: hard-light;isolation: isolate">
              <g id="Grupo_115108" data-name="Grupo 115108">
                <g id="Grupo_115107" data-name="Grupo 115107" clip-path="url(#clip-path-9)">
                  <path id="Trazado_229222" data-name="Trazado 229222" d="M1385.273,243.246h-37.205a3.1,3.1,0,0,1-3.1-3.1V195.932a3.1,3.1,0,0,1,3.1-3.1h37.205a3.1,3.1,0,0,1,3.1,3.1v44.213a3.1,3.1,0,0,1-3.1,3.1" transform="translate(-1344.966 -192.83)" fill="#f5f5f5"/>
                </g>
              </g>
            </g>
            <path id="Trazado_229223" data-name="Trazado 229223" d="M1425.278,365.736a11.093,11.093,0,1,0-20.89,7.471c.084.235.175.466.273.692a11.093,11.093,0,0,0,20.617-8.163m-7.644,11.567a8.308,8.308,0,0,1-10.427-4.512q-.11-.254-.205-.519a8.317,8.317,0,1,1,10.632,5.031" transform="translate(-1288.832 -329.04)" fill="#4aafff"/>
            <path id="Trazado_229224" data-name="Trazado 229224" d="M1412.575,367.047l-2.65-.828a11.109,11.109,0,0,1,10.258-7.785l.083,2.776a8.329,8.329,0,0,0-7.69,5.837" transform="translate(-1294.514 -329.095)" fill="#1a598c"/>
            <path id="Trazado_229225" data-name="Trazado 229225" d="M1407.207,460.164l-2.546,1.108q-.147-.338-.273-.692a11.043,11.043,0,0,1-.145-7.042l2.65.828a8.28,8.28,0,0,0,.108,5.279q.095.264.205.519" transform="translate(-1288.832 -416.413)" fill="#2273b5"/>
            <path id="Trazado_229226" data-name="Trazado 229226" d="M1416.747,538.349a11.03,11.03,0,0,1-1.72-2.761l2.546-1.108a8.266,8.266,0,0,0,1.289,2.071Z" transform="translate(-1299.198 -490.729)" fill="#3788cc"/>
            <path id="Trazado_229227" data-name="Trazado 229227" d="M1710.906,526.123a4.589,4.589,0,1,0-3.925,8.3q.14.066.282.122a4.589,4.589,0,0,0,3.643-8.418m1.147,5.619a3.437,3.437,0,0,1-4.37,1.73q-.107-.042-.212-.092a3.44,3.44,0,1,1,4.581-1.638" transform="translate(-1564.842 -482.65)" fill="#4aafff"/>
            <path id="Trazado_229228" data-name="Trazado 229228" d="M1705.9,548.049l-1.017.533a4.6,4.6,0,0,1,.723-5.277l.836.788a3.446,3.446,0,0,0-.542,3.957" transform="translate(-1564.841 -498.832)" fill="#1a598c"/>
            <path id="Trazado_229229" data-name="Trazado 229229" d="M1713.574,602.867l-.421,1.069q-.142-.056-.282-.122a4.567,4.567,0,0,1-2.1-2.017l1.017-.533a3.425,3.425,0,0,0,1.576,1.513q.105.05.212.092" transform="translate(-1570.732 -552.046)" fill="#2273b5"/>
            <path id="Trazado_229230" data-name="Trazado 229230" d="M1647.092,636.369h-8.569v-.17h8.4v-3.237h.17Z" transform="translate(-1504.4 -581.15)" fill="#e2f3fe"/>
            <rect id="Rectángulo_50306" data-name="Rectángulo 50306" width="7.668" height="1.022" transform="translate(115.411 53.277)" fill="#4aafff"/>
            <rect id="Rectángulo_50307" data-name="Rectángulo 50307" width="4.51" height="1.022" transform="translate(134.123 53.277)" fill="#4aafff"/>
            <rect id="Rectángulo_50308" data-name="Rectángulo 50308" width="3.67" height="0.784" transform="translate(113.674 20.112)" fill="#4aafff"/>
            <rect id="Rectángulo_50309" data-name="Rectángulo 50309" width="5.694" height="0.784" transform="translate(128.974 23.065)" fill="#4aafff"/>
            <rect id="Rectángulo_50310" data-name="Rectángulo 50310" width="3.476" height="0.784" transform="translate(121.611 23.065)" fill="#4aafff"/>
            <rect id="Rectángulo_50311" data-name="Rectángulo 50311" width="6.887" height="0.784" transform="translate(113.674 23.065)" fill="#4aafff"/>
            <rect id="Rectángulo_50312" data-name="Rectángulo 50312" width="5.438" height="0.784" transform="translate(118.461 20.112)" fill="#4aafff"/>
            <rect id="Rectángulo_50313" data-name="Rectángulo 50313" width="1.494" height="0.784" transform="translate(126.176 23.065)" fill="#4aafff"/>
            <rect id="Rectángulo_50314" data-name="Rectángulo 50314" width="4.062" height="0.784" transform="translate(130.606 20.156)" fill="#4aafff"/>
            <rect id="Rectángulo_50315" data-name="Rectángulo 50315" width="3.464" height="0.784" transform="translate(136.117 23.065)" fill="#4aafff"/>
            <rect id="Rectángulo_50316" data-name="Rectángulo 50316" width="4.306" height="0.784" transform="translate(125.237 20.156)" fill="#4aafff"/>
            <path id="Trazado_229231" data-name="Trazado 229231" d="M1552.016,743.556h-6.829a2.07,2.07,0,0,1-2.07-2.07v-6.829a2.07,2.07,0,0,1,2.07-2.07h6.829a2.07,2.07,0,0,1,2.07,2.07v6.829a2.07,2.07,0,0,1-2.07,2.07" transform="translate(-1416.803 -672.62)" fill="#fff"/>
            <rect id="Rectángulo_50317" data-name="Rectángulo 50317" width="1.038" height="4.364" transform="translate(131.279 63.27)" fill="#c5ccd1"/>
            <rect id="Rectángulo_50318" data-name="Rectángulo 50318" width="4.364" height="1.038" transform="translate(129.616 64.933)" fill="#c5ccd1"/>
          </g>
        </g>
        <g id="Grupo_115113" data-name="Grupo 115113" transform="translate(156.37 8.846)">
          <g id="Grupo_115112" data-name="Grupo 115112" clip-path="url(#clip-path-10)">
            <rect id="Rectángulo_50320" data-name="Rectángulo 50320" width="14.155" height="9.756" transform="translate(0 0)" fill="url(#linear-gradient-4)"/>
          </g>
        </g>
      </g>
    </g>
  </g>
</svg>
