<svg xmlns="http://www.w3.org/2000/svg" width="206.36" height="213.615" viewBox="0 0 206.36 213.615">
  <g id="Grupo_114528" data-name="Grupo 114528" transform="translate(-1291.583 -846.199)">
    <path id="Trazado_226218" data-name="Trazado 226218" d="M4792.252,279.317a79.073,79.073,0,1,1,79.073,79.073,79.073,79.073,0,0,1-79.073-79.073" transform="translate(-3476.508 677.263)" fill="#d2f7ff"/>
    <path id="Trazado_226219" data-name="Trazado 226219" d="M4697.787,625.718a1.319,1.319,0,0,1-1.28-1.009c-.416-1.719-.792-3.476-1.119-5.22a1.318,1.318,0,0,1,2.591-.485c.318,1.7.685,3.411,1.09,5.086a1.32,1.32,0,0,1-1.282,1.628" transform="translate(-3402.037 356.215)" fill="#0e5489"/>
    <path id="Trazado_226220" data-name="Trazado 226220" d="M4689.459,399.463a1.317,1.317,0,0,1-1.312-1.214c-.216-2.73-.326-5.508-.326-8.258q0-1.355.035-2.7a1.318,1.318,0,1,1,2.635.068q-.034,1.313-.034,2.633c0,2.681.107,5.389.317,8.05a1.319,1.319,0,0,1-1.21,1.418q-.053,0-.105,0m.563-21.612a1.349,1.349,0,0,1-.174-.011,1.319,1.319,0,0,1-1.134-1.479,103.3,103.3,0,0,1,2.011-10.778,1.318,1.318,0,0,1,2.562.621,100.646,100.646,0,0,0-1.959,10.5,1.318,1.318,0,0,1-1.3,1.146m5.093-21.007a1.319,1.319,0,0,1-1.24-1.764,103.071,103.071,0,0,1,4.253-10.105,1.318,1.318,0,0,1,2.372,1.151,100.426,100.426,0,0,0-4.145,9.846,1.318,1.318,0,0,1-1.24.873" transform="translate(-3396.238 566.589)" fill="#0e5489"/>
    <path id="Trazado_226221" data-name="Trazado 226221" d="M4755.789,291.269a1.318,1.318,0,0,1-1.117-2.016c.939-1.5,1.929-3,2.943-4.451a1.318,1.318,0,1,1,2.16,1.51c-.988,1.414-1.953,2.873-2.868,4.337a1.317,1.317,0,0,1-1.119.62" transform="translate(-3447.469 612.701)" fill="#0e5489"/>
    <path id="Trazado_226222" data-name="Trazado 226222" d="M5268.426,951.212a1.318,1.318,0,0,1-.415-2.569c1.638-.543,3.283-1.137,4.891-1.765a1.318,1.318,0,0,1,.959,2.455c-1.65.644-3.339,1.254-5.021,1.812a1.322,1.322,0,0,1-.415.067" transform="translate(-3841.5 103.441)" fill="#0e5489"/>
    <path id="Trazado_226223" data-name="Trazado 226223" d="M5112.231,970.812c-1.766,0-3.552-.045-5.309-.134a1.318,1.318,0,0,1,.134-2.632c3.095.157,6.255.172,9.353.046a1.318,1.318,0,1,1,.107,2.634c-1.419.058-2.861.087-4.285.087m13.667-.909a1.318,1.318,0,0,1-.174-2.624c3.082-.413,6.177-.976,9.2-1.673a1.318,1.318,0,1,1,.592,2.569c-3.1.715-6.279,1.293-9.441,1.717a1.35,1.35,0,0,1-.177.012" transform="translate(-3717.414 89.002)" fill="#0e5489"/>
    <path id="Trazado_226224" data-name="Trazado 226224" d="M5048.924,971.975a1.311,1.311,0,0,1-.189-.014c-1.755-.253-3.526-.556-5.263-.9a1.318,1.318,0,0,1,.511-2.586c1.692.335,3.417.63,5.128.876a1.318,1.318,0,0,1-.187,2.622" transform="translate(-3668.788 86.79)" fill="#0e5489"/>
    <path id="Trazado_226225" data-name="Trazado 226225" d="M5518.58,332.169a1.318,1.318,0,0,1-1.188-.745c-.75-1.555-1.551-3.11-2.381-4.623a1.318,1.318,0,0,1,2.312-1.267c.851,1.552,1.673,3.149,2.443,4.744a1.318,1.318,0,0,1-1.186,1.891" transform="translate(-4031.924 581.486)" fill="#0e5489"/>
    <path id="Trazado_226226" data-name="Trazado 226226" d="M5549.8,418.631a1.318,1.318,0,0,1-1.315-1.258c-.154-3.366-.479-6.756-.966-10.074a1.318,1.318,0,0,1,2.608-.383c.5,3.4.833,6.883.991,10.337a1.318,1.318,0,0,1-1.256,1.377h-.062m-2.979-20.261a1.318,1.318,0,0,1-1.277-1,100.257,100.257,0,0,0-2.968-9.674,1.318,1.318,0,1,1,2.478-.9,102.872,102.872,0,0,1,3.046,9.93,1.319,1.319,0,0,1-1.279,1.64" transform="translate(-4053.174 534.536)" fill="#0e5489"/>
    <path id="Trazado_226227" data-name="Trazado 226227" d="M5567.713,568.143a1.3,1.3,0,0,1-.14-.007,1.318,1.318,0,0,1-1.173-1.449c.18-1.714.319-3.459.411-5.187a1.318,1.318,0,1,1,2.632.141c-.095,1.773-.236,3.564-.422,5.322a1.318,1.318,0,0,1-1.309,1.18" transform="translate(-4071.542 400.547)" fill="#0e5489"/>
    <line id="Línea_1997" data-name="Línea 1997" x2="33.009" transform="translate(1322.99 1002.604)" fill="#fff"/>
    <path id="Trazado_226228" data-name="Trazado 226228" d="M4852.2,737.885h-33.01a1.318,1.318,0,0,1,0-2.636h33.01a1.318,1.318,0,0,1,0,2.636" transform="translate(-3496.202 266.038)" fill="#0e5489"/>
    <line id="Línea_1998" data-name="Línea 1998" y2="24.78" transform="translate(1339.495 977.824)" fill="#fff"/>
    <path id="Trazado_226229" data-name="Trazado 226229" d="M4890.528,655.558a1.318,1.318,0,0,1-1.318-1.318V629.46a1.318,1.318,0,0,1,2.636,0V654.24a1.318,1.318,0,0,1-1.318,1.318" transform="translate(-3551.033 348.364)" fill="#0e5489"/>
    <line id="Línea_1999" data-name="Línea 1999" y2="10.204" transform="translate(1308.413 1017.182)" fill="#fff"/>
    <path id="Trazado_226230" data-name="Trazado 226230" d="M4756.188,811.091a1.318,1.318,0,0,1-1.318-1.318v-10.2a1.318,1.318,0,0,1,2.636,0v10.2a1.318,1.318,0,0,1-1.318,1.318" transform="translate(-3447.774 217.611)" fill="#0e5489"/>
    <line id="Línea_2000" data-name="Línea 2000" y2="10.204" transform="translate(1370.576 1017.182)" fill="#fff"/>
    <path id="Trazado_226231" data-name="Trazado 226231" d="M5024.869,811.091a1.318,1.318,0,0,1-1.318-1.318v-10.2a1.318,1.318,0,0,1,2.636,0v10.2a1.318,1.318,0,0,1-1.318,1.318" transform="translate(-3654.293 217.611)" fill="#0e5489"/>
    <path id="Trazado_226232" data-name="Trazado 226232" d="M4860.636,564.478h-18.248a4.393,4.393,0,0,1-4.393-4.393V547.993a4.393,4.393,0,0,1,4.393-4.393h17.546a4.393,4.393,0,0,1,4.393,4.393v12.793a3.691,3.691,0,0,1-3.691,3.692" transform="translate(-3511.668 413.347)" fill="#5cb8ea"/>
    <path id="Trazado_226233" data-name="Trazado 226233" d="M4856.257,561.418H4838.01a5.717,5.717,0,0,1-5.711-5.711V543.616a5.717,5.717,0,0,1,5.711-5.711h17.546a5.717,5.717,0,0,1,5.711,5.711v12.793a5.015,5.015,0,0,1-5.01,5.01m-18.247-20.878a3.078,3.078,0,0,0-3.075,3.075v12.092a3.078,3.078,0,0,0,3.075,3.075h18.247a2.376,2.376,0,0,0,2.374-2.374V543.616a3.078,3.078,0,0,0-3.075-3.075Z" transform="translate(-3507.289 417.724)" fill="#0e5489"/>
    <line id="Línea_2001" data-name="Línea 2001" x1="5.642" transform="translate(1347.019 964.28)" fill="#fff"/>
    <path id="Trazado_226234" data-name="Trazado 226234" d="M4928.692,572.238h-5.643a1.318,1.318,0,1,1,0-2.636h5.643a1.318,1.318,0,1,1,0,2.636" transform="translate(-3576.031 393.36)" fill="#0e5489"/>
    <line id="Línea_2002" data-name="Línea 2002" x1="14.857" transform="translate(1326.328 964.28)" fill="#fff"/>
    <path id="Trazado_226235" data-name="Trazado 226235" d="M4848.475,572.238h-14.857a1.318,1.318,0,1,1,0-2.636h14.857a1.318,1.318,0,1,1,0,2.636" transform="translate(-3507.29 393.36)" fill="#0e5489"/>
    <path id="Trazado_226236" data-name="Trazado 226236" d="M4994.275,868.929h-17.546a4.393,4.393,0,0,1-4.393-4.393V851.743a3.692,3.692,0,0,1,3.691-3.692h18.248a4.393,4.393,0,0,1,4.393,4.393v12.092a4.393,4.393,0,0,1-4.393,4.393" transform="translate(-3614.928 179.334)" fill="#fff"/>
    <path id="Trazado_226237" data-name="Trazado 226237" d="M4989.9,865.868H4972.35a5.717,5.717,0,0,1-5.711-5.711V847.364a5.015,5.015,0,0,1,5.009-5.009H4989.9a5.717,5.717,0,0,1,5.711,5.711v12.092a5.717,5.717,0,0,1-5.711,5.711m-18.248-20.878a2.377,2.377,0,0,0-2.374,2.374v12.793a3.078,3.078,0,0,0,3.075,3.075H4989.9a3.078,3.078,0,0,0,3.075-3.075V848.066a3.078,3.078,0,0,0-3.075-3.075Z" transform="translate(-3610.549 183.712)" fill="#0e5489"/>
    <line id="Línea_2003" data-name="Línea 2003" x1="5.643" transform="translate(1378.1 1034.719)" fill="#fff"/>
    <path id="Trazado_226238" data-name="Trazado 226238" d="M5063.033,876.688h-5.643a1.318,1.318,0,1,1,0-2.636h5.643a1.318,1.318,0,1,1,0,2.636" transform="translate(-3679.29 159.349)" fill="#0e5489"/>
    <line id="Línea_2004" data-name="Línea 2004" x1="14.857" transform="translate(1357.409 1034.719)" fill="#fff"/>
    <path id="Trazado_226239" data-name="Trazado 226239" d="M4982.814,876.688h-14.857a1.318,1.318,0,1,1,0-2.636h14.857a1.318,1.318,0,1,1,0,2.636" transform="translate(-3610.549 159.349)" fill="#0e5489"/>
    <path id="Trazado_226240" data-name="Trazado 226240" d="M4725.594,868.929h-17.546a4.393,4.393,0,0,1-4.393-4.393V852.444a4.393,4.393,0,0,1,4.393-4.393H4726.3a3.691,3.691,0,0,1,3.691,3.692v12.793a4.393,4.393,0,0,1-4.393,4.393" transform="translate(-3408.408 179.334)" fill="#fff"/>
    <path id="Trazado_226241" data-name="Trazado 226241" d="M4721.215,865.868h-17.546a5.717,5.717,0,0,1-5.711-5.711V848.066a5.717,5.717,0,0,1,5.711-5.711h18.248a5.015,5.015,0,0,1,5.01,5.009v12.793a5.718,5.718,0,0,1-5.711,5.711m-17.546-20.878a3.078,3.078,0,0,0-3.075,3.075v12.092a3.078,3.078,0,0,0,3.075,3.075h17.546a3.078,3.078,0,0,0,3.075-3.075V847.364a2.377,2.377,0,0,0-2.374-2.374Z" transform="translate(-3404.029 183.712)" fill="#0e5489"/>
    <line id="Línea_2005" data-name="Línea 2005" x1="5.643" transform="translate(1315.938 1034.719)" fill="#fff"/>
    <path id="Trazado_226242" data-name="Trazado 226242" d="M4794.353,876.688h-5.643a1.318,1.318,0,1,1,0-2.636h5.643a1.318,1.318,0,0,1,0,2.636" transform="translate(-3472.772 159.349)" fill="#0e5489"/>
    <line id="Línea_2006" data-name="Línea 2006" x1="14.857" transform="translate(1295.246 1034.719)" fill="#fff"/>
    <path id="Trazado_226243" data-name="Trazado 226243" d="M4714.134,876.688h-14.857a1.318,1.318,0,1,1,0-2.636h14.857a1.318,1.318,0,1,1,0,2.636" transform="translate(-3404.03 159.349)" fill="#0e5489"/>
    <path id="Trazado_226244" data-name="Trazado 226244" d="M4966.243,692.518a14.577,14.577,0,1,1,14.577,14.577,14.577,14.577,0,0,1-14.577-14.577" transform="translate(-3610.244 310.087)" fill="#5cb8ea"/>
    <path id="Trazado_226245" data-name="Trazado 226245" d="M4976.441,704.034a15.895,15.895,0,1,1,15.895-15.895,15.913,15.913,0,0,1-15.895,15.895m0-29.153A13.259,13.259,0,1,0,4989.7,688.14a13.274,13.274,0,0,0-13.259-13.259" transform="translate(-3605.865 314.465)" fill="#0e5489"/>
    <path id="Trazado_226246" data-name="Trazado 226246" d="M4987.208,708.632a9.726,9.726,0,1,1,9.726,9.726,9.726,9.726,0,0,1-9.726-9.726" transform="translate(-3626.358 293.973)" fill="#fff"/>
    <path id="Trazado_226247" data-name="Trazado 226247" d="M4992.556,715.3a11.044,11.044,0,1,1,11.044-11.044,11.057,11.057,0,0,1-11.044,11.044m0-19.452a8.408,8.408,0,1,0,8.408,8.408,8.418,8.418,0,0,0-8.408-8.408" transform="translate(-3621.98 298.351)" fill="#0e5489"/>
    <line id="Línea_2007" data-name="Línea 2007" x1="6.973" y2="6.973" transform="translate(1367.089 999.118)" fill="#fff"/>
    <path id="Trazado_226248" data-name="Trazado 226248" d="M5009.8,729.787a1.318,1.318,0,0,1-.932-2.25l6.973-6.973a1.318,1.318,0,1,1,1.864,1.864l-6.973,6.973a1.314,1.314,0,0,1-.932.386" transform="translate(-3642.71 277.622)" fill="#0e5489"/>
    <line id="Línea_2008" data-name="Línea 2008" x2="6.973" y2="6.973" transform="translate(1367.089 999.118)" fill="#fff"/>
    <path id="Trazado_226249" data-name="Trazado 226249" d="M5016.771,729.787a1.313,1.313,0,0,1-.932-.386l-6.973-6.973a1.318,1.318,0,0,1,1.864-1.864l6.973,6.973a1.318,1.318,0,0,1-.932,2.25" transform="translate(-3642.709 277.622)" fill="#0e5489"/>
    <path id="Trazado_226250" data-name="Trazado 226250" d="M4697.562,692.518a14.577,14.577,0,1,1,14.577,14.577,14.577,14.577,0,0,1-14.577-14.577" transform="translate(-3403.726 310.087)" fill="#fff"/>
    <path id="Trazado_226251" data-name="Trazado 226251" d="M4707.761,704.034a15.895,15.895,0,1,1,15.895-15.895,15.913,15.913,0,0,1-15.895,15.895m0-29.153a13.259,13.259,0,1,0,13.259,13.259,13.274,13.274,0,0,0-13.259-13.259" transform="translate(-3399.348 314.465)" fill="#0e5489"/>
    <path id="Trazado_226252" data-name="Trazado 226252" d="M4718.527,708.632a9.726,9.726,0,1,1,9.726,9.726,9.726,9.726,0,0,1-9.726-9.726" transform="translate(-3419.84 293.973)" fill="#9ff5fc"/>
    <path id="Trazado_226253" data-name="Trazado 226253" d="M4723.875,715.3a11.044,11.044,0,1,1,11.044-11.044,11.057,11.057,0,0,1-11.044,11.044m0-19.452a8.408,8.408,0,1,0,8.408,8.408,8.418,8.418,0,0,0-8.408-8.408" transform="translate(-3415.462 298.351)" fill="#0e5489"/>
    <path id="Trazado_226254" data-name="Trazado 226254" d="M4741.922,730.98a1.314,1.314,0,0,1-.932-.386l-2.974-2.973a1.318,1.318,0,0,1,1.864-1.864l2.042,2.041,5.015-5.015a1.318,1.318,0,0,1,1.864,1.864l-5.947,5.947a1.314,1.314,0,0,1-.932.386" transform="translate(-3434.523 275.916)" fill="#0e5489"/>
    <line id="Línea_2009" data-name="Línea 2009" x2="57.082" transform="translate(1353.464 950.725)" fill="#fff"/>
    <path id="Trazado_226255" data-name="Trazado 226255" d="M5007.99,513.646h-57.083a1.318,1.318,0,0,1,0-2.636h57.083a1.318,1.318,0,1,1,0,2.636" transform="translate(-3597.443 438.396)" fill="#0e5489"/>
    <rect id="Rectángulo_49702" data-name="Rectángulo 49702" width="22.586" height="42.062" transform="translate(1370.712 908.662)" fill="#fff"/>
    <path id="Trazado_226256" data-name="Trazado 226256" d="M5048.044,373.9h-22.586a1.318,1.318,0,0,1-1.318-1.318V330.524a1.318,1.318,0,0,1,1.318-1.318h22.586a1.318,1.318,0,0,1,1.318,1.318v42.062a1.318,1.318,0,0,1-1.318,1.318m-21.268-2.636h19.95V331.842h-19.95Z" transform="translate(-3654.746 578.138)" fill="#0e5489"/>
    <path id="Trazado_226257" data-name="Trazado 226257" d="M4927.037,159.333H4820.2a9.034,9.034,0,0,1-9.042-9.026V79.646a9.034,9.034,0,0,1,9.042-9.026h106.84a9.035,9.035,0,0,1,9.042,9.026v70.661a9.035,9.035,0,0,1-9.042,9.026" transform="translate(-3491.037 776.896)" fill="#7cb4f7"/>
    <path id="Trazado_226258" data-name="Trazado 226258" d="M4922.659,156.273h-106.84a10.364,10.364,0,0,1-10.36-10.344V75.268a10.364,10.364,0,0,1,10.36-10.344h106.84a10.364,10.364,0,0,1,10.36,10.344v70.661a10.364,10.364,0,0,1-10.36,10.344M4815.819,67.56a7.725,7.725,0,0,0-7.725,7.709v70.661a7.725,7.725,0,0,0,7.725,7.708h106.84a7.725,7.725,0,0,0,7.725-7.708V75.268a7.725,7.725,0,0,0-7.725-7.709Z" transform="translate(-3486.659 781.275)" fill="#0e5489"/>
    <path id="Trazado_226259" data-name="Trazado 226259" d="M4835.107,167.433a.191.191,0,0,1-.189-.192V98.179a5.1,5.1,0,0,1,5.058-5.145H4943.7a5.1,5.1,0,0,1,5.057,5.144v69.062a.192.192,0,0,1-.19.193Z" transform="translate(-3509.303 759.669)" fill="#fff"/>
    <path id="Trazado_226260" data-name="Trazado 226260" d="M4944.188,164.372H4830.729a1.511,1.511,0,0,1-1.507-1.51V93.8a6.427,6.427,0,0,1,6.375-6.463h103.723A6.426,6.426,0,0,1,4945.7,93.8v69.062a1.511,1.511,0,0,1-1.508,1.511m-112.33-2.636h111.2V93.8a3.787,3.787,0,0,0-3.739-3.826H4835.6a3.789,3.789,0,0,0-3.74,3.827Z" transform="translate(-3504.925 764.047)" fill="#0e5489"/>
    <line id="Línea_2010" data-name="Línea 2010" x2="45.316" transform="translate(1370.152 866.37)" fill="#fff"/>
    <path id="Trazado_226261" data-name="Trazado 226261" d="M5068.353,149.047h-45.315a1.318,1.318,0,1,1,0-2.636h45.315a1.318,1.318,0,1,1,0,2.636" transform="translate(-3652.885 718.641)" fill="#0e5489"/>
    <line id="Línea_2011" data-name="Línea 2011" x2="45.316" transform="translate(1370.152 872.728)" fill="#fff"/>
    <path id="Trazado_226262" data-name="Trazado 226262" d="M5068.353,176.525h-45.315a1.318,1.318,0,1,1,0-2.636h45.315a1.318,1.318,0,1,1,0,2.636" transform="translate(-3652.885 697.521)" fill="#0e5489"/>
    <line id="Línea_2012" data-name="Línea 2012" x2="45.316" transform="translate(1370.152 879.085)" fill="#fff"/>
    <path id="Trazado_226263" data-name="Trazado 226263" d="M5068.353,204h-45.315a1.318,1.318,0,1,1,0-2.636h45.315a1.318,1.318,0,1,1,0,2.636" transform="translate(-3652.885 676.399)" fill="#0e5489"/>
    <line id="Línea_2013" data-name="Línea 2013" x2="45.316" transform="translate(1370.152 900.459)" fill="#fff"/>
    <path id="Trazado_226264" data-name="Trazado 226264" d="M5068.353,296.388h-45.315a1.318,1.318,0,1,1,0-2.636h45.315a1.318,1.318,0,1,1,0,2.636" transform="translate(-3652.885 605.39)" fill="#0e5489"/>
    <line id="Línea_2014" data-name="Línea 2014" x2="45.316" transform="translate(1370.152 906.816)" fill="#fff"/>
    <path id="Trazado_226265" data-name="Trazado 226265" d="M5068.353,323.866h-45.315a1.318,1.318,0,1,1,0-2.636h45.315a1.318,1.318,0,1,1,0,2.636" transform="translate(-3652.885 584.269)" fill="#0e5489"/>
    <line id="Línea_2015" data-name="Línea 2015" x2="45.316" transform="translate(1370.152 913.174)" fill="#fff"/>
    <path id="Trazado_226266" data-name="Trazado 226266" d="M5068.353,351.345h-45.315a1.318,1.318,0,1,1,0-2.636h45.315a1.318,1.318,0,1,1,0,2.636" transform="translate(-3652.885 563.147)" fill="#0e5489"/>
    <line id="Línea_2016" data-name="Línea 2016" x2="98.225" transform="translate(1333.899 890.577)" fill="#fff"/>
    <path id="Trazado_226267" data-name="Trazado 226267" d="M4964.57,253.677h-98.225a1.318,1.318,0,1,1,0-2.636h98.225a1.318,1.318,0,1,1,0,2.636" transform="translate(-3532.445 638.219)" fill="#0e5489"/>
    <path id="Trazado_226268" data-name="Trazado 226268" d="M5289.341,261.044h-39.625a9.081,9.081,0,0,1-9.081-9.081V189.675a9.081,9.081,0,0,1,9.081-9.081h39.625a9.081,9.081,0,0,1,9.081,9.081v62.288a9.081,9.081,0,0,1-9.081,9.081" transform="translate(-3821.152 692.367)" fill="#9ff5fc"/>
    <path id="Trazado_226269" data-name="Trazado 226269" d="M5284.962,257.984h-39.625a10.411,10.411,0,0,1-10.4-10.4V185.3a10.411,10.411,0,0,1,10.4-10.4h39.625a10.411,10.411,0,0,1,10.4,10.4v62.288a10.411,10.411,0,0,1-10.4,10.4m-39.625-80.45a7.771,7.771,0,0,0-7.763,7.763v62.288a7.771,7.771,0,0,0,7.763,7.763h39.625a7.772,7.772,0,0,0,7.763-7.763V185.3a7.772,7.772,0,0,0-7.763-7.763Z" transform="translate(-3816.773 696.744)" fill="#0e5489"/>
    <line id="Línea_2017" data-name="Línea 2017" x2="7.819" transform="translate(1444.467 948.099)" fill="#fff"/>
    <path id="Trazado_226270" data-name="Trazado 226270" d="M5352.062,502.3h-7.819a1.318,1.318,0,1,1,0-2.636h7.819a1.318,1.318,0,1,1,0,2.636" transform="translate(-3899.775 447.12)" fill="#0e5489"/>
    <rect id="Rectángulo_49703" data-name="Rectángulo 49703" width="47.258" height="61.755" transform="translate(1424.747 880.204)" fill="#fff"/>
    <path id="Trazado_226271" data-name="Trazado 226271" d="M5306.268,270.6H5259.01a1.318,1.318,0,0,1-1.318-1.318V207.522a1.318,1.318,0,0,1,1.318-1.318h47.258a1.318,1.318,0,0,1,1.318,1.318v61.755a1.318,1.318,0,0,1-1.318,1.318m-45.94-2.636h44.623V208.84h-44.623Z" transform="translate(-3834.263 672.682)" fill="#0e5489"/>
    <rect id="Rectángulo_49704" data-name="Rectángulo 49704" width="28.49" height="17.866" transform="translate(1334.183 863.295)" fill="#9ff5fc"/>
    <path id="Trazado_226272" data-name="Trazado 226272" d="M4896.062,153.619h-28.489a1.318,1.318,0,0,1-1.318-1.318V134.436a1.318,1.318,0,0,1,1.318-1.318h28.489a1.318,1.318,0,0,1,1.318,1.318V152.3a1.318,1.318,0,0,1-1.318,1.318m-27.172-2.636h25.854v-15.23H4868.89Z" transform="translate(-3533.389 728.858)" fill="#0e5489"/>
    <rect id="Rectángulo_49705" data-name="Rectángulo 49705" width="28.49" height="17.866" transform="translate(1334.183 898.262)" fill="#9ff5fc"/>
    <path id="Trazado_226273" data-name="Trazado 226273" d="M4896.062,304.756h-28.489a1.318,1.318,0,0,1-1.318-1.318V285.573a1.318,1.318,0,0,1,1.318-1.318h28.489a1.318,1.318,0,0,1,1.318,1.318v17.866a1.318,1.318,0,0,1-1.318,1.318m-27.172-2.636h25.854v-15.23H4868.89Z" transform="translate(-3533.389 612.689)" fill="#0e5489"/>
    <rect id="Rectángulo_49706" data-name="Rectángulo 49706" width="7.31" height="7.297" transform="translate(1445.618 896.9)" fill="#7cb4f7"/>
    <path id="Trazado_226274" data-name="Trazado 226274" d="M5356.526,288.3h-7.31a1.318,1.318,0,0,1-1.318-1.318v-7.3a1.318,1.318,0,0,1,1.318-1.318h7.31a1.318,1.318,0,0,1,1.318,1.318v7.3a1.318,1.318,0,0,1-1.318,1.318m-5.992-2.636h4.674v-4.661h-4.674Z" transform="translate(-3903.6 617.212)" fill="#0e5489"/>
    <rect id="Rectángulo_49707" data-name="Rectángulo 49707" width="7.31" height="7.297" transform="translate(1445.618 918.261)" fill="#7cb4f7"/>
    <path id="Trazado_226275" data-name="Trazado 226275" d="M5356.526,380.63h-7.31a1.318,1.318,0,0,1-1.318-1.318v-7.3a1.318,1.318,0,0,1,1.318-1.318h7.31a1.318,1.318,0,0,1,1.318,1.318v7.3a1.318,1.318,0,0,1-1.318,1.318m-5.992-2.636h4.674v-4.661h-4.674Z" transform="translate(-3903.6 546.246)" fill="#0e5489"/>
    <line id="Línea_2018" data-name="Línea 2018" x2="22.485" transform="translate(1443.974 887.262)" fill="#fff"/>
    <path id="Trazado_226276" data-name="Trazado 226276" d="M5364.6,239.348h-22.485a1.318,1.318,0,1,1,0-2.636H5364.6a1.318,1.318,0,1,1,0,2.636" transform="translate(-3898.139 649.232)" fill="#0e5489"/>
    <line id="Línea_2019" data-name="Línea 2019" x2="7.228" transform="translate(1432.125 887.262)" fill="#fff"/>
    <path id="Trazado_226277" data-name="Trazado 226277" d="M5298.125,239.348H5290.9a1.318,1.318,0,0,1,0-2.636h7.229a1.318,1.318,0,0,1,0,2.636" transform="translate(-3858.772 649.232)" fill="#0e5489"/>
    <line id="Línea_2020" data-name="Línea 2020" x2="34.335" transform="translate(1432.125 891.678)" fill="#fff"/>
    <path id="Trazado_226278" data-name="Trazado 226278" d="M5325.232,258.431H5290.9a1.318,1.318,0,1,1,0-2.636h34.335a1.318,1.318,0,1,1,0,2.636" transform="translate(-3858.772 634.564)" fill="#0e5489"/>
    <line id="Línea_2021" data-name="Línea 2021" x2="33.066" transform="translate(1433.227 911.442)" fill="#fff"/>
    <path id="Trazado_226279" data-name="Trazado 226279" d="M5328.728,343.861h-33.066a1.318,1.318,0,1,1,0-2.636h33.066a1.318,1.318,0,0,1,0,2.636" transform="translate(-3862.434 568.899)" fill="#0e5489"/>
    <line id="Línea_2022" data-name="Línea 2022" x2="33.233" transform="translate(1433.227 930.781)" fill="#fff"/>
    <path id="Trazado_226280" data-name="Trazado 226280" d="M5328.893,427.448h-33.232a1.318,1.318,0,1,1,0-2.636h33.232a1.318,1.318,0,1,1,0,2.636" transform="translate(-3862.434 504.651)" fill="#0e5489"/>
    <line id="Línea_2023" data-name="Línea 2023" x2="12.053" transform="translate(1454.406 935.196)" fill="#fff"/>
    <path id="Trazado_226281" data-name="Trazado 226281" d="M5399.255,446.531H5387.2a1.318,1.318,0,1,1,0-2.636h12.054a1.318,1.318,0,1,1,0,2.636" transform="translate(-3932.796 489.983)" fill="#0e5489"/>
    <line id="Línea_2024" data-name="Línea 2024" x2="11.469" transform="translate(1433.227 935.196)" fill="#fff"/>
    <path id="Trazado_226282" data-name="Trazado 226282" d="M5307.13,446.531h-11.469a1.318,1.318,0,1,1,0-2.636h11.469a1.318,1.318,0,0,1,0,2.636" transform="translate(-3862.434 489.983)" fill="#0e5489"/>
    <path id="Trazado_226283" data-name="Trazado 226283" d="M5215.947,303.189a3.821,3.821,0,0,0-3.824-3.817h-23.174a3.821,3.821,0,0,0-3.824,3.817v2.377h30.823Z" transform="translate(-3778.484 601.069)" fill="#7cb4f7"/>
    <path id="Trazado_226284" data-name="Trazado 226284" d="M5211.569,302.506h-30.823a1.318,1.318,0,0,1-1.318-1.318v-2.377a5.144,5.144,0,0,1,5.142-5.135h23.175a5.144,5.144,0,0,1,5.142,5.135v2.377a1.318,1.318,0,0,1-1.318,1.318m-29.5-2.636h28.187v-1.059a2.505,2.505,0,0,0-2.506-2.5H5184.57a2.506,2.506,0,0,0-2.506,2.5Z" transform="translate(-3774.106 605.447)" fill="#0e5489"/>
    <path id="Trazado_226285" data-name="Trazado 226285" d="M5185.124,504.352v3.673a3.821,3.821,0,0,0,3.824,3.817h23.174a3.821,3.821,0,0,0,3.824-3.817v-3.673Z" transform="translate(-3778.484 443.514)" fill="#7cb4f7"/>
    <path id="Trazado_226286" data-name="Trazado 226286" d="M5207.745,508.782H5184.57a5.145,5.145,0,0,1-5.142-5.136v-3.673a1.318,1.318,0,0,1,1.318-1.318h30.823a1.318,1.318,0,0,1,1.318,1.318v3.673a5.145,5.145,0,0,1-5.142,5.136m-25.681-7.491v2.355a2.506,2.506,0,0,0,2.506,2.5h23.175a2.506,2.506,0,0,0,2.506-2.5v-2.355Z" transform="translate(-3774.106 447.893)" fill="#0e5489"/>
    <rect id="Rectángulo_49708" data-name="Rectángulo 49708" width="30.823" height="41.23" transform="translate(1406.64 906.636)" fill="#fff"/>
    <path id="Trazado_226287" data-name="Trazado 226287" d="M5211.569,364.317h-30.823a1.318,1.318,0,0,1-1.318-1.318v-41.23a1.318,1.318,0,0,1,1.318-1.318h30.823a1.318,1.318,0,0,1,1.318,1.318V363a1.318,1.318,0,0,1-1.318,1.318m-29.5-2.636h28.187V323.087h-28.187Z" transform="translate(-3774.106 584.867)" fill="#0e5489"/>
    <rect id="Rectángulo_49709" data-name="Rectángulo 49709" width="14.085" height="12.41" transform="translate(1414.708 913.347)" fill="#9ff5fc"/>
    <path id="Trazado_226288" data-name="Trazado 226288" d="M5229.7,364.5h-14.084a1.318,1.318,0,0,1-1.318-1.318v-12.41a1.318,1.318,0,0,1,1.318-1.318H5229.7a1.318,1.318,0,0,1,1.318,1.318v12.41a1.318,1.318,0,0,1-1.318,1.318m-12.767-2.636h11.449V352.09h-11.449Z" transform="translate(-3800.909 562.574)" fill="#0e5489"/>
    <line id="Línea_2025" data-name="Línea 2025" x2="20.045" transform="translate(1412.303 932.057)" fill="#fff"/>
    <path id="Trazado_226289" data-name="Trazado 226289" d="M5225.27,432.962h-20.045a1.318,1.318,0,1,1,0-2.636h20.045a1.318,1.318,0,1,1,0,2.636" transform="translate(-3792.922 500.413)" fill="#0e5489"/>
    <line id="Línea_2026" data-name="Línea 2026" x2="15.045" transform="translate(1412.303 936.642)" fill="#fff"/>
    <path id="Trazado_226290" data-name="Trazado 226290" d="M5220.27,452.778h-15.044a1.318,1.318,0,1,1,0-2.636h15.044a1.318,1.318,0,1,1,0,2.636" transform="translate(-3792.922 485.182)" fill="#0e5489"/>
    <line id="Línea_2027" data-name="Línea 2027" x2="18.392" transform="translate(1412.303 941.227)" fill="#fff"/>
    <path id="Trazado_226291" data-name="Trazado 226291" d="M5223.616,472.594h-18.391a1.318,1.318,0,1,1,0-2.636h18.391a1.318,1.318,0,1,1,0,2.636" transform="translate(-3792.922 469.95)" fill="#0e5489"/>
    <path id="Trazado_226292" data-name="Trazado 226292" d="M5190.2,599.1a9.588,9.588,0,1,1-9.588-9.588,9.588,9.588,0,0,1,9.588,9.588" transform="translate(-3767.649 378.055)" fill="#fff"/>
    <path id="Trazado_226293" data-name="Trazado 226293" d="M5176.238,605.63a10.906,10.906,0,1,1,10.9-10.906,10.918,10.918,0,0,1-10.9,10.906m0-19.175a8.27,8.27,0,1,0,8.27,8.27,8.279,8.279,0,0,0-8.27-8.27" transform="translate(-3763.271 382.433)" fill="#0e5489"/>
    <path id="Trazado_226294" data-name="Trazado 226294" d="M5190.2,721.811a9.588,9.588,0,1,1-9.588-9.588,9.588,9.588,0,0,1,9.588,9.588" transform="translate(-3767.649 283.736)" fill="#fff"/>
    <path id="Trazado_226295" data-name="Trazado 226295" d="M5176.238,728.338a10.906,10.906,0,1,1,10.9-10.906,10.918,10.918,0,0,1-10.9,10.906m0-19.175a8.27,8.27,0,1,0,8.27,8.27,8.279,8.279,0,0,0-8.27-8.27" transform="translate(-3763.271 288.114)" fill="#0e5489"/>
    <path id="Trazado_226296" data-name="Trazado 226296" d="M5190.2,844.519a9.588,9.588,0,1,1-9.588-9.588,9.588,9.588,0,0,1,9.588,9.588" transform="translate(-3767.649 189.418)" fill="#fff"/>
    <path id="Trazado_226297" data-name="Trazado 226297" d="M5176.238,851.046a10.906,10.906,0,1,1,10.9-10.906,10.918,10.918,0,0,1-10.9,10.906m0-19.175a8.27,8.27,0,1,0,8.27,8.27,8.279,8.279,0,0,0-8.27-8.27" transform="translate(-3763.271 193.797)" fill="#0e5489"/>
    <rect id="Rectángulo_49710" data-name="Rectángulo 49710" width="55.878" height="13.317" transform="translate(1431.881 970.353)" fill="#5cb8ea"/>
    <path id="Trazado_226298" data-name="Trazado 226298" d="M5345.722,611.8h-55.878a1.318,1.318,0,0,1-1.318-1.318V597.167a1.318,1.318,0,0,1,1.318-1.318h55.878a1.318,1.318,0,0,1,1.318,1.318v13.317a1.318,1.318,0,0,1-1.318,1.318m-54.56-2.636H5344.4V598.485h-53.242Z" transform="translate(-3857.963 373.186)" fill="#0e5489"/>
    <rect id="Rectángulo_49711" data-name="Rectángulo 49711" width="60.982" height="30.872" transform="translate(1431.881 989.938)" fill="#fff"/>
    <path id="Trazado_226299" data-name="Trazado 226299" d="M5350.826,714.011h-60.982a1.318,1.318,0,0,1-1.318-1.318V681.821a1.318,1.318,0,0,1,1.318-1.318h60.982a1.318,1.318,0,0,1,1.318,1.318v30.872a1.318,1.318,0,0,1-1.318,1.318m-59.664-2.636h58.346V683.139h-58.346Z" transform="translate(-3857.963 308.117)" fill="#0e5489"/>
    <rect id="Rectángulo_49712" data-name="Rectángulo 49712" width="55.878" height="13.671" transform="translate(1431.881 1028.434)" fill="#5cb8ea"/>
    <path id="Trazado_226300" data-name="Trazado 226300" d="M5345.722,863.2h-55.878a1.318,1.318,0,0,1-1.318-1.318V848.207a1.318,1.318,0,0,1,1.318-1.318h55.878a1.318,1.318,0,0,1,1.318,1.318v13.671a1.318,1.318,0,0,1-1.318,1.318m-54.56-2.636H5344.4V849.525h-53.242Z" transform="translate(-3857.963 180.227)" fill="#0e5489"/>
    <path id="Trazado_226301" data-name="Trazado 226301" d="M5371.5,816.118l-15.8-12.339a.1.1,0,0,0-.156.081l1.093,20.02a.471.471,0,0,0,.688.392l4.442-2.319a1.159,1.159,0,0,1,1.564.491l6.242,11.954,3.167-1.654-6.242-11.954a1.159,1.159,0,0,1,.491-1.564l4.442-2.319a.471.471,0,0,0,.072-.789" transform="translate(-3909.471 213.379)" fill="#fff"/>
    <path id="Trazado_226302" data-name="Trazado 226302" d="M5365.19,831.341a1.318,1.318,0,0,1-1.169-.708l-6.168-11.813-4.3,2.246a1.789,1.789,0,0,1-2.615-1.488l-1.093-20.02a1.415,1.415,0,0,1,2.284-1.192l15.8,12.339a1.79,1.79,0,0,1-.273,3l-4.3,2.246,6.168,11.813a1.319,1.319,0,0,1-.558,1.778l-3.167,1.654a1.312,1.312,0,0,1-.609.15m-7.275-15.212a2.48,2.48,0,0,1,2.2,1.33l5.632,10.786.831-.434-5.632-10.786a2.48,2.48,0,0,1,1.049-3.343l3.276-1.711-12.649-9.876.875,16.024,3.276-1.71a2.462,2.462,0,0,1,1.143-.281m8.391-3.348h0Z" transform="translate(-3905.092 217.754)" fill="#0e5489"/>
    <path id="Trazado_226303" data-name="Trazado 226303" d="M5202.325,739.152a4.368,4.368,0,1,1-4.368-4.368,4.368,4.368,0,0,1,4.368,4.368" transform="translate(-3784.99 266.396)" fill="#9ff5fc"/>
    <path id="Trazado_226304" data-name="Trazado 226304" d="M5193.579,740.459a5.686,5.686,0,1,1,5.686-5.686,5.692,5.692,0,0,1-5.686,5.686m0-8.736a3.05,3.05,0,1,0,3.05,3.05,3.054,3.054,0,0,0-3.05-3.05" transform="translate(-3780.612 270.773)" fill="#0e5489"/>
    <line id="Línea_2028" data-name="Línea 2028" x2="9.697" transform="translate(1438.677 998.089)" fill="#fff"/>
    <path id="Trazado_226305" data-name="Trazado 226305" d="M5328.917,718.366h-9.7a1.318,1.318,0,1,1,0-2.636h9.7a1.318,1.318,0,0,1,0,2.636" transform="translate(-3880.541 281.041)" fill="#0e5489"/>
    <line id="Línea_2029" data-name="Línea 2029" x2="9.697" transform="translate(1454.292 998.089)" fill="#fff"/>
    <path id="Trazado_226306" data-name="Trazado 226306" d="M5396.406,718.366h-9.7a1.318,1.318,0,1,1,0-2.636h9.7a1.318,1.318,0,1,1,0,2.636" transform="translate(-3932.417 281.041)" fill="#0e5489"/>
    <line id="Línea_2030" data-name="Línea 2030" x2="15.859" transform="translate(1469.906 998.089)" fill="#fff"/>
    <path id="Trazado_226307" data-name="Trazado 226307" d="M5470.057,718.366H5454.2a1.318,1.318,0,1,1,0-2.636h15.859a1.318,1.318,0,1,1,0,2.636" transform="translate(-3984.291 281.041)" fill="#0e5489"/>
    <line id="Línea_2031" data-name="Línea 2031" x2="30.99" transform="translate(1438.677 1005.187)" fill="#fff"/>
    <path id="Trazado_226308" data-name="Trazado 226308" d="M5350.208,749.043h-30.99a1.318,1.318,0,0,1,0-2.636h30.99a1.318,1.318,0,0,1,0,2.636" transform="translate(-3880.541 257.461)" fill="#0e5489"/>
    <line id="Línea_2032" data-name="Línea 2032" x2="23.892" transform="translate(1438.677 1012.283)" fill="#fff"/>
    <path id="Trazado_226309" data-name="Trazado 226309" d="M5343.111,779.72h-23.893a1.318,1.318,0,1,1,0-2.636h23.893a1.318,1.318,0,1,1,0,2.636" transform="translate(-3880.541 233.882)" fill="#0e5489"/>
  </g>
</svg>
