<svg xmlns="http://www.w3.org/2000/svg" xmlns:xlink="http://www.w3.org/1999/xlink" width="244" height="181" viewBox="0 0 244 181">
  <defs>
    <clipPath id="clip-path">
      <rect id="Rectángulo_50652" data-name="Rectángulo 50652" width="202.149" height="132.202" fill="none"/>
    </clipPath>
    <clipPath id="clip-path-3">
      <rect id="Rectángulo_50567" data-name="Rectángulo 50567" width="195.192" height="129.225" fill="none"/>
    </clipPath>
    <clipPath id="clip-path-4">
      <rect id="Rectángulo_50596" data-name="Rectángulo 50596" width="74.789" height="50.271" fill="none"/>
    </clipPath>
    <clipPath id="clip-path-5">
      <rect id="Rectángulo_50622" data-name="Rectángulo 50622" width="7.986" height="7.764" fill="none"/>
    </clipPath>
    <clipPath id="clip-path-6">
      <rect id="Rectángulo_50624" data-name="Rectángulo 50624" width="15.86" height="15.65" fill="none"/>
    </clipPath>
    <clipPath id="clip-path-7">
      <rect id="Rectángulo_50626" data-name="Rectángulo 50626" width="4.012" height="3.427" fill="none"/>
    </clipPath>
    <clipPath id="clip-path-9">
      <rect id="Rectángulo_50630" data-name="Rectángulo 50630" width="4.011" height="3.427" fill="none"/>
    </clipPath>
    <clipPath id="clip-path-12">
      <rect id="Rectángulo_50636" data-name="Rectángulo 50636" width="2.924" height="2.525" fill="none"/>
    </clipPath>
  </defs>
  <g id="Grupo_117840" data-name="Grupo 117840" transform="translate(-679 -17672)">
    <g id="Rectángulo_50241" data-name="Rectángulo 50241" transform="translate(679 17672)" fill="#fff" stroke="#4dd0e1" stroke-width="4">
      <rect width="244" height="181" rx="25" stroke="none"/>
      <rect x="2" y="2" width="240" height="177" rx="23" fill="none"/>
    </g>
    <g id="Grupo_115247" data-name="Grupo 115247" transform="translate(698.925 17702.826)">
      <g id="Grupo_115246" data-name="Grupo 115246" clip-path="url(#clip-path)">
        <g id="Grupo_115245" data-name="Grupo 115245">
          <g id="Grupo_115244" data-name="Grupo 115244" clip-path="url(#clip-path)">
            <g id="Grupo_115216" data-name="Grupo 115216" opacity="0.15">
              <g id="Grupo_115215" data-name="Grupo 115215">
                <g id="Grupo_115214" data-name="Grupo 115214" clip-path="url(#clip-path-3)">
                  <path id="Trazado_229652" data-name="Trazado 229652" d="M10.037,129.059S-5.646,112.627,2.2,87.809,41.9,53.493,46.24,45.062,51.532,17.111,65.494,6.934C81.872-5,105.5-.865,116.479,14.275s20.88,34.224,34.965,35.8,28.1.019,39.444,21.9-2.836,52.08-7.174,57.252" transform="translate(0 0)" fill="#6fcecc"/>
                </g>
              </g>
            </g>
            <path id="Trazado_229653" data-name="Trazado 229653" d="M445.7,77.448a1.25,1.25,0,0,0-.087-.337l0,0a1.5,1.5,0,0,0-.1-.194,1,1,0,0,0-.14-.174c-.027-.027-.05-.053-.077-.077a.547.547,0,0,0-.083-.07h0c-.037-.027-.077-.053-.117-.077a1.2,1.2,0,0,0-.39-.143,1.237,1.237,0,0,0-.4-.007l-.027,0a1.317,1.317,0,0,1-.28.007,1.273,1.273,0,0,1-.621-.227.568.568,0,0,1-.087-.07.739.739,0,0,1-.09-.087,1,1,0,0,1-.117-.15c-.03-.05-.06-.1-.087-.157-.013-.03-.027-.06-.037-.09s-.02-.05-.03-.077c-.083-.23-.177-.457-.284-.681,0,0,0-.01-.007-.013a.894.894,0,0,1-.047-.12,1.16,1.16,0,0,1-.053-.511v0a1.421,1.421,0,0,1,.12-.4,1.148,1.148,0,0,1,.254-.344c.037-.033.073-.067.113-.1l.023-.017a1.294,1.294,0,0,0,.1-.087,1.206,1.206,0,0,0,.237-.3,1.507,1.507,0,0,0,.077-.167v0a1.693,1.693,0,0,0,.05-.174,1.194,1.194,0,0,0-.234-1.011,11.01,11.01,0,0,0-.814-.914,10.514,10.514,0,0,0-.918-.817,1.2,1.2,0,0,0-1.038-.23l-.133.04a1.164,1.164,0,0,0-.47.307,1.082,1.082,0,0,0-.1.113l-.023.027a1.225,1.225,0,0,1-.564.42,1.251,1.251,0,0,1-.25.063.114.114,0,0,1-.033,0,.219.219,0,0,1-.067,0,1.07,1.07,0,0,1-.254-.01.731.731,0,0,1-.187-.047.892.892,0,0,1-.12-.047c-.053-.023-.1-.05-.157-.07-.073-.037-.15-.07-.227-.1-.13-.053-.257-.1-.39-.15,0,0-.007,0-.013-.007a1.21,1.21,0,0,1-.767-1.221l0-.017.013-.1v-.01a1.226,1.226,0,0,0-.931-1.368.9.9,0,0,0-.137-.027,11.3,11.3,0,0,0-2.453,0,1.227,1.227,0,0,0-1.074,1.328l.01.09a1.092,1.092,0,0,1,.013.18,1.23,1.23,0,0,1-.694,1.111l-.1.04c-.127.047-.254.1-.377.147-.1.043-.2.087-.3.13l-.073.033a1.218,1.218,0,0,1-1.492-.39l-.007-.007a1.236,1.236,0,0,0-1.652-.307c-.037.023-.073.05-.11.077a11.079,11.079,0,0,0-1.708,1.708,1.21,1.21,0,0,0-.214,1.121,1.089,1.089,0,0,0,.147.324,1.443,1.443,0,0,0,.18.22c.037.033.077.067.117.1l.007.007a1.218,1.218,0,0,1,.39,1.492q-.17.37-.31.751a1.211,1.211,0,0,1-.244.4,1.752,1.752,0,0,1-.207.177,1.409,1.409,0,0,1-.244.127,1.093,1.093,0,0,1-.177.057,1.254,1.254,0,0,1-.46.017,1.092,1.092,0,0,0-.18-.013,1.275,1.275,0,0,0-.227.02,1.229,1.229,0,0,0-1.011,1.074,10.475,10.475,0,0,0,0,2.419,1.233,1.233,0,0,0,1.011,1.074,1.277,1.277,0,0,0,.407.007,1.092,1.092,0,0,1,.18-.013,1.257,1.257,0,0,1,.7.214,1.216,1.216,0,0,1,.143.117,1.177,1.177,0,0,1,.307.464q.14.38.31.751a1.215,1.215,0,0,1-.277,1.4c-.037.033-.073.063-.113.093v0l-.007,0c-.04.03-.08.063-.117.1a1.443,1.443,0,0,0-.18.22,1.089,1.089,0,0,0-.147.324c-.01.037-.017.073-.023.11s-.013.073-.017.11a.739.739,0,0,0-.01.123v.007c0,.013,0,.023,0,.037a1.1,1.1,0,0,0,.06.34.036.036,0,0,1,0,.017.026.026,0,0,0,.007.017c.007.02.013.037.02.057.017.04.037.08.057.12,0,.007.01.013.013.02l.013.023a.99.99,0,0,0,.087.14,10.7,10.7,0,0,0,1.708,1.708,1.206,1.206,0,0,0,.878.26,1.231,1.231,0,0,0,.31-.07,1.216,1.216,0,0,0,.577-.424l.1-.113a1.273,1.273,0,0,1,.481-.317l.42-.073a1.2,1.2,0,0,1,.5.11,7.963,7.963,0,0,0,.744.31,1.194,1.194,0,0,1,.711.7,1.245,1.245,0,0,1,.073.637v.007a1.234,1.234,0,0,0,.954,1.385.012.012,0,0,0,.01,0,.656.656,0,0,0,.117.02,10.357,10.357,0,0,0,1.211.07,11.068,11.068,0,0,0,1.2-.067,1.218,1.218,0,0,0,.747-.374,1.283,1.283,0,0,0,.2-.267,1.029,1.029,0,0,0,.07-.15,1.238,1.238,0,0,0,.07-.627,1.092,1.092,0,0,1-.013-.18,1.219,1.219,0,0,1,.794-1.155c.254-.09.5-.194.747-.307l0,0a1.209,1.209,0,0,1,1.051.02,1.413,1.413,0,0,1,.24.157.789.789,0,0,1,.107.1.764.764,0,0,1,.1.11l0,.007a1.238,1.238,0,0,0,1.648.314.871.871,0,0,0,.113-.08,10.737,10.737,0,0,0,1.712-1.712,1.222,1.222,0,0,0,.21-1.128,1.566,1.566,0,0,0-.06-.16,1.031,1.031,0,0,0-.087-.157,1.443,1.443,0,0,0-.18-.22c-.037-.033-.077-.067-.117-.1l-.007,0v0c-.04-.03-.077-.06-.113-.093a1.22,1.22,0,0,1-.277-1.4,8.093,8.093,0,0,0,.31-.751,1.226,1.226,0,0,1,1.335-.781,1.255,1.255,0,0,0,.831-.167,1.382,1.382,0,0,0,.174-.13c.027-.027.053-.05.08-.077s.043-.05.063-.073a1.206,1.206,0,0,0,.267-.634,10.471,10.471,0,0,0,0-2.419m-5.259,1.822a.365.365,0,0,0-.007.06c-.013.1-.027.2-.04.294s-.033.207-.06.31c0,.007,0,.01,0,.013a5.938,5.938,0,0,1-.16.591c-.037.113-.08.227-.123.34s-.083.2-.13.3c-.033.073-.07.147-.107.217a4.669,4.669,0,0,1-.334.567c-.03.047-.063.1-.1.143a.257.257,0,0,1-.047.063q-.055.08-.12.16a2.091,2.091,0,0,1-.157.194,4.03,4.03,0,0,1-.344.374c-.05.053-.1.1-.157.153l-.167.147c-.08.067-.16.133-.244.2a6.7,6.7,0,0,1-.627.427c-.067.04-.137.08-.2.117s-.16.083-.244.123-.153.073-.234.107q-.19.08-.39.15c-.073.027-.147.053-.224.073-.163.05-.327.09-.494.127a2.015,2.015,0,0,1-.247.047,2.156,2.156,0,0,1-.25.037,6.371,6.371,0,0,1-1.261.027,2.123,2.123,0,0,1-.25-.027,2.156,2.156,0,0,1-.25-.037c-.083-.013-.167-.027-.25-.047a6.405,6.405,0,0,1-.844-.247c-.073-.027-.147-.053-.217-.087a.137.137,0,0,1-.027-.01c-.08-.033-.16-.07-.237-.107a.2.2,0,0,1-.027-.013,2.464,2.464,0,0,1-.247-.127,5,5,0,0,1-.494-.3.017.017,0,0,1-.013-.007c-.077-.05-.15-.1-.224-.16s-.133-.1-.2-.153c-.093-.077-.18-.153-.267-.234s-.17-.16-.25-.244-.137-.143-.2-.217a5.827,5.827,0,0,1-.624-.848c-.05-.083-.1-.163-.143-.25a2.942,2.942,0,0,1-.147-.29c-.027-.057-.053-.11-.077-.167a1.093,1.093,0,0,1-.047-.11c-.02-.047-.04-.1-.06-.147s-.047-.127-.067-.194a.52.52,0,0,1-.027-.077c-.027-.08-.053-.16-.073-.244-.037-.12-.067-.244-.093-.367-.017-.073-.03-.15-.043-.224-.023-.14-.043-.28-.06-.424-.02-.2-.03-.41-.03-.614v-.01c0-.2.01-.4.03-.6,0-.02,0-.04.007-.06.01-.1.023-.2.04-.294s.033-.207.06-.31a.02.02,0,0,1,0-.013,5.929,5.929,0,0,1,.16-.591c.027-.08.057-.163.087-.244.023-.06.047-.123.073-.184.017-.04.033-.083.053-.123s.047-.107.073-.16a4.8,4.8,0,0,1,.24-.447l.127-.207a.07.07,0,0,1,.013-.02c.047-.067.09-.133.137-.2.06-.087.123-.17.19-.254s.133-.163.2-.24.14-.157.214-.234a6.271,6.271,0,0,1,1.241-.974c.073-.04.147-.083.22-.123s.15-.077.227-.113.143-.07.217-.1a4.1,4.1,0,0,1,.424-.163,2.074,2.074,0,0,1,.2-.067l.247-.07a2.2,2.2,0,0,1,.247-.057,6.088,6.088,0,0,1,.5-.083c.083-.01.167-.02.254-.027a6.35,6.35,0,0,1,1.008,0,2.121,2.121,0,0,1,.25.027,2.156,2.156,0,0,1,.25.037,2.2,2.2,0,0,1,.25.047,5.071,5.071,0,0,1,.614.167c.057.017.11.033.167.053a5.632,5.632,0,0,1,.821.37c.087.047.17.093.25.143s.16.1.237.15.153.107.227.163l.033.023c.073.057.147.113.22.174s.14.117.207.18a5.112,5.112,0,0,1,.424.427c.057.06.107.117.157.18a3.64,3.64,0,0,1,.244.317c.04.053.077.107.113.16a4.655,4.655,0,0,1,.344.581c.043.077.083.157.12.237.007.017.013.03.02.043.04.083.077.17.11.257.007.013.01.027.017.04.03.073.057.147.08.224.017.04.03.087.043.13.063.194.117.39.16.587.01.06.023.117.033.177.027.153.05.307.067.46.02.2.03.407.03.614s-.01.407-.03.611" transform="translate(-281.981 -44.889)" fill="#0bb3b7"/>
            <path id="Trazado_229654" data-name="Trazado 229654" d="M402.608,56.809a.792.792,0,0,0-.054-.211l0,0a.979.979,0,0,0-.063-.121.635.635,0,0,0-.088-.109c-.017-.017-.031-.033-.048-.048a.352.352,0,0,0-.052-.044h0a.866.866,0,0,0-.073-.048.59.59,0,0,0-.18-.075.54.54,0,0,0-.065-.015.778.778,0,0,0-.251,0l-.017,0a.815.815,0,0,1-.176,0A.8.8,0,0,1,401.15,56a.355.355,0,0,1-.054-.044.435.435,0,0,1-.056-.054.635.635,0,0,1-.073-.094c-.019-.031-.038-.065-.054-.1-.008-.019-.017-.037-.023-.056s-.012-.031-.019-.048c-.052-.144-.111-.286-.177-.426,0,0,0-.006,0-.008a.6.6,0,0,1-.029-.075.72.72,0,0,1-.033-.319v0a.883.883,0,0,1,.075-.251.717.717,0,0,1,.159-.215c.023-.021.046-.042.071-.06l.014-.01a.784.784,0,0,0,.065-.054.753.753,0,0,0,.148-.19.962.962,0,0,0,.048-.1v0a1.115,1.115,0,0,0,.031-.108.747.747,0,0,0-.146-.633,6.824,6.824,0,0,0-.51-.572,6.593,6.593,0,0,0-.574-.512.755.755,0,0,0-.65-.144l-.083.025a.731.731,0,0,0-.295.192.7.7,0,0,0-.06.071l-.015.017a.766.766,0,0,1-.353.263.791.791,0,0,1-.156.04.075.075,0,0,1-.021,0,.132.132,0,0,1-.042,0,.663.663,0,0,1-.159-.006.458.458,0,0,1-.117-.029.524.524,0,0,1-.075-.029c-.033-.014-.065-.031-.1-.044s-.094-.044-.142-.063c-.081-.033-.161-.065-.244-.094,0,0,0,0-.008,0a.757.757,0,0,1-.481-.764l0-.01.008-.061v-.006a.768.768,0,0,0-.583-.856.545.545,0,0,0-.085-.017,7.084,7.084,0,0,0-1.535,0,.768.768,0,0,0-.673.831c0,.019,0,.038.006.056a.68.68,0,0,1,.008.113.77.77,0,0,1-.434.7l-.063.025c-.079.029-.158.06-.236.092s-.125.054-.188.081l-.046.021a.762.762,0,0,1-.934-.245l0,0a.774.774,0,0,0-1.034-.192c-.023.015-.046.031-.069.048a6.946,6.946,0,0,0-1.069,1.069.757.757,0,0,0-.134.7.681.681,0,0,0,.092.2.884.884,0,0,0,.113.138c.023.021.048.042.073.061l0,0a.763.763,0,0,1,.245.934q-.107.232-.194.47a.761.761,0,0,1-.152.253,1.087,1.087,0,0,1-.13.111.881.881,0,0,1-.152.079.714.714,0,0,1-.111.035.781.781,0,0,1-.288.01.713.713,0,0,0-.113-.008.8.8,0,0,0-.142.013.769.769,0,0,0-.633.672,6.533,6.533,0,0,0,0,1.515.772.772,0,0,0,.633.672.794.794,0,0,0,.255,0,.712.712,0,0,1,.113-.008.784.784,0,0,1,.438.133.8.8,0,0,1,.09.073.743.743,0,0,1,.192.29q.088.238.194.47a.761.761,0,0,1-.174.875c-.023.021-.046.04-.071.059v0l0,0c-.025.019-.05.04-.073.061a.884.884,0,0,0-.113.138.681.681,0,0,0-.092.2c-.006.023-.01.046-.015.069s-.008.046-.01.069a.486.486,0,0,0-.006.077v0c0,.008,0,.015,0,.023a.911.911,0,0,0,.01.108.982.982,0,0,0,.027.1.022.022,0,0,1,0,.011.016.016,0,0,0,0,.01l.013.035c.01.025.023.05.035.075,0,0,.006.008.008.012l.008.015a.6.6,0,0,0,.054.088,6.717,6.717,0,0,0,1.069,1.069.755.755,0,0,0,.549.163.772.772,0,0,0,.194-.044.762.762,0,0,0,.361-.265l.06-.071a.8.8,0,0,1,.3-.2l.263-.046a.748.748,0,0,1,.313.069,5.012,5.012,0,0,0,.466.194.752.752,0,0,1,.366.284.739.739,0,0,1,.079.152.779.779,0,0,1,.046.4v0a.772.772,0,0,0,.6.867.008.008,0,0,0,.006,0,.4.4,0,0,0,.073.013,6.462,6.462,0,0,0,.758.044,6.876,6.876,0,0,0,.754-.042.763.763,0,0,0,.468-.234.8.8,0,0,0,.123-.167.621.621,0,0,0,.044-.094.773.773,0,0,0,.044-.393.712.712,0,0,1-.008-.113.763.763,0,0,1,.5-.723c.159-.056.313-.121.468-.192l0,0a.757.757,0,0,1,.658.013.872.872,0,0,1,.151.1.473.473,0,0,1,.067.065.5.5,0,0,1,.061.069l0,0a.774.774,0,0,0,1.032.2.569.569,0,0,0,.071-.05,7.423,7.423,0,0,0,.566-.506,7.5,7.5,0,0,0,.505-.566.765.765,0,0,0,.131-.706,1.009,1.009,0,0,0-.037-.1.649.649,0,0,0-.054-.1.905.905,0,0,0-.113-.138c-.023-.021-.048-.042-.073-.061l0,0v0c-.025-.019-.048-.038-.071-.059a.763.763,0,0,1-.173-.875q.11-.232.194-.47a.768.768,0,0,1,.836-.489.785.785,0,0,0,.52-.1.9.9,0,0,0,.108-.082l.05-.048c.015-.014.027-.031.04-.046a.756.756,0,0,0,.167-.4,6.583,6.583,0,0,0,0-1.515m-3.292,1.14a.24.24,0,0,0,0,.038c-.008.063-.017.123-.025.184s-.021.129-.037.194c0,0,0,.006,0,.008a3.671,3.671,0,0,1-.1.37c-.023.071-.05.142-.077.213s-.052.125-.081.186-.044.092-.067.136a2.932,2.932,0,0,1-.209.355c-.019.029-.04.061-.061.09a.145.145,0,0,1-.029.04c-.023.033-.048.067-.075.1a1.313,1.313,0,0,1-.1.121,2.539,2.539,0,0,1-.215.234c-.031.033-.065.065-.1.1l-.1.092c-.05.042-.1.084-.152.125a4.192,4.192,0,0,1-.393.267c-.042.025-.086.05-.127.073s-.1.052-.152.077-.1.046-.146.067q-.119.05-.245.094c-.046.017-.092.033-.14.046-.1.031-.2.056-.309.079a1.25,1.25,0,0,1-.154.029,1.41,1.41,0,0,1-.157.023,4.026,4.026,0,0,1-.789.017,1.376,1.376,0,0,1-.156-.017,1.41,1.41,0,0,1-.157-.023c-.052-.008-.1-.017-.156-.029a4.024,4.024,0,0,1-.529-.154c-.046-.017-.092-.033-.136-.054a.078.078,0,0,1-.017-.006c-.05-.021-.1-.044-.148-.067l-.017-.008a1.543,1.543,0,0,1-.155-.079,3.19,3.19,0,0,1-.309-.188.01.01,0,0,1-.008,0c-.048-.031-.094-.065-.14-.1s-.084-.063-.123-.1c-.058-.048-.113-.1-.167-.146s-.106-.1-.156-.152-.085-.09-.125-.136a3.66,3.66,0,0,1-.39-.531c-.031-.052-.063-.1-.09-.156a1.925,1.925,0,0,1-.092-.182c-.017-.035-.033-.069-.048-.1a.616.616,0,0,1-.029-.069c-.013-.029-.025-.06-.038-.092s-.029-.079-.042-.121a.3.3,0,0,1-.017-.048c-.017-.05-.033-.1-.046-.152-.023-.075-.042-.152-.058-.23-.01-.046-.019-.094-.027-.14-.015-.088-.027-.176-.038-.265-.013-.127-.019-.257-.019-.384v-.006a3.764,3.764,0,0,1,.019-.378c0-.013,0-.025,0-.038.006-.06.015-.123.025-.184s.021-.129.038-.194a.013.013,0,0,1,0-.008,3.772,3.772,0,0,1,.1-.37c.017-.05.035-.1.054-.152s.029-.077.046-.115.021-.052.033-.077.029-.067.046-.1a3.053,3.053,0,0,1,.15-.28l.079-.129a.038.038,0,0,1,.008-.012c.029-.042.056-.084.085-.123s.077-.106.119-.158.084-.1.128-.15.088-.1.134-.146a3.92,3.92,0,0,1,.777-.61l.138-.077c.046-.025.094-.048.142-.071s.09-.044.136-.063a2.6,2.6,0,0,1,.265-.1,1.254,1.254,0,0,1,.127-.042l.155-.044a1.412,1.412,0,0,1,.155-.035,1.4,1.4,0,0,1,.155-.029,1.335,1.335,0,0,1,.157-.023c.052-.006.1-.013.159-.017a3.984,3.984,0,0,1,.631,0,1.386,1.386,0,0,1,.156.017,1.335,1.335,0,0,1,.157.023,1.432,1.432,0,0,1,.156.029,3.123,3.123,0,0,1,.384.1l.1.033a3.513,3.513,0,0,1,.514.232c.054.029.107.058.157.09s.1.061.148.094.1.067.142.1l.021.014c.046.036.092.071.138.109s.088.073.129.113a3.182,3.182,0,0,1,.265.267c.035.038.067.073.1.113a2.267,2.267,0,0,1,.153.2c.025.033.048.067.071.1a2.91,2.91,0,0,1,.215.363c.027.048.052.1.075.148,0,.01.008.019.012.027.025.052.048.106.069.161,0,.008.006.017.01.025.019.046.036.092.05.14.011.025.019.054.027.082a3.785,3.785,0,0,1,.1.367c.006.038.015.073.021.111.017.1.031.192.042.288.013.127.019.255.019.384s-.006.255-.019.382" transform="translate(-258.877 -33.65)" fill="#156f93"/>
            <path id="Trazado_229655" data-name="Trazado 229655" d="M439.247,31.314a.786.786,0,0,0-.054-.211l0,0a.956.956,0,0,0-.063-.121.624.624,0,0,0-.088-.109c-.017-.017-.031-.033-.048-.048a.354.354,0,0,0-.052-.044h0a.856.856,0,0,0-.073-.048.582.582,0,0,0-.18-.075.541.541,0,0,0-.065-.015.778.778,0,0,0-.251,0l-.017,0a.816.816,0,0,1-.176,0,.794.794,0,0,1-.388-.142.338.338,0,0,1-.054-.044.439.439,0,0,1-.056-.054.639.639,0,0,1-.073-.094c-.019-.031-.038-.065-.054-.1-.008-.019-.017-.037-.023-.056l-.019-.048c-.052-.144-.111-.286-.178-.426,0,0,0-.006,0-.008a.6.6,0,0,1-.029-.075.721.721,0,0,1-.033-.32v0a.881.881,0,0,1,.075-.251.717.717,0,0,1,.159-.215.894.894,0,0,1,.071-.06l.014-.01c.023-.017.044-.036.065-.054a.753.753,0,0,0,.148-.19.951.951,0,0,0,.048-.1v0a1.087,1.087,0,0,0,.031-.109.747.747,0,0,0-.146-.633,6.823,6.823,0,0,0-.51-.572,6.588,6.588,0,0,0-.574-.512.755.755,0,0,0-.65-.144l-.083.025a.731.731,0,0,0-.295.192.7.7,0,0,0-.06.071l-.015.017a.766.766,0,0,1-.353.263.791.791,0,0,1-.156.04.075.075,0,0,1-.021,0,.132.132,0,0,1-.042,0,.646.646,0,0,1-.159-.006A.444.444,0,0,1,434.7,27a.525.525,0,0,1-.075-.029c-.033-.015-.065-.031-.1-.044s-.094-.044-.142-.063c-.081-.033-.161-.065-.244-.094,0,0,0,0-.008,0a.757.757,0,0,1-.48-.764l0-.01.008-.061V25.92a.768.768,0,0,0-.583-.856.545.545,0,0,0-.085-.017,7.085,7.085,0,0,0-1.535,0,.768.768,0,0,0-.673.831c0,.019,0,.038.006.056a.68.68,0,0,1,.008.113.77.77,0,0,1-.434.7l-.063.025c-.079.029-.159.06-.236.092s-.125.054-.188.081l-.046.021a.763.763,0,0,1-.934-.245l0,0a.774.774,0,0,0-1.034-.192c-.023.015-.046.031-.069.048a6.944,6.944,0,0,0-1.069,1.069.757.757,0,0,0-.134.7.68.68,0,0,0,.092.2.9.9,0,0,0,.113.138c.023.021.048.042.073.061l0,0a.763.763,0,0,1,.245.934q-.107.232-.195.47a.755.755,0,0,1-.152.253,1.085,1.085,0,0,1-.13.111.881.881,0,0,1-.152.079.713.713,0,0,1-.111.035.781.781,0,0,1-.288.01.713.713,0,0,0-.113-.008.8.8,0,0,0-.142.013.769.769,0,0,0-.633.672,6.53,6.53,0,0,0,0,1.514.772.772,0,0,0,.633.673.794.794,0,0,0,.255,0,.713.713,0,0,1,.113-.008.784.784,0,0,1,.438.134.8.8,0,0,1,.09.073.739.739,0,0,1,.192.29q.088.238.195.47a.761.761,0,0,1-.173.875c-.023.021-.046.04-.071.059v0l0,0c-.025.019-.05.04-.073.061a.887.887,0,0,0-.113.138.676.676,0,0,0-.092.2c-.006.023-.01.046-.015.069s-.008.046-.01.069a.478.478,0,0,0-.006.077v0c0,.008,0,.015,0,.023a.924.924,0,0,0,.01.108.982.982,0,0,0,.027.1.021.021,0,0,1,0,.011.016.016,0,0,0,0,.01l.013.035c.01.025.023.05.035.075,0,0,.006.008.008.012l.008.015a.594.594,0,0,0,.054.088,6.715,6.715,0,0,0,1.069,1.069.755.755,0,0,0,.549.163.788.788,0,0,0,.194-.044.762.762,0,0,0,.361-.265l.06-.071a.8.8,0,0,1,.3-.2l.263-.046a.748.748,0,0,1,.313.069,5.015,5.015,0,0,0,.466.194.754.754,0,0,1,.366.284.767.767,0,0,1,.079.152.776.776,0,0,1,.046.4v0a.772.772,0,0,0,.6.867.008.008,0,0,0,.006,0,.4.4,0,0,0,.073.013,6.456,6.456,0,0,0,.758.044,6.877,6.877,0,0,0,.754-.042.763.763,0,0,0,.468-.234.794.794,0,0,0,.123-.167.621.621,0,0,0,.044-.094.772.772,0,0,0,.044-.393.716.716,0,0,1-.008-.113.763.763,0,0,1,.5-.723c.159-.056.313-.121.468-.192l0,0a.756.756,0,0,1,.658.013.869.869,0,0,1,.15.1,1.195,1.195,0,0,1,.127.133l0,0a.774.774,0,0,0,1.032.2.569.569,0,0,0,.071-.05,7.422,7.422,0,0,0,.566-.506,7.5,7.5,0,0,0,.506-.566.765.765,0,0,0,.131-.706,1.017,1.017,0,0,0-.037-.1.642.642,0,0,0-.054-.1.885.885,0,0,0-.113-.138c-.023-.021-.048-.042-.073-.061l0,0v0c-.025-.019-.048-.038-.071-.059a.763.763,0,0,1-.174-.875q.11-.232.194-.47a.768.768,0,0,1,.836-.489.784.784,0,0,0,.52-.1.884.884,0,0,0,.109-.082l.05-.048c.015-.014.027-.031.04-.046a.756.756,0,0,0,.167-.4,6.576,6.576,0,0,0,0-1.514Zm-3.292,1.14a.244.244,0,0,0,0,.038c-.008.062-.017.123-.025.184s-.021.129-.037.194c0,0,0,.006,0,.008a3.679,3.679,0,0,1-.1.37c-.023.071-.05.142-.077.213s-.052.125-.081.186-.044.092-.067.136a2.928,2.928,0,0,1-.209.355c-.019.029-.04.061-.061.09a.154.154,0,0,1-.029.04c-.023.033-.048.067-.075.1a1.313,1.313,0,0,1-.1.121,2.538,2.538,0,0,1-.215.234c-.031.033-.065.065-.1.1l-.1.092c-.05.042-.1.083-.153.125a4.145,4.145,0,0,1-.392.267c-.042.025-.086.05-.127.073s-.1.052-.152.077-.1.046-.146.067q-.119.05-.244.094c-.046.017-.092.033-.14.046-.1.031-.2.056-.309.079a1.245,1.245,0,0,1-.155.029,1.405,1.405,0,0,1-.156.023,4.026,4.026,0,0,1-.789.017,1.471,1.471,0,0,1-.157-.017,1.416,1.416,0,0,1-.156-.023c-.052-.008-.1-.017-.156-.029a4.025,4.025,0,0,1-.529-.154c-.046-.017-.092-.033-.136-.054a.078.078,0,0,1-.017-.006c-.05-.021-.1-.044-.148-.067l-.017-.008a1.54,1.54,0,0,1-.155-.079,3.152,3.152,0,0,1-.309-.188.01.01,0,0,1-.008,0c-.048-.031-.094-.065-.14-.1s-.084-.063-.123-.1c-.058-.048-.113-.1-.167-.146s-.106-.1-.156-.152-.086-.09-.125-.136a3.666,3.666,0,0,1-.39-.531c-.031-.052-.063-.1-.09-.156a1.932,1.932,0,0,1-.092-.182c-.017-.035-.033-.069-.048-.1a.685.685,0,0,1-.029-.069c-.013-.029-.025-.06-.038-.092s-.029-.079-.042-.121a.3.3,0,0,1-.017-.048c-.017-.05-.033-.1-.046-.152-.023-.075-.042-.152-.058-.23-.01-.046-.019-.094-.027-.14-.014-.088-.027-.176-.037-.265-.013-.127-.019-.257-.019-.384v-.006a3.773,3.773,0,0,1,.019-.378c0-.013,0-.025,0-.038.006-.06.015-.123.025-.184s.021-.129.038-.194a.013.013,0,0,1,0-.008,3.773,3.773,0,0,1,.1-.37c.017-.05.035-.1.054-.152s.029-.077.046-.115.021-.052.033-.077.029-.067.046-.1a3.061,3.061,0,0,1,.151-.28l.079-.129a.038.038,0,0,1,.008-.012c.029-.042.056-.084.085-.123s.077-.106.119-.158.084-.1.127-.15.088-.1.134-.146a3.921,3.921,0,0,1,.777-.61l.138-.077c.046-.025.094-.048.142-.071s.09-.044.136-.063a2.572,2.572,0,0,1,.265-.1,1.261,1.261,0,0,1,.127-.042l.155-.044a1.414,1.414,0,0,1,.155-.035,1.325,1.325,0,0,1,.154-.029,1.338,1.338,0,0,1,.156-.023c.052-.006.1-.013.159-.017a3.983,3.983,0,0,1,.631,0,1.384,1.384,0,0,1,.156.017,1.329,1.329,0,0,1,.156.023,1.35,1.35,0,0,1,.157.029,3.122,3.122,0,0,1,.384.1c.035.01.069.021.1.033a3.493,3.493,0,0,1,.514.232c.054.029.107.058.157.09s.1.061.148.094.1.067.142.1l.021.014c.046.036.092.071.138.109s.088.073.129.113a3.168,3.168,0,0,1,.265.267c.035.038.067.073.1.113a2.26,2.26,0,0,1,.152.2c.025.033.048.067.071.1a2.9,2.9,0,0,1,.215.363c.027.048.052.1.075.148,0,.01.008.019.012.027.025.052.048.106.069.161,0,.008.006.017.01.025.019.046.036.092.05.14a.857.857,0,0,1,.027.082,3.777,3.777,0,0,1,.1.367c.006.038.015.073.021.111.017.1.031.192.042.288.013.127.019.255.019.384S435.968,32.327,435.955,32.455Z" transform="translate(-283.291 -16.662)" fill="none" stroke="#0bb3b7" stroke-miterlimit="10" stroke-width="0.5"/>
            <path id="Trazado_229656" data-name="Trazado 229656" d="M187.807,62.449a.786.786,0,0,0-.054-.211l0,0a.963.963,0,0,0-.063-.121.636.636,0,0,0-.088-.109c-.017-.017-.031-.033-.048-.048a.335.335,0,0,0-.052-.044h0c-.023-.017-.048-.033-.073-.048a.582.582,0,0,0-.18-.075.541.541,0,0,0-.065-.015.778.778,0,0,0-.251,0l-.017,0a.816.816,0,0,1-.176,0,.8.8,0,0,1-.388-.142.336.336,0,0,1-.054-.044.437.437,0,0,1-.056-.054.616.616,0,0,1-.073-.094c-.019-.031-.038-.065-.054-.1-.008-.019-.017-.037-.023-.056l-.019-.048c-.052-.144-.111-.286-.178-.426,0,0,0-.006,0-.008a.578.578,0,0,1-.029-.075.721.721,0,0,1-.033-.32v0a.882.882,0,0,1,.075-.251.717.717,0,0,1,.159-.215c.023-.021.046-.042.071-.06l.015-.01c.023-.017.044-.036.065-.054a.753.753,0,0,0,.148-.19.957.957,0,0,0,.048-.1v0a1.1,1.1,0,0,0,.031-.109.747.747,0,0,0-.146-.633,6.824,6.824,0,0,0-.51-.572,6.638,6.638,0,0,0-.574-.512.755.755,0,0,0-.65-.144l-.083.025a.731.731,0,0,0-.295.192.7.7,0,0,0-.06.071l-.015.017a.769.769,0,0,1-.353.263.791.791,0,0,1-.156.04.075.075,0,0,1-.021,0,.132.132,0,0,1-.042,0,.663.663,0,0,1-.159-.006.458.458,0,0,1-.117-.029.525.525,0,0,1-.075-.029c-.033-.014-.065-.031-.1-.044s-.094-.044-.142-.063c-.081-.033-.161-.065-.244-.094,0,0,0,0-.008,0a.757.757,0,0,1-.48-.764l0-.01.008-.061v-.006a.768.768,0,0,0-.583-.856.545.545,0,0,0-.085-.017,7.084,7.084,0,0,0-1.535,0,.768.768,0,0,0-.673.831c0,.019,0,.038.006.056a.679.679,0,0,1,.008.113.77.77,0,0,1-.434.7l-.063.025c-.079.029-.158.06-.236.092s-.125.054-.188.081l-.046.021a.763.763,0,0,1-.934-.245l0,0a.774.774,0,0,0-1.034-.192c-.023.015-.046.031-.069.048a6.944,6.944,0,0,0-1.069,1.069.757.757,0,0,0-.134.7.68.68,0,0,0,.092.2.883.883,0,0,0,.113.138c.023.021.048.042.073.061l0,0a.763.763,0,0,1,.245.934q-.107.232-.195.47a.755.755,0,0,1-.152.253,1.087,1.087,0,0,1-.13.111.893.893,0,0,1-.152.079.725.725,0,0,1-.111.035.781.781,0,0,1-.288.01.675.675,0,0,0-.113-.008.8.8,0,0,0-.142.013.769.769,0,0,0-.633.672,6.53,6.53,0,0,0,0,1.514.772.772,0,0,0,.633.673.794.794,0,0,0,.255,0,.713.713,0,0,1,.113-.008.784.784,0,0,1,.438.134.8.8,0,0,1,.09.073.739.739,0,0,1,.192.29q.088.238.195.47a.761.761,0,0,1-.174.875.917.917,0,0,1-.071.058v0l0,0c-.025.019-.05.04-.073.06a.885.885,0,0,0-.113.138.68.68,0,0,0-.092.2c-.006.023-.01.046-.015.069s-.008.046-.01.069a.482.482,0,0,0-.006.077v0c0,.008,0,.015,0,.023a.915.915,0,0,0,.01.108.979.979,0,0,0,.027.1.021.021,0,0,1,0,.011.016.016,0,0,0,0,.01l.013.035c.01.025.023.05.035.075,0,0,.006.008.008.012l.008.015a.6.6,0,0,0,.054.088,6.715,6.715,0,0,0,1.069,1.069.755.755,0,0,0,.549.163.788.788,0,0,0,.194-.044.764.764,0,0,0,.361-.265l.06-.071a.8.8,0,0,1,.3-.2l.263-.046a.748.748,0,0,1,.313.069,5.017,5.017,0,0,0,.466.194.754.754,0,0,1,.366.284.767.767,0,0,1,.079.152.779.779,0,0,1,.046.4v0a.772.772,0,0,0,.6.867.008.008,0,0,0,.006,0,.4.4,0,0,0,.073.013,6.458,6.458,0,0,0,.758.044,6.877,6.877,0,0,0,.754-.042A.763.763,0,0,0,182,70a.8.8,0,0,0,.123-.167.62.62,0,0,0,.044-.094.773.773,0,0,0,.044-.393.714.714,0,0,1-.008-.113.763.763,0,0,1,.5-.723c.159-.056.313-.121.468-.192l0,0a.757.757,0,0,1,.658.013.869.869,0,0,1,.15.1.475.475,0,0,1,.067.065.48.48,0,0,1,.061.069l0,0a.775.775,0,0,0,1.032.2.568.568,0,0,0,.071-.05,7.427,7.427,0,0,0,.566-.506,7.572,7.572,0,0,0,.506-.566.765.765,0,0,0,.131-.706,1.013,1.013,0,0,0-.037-.1.674.674,0,0,0-.054-.1.9.9,0,0,0-.113-.138c-.023-.021-.048-.042-.073-.06l0,0v0a.914.914,0,0,1-.071-.058.763.763,0,0,1-.173-.875q.11-.232.194-.47a.768.768,0,0,1,.836-.489.782.782,0,0,0,.52-.1.847.847,0,0,0,.109-.081l.05-.048c.015-.014.027-.031.04-.046a.756.756,0,0,0,.167-.4,6.578,6.578,0,0,0,0-1.514Zm-3.292,1.14a.244.244,0,0,0,0,.038c-.008.062-.017.123-.025.184s-.021.13-.037.195c0,0,0,.006,0,.008a3.688,3.688,0,0,1-.1.37c-.023.071-.05.142-.077.213s-.052.125-.081.186-.044.092-.067.136a2.932,2.932,0,0,1-.209.355c-.019.029-.04.061-.061.09a.153.153,0,0,1-.029.04c-.023.033-.048.067-.075.1a1.26,1.26,0,0,1-.1.121,2.536,2.536,0,0,1-.215.234c-.031.033-.065.065-.1.1l-.1.092c-.05.042-.1.083-.152.125a4.146,4.146,0,0,1-.392.267l-.127.073c-.05.027-.1.052-.152.077s-.1.046-.146.067q-.119.05-.245.094a1.4,1.4,0,0,1-.14.046c-.1.031-.2.056-.309.079a1.254,1.254,0,0,1-.155.029,1.405,1.405,0,0,1-.156.023,4.025,4.025,0,0,1-.789.017,1.389,1.389,0,0,1-.157-.017,1.405,1.405,0,0,1-.156-.023c-.052-.008-.1-.017-.156-.029a4.01,4.01,0,0,1-.529-.154c-.046-.017-.092-.033-.136-.054a.078.078,0,0,1-.017-.006c-.05-.021-.1-.044-.148-.067l-.017-.008a1.571,1.571,0,0,1-.154-.079,3.151,3.151,0,0,1-.309-.188.011.011,0,0,1-.008,0c-.048-.031-.094-.065-.14-.1s-.083-.063-.123-.1c-.058-.048-.113-.1-.167-.146s-.106-.1-.156-.152-.086-.09-.125-.136a3.663,3.663,0,0,1-.39-.531c-.031-.052-.063-.1-.09-.156a1.932,1.932,0,0,1-.092-.182c-.017-.035-.033-.069-.048-.1a.682.682,0,0,1-.029-.069c-.013-.029-.025-.06-.038-.092s-.029-.079-.042-.121a.3.3,0,0,1-.017-.048c-.017-.05-.033-.1-.046-.152-.023-.075-.042-.152-.058-.23-.01-.046-.019-.094-.027-.14-.014-.088-.027-.176-.037-.265-.013-.127-.019-.257-.019-.384V63.2a3.769,3.769,0,0,1,.019-.378c0-.013,0-.025,0-.038.006-.06.015-.123.025-.184s.021-.129.038-.194a.013.013,0,0,1,0-.008,3.773,3.773,0,0,1,.1-.37c.017-.05.035-.1.054-.152s.029-.077.046-.115.021-.052.033-.077.029-.067.046-.1a3.064,3.064,0,0,1,.15-.28l.079-.129a.038.038,0,0,1,.008-.012c.029-.042.056-.084.085-.123s.077-.106.119-.158.083-.1.127-.15.088-.1.134-.146a3.921,3.921,0,0,1,.777-.61l.138-.077c.046-.025.094-.048.142-.071s.09-.044.136-.063a2.569,2.569,0,0,1,.265-.1,1.258,1.258,0,0,1,.127-.042l.155-.044A1.414,1.414,0,0,1,180,59.54a3.778,3.778,0,0,1,.311-.052c.052-.006.1-.012.159-.017a3.983,3.983,0,0,1,.631,0,1.384,1.384,0,0,1,.156.017,1.405,1.405,0,0,1,.156.023,1.437,1.437,0,0,1,.157.029,3.125,3.125,0,0,1,.384.1l.1.033a3.511,3.511,0,0,1,.514.232c.054.029.107.058.157.09s.1.061.148.094.1.067.142.1l.021.015c.046.036.092.071.138.109s.088.073.129.113a3.176,3.176,0,0,1,.265.267c.035.038.067.073.1.113a2.261,2.261,0,0,1,.152.2c.025.033.048.067.071.1a2.908,2.908,0,0,1,.215.363c.027.048.052.1.075.148,0,.01.008.019.012.027.025.052.048.106.069.161,0,.008.006.017.01.025.019.046.036.092.05.14.011.025.019.054.027.082a3.79,3.79,0,0,1,.1.367c.006.038.015.073.021.111.017.1.031.192.042.288.012.127.019.255.019.384S184.528,63.462,184.515,63.59Z" transform="translate(-115.75 -37.408)" fill="none" stroke="#0bb3b7" stroke-miterlimit="10" stroke-width="0.5"/>
            <rect id="Rectángulo_50568" data-name="Rectángulo 50568" width="19.818" height="23.217" transform="translate(162.959 104.887)" fill="#2573ad"/>
            <rect id="Rectángulo_50569" data-name="Rectángulo 50569" width="19.818" height="6.886" transform="translate(162.959 104.887)" fill="#1ba4ce"/>
            <rect id="Rectángulo_50570" data-name="Rectángulo 50570" width="19.818" height="6.886" transform="translate(162.959 113.052)" fill="#1ba4ce"/>
            <rect id="Rectángulo_50571" data-name="Rectángulo 50571" width="19.818" height="6.886" transform="translate(162.959 121.218)" fill="#1ba4ce"/>
            <rect id="Rectángulo_50572" data-name="Rectángulo 50572" width="1.806" height="1.121" transform="translate(162.959 128.104)" fill="#068484"/>
            <rect id="Rectángulo_50573" data-name="Rectángulo 50573" width="1.806" height="1.121" transform="translate(180.971 128.104)" fill="#068484"/>
            <rect id="Rectángulo_50574" data-name="Rectángulo 50574" width="0.671" height="5.173" transform="translate(164.093 105.824)" fill="#04b6ba"/>
            <rect id="Rectángulo_50575" data-name="Rectángulo 50575" width="0.671" height="5.173" transform="translate(165.458 105.824)" fill="#04b6ba"/>
            <rect id="Rectángulo_50576" data-name="Rectángulo 50576" width="0.671" height="5.173" transform="translate(166.822 105.824)" fill="#04b6ba"/>
            <rect id="Rectángulo_50577" data-name="Rectángulo 50577" width="0.671" height="5.173" transform="translate(168.186 105.824)" fill="#04b6ba"/>
            <rect id="Rectángulo_50578" data-name="Rectángulo 50578" width="11.933" height="5.173" transform="translate(169.732 105.824)" fill="#94e1eb"/>
            <rect id="Rectángulo_50579" data-name="Rectángulo 50579" width="0.671" height="5.173" transform="translate(164.093 113.908)" fill="#04b6ba"/>
            <rect id="Rectángulo_50580" data-name="Rectángulo 50580" width="0.671" height="5.173" transform="translate(165.458 113.908)" fill="#04b6ba"/>
            <rect id="Rectángulo_50581" data-name="Rectángulo 50581" width="0.671" height="5.173" transform="translate(166.822 113.908)" fill="#04b6ba"/>
            <rect id="Rectángulo_50582" data-name="Rectángulo 50582" width="0.671" height="5.173" transform="translate(168.186 113.908)" fill="#04b6ba"/>
            <rect id="Rectángulo_50583" data-name="Rectángulo 50583" width="0.671" height="5.173" transform="translate(169.55 113.908)" fill="#04b6ba"/>
            <rect id="Rectángulo_50584" data-name="Rectángulo 50584" width="0.671" height="5.173" transform="translate(170.914 113.908)" fill="#04b6ba"/>
            <rect id="Rectángulo_50585" data-name="Rectángulo 50585" width="0.671" height="5.173" transform="translate(172.277 113.908)" fill="#04b6ba"/>
            <rect id="Rectángulo_50586" data-name="Rectángulo 50586" width="7.881" height="5.173" transform="translate(173.783 113.908)" fill="#94e1eb"/>
            <rect id="Rectángulo_50587" data-name="Rectángulo 50587" width="0.671" height="5.173" transform="translate(164.093 121.992)" fill="#04b6ba"/>
            <rect id="Rectángulo_50588" data-name="Rectángulo 50588" width="0.671" height="5.173" transform="translate(165.458 121.992)" fill="#04b6ba"/>
            <rect id="Rectángulo_50589" data-name="Rectángulo 50589" width="0.671" height="5.173" transform="translate(166.822 121.992)" fill="#04b6ba"/>
            <rect id="Rectángulo_50590" data-name="Rectángulo 50590" width="0.671" height="5.173" transform="translate(168.186 121.992)" fill="#04b6ba"/>
            <rect id="Rectángulo_50591" data-name="Rectángulo 50591" width="0.671" height="5.173" transform="translate(178.265 121.992)" fill="#04b6ba"/>
            <rect id="Rectángulo_50592" data-name="Rectángulo 50592" width="0.671" height="5.173" transform="translate(179.629 121.992)" fill="#04b6ba"/>
            <rect id="Rectángulo_50593" data-name="Rectángulo 50593" width="0.671" height="5.173" transform="translate(180.993 121.992)" fill="#04b6ba"/>
            <rect id="Rectángulo_50594" data-name="Rectángulo 50594" width="7.72" height="5.173" transform="translate(169.732 121.992)" fill="#94e1eb"/>
            <line id="Línea_2092" data-name="Línea 2092" x2="0.834" transform="translate(152.573 57.456)" fill="none" stroke="#6fcecc" stroke-miterlimit="10" stroke-width="1"/>
            <line id="Línea_2093" data-name="Línea 2093" x2="16.156" transform="translate(155.108 57.456)" fill="none" stroke="#6fcecc" stroke-miterlimit="10" stroke-width="1" stroke-dasharray="5.097 5.097"/>
            <path id="Trazado_229657" data-name="Trazado 229657" d="M515.818,172.194h.834v.834" transform="translate(-343.704 -114.737)" fill="none" stroke="#6fcecc" stroke-miterlimit="10" stroke-width="1"/>
            <line id="Línea_2094" data-name="Línea 2094" y2="43.219" transform="translate(172.949 59.985)" fill="none" stroke="#6fcecc" stroke-miterlimit="10" stroke-width="1" stroke-dasharray="5.079 5.079"/>
            <line id="Línea_2095" data-name="Línea 2095" y2="0.834" transform="translate(172.949 104.052)" fill="none" stroke="#6fcecc" stroke-miterlimit="10" stroke-width="1"/>
            <rect id="Rectángulo_50595" data-name="Rectángulo 50595" width="20.746" height="19.606" transform="translate(85.412 105.986)" fill="#00bfcd"/>
            <path id="Trazado_229658" data-name="Trazado 229658" d="M253.908,377.417H187.4v-2.441a2.443,2.443,0,0,1,2.443-2.443h61.624a2.443,2.443,0,0,1,2.443,2.443Z" transform="translate(-124.868 -248.228)" fill="#1eccde"/>
            <path id="Trazado_229659" data-name="Trazado 229659" d="M227.97,180.892H119.347a2.477,2.477,0,0,1-2.477-2.477V103.686a2.477,2.477,0,0,1,2.477-2.477H227.97a2.477,2.477,0,0,1,2.477,2.477v74.73a2.477,2.477,0,0,1-2.477,2.477" transform="translate(-77.874 -67.438)" fill="#1eccde"/>
            <path id="Trazado_229660" data-name="Trazado 229660" d="M233.263,111.013V176.19a.876.876,0,0,1-.877.876H127.253a.876.876,0,0,1-.876-.876V111.013a.878.878,0,0,1,.876-.88H232.386a.878.878,0,0,1,.877.88" transform="translate(-84.208 -73.385)" fill="#94e1eb"/>
            <path id="Trazado_229661" data-name="Trazado 229661" d="M426.771,321.588a2.125,2.125,0,1,1-2.125-2.125,2.125,2.125,0,0,1,2.125,2.125" transform="translate(-281.537 -212.867)" fill="#5ceff7"/>
            <g id="Grupo_115219" data-name="Grupo 115219" transform="translate(71.944 38.556)" opacity="0.35">
              <g id="Grupo_115218" data-name="Grupo 115218">
                <g id="Grupo_115217" data-name="Grupo 115217" clip-path="url(#clip-path-4)">
                  <path id="Trazado_229662" data-name="Trazado 229662" d="M286.986,165.82H219.025a3.414,3.414,0,0,1-3.414-3.414V118.963a3.414,3.414,0,0,1,3.414-3.414h67.961a3.414,3.414,0,0,1,3.414,3.414v43.444a3.414,3.414,0,0,1-3.414,3.414" transform="translate(-215.611 -115.549)" fill="#fff"/>
                </g>
              </g>
            </g>
            <path id="Trazado_229663" data-name="Trazado 229663" d="M228.934,110.133v58.708a5.3,5.3,0,0,1-5.294,5.294H147.42a5.3,5.3,0,0,1-5.294-5.294V110.133Z" transform="translate(-94.702 -73.385)" fill="#67d7e0"/>
            <path id="Trazado_229664" data-name="Trazado 229664" d="M233.154,149H151.543a3.719,3.719,0,0,1-3.718-3.719V81.041a3.719,3.719,0,0,1,3.718-3.719h81.611a3.719,3.719,0,0,1,3.719,3.719v64.238A3.719,3.719,0,0,1,233.154,149" transform="translate(-98.5 -51.522)" fill="#fff"/>
            <path id="Trazado_229665" data-name="Trazado 229665" d="M233.154,77.322H151.543a3.719,3.719,0,0,0-3.719,3.719V84.3h89.048V81.041a3.719,3.719,0,0,0-3.719-3.719" transform="translate(-98.499 -51.522)" fill="#1eccde"/>
            <path id="Trazado_229666" data-name="Trazado 229666" d="M377.7,86.013a1.072,1.072,0,1,1-1.072-1.072,1.072,1.072,0,0,1,1.072,1.072" transform="translate(-250.243 -56.598)" fill="#fff"/>
            <path id="Trazado_229667" data-name="Trazado 229667" d="M390.8,86.013a1.072,1.072,0,1,1-1.072-1.072,1.072,1.072,0,0,1,1.072,1.072" transform="translate(-258.97 -56.598)" fill="#fff"/>
            <path id="Trazado_229668" data-name="Trazado 229668" d="M403.9,86.013a1.072,1.072,0,1,1-1.072-1.072,1.072,1.072,0,0,1,1.072,1.072" transform="translate(-267.697 -56.598)" fill="#fff"/>
            <rect id="Rectángulo_50597" data-name="Rectángulo 50597" width="27.449" height="1.498" transform="translate(107.075 36.803)" fill="#dcfdff"/>
            <path id="Trazado_229669" data-name="Trazado 229669" d="M401.493,277.3v.834h-.834" transform="translate(-266.97 -184.77)" fill="none" stroke="#6fcecc" stroke-miterlimit="10" stroke-width="1"/>
            <line id="Línea_2096" data-name="Línea 2096" x1="77.999" transform="translate(54.048 93.361)" fill="none" stroke="#6fcecc" stroke-miterlimit="10" stroke-width="1" stroke-dasharray="4.921 4.921"/>
            <path id="Trazado_229670" data-name="Trazado 229670" d="M157.851,278.131h-.834V277.3" transform="translate(-104.624 -184.77)" fill="none" stroke="#6fcecc" stroke-miterlimit="10" stroke-width="1"/>
            <line id="Línea_2097" data-name="Línea 2097" y1="23.312" transform="translate(52.392 67.488)" fill="none" stroke="#6fcecc" stroke-miterlimit="10" stroke-width="1" stroke-dasharray="5.175 5.175"/>
            <path id="Trazado_229671" data-name="Trazado 229671" d="M157.017,198v-.834h.834" transform="translate(-104.624 -131.379)" fill="none" stroke="#6fcecc" stroke-miterlimit="10" stroke-width="1"/>
            <line id="Línea_2098" data-name="Línea 2098" x2="77.999" transform="translate(54.869 65.79)" fill="none" stroke="#6fcecc" stroke-miterlimit="10" stroke-width="1" stroke-dasharray="4.921 4.921"/>
            <path id="Trazado_229672" data-name="Trazado 229672" d="M400.659,197.17h.834V198" transform="translate(-266.97 -131.379)" fill="none" stroke="#6fcecc" stroke-miterlimit="10" stroke-width="1"/>
            <line id="Línea_2099" data-name="Línea 2099" y2="23.312" transform="translate(134.523 68.351)" fill="none" stroke="#6fcecc" stroke-miterlimit="10" stroke-width="1" stroke-dasharray="5.175 5.175"/>
            <rect id="Rectángulo_50598" data-name="Rectángulo 50598" width="27.449" height="1.498" transform="translate(107.075 40.121)" fill="#dcfdff"/>
            <rect id="Rectángulo_50599" data-name="Rectángulo 50599" width="47.3" height="1.498" transform="translate(87.224 43.438)" fill="#dcfdff"/>
            <rect id="Rectángulo_50600" data-name="Rectángulo 50600" width="47.3" height="1.498" transform="translate(87.224 46.755)" fill="#dcfdff"/>
            <rect id="Rectángulo_50601" data-name="Rectángulo 50601" width="47.3" height="1.498" transform="translate(87.224 50.073)" fill="#dcfdff"/>
            <rect id="Rectángulo_50602" data-name="Rectángulo 50602" width="47.3" height="1.498" transform="translate(87.224 53.39)" fill="#dcfdff"/>
            <rect id="Rectángulo_50603" data-name="Rectángulo 50603" width="47.3" height="1.498" transform="translate(87.224 56.707)" fill="#dcfdff"/>
            <rect id="Rectángulo_50604" data-name="Rectángulo 50604" width="31.462" height="1.498" transform="translate(87.224 60.025)" fill="#dcfdff"/>
            <path id="Trazado_229673" data-name="Trazado 229673" d="M252.275,181.881v.834h-.834" transform="translate(-167.541 -121.192)" fill="none" stroke="#6fcecc" stroke-miterlimit="10" stroke-width="1"/>
            <line id="Línea_2100" data-name="Línea 2100" x1="28.055" transform="translate(54.241 61.523)" fill="none" stroke="#6fcecc" stroke-miterlimit="10" stroke-width="1" stroke-dasharray="4.804 4.804"/>
            <path id="Trazado_229674" data-name="Trazado 229674" d="M158.489,182.715h-.834v-.834" transform="translate(-105.05 -121.192)" fill="none" stroke="#6fcecc" stroke-miterlimit="10" stroke-width="1"/>
            <line id="Línea_2101" data-name="Línea 2101" y1="20.392" transform="translate(52.605 38.524)" fill="none" stroke="#6fcecc" stroke-miterlimit="10" stroke-width="1" stroke-dasharray="5.314 5.314"/>
            <path id="Trazado_229675" data-name="Trazado 229675" d="M157.655,111.131V110.3h.834" transform="translate(-105.05 -73.494)" fill="none" stroke="#6fcecc" stroke-miterlimit="10" stroke-width="1"/>
            <line id="Línea_2102" data-name="Línea 2102" x2="28.055" transform="translate(55.043 36.803)" fill="none" stroke="#6fcecc" stroke-miterlimit="10" stroke-width="1" stroke-dasharray="4.804 4.804"/>
            <path id="Trazado_229676" data-name="Trazado 229676" d="M251.44,110.3h.834v.834" transform="translate(-167.541 -73.494)" fill="none" stroke="#6fcecc" stroke-miterlimit="10" stroke-width="1"/>
            <line id="Línea_2103" data-name="Línea 2103" y2="20.392" transform="translate(84.733 39.41)" fill="none" stroke="#6fcecc" stroke-miterlimit="10" stroke-width="1" stroke-dasharray="5.314 5.314"/>
            <path id="Trazado_229677" data-name="Trazado 229677" d="M265.756,115.026h-3.973a.378.378,0,0,1-.378-.378v-3.973a.378.378,0,0,1,.378-.378h3.973a.378.378,0,0,1,.378.378v3.973a.378.378,0,0,1-.378.378" transform="translate(-174.181 -73.494)" fill="#156f93"/>
            <path id="Trazado_229678" data-name="Trazado 229678" d="M267.783,116.212l-1.175-1.175,1.175-1.175" transform="translate(-177.648 -75.869)" fill="none" stroke="#fff" stroke-linecap="round" stroke-linejoin="round" stroke-width="1.5"/>
            <path id="Trazado_229679" data-name="Trazado 229679" d="M305.02,115.026h-3.973a.378.378,0,0,1-.378-.378v-3.973a.378.378,0,0,1,.378-.378h3.973a.378.378,0,0,1,.378.378v3.973a.378.378,0,0,1-.378.378" transform="translate(-200.344 -73.494)" fill="#156f93"/>
            <path id="Trazado_229680" data-name="Trazado 229680" d="M306.588,116.212l1.175-1.175-1.175-1.175" transform="translate(-204.288 -75.869)" fill="none" stroke="#fff" stroke-linecap="round" stroke-linejoin="round" stroke-width="1.5"/>
            <path id="Trazado_229681" data-name="Trazado 229681" d="M285.116,115.026h-3.973a.378.378,0,0,1-.378-.378v-3.973a.378.378,0,0,1,.378-.378h3.973a.378.378,0,0,1,.378.378v3.973a.378.378,0,0,1-.378.378" transform="translate(-187.081 -73.494)" fill="#156f93"/>
            <line id="Línea_2104" data-name="Línea 2104" x1="1.151" y2="2.35" transform="translate(95.516 37.993)" fill="none" stroke="#fff" stroke-linecap="round" stroke-linejoin="round" stroke-width="1.5"/>
            <rect id="Rectángulo_50605" data-name="Rectángulo 50605" width="1.721" height="1.721" transform="translate(52.008 36.172)" fill="#1eccde"/>
            <rect id="Rectángulo_50606" data-name="Rectángulo 50606" width="1.721" height="1.721" transform="translate(83.873 36.172)" fill="#1eccde"/>
            <rect id="Rectángulo_50607" data-name="Rectángulo 50607" width="1.721" height="1.721" transform="translate(52.008 48.642)" fill="#1eccde"/>
            <rect id="Rectángulo_50608" data-name="Rectángulo 50608" width="1.721" height="1.721" transform="translate(83.873 48.642)" fill="#1eccde"/>
            <rect id="Rectángulo_50609" data-name="Rectángulo 50609" width="1.721" height="1.721" transform="translate(67.94 36.172)" fill="#1eccde"/>
            <rect id="Rectángulo_50610" data-name="Rectángulo 50610" width="1.721" height="1.721" transform="translate(52.008 60.662)" fill="#1eccde"/>
            <rect id="Rectángulo_50611" data-name="Rectángulo 50611" width="1.721" height="1.721" transform="translate(83.873 60.662)" fill="#1eccde"/>
            <rect id="Rectángulo_50612" data-name="Rectángulo 50612" width="1.721" height="1.721" transform="translate(67.94 60.662)" fill="#1eccde"/>
            <rect id="Rectángulo_50613" data-name="Rectángulo 50613" width="1.721" height="1.721" transform="translate(51.532 64.861)" fill="#1eccde"/>
            <rect id="Rectángulo_50614" data-name="Rectángulo 50614" width="1.721" height="1.721" transform="translate(133.663 64.861)" fill="#1eccde"/>
            <rect id="Rectángulo_50615" data-name="Rectángulo 50615" width="1.721" height="1.721" transform="translate(51.532 77.33)" fill="#1eccde"/>
            <rect id="Rectángulo_50616" data-name="Rectángulo 50616" width="1.721" height="1.721" transform="translate(133.663 77.33)" fill="#1eccde"/>
            <rect id="Rectángulo_50617" data-name="Rectángulo 50617" width="1.721" height="1.721" transform="translate(93.92 64.861)" fill="#1eccde"/>
            <rect id="Rectángulo_50618" data-name="Rectángulo 50618" width="1.721" height="1.721" transform="translate(51.532 92.5)" fill="#1eccde"/>
            <rect id="Rectángulo_50619" data-name="Rectángulo 50619" width="1.721" height="1.721" transform="translate(133.663 92.5)" fill="#1eccde"/>
            <rect id="Rectángulo_50620" data-name="Rectángulo 50620" width="1.721" height="1.721" transform="translate(93.92 92.5)" fill="#1eccde"/>
            <path id="Trazado_229682" data-name="Trazado 229682" d="M274.054,225.234a7.229,7.229,0,1,1-7.229-7.229,7.229,7.229,0,0,1,7.229,7.229" transform="translate(-172.975 -145.263)" fill="#94e1eb"/>
            <path id="Trazado_229683" data-name="Trazado 229683" d="M275.347,235.48v-8.406l5.808,4.2Z" transform="translate(-183.471 -151.306)" fill="#156f93"/>
            <path id="Trazado_229684" data-name="Trazado 229684" d="M83.952,319.508v20.838A.957.957,0,0,1,83,341.3H59.641V322.051a.983.983,0,0,1,.981-.981H75.47a.98.98,0,0,0,.981-.978v-.584a.98.98,0,0,1,.981-.981h5.542a.98.98,0,0,1,.978.981" transform="translate(-39.74 -212.243)" fill="#fca424"/>
            <path id="Trazado_229685" data-name="Trazado 229685" d="M85.357,345.346H63.838a.5.5,0,0,1-.5-.5V328.23a.5.5,0,0,1,.5-.5h21.52a.5.5,0,0,1,.5.5v16.614a.5.5,0,0,1-.5.5" transform="translate(-42.202 -218.374)" fill="#fcfcfc"/>
            <path id="Trazado_229686" data-name="Trazado 229686" d="M83.607,347.346H62.088a.5.5,0,0,1-.5-.5V330.23a.5.5,0,0,1,.5-.5h21.52a.5.5,0,0,1,.5.5v16.614a.5.5,0,0,1-.5.5" transform="translate(-41.036 -219.707)" fill="#e2ded0"/>
            <path id="Trazado_229687" data-name="Trazado 229687" d="M74.823,351.237H51.247a.912.912,0,0,1-.9-.742l-3.027-15.976a.912.912,0,0,1,.9-1.082H71.8a.912.912,0,0,1,.9.742l3.028,15.976a.912.912,0,0,1-.9,1.082" transform="translate(-31.522 -222.178)" fill="#fecb22"/>
            <line id="Línea_2105" data-name="Línea 2105" x2="185.347" transform="translate(6.542 129.061)" fill="none" stroke="#028e8e" stroke-linecap="round" stroke-miterlimit="10" stroke-width="1"/>
            <line id="Línea_2106" data-name="Línea 2106" x1="3.837" transform="translate(1.361 129.059)" fill="none" stroke="#028e8e" stroke-linecap="round" stroke-miterlimit="10" stroke-width="1"/>
            <line id="Línea_2107" data-name="Línea 2107" x2="8.616" transform="translate(193.366 129.061)" fill="none" stroke="#028e8e" stroke-linecap="round" stroke-miterlimit="10" stroke-width="1"/>
            <path id="Trazado_229688" data-name="Trazado 229688" d="M445.625,388.63a3.514,3.514,0,0,1-1.459,1.105c-.779.347-2.43.511-1.513.818a5.5,5.5,0,0,0,2.529.034,12,12,0,0,1,1.683.078c.842-.006.871-.239.758-1.189-.156-1.308-1.619-1.585-2-.846" transform="translate(-294.772 -258.686)" fill="#222b70"/>
            <path id="Trazado_229689" data-name="Trazado 229689" d="M493.711,385.473c-.047.264.327,1.063-.342,1.65s-2.191,1.2-1.183,1.227a5.87,5.87,0,0,0,2.489-.463c.513-.254.1-.652.739-.853.838-.265.665-.881.23-1.262-.558-1.255-1.782-1.153-1.933-.3" transform="translate(-327.733 -256.423)" fill="#222b70"/>
            <path id="Trazado_229690" data-name="Trazado 229690" d="M462.818,286.744s2.008-5.9-3.689-10.767a21.68,21.68,0,0,1-5.5,1.362,12.716,12.716,0,0,1-3.072-.126s-.458,5.272-.464,8.1Z" transform="translate(-299.91 -183.891)" fill="#3e89cc"/>
            <path id="Trazado_229691" data-name="Trazado 229691" d="M450.161,289.282c-.448.169-1,.846-1.244,4.8-.057.927-.433,8.07-.564,9.81a5.069,5.069,0,0,0,0,.8,3.027,3.027,0,0,0-.021.515c.118,2.822,1.31,11.862,1.247,17.321a1.282,1.282,0,0,0,.46.38,2.194,2.194,0,0,0,1.489.011c.39-4.394,3.305-13.6,1.275-17.76.807-2.589,2.6-8.159,2.967-10.312.589-3.478-3.37-6.4-5.609-5.56" transform="translate(-298.733 -192.658)" fill="#3e89cc"/>
            <path id="Trazado_229692" data-name="Trazado 229692" d="M474.241,307.679c-.164-2.758.328-9.778-.152-11.947-.76-3.445-4.727-4.872-6.485-3.249a4.794,4.794,0,0,0-.318,3.112c.286.884,1.918,10.8,2.449,12.465.075.235.315.947.375,1.117.945,2.662,5.406,9.675,6.954,14.91a2.333,2.333,0,0,0,.577.1,2.093,2.093,0,0,0,1.652-.581c-.924-4.32-1.363-12.273-5.053-15.931" transform="translate(-311.283 -194.444)" fill="#3e89cc"/>
            <path id="Trazado_229693" data-name="Trazado 229693" d="M406.836,221.156s-.722-.791-.931-1.093-1.21-.354-1.49-.945-.861-1.405-.233-1.708.6-.326.768-.558-1.047-1.117-1.256-1.792,1.675.908,1.954,1.3.721.047,1,.745a9.353,9.353,0,0,0,1.047,2.583" transform="translate(-268.982 -143.19)" fill="#ffccb0"/>
            <path id="Trazado_229694" data-name="Trazado 229694" d="M423.013,224.479a45.705,45.705,0,0,0-4.775,5.956,52.737,52.737,0,0,0-6.147-5.778s-1.854,1.389-1.565,1.671,6.024,8.542,7.462,8.651a1.019,1.019,0,0,0,.543-.135s2.053-.807,5.059-4.139a1.008,1.008,0,0,1,1.548-.113l.886-7.085a6.811,6.811,0,0,0-3.011.971" transform="translate(-273.525 -148.929)" fill="#fecb22"/>
            <path id="Trazado_229695" data-name="Trazado 229695" d="M446.619,224.8a7.527,7.527,0,0,1,5.14-1.8c1.81.057,6.738.356,7.289,1.567a38.044,38.044,0,0,1,.172,9.142c-.31,1.643-1.1,5.713-1.1,6.7s.528,1.4.281,1.689c-.551.639-4.323.907-6.093.907-1.576,0-4.258-.42-4.395-.925-.064-.237.059-1.546-.014-3.259a88.526,88.526,0,0,0-.82-10.046c-.315-.846-1.181-3.366-.457-3.969" transform="translate(-297.407 -148.59)" fill="#fecb22"/>
            <path id="Trazado_229696" data-name="Trazado 229696" d="M448.7,235.447s.09.69.2,1.727c.048.519.116,1.124.168,1.773s.109,1.342.165,2.034.1,1.389.124,2.039.043,1.259.063,1.779c.029,1.042.028,1.738.028,1.738s-.079-.692-.169-1.731-.188-2.423-.3-3.808c-.045-.693-.09-1.387-.132-2.037s-.064-1.258-.092-1.778c-.046-1.041-.057-1.737-.057-1.737" transform="translate(-298.981 -156.885)" fill="#fcb424"/>
            <path id="Trazado_229697" data-name="Trazado 229697" d="M463.151,215.789a6.848,6.848,0,0,1-3.162,1.221,2.634,2.634,0,0,1-.991-1.249,3.27,3.27,0,0,0,.49-.277,7.638,7.638,0,0,0,.086-1.332c0-.183.008-.354.008-.493.005-.191.005-.319.005-.319l3.754-1.6a6.205,6.205,0,0,0-.518,1.59,18.529,18.529,0,0,0-.094,2.118c0,.166.421.338.421.338" transform="translate(-305.843 -141.091)" fill="#ffccb0"/>
            <path id="Trazado_229698" data-name="Trazado 229698" d="M456.3,194.646a9.672,9.672,0,0,0-.493,1.716.7.7,0,0,0,.4.758,16.687,16.687,0,0,0,.729-2.4" transform="translate(-303.713 -129.698)" fill="#3b2e7a"/>
            <path id="Trazado_229699" data-name="Trazado 229699" d="M457.5,192.706c-.458.125-1.666-.125-2,.375a11.369,11.369,0,0,0-.749,2.041c-.249.663-.411,1.372-.592,2.056-.236.891-.624,2.523.248,3.268a1.16,1.16,0,0,0,.672.341c.413.075.823.159,1.236.234a4.145,4.145,0,0,0,1.983.042c.849-.276,1.314-1.442,1.532-2.235l1.249-4.539Z" transform="translate(-302.425 -128.405)" fill="#ffccb0"/>
            <path id="Trazado_229700" data-name="Trazado 229700" d="M465.512,221.355a2.855,2.855,0,0,1,.878.839,8.588,8.588,0,0,1-2.147,3.062,4.979,4.979,0,0,0-1.073-1.768,8.045,8.045,0,0,0,2.342-2.133" transform="translate(-308.623 -147.495)" fill="#fcb424"/>
            <path id="Trazado_229701" data-name="Trazado 229701" d="M458.864,223.635a3.2,3.2,0,0,0-1.3,1.369,6.911,6.911,0,0,1,.2-2.547s.595-.76.8-.776a4.924,4.924,0,0,0,.3,1.954" transform="translate(-304.859 -147.712)" fill="#fcb424"/>
            <path id="Trazado_229702" data-name="Trazado 229702" d="M453.674,243.019l11.294,13.612a.625.625,0,0,1-.08.882l-9.372,7.776a.624.624,0,0,1-.881-.084l-11.295-13.612a.624.624,0,0,1,.08-.881l9.371-7.776a.625.625,0,0,1,.881.084" transform="translate(-295.313 -161.778)" fill="#94e1eb"/>
            <path id="Trazado_229703" data-name="Trazado 229703" d="M453.674,243.019l.617.744-10.332,8.573-.618-.744a.624.624,0,0,1,.08-.881l9.371-7.776a.625.625,0,0,1,.881.084" transform="translate(-295.313 -161.778)" fill="#1bb9c1"/>
            <path id="Trazado_229704" data-name="Trazado 229704" d="M464.674,251.065a.372.372,0,1,1-.523-.049.372.372,0,0,1,.523.049" transform="translate(-309.187 -167.202)" fill="#fff"/>
            <path id="Trazado_229705" data-name="Trazado 229705" d="M468.481,247.906a.371.371,0,1,1-.523-.049.372.372,0,0,1,.523.049" transform="translate(-311.724 -165.097)" fill="#fff"/>
            <path id="Trazado_229706" data-name="Trazado 229706" d="M472.289,244.747a.371.371,0,1,1-.523-.049.372.372,0,0,1,.523.049" transform="translate(-314.261 -162.992)" fill="#fff"/>
            <g id="Grupo_115222" data-name="Grupo 115222" transform="translate(149.699 86.592)" opacity="0.5">
              <g id="Grupo_115221" data-name="Grupo 115221">
                <g id="Grupo_115220" data-name="Grupo 115220" clip-path="url(#clip-path-5)">
                  <rect id="Rectángulo_50621" data-name="Rectángulo 50621" width="6.439" height="4.746" transform="matrix(0.77, -0.639, 0.639, 0.77, 0, 4.111)" fill="#fff"/>
                </g>
              </g>
            </g>
            <g id="Grupo_115225" data-name="Grupo 115225" transform="translate(153.134 87.187)" opacity="0.5">
              <g id="Grupo_115224" data-name="Grupo 115224">
                <g id="Grupo_115223" data-name="Grupo 115223" clip-path="url(#clip-path-6)">
                  <rect id="Rectángulo_50623" data-name="Rectángulo 50623" width="11.99" height="10.388" transform="matrix(0.77, -0.639, 0.639, 0.77, 0, 7.656)" fill="#fff"/>
                </g>
              </g>
            </g>
            <g id="Grupo_115228" data-name="Grupo 115228" transform="translate(155.178 83.048)" opacity="0.5">
              <g id="Grupo_115227" data-name="Grupo 115227">
                <g id="Grupo_115226" data-name="Grupo 115226" clip-path="url(#clip-path-7)">
                  <rect id="Rectángulo_50625" data-name="Rectángulo 50625" width="4.87" height="0.413" transform="translate(0 3.11) rotate(-39.682)" fill="#fff"/>
                </g>
              </g>
            </g>
            <g id="Grupo_115231" data-name="Grupo 115231" transform="translate(155.732 83.715)" opacity="0.5">
              <g id="Grupo_115230" data-name="Grupo 115230">
                <g id="Grupo_115229" data-name="Grupo 115229" clip-path="url(#clip-path-7)">
                  <rect id="Rectángulo_50627" data-name="Rectángulo 50627" width="4.87" height="0.413" transform="translate(0 3.11) rotate(-39.682)" fill="#fff"/>
                </g>
              </g>
            </g>
            <g id="Grupo_115234" data-name="Grupo 115234" transform="translate(156.286 84.382)" opacity="0.5">
              <g id="Grupo_115233" data-name="Grupo 115233">
                <g id="Grupo_115232" data-name="Grupo 115232" clip-path="url(#clip-path-9)">
                  <rect id="Rectángulo_50629" data-name="Rectángulo 50629" width="4.87" height="0.413" transform="translate(0 3.11) rotate(-39.682)" fill="#fff"/>
                </g>
              </g>
            </g>
            <g id="Grupo_115237" data-name="Grupo 115237" transform="translate(156.839 85.049)" opacity="0.5">
              <g id="Grupo_115236" data-name="Grupo 115236">
                <g id="Grupo_115235" data-name="Grupo 115235" clip-path="url(#clip-path-7)">
                  <rect id="Rectángulo_50631" data-name="Rectángulo 50631" width="4.87" height="0.413" transform="translate(0 3.11) rotate(-39.682)" fill="#fff"/>
                </g>
              </g>
            </g>
            <g id="Grupo_115240" data-name="Grupo 115240" transform="translate(157.392 85.716)" opacity="0.5">
              <g id="Grupo_115239" data-name="Grupo 115239">
                <g id="Grupo_115238" data-name="Grupo 115238" clip-path="url(#clip-path-7)">
                  <rect id="Rectángulo_50633" data-name="Rectángulo 50633" width="4.87" height="0.413" transform="translate(0 3.11) rotate(-39.682)" fill="#fff"/>
                </g>
              </g>
            </g>
            <g id="Grupo_115243" data-name="Grupo 115243" transform="translate(157.946 87.285)" opacity="0.5">
              <g id="Grupo_115242" data-name="Grupo 115242">
                <g id="Grupo_115241" data-name="Grupo 115241" clip-path="url(#clip-path-12)">
                  <rect id="Rectángulo_50635" data-name="Rectángulo 50635" width="3.457" height="0.413" transform="matrix(0.77, -0.639, 0.639, 0.77, 0, 2.207)" fill="#fff"/>
                </g>
              </g>
            </g>
            <path id="Trazado_229707" data-name="Trazado 229707" d="M456.528,280.738a3.618,3.618,0,0,0-2.052,1.071.188.188,0,0,0-.076.15c.012.072.1.1.168.115.418.067.486-.2.876-.363.264-.11.526-.224.787-.338" transform="translate(-302.778 -187.063)" fill="#f2a181"/>
            <path id="Trazado_229708" data-name="Trazado 229708" d="M460.249,279.512l-1.139.713a.815.815,0,0,0-.386.386c-.248.809-.753.852-1.033,1.037a8.308,8.308,0,0,1-.928.376c.073.1.139.185.2.264a1.5,1.5,0,0,1-.155.069.042.042,0,0,1-.02,0,.709.709,0,0,1-.624-.2h0a3.269,3.269,0,0,1-.75-1.007.618.618,0,0,1,.086-.617l.006-.007a8.4,8.4,0,0,1,1.142-.836c.195-.092,2.054-.647,2.754-.792Z" transform="translate(-303.426 -185.839)" fill="#ffccb0"/>
            <path id="Trazado_229709" data-name="Trazado 229709" d="M469.234,229.151a52.656,52.656,0,0,0,1.526,8.363L463.7,242.4s.105.411.263.857a4.015,4.015,0,0,0,.439.8s9.069-3.252,9.722-5.155c-.173-2.319.111-10.482-2.192-13.5-.733-.96-5.191-1.525-5.191-1.525" transform="translate(-308.978 -149.171)" fill="#fecb22"/>
            <path id="Trazado_229710" data-name="Trazado 229710" d="M462.681,188.69a.423.423,0,0,1-.132-.176c.021-1.1-.546-1.3-1.227-1.609-.984-.44-4.828-.518-5.215-1.961-.3.135-.58.306-.493,1.38a1.84,1.84,0,0,1-.185-.42,2.334,2.334,0,0,0-.361,1.213,1.52,1.52,0,0,0,.5,1.136,1.978,1.978,0,0,0,.7.352,17.038,17.038,0,0,0,1.847.379,3.766,3.766,0,0,1,1.714.734,1.326,1.326,0,0,1,.326.4,6.618,6.618,0,0,0-.323,1.419.959.959,0,0,0,.256.629c-.051.579-.085,1.051-.013,1.03.168-.05.229-.252.329-.4.188-.276.408-.1.7.07l-.123.267.458-.217s2.746-2.665,1.245-4.228" transform="translate(-303.224 -123.233)" fill="#3b2e7a"/>
            <path id="Trazado_229711" data-name="Trazado 229711" d="M469.827,209.095a.386.386,0,0,0,.577.438,1.331,1.331,0,0,0,.84-1.031c.1-.53-.185-1.061-.671-.923a.717.717,0,0,0-.458.7" transform="translate(-313.052 -138.301)" fill="#ffccb0"/>
            <path id="Trazado_229712" data-name="Trazado 229712" d="M462.333,217.675a3.444,3.444,0,0,1-1.609.3c0-.183.008-.354.008-.493Z" transform="translate(-306.993 -144.917)" fill="#f2a181"/>
            <path id="Trazado_229713" data-name="Trazado 229713" d="M480.471,241.943l.076.326.186.861c.147.713.326,1.665.5,2.617l.471,2.618c.071.355.115.657.165.863s.064.329.064.329-.049-.112-.126-.311-.181-.486-.289-.835a23.3,23.3,0,0,1-.613-2.6c-.172-.957-.3-1.922-.359-2.648-.034-.363-.047-.667-.061-.88s-.012-.335-.012-.335" transform="translate(-320.151 -161.213)" fill="#fcb424"/>
            <path id="Trazado_229714" data-name="Trazado 229714" d="M465.944,297.046l.12.471c.07.3.183.728.3,1.244s.254,1.118.389,1.764.275,1.338.414,2.028.264,1.384.387,2.033l.32,1.777.308,1.736s-.23-.669-.492-1.7c-.127-.514-.282-1.112-.424-1.758s-.287-1.337-.426-2.028-.265-1.385-.375-2.037-.2-1.263-.285-1.785-.132-.962-.175-1.267-.056-.483-.056-.483" transform="translate(-310.471 -197.93)" fill="#256ea5"/>
            <line id="Línea_2108" data-name="Línea 2108" x2="27.072" transform="translate(141.923 132.035)" fill="none" stroke="#028e8e" stroke-linecap="round" stroke-miterlimit="10" stroke-width="1"/>
            <line id="Línea_2109" data-name="Línea 2109" x2="3.872" transform="translate(170 132.035)" fill="none" stroke="#028e8e" stroke-linecap="round" stroke-miterlimit="10" stroke-width="1"/>
            <path id="Trazado_229715" data-name="Trazado 229715" d="M124.167,294.047l7.426-50.906H127.88l-7.426,50.906Z" transform="translate(-80.261 -162.011)" fill="#65739b"/>
            <path id="Trazado_229716" data-name="Trazado 229716" d="M126.091,294.047l7.426-50.906H129.8l-7.426,50.906Z" transform="translate(-81.543 -162.011)" fill="#35416d"/>
            <line id="Línea_2110" data-name="Línea 2110" x1="19.283" transform="translate(46.211 104.886)" fill="none" stroke="#222b54" stroke-linecap="round" stroke-miterlimit="10" stroke-width="2"/>
            <line id="Línea_2111" data-name="Línea 2111" x1="19.283" transform="translate(47.58 95.068)" fill="none" stroke="#222b54" stroke-linecap="round" stroke-miterlimit="10" stroke-width="2"/>
            <line id="Línea_2112" data-name="Línea 2112" x1="19.442" transform="translate(49.003 85.25)" fill="none" stroke="#222b54" stroke-linecap="round" stroke-miterlimit="10" stroke-width="2"/>
            <line id="Línea_2113" data-name="Línea 2113" x1="19.283" transform="translate(44.858 114.705)" fill="none" stroke="#222b54" stroke-linecap="round" stroke-miterlimit="10" stroke-width="2"/>
            <line id="Línea_2114" data-name="Línea 2114" x1="19.283" transform="translate(43.296 124.523)" fill="none" stroke="#222b54" stroke-linecap="round" stroke-miterlimit="10" stroke-width="2"/>
            <rect id="Rectángulo_50637" data-name="Rectángulo 50637" width="25.922" height="33.69" transform="translate(33.683 68.003) rotate(-83.231)" fill="#0e627c"/>
            <rect id="Rectángulo_50638" data-name="Rectángulo 50638" width="24.72" height="32.128" transform="translate(34.53 67.498) rotate(-83.231)" fill="#156f93"/>
            <path id="Trazado_229717" data-name="Trazado 229717" d="M154.015,165.858l-10.922,10.654.533.063-.36,3.029,18.515,2.2.359-3.028Z" transform="translate(-95.346 -110.515)" fill="#1eccde"/>
            <path id="Trazado_229718" data-name="Trazado 229718" d="M103.844,163.322l14.748-14.968,12.947,21.326-28.054-3.329Z" transform="translate(-68.954 -98.852)" fill="#64e2e2"/>
            <path id="Trazado_229719" data-name="Trazado 229719" d="M181.081,144.855a3.411,3.411,0,1,1-2.985-3.789,3.411,3.411,0,0,1,2.985,3.789" transform="translate(-116.129 -93.98)" fill="#fff"/>
            <path id="Trazado_229720" data-name="Trazado 229720" d="M141.542,333.44s-.137,1.495-.191,1.875-1.272.326-1.4.119a10.743,10.743,0,0,1-.081-1.965" transform="translate(-93.194 -222.18)" fill="#ffccb0"/>
            <path id="Trazado_229721" data-name="Trazado 229721" d="M139.087,338.806a8.149,8.149,0,0,0,.04,1.054l1.4.094.085-.229a2.208,2.208,0,0,0,.8.288l1.183.079c.866.058,1.365-.019,1.4-.17.134-.631-.9-.671-1.171-.689a2.205,2.205,0,0,1-1.742-.875c-.113-.294-.05-.362-.214-.319a.4.4,0,0,0-.254.191.712.712,0,0,1-.757.349.848.848,0,0,1-.458-.26.512.512,0,0,0-.3.486" transform="translate(-92.674 -225.237)" fill="#3e89cc"/>
            <path id="Trazado_229722" data-name="Trazado 229722" d="M183.5,301.089a11.51,11.51,0,0,1-.322,1.4c-.141.356-1.313.019-1.389-.212a10.766,10.766,0,0,1,.381-1.929" transform="translate(-121.127 -200.131)" fill="#ffccb0"/>
            <path id="Trazado_229723" data-name="Trazado 229723" d="M180.106,306.18c-.1.385-.237,1.124-.237,1.124l1.17.518.194-.18a2.172,2.172,0,0,0,.647.523,4.865,4.865,0,0,0,1.133.322,2.767,2.767,0,0,0,1.839-.213c.258-.591-1.1-.759-1.369-.832a1.8,1.8,0,0,1-1.278-1.3c-.058-.311.019-.365-.154-.357a.414.414,0,0,0-.294.136.741.741,0,0,1-.834.189.888.888,0,0,1-.414-.349.512.512,0,0,0-.4.415" transform="translate(-119.852 -203.739)" fill="#3e89cc"/>
            <path id="Trazado_229724" data-name="Trazado 229724" d="M135.475,188.812a7.086,7.086,0,0,0,1.611.37,10.812,10.812,0,0,0,1.428.071,5.44,5.44,0,0,0,2.283-.485,3.839,3.839,0,0,0,1.865-2.4c-.2,0-1.263.006-2.317-.038-1.136-.044-2.267-.143-2.306-.37a5.958,5.958,0,0,0,.5-1.28c.794-2.808.579-7.286.364-9.338-.9.188-2.361.519-2.741,1.186a16.18,16.18,0,0,0-1.21,5.634c-.295,3.105-.27,6.331.526,6.649" transform="translate(-89.805 -116.836)" fill="#fecb22"/>
            <path id="Trazado_229725" data-name="Trazado 229725" d="M146.706,228.556l-5.129-.046a9.539,9.539,0,0,0-1.381,4.956c.176,2.486.7,2.663.712,3.866.05,4.874.21,8.118.317,9.8a6.865,6.865,0,0,1-.343,2.628,24.409,24.409,0,0,0-.944,3.454c-.392,2.514-.746,10.856-.746,10.856a5.444,5.444,0,0,0,2,.225s3.206-10.587,4.154-14.791l.8-3.223c.419-1.533,2.785-11.652,2.785-11.652Z" transform="translate(-92.747 -152.262)" fill="#3e89cc"/>
            <path id="Trazado_229726" data-name="Trazado 229726" d="M184.567,253.484c.693-2.034,4.787-1.659,4.158.717-.7,2.642-5.316,15.255-5.316,15.255a5.559,5.559,0,0,1-2.207-.567s.616-3.071,1.446-9.964a19.64,19.64,0,0,1,1.92-5.441" transform="translate(-120.739 -168.024)" fill="#3e89cc"/>
            <path id="Trazado_229727" data-name="Trazado 229727" d="M151.387,223.513c3.552,1.139,9.538,6.04,12.759,8.08,2.166,1.371,1.939,4.815-.184,5-2.535.226-13.8-2.084-17.5-8.62" transform="translate(-97.592 -148.933)" fill="#3e89cc"/>
            <path id="Trazado_229728" data-name="Trazado 229728" d="M149.954,153.435a6.571,6.571,0,0,0,.234-2.448c-.182-1.039-.805-2.91-.572-4.313s3.966-3.659,5.48-2.545c2.644,1.946.757,8.183.445,8.365s-1.485-.058-1.691.166a5.584,5.584,0,0,0-.362,1.549" transform="translate(-99.659 -95.838)" fill="#ffccb0"/>
            <path id="Trazado_229729" data-name="Trazado 229729" d="M148.708,173.5a1.92,1.92,0,0,1,.253-.957c.627-.666,4.035.2,4.2.312s.321.8.321.8Z" transform="translate(-99.088 -114.802)" fill="#fcb424"/>
            <path id="Trazado_229730" data-name="Trazado 229730" d="M147.978,148.85c.186.478.272,1.13.532,1.252a23.934,23.934,0,0,0,2.632.139c1.142-.535,1.465-3.2,1.465-3.2h.006a2.057,2.057,0,0,1,.067-1.045c.342-.491.9-.091.953.378s.042,1.016.164,1.077c.165.088.3-.616.237-1.515a5.612,5.612,0,0,1,.943-2.739c.519-.811.271-2.849-1.394-2.653a1.118,1.118,0,0,1-.877.8c-1.131.309-3.177.049-4.17.629-.425.248-.8.805-.6,1.23,0,0-1.032-.119-.872,1.495.347,3.489.638,3.461.909,4.158" transform="translate(-97.985 -93.636)" fill="#222b54"/>
            <path id="Trazado_229731" data-name="Trazado 229731" d="M150,193.24c-.243.089-.458.234-.71.309a4.874,4.874,0,0,1-1.843.024c-.633-.056-1.266-.115-1.9-.164-3.3-.141-4.438.653-4.974-.15a.922.922,0,0,1-.113-.677,62.981,62.981,0,0,0-.747-8.11c-.366-2.436-1.064-4.7-1.123-5.757-.21-3.806,3.657-3.773,3.657-3.773,5.681-.354,7.8,1.282,8.107,3.722.023.173.036.359.05.555.145,2.518-.57,7.724-.933,10.76-.1.836,1.014,3.084.528,3.262" transform="translate(-92.338 -116.536)" fill="#fecb22"/>
            <path id="Trazado_229732" data-name="Trazado 229732" d="M203.148,162.413c.005-.11.007-.193,0-.229-.017-.2-.233-.12-.289.047a2.469,2.469,0,0,0-.05.28,1.507,1.507,0,0,0,0-.153c-.017-.166-.209-.125-.265.012a2.168,2.168,0,0,0-.059.322c-.027.167-.075.345-.1.513-.021.152-.209.868-.567.94-.548.109-.189-.836-.571-1.054-.12-.069-.258.666-.273,1.083a4.611,4.611,0,0,0,.016.871,5.822,5.822,0,0,1,.14.743,3.578,3.578,0,0,1-.19.543l1.26.523a3.2,3.2,0,0,1,.338-.928,2.914,2.914,0,0,0,.806-1.466,3.186,3.186,0,0,0-.205-2.046" transform="translate(-133.897 -107.988)" fill="#ffccb0"/>
            <path id="Trazado_229733" data-name="Trazado 229733" d="M173.411,174.587s-.377,2.186-.75,3.936a23.033,23.033,0,0,1-1.351,4.12c0,.01-.943,2.12-1.378,2.32-2.13.982-7.371-3.661-8.392-4.561-2.3.613-4-5.95-4-5.95a29.059,29.059,0,0,1,4.334.384c1.739.369,6.57,5.839,6.8,5.853.147-.281.286-.565.8-1.552,1.16-2.213,2.588-4.961,2.588-4.961s1.054.314,1.073.323Z" transform="translate(-104.97 -116.059)" fill="#fecb22"/>
            <path id="Trazado_229734" data-name="Trazado 229734" d="M180,294.047l7.426-50.906h-3.713l-7.426,50.906Z" transform="translate(-117.461 -162.011)" fill="#3b4772"/>
            <path id="Trazado_229735" data-name="Trazado 229735" d="M181.919,294.047l7.426-50.906h-3.713l-7.426,50.906Z" transform="translate(-118.744 -162.011)" fill="#222b54"/>
            <path id="Trazado_229736" data-name="Trazado 229736" d="M152.336,235.187a4.851,4.851,0,0,0-.108.515,5.821,5.821,0,0,0-.062,1.37,3.723,3.723,0,0,0,2.168,3.209c.681.342,1.375.663,2.025.966s1.26.581,1.788.807l1.759.761s-.187-.047-.508-.146-.781-.24-1.322-.44-1.173-.43-1.837-.712-1.365-.6-2.057-.939a3.775,3.775,0,0,1-2.2-3.5,5.15,5.15,0,0,1,.185-1.391,3.57,3.57,0,0,1,.171-.5" transform="translate(-101.268 -156.711)" fill="#256ea5"/>
            <path id="Trazado_229737" data-name="Trazado 229737" d="M167.345,189.045s.062.086.175.23.285.341.492.573.463.491.738.765.58.555.894.826c.157.135.308.278.468.4s.307.266.462.383l.437.354.4.31.6.468c.144.113.225.183.225.183s-.1-.044-.26-.127-.4-.2-.671-.365-.585-.358-.906-.59-.653-.494-.972-.771a11.478,11.478,0,0,1-.885-.873,8.6,8.6,0,0,1-.676-.849,6.261,6.261,0,0,1-.4-.657,2.464,2.464,0,0,1-.12-.265" transform="translate(-111.506 -125.966)" fill="#fcb424"/>
            <path id="Trazado_229738" data-name="Trazado 229738" d="M139.518,191.554s.052.15.13.415.189.646.3,1.107.238,1,.348,1.583.217,1.206.313,1.831.168,1.253.226,1.844.093,1.142.121,1.615.031.869.04,1.145,0,.435,0,.435-.024-.156-.068-.43l-.162-1.132c-.066-.468-.143-1.014-.226-1.6s-.174-1.207-.264-1.83c-.187-1.245-.374-2.491-.515-3.425l-.243-1.56" transform="translate(-92.965 -127.638)" fill="#fcb424"/>
            <path id="Trazado_229739" data-name="Trazado 229739" d="M188.556,191.486a3.378,3.378,0,0,1,.333.239,5.7,5.7,0,0,1,.656.616c.109.122.216.247.308.37s.172.243.24.345a2.921,2.921,0,0,1,.2.358l-.077-.082-.2-.22c-.162-.182-.38-.42-.6-.659l-.6-.66c-.163-.182-.269-.307-.269-.307" transform="translate(-125.64 -127.592)" fill="#fcb424"/>
            <line id="Línea_2115" data-name="Línea 2115" x2="30.346" transform="translate(36.517 132.035)" fill="none" stroke="#028e8e" stroke-linecap="round" stroke-miterlimit="10" stroke-width="1"/>
            <line id="Línea_2116" data-name="Línea 2116" x2="7.678" transform="translate(27.284 132.035)" fill="none" stroke="#028e8e" stroke-linecap="round" stroke-miterlimit="10" stroke-width="1"/>
            <path id="Trazado_229740" data-name="Trazado 229740" d="M324.807,323.125H303.222a.912.912,0,0,1-.912-.912v-34.52a.912.912,0,0,1,.912-.912h21.585a.912.912,0,0,1,.912.912v34.52a.912.912,0,0,1-.912.912" transform="translate(-201.437 -191.09)" fill="#222b54"/>
            <path id="Trazado_229741" data-name="Trazado 229741" d="M326.3,321.523H307.723a.912.912,0,0,1-.912-.912V293.227a.912.912,0,0,1,.912-.912H326.3a.912.912,0,0,1,.912.912v27.384a.912.912,0,0,1-.912.912" transform="translate(-204.436 -194.777)" fill="#94e1eb"/>
            <line id="Línea_2117" data-name="Línea 2117" x2="28.808" transform="translate(96.055 132.035)" fill="none" stroke="#028e8e" stroke-linecap="round" stroke-miterlimit="10" stroke-width="1"/>
            <line id="Línea_2118" data-name="Línea 2118" x2="2.044" transform="translate(125.613 132.035)" fill="none" stroke="#028e8e" stroke-linecap="round" stroke-miterlimit="10" stroke-width="1"/>
            <path id="Trazado_229742" data-name="Trazado 229742" d="M322.361,298.138v10.389a.317.317,0,0,1-.318.318H311.766a.317.317,0,0,1-.314-.318V298.138a.316.316,0,0,1,.314-.314h10.277a.317.317,0,0,1,.318.314" transform="translate(-207.529 -198.448)" fill="#fff"/>
            <path id="Trazado_229743" data-name="Trazado 229743" d="M333.331,318.767v1.947a.317.317,0,0,1-.318.318h-5.1l.217-2.265,2.4-2.653Z" transform="translate(-218.499 -210.635)" fill="#2a8ead"/>
            <path id="Trazado_229744" data-name="Trazado 229744" d="M320.933,318.812h-9.167a.317.317,0,0,1-.314-.318v-1.947l3.588-3.765Z" transform="translate(-207.529 -208.415)" fill="#156f93"/>
            <path id="Trazado_229745" data-name="Trazado 229745" d="M334.77,304.233a1.265,1.265,0,1,1-1.265-1.265,1.265,1.265,0,0,1,1.265,1.265" transform="translate(-221.38 -201.876)" fill="#2a8ead"/>
            <path id="Trazado_229746" data-name="Trazado 229746" d="M328.856,334.957v10.389c0,.176-.223.318-.5.318H312.232c-.27,0-.492-.142-.492-.318V334.957c0-.172.223-.314.492-.314h16.125c.276,0,.5.142.5.314" transform="translate(-207.721 -222.982)" fill="#fff"/>
            <path id="Trazado_229747" data-name="Trazado 229747" d="M334.38,345.131a3.017,3.017,0,1,1-3.017-3.017,3.018,3.018,0,0,1,3.017,3.017" transform="translate(-218.785 -227.96)" fill="#94e1eb"/>
            <path id="Trazado_229748" data-name="Trazado 229748" d="M334.92,349.409V345.9l2.424,1.754Z" transform="translate(-223.166 -230.482)" fill="#156f93"/>
            <rect id="Rectángulo_50639" data-name="Rectángulo 50639" width="5.54" height="0.82" transform="translate(115.595 99.376)" fill="#dcfdff"/>
            <rect id="Rectángulo_50640" data-name="Rectángulo 50640" width="17.116" height="0.82" transform="translate(104.019 123.484)" fill="#dcfdff"/>
            <rect id="Rectángulo_50641" data-name="Rectángulo 50641" width="14.461" height="0.82" transform="translate(104.02 125.013)" fill="#dcfdff"/>
            <rect id="Rectángulo_50642" data-name="Rectángulo 50642" width="5.54" height="0.82" transform="translate(115.595 100.833)" fill="#dcfdff"/>
            <rect id="Rectángulo_50643" data-name="Rectángulo 50643" width="5.54" height="0.82" transform="translate(115.595 102.291)" fill="#dcfdff"/>
            <rect id="Rectángulo_50644" data-name="Rectángulo 50644" width="5.54" height="0.82" transform="translate(115.595 103.748)" fill="#dcfdff"/>
            <rect id="Rectángulo_50645" data-name="Rectángulo 50645" width="5.54" height="0.82" transform="translate(115.595 105.205)" fill="#dcfdff"/>
            <rect id="Rectángulo_50646" data-name="Rectángulo 50646" width="5.54" height="0.82" transform="translate(115.595 106.662)" fill="#dcfdff"/>
            <rect id="Rectángulo_50647" data-name="Rectángulo 50647" width="5.54" height="0.82" transform="translate(115.595 108.12)" fill="#dcfdff"/>
            <rect id="Rectángulo_50648" data-name="Rectángulo 50648" width="3.783" height="0.82" transform="translate(115.595 109.577)" fill="#dcfdff"/>
            <path id="Trazado_229749" data-name="Trazado 229749" d="M336.338,384.912a1.464,1.464,0,1,1-1.464-1.464,1.464,1.464,0,0,1,1.464,1.464" transform="translate(-222.16 -255.502)" fill="#fff"/>
            <path id="Trazado_229750" data-name="Trazado 229750" d="M118.843,71.873h-6.759A2.085,2.085,0,0,1,110,69.788V63.029a2.085,2.085,0,0,1,2.085-2.085h6.759a2.085,2.085,0,0,1,2.085,2.085v6.759a2.085,2.085,0,0,1-2.085,2.085" transform="translate(-73.295 -40.609)" fill="#94e1eb"/>
            <path id="Trazado_229751" data-name="Trazado 229751" d="M120.305,70.079l-2.273-2.273A1.709,1.709,0,0,0,115.9,65.7l1.069,1.069-.239.911-.911.238-1.069-1.068a1.709,1.709,0,0,0,2.109,2.131l2.273,2.273a1.709,1.709,0,0,0,2.131,2.109L120.2,72.291l.238-.911.912-.238,1.068,1.068a1.709,1.709,0,0,0-2.109-2.131" transform="translate(-76.415 -43.728)" fill="#fff"/>
            <path id="Trazado_229752" data-name="Trazado 229752" d="M77.388,233.754a.632.632,0,0,0-.043-.167l0,0a.739.739,0,0,0-.05-.1.506.506,0,0,0-.069-.086c-.013-.013-.025-.026-.038-.038a.266.266,0,0,0-.041-.035h0a.622.622,0,0,0-.058-.038.464.464,0,0,0-.142-.06.479.479,0,0,0-.051-.012.618.618,0,0,0-.2,0H76.68a.646.646,0,0,1-.139,0,.627.627,0,0,1-.308-.112.3.3,0,0,1-.043-.035.392.392,0,0,1-.045-.043.493.493,0,0,1-.058-.074c-.015-.025-.03-.051-.043-.078s-.013-.03-.018-.045l-.015-.038c-.041-.114-.088-.227-.141-.338,0,0,0-.005,0-.007a.483.483,0,0,1-.023-.059.576.576,0,0,1-.027-.253v0a.71.71,0,0,1,.06-.2A.569.569,0,0,1,76,231.77c.018-.016.036-.033.056-.048l.012-.008c.018-.013.035-.028.051-.043a.594.594,0,0,0,.117-.151.716.716,0,0,0,.038-.083v0a.752.752,0,0,0,.025-.086.593.593,0,0,0-.116-.5,5.414,5.414,0,0,0-.4-.453,5.175,5.175,0,0,0-.455-.405.6.6,0,0,0-.515-.114l-.066.02a.576.576,0,0,0-.233.152.492.492,0,0,0-.048.056l-.012.013a.609.609,0,0,1-.28.209.637.637,0,0,1-.124.031.056.056,0,0,1-.017,0,.107.107,0,0,1-.033,0,.527.527,0,0,1-.126-.005.371.371,0,0,1-.092-.023.443.443,0,0,1-.06-.023c-.026-.012-.051-.025-.078-.035s-.074-.035-.112-.05c-.065-.026-.127-.051-.194-.074l-.006,0a.6.6,0,0,1-.381-.606l0-.008.007-.048v0a.608.608,0,0,0-.462-.679.441.441,0,0,0-.068-.013,5.616,5.616,0,0,0-1.216,0,.608.608,0,0,0-.533.658l.005.045a.541.541,0,0,1,.007.089.611.611,0,0,1-.344.551l-.05.02c-.063.023-.125.048-.187.073l-.149.065-.036.016a.6.6,0,0,1-.74-.194l0,0a.613.613,0,0,0-.819-.152l-.055.038a5.487,5.487,0,0,0-.847.847.6.6,0,0,0-.106.556.54.54,0,0,0,.073.161.711.711,0,0,0,.089.109.734.734,0,0,0,.058.048l0,0a.6.6,0,0,1,.194.74q-.085.184-.154.372a.6.6,0,0,1-.121.2.861.861,0,0,1-.1.088.693.693,0,0,1-.121.063.54.54,0,0,1-.088.028.631.631,0,0,1-.228.008.541.541,0,0,0-.089-.007.658.658,0,0,0-.112.01.61.61,0,0,0-.5.533,5.2,5.2,0,0,0,0,1.2.612.612,0,0,0,.5.533.638.638,0,0,0,.2,0,.571.571,0,0,1,.089-.006.625.625,0,0,1,.347.106.6.6,0,0,1,.071.058.579.579,0,0,1,.152.23q.07.189.154.372a.6.6,0,0,1-.137.693c-.018.016-.036.031-.056.046h0l0,0c-.02.015-.04.032-.058.048a.711.711,0,0,0-.089.109.54.54,0,0,0-.073.161c-.005.018-.008.036-.012.054s-.007.036-.008.055a.363.363,0,0,0,0,.061v0c0,.007,0,.012,0,.018a.75.75,0,0,0,.008.086.776.776,0,0,0,.022.083.018.018,0,0,1,0,.008.013.013,0,0,0,0,.008l.01.028c.008.02.018.04.028.059l.007.01.006.012a.538.538,0,0,0,.043.069,5.3,5.3,0,0,0,.847.847.6.6,0,0,0,.435.129.622.622,0,0,0,.154-.035.6.6,0,0,0,.286-.21l.048-.056a.63.63,0,0,1,.238-.157l.209-.036a.6.6,0,0,1,.248.055c.121.058.245.109.369.154a.593.593,0,0,1,.353.346.621.621,0,0,1,.036.316v0a.612.612,0,0,0,.473.687.006.006,0,0,0,.005,0,.357.357,0,0,0,.058.01,5.1,5.1,0,0,0,.6.035,5.444,5.444,0,0,0,.6-.033.6.6,0,0,0,.371-.185.644.644,0,0,0,.1-.132.545.545,0,0,0,.035-.074.616.616,0,0,0,.035-.311.541.541,0,0,1-.007-.089.6.6,0,0,1,.394-.573c.126-.045.248-.1.371-.152l0,0a.6.6,0,0,1,.521.01.7.7,0,0,1,.119.078.387.387,0,0,1,.053.051.376.376,0,0,1,.048.055l0,0a.614.614,0,0,0,.817.155.428.428,0,0,0,.056-.04,5.32,5.32,0,0,0,.849-.849.606.606,0,0,0,.1-.559.823.823,0,0,0-.03-.079.522.522,0,0,0-.043-.078.731.731,0,0,0-.089-.109c-.018-.016-.038-.033-.058-.048l0,0h0c-.02-.015-.038-.03-.056-.046a.605.605,0,0,1-.137-.693,3.978,3.978,0,0,0,.154-.372.609.609,0,0,1,.662-.387.622.622,0,0,0,.412-.082.707.707,0,0,0,.086-.065l.04-.038c.011-.012.021-.025.031-.036a.6.6,0,0,0,.132-.314,5.2,5.2,0,0,0,0-1.2m-2.608.9a.185.185,0,0,0,0,.03c-.007.05-.013.1-.02.146s-.017.1-.03.154c0,0,0,.005,0,.007a2.911,2.911,0,0,1-.079.293c-.018.056-.04.113-.061.169s-.041.1-.065.147-.035.073-.053.107a2.339,2.339,0,0,1-.165.281c-.015.023-.031.048-.048.071a.136.136,0,0,1-.023.032c-.018.026-.038.053-.06.079a1.03,1.03,0,0,1-.078.1,1.987,1.987,0,0,1-.171.186c-.025.026-.051.051-.078.076l-.083.073-.121.1a3.331,3.331,0,0,1-.311.212l-.1.058c-.04.021-.079.041-.121.061s-.076.037-.116.053c-.063.026-.127.051-.194.074a1.107,1.107,0,0,1-.111.036c-.081.025-.162.045-.245.063a.991.991,0,0,1-.122.023,1.061,1.061,0,0,1-.124.018,3.162,3.162,0,0,1-.626.013.979.979,0,0,1-.124-.013,1.061,1.061,0,0,1-.124-.018c-.041-.007-.083-.013-.124-.023a3.146,3.146,0,0,1-.418-.122c-.037-.013-.073-.026-.108-.043a.059.059,0,0,1-.013-.005c-.04-.017-.08-.035-.118-.053l-.013-.007a1.208,1.208,0,0,1-.122-.063,2.521,2.521,0,0,1-.245-.149.009.009,0,0,1-.007,0c-.038-.025-.074-.051-.111-.079s-.066-.05-.1-.076c-.046-.038-.089-.076-.132-.116s-.084-.079-.124-.121-.068-.071-.1-.107a2.894,2.894,0,0,1-.31-.42c-.025-.041-.049-.081-.071-.124a1.534,1.534,0,0,1-.073-.144c-.013-.028-.026-.055-.038-.083a.449.449,0,0,1-.023-.055c-.01-.023-.02-.048-.03-.073s-.023-.063-.033-.1a.269.269,0,0,1-.013-.038c-.013-.04-.026-.079-.036-.121-.018-.06-.033-.121-.046-.182-.008-.036-.015-.074-.021-.111-.012-.07-.021-.139-.03-.21-.01-.1-.015-.2-.015-.3v0c0-.1.005-.2.015-.3,0-.01,0-.02,0-.03.005-.048.011-.1.02-.146s.017-.1.03-.154a.01.01,0,0,1,0-.007q.033-.149.079-.293c.013-.04.028-.081.043-.121s.023-.061.036-.091.017-.041.027-.061.023-.053.036-.079a2.363,2.363,0,0,1,.119-.222l.063-.1a.035.035,0,0,1,.007-.01c.023-.033.045-.066.068-.1s.061-.084.094-.126.066-.081.1-.119.069-.078.106-.116a3.1,3.1,0,0,1,.616-.483l.109-.061c.036-.02.074-.038.113-.056s.071-.035.107-.049a1.926,1.926,0,0,1,.21-.081.938.938,0,0,1,.1-.033l.122-.035a1.153,1.153,0,0,1,.122-.028,3.2,3.2,0,0,1,.247-.041c.041-.005.083-.01.126-.013a3.208,3.208,0,0,1,.5,0,1.048,1.048,0,0,1,.124.013,1.061,1.061,0,0,1,.124.018,1.08,1.08,0,0,1,.124.023,2.57,2.57,0,0,1,.3.083l.083.026a2.808,2.808,0,0,1,.407.184c.043.023.084.046.124.071s.079.048.117.074.076.053.112.081l.017.012.109.086c.035.028.069.058.1.089a2.509,2.509,0,0,1,.21.212c.028.03.053.058.078.089a1.915,1.915,0,0,1,.121.157c.02.027.038.053.056.079a2.315,2.315,0,0,1,.171.288c.021.038.041.078.059.117,0,.008.007.015.01.022.02.041.038.084.055.127,0,.007.005.013.008.02.015.036.028.073.04.111.008.02.015.043.021.064a3.012,3.012,0,0,1,.079.291c.005.03.012.058.017.088.013.076.025.152.033.228.01.1.015.2.015.3s-.005.2-.015.3" transform="translate(-44.125 -152.426)" fill="#156f93"/>
            <rect id="Rectángulo_50649" data-name="Rectángulo 50649" width="15.593" height="15.593" rx="6.25" transform="translate(19.901 74.132)" fill="none" stroke="#94e1eb" stroke-miterlimit="10" stroke-width="1"/>
            <rect id="Rectángulo_50650" data-name="Rectángulo 50650" width="15.593" height="15.593" rx="6.25" transform="translate(177.773 78.661)" fill="none" stroke="#94e1eb" stroke-miterlimit="10" stroke-width="1"/>
            <path id="Trazado_229753" data-name="Trazado 229753" d="M549.562,254.576H539.171a.7.7,0,0,1-.58-1.092l5.2-7.692a.7.7,0,0,1,1.161,0l5.2,7.692A.7.7,0,0,1,549.562,254.576Z" transform="translate(-358.797 -163.572)" fill="none" stroke="#156f93" stroke-miterlimit="10" stroke-width="2"/>
            <path id="Trazado_229754" data-name="Trazado 229754" d="M554.989,255.848h-.26a.332.332,0,0,1-.331-.318l-.181-4.4a.331.331,0,0,1,.331-.345h.622a.332.332,0,0,1,.332.345l-.181,4.4a.332.332,0,0,1-.332.318" transform="translate(-369.289 -167.102)" fill="#156f93"/>
            <path id="Trazado_229755" data-name="Trazado 229755" d="M555.685,267.74a.443.443,0,1,1-.443-.443.443.443,0,0,1,.443.443" transform="translate(-369.677 -178.107)" fill="#156f93"/>
            <path id="Trazado_229756" data-name="Trazado 229756" d="M271.4,38.62h-6.759a2.085,2.085,0,0,1-2.085-2.085V29.776a2.085,2.085,0,0,1,2.085-2.085H271.4a2.085,2.085,0,0,1,2.085,2.085v6.759A2.085,2.085,0,0,1,271.4,38.62" transform="translate(-174.949 -18.451)" fill="#94e1eb"/>
            <path id="Trazado_229757" data-name="Trazado 229757" d="M277.924,49.151A1.021,1.021,0,1,1,276.9,48.13a1.021,1.021,0,0,1,1.021,1.021" transform="translate(-183.828 -32.07)" fill="#156f93"/>
            <path id="Trazado_229758" data-name="Trazado 229758" d="M273.948,40.76a3.467,3.467,0,0,0-2.5,1.063l.7.676a2.492,2.492,0,0,1,3.6,0l.7-.676a3.458,3.458,0,0,0-2.5-1.063" transform="translate(-180.874 -27.159)" fill="#156f93"/>
            <path id="Trazado_229759" data-name="Trazado 229759" d="M270.654,33.886a5.758,5.758,0,0,0-4.147,1.759l.7.675a4.793,4.793,0,0,1,6.9,0l.7-.675a5.75,5.75,0,0,0-4.147-1.759" transform="translate(-177.581 -22.579)" fill="#156f93"/>
          </g>
        </g>
      </g>
    </g>
  </g>
</svg>
