<svg xmlns="http://www.w3.org/2000/svg" width="206.466" height="214.598" viewBox="0 0 206.466 214.598">
  <g id="Grupo_114526" data-name="Grupo 114526" transform="translate(-557.557 -846.589)">
    <path id="Trazado_226041" data-name="Trazado 226041" d="M1619.62,279.317a79.073,79.073,0,1,1,79.073,79.073,79.073,79.073,0,0,1-79.073-79.073" transform="translate(-1037.902 677.263)" fill="#ffe4ae"/>
    <path id="Trazado_226042" data-name="Trazado 226042" d="M2344.326,329.314a1.319,1.319,0,0,1-1.184-.736c-.762-1.548-1.575-3.1-2.416-4.6a1.318,1.318,0,0,1,2.3-1.285c.863,1.547,1.7,3.137,2.479,4.725a1.319,1.319,0,0,1-1.182,1.9" transform="translate(-1592.043 583.667)" fill="#0e5489"/>
    <path id="Trazado_226043" data-name="Trazado 226043" d="M2303.8,487.509a1.318,1.318,0,0,1-1.036-2.132,100.8,100.8,0,0,0,6.451-9.242,1.318,1.318,0,0,1,2.243,1.385,103.384,103.384,0,0,1-6.62,9.485,1.316,1.316,0,0,1-1.038.5m11.978-19.4a1.318,1.318,0,0,1-1.192-1.88,100.141,100.141,0,0,0,4.22-10.45,1.318,1.318,0,0,1,2.5.848,102.883,102.883,0,0,1-4.332,10.726,1.318,1.318,0,0,1-1.193.756m7.336-21.59a1.319,1.319,0,0,1-1.289-1.6,102.149,102.149,0,0,0,1.788-11.132,1.318,1.318,0,0,1,2.622.274,104.771,104.771,0,0,1-1.835,11.42,1.318,1.318,0,0,1-1.286,1.037m2.367-22.682a1.318,1.318,0,0,1-1.318-1.309,100.7,100.7,0,0,0-.709-11.248,1.318,1.318,0,0,1,2.617-.314,103.422,103.422,0,0,1,.728,11.543,1.318,1.318,0,0,1-1.309,1.327h-.009M2322.77,401.2a1.318,1.318,0,0,1-1.281-1.015,100.249,100.249,0,0,0-3.208-10.8,1.318,1.318,0,0,1,2.48-.891,102.932,102.932,0,0,1,3.292,11.088,1.319,1.319,0,0,1-1.283,1.621" transform="translate(-1562.78 533.242)" fill="#0e5489"/>
    <path id="Trazado_226044" data-name="Trazado 226044" d="M2254.75,851.414a1.318,1.318,0,0,1-.891-2.289c1.273-1.167,2.532-2.382,3.742-3.611a1.318,1.318,0,1,1,1.878,1.849c-1.241,1.261-2.533,2.508-3.84,3.705a1.312,1.312,0,0,1-.89.346" transform="translate(-1525.073 181.587)" fill="#0e5489"/>
    <path id="Trazado_226045" data-name="Trazado 226045" d="M1628.019,831.681a1.313,1.313,0,0,1-.95-.4c-1.228-1.276-2.439-2.6-3.6-3.939a1.318,1.318,0,0,1,1.99-1.728c1.132,1.3,2.313,2.6,3.51,3.839a1.318,1.318,0,0,1-.949,2.232" transform="translate(-1040.611 196.932)" fill="#0e5489"/>
    <path id="Trazado_226046" data-name="Trazado 226046" d="M1535.513,584.052a1.316,1.316,0,0,1-1.073-.551c-1.888-2.64-3.672-5.4-5.3-8.2a1.318,1.318,0,1,1,2.279-1.325c1.588,2.731,3.326,5.421,5.166,7.993a1.318,1.318,0,0,1-1.071,2.085m-9.682-16.651a1.318,1.318,0,0,1-1.2-.766c-1.359-2.948-2.593-5.993-3.665-9.052a1.318,1.318,0,0,1,2.487-.872c1.045,2.98,2.247,5.948,3.572,8.82a1.319,1.319,0,0,1-1.2,1.87m-6.374-18.174a1.318,1.318,0,0,1-1.278-1c-.777-3.149-1.412-6.372-1.886-9.581a1.318,1.318,0,1,1,2.607-.385c.462,3.126,1.08,6.267,1.838,9.335a1.32,1.32,0,0,1-1.28,1.634m-2.815-19.049a1.318,1.318,0,0,1-1.315-1.25c-.091-1.763-.137-3.554-.137-5.324,0-1.473.032-2.967.1-4.442a1.318,1.318,0,0,1,2.633.113c-.062,1.437-.093,2.894-.093,4.329,0,1.725.045,3.471.134,5.188a1.318,1.318,0,0,1-1.248,1.384l-.069,0" transform="translate(-957.633 433.101)" fill="#0e5489"/>
    <path id="Trazado_226047" data-name="Trazado 226047" d="M1520.65,461.632a1.319,1.319,0,0,1-1.307-1.5c.241-1.756.53-3.529.859-5.269a1.318,1.318,0,0,1,2.59.491c-.321,1.7-.6,3.424-.838,5.136a1.318,1.318,0,0,1-1.3,1.139" transform="translate(-960.815 482.375)" fill="#0e5489"/>
    <path id="Trazado_226048" data-name="Trazado 226048" d="M1597.8,193.094l-34.93-30.649,34.93-29.529,34.93,29.529Z" transform="translate(-994.282 729.015)" fill="#fff"/>
    <path id="Trazado_226049" data-name="Trazado 226049" d="M1593.423,190.034a1.315,1.315,0,0,1-.869-.327l-34.93-30.649a1.318,1.318,0,0,1,.018-2l34.931-29.529a1.318,1.318,0,0,1,1.7,0L1629.2,157.06a1.318,1.318,0,0,1,.018,2l-34.93,30.649a1.315,1.315,0,0,1-.869.327m-32.911-31.949,32.911,28.877,32.911-28.877-32.911-27.822Z" transform="translate(-989.904 733.393)" fill="#0e5489"/>
    <path id="Trazado_226050" data-name="Trazado 226050" d="M1581.51,335.2a1.315,1.315,0,0,1-.869-.327l-38.516-33.8a1.318,1.318,0,0,1,.018-2l5.833-4.931a1.318,1.318,0,0,1,1.7,2.013l-4.664,3.943,36.5,32.024,36.5-32.024-4.874-4.12a1.318,1.318,0,0,1,1.7-2.013l6.042,5.108a1.318,1.318,0,0,1,.019,2l-38.516,33.8a1.316,1.316,0,0,1-.869.327" transform="translate(-977.991 605.463)" fill="#0e5489"/>
    <path id="Trazado_226051" data-name="Trazado 226051" d="M1581.51,408.912a1.315,1.315,0,0,1-.869-.327l-38.516-33.8a1.318,1.318,0,0,1,.018-2l5.833-4.931a1.318,1.318,0,1,1,1.7,2.013l-4.664,3.943,36.5,32.024,36.5-32.024-4.874-4.12a1.318,1.318,0,0,1,1.7-2.013l6.042,5.108a1.318,1.318,0,0,1,.019,2l-38.516,33.8a1.315,1.315,0,0,1-.869.327" transform="translate(-977.991 548.802)" fill="#0e5489"/>
    <path id="Trazado_226052" data-name="Trazado 226052" d="M1617.067,125.428h3.317a.86.86,0,0,1,.817.609,17.411,17.411,0,0,0,1.137,2.742.86.86,0,0,1-.147,1.008l-2.346,2.346a1.606,1.606,0,0,0,0,2.272l4.377,4.378a1.607,1.607,0,0,0,2.272,0l2.346-2.346a.861.861,0,0,1,1.009-.147,17.4,17.4,0,0,0,2.742,1.137.86.86,0,0,1,.609.816v3.317a1.607,1.607,0,0,0,1.607,1.607H1641a1.607,1.607,0,0,0,1.607-1.607v-3.317a.86.86,0,0,1,.609-.816,17.412,17.412,0,0,0,2.742-1.137.86.86,0,0,1,1.008.147l2.346,2.346a1.607,1.607,0,0,0,2.272,0l4.378-4.378a1.607,1.607,0,0,0,0-2.272l-2.346-2.346a.86.86,0,0,1-.147-1.008,17.422,17.422,0,0,0,1.136-2.742.86.86,0,0,1,.817-.609h3.317a1.607,1.607,0,0,0,1.607-1.607V117.63a1.607,1.607,0,0,0-1.607-1.607h-3.317a.86.86,0,0,1-.817-.609,17.414,17.414,0,0,0-1.136-2.742.86.86,0,0,1,.147-1.008l2.346-2.346a1.607,1.607,0,0,0,0-2.272l-4.378-4.378a1.607,1.607,0,0,0-2.272,0l-2.346,2.346a.861.861,0,0,1-1.009.147,17.4,17.4,0,0,0-2.742-1.137.86.86,0,0,1-.609-.816V99.891A1.607,1.607,0,0,0,1641,98.284h-6.191a1.607,1.607,0,0,0-1.607,1.607v3.317a.86.86,0,0,1-.609.816,17.4,17.4,0,0,0-2.742,1.137.861.861,0,0,1-1.009-.147l-2.346-2.346a1.607,1.607,0,0,0-2.272,0l-4.377,4.378a1.606,1.606,0,0,0,0,2.272l2.346,2.346a.86.86,0,0,1,.147,1.008,17.4,17.4,0,0,0-1.137,2.742.86.86,0,0,1-.817.609h-3.317a1.607,1.607,0,0,0-1.607,1.607v6.191a1.607,1.607,0,0,0,1.607,1.607m12.072-4.7a8.763,8.763,0,1,1,8.763,8.763,8.763,8.763,0,0,1-8.763-8.763" transform="translate(-1034.704 755.634)" fill="#ffd576"/>
    <path id="Trazado_226053" data-name="Trazado 226053" d="M1636.619,140.107h-6.191a2.928,2.928,0,0,1-2.925-2.925V134.2a18.822,18.822,0,0,1-2.349-.973l-2.107,2.107a3,3,0,0,1-4.136,0l-4.378-4.377a2.928,2.928,0,0,1,0-4.136l2.107-2.107a18.769,18.769,0,0,1-.974-2.349h-2.979a2.928,2.928,0,0,1-2.925-2.925v-6.191a2.928,2.928,0,0,1,2.925-2.925h2.979a18.768,18.768,0,0,1,.974-2.349l-2.107-2.107a2.928,2.928,0,0,1,0-4.136l4.378-4.377a3,3,0,0,1,4.136,0l2.107,2.107a18.858,18.858,0,0,1,2.349-.974V95.512a2.928,2.928,0,0,1,2.925-2.925h6.191a2.928,2.928,0,0,1,2.925,2.925v2.979a18.8,18.8,0,0,1,2.349.973L1644,97.357a3,3,0,0,1,4.136,0l4.378,4.377a2.928,2.928,0,0,1,0,4.136l-2.107,2.107a18.787,18.787,0,0,1,.974,2.349h2.979a2.928,2.928,0,0,1,2.925,2.925v6.191a2.928,2.928,0,0,1-2.925,2.925h-2.979a18.788,18.788,0,0,1-.974,2.349l2.107,2.107a2.928,2.928,0,0,1,0,4.136l-4.378,4.377a3,3,0,0,1-4.136,0l-2.107-2.107a18.823,18.823,0,0,1-2.349.973v2.979a2.928,2.928,0,0,1-2.925,2.925m-11.558-9.614a2.207,2.207,0,0,1,1.016.249,16.122,16.122,0,0,0,2.535,1.051,2.173,2.173,0,0,1,1.528,2.073v3.317a.289.289,0,0,0,.289.289h6.191a.289.289,0,0,0,.289-.289v-3.317a2.173,2.173,0,0,1,1.528-2.073,16.122,16.122,0,0,0,2.535-1.051,2.173,2.173,0,0,1,2.547.385l2.346,2.346a.251.251,0,0,0,.409,0l4.377-4.377a.289.289,0,0,0,0-.409l-2.346-2.346a2.173,2.173,0,0,1-.385-2.547,16.144,16.144,0,0,0,1.051-2.535,2.173,2.173,0,0,1,2.073-1.528h3.317a.289.289,0,0,0,.289-.289v-6.191a.289.289,0,0,0-.289-.289h-3.317a2.173,2.173,0,0,1-2.073-1.528,16.148,16.148,0,0,0-1.051-2.535,2.173,2.173,0,0,1,.385-2.547l2.346-2.346a.289.289,0,0,0,0-.409l-4.378-4.378a.251.251,0,0,0-.408,0l-2.346,2.346a2.172,2.172,0,0,1-2.547.385,16.137,16.137,0,0,0-2.535-1.05,2.173,2.173,0,0,1-1.528-2.073V95.512a.289.289,0,0,0-.289-.289h-6.191a.289.289,0,0,0-.289.289v3.317a2.173,2.173,0,0,1-1.528,2.073,16.139,16.139,0,0,0-2.535,1.05,2.172,2.172,0,0,1-2.547-.385l-2.346-2.346a.252.252,0,0,0-.409,0L1616.4,103.6a.289.289,0,0,0,0,.409l2.346,2.346a2.173,2.173,0,0,1,.385,2.547,16.12,16.12,0,0,0-1.051,2.535,2.173,2.173,0,0,1-2.073,1.528h-3.317a.289.289,0,0,0-.289.289v6.191a.289.289,0,0,0,.289.289h3.317a2.173,2.173,0,0,1,2.073,1.528,16.132,16.132,0,0,0,1.051,2.535,2.173,2.173,0,0,1-.385,2.547l-2.346,2.346a.289.289,0,0,0,0,.409l4.377,4.378a.252.252,0,0,0,.409,0l2.346-2.346a2.16,2.16,0,0,1,1.531-.634m-9.055-8.126h0Zm17.518,4.061a10.081,10.081,0,1,1,10.081-10.081,10.092,10.092,0,0,1-10.081,10.081m0-17.526a7.445,7.445,0,1,0,7.445,7.445,7.454,7.454,0,0,0-7.445-7.445" transform="translate(-1030.326 760.013)" fill="#0e5489"/>
    <path id="Trazado_226054" data-name="Trazado 226054" d="M1925.912,79.972a1.318,1.318,0,0,1-1.318-1.318V71.788l-.408.528A1.318,1.318,0,1,1,1922.1,70.7l2.768-3.584a1.318,1.318,0,0,1,2.361.806V78.654a1.318,1.318,0,0,1-1.318,1.318" transform="translate(-1270.189 779.98)" fill="#0e5489"/>
    <path id="Trazado_226055" data-name="Trazado 226055" d="M1928.685,115.61h-5.541a1.318,1.318,0,0,1,0-2.636h5.541a1.318,1.318,0,0,1,0,2.636" transform="translate(-1270.189 744.342)" fill="#0e5489"/>
    <path id="Trazado_226056" data-name="Trazado 226056" d="M1981.11,80.337a1.318,1.318,0,0,1-1.318-1.318V72.153l-.407.528a1.318,1.318,0,0,1-2.086-1.611l2.768-3.584a1.318,1.318,0,0,1,2.361.806V79.019a1.318,1.318,0,0,1-1.318,1.318" transform="translate(-1312.615 779.7)" fill="#0e5489"/>
    <path id="Trazado_226057" data-name="Trazado 226057" d="M1983.883,115.976h-5.541a1.318,1.318,0,0,1,0-2.636h5.541a1.318,1.318,0,1,1,0,2.636" transform="translate(-1312.616 744.061)" fill="#0e5489"/>
    <path id="Trazado_226058" data-name="Trazado 226058" d="M2036.228,80.337a1.318,1.318,0,0,1-1.318-1.318V72.153l-.407.528a1.318,1.318,0,0,1-2.086-1.611l2.768-3.584a1.318,1.318,0,0,1,2.361.806V79.019a1.318,1.318,0,0,1-1.318,1.318" transform="translate(-1354.981 779.7)" fill="#0e5489"/>
    <path id="Trazado_226059" data-name="Trazado 226059" d="M2039,115.976h-5.541a1.318,1.318,0,0,1,0-2.636H2039a1.318,1.318,0,1,1,0,2.636" transform="translate(-1354.982 744.061)" fill="#0e5489"/>
    <path id="Trazado_226060" data-name="Trazado 226060" d="M1872.518,80.009a4.155,4.155,0,0,1-.795-.077,3.93,3.93,0,0,1-2.08-1.139,4.338,4.338,0,0,1-1.2-2.989V70.735a4.091,4.091,0,0,1,4.9-4.009,4.155,4.155,0,0,1,3.277,4.128v5.068a4.109,4.109,0,0,1-4.1,4.087m.017-10.727a1.452,1.452,0,0,0-1.453,1.452V75.8a1.677,1.677,0,0,0,.458,1.158,1.312,1.312,0,0,0,.688.383,1.473,1.473,0,0,0,1.759-1.423V70.854a1.538,1.538,0,0,0-1.147-1.542,1.594,1.594,0,0,0-.306-.03" transform="translate(-1229.159 779.951)" fill="#0e5489"/>
    <path id="Trazado_226061" data-name="Trazado 226061" d="M1925.912,148.424a1.318,1.318,0,0,1-1.318-1.318V140.24l-.408.528a1.318,1.318,0,1,1-2.086-1.611l2.768-3.584a1.318,1.318,0,0,1,2.361.806v10.727a1.318,1.318,0,0,1-1.318,1.318" transform="translate(-1270.189 727.365)" fill="#0e5489"/>
    <path id="Trazado_226062" data-name="Trazado 226062" d="M1928.685,184.063h-5.541a1.318,1.318,0,0,1,0-2.636h5.541a1.318,1.318,0,0,1,0,2.636" transform="translate(-1270.189 691.727)" fill="#0e5489"/>
    <path id="Trazado_226063" data-name="Trazado 226063" d="M1981.11,148.789a1.318,1.318,0,0,1-1.318-1.318v-6.865l-.407.528a1.318,1.318,0,0,1-2.086-1.611l2.768-3.584a1.318,1.318,0,0,1,2.361.806v10.727a1.318,1.318,0,0,1-1.318,1.318" transform="translate(-1312.615 727.085)" fill="#0e5489"/>
    <path id="Trazado_226064" data-name="Trazado 226064" d="M1983.883,184.428h-5.541a1.318,1.318,0,0,1,0-2.636h5.541a1.318,1.318,0,1,1,0,2.636" transform="translate(-1312.616 691.446)" fill="#0e5489"/>
    <path id="Trazado_226065" data-name="Trazado 226065" d="M1872.518,148.461a4.156,4.156,0,0,1-.8-.077,3.93,3.93,0,0,1-2.08-1.139,4.338,4.338,0,0,1-1.2-2.989v-5.069a4.091,4.091,0,0,1,4.9-4.009,4.155,4.155,0,0,1,3.277,4.128v5.068a4.109,4.109,0,0,1-4.1,4.087m.016-10.727a1.435,1.435,0,0,0-.923.33,1.45,1.45,0,0,0-.53,1.122v5.069a1.677,1.677,0,0,0,.458,1.158,1.31,1.31,0,0,0,.688.383,1.473,1.473,0,0,0,1.759-1.422v-5.068a1.538,1.538,0,0,0-1.147-1.542,1.594,1.594,0,0,0-.306-.03" transform="translate(-1229.159 727.336)" fill="#0e5489"/>
    <path id="Trazado_226066" data-name="Trazado 226066" d="M2036.208,148.461a4.153,4.153,0,0,1-.795-.077,3.928,3.928,0,0,1-2.08-1.139,4.337,4.337,0,0,1-1.2-2.989v-5.069a4.091,4.091,0,0,1,4.9-4.009,4.155,4.155,0,0,1,3.277,4.128v5.068a4.109,4.109,0,0,1-4.1,4.087m.016-10.727a1.452,1.452,0,0,0-1.453,1.452v5.069a1.677,1.677,0,0,0,.458,1.158,1.312,1.312,0,0,0,.689.383,1.473,1.473,0,0,0,1.759-1.422v-5.068a1.538,1.538,0,0,0-1.147-1.542,1.6,1.6,0,0,0-.306-.03" transform="translate(-1354.978 727.336)" fill="#0e5489"/>
    <path id="Trazado_226067" data-name="Trazado 226067" d="M2275.532,517.71a1.318,1.318,0,0,1-1.318-1.318v-6.865l-.408.527a1.318,1.318,0,1,1-2.086-1.611l2.768-3.584a1.318,1.318,0,0,1,2.361.806v10.727a1.318,1.318,0,0,1-1.318,1.318" transform="translate(-1538.92 443.519)" fill="#0e5489"/>
    <path id="Trazado_226068" data-name="Trazado 226068" d="M2278.306,553.349h-5.541a1.318,1.318,0,1,1,0-2.636h5.541a1.318,1.318,0,0,1,0,2.636" transform="translate(-1538.921 407.879)" fill="#0e5489"/>
    <path id="Trazado_226069" data-name="Trazado 226069" d="M2329.436,445.072a1.318,1.318,0,0,1-1.318-1.318v-6.865l-.408.527a1.318,1.318,0,1,1-2.086-1.611l2.768-3.584a1.318,1.318,0,0,1,2.361.806v10.727a1.318,1.318,0,0,1-1.318,1.318" transform="translate(-1580.353 499.351)" fill="#0e5489"/>
    <path id="Trazado_226070" data-name="Trazado 226070" d="M2332.209,480.711h-5.541a1.318,1.318,0,1,1,0-2.636h5.541a1.318,1.318,0,0,1,0,2.636" transform="translate(-1580.353 463.712)" fill="#0e5489"/>
    <path id="Trazado_226071" data-name="Trazado 226071" d="M2329.927,516.5a1.318,1.318,0,0,1-1.318-1.318v-6.865l-.407.527a1.318,1.318,0,1,1-2.086-1.611l2.768-3.584a1.318,1.318,0,0,1,2.361.806v10.727a1.318,1.318,0,0,1-1.318,1.318" transform="translate(-1580.73 444.444)" fill="#0e5489"/>
    <path id="Trazado_226072" data-name="Trazado 226072" d="M2332.7,552.144h-5.541a1.318,1.318,0,1,1,0-2.636h5.541a1.318,1.318,0,1,1,0,2.636" transform="translate(-1580.731 408.806)" fill="#0e5489"/>
    <path id="Trazado_226073" data-name="Trazado 226073" d="M2167.343,443.977a1.318,1.318,0,0,1-1.318-1.318v-6.865l-.408.528a1.318,1.318,0,1,1-2.086-1.611l2.769-3.584a1.318,1.318,0,0,1,2.361.806v10.727a1.318,1.318,0,0,1-1.318,1.318" transform="translate(-1455.761 500.192)" fill="#0e5489"/>
    <path id="Trazado_226074" data-name="Trazado 226074" d="M2170.116,479.616h-5.541a1.318,1.318,0,1,1,0-2.636h5.541a1.318,1.318,0,1,1,0,2.636" transform="translate(-1455.762 464.553)" fill="#0e5489"/>
    <path id="Trazado_226075" data-name="Trazado 226075" d="M2218.342,443.978a4.153,4.153,0,0,1-.8-.077,3.93,3.93,0,0,1-2.08-1.139,4.337,4.337,0,0,1-1.2-2.989V434.7a4.091,4.091,0,0,1,4.9-4.009,4.155,4.155,0,0,1,3.277,4.128v5.068a4.109,4.109,0,0,1-4.1,4.087m.016-10.727a1.452,1.452,0,0,0-1.453,1.452v5.069a1.678,1.678,0,0,0,.458,1.158,1.314,1.314,0,0,0,.689.383,1.473,1.473,0,0,0,1.759-1.423v-5.068a1.538,1.538,0,0,0-1.146-1.542,1.6,1.6,0,0,0-.306-.03" transform="translate(-1494.972 500.19)" fill="#0e5489"/>
    <path id="Trazado_226076" data-name="Trazado 226076" d="M2275.228,443.978a4.156,4.156,0,0,1-.8-.077,3.93,3.93,0,0,1-2.08-1.139,4.337,4.337,0,0,1-1.2-2.989V434.7a4.091,4.091,0,0,1,4.9-4.009,4.155,4.155,0,0,1,3.277,4.128v5.068a4.109,4.109,0,0,1-4.1,4.087m.016-10.727a1.453,1.453,0,0,0-1.453,1.452v5.069a1.678,1.678,0,0,0,.458,1.158,1.313,1.313,0,0,0,.689.383,1.473,1.473,0,0,0,1.759-1.423v-5.068a1.538,1.538,0,0,0-1.146-1.542,1.6,1.6,0,0,0-.306-.03" transform="translate(-1538.696 500.19)" fill="#0e5489"/>
    <path id="Trazado_226077" data-name="Trazado 226077" d="M2167.329,517.712a4.153,4.153,0,0,1-.795-.077,3.931,3.931,0,0,1-2.08-1.139,4.336,4.336,0,0,1-1.2-2.989v-5.069a4.091,4.091,0,0,1,4.9-4.009,4.155,4.155,0,0,1,3.277,4.128v5.068a4.109,4.109,0,0,1-4.1,4.087m.016-10.727a1.452,1.452,0,0,0-1.453,1.453v5.069a1.679,1.679,0,0,0,.458,1.158,1.314,1.314,0,0,0,.689.383,1.473,1.473,0,0,0,1.759-1.422v-5.068a1.538,1.538,0,0,0-1.146-1.542,1.6,1.6,0,0,0-.306-.03" transform="translate(-1455.762 443.516)" fill="#0e5489"/>
    <path id="Trazado_226078" data-name="Trazado 226078" d="M2220.343,517.549a4.156,4.156,0,0,1-.8-.077,3.928,3.928,0,0,1-2.08-1.139,4.337,4.337,0,0,1-1.2-2.989v-5.069a4.091,4.091,0,0,1,4.9-4.009,4.155,4.155,0,0,1,3.277,4.128v5.069a4.109,4.109,0,0,1-4.1,4.087m.016-10.727a1.452,1.452,0,0,0-1.453,1.452v5.069a1.676,1.676,0,0,0,.458,1.158,1.31,1.31,0,0,0,.689.383,1.473,1.473,0,0,0,1.759-1.422v-5.069a1.538,1.538,0,0,0-1.146-1.541,1.594,1.594,0,0,0-.306-.03" transform="translate(-1496.51 443.641)" fill="#0e5489"/>
    <path id="Trazado_226079" data-name="Trazado 226079" d="M2009.451,225.078h-31.645a1.318,1.318,0,1,1,0-2.636h30.327v-74.3a1.318,1.318,0,0,1,1.318-1.318h31.7a1.318,1.318,0,0,1,0,2.636h-30.386v74.3a1.318,1.318,0,0,1-1.318,1.318" transform="translate(-1312.204 718.321)" fill="#0e5489"/>
    <path id="Trazado_226080" data-name="Trazado 226080" d="M2255.993,138.758a4.131,4.131,0,1,0,4.132-4.144,4.138,4.138,0,0,0-4.132,4.144" transform="translate(-1527.042 727.709)" fill="#fff"/>
    <path id="Trazado_226081" data-name="Trazado 226081" d="M2255.747,139.841a5.462,5.462,0,1,1,5.449-5.462,5.462,5.462,0,0,1-5.449,5.462m0-8.287a2.826,2.826,0,1,0,2.813,2.826,2.823,2.823,0,0,0-2.813-2.826" transform="translate(-1522.664 732.087)" fill="#0e5489"/>
    <path id="Trazado_226082" data-name="Trazado 226082" d="M1954.734,465.584a4.131,4.131,0,1,0-4.132,4.144,4.138,4.138,0,0,0,4.132-4.144" transform="translate(-1289.132 476.498)" fill="#fff"/>
    <path id="Trazado_226083" data-name="Trazado 226083" d="M1946.224,466.668a5.461,5.461,0,1,1,5.449-5.461,5.461,5.461,0,0,1-5.449,5.461m0-8.287a2.826,2.826,0,1,0,2.813,2.826,2.823,2.823,0,0,0-2.813-2.826" transform="translate(-1284.754 480.875)" fill="#0e5489"/>
    <path id="Trazado_226084" data-name="Trazado 226084" d="M2068.147,241.513a22.577,22.577,0,1,0-22.577,22.577,22.577,22.577,0,0,0,22.577-22.577" transform="translate(-1347.95 662.896)" fill="#abf5ff"/>
    <path id="Trazado_226085" data-name="Trazado 226085" d="M2041.192,261.031a23.9,23.9,0,1,1,23.895-23.9,23.922,23.922,0,0,1-23.895,23.9m0-45.154a21.259,21.259,0,1,0,21.259,21.259,21.284,21.284,0,0,0-21.259-21.259" transform="translate(-1343.571 667.273)" fill="#0e5489"/>
    <path id="Trazado_226086" data-name="Trazado 226086" d="M2145.832,297.491a1.318,1.318,0,0,1-.844-2.331l6.276-5.223-6.275-5.223a1.318,1.318,0,0,1,1.686-2.026l7.493,6.236a1.318,1.318,0,0,1,0,2.026l-7.493,6.236a1.313,1.313,0,0,1-.843.3" transform="translate(-1441.355 614.127)" fill="#0e5489"/>
    <path id="Trazado_226087" data-name="Trazado 226087" d="M2058.2,297.491a1.314,1.314,0,0,1-.843-.3l-7.493-6.236a1.318,1.318,0,0,1,0-2.026l7.493-6.236a1.318,1.318,0,0,1,1.687,2.026l-6.276,5.223,6.276,5.223a1.318,1.318,0,0,1-.844,2.331" transform="translate(-1368.238 614.127)" fill="#0e5489"/>
    <path id="Trazado_226088" data-name="Trazado 226088" d="M2104.376,292.479a1.319,1.319,0,0,1-1.281-1.631l4.139-16.924a1.318,1.318,0,0,1,2.56.626l-4.139,16.925a1.319,1.319,0,0,1-1.279,1.005" transform="translate(-1409.49 621.403)" fill="#0e5489"/>
    <path id="Trazado_226089" data-name="Trazado 226089" d="M1913.741,352.782a1.319,1.319,0,0,1-1.2-1.858l10.536-23.474a1.318,1.318,0,0,1,1.2-.778,1.363,1.363,0,0,1,1.2.777l10.573,23.474a1.318,1.318,0,1,1-2.4,1.083l-9.37-20.8-9.336,20.8a1.318,1.318,0,0,1-1.2.779" transform="translate(-1262.962 580.086)" fill="#0e5489"/>
    <path id="Trazado_226090" data-name="Trazado 226090" d="M1942.619,396.507h-13.5a1.318,1.318,0,1,1,0-2.636h13.5a1.318,1.318,0,0,1,0,2.636" transform="translate(-1274.783 528.434)" fill="#0e5489"/>
    <path id="Trazado_226091" data-name="Trazado 226091" d="M2247.7,207.074h-9.57a1.318,1.318,0,0,1-1.318-1.318V195.276a1.318,1.318,0,0,1,1.318-1.318h9.57a6.381,6.381,0,0,1,6.374,6.373v.37a6.381,6.381,0,0,1-6.374,6.373m-8.252-2.636h8.252a3.742,3.742,0,0,0,3.738-3.738v-.37a3.742,3.742,0,0,0-3.738-3.738h-8.252Z" transform="translate(-1512.301 682.095)" fill="#0e5489"/>
    <path id="Trazado_226092" data-name="Trazado 226092" d="M2248.542,253.976h-10.408a1.318,1.318,0,0,1-1.318-1.318V240.575a1.318,1.318,0,0,1,1.318-1.318h10.408a7.155,7.155,0,0,1,7.146,7.146v.426a7.154,7.154,0,0,1-7.146,7.146m-9.091-2.636h9.091a4.516,4.516,0,0,0,4.51-4.51V246.4a4.515,4.515,0,0,0-4.51-4.51h-9.091Z" transform="translate(-1512.301 647.276)" fill="#0e5489"/>
    <path id="Trazado_226093" data-name="Trazado 226093" d="M1808.97,685.456H1689.3a1.992,1.992,0,0,1-1.991-1.993V596.245a1.992,1.992,0,0,1,1.991-1.993H1808.97a1.992,1.992,0,0,1,1.991,1.993v87.217a1.992,1.992,0,0,1-1.991,1.993" transform="translate(-1089.929 374.413)" fill="#fff"/>
    <path id="Trazado_226094" data-name="Trazado 226094" d="M1804.592,682.394H1684.92a3.314,3.314,0,0,1-3.309-3.311V591.866a3.314,3.314,0,0,1,3.309-3.311h119.672a3.314,3.314,0,0,1,3.309,3.311v87.217a3.314,3.314,0,0,1-3.309,3.311m-119.672-91.2a.675.675,0,0,0-.673.675v87.217a.675.675,0,0,0,.673.675h119.672a.675.675,0,0,0,.673-.675V591.866a.675.675,0,0,0-.673-.675Z" transform="translate(-1085.551 378.792)" fill="#0e5489"/>
    <line id="Línea_1986" data-name="Línea 1986" x2="122.66" transform="translate(597.378 984.632)" fill="#fff"/>
    <path id="Trazado_226095" data-name="Trazado 226095" d="M1805.589,660.2h-122.66a1.318,1.318,0,0,1,0-2.636h122.66a1.318,1.318,0,1,1,0,2.636" transform="translate(-1085.551 325.747)" fill="#0e5489"/>
    <path id="Trazado_226096" data-name="Trazado 226096" d="M2174.513,615.269h-1.938a.284.284,0,0,0-.216.1l-1.119,1.311a.284.284,0,0,1-.432,0l-1.118-1.311a.285.285,0,0,0-.216-.1h-1.938a.285.285,0,0,0-.216.47l2.2,2.583a.285.285,0,0,1,0,.37l-2.236,2.62a.285.285,0,0,0,.221.47l1.968-.035a.283.283,0,0,0,.211-.1l1.121-1.313a.284.284,0,0,1,.432,0l1.119,1.311a.284.284,0,0,0,.216.1h1.938a.285.285,0,0,0,.216-.47l-2.2-2.582a.284.284,0,0,1,0-.37l2.2-2.583a.285.285,0,0,0-.216-.47" transform="translate(-1458.807 358.259)" fill="#0e5489"/>
    <path id="Trazado_226097" data-name="Trazado 226097" d="M1900.883,623.445h-67.447a2.331,2.331,0,0,1-2.331-2.331v-.964a2.331,2.331,0,0,1,2.331-2.331h67.447a2.331,2.331,0,0,1,2.331,2.331v.964a2.331,2.331,0,0,1-2.331,2.331" transform="translate(-1200.457 356.298)" fill="#abf5ff"/>
    <path id="Trazado_226098" data-name="Trazado 226098" d="M1896.5,620.385h-67.447a3.653,3.653,0,0,1-3.649-3.649v-.964a3.653,3.653,0,0,1,3.649-3.649H1896.5a3.653,3.653,0,0,1,3.649,3.649v.964a3.653,3.653,0,0,1-3.649,3.649m-67.447-5.625a1.014,1.014,0,0,0-1.013,1.013v.964a1.014,1.014,0,0,0,1.013,1.013H1896.5a1.014,1.014,0,0,0,1.013-1.013v-.964a1.014,1.014,0,0,0-1.013-1.013Z" transform="translate(-1196.079 360.677)" fill="#0e5489"/>
    <path id="Trazado_226099" data-name="Trazado 226099" d="M1712.948,622.4a1.758,1.758,0,1,1-1.758-1.757,1.757,1.757,0,0,1,1.758,1.757" transform="translate(-1106.935 354.124)" fill="#0e5489"/>
    <path id="Trazado_226100" data-name="Trazado 226100" d="M1750.421,622.4a1.758,1.758,0,1,1-1.758-1.757,1.757,1.757,0,0,1,1.758,1.757" transform="translate(-1135.738 354.124)" fill="#0e5489"/>
    <path id="Trazado_226101" data-name="Trazado 226101" d="M1789.7,622.4a1.758,1.758,0,1,1-1.758-1.757,1.758,1.758,0,0,1,1.758,1.757" transform="translate(-1165.932 354.124)" fill="#0e5489"/>
    <path id="Trazado_226102" data-name="Trazado 226102" d="M1907.586,706.459v1.366a.665.665,0,0,0,.665.665h11.884a1.506,1.506,0,0,1,1.505,1.506v11.7a1.506,1.506,0,0,1-1.505,1.506h-19.325a1.506,1.506,0,0,1-1.5-1.506V706.459a.879.879,0,0,1,.878-.879h6.524a.879.879,0,0,1,.878.879" transform="translate(-1252.879 288.843)" fill="#abf5ff"/>
    <path id="Trazado_226103" data-name="Trazado 226103" d="M1915.758,720.142h-19.325a2.827,2.827,0,0,1-2.823-2.824V702.081a2.2,2.2,0,0,1,2.2-2.2h6.524a2.2,2.2,0,0,1,2.2,2.2v.713h11.231a2.827,2.827,0,0,1,2.823,2.824v11.7a2.827,2.827,0,0,1-2.823,2.824m-19.512-17.622v14.8a.188.188,0,0,0,.187.189h19.325a.188.188,0,0,0,.187-.189v-11.7a.188.188,0,0,0-.187-.189h-11.884a1.985,1.985,0,0,1-1.983-1.983v-.927Z" transform="translate(-1248.501 293.221)" fill="#0e5489"/>
    <path id="Trazado_226104" data-name="Trazado 226104" d="M2048.961,865.242v1.366a.665.665,0,0,0,.665.665h11.885a1.505,1.505,0,0,1,1.5,1.506v11.7a1.506,1.506,0,0,1-1.5,1.506h-19.325a1.506,1.506,0,0,1-1.505-1.506V865.242a.879.879,0,0,1,.878-.879h6.524a.879.879,0,0,1,.878.879" transform="translate(-1361.545 166.796)" fill="#ffd576"/>
    <path id="Trazado_226105" data-name="Trazado 226105" d="M2057.133,878.925h-19.325a2.827,2.827,0,0,1-2.823-2.824V860.864a2.2,2.2,0,0,1,2.2-2.2h6.524a2.2,2.2,0,0,1,2.2,2.2v.713h11.231a2.827,2.827,0,0,1,2.823,2.824v11.7a2.827,2.827,0,0,1-2.823,2.824M2037.621,861.3v14.8a.188.188,0,0,0,.187.189h19.325a.188.188,0,0,0,.187-.189V864.4a.188.188,0,0,0-.187-.189h-11.885a1.985,1.985,0,0,1-1.983-1.983V861.3Z" transform="translate(-1357.167 171.174)" fill="#0e5489"/>
    <path id="Trazado_226106" data-name="Trazado 226106" d="M1910.729,865.242v1.366a.665.665,0,0,0,.665.665h11.885a1.506,1.506,0,0,1,1.505,1.506v11.7a1.506,1.506,0,0,1-1.505,1.506h-19.325a1.506,1.506,0,0,1-1.505-1.506V865.242a.879.879,0,0,1,.878-.879h6.524a.879.879,0,0,1,.878.879" transform="translate(-1255.294 166.796)" fill="#ffd576"/>
    <path id="Trazado_226107" data-name="Trazado 226107" d="M1918.9,878.925h-19.325a2.827,2.827,0,0,1-2.823-2.824V860.864a2.2,2.2,0,0,1,2.2-2.2h6.524a2.2,2.2,0,0,1,2.2,2.2v.713H1918.9a2.827,2.827,0,0,1,2.823,2.824v11.7a2.827,2.827,0,0,1-2.823,2.824M1899.388,861.3v14.8a.188.188,0,0,0,.187.189H1918.9a.188.188,0,0,0,.187-.189V864.4a.188.188,0,0,0-.187-.189h-11.884a1.986,1.986,0,0,1-1.983-1.983V861.3Z" transform="translate(-1250.916 171.174)" fill="#0e5489"/>
    <path id="Trazado_226108" data-name="Trazado 226108" d="M1772.495,865.242v1.366a.665.665,0,0,0,.665.665h11.884a1.506,1.506,0,0,1,1.505,1.506v11.7a1.506,1.506,0,0,1-1.505,1.506h-19.325a1.506,1.506,0,0,1-1.505-1.506V865.242a.879.879,0,0,1,.878-.879h6.524a.879.879,0,0,1,.878.879" transform="translate(-1149.042 166.796)" fill="#ffd576"/>
    <path id="Trazado_226109" data-name="Trazado 226109" d="M1780.667,878.925h-19.325a2.827,2.827,0,0,1-2.823-2.824V860.864a2.2,2.2,0,0,1,2.2-2.2h6.524a2.2,2.2,0,0,1,2.2,2.2v.713h11.231a2.827,2.827,0,0,1,2.823,2.824v11.7a2.827,2.827,0,0,1-2.823,2.824M1761.155,861.3v14.8a.188.188,0,0,0,.187.189h19.325a.188.188,0,0,0,.187-.189V864.4a.188.188,0,0,0-.187-.189h-11.884a1.985,1.985,0,0,1-1.983-1.983V861.3Z" transform="translate(-1144.665 171.174)" fill="#0e5489"/>
    <path id="Trazado_226110" data-name="Trazado 226110" d="M1812.483,824.676V823.8a3.239,3.239,0,0,1,3.237-3.24h57.489a3.239,3.239,0,0,1,3.237,3.24v.72" transform="translate(-1186.144 200.464)" fill="#fff"/>
    <path id="Trazado_226111" data-name="Trazado 226111" d="M1808.1,821.614a1.318,1.318,0,0,1-1.318-1.318v-.874a4.562,4.562,0,0,1,4.555-4.558h57.49a4.562,4.562,0,0,1,4.555,4.558v.72a1.318,1.318,0,0,1-2.636,0v-.72a1.923,1.923,0,0,0-1.919-1.922h-57.49a1.923,1.923,0,0,0-1.919,1.922v.874a1.318,1.318,0,0,1-1.318,1.318" transform="translate(-1181.765 204.843)" fill="#0e5489"/>
    <line id="Línea_1987" data-name="Línea 1987" y2="7.12" transform="translate(657.594 1017.864)" fill="#fff"/>
    <path id="Trazado_226112" data-name="Trazado 226112" d="M1943.2,810.963a1.318,1.318,0,0,1-1.318-1.318v-7.12a1.318,1.318,0,1,1,2.636,0v7.12a1.318,1.318,0,0,1-1.318,1.318" transform="translate(-1285.602 215.34)" fill="#0e5489"/>
  </g>
</svg>
