<svg xmlns="http://www.w3.org/2000/svg" width="208.395" height="228.272" viewBox="0 0 208.395 228.272">
  <g id="Grupo_114529" data-name="Grupo 114529" transform="translate(-1236.024 -834.616)">
    <path id="Trazado_226318" data-name="Trazado 226318" d="M6976.716,333.029a1.318,1.318,0,0,1-1.3-1.132c-.433-3.027-1.011-6.067-1.719-9.036a1.318,1.318,0,0,1,2.564-.611c.726,3.047,1.319,6.167,1.763,9.273a1.318,1.318,0,0,1-1.118,1.491,1.337,1.337,0,0,1-.188.013m-4.315-18.111a1.317,1.317,0,0,1-1.248-.9c-.978-2.892-2.1-5.775-3.345-8.568a1.318,1.318,0,0,1,2.409-1.071c1.274,2.867,2.429,5.826,3.433,8.795a1.319,1.319,0,0,1-1.249,1.74m-7.56-17.016a1.317,1.317,0,0,1-1.151-.675c-1.491-2.665-3.125-5.294-4.854-7.815a1.318,1.318,0,0,1,2.173-1.492c1.775,2.586,3.451,5.285,4.981,8.02a1.318,1.318,0,0,1-1.149,1.961" transform="translate(-5534.648 610.311)" fill="#0e5489"/>
    <path id="Trazado_226319" data-name="Trazado 226319" d="M7036.533,521.443a1.318,1.318,0,0,1-1.318-1.318c0-1.734-.044-3.485-.132-5.2a1.318,1.318,0,1,1,2.632-.134c.09,1.764.136,3.56.136,5.338a1.318,1.318,0,0,1-1.318,1.318" transform="translate(-5593.432 436.455)" fill="#0e5489"/>
    <path id="Trazado_226386" data-name="Trazado 226386" d="M6883.086,811.991a6.22,6.22,0,0,1-6.153-6.684c.485-7.267,1.491-14.269,4.534-18.442,1.946-2.667,5.007-5.7,8.187-5.693q3.911.009,9.3.021c3.33,0,6.467,3.235,8.443,6.078,2.876,4.14,3.808,10.989,4.261,18.061a6.218,6.218,0,0,1-6.155,6.66Z" transform="translate(-5471.861 230.739)" fill="#fff"/>
    <path id="Trazado_226387" data-name="Trazado 226387" d="M6901.129,808.932h-22.42a7.372,7.372,0,0,1-5.435-2.366,7.656,7.656,0,0,1-2.034-5.723c.457-6.842,1.382-14.465,4.785-19.131,1.7-2.33,5.158-6.234,9.238-6.234h.016l1.889,0q3.27.009,7.415.016c4.273.006,7.8,4.165,9.523,6.644,3.2,4.6,4.065,12.05,4.494,18.729a7.646,7.646,0,0,1-2.04,5.7,7.377,7.377,0,0,1-5.431,2.36m-15.865-30.82c-2.1,0-4.756,1.925-7.11,5.152-3.024,4.146-3.878,11.666-4.284,17.753a4.944,4.944,0,0,0,1.329,3.748,4.762,4.762,0,0,0,3.509,1.53h22.42a4.766,4.766,0,0,0,3.508-1.527,4.936,4.936,0,0,0,1.333-3.731c-.382-5.947-1.184-13.3-4.029-17.393-2.4-3.448-5.148-5.509-7.362-5.512q-4.143-.006-7.418-.016l-1.888,0h-.008" transform="translate(-5467.484 235.117)" fill="#0e5489"/>
    <path id="Trazado_226395" data-name="Trazado 226395" d="M6677.071,558.619a1.313,1.313,0,0,1-.923-.378l-2.725-2.675a13.182,13.182,0,0,0-9.281-3.808h-17.271a12.739,12.739,0,0,1,0-25.477h60.4a12.739,12.739,0,0,1,0,25.477H6690a13.182,13.182,0,0,0-9.281,3.808l-2.725,2.675a1.313,1.313,0,0,1-.923.378m-30.2-29.7a10.1,10.1,0,0,0,0,20.206h17.271a15.8,15.8,0,0,1,11.127,4.563l1.8,1.769,1.8-1.769A15.8,15.8,0,0,1,6690,549.123h17.271a10.1,10.1,0,0,0,0-20.206Z" transform="translate(-5285.353 426.658)" fill="#0e5489"/>
    <path id="Trazado_226310" data-name="Trazado 226310" d="M6259.078,279.317a79.073,79.073,0,1,1,79.073,79.073,79.073,79.073,0,0,1-79.073-79.073" transform="translate(-4996.967 677.263)" fill="#ffc9a4"/>
    <path id="Trazado_226311" data-name="Trazado 226311" d="M6156.5,558.736a1.318,1.318,0,0,1-1.312-1.208c-.147-1.763-.251-3.556-.309-5.33a1.318,1.318,0,1,1,2.634-.085c.056,1.729.157,3.477.3,5.195a1.318,1.318,0,0,1-1.2,1.424c-.037,0-.075,0-.111,0" transform="translate(-4916.877 407.783)" fill="#0e5489"/>
    <path id="Trazado_226312" data-name="Trazado 226312" d="M6156.747,311.858l-.079,0a1.318,1.318,0,0,1-1.238-1.394c.189-3.188.529-6.4,1.01-9.545a1.318,1.318,0,0,1,2.605.4c-.469,3.065-.8,6.195-.984,9.3a1.318,1.318,0,0,1-1.314,1.24m2.866-18.713a1.319,1.319,0,0,1-1.279-1.638c.774-3.094,1.7-6.187,2.765-9.193a1.318,1.318,0,1,1,2.486.877c-1.033,2.929-1.939,5.942-2.694,8.956a1.319,1.319,0,0,1-1.278,1m6.294-17.854a1.318,1.318,0,0,1-1.2-1.871c1.336-2.893,2.826-5.758,4.427-8.517a1.318,1.318,0,0,1,2.28,1.323c-1.561,2.688-3.012,5.48-4.314,8.3a1.318,1.318,0,0,1-1.2.766m9.5-16.373a1.318,1.318,0,0,1-1.072-2.082c1.848-2.6,3.842-5.136,5.924-7.551a1.318,1.318,0,1,1,2,1.721c-2.029,2.354-3.972,4.83-5.773,7.359a1.316,1.316,0,0,1-1.074.553" transform="translate(-4917.297 639.921)" fill="#0e5489"/>
    <path id="Trazado_226313" data-name="Trazado 226313" d="M6290.878,209.87a1.318,1.318,0,0,1-.914-2.267c1.274-1.228,2.6-2.441,3.937-3.6a1.318,1.318,0,0,1,1.729,1.99c-1.3,1.133-2.595,2.314-3.837,3.511a1.314,1.314,0,0,1-.915.369" transform="translate(-5020.396 674.625)" fill="#0e5489"/>
    <path id="Trazado_226314" data-name="Trazado 226314" d="M6708.893,960.09a1.318,1.318,0,0,1-.334-2.593c1.669-.439,3.349-.929,4.993-1.454a1.318,1.318,0,1,1,.8,2.51c-1.687.54-3.412,1.042-5.125,1.493a1.317,1.317,0,0,1-.336.044" transform="translate(-5341.698 96.376)" fill="#0e5489"/>
    <path id="Trazado_226315" data-name="Trazado 226315" d="M6622.557,975.083a1.318,1.318,0,0,1-.076-2.634c3.321-.194,6.665-.556,9.937-1.075a1.318,1.318,0,1,1,.413,2.6c-3.358.533-6.789.9-10.2,1.1l-.078,0" transform="translate(-5275.338 84.556)" fill="#0e5489"/>
    <path id="Trazado_226316" data-name="Trazado 226316" d="M6561.27,977.972h-.053c-1.773-.07-3.566-.187-5.328-.347a1.318,1.318,0,1,1,.239-2.625c1.717.156,3.464.27,5.193.339a1.318,1.318,0,0,1-.051,2.635" transform="translate(-5224.186 81.762)" fill="#0e5489"/>
    <path id="Trazado_226317" data-name="Trazado 226317" d="M6924.115,244.664a1.315,1.315,0,0,1-1.015-.476c-1.1-1.327-2.252-2.644-3.423-3.916a1.318,1.318,0,0,1,1.939-1.785c1.2,1.3,2.383,2.656,3.512,4.018a1.318,1.318,0,0,1-1.013,2.159" transform="translate(-5504.46 648.195)" fill="#0e5489"/>
    <path id="Trazado_226320" data-name="Trazado 226320" d="M6468.188,209.654H6351.537a2.15,2.15,0,0,1-1.927-2.319v-77.6a2.15,2.15,0,0,1,1.927-2.319h116.651a2.151,2.151,0,0,1,1.927,2.319v77.6a2.151,2.151,0,0,1-1.927,2.319" transform="translate(-5066.552 733.237)" fill="#fff"/>
    <path id="Trazado_226321" data-name="Trazado 226321" d="M6463.809,206.594h-116.65a3.461,3.461,0,0,1-3.245-3.637v-77.6a3.461,3.461,0,0,1,3.245-3.637h116.65a3.461,3.461,0,0,1,3.245,3.637v77.6a3.461,3.461,0,0,1-3.245,3.637m-116.65-82.233c-.282,0-.609.437-.609,1v77.6c0,.564.328,1,.609,1h116.65c.282,0,.609-.437.609-1v-77.6c0-.564-.327-1-.609-1Z" transform="translate(-5062.174 737.615)" fill="#0e5489"/>
    <line id="Línea_2033" data-name="Línea 2033" x2="120.504" transform="translate(1283.058 875.432)" fill="#fff"/>
    <path id="Trazado_226322" data-name="Trazado 226322" d="M6465.735,188.213h-120.5a1.318,1.318,0,1,1,0-2.636h120.5a1.318,1.318,0,1,1,0,2.636" transform="translate(-5062.174 688.537)" fill="#0e5489"/>
    <path id="Trazado_226323" data-name="Trazado 226323" d="M6388.559,148.729a2.425,2.425,0,0,1,2.457-2.587,2.592,2.592,0,1,1-2.457,2.587" transform="translate(-5096.49 718.848)" fill="#fff"/>
    <path id="Trazado_226324" data-name="Trazado 226324" d="M6386.6,148.255a3.908,3.908,0,0,1,.042-7.809,3.908,3.908,0,0,1-.042,7.809m.042-5.174a1.122,1.122,0,0,0-1.139,1.269c0,.613.288,1.269,1.1,1.269a1.279,1.279,0,0,0,.042-2.538" transform="translate(-5092.111 723.227)" fill="#0e5489"/>
    <path id="Trazado_226325" data-name="Trazado 226325" d="M6428.75,148.729a2.425,2.425,0,0,1,2.457-2.587,2.592,2.592,0,1,1-2.457,2.587" transform="translate(-5127.383 718.848)" fill="#fff"/>
    <path id="Trazado_226326" data-name="Trazado 226326" d="M6426.787,148.255a3.908,3.908,0,0,1,.042-7.809,3.908,3.908,0,0,1-.042,7.809m.042-5.174a1.122,1.122,0,0,0-1.139,1.269c0,.613.289,1.269,1.1,1.269a1.279,1.279,0,0,0,.042-2.538" transform="translate(-5123.004 723.227)" fill="#0e5489"/>
    <path id="Trazado_226327" data-name="Trazado 226327" d="M6490.049,240h-95.993a2.712,2.712,0,0,1-2.755-2.666V224.309a2.712,2.712,0,0,1,2.755-2.666h95.993a2.712,2.712,0,0,1,2.755,2.666v13.027a2.712,2.712,0,0,1-2.755,2.666" transform="translate(-5098.598 660.814)" fill="#9ff5fc"/>
    <path id="Trazado_226328" data-name="Trazado 226328" d="M6485.671,236.941h-95.993a4.034,4.034,0,0,1-4.073-3.984V219.931a4.034,4.034,0,0,1,4.073-3.984h95.993a4.034,4.034,0,0,1,4.073,3.984v13.027a4.034,4.034,0,0,1-4.073,3.984m-95.993-18.359a1.4,1.4,0,0,0-1.437,1.348v13.027a1.4,1.4,0,0,0,1.437,1.348h95.993a1.4,1.4,0,0,0,1.438-1.348V219.931a1.4,1.4,0,0,0-1.437-1.348Z" transform="translate(-5094.22 665.193)" fill="#0e5489"/>
    <line id="Línea_2034" data-name="Línea 2034" x2="25.15" transform="translate(1292.913 923.985)" fill="#fff"/>
    <path id="Trazado_226329" data-name="Trazado 226329" d="M6412.979,398.074h-25.15a1.318,1.318,0,0,1,0-2.636h25.15a1.318,1.318,0,1,1,0,2.636" transform="translate(-5094.917 527.229)" fill="#0e5489"/>
    <line id="Línea_2035" data-name="Línea 2035" x2="25.15" transform="translate(1292.913 928.817)" fill="#fff"/>
    <path id="Trazado_226330" data-name="Trazado 226330" d="M6412.979,418.959h-25.15a1.318,1.318,0,0,1,0-2.636h25.15a1.318,1.318,0,1,1,0,2.636" transform="translate(-5094.917 511.177)" fill="#0e5489"/>
    <line id="Línea_2036" data-name="Línea 2036" x2="25.15" transform="translate(1292.913 934.331)" fill="#fff"/>
    <path id="Trazado_226331" data-name="Trazado 226331" d="M6412.979,442.792h-25.15a1.318,1.318,0,0,1,0-2.636h25.15a1.318,1.318,0,1,1,0,2.636" transform="translate(-5094.917 492.857)" fill="#0e5489"/>
    <rect id="Rectángulo_49713" data-name="Rectángulo 49713" width="9.038" height="9.064" transform="translate(1300.969 908.649)" fill="#ffad5c"/>
    <path id="Trazado_226332" data-name="Trazado 226332" d="M6431.688,340.852h-9.038a1.318,1.318,0,0,1-1.318-1.318V330.47a1.318,1.318,0,0,1,1.318-1.318h9.038a1.318,1.318,0,0,1,1.318,1.318v9.064a1.318,1.318,0,0,1-1.318,1.318m-7.72-2.636h6.4v-6.429h-6.4Z" transform="translate(-5121.682 578.18)" fill="#0e5489"/>
    <line id="Línea_2037" data-name="Línea 2037" x2="25.15" transform="translate(1330.027 923.985)" fill="#fff"/>
    <path id="Trazado_226333" data-name="Trazado 226333" d="M6573.4,398.074h-25.15a1.318,1.318,0,1,1,0-2.636h25.15a1.318,1.318,0,1,1,0,2.636" transform="translate(-5218.218 527.229)" fill="#0e5489"/>
    <line id="Línea_2038" data-name="Línea 2038" x2="25.15" transform="translate(1330.027 928.817)" fill="#fff"/>
    <path id="Trazado_226334" data-name="Trazado 226334" d="M6573.4,418.959h-25.15a1.318,1.318,0,1,1,0-2.636h25.15a1.318,1.318,0,1,1,0,2.636" transform="translate(-5218.218 511.177)" fill="#0e5489"/>
    <line id="Línea_2039" data-name="Línea 2039" x2="25.15" transform="translate(1330.027 934.331)" fill="#fff"/>
    <path id="Trazado_226335" data-name="Trazado 226335" d="M6573.4,442.792h-25.15a1.318,1.318,0,1,1,0-2.636h25.15a1.318,1.318,0,1,1,0,2.636" transform="translate(-5218.218 492.857)" fill="#0e5489"/>
    <rect id="Rectángulo_49714" data-name="Rectángulo 49714" width="9.038" height="9.064" transform="translate(1338.083 908.649)" fill="#ffad5c"/>
    <path id="Trazado_226336" data-name="Trazado 226336" d="M6592.1,340.852h-9.038a1.318,1.318,0,0,1-1.318-1.318V330.47a1.318,1.318,0,0,1,1.318-1.318h9.038a1.318,1.318,0,0,1,1.318,1.318v9.064a1.318,1.318,0,0,1-1.318,1.318m-7.72-2.636h6.4v-6.429h-6.4Z" transform="translate(-5244.982 578.18)" fill="#0e5489"/>
    <line id="Línea_2040" data-name="Línea 2040" x2="25.15" transform="translate(1367.706 923.985)" fill="#fff"/>
    <path id="Trazado_226337" data-name="Trazado 226337" d="M6736.253,398.074H6711.1a1.318,1.318,0,1,1,0-2.636h25.15a1.318,1.318,0,0,1,0,2.636" transform="translate(-5343.396 527.229)" fill="#0e5489"/>
    <line id="Línea_2041" data-name="Línea 2041" x2="25.15" transform="translate(1367.706 928.817)" fill="#fff"/>
    <path id="Trazado_226338" data-name="Trazado 226338" d="M6736.253,418.959H6711.1a1.318,1.318,0,1,1,0-2.636h25.15a1.318,1.318,0,0,1,0,2.636" transform="translate(-5343.396 511.177)" fill="#0e5489"/>
    <line id="Línea_2042" data-name="Línea 2042" x2="25.15" transform="translate(1367.706 934.331)" fill="#fff"/>
    <path id="Trazado_226339" data-name="Trazado 226339" d="M6736.253,442.792H6711.1a1.318,1.318,0,1,1,0-2.636h25.15a1.318,1.318,0,0,1,0,2.636" transform="translate(-5343.396 492.857)" fill="#0e5489"/>
    <rect id="Rectángulo_49715" data-name="Rectángulo 49715" width="9.038" height="9.064" transform="translate(1375.763 908.649)" fill="#ffad5c"/>
    <path id="Trazado_226340" data-name="Trazado 226340" d="M6754.962,340.852h-9.038a1.318,1.318,0,0,1-1.318-1.318V330.47a1.318,1.318,0,0,1,1.318-1.318h9.038a1.318,1.318,0,0,1,1.318,1.318v9.064a1.318,1.318,0,0,1-1.318,1.318m-7.72-2.636h6.4v-6.429h-6.4Z" transform="translate(-5370.162 578.18)" fill="#0e5489"/>
    <path id="Trazado_226341" data-name="Trazado 226341" d="M6493.551,54.543h4.142a1.075,1.075,0,0,1,1.02.763,21.779,21.779,0,0,0,1.418,3.434,1.08,1.08,0,0,1-.183,1.263l-2.929,2.938a2.016,2.016,0,0,0,0,2.845l5.465,5.481a2,2,0,0,0,2.837,0l2.928-2.937a1.072,1.072,0,0,1,1.259-.184,21.673,21.673,0,0,0,3.423,1.423,1.076,1.076,0,0,1,.76,1.022v4.154a2.009,2.009,0,0,0,2.006,2.012h7.728a2.009,2.009,0,0,0,2.006-2.012V70.591a1.077,1.077,0,0,1,.76-1.022,21.7,21.7,0,0,0,3.424-1.423,1.072,1.072,0,0,1,1.259.184l2.929,2.937a2,2,0,0,0,2.837,0l5.465-5.481a2.017,2.017,0,0,0,0-2.845L6539.176,60a1.08,1.08,0,0,1-.184-1.263,21.827,21.827,0,0,0,1.419-3.434,1.075,1.075,0,0,1,1.02-.763h4.141a2.009,2.009,0,0,0,2.006-2.012V44.779a2.009,2.009,0,0,0-2.006-2.012h-4.141a1.075,1.075,0,0,1-1.02-.763,21.836,21.836,0,0,0-1.419-3.434,1.08,1.08,0,0,1,.184-1.263l2.929-2.938a2.017,2.017,0,0,0,0-2.845l-5.465-5.481a2,2,0,0,0-2.837,0l-2.929,2.937a1.072,1.072,0,0,1-1.259.184,21.7,21.7,0,0,0-3.424-1.423,1.077,1.077,0,0,1-.76-1.022V22.566a2.009,2.009,0,0,0-2.006-2.012H6515.7a2.009,2.009,0,0,0-2.006,2.012V26.72a1.076,1.076,0,0,1-.76,1.022,21.673,21.673,0,0,0-3.423,1.423,1.072,1.072,0,0,1-1.259-.184l-2.928-2.937a2,2,0,0,0-2.837,0l-5.465,5.481a2.016,2.016,0,0,0,0,2.845l2.929,2.938a1.08,1.08,0,0,1,.183,1.263A21.788,21.788,0,0,0,6498.712,42a1.075,1.075,0,0,1-1.02.763h-4.142a2.009,2.009,0,0,0-2.006,2.012v7.752a2.009,2.009,0,0,0,2.006,2.012m15.071-5.888a10.94,10.94,0,1,1,10.939,10.973,10.956,10.956,0,0,1-10.939-10.973" transform="translate(-5175.649 815.38)" fill="#ffad5c"/>
    <path id="Trazado_226342" data-name="Trazado 226342" d="M6519.047,73.7h-7.728a3.331,3.331,0,0,1-3.324-3.33V66.4a23.083,23.083,0,0,1-3.324-1.381l-2.8,2.805a3.4,3.4,0,0,1-4.7,0l-5.464-5.481a3.338,3.338,0,0,1,0-4.706l2.8-2.809a23.194,23.194,0,0,1-1.38-3.339h-3.954a3.33,3.33,0,0,1-3.324-3.33V40.4a3.33,3.33,0,0,1,3.324-3.33h3.954a23.2,23.2,0,0,1,1.38-3.34l-2.8-2.809a3.338,3.338,0,0,1,0-4.706l5.464-5.481a3.4,3.4,0,0,1,4.7,0l2.8,2.805A23.085,23.085,0,0,1,6508,22.159V18.188a3.331,3.331,0,0,1,3.324-3.33h7.728a3.331,3.331,0,0,1,3.324,3.33v3.971a23.126,23.126,0,0,1,3.323,1.381l2.8-2.805a3.4,3.4,0,0,1,4.7,0l5.465,5.481a3.339,3.339,0,0,1,0,4.706l-2.8,2.809a23.226,23.226,0,0,1,1.38,3.339h3.955a3.331,3.331,0,0,1,3.324,3.33v7.752a3.331,3.331,0,0,1-3.324,3.33h-3.955a23.248,23.248,0,0,1-1.38,3.339l2.8,2.809a3.339,3.339,0,0,1,0,4.706l-5.465,5.481a3.319,3.319,0,0,1-4.7,0l-2.8-2.805a23.077,23.077,0,0,1-3.323,1.381v3.971a3.331,3.331,0,0,1-3.324,3.33m-14.429-11.374a2.424,2.424,0,0,1,1.12.276,20.421,20.421,0,0,0,3.215,1.337,2.39,2.39,0,0,1,1.678,2.278v4.154a.692.692,0,0,0,.688.694h7.728a.692.692,0,0,0,.688-.694V66.213a2.389,2.389,0,0,1,1.678-2.278,20.407,20.407,0,0,0,3.216-1.337,2.383,2.383,0,0,1,2.8.423l2.928,2.937a.684.684,0,0,0,.97,0l5.464-5.481a.7.7,0,0,0,0-.984l-2.928-2.938a2.392,2.392,0,0,1-.42-2.8,20.636,20.636,0,0,0,1.333-3.227,2.387,2.387,0,0,1,2.276-1.683h4.141a.691.691,0,0,0,.688-.694V40.4a.691.691,0,0,0-.687-.694h-4.141a2.387,2.387,0,0,1-2.276-1.682,20.648,20.648,0,0,0-1.333-3.227,2.392,2.392,0,0,1,.42-2.8l2.928-2.938a.7.7,0,0,0,0-.984l-5.464-5.481a.7.7,0,0,0-.97,0l-2.929,2.937a2.383,2.383,0,0,1-2.8.422,20.429,20.429,0,0,0-3.216-1.337,2.389,2.389,0,0,1-1.678-2.278V18.188a.692.692,0,0,0-.688-.694h-7.728a.692.692,0,0,0-.688.694v4.154a2.39,2.39,0,0,1-1.678,2.278,20.443,20.443,0,0,0-3.215,1.337,2.384,2.384,0,0,1-2.8-.422l-2.929-2.937a.7.7,0,0,0-.97,0l-5.465,5.481a.7.7,0,0,0,0,.984L6496.5,32a2.393,2.393,0,0,1,.421,2.8,20.548,20.548,0,0,0-1.333,3.227,2.387,2.387,0,0,1-2.276,1.682h-4.141a.692.692,0,0,0-.688.694v7.752a.692.692,0,0,0,.688.694h4.141a2.387,2.387,0,0,1,2.276,1.682,20.586,20.586,0,0,0,1.333,3.227,2.393,2.393,0,0,1-.421,2.8l-2.929,2.938a.7.7,0,0,0,0,.984l5.465,5.481a.7.7,0,0,0,.97,0l2.929-2.937a2.366,2.366,0,0,1,1.681-.7m-11.3-10.84h0Zm21.869,5.085a12.291,12.291,0,1,1,12.258-12.29,12.287,12.287,0,0,1-12.258,12.29m0-21.946a9.655,9.655,0,1,0,9.622,9.655,9.65,9.65,0,0,0-9.622-9.655" transform="translate(-5171.271 819.758)" fill="#0e5489"/>
    <path id="Trazado_226343" data-name="Trazado 226343" d="M6272.491,549.713a1.318,1.318,0,0,1-.411-2.57,10.444,10.444,0,1,0-6.875-.124,1.318,1.318,0,0,1-.912,2.473,13.08,13.08,0,1,1,8.608.156,1.308,1.308,0,0,1-.411.066" transform="translate(-4994.401 428.307)" fill="#0e5489"/>
    <path id="Trazado_226344" data-name="Trazado 226344" d="M6297.33,577.439l-10.576-.049a.765.765,0,0,1-.762-.769l.037-8.111a.765.765,0,0,1,.769-.762l10.577.049a.765.765,0,0,1,.762.769l-.038,8.111a.765.765,0,0,1-.769.762" transform="translate(-5017.653 394.785)" fill="#9ff5fc"/>
    <path id="Trazado_226345" data-name="Trazado 226345" d="M6292.956,574.378h-.01l-10.577-.049a2.085,2.085,0,0,1-2.073-2.092l.037-8.111a2.085,2.085,0,0,1,2.093-2.073L6293,562.1a2.083,2.083,0,0,1,2.074,2.093l-.038,8.111a2.082,2.082,0,0,1-2.083,2.073m0-2.636Zm-10.024-.046,9.471.044.032-7.006-9.471-.044Z" transform="translate(-5013.275 399.164)" fill="#0e5489"/>
    <rect id="Rectángulo_49716" data-name="Rectángulo 49716" width="8.062" height="7.372" transform="translate(1270.666 980.231) rotate(-89.736)" fill="#fff"/>
    <path id="Trazado_226346" data-name="Trazado 226346" d="M6299.043,614.431h-.007l-7.371-.034a1.318,1.318,0,0,1-1.312-1.324l.037-8.062a1.319,1.319,0,0,1,1.324-1.312l7.372.034a1.318,1.318,0,0,1,1.312,1.324l-.038,8.062a1.318,1.318,0,0,1-1.317,1.312M6293,611.767l4.736.022.025-5.426-4.736-.022Z" transform="translate(-5021.006 367.152)" fill="#0e5489"/>
    <line id="Línea_2043" data-name="Línea 2043" x1="0.045" y2="9.628" transform="translate(1274.389 962.558)" fill="#fff"/>
    <path id="Trazado_226347" data-name="Trazado 226347" d="M6307.764,574.421h-.006a1.318,1.318,0,0,1-1.312-1.324l.044-9.628a1.29,1.29,0,0,1,1.324-1.312,1.318,1.318,0,0,1,1.312,1.324l-.044,9.628a1.318,1.318,0,0,1-1.317,1.312" transform="translate(-5033.375 399.083)" fill="#0e5489"/>
    <path id="Trazado_226348" data-name="Trazado 226348" d="M6167.766,620.314l-8.448,6.563a.765.765,0,0,1-1.074-.135l-4.976-6.406a.766.766,0,0,1,.135-1.074l8.448-6.563a.766.766,0,0,1,1.074.135l4.976,6.406a.765.765,0,0,1-.135,1.074" transform="translate(-4915.513 360.357)" fill="#9ff5fc"/>
    <path id="Trazado_226349" data-name="Trazado 226349" d="M6154.473,623.976a2.112,2.112,0,0,1-.264-.017,2.07,2.07,0,0,1-1.385-.789l-4.976-6.406a2.083,2.083,0,0,1,.367-2.923l8.448-6.563a2.084,2.084,0,0,1,2.924.367l4.976,6.406a2.083,2.083,0,0,1-.367,2.923l-8.448,6.563a2.067,2.067,0,0,1-1.274.438m-4.2-8.392,4.3,5.533,7.575-5.884-4.3-5.533Zm12.31-.691Z" transform="translate(-4911.134 364.737)" fill="#0e5489"/>
    <rect id="Rectángulo_49717" data-name="Rectángulo 49717" width="7.372" height="5.343" transform="translate(1245.11 986.203) rotate(-37.84)" fill="#fff"/>
    <path id="Trazado_226350" data-name="Trazado 226350" d="M6184.492,656.19a1.316,1.316,0,0,1-1.042-.509l-3.278-4.22a1.318,1.318,0,0,1,.232-1.849l5.822-4.522a1.318,1.318,0,0,1,1.849.232l3.278,4.22a1.318,1.318,0,0,1-.232,1.849l-5.821,4.522a1.314,1.314,0,0,1-.808.277m-1.43-5.305,1.661,2.138,3.74-2.905-1.661-2.138Z" transform="translate(-4936.104 335.551)" fill="#0e5489"/>
    <line id="Línea_2044" data-name="Línea 2044" x2="5.906" y2="7.604" transform="translate(1242.114 976.339)" fill="#fff"/>
    <path id="Trazado_226351" data-name="Trazado 226351" d="M6174.172,631.96a1.316,1.316,0,0,1-1.042-.509l-5.907-7.6a1.318,1.318,0,1,1,2.082-1.617l5.906,7.6a1.318,1.318,0,0,1-1.04,2.126" transform="translate(-4926.151 353.301)" fill="#0e5489"/>
    <path id="Trazado_226352" data-name="Trazado 226352" d="M6226.664,680.787a37.365,37.365,0,1,1-39.756-34.81,37.4,37.4,0,0,1,39.756,34.81" transform="translate(-4914.674 334.72)" fill="#ffad5c"/>
    <path id="Trazado_226353" data-name="Trazado 226353" d="M6185.143,717.552a38.679,38.679,0,1,1,25.473-67.7,38.156,38.156,0,0,1,12.987,26.47,38.773,38.773,0,0,1-9.574,28.106,38.075,38.075,0,0,1-26.47,13.047q-1.214.075-2.416.074m-.079-74.722q-1.219,0-2.446.081a36.047,36.047,0,1,0,4.778,71.935,35.458,35.458,0,0,0,24.649-12.152,36.151,36.151,0,0,0,8.926-26.207,35.982,35.982,0,0,0-35.908-33.657" transform="translate(-4910.297 339.101)" fill="#0e5489"/>
    <path id="Trazado_226354" data-name="Trazado 226354" d="M6245.095,707.654a29.437,29.437,0,1,1-31.32-27.423,29.463,29.463,0,0,1,31.32,27.423" transform="translate(-4941.014 308.377)" fill="#fff"/>
    <path id="Trazado_226355" data-name="Trazado 226355" d="M6211.453,735.967a30.885,30.885,0,0,1-30.8-28.711,30.743,30.743,0,1,1,32.716,28.651q-.965.059-1.92.059m-.062-58.867q-.951,0-1.908.063a28.119,28.119,0,0,0-26.2,29.918,28.248,28.248,0,0,0,29.924,26.2,27.656,27.656,0,0,0,19.226-9.479,28.2,28.2,0,0,0,6.963-20.445,28.067,28.067,0,0,0-28.009-26.253" transform="translate(-4936.636 312.759)" fill="#0e5489"/>
    <line id="Línea_2045" data-name="Línea 2045" x2="17.839" y2="17.642" transform="translate(1276.967 1020.715)" fill="#fff"/>
    <path id="Trazado_226356" data-name="Trazado 226356" d="M6336.745,833.8a1.315,1.315,0,0,1-.927-.381l-17.838-17.643a1.318,1.318,0,0,1,1.854-1.874l17.838,17.643a1.318,1.318,0,0,1-.926,2.255" transform="translate(-5041.939 205.871)" fill="#0e5489"/>
    <line id="Línea_2046" data-name="Línea 2046" x1="0.026" y2="5.506" transform="translate(1274.818 988.585)" fill="#fff"/>
    <path id="Trazado_226357" data-name="Trazado 226357" d="M6309.619,682.8h-.006a1.318,1.318,0,0,1-1.312-1.324l.026-5.506a1.318,1.318,0,0,1,1.317-1.312h.006a1.319,1.319,0,0,1,1.312,1.324l-.026,5.506a1.318,1.318,0,0,1-1.317,1.312" transform="translate(-5034.801 312.613)" fill="#0e5489"/>
    <line id="Línea_2047" data-name="Línea 2047" x1="0.026" y2="5.506" transform="translate(1274.573 1041.557)" fill="#fff"/>
    <path id="Trazado_226358" data-name="Trazado 226358" d="M6308.562,911.751h-.006a1.318,1.318,0,0,1-1.312-1.324l.025-5.506a1.318,1.318,0,0,1,1.318-1.312h.006a1.318,1.318,0,0,1,1.312,1.324l-.025,5.506a1.318,1.318,0,0,1-1.318,1.312" transform="translate(-5033.988 136.63)" fill="#0e5489"/>
    <line id="Línea_2048" data-name="Línea 2048" x1="5.506" y1="0.025" transform="translate(1298.441 1017.934)" fill="#fff"/>
    <path id="Trazado_226359" data-name="Trazado 226359" d="M6417.229,804.166h-.006l-5.506-.026a1.318,1.318,0,0,1,.006-2.636h.006l5.506.025a1.318,1.318,0,0,1-.006,2.636" transform="translate(-5113.281 215.111)" fill="#0e5489"/>
    <line id="Línea_2049" data-name="Línea 2049" x1="5.506" y1="0.025" transform="translate(1245.47 1017.689)" fill="#fff"/>
    <path id="Trazado_226360" data-name="Trazado 226360" d="M6188.274,803.107h-.007l-5.506-.025a1.318,1.318,0,0,1-1.312-1.324,1.288,1.288,0,0,1,1.324-1.312l5.506.025a1.318,1.318,0,0,1-.006,2.636" transform="translate(-4937.299 215.925)" fill="#0e5489"/>
    <line id="Línea_2050" data-name="Línea 2050" x1="3.911" y2="3.875" transform="translate(1291.567 997.244)" fill="#fff"/>
    <path id="Trazado_226361" data-name="Trazado 226361" d="M6382.014,718.593a1.318,1.318,0,0,1-.928-2.254l3.912-3.875a1.318,1.318,0,0,1,1.855,1.872l-3.912,3.875a1.314,1.314,0,0,1-.928.382" transform="translate(-5090.446 283.846)" fill="#0e5489"/>
    <line id="Línea_2051" data-name="Línea 2051" x1="3.911" y2="3.875" transform="translate(1253.938 1034.528)" fill="#fff"/>
    <path id="Trazado_226362" data-name="Trazado 226362" d="M6219.37,879.741a1.318,1.318,0,0,1-.928-2.254l3.912-3.875a1.318,1.318,0,1,1,1.855,1.872l-3.912,3.875a1.313,1.313,0,0,1-.927.382" transform="translate(-4965.432 159.98)" fill="#0e5489"/>
    <line id="Línea_2052" data-name="Línea 2052" x1="3.875" y1="3.911" transform="translate(1254.129 997.054)" fill="#fff"/>
    <path id="Trazado_226363" data-name="Trazado 226363" d="M6224.071,717.8a1.313,1.313,0,0,1-.936-.39l-3.875-3.911a1.318,1.318,0,1,1,1.872-1.855l3.875,3.911a1.318,1.318,0,0,1-.936,2.245" transform="translate(-4966.066 284.479)" fill="#0e5489"/>
    <path id="Trazado_226364" data-name="Trazado 226364" d="M6296.632,797.881a3.906,3.906,0,1,0,4.189-3.6,3.906,3.906,0,0,0-4.189,3.6" transform="translate(-5025.823 220.672)" fill="#abf5ff"/>
    <path id="Trazado_226365" data-name="Trazado 226365" d="M6296.156,799.021c-.134,0-.268,0-.4-.015a5.224,5.224,0,0,1-4.814-5.6h0a5.223,5.223,0,1,1,5.217,5.617m-.013-7.812a2.589,2.589,0,0,0-2.576,2.393h0a2.588,2.588,0,1,0,2.775-2.385q-.1-.008-.2-.008m-3.89,2.294h0Z" transform="translate(-5021.444 225.051)" fill="#0e5489"/>
    <path id="Trazado_226366" data-name="Trazado 226366" d="M6400.5,816.415a23.467,23.467,0,1,1-23.467-23.467,23.467,23.467,0,0,1,23.467,23.467" transform="translate(-5069.59 221.688)" fill="#fff"/>
    <path id="Trazado_226367" data-name="Trazado 226367" d="M6372.651,836.822a24.785,24.785,0,1,1,24.785-24.785,24.813,24.813,0,0,1-24.785,24.785m0-46.934a22.149,22.149,0,1,0,22.149,22.149,22.174,22.174,0,0,0-22.149-22.149" transform="translate(-5065.213 226.066)" fill="#0e5489"/>
    <path id="Trazado_226368" data-name="Trazado 226368" d="M6419.471,845.671v-4.22a1.1,1.1,0,0,0-1.1-1.1h-2.261a.586.586,0,0,1-.557-.415,11.869,11.869,0,0,0-.774-1.869.586.586,0,0,1,.1-.687l1.6-1.6a1.1,1.1,0,0,0,0-1.549l-2.983-2.984a1.1,1.1,0,0,0-1.549,0l-1.6,1.6a.586.586,0,0,1-.687.1,11.882,11.882,0,0,0-1.869-.775.586.586,0,0,1-.415-.556V829.36a1.1,1.1,0,0,0-1.1-1.1h-4.219a1.1,1.1,0,0,0-1.1,1.1v2.261a.587.587,0,0,1-.415.556,11.863,11.863,0,0,0-1.869.775.586.586,0,0,1-.687-.1l-1.6-1.6a1.1,1.1,0,0,0-1.548,0l-2.984,2.984a1.1,1.1,0,0,0,0,1.549l1.6,1.6a.586.586,0,0,1,.1.687,11.917,11.917,0,0,0-.775,1.869.586.586,0,0,1-.556.415h-2.261a1.1,1.1,0,0,0-1.1,1.1v4.22a1.1,1.1,0,0,0,1.1,1.1h2.261a.586.586,0,0,1,.556.415,11.924,11.924,0,0,0,.775,1.869.586.586,0,0,1-.1.687l-1.6,1.6a1.1,1.1,0,0,0,0,1.549l2.984,2.984a1.1,1.1,0,0,0,1.548,0l1.6-1.6a.586.586,0,0,1,.688-.1,11.857,11.857,0,0,0,1.869.775.587.587,0,0,1,.415.556v2.261a1.1,1.1,0,0,0,1.1,1.1h4.219a1.1,1.1,0,0,0,1.1-1.1V855.5a.586.586,0,0,1,.415-.556,11.877,11.877,0,0,0,1.869-.775.587.587,0,0,1,.688.1l1.6,1.6a1.1,1.1,0,0,0,1.549,0l2.983-2.984a1.1,1.1,0,0,0,0-1.549l-1.6-1.6a.586.586,0,0,1-.1-.687,11.876,11.876,0,0,0,.774-1.869.586.586,0,0,1,.557-.415h2.261a1.1,1.1,0,0,0,1.1-1.1m-15.3,3.863a5.973,5.973,0,1,1,5.973-5.973,5.973,5.973,0,0,1-5.973,5.973" transform="translate(-5096.736 194.542)" fill="#9ff5fc"/>
    <path id="Trazado_226369" data-name="Trazado 226369" d="M6401.906,855.8h-4.219a2.416,2.416,0,0,1-2.413-2.413v-1.733q-.557-.2-1.1-.454l-1.226,1.225a2.471,2.471,0,0,1-3.413,0l-2.983-2.983a2.414,2.414,0,0,1,0-3.413l1.226-1.225c-.168-.358-.319-.724-.454-1.1H6385.6a2.416,2.416,0,0,1-2.413-2.413v-4.219a2.415,2.415,0,0,1,2.413-2.413h1.732c.135-.371.286-.737.454-1.1l-1.226-1.226a2.413,2.413,0,0,1,0-3.412l2.983-2.984a2.471,2.471,0,0,1,3.413,0l1.226,1.225q.537-.251,1.1-.454v-1.733a2.416,2.416,0,0,1,2.413-2.413h4.219a2.416,2.416,0,0,1,2.414,2.413v1.733c.371.135.737.286,1.1.454l1.226-1.225a2.47,2.47,0,0,1,3.412,0l2.983,2.983a2.412,2.412,0,0,1,0,3.413l-1.225,1.225c.167.358.319.724.454,1.1H6414a2.416,2.416,0,0,1,2.413,2.413v4.219a2.416,2.416,0,0,1-2.413,2.413h-1.733c-.135.371-.286.737-.454,1.1l1.225,1.225a2.412,2.412,0,0,1,0,3.413l-2.983,2.983a2.471,2.471,0,0,1-3.413,0l-1.225-1.225c-.358.168-.724.319-1.1.454v1.733a2.416,2.416,0,0,1-2.414,2.413m-4-2.636h3.774v-2.038a1.9,1.9,0,0,1,1.334-1.812,10.612,10.612,0,0,0,1.662-.689,1.9,1.9,0,0,1,2.226.338l1.441,1.442,2.668-2.669-1.441-1.441a1.9,1.9,0,0,1-.338-2.225,10.523,10.523,0,0,0,.688-1.662,1.9,1.9,0,0,1,1.813-1.334h2.038V837.3h-2.038a1.9,1.9,0,0,1-1.812-1.334,10.532,10.532,0,0,0-.689-1.662,1.9,1.9,0,0,1,.338-2.226l1.441-1.441-2.668-2.669-1.441,1.441a1.9,1.9,0,0,1-2.226.338,10.586,10.586,0,0,0-1.661-.689,1.9,1.9,0,0,1-1.334-1.813V825.2h-3.774v2.038a1.9,1.9,0,0,1-1.334,1.813,10.572,10.572,0,0,0-1.662.689,1.9,1.9,0,0,1-2.226-.338l-1.441-1.441-2.668,2.669,1.441,1.441a1.9,1.9,0,0,1,.338,2.225,10.6,10.6,0,0,0-.688,1.662,1.9,1.9,0,0,1-1.812,1.334h-2.038v3.774h2.038a1.9,1.9,0,0,1,1.813,1.334,10.578,10.578,0,0,0,.688,1.662,1.9,1.9,0,0,1-.338,2.226l-1.441,1.441,2.668,2.669,1.441-1.441a1.9,1.9,0,0,1,2.226-.338,10.573,10.573,0,0,0,1.662.689,1.9,1.9,0,0,1,1.334,1.813Zm1.887-6.687a7.29,7.29,0,1,1,7.291-7.29,7.3,7.3,0,0,1-7.291,7.29m0-11.945a4.655,4.655,0,1,0,4.655,4.655,4.66,4.66,0,0,0-4.655-4.655" transform="translate(-5092.359 198.92)" fill="#0e5489"/>
    <path id="Trazado_226370" data-name="Trazado 226370" d="M6724.9,705.582c-.37-5.778-1.131-11.374-3.482-14.757-1.546-2.225-3.963-4.734-6.555-4.945a8.094,8.094,0,0,0,3.271-6.555,7.635,7.635,0,1,0-15.253,0,8.094,8.094,0,0,0,3.31,6.586c-2.332.394-4.521,2.609-5.962,4.584-2.487,3.409-3.309,9.131-3.705,15.069a5.082,5.082,0,0,0,5.027,5.461h18.32a5.08,5.08,0,0,0,5.029-5.442" transform="translate(-5333.197 315.168)" fill="#fff"/>
    <path id="Trazado_226371" data-name="Trazado 226371" d="M6715.5,707.964h-18.32a6.262,6.262,0,0,1-4.616-2.009,6.5,6.5,0,0,1-1.727-4.857c.375-5.625,1.139-11.9,3.956-15.758a15.237,15.237,0,0,1,4.582-4.3,9.534,9.534,0,0,1-2.183-6.09,8.952,8.952,0,1,1,17.89,0,9.548,9.548,0,0,1-2.064,5.942,14.914,14.914,0,0,1,5.113,4.807c2.646,3.808,3.363,9.934,3.715,15.425a6.492,6.492,0,0,1-1.731,4.84,6.267,6.267,0,0,1-4.613,2m-9.364-39.693a6.507,6.507,0,0,0-6.309,6.674,6.791,6.791,0,0,0,2.762,5.517,1.318,1.318,0,0,1-.551,2.368c-1.562.264-3.427,1.745-5.117,4.061-2.435,3.338-3.125,9.438-3.455,14.38a3.8,3.8,0,0,0,1.021,2.881,3.652,3.652,0,0,0,2.691,1.174h18.32a3.656,3.656,0,0,0,2.69-1.171,3.8,3.8,0,0,0,1.024-2.869c-.31-4.828-.959-10.793-3.249-14.09-1.812-2.608-3.9-4.247-5.581-4.384a1.318,1.318,0,0,1-.67-2.377,6.8,6.8,0,0,0,2.731-5.492,6.507,6.507,0,0,0-6.309-6.674" transform="translate(-5328.82 319.546)" fill="#0e5489"/>
    <path id="Trazado_226372" data-name="Trazado 226372" d="M6714.882,734.187c2.586.219,5,2.73,6.541,4.951,2.351,3.383,3.112,8.979,3.482,14.757a5.08,5.08,0,0,1-5.029,5.442h-18.32a5.082,5.082,0,0,1-5.027-5.461c.4-5.938,1.218-11.659,3.705-15.069,1.423-1.952,3.578-4.143,5.877-4.576" transform="translate(-5333.197 266.854)" fill="#fff"/>
    <path id="Trazado_226373" data-name="Trazado 226373" d="M6715.5,756.277h-18.32a6.262,6.262,0,0,1-4.616-2.009,6.5,6.5,0,0,1-1.727-4.857c.375-5.625,1.139-11.9,3.956-15.758,1.21-1.66,3.69-4.528,6.7-5.094a1.318,1.318,0,0,1,.487,2.59c-1.545.291-3.388,1.769-5.057,4.057-2.435,3.338-3.125,9.438-3.455,14.38a3.8,3.8,0,0,0,1.021,2.881,3.653,3.653,0,0,0,2.691,1.174h18.32a3.656,3.656,0,0,0,2.69-1.172,3.793,3.793,0,0,0,1.024-2.869c-.31-4.828-.958-10.793-3.249-14.09-1.811-2.606-3.893-4.247-5.57-4.389a1.318,1.318,0,0,1,.223-2.626c3.4.289,6.168,3.577,7.512,5.512,2.646,3.808,3.363,9.935,3.715,15.425a6.492,6.492,0,0,1-1.731,4.841,6.267,6.267,0,0,1-4.613,2" transform="translate(-5328.82 271.232)" fill="#0e5489"/>
    <path id="Trazado_226374" data-name="Trazado 226374" d="M6739.3,679.323a7.635,7.635,0,1,1-7.627-7.992,7.816,7.816,0,0,1,7.627,7.992" transform="translate(-5354.357 315.168)" fill="#fff"/>
    <path id="Trazado_226375" data-name="Trazado 226375" d="M6727.293,684.255a9.317,9.317,0,1,1,8.945-9.31,9.143,9.143,0,0,1-8.945,9.31m0-15.984a6.685,6.685,0,1,0,6.309,6.674,6.507,6.507,0,0,0-6.309-6.674" transform="translate(-5349.979 319.546)" fill="#0e5489"/>
    <path id="Trazado_226376" data-name="Trazado 226376" d="M6855.361,705.582c-.371-5.778-1.131-11.374-3.482-14.757-1.546-2.225-3.963-4.734-6.556-4.945a8.093,8.093,0,0,0,3.271-6.555,7.635,7.635,0,1,0-15.254,0,8.094,8.094,0,0,0,3.31,6.586c-2.332.394-4.521,2.609-5.961,4.584-2.487,3.409-3.31,9.131-3.706,15.069a5.082,5.082,0,0,0,5.028,5.461h18.32a5.081,5.081,0,0,0,5.03-5.442" transform="translate(-5433.471 315.168)" fill="#fff"/>
    <path id="Trazado_226377" data-name="Trazado 226377" d="M6845.955,707.964h-18.32a6.263,6.263,0,0,1-4.616-2.009,6.5,6.5,0,0,1-1.726-4.857c.375-5.625,1.139-11.9,3.956-15.758a15.24,15.24,0,0,1,4.581-4.3,9.535,9.535,0,0,1-2.182-6.09,8.952,8.952,0,1,1,17.889,0,9.55,9.55,0,0,1-2.064,5.942,14.914,14.914,0,0,1,5.113,4.807c2.646,3.808,3.362,9.934,3.715,15.425a6.493,6.493,0,0,1-1.732,4.841,6.267,6.267,0,0,1-4.613,2m-9.363-39.693a6.507,6.507,0,0,0-6.309,6.674,6.789,6.789,0,0,0,2.763,5.517,1.318,1.318,0,0,1-.552,2.368c-1.562.264-3.427,1.745-5.117,4.061-2.435,3.338-3.125,9.438-3.455,14.38a3.8,3.8,0,0,0,1.021,2.881,3.653,3.653,0,0,0,2.691,1.174h18.32a3.656,3.656,0,0,0,2.69-1.171,3.793,3.793,0,0,0,1.024-2.869c-.31-4.828-.959-10.794-3.249-14.09-1.812-2.608-3.9-4.247-5.581-4.384a1.318,1.318,0,0,1-.67-2.377,6.8,6.8,0,0,0,2.73-5.492,6.507,6.507,0,0,0-6.309-6.674" transform="translate(-5429.096 319.546)" fill="#0e5489"/>
    <path id="Trazado_226378" data-name="Trazado 226378" d="M6845.339,734.187c2.586.219,5,2.73,6.541,4.951,2.351,3.383,3.111,8.979,3.482,14.757a5.081,5.081,0,0,1-5.03,5.442h-18.32a5.082,5.082,0,0,1-5.028-5.461c.4-5.938,1.219-11.659,3.706-15.069,1.423-1.952,3.577-4.143,5.877-4.576" transform="translate(-5433.471 266.854)" fill="#fff"/>
    <path id="Trazado_226379" data-name="Trazado 226379" d="M6845.956,756.277h-18.32a6.263,6.263,0,0,1-4.617-2.009,6.5,6.5,0,0,1-1.726-4.857c.375-5.625,1.139-11.9,3.956-15.758,1.21-1.66,3.69-4.528,6.7-5.094a1.318,1.318,0,0,1,.487,2.59c-1.545.291-3.388,1.769-5.057,4.057-2.435,3.338-3.125,9.438-3.455,14.38a3.8,3.8,0,0,0,1.021,2.881,3.653,3.653,0,0,0,2.692,1.174h18.319a3.658,3.658,0,0,0,2.691-1.172,3.794,3.794,0,0,0,1.024-2.869c-.31-4.828-.959-10.793-3.249-14.09-1.811-2.606-3.894-4.247-5.57-4.389a1.318,1.318,0,0,1,.223-2.626c3.4.289,6.167,3.577,7.512,5.512,2.646,3.808,3.363,9.934,3.714,15.425a6.49,6.49,0,0,1-1.731,4.841,6.266,6.266,0,0,1-4.613,2" transform="translate(-5429.095 271.232)" fill="#0e5489"/>
    <path id="Trazado_226380" data-name="Trazado 226380" d="M6869.755,679.323a7.635,7.635,0,1,1-7.626-7.992,7.816,7.816,0,0,1,7.626,7.992" transform="translate(-5454.632 315.168)" fill="#fff"/>
    <path id="Trazado_226381" data-name="Trazado 226381" d="M6857.751,684.255a9.317,9.317,0,1,1,8.944-9.31,9.143,9.143,0,0,1-8.944,9.31m0-15.984a6.685,6.685,0,1,0,6.309,6.674,6.507,6.507,0,0,0-6.309-6.674" transform="translate(-5450.254 319.546)" fill="#0e5489"/>
    <path id="Trazado_226382" data-name="Trazado 226382" d="M6625.489,811.991a6.22,6.22,0,0,1-6.153-6.684c.485-7.267,1.492-14.269,4.535-18.442,1.946-2.667,5.007-5.7,8.187-5.693q3.91.009,9.3.021c3.33,0,6.467,3.235,8.443,6.078,2.876,4.14,3.808,10.989,4.261,18.061a6.217,6.217,0,0,1-6.155,6.66Z" transform="translate(-5273.863 230.739)" fill="#fff"/>
    <path id="Trazado_226383" data-name="Trazado 226383" d="M6643.534,808.932h-22.421a7.371,7.371,0,0,1-5.434-2.366,7.659,7.659,0,0,1-2.034-5.723c.457-6.842,1.382-14.465,4.785-19.131,1.7-2.333,5.177-6.236,9.254-6.234l1.889,0q3.27.009,7.414.016c4.274.006,7.8,4.165,9.523,6.644,3.2,4.6,4.066,12.05,4.494,18.729a7.647,7.647,0,0,1-2.04,5.7,7.376,7.376,0,0,1-5.43,2.36m-15.865-30.82c-2.1,0-4.756,1.925-7.11,5.152-3.024,4.146-3.878,11.666-4.285,17.753a4.946,4.946,0,0,0,1.329,3.748,4.762,4.762,0,0,0,3.509,1.53h22.421a4.767,4.767,0,0,0,3.508-1.527,4.938,4.938,0,0,0,1.332-3.731c-.381-5.947-1.184-13.3-4.028-17.393-2.4-3.448-5.148-5.509-7.362-5.512q-4.144-.006-7.418-.016l-1.888,0h-.008" transform="translate(-5269.486 235.117)" fill="#0e5489"/>
    <path id="Trazado_226384" data-name="Trazado 226384" d="M6671.681,714.2a9.344,9.344,0,1,1-9.334-9.781,9.565,9.565,0,0,1,9.334,9.781" transform="translate(-5299.76 289.736)" fill="#fff"/>
    <path id="Trazado_226385" data-name="Trazado 226385" d="M6657.969,720.919a11.109,11.109,0,1,1,10.651-11.1,10.895,10.895,0,0,1-10.651,11.1m0-19.563a8.476,8.476,0,1,0,8.016,8.463,8.258,8.258,0,0,0-8.016-8.463" transform="translate(-5295.381 294.114)" fill="#0e5489"/>
    <path id="Trazado_226388" data-name="Trazado 226388" d="M6929.277,714.2a9.344,9.344,0,1,1-9.333-9.781,9.565,9.565,0,0,1,9.333,9.781" transform="translate(-5497.758 289.736)" fill="#fff"/>
    <path id="Trazado_226389" data-name="Trazado 226389" d="M6915.565,720.919a11.109,11.109,0,1,1,10.651-11.1,10.895,10.895,0,0,1-10.651,11.1m0-19.563a8.476,8.476,0,1,0,8.016,8.463,8.259,8.259,0,0,0-8.016-8.463" transform="translate(-5493.38 294.114)" fill="#0e5489"/>
    <path id="Trazado_226390" data-name="Trazado 226390" d="M6750.867,839.669a6.392,6.392,0,0,1-6.323-6.868c.5-7.468,1.533-14.664,4.66-18.952,2-2.741,5.146-5.859,8.413-5.85q4.018.01,9.562.021c3.422,0,6.646,3.324,8.676,6.246,2.956,4.255,3.913,11.293,4.379,18.56a6.39,6.39,0,0,1-6.326,6.845Z" transform="translate(-5370.102 210.119)" fill="#ffad5c"/>
    <path id="Trazado_226391" data-name="Trazado 226391" d="M6769.531,836.61H6746.49a7.538,7.538,0,0,1-5.558-2.42,7.829,7.829,0,0,1-2.081-5.854c.469-7.026,1.418-14.854,4.91-19.64,1.742-2.388,5.287-6.392,9.465-6.392h.016l1.928,0q3.366.009,7.633.016c4.375.006,7.99,4.27,9.756,6.812,3.28,4.721,4.172,12.369,4.612,19.228a7.823,7.823,0,0,1-2.087,5.834,7.545,7.545,0,0,1-5.553,2.413m-23.041-2.637h23.041a4.935,4.935,0,0,0,3.631-1.581,5.107,5.107,0,0,0,1.379-3.862c-.392-6.117-1.218-13.678-4.146-17.892-2.469-3.554-5.308-5.677-7.595-5.68q-4.266-.005-7.636-.016l-1.927-.005c-2.2.008-4.916,1.98-7.345,5.309-3.113,4.268-3.992,12-4.41,18.263a5.12,5.12,0,0,0,1.375,3.878,4.931,4.931,0,0,0,3.633,1.584" transform="translate(-5365.726 214.497)" fill="#0e5489"/>
    <path id="Trazado_226392" data-name="Trazado 226392" d="M6798.334,739.174a9.6,9.6,0,1,1-9.592-10.052,9.83,9.83,0,0,1,9.592,10.052" transform="translate(-5396.713 270.746)" fill="#fff"/>
    <path id="Trazado_226393" data-name="Trazado 226393" d="M6784.365,746.166a11.379,11.379,0,1,1,10.91-11.369,11.159,11.159,0,0,1-10.91,11.369m0-20.1a8.746,8.746,0,1,0,8.274,8.734,8.523,8.523,0,0,0-8.274-8.734" transform="translate(-5392.336 275.125)" fill="#0e5489"/>
    <path id="Trazado_226394" data-name="Trazado 226394" d="M6711.649,531.976h-60.4a11.422,11.422,0,0,0,0,22.842h17.271a14.564,14.564,0,0,1,10.2,4.186l2.726,2.675,2.725-2.675a14.566,14.566,0,0,1,10.2-4.186h17.271a11.422,11.422,0,0,0,0-22.842" transform="translate(-5289.73 422.281)" fill="#fff"/>
    <path id="Trazado_226396" data-name="Trazado 226396" d="M6811.07,568.623a4.426,4.426,0,1,1-4.425-4.479,4.452,4.452,0,0,1,4.425,4.479" transform="translate(-5414.445 397.556)" fill="#9ff5fc"/>
    <path id="Trazado_226397" data-name="Trazado 226397" d="M6802.266,570.042a5.8,5.8,0,1,1,5.743-5.8,5.777,5.777,0,0,1-5.743,5.8m0-8.958a3.162,3.162,0,1,0,3.107,3.161,3.138,3.138,0,0,0-3.107-3.161" transform="translate(-5410.066 401.934)" fill="#0e5489"/>
    <path id="Trazado_226398" data-name="Trazado 226398" d="M6744.156,568.623a4.425,4.425,0,1,1-4.425-4.479,4.452,4.452,0,0,1,4.425,4.479" transform="translate(-5363.014 397.556)" fill="#9ff5fc"/>
    <path id="Trazado_226399" data-name="Trazado 226399" d="M6735.353,570.042a5.8,5.8,0,1,1,5.743-5.8,5.777,5.777,0,0,1-5.743,5.8m0-8.958a3.162,3.162,0,1,0,3.107,3.161,3.138,3.138,0,0,0-3.107-3.161" transform="translate(-5358.635 401.934)" fill="#0e5489"/>
    <path id="Trazado_226400" data-name="Trazado 226400" d="M6877.982,568.623a4.426,4.426,0,1,1-4.425-4.479,4.452,4.452,0,0,1,4.425,4.479" transform="translate(-5465.877 397.556)" fill="#9ff5fc"/>
    <path id="Trazado_226401" data-name="Trazado 226401" d="M6869.179,570.042a5.8,5.8,0,1,1,5.743-5.8,5.777,5.777,0,0,1-5.743,5.8m0-8.958a3.162,3.162,0,1,0,3.107,3.161,3.138,3.138,0,0,0-3.107-3.161" transform="translate(-5461.499 401.934)" fill="#0e5489"/>
  </g>
</svg>
