<svg xmlns="http://www.w3.org/2000/svg" xmlns:xlink="http://www.w3.org/1999/xlink" width="505" height="309.147" viewBox="0 0 505 309.147">
  <defs>
    <clipPath id="clip-path">
      <rect id="Rectángulo_51055" data-name="Rectángulo 51055" width="505" height="309.147" fill="none"/>
    </clipPath>
    <clipPath id="clip-path-5">
      <rect id="Rectángulo_51018" data-name="Rectángulo 51018" width="12.627" height="13.846" fill="none"/>
    </clipPath>
    <clipPath id="clip-path-6">
      <rect id="Rectángulo_51019" data-name="Rectángulo 51019" width="9.302" height="9.135" fill="none"/>
    </clipPath>
    <clipPath id="clip-path-7">
      <rect id="Rectángulo_51020" data-name="Rectángulo 51020" width="18.297" height="3.43" fill="none"/>
    </clipPath>
    <clipPath id="clip-path-8">
      <rect id="Rectángulo_51021" data-name="Rectángulo 51021" width="11.218" height="3.233" fill="none"/>
    </clipPath>
    <clipPath id="clip-path-9">
      <rect id="Rectángulo_51022" data-name="Rectángulo 51022" width="4.987" height="17.46" fill="none"/>
    </clipPath>
    <clipPath id="clip-path-10">
      <rect id="Rectángulo_51023" data-name="Rectángulo 51023" width="18.778" height="13.395" fill="none"/>
    </clipPath>
    <clipPath id="clip-path-12">
      <rect id="Rectángulo_51025" data-name="Rectángulo 51025" width="20.926" height="15.579" fill="none"/>
    </clipPath>
    <clipPath id="clip-path-13">
      <rect id="Rectángulo_51026" data-name="Rectángulo 51026" width="16.977" height="49.477" fill="none"/>
    </clipPath>
    <clipPath id="clip-path-14">
      <rect id="Rectángulo_51027" data-name="Rectángulo 51027" width="24.75" height="27.115" fill="none"/>
    </clipPath>
    <clipPath id="clip-path-16">
      <rect id="Rectángulo_51030" data-name="Rectángulo 51030" width="1.15" height="1.151" fill="none"/>
    </clipPath>
    <clipPath id="clip-path-17">
      <rect id="Rectángulo_51031" data-name="Rectángulo 51031" width="1.151" height="1.151" fill="none"/>
    </clipPath>
    <clipPath id="clip-path-19">
      <rect id="Rectángulo_51036" data-name="Rectángulo 51036" width="34.003" height="30.472" fill="none"/>
    </clipPath>
    <clipPath id="clip-path-28">
      <rect id="Rectángulo_51049" data-name="Rectángulo 51049" width="1.472" height="1.472" fill="none"/>
    </clipPath>
    <clipPath id="clip-path-31">
      <rect id="Rectángulo_51053" data-name="Rectángulo 51053" width="24.499" height="24.499" fill="none"/>
    </clipPath>
  </defs>
  <g id="Grupo_117855" data-name="Grupo 117855" transform="translate(-810 -5577.549)">
    <g id="Grupo_115758" data-name="Grupo 115758" transform="translate(810 5577.549)">
      <g id="Grupo_115757" data-name="Grupo 115757" clip-path="url(#clip-path)">
        <rect id="Rectángulo_50979" data-name="Rectángulo 50979" width="70.699" height="102.475" transform="translate(422.384 0.001)" fill="#e0e0e0"/>
        <rect id="Rectángulo_50980" data-name="Rectángulo 50980" width="70.699" height="102.475" transform="translate(418.842 0.001)" fill="#f5f5f5"/>
        <rect id="Rectángulo_50981" data-name="Rectángulo 50981" width="53.131" height="80.278" transform="translate(427.626 11.1)" fill="#fff"/>
        <g id="Grupo_115675" data-name="Grupo 115675">
          <g id="Grupo_115674" data-name="Grupo 115674" clip-path="url(#clip-path)">
            <path id="Trazado_231245" data-name="Trazado 231245" d="M632.191,95.242s-.007-.136-.01-.393-.006-.643-.01-1.138c-.005-1.009-.012-2.486-.021-4.4-.011-3.848-.027-9.454-.047-16.537-.021-14.156-.052-34.2-.087-57.807l.177.176-53.125.016h-.007l.192-.193c-.014,30.284-.028,58.206-.038,80.278l-.154-.153,38.673.08,10.685.038,2.8.018c.635.005.97.016.97.016s-.313.011-.938.016l-2.776.018-10.65.039-38.768.08h-.153v-.154c-.011-22.071-.024-49.994-.039-80.278v-.192h.2l53.125.016h.176v.176c-.035,23.653-.066,43.739-.087,57.923-.02,7.065-.036,12.658-.047,16.5-.01,1.9-.016,3.367-.021,4.368q-.007.729-.01,1.118c0,.25-.01.372-.01.372" transform="translate(-151.434 -3.864)" fill="#e0e0e0"/>
            <path id="Trazado_231246" data-name="Trazado 231246" d="M659.836,0a12.248,12.248,0,0,1-1.26,1.831c-.821,1.1-1.986,2.592-3.317,4.207s-2.574,3.046-3.494,4.063a12.24,12.24,0,0,1-1.556,1.587,13.227,13.227,0,0,1,1.349-1.765l3.4-4.129,3.4-4.132A13.247,13.247,0,0,1,659.836,0" transform="translate(-170.096 0)" fill="#e0e0e0"/>
            <path id="Trazado_231247" data-name="Trazado 231247" d="M651.45,123.4a65.8,65.8,0,0,0,9.267,11.589" transform="translate(-170.421 -32.282)" fill="#fff"/>
            <path id="Trazado_231248" data-name="Trazado 231248" d="M660.716,134.99a10.56,10.56,0,0,1-1.616-1.47,51.794,51.794,0,0,1-6.573-8.221,10.59,10.59,0,0,1-1.078-1.9,14.568,14.568,0,0,1,1.3,1.746c.78,1.094,1.875,2.59,3.153,4.19s2.5,3,3.393,4a14.608,14.608,0,0,1,1.418,1.656" transform="translate(-170.42 -32.282)" fill="#e0e0e0"/>
            <path id="Trazado_231249" data-name="Trazado 231249" d="M567.219,134.624l9.26-11.425" transform="translate(-148.386 -32.229)" fill="#fff"/>
            <path id="Trazado_231250" data-name="Trazado 231250" d="M576.478,123.2A70.267,70.267,0,0,1,572,129.031a70.506,70.506,0,0,1-4.78,5.592,70.619,70.619,0,0,1,4.481-5.834,70.38,70.38,0,0,1,4.78-5.591" transform="translate(-148.385 -32.229)" fill="#e0e0e0"/>
            <path id="Trazado_231251" data-name="Trazado 231251" d="M567.232,0a63.8,63.8,0,0,1,4.495,5.373,63.9,63.9,0,0,1,4.193,5.612,63.956,63.956,0,0,1-4.495-5.373A63.935,63.935,0,0,1,567.232,0" transform="translate(-148.389 0)" fill="#e0e0e0"/>
            <rect id="Rectángulo_50982" data-name="Rectángulo 50982" width="17.79" height="50.512" transform="translate(446.414 27.399)" fill="#e0e0e0"/>
            <path id="Trazado_231252" data-name="Trazado 231252" d="M217.8,381.553v25.866h79.546V381.553Z" transform="translate(-56.977 -99.815)" fill="#f5f5f5"/>
            <path id="Trazado_231253" data-name="Trazado 231253" d="M213.281,371.759v7.232h85.665v-7.232H213.281Z" transform="translate(-55.795 -97.253)" fill="#e0e0e0"/>
            <path id="Trazado_231254" data-name="Trazado 231254" d="M270.7,404.857h40.051V378.991h2.781v-7.232h-44.5v6.563Z" transform="translate(-70.379 -97.253)" fill="#e0e0e0"/>
            <rect id="Rectángulo_50983" data-name="Rectángulo 50983" width="16.132" height="3.894" transform="translate(171.949 285.909)" fill="#e0e0e0"/>
            <rect id="Rectángulo_50984" data-name="Rectángulo 50984" width="20.714" height="8.222" transform="translate(169.873 294.67)" fill="#fff"/>
            <path id="Trazado_231255" data-name="Trazado 231255" d="M241.749,335.682v25.866h79.546V335.682Z" transform="translate(-63.242 -87.815)" fill="#f5f5f5"/>
            <path id="Trazado_231256" data-name="Trazado 231256" d="M237.229,325.888v7.232h85.665v-7.232H237.229Z" transform="translate(-62.06 -85.253)" fill="#e0e0e0"/>
            <path id="Trazado_231257" data-name="Trazado 231257" d="M294.645,358.986H334.7V333.12h2.782v-7.232h-44.5v6.563Z" transform="translate(-76.643 -85.253)" fill="#e0e0e0"/>
            <rect id="Rectángulo_50985" data-name="Rectángulo 50985" width="16.132" height="3.894" transform="translate(189.632 252.038)" fill="#e0e0e0"/>
            <rect id="Rectángulo_50986" data-name="Rectángulo 50986" width="20.714" height="8.222" transform="translate(187.556 260.799)" fill="#fff"/>
            <rect id="Rectángulo_50987" data-name="Rectángulo 50987" width="6.347" height="31.579" transform="translate(81.931 18.376) rotate(-0.307)" fill="#e0e0e0"/>
            <rect id="Rectángulo_50988" data-name="Rectángulo 50988" width="16.435" height="17.434" transform="translate(26.95 18.512) rotate(-0.306)" fill="#ebebeb"/>
            <rect id="Rectángulo_50989" data-name="Rectángulo 50989" width="16.435" height="17.434" transform="translate(43.307 18.424) rotate(-0.306)" fill="#f5f5f5"/>
            <path id="Trazado_231258" data-name="Trazado 231258" d="M36.481,31.406c10.922.09,21.871.027,32.792-.151a.175.175,0,0,0,0-.349c-10.922-.061-21.871-.007-32.791.2a.15.15,0,0,0,0,.3" transform="translate(-9.505 -8.079)" fill="#e0e0e0"/>
            <rect id="Rectángulo_50990" data-name="Rectángulo 50990" width="29.86" height="14.208" transform="translate(16.703 35.727) rotate(-0.307)" fill="#ebebeb"/>
            <rect id="Rectángulo_50991" data-name="Rectángulo 50991" width="29.86" height="14.208" transform="translate(46.421 35.568) rotate(-0.307)" fill="#f5f5f5"/>
            <path id="Trazado_231259" data-name="Trazado 231259" d="M22.6,53.489c19.836.224,39.742.023,59.578-.294a.175.175,0,0,0,0-.349c-19.838-.106-39.745-.094-59.578.344a.15.15,0,0,0,0,.3" transform="translate(-5.874 -13.81)" fill="#e0e0e0"/>
            <rect id="Rectángulo_50992" data-name="Rectángulo 50992" width="115.685" height="5.09" transform="translate(5.557 49.935)" fill="#e0e0e0"/>
            <rect id="Rectángulo_50993" data-name="Rectángulo 50993" width="4.696" height="17.368" transform="translate(24.497 52.382)" fill="#e0e0e0"/>
            <rect id="Rectángulo_50994" data-name="Rectángulo 50994" width="4.696" height="17.368" transform="translate(94.603 52.382)" fill="#e0e0e0"/>
            <rect id="Rectángulo_50995" data-name="Rectángulo 50995" width="6.347" height="43.433" transform="translate(88.124 6.6) rotate(-0.307)" fill="#ebebeb"/>
            <rect id="Rectángulo_50996" data-name="Rectángulo 50996" width="9.861" height="35.198" transform="translate(94.525 14.704) rotate(-0.309)" fill="#f5f5f5"/>
            <path id="Trazado_231260" data-name="Trazado 231260" d="M137.785,28.965a35.646,35.646,0,0,1-4.93.171,35.644,35.644,0,0,1-4.931-.171,35.721,35.721,0,0,1,4.931-.171,35.723,35.723,0,0,1,4.93.171" transform="translate(-33.465 -7.533)" fill="#e0e0e0"/>
            <path id="Trazado_231261" data-name="Trazado 231261" d="M137.785,26.962a35.723,35.723,0,0,1-4.93.171,35.72,35.72,0,0,1-4.931-.171,35.72,35.72,0,0,1,4.931-.171,35.723,35.723,0,0,1,4.93.171" transform="translate(-33.465 -7.009)" fill="#e0e0e0"/>
            <path id="Trazado_231262" data-name="Trazado 231262" d="M137.785,60.277a35.724,35.724,0,0,1-4.93.171,35.721,35.721,0,0,1-4.931-.171,35.718,35.718,0,0,1,4.931-.171,35.721,35.721,0,0,1,4.93.171" transform="translate(-33.465 -15.724)" fill="#e0e0e0"/>
            <path id="Trazado_231263" data-name="Trazado 231263" d="M137.785,58.274a35.722,35.722,0,0,1-4.93.171,35.719,35.719,0,0,1-4.931-.171,35.72,35.72,0,0,1,4.931-.171,35.723,35.723,0,0,1,4.93.171" transform="translate(-33.465 -15.2)" fill="#e0e0e0"/>
            <path id="Trazado_231264" data-name="Trazado 231264" d="M134.756,48.346c-.095,0-.171-3.551-.171-7.93s.077-7.931.171-7.931.171,3.55.171,7.931-.076,7.93-.171,7.93" transform="translate(-35.208 -8.498)" fill="#e0e0e0"/>
            <rect id="Rectángulo_50997" data-name="Rectángulo 50997" width="10.734" height="26.567" transform="translate(104.427 23.294)" fill="#ebebeb"/>
            <path id="Trazado_231265" data-name="Trazado 231265" d="M124.693,18.288a1.824,1.824,0,1,1-1.824-1.824,1.824,1.824,0,0,1,1.824,1.824" transform="translate(-31.666 -4.307)" fill="#e0e0e0"/>
            <rect id="Rectángulo_50998" data-name="Rectángulo 50998" width="1.128" height="25.838" transform="translate(90.64 18.997)" fill="#e0e0e0"/>
            <rect id="Rectángulo_50999" data-name="Rectángulo 50999" width="115.685" height="5.155" transform="translate(66.521 115.562)" fill="#e0e0e0"/>
            <rect id="Rectángulo_51000" data-name="Rectángulo 51000" width="4.696" height="17.592" transform="translate(85.462 118.041)" fill="#e0e0e0"/>
            <rect id="Rectángulo_51001" data-name="Rectángulo 51001" width="4.696" height="17.592" transform="translate(155.567 118.041)" fill="#e0e0e0"/>
            <path id="Trazado_231266" data-name="Trazado 231266" d="M187.369,96.329c.188-.183,1.475.751,3.164,2.677a30.151,30.151,0,0,1,2.683,3.611,34.45,34.45,0,0,1,4.34,10.146,30.482,30.482,0,0,1,.765,4.453c.232,2.566.025,4.156-.236,4.169-.608.044-1.16-6.166-4.156-13.057-2.913-6.924-7.009-11.581-6.561-12" transform="translate(-49.007 -25.194)" fill="#ebebeb"/>
            <path id="Trazado_231267" data-name="Trazado 231267" d="M203.454,115.395c-.263.036-.992-3.363-1.667-8.933s-1.251-13.3-1.472-21.844-.133-16.279.032-21.872.432-9.051.711-9.051.531,3.458.725,9.047.333,13.306.561,21.82.555,16.2.873,21.772.529,9.022.236,9.062" transform="translate(-52.368 -14.047)" fill="#ebebeb"/>
            <path id="Trazado_231268" data-name="Trazado 231268" d="M216.825,71.476c.261.151-.8,2.527-2.192,6.493-1.422,3.953-3.17,9.5-4.886,15.692-1.682,6.2-3.01,11.869-3.8,16-.827,4.125-1.127,6.715-1.428,6.708-.26,0-.466-2.673.009-6.928A108.99,108.99,0,0,1,207.79,93.11,108.672,108.672,0,0,1,213.3,77.417c1.76-3.894,3.3-6.076,3.521-5.941" transform="translate(-53.43 -18.697)" fill="#ebebeb"/>
            <path id="Trazado_231269" data-name="Trazado 231269" d="M183.16,127.632v6.8a14.332,14.332,0,1,0,28.662,0v-6.8Z" transform="translate(-47.915 -33.389)" fill="#e0e0e0"/>
            <path id="Trazado_231270" data-name="Trazado 231270" d="M212.082,135.353c0,.114-6.475.206-14.46.206s-14.461-.092-14.461-.206,6.474-.206,14.461-.206,14.46.092,14.46.206" transform="translate(-47.915 -35.355)" fill="#fafafa"/>
            <path id="Trazado_231271" data-name="Trazado 231271" d="M212.082,137.91c0,.114-6.475.206-14.46.206s-14.461-.092-14.461-.206,6.474-.206,14.461-.206,14.46.092,14.46.206" transform="translate(-47.915 -36.024)" fill="#fafafa"/>
            <rect id="Rectángulo_51002" data-name="Rectángulo 51002" width="31.579" height="6.429" transform="translate(81.107 92.598) rotate(-0.303)" fill="#e0e0e0"/>
            <rect id="Rectángulo_51003" data-name="Rectángulo 51003" width="35.198" height="9.989" transform="translate(81.264 105.742) rotate(-0.305)" fill="#f5f5f5"/>
            <path id="Trazado_231272" data-name="Trazado 231272" d="M148.55,152.847a36.583,36.583,0,0,1-.171-4.995,36.574,36.574,0,0,1,.171-4.995,36.646,36.646,0,0,1,.171,4.995,36.656,36.656,0,0,1-.171,4.995" transform="translate(-38.816 -37.372)" fill="#e0e0e0"/>
            <path id="Trazado_231273" data-name="Trazado 231273" d="M150.553,152.847a36.653,36.653,0,0,1-.171-4.995,36.644,36.644,0,0,1,.171-4.995,36.653,36.653,0,0,1,.171,4.995,36.662,36.662,0,0,1-.171,4.995" transform="translate(-39.34 -37.372)" fill="#e0e0e0"/>
            <path id="Trazado_231274" data-name="Trazado 231274" d="M117.239,152.847a36.655,36.655,0,0,1-.171-4.995,36.646,36.646,0,0,1,.171-4.995,36.648,36.648,0,0,1,.171,4.995,36.657,36.657,0,0,1-.171,4.995" transform="translate(-30.625 -37.372)" fill="#e0e0e0"/>
            <path id="Trazado_231275" data-name="Trazado 231275" d="M119.24,152.847a36.579,36.579,0,0,1-.171-4.995,36.57,36.57,0,0,1,.171-4.995,36.647,36.647,0,0,1,.171,4.995,36.657,36.657,0,0,1-.171,4.995" transform="translate(-31.149 -37.372)" fill="#e0e0e0"/>
            <path id="Trazado_231276" data-name="Trazado 231276" d="M123.671,149.779c0-.1,3.55-.173,7.93-.173s7.931.078,7.931.173-3.55.173-7.931.173-7.93-.078-7.93-.173" transform="translate(-32.353 -39.137)" fill="#e0e0e0"/>
            <rect id="Rectángulo_51004" data-name="Rectángulo 51004" width="43.433" height="6.429" transform="translate(86.265 98.935) rotate(-0.303)" fill="#ebebeb"/>
            <path id="Trazado_231277" data-name="Trazado 231277" d="M166.545,139.828a2.079,2.079,0,1,1,2.053-2.079,2.066,2.066,0,0,1-2.053,2.079" transform="translate(-43.032 -35.492)" fill="#e0e0e0"/>
            <rect id="Rectángulo_51005" data-name="Rectángulo 51005" width="29.074" height="1.286" transform="translate(88.794 101.614)" fill="#e0e0e0"/>
          </g>
        </g>
        <path id="Trazado_231278" data-name="Trazado 231278" d="M0,418.413H0Z" transform="translate(0 -109.458)" fill="#263238"/>
        <g id="Grupo_115677" data-name="Grupo 115677">
          <g id="Grupo_115676" data-name="Grupo 115676" clip-path="url(#clip-path)">
            <path id="Trazado_231279" data-name="Trazado 231279" d="M505,418.345c0,.106-113.057.192-252.488.192C113.033,418.537,0,418.451,0,418.345s113.033-.192,252.512-.192c139.431,0,252.488.086,252.488.192" transform="translate(0 -109.39)" fill="#263238"/>
          </g>
        </g>
        <rect id="Rectángulo_51008" data-name="Rectángulo 51008" width="47.587" height="4.598" transform="translate(362.032 207.552)" fill="#263238"/>
        <rect id="Rectángulo_51009" data-name="Rectángulo 51009" width="47.587" height="4.599" transform="translate(356.93 238.685)" fill="#263238"/>
        <rect id="Rectángulo_51010" data-name="Rectángulo 51010" width="47.587" height="4.598" transform="translate(370.773 174.025)" fill="#263238"/>
        <rect id="Rectángulo_51011" data-name="Rectángulo 51011" width="47.587" height="4.598" transform="translate(376.595 142.457)" fill="#263238"/>
        <rect id="Rectángulo_51012" data-name="Rectángulo 51012" width="47.587" height="4.598" transform="translate(346.728 270.005)" fill="#263238"/>
        <path id="Trazado_231280" data-name="Trazado 231280" d="M453.932,349.6h7.97l42.634-193.919-8.071-.31Z" transform="translate(-118.75 -40.646)" fill="#263238"/>
        <path id="Trazado_231281" data-name="Trazado 231281" d="M521.3,349.6h7.97l42.634-193.919-8.071-.31Z" transform="translate(-136.375 -40.646)" fill="#263238"/>
        <path id="Trazado_231282" data-name="Trazado 231282" d="M517.285,151.953l44.494,196.753h7.347L525.041,151.953Z" transform="translate(-135.323 -39.751)" fill="#455a64"/>
        <path id="Trazado_231283" data-name="Trazado 231283" d="M582.391,151.953l44.494,196.753h7.348L590.147,151.953Z" transform="translate(-152.355 -39.751)" fill="#455a64"/>
        <path id="Trazado_231284" data-name="Trazado 231284" d="M508.22,150.77v4.092h67.989V150.14Z" transform="translate(-132.952 -39.277)" fill="#455a64"/>
        <rect id="Rectángulo_51013" data-name="Rectángulo 51013" width="47.587" height="4.599" transform="translate(401.803 174.956)" fill="#455a64"/>
        <rect id="Rectángulo_51014" data-name="Rectángulo 51014" width="47.587" height="4.599" transform="translate(411.086 207.408)" fill="#455a64"/>
        <rect id="Rectángulo_51015" data-name="Rectángulo 51015" width="47.587" height="4.599" transform="translate(416.452 238.685)" fill="#455a64"/>
        <rect id="Rectángulo_51016" data-name="Rectángulo 51016" width="47.587" height="4.598" transform="translate(424.451 272.313)" fill="#455a64"/>
        <rect id="Rectángulo_51017" data-name="Rectángulo 51017" width="47.587" height="4.598" transform="translate(393.38 142.457)" fill="#455a64"/>
        <g id="Grupo_115697" data-name="Grupo 115697">
          <g id="Grupo_115696" data-name="Grupo 115696" clip-path="url(#clip-path)">
            <path id="Trazado_231285" data-name="Trazado 231285" d="M578,50.932l.086,28.329-11.046.526L566.594,73s-5.329.809-6.443-3.2c-.712-2.561-.534-22.353-.534-22.353Z" transform="translate(-146.393 -12.412)" fill="#b78876"/>
            <path id="Trazado_231286" data-name="Trazado 231286" d="M555.741,48.665c.819,1.692,4.717,4.79,4.717,4.79l1.761,4.72c1.529-1.2,3.583-1.129,3.972,1.559.281,1.942-2.134,2.335-2.134,2.335a35.225,35.225,0,0,0,4.406,6.6c2.216,2.463,3.457,2.711,5.86,2.751h2.649s5.421-4.53,4.35-16.463-11.8-8.45-14.359-11.432c-4.171-4.855-13.955-.515-11.222,5.136" transform="translate(-145.259 -10.838)" fill="#263238"/>
            <path id="Trazado_231287" data-name="Trazado 231287" d="M563.664,42.59a11.343,11.343,0,0,0-1.942.794,5.836,5.836,0,0,0-1.845,8.636,11.377,11.377,0,0,0,1.449,1.518,1.423,1.423,0,0,1-.513-.269,5.22,5.22,0,0,1-1.153-1.085,5.908,5.908,0,0,1,1.93-9.037,5.2,5.2,0,0,1,1.495-.52,1.435,1.435,0,0,1,.58-.036" transform="translate(-146.06 -11.138)" fill="#455a64"/>
            <path id="Trazado_231288" data-name="Trazado 231288" d="M566.026,49.318c.021.057-.367.22-.91.6a5.616,5.616,0,0,0-2.44,4.307,7.706,7.706,0,0,1-.048,1.088,2.058,2.058,0,0,1-.224-1.094,5.071,5.071,0,0,1,2.569-4.532,2.061,2.061,0,0,1,1.054-.369" transform="translate(-147.126 -12.899)" fill="#455a64"/>
            <path id="Trazado_231289" data-name="Trazado 231289" d="M494.2,138.5a4.254,4.254,0,1,1,4.254-4.253A4.253,4.253,0,0,1,494.2,138.5" transform="translate(-128.172 -34.006)" fill="#ffca28"/>
            <path id="Trazado_231290" data-name="Trazado 231290" d="M527.695,120.337l-5.335,13.629-21.439,1.81,0-.024-.442-.119c-.408-.267-.885-.6-1.42-1a5.162,5.162,0,0,1-1.19-1.276,9.61,9.61,0,0,1-.944-1.731c-.01-.045-.03-.1-.037-.14a.669.669,0,0,0-.1-.257.66.66,0,0,0-1.186-.03c-.215.517.108,2.085,1.2,3.65.016.026.028.051.045.077,1.066,1.618-1.8.679-2.847.355s-4.337-1.172-4.684-.926c-.507.36-.207.987.847,1.286s4.159,1.418,3.976,1.968-5.5-1.179-5.5-1.179-1.082-.553-1.314.075c-.419,1.131,5.359,2.541,5.912,2.662.385.083.207.688-.2.576s-5.27-1.841-5.708-.693c-.336.881,4.743,1.205,5.566,2.124s-3.837-.642-4.123.213c-.107.318-.142.572,2.652,1.08a61.069,61.069,0,0,0,6.653.531l.624.077.027-.085,25.757-.327c3.775,0,6.906-.613,8.1-4.2l4.4-13.265Z" transform="translate(-127.479 -31.481)" fill="#b78876"/>
            <path id="Trazado_231291" data-name="Trazado 231291" d="M638.27,281.2l-4.329-3.968,7.382-8.158,6.4,5.74-.425.535c-1.912,2.364-9.888,11.885-11.706,12.977-2.028,1.218,2.683-7.126,2.683-7.126" transform="translate(-165.841 -70.391)" fill="#4dd0e1"/>
            <g id="Grupo_115680" data-name="Grupo 115680" transform="translate(469.251 204.272)" opacity="0.4">
              <g id="Grupo_115679" data-name="Grupo 115679">
                <g id="Grupo_115678" data-name="Grupo 115678" clip-path="url(#clip-path-5)">
                  <path id="Trazado_231292" data-name="Trazado 231292" d="M636.5,287.367s-1.5,3.063-.823,3.123,9.1-9.26,12.452-13.7l-.194-.152L638.2,287.6s-1.254-.686-1.7-.229" transform="translate(-635.499 -276.643)" fill="#fff"/>
                </g>
              </g>
            </g>
            <path id="Trazado_231293" data-name="Trazado 231293" d="M648.056,276.463a.967.967,0,0,1-.112.154l-.34.425-1.277,1.541c-1.087,1.294-2.613,3.061-4.34,4.976s-3.331,3.613-4.506,4.827l-1.4,1.428-.388.381a.983.983,0,0,1-.142.127,1.078,1.078,0,0,1,.123-.145l.37-.4,1.371-1.457c1.158-1.23,2.748-2.938,4.476-4.851s3.262-3.67,4.368-4.948l1.309-1.513.359-.409a1.033,1.033,0,0,1,.132-.137" transform="translate(-166.261 -72.324)" fill="#263238"/>
            <path id="Trazado_231294" data-name="Trazado 231294" d="M638.629,291.442a2.9,2.9,0,0,0-1.983-.371,1.778,1.778,0,0,1,1.983.371" transform="translate(-166.548 -76.104)" fill="#263238"/>
            <path id="Trazado_231295" data-name="Trazado 231295" d="M640.246,286.8a1.167,1.167,0,0,1-.546-.026c-.3-.05-.529-.12-.523-.157a2.241,2.241,0,0,1,1.069.183" transform="translate(-167.211 -74.974)" fill="#263238"/>
            <path id="Trazado_231296" data-name="Trazado 231296" d="M640.635,285.537c0,.037-.2.088-.452.114s-.462.018-.466-.018.2-.088.452-.114.462-.018.466.018" transform="translate(-167.352 -74.688)" fill="#263238"/>
            <path id="Trazado_231297" data-name="Trazado 231297" d="M640.158,284.039c.027.024-.12.237-.332.475s-.4.411-.43.387.12-.237.331-.475.4-.411.43-.387" transform="translate(-167.267 -74.305)" fill="#263238"/>
            <path id="Trazado_231298" data-name="Trazado 231298" d="M639.585,283.181a1.126,1.126,0,0,1-.292.6c-.229.3-.488.46-.51.431s.187-.232.4-.513.362-.535.4-.518" transform="translate(-167.107 -74.081)" fill="#263238"/>
            <path id="Trazado_231299" data-name="Trazado 231299" d="M638.633,286.354a2.014,2.014,0,0,1-.477.521,4.145,4.145,0,0,1-.628.447,2.077,2.077,0,0,1-.42.2.386.386,0,0,1-.281-.018.277.277,0,0,1-.137-.269,1.3,1.3,0,0,1,1.356-.936,1.266,1.266,0,0,1,.505.145c.109.06.158.108.154.114a1.977,1.977,0,0,0-.663-.165,1.272,1.272,0,0,0-.7.185,1.1,1.1,0,0,0-.522.664c-.014.139.114.195.252.152a2.087,2.087,0,0,0,.392-.181,4.862,4.862,0,0,0,.629-.413c.34-.264.521-.464.537-.449" transform="translate(-166.56 -74.896)" fill="#263238"/>
            <path id="Trazado_231300" data-name="Trazado 231300" d="M638.941,286.063a.7.7,0,0,1-.419-.269,1.162,1.162,0,0,1-.254-.49.709.709,0,0,1,.128-.678.28.28,0,0,1,.388.057.781.781,0,0,1,.154.3,2.141,2.141,0,0,1,.093.535,1.016,1.016,0,0,1-.059.492c-.021,0,0-.19-.035-.484a2.43,2.43,0,0,0-.116-.5c-.046-.173-.2-.4-.343-.292a.63.63,0,0,0-.089.546,1.169,1.169,0,0,0,.207.457,2.563,2.563,0,0,0,.346.328" transform="translate(-166.965 -74.445)" fill="#263238"/>
            <path id="Trazado_231301" data-name="Trazado 231301" d="M648.794,273.955c.017.018-.233.213-.523.622a3.446,3.446,0,0,0-.228,3.678c.237.441.461.665.442.682s-.067-.044-.165-.148a2.907,2.907,0,0,1-.36-.487,3.342,3.342,0,0,1,.235-3.78,2.884,2.884,0,0,1,.417-.439.632.632,0,0,1,.182-.127" transform="translate(-169.384 -71.667)" fill="#263238"/>
            <path id="Trazado_231302" data-name="Trazado 231302" d="M643.623,270.943a38.226,38.226,0,0,1,3.392,2.989,38.158,38.158,0,0,1-3.392-2.989" transform="translate(-168.374 -70.879)" fill="#263238"/>
            <path id="Trazado_231303" data-name="Trazado 231303" d="M645.8,281.192a9.041,9.041,0,0,1-2.133,2.406c-.026-.029.488-.532,1.075-1.2s1.026-1.232,1.058-1.209" transform="translate(-168.384 -73.56)" fill="#263238"/>
            <path id="Trazado_231304" data-name="Trazado 231304" d="M648.5,279.023c.038,0,.074.145.147.311s.154.292.127.319-.167-.075-.249-.266-.06-.364-.024-.364" transform="translate(-169.64 -72.993)" fill="#263238"/>
            <path id="Trazado_231305" data-name="Trazado 231305" d="M648.211,277.288c.037,0,.074.128.083.289s-.013.295-.049.3-.075-.128-.084-.289.013-.295.05-.3" transform="translate(-169.56 -72.539)" fill="#263238"/>
            <path id="Trazado_231306" data-name="Trazado 231306" d="M648.711,275.7c.023.031-.077.138-.142.3s-.081.3-.118.307-.089-.165,0-.36.247-.275.265-.244" transform="translate(-169.624 -72.122)" fill="#263238"/>
            <path id="Trazado_231307" data-name="Trazado 231307" d="M649.3,274.67c.035.013.034.1,0,.189s-.092.155-.126.143-.034-.1,0-.19.091-.155.125-.142" transform="translate(-169.819 -71.854)" fill="#263238"/>
            <g id="Grupo_115683" data-name="Grupo 115683" transform="translate(469.584 200.01)" opacity="0.3">
              <g id="Grupo_115682" data-name="Grupo 115682">
                <g id="Grupo_115681" data-name="Grupo 115681" clip-path="url(#clip-path-6)">
                  <path id="Trazado_231308" data-name="Trazado 231308" d="M645.253,272.77l-8.273,7.236-1.03-.924,7.475-8.212Z" transform="translate(-635.95 -270.871)"/>
                </g>
              </g>
            </g>
            <path id="Trazado_231309" data-name="Trazado 231309" d="M589.964,315.137,589,309.345l10.839-1.884,1.507,8.459-.665.16c-2.962.686-15.109,3.279-17.214,3.021-2.348-.289,6.5-3.964,6.5-3.964" transform="translate(-152.532 -80.433)" fill="#4dd0e1"/>
            <g id="Grupo_115686" data-name="Grupo 115686" transform="translate(430.512 235.248)" opacity="0.4">
              <g id="Grupo_115685" data-name="Grupo 115685">
                <g id="Grupo_115684" data-name="Grupo 115684" clip-path="url(#clip-path-7)">
                  <path id="Trazado_231310" data-name="Trazado 231310" d="M585.66,320.006s-3.066,1.492-2.571,1.954,12.87-1.7,18.244-3.127l-.059-.239-14.412,2.641s-.566-1.312-1.2-1.229" transform="translate(-583.036 -318.593)" fill="#fff"/>
                </g>
              </g>
            </g>
            <path id="Trazado_231311" data-name="Trazado 231311" d="M601.449,318.544a1.016,1.016,0,0,1-.182.053l-.53.126-1.955.428c-1.653.35-3.944.8-6.484,1.249s-4.849.8-6.523,1.031l-1.984.261-.541.062a1.041,1.041,0,0,1-.19.013,1.055,1.055,0,0,1,.186-.039l.537-.086,1.977-.3c1.67-.256,3.975-.624,6.514-1.068s4.831-.884,6.488-1.21l1.963-.387.535-.1a1.077,1.077,0,0,1,.188-.027" transform="translate(-152.531 -83.332)" fill="#263238"/>
            <path id="Trazado_231312" data-name="Trazado 231312" d="M587.788,321.859a2.9,2.9,0,0,0-1.335-1.513,1.777,1.777,0,0,1,1.335,1.513" transform="translate(-153.418 -83.802)" fill="#263238"/>
            <path id="Trazado_231313" data-name="Trazado 231313" d="M591.949,319.159c-.027.025-.213-.134-.414-.356s-.343-.422-.315-.446.213.134.414.356.343.421.315.446" transform="translate(-154.664 -83.283)" fill="#263238"/>
            <path id="Trazado_231314" data-name="Trazado 231314" d="M593.01,318.433c-.02.031-.21-.053-.427-.188s-.375-.27-.356-.3.211.053.427.188.375.27.356.3" transform="translate(-154.928 -83.173)" fill="#263238"/>
            <path id="Trazado_231315" data-name="Trazado 231315" d="M593.4,317.085a2.515,2.515,0,1,1-.577.04,1.291,1.291,0,0,1,.577-.04" transform="translate(-154.939 -82.946)" fill="#263238"/>
            <path id="Trazado_231316" data-name="Trazado 231316" d="M593.437,316.068a1.615,1.615,0,0,1-1.266.32,47.513,47.513,0,0,0,1.266-.32" transform="translate(-154.914 -82.683)" fill="#263238"/>
            <path id="Trazado_231317" data-name="Trazado 231317" d="M590.725,317.984a2.044,2.044,0,0,1-.7.117,4.266,4.266,0,0,1-.77-.034,2.079,2.079,0,0,1-.455-.1.383.383,0,0,1-.21-.186.279.279,0,0,1,.058-.3,1.3,1.3,0,0,1,1.644.1,1.261,1.261,0,0,1,.308.425.394.394,0,0,1,.051.185,2.01,2.01,0,0,0-.421-.539,1.273,1.273,0,0,0-.662-.283,1.1,1.1,0,0,0-.82.2c-.1.1-.03.224.106.275a2.111,2.111,0,0,0,.42.1,4.945,4.945,0,0,0,.75.061c.43,0,.7-.044.7-.023" transform="translate(-153.972 -82.989)" fill="#263238"/>
            <path id="Trazado_231318" data-name="Trazado 231318" d="M591.192,317.82a.7.7,0,0,1-.165-.47,1.168,1.168,0,0,1,.1-.542.711.711,0,0,1,.518-.456.281.281,0,0,1,.27.284.782.782,0,0,1-.064.332,2.178,2.178,0,0,1-.255.478c-.182.251-.34.363-.35.351s.117-.149.271-.4a2.464,2.464,0,0,0,.219-.469c.07-.164.089-.439-.091-.441s-.325.218-.407.376a1.157,1.157,0,0,0-.118.487,2.594,2.594,0,0,0,.07.472" transform="translate(-154.614 -82.759)" fill="#263238"/>
            <path id="Trazado_231319" data-name="Trazado 231319" d="M605.774,314.575c0,.025-.315.024-.8.168a3.447,3.447,0,0,0-2.444,2.758c-.084.493-.046.809-.071.81a.656.656,0,0,1-.038-.219,2.915,2.915,0,0,1,.016-.605,3.343,3.343,0,0,1,2.512-2.835,2.9,2.9,0,0,1,.6-.089.634.634,0,0,1,.222.012" transform="translate(-157.594 -82.29)" fill="#263238"/>
            <path id="Trazado_231320" data-name="Trazado 231320" d="M604.375,308.738a38.439,38.439,0,0,1,.834,4.444,38.439,38.439,0,0,1-.834-4.444" transform="translate(-158.105 -80.767)" fill="#263238"/>
            <path id="Trazado_231321" data-name="Trazado 231321" d="M599.257,318.616a9.01,9.01,0,0,1-3.162.583c0-.038.712-.119,1.583-.281s1.568-.339,1.579-.3" transform="translate(-155.94 -83.35)" fill="#263238"/>
            <path id="Trazado_231322" data-name="Trazado 231322" d="M603.172,318.111c.031.021-.032.16-.075.335s-.058.326-.1.33-.086-.162-.033-.363.177-.324.2-.3" transform="translate(-157.732 -83.218)" fill="#263238"/>
            <path id="Trazado_231323" data-name="Trazado 231323" d="M603.98,316.573c.03.021-.02.146-.112.279s-.192.224-.222.2.02-.145.112-.279.192-.224.222-.2" transform="translate(-157.913 -82.816)" fill="#263238"/>
            <path id="Trazado_231324" data-name="Trazado 231324" d="M605.338,315.674c0,.038-.145.062-.295.145s-.25.189-.282.169.032-.185.218-.286.364-.064.359-.029" transform="translate(-158.205 -82.572)" fill="#263238"/>
            <path id="Trazado_231325" data-name="Trazado 231325" d="M606.49,315.2c.019.032-.033.1-.117.148s-.167.066-.186.035.033-.1.117-.148.167-.066.186-.035" transform="translate(-158.579 -82.452)" fill="#263238"/>
            <g id="Grupo_115689" data-name="Grupo 115689" transform="translate(436.783 229.042)" opacity="0.3">
              <g id="Grupo_115688" data-name="Grupo 115688">
                <g id="Grupo_115687" data-name="Grupo 115687" clip-path="url(#clip-path-8)">
                  <path id="Trazado_231326" data-name="Trazado 231326" d="M602.746,312.811l-10.974.61-.243-1.362,10.945-1.87Z" transform="translate(-591.528 -310.188)"/>
                </g>
              </g>
            </g>
            <path id="Trazado_231327" data-name="Trazado 231327" d="M537.447,83.042,517.091,62.361l-.44-2.238c-.085-.41-.17-.868-.249-1.387a5.489,5.489,0,0,1,.032-1.822,8.262,8.262,0,0,1,.628-2.167c.343-.6-.206-1.321-.773-1.074s-1.551,1.874-1.764,4.108-2.118-.73-2.832-1.8-3.07-4.266-3.562-4.3c-.721-.055-.905.726-.168,1.775s2.73,4.354,2.166,4.707l-.021,0a2.662,2.662,0,0,0-2.812,1.395c-.514.986-1.086,2.386-.617,3.031a36.642,36.642,0,0,0,3.246,3.438l.682.586s17.611,25.519,21.449,26.347c2.387.516,39.293,3.578,39.293,3.578l2.784-10.168Z" transform="translate(-132.503 -13.519)" fill="#b78876"/>
            <path id="Trazado_231328" data-name="Trazado 231328" d="M506.526,65.361l1.883,1.808a2.25,2.25,0,0,0,.71.521.676.676,0,0,0,.933-.889,2.233,2.233,0,0,0-.433-.67l-1.83-2.2" transform="translate(-132.509 -16.725)" fill="#b78876"/>
            <path id="Trazado_231329" data-name="Trazado 231329" d="M507.788,63.93c.041-.034.394.316.933.909l.931,1.054a3.5,3.5,0,0,1,.519.7,1,1,0,0,1-.052,1.046.923.923,0,0,1-1.03.236,2.08,2.08,0,0,1-.738-.52l-.986-1a4.457,4.457,0,0,1-.84-1,4.425,4.425,0,0,1,1.029.8l1.042.944a1.833,1.833,0,0,0,.616.419.559.559,0,0,0,.606-.118.64.64,0,0,0,.013-.646,3.485,3.485,0,0,0-.451-.638l-.868-1.107a4.419,4.419,0,0,1-.724-1.082" transform="translate(-132.508 -16.724)" fill="#aa6550"/>
            <path id="Trazado_231330" data-name="Trazado 231330" d="M508.336,63.579l1.883,1.808a2.25,2.25,0,0,0,.71.521.676.676,0,0,0,.933-.889,2.235,2.235,0,0,0-.433-.67l-1.83-2.2" transform="translate(-132.982 -16.258)" fill="#b78876"/>
            <path id="Trazado_231331" data-name="Trazado 231331" d="M509.6,62.147c.041-.034.394.316.933.909l.93,1.054a3.492,3.492,0,0,1,.519.7,1,1,0,0,1-.052,1.046.923.923,0,0,1-1.03.236,2.08,2.08,0,0,1-.738-.52l-.986-1a4.455,4.455,0,0,1-.84-1,4.423,4.423,0,0,1,1.029.8l1.042.944a1.833,1.833,0,0,0,.616.419.559.559,0,0,0,.606-.118.638.638,0,0,0,.013-.646,3.449,3.449,0,0,0-.451-.638l-.868-1.107a4.449,4.449,0,0,1-.724-1.082" transform="translate(-132.981 -16.257)" fill="#aa6550"/>
            <path id="Trazado_231332" data-name="Trazado 231332" d="M510.322,62.117l1.883,1.808a2.25,2.25,0,0,0,.71.521.676.676,0,0,0,.933-.889,2.232,2.232,0,0,0-.433-.67l-1.83-2.2" transform="translate(-133.502 -15.876)" fill="#b78876"/>
            <path id="Trazado_231333" data-name="Trazado 231333" d="M511.584,60.686c.041-.034.394.316.933.909l.93,1.054a3.493,3.493,0,0,1,.519.7,1,1,0,0,1-.052,1.046.923.923,0,0,1-1.03.236,2.08,2.08,0,0,1-.738-.52l-.986-1a4.453,4.453,0,0,1-.84-1,4.427,4.427,0,0,1,1.029.8l1.042.944a1.833,1.833,0,0,0,.616.419.559.559,0,0,0,.606-.118.64.64,0,0,0,.012-.646,3.444,3.444,0,0,0-.451-.638l-.868-1.107a4.448,4.448,0,0,1-.724-1.082" transform="translate(-133.501 -15.875)" fill="#aa6550"/>
            <path id="Trazado_231334" data-name="Trazado 231334" d="M514.353,65.773c-.005-.061.467-.155,1.147.054l-.217.185a3.217,3.217,0,0,1-.048-1.293,3.292,3.292,0,0,1,.705-1.574c.29-.339.535-.473.566-.436a6.739,6.739,0,0,0-.891,2.072,3.828,3.828,0,0,0-.011,1.167l.04.3-.257-.109c-.589-.251-1.037-.285-1.034-.36" transform="translate(-134.556 -16.403)" fill="#aa6550"/>
            <path id="Trazado_231335" data-name="Trazado 231335" d="M552.485,113.479l-1.884,6.384-11.961-5.415c.43-1.337,2.408-7.291,6.2-16.738a16.241,16.241,0,0,1,12.4-9.993,70.906,70.906,0,0,1,11.452-1.123c6.707.074,16.581,4.266,17.907,10.84,1.013,5.019-2.314,36.4-2.314,36.4l1.991,11.9-34.885-1.916Z" transform="translate(-140.91 -22.653)" fill="#4dd0e1"/>
            <path id="Trazado_231336" data-name="Trazado 231336" d="M556.2,92.768c0,.03.344.051.914.275a4.769,4.769,0,0,1,1.98,1.6,6.676,6.676,0,0,1,1.183,3.581,22.528,22.528,0,0,1-.362,4.712,78.916,78.916,0,0,1-1.921,8.425c-.283,1.031-.517,1.884-.695,2.53a5.927,5.927,0,0,0-.22.939,6.1,6.1,0,0,0,.332-.906c.193-.588.466-1.444.786-2.506a65.478,65.478,0,0,0,2.012-8.436,21.78,21.78,0,0,0,.341-4.778,6.755,6.755,0,0,0-1.289-3.688,4.674,4.674,0,0,0-2.107-1.585,3.452,3.452,0,0,0-.7-.16.786.786,0,0,0-.251-.006" transform="translate(-145.503 -24.267)" fill="#263238"/>
            <path id="Trazado_231337" data-name="Trazado 231337" d="M587.406,94.631c0,.043-8.056.077-17.992.077s-17.993-.034-17.993-.077,8.054-.077,17.993-.077,17.992.035,17.992.077" transform="translate(-144.253 -24.736)" fill="#f5f5f5"/>
            <path id="Trazado_231338" data-name="Trazado 231338" d="M588.781,102.722c0,.043-9.463.077-21.133.077s-21.134-.034-21.134-.077,9.46-.077,21.134-.077,21.133.035,21.133.077" transform="translate(-142.97 -26.852)" fill="#f5f5f5"/>
            <path id="Trazado_231339" data-name="Trazado 231339" d="M587.939,111.134c0,.043-9.96.078-22.242.078s-22.244-.035-22.244-.078,9.957-.076,22.244-.076,22.242.035,22.242.076" transform="translate(-142.169 -29.053)" fill="#f5f5f5"/>
            <path id="Trazado_231340" data-name="Trazado 231340" d="M586.545,118.334c0,.043-10.3.077-23,.077s-23-.034-23-.077,10.3-.077,23-.077,23,.035,23,.077" transform="translate(-141.409 -30.936)" fill="#f5f5f5"/>
            <path id="Trazado_231341" data-name="Trazado 231341" d="M590.745,126.356c0,.042-7.553.064-16.867.049s-16.869-.062-16.869-.1,7.551-.064,16.869-.049,16.867.062,16.867.1" transform="translate(-145.715 -33.026)" fill="#f5f5f5"/>
            <path id="Trazado_231342" data-name="Trazado 231342" d="M590.355,132.615c0,.042-7.465.064-16.672.049s-16.674-.062-16.674-.1,7.464-.064,16.674-.049,16.672.063,16.672.1" transform="translate(-145.715 -34.664)" fill="#f5f5f5"/>
            <path id="Trazado_231343" data-name="Trazado 231343" d="M589.32,138.8c0,.044-7.355.066-16.426.051s-16.427-.061-16.427-.1,7.354-.066,16.427-.051,16.426.061,16.426.1" transform="translate(-145.573 -36.281)" fill="#f5f5f5"/>
            <path id="Trazado_231344" data-name="Trazado 231344" d="M589.461,145.384s-.114.01-.33.015l-.945.013-3.479.005c-2.937-.01-6.994-.069-11.473-.161l-11.473-.207L558.284,145l-.946-.016c-.216-.006-.329-.016-.329-.016s.114-.01.329-.015l.946-.013,3.478-.006c2.937.01,6.994.069,11.475.162l11.472.207,3.477.044.945.016c.216.005.33.016.33.016" transform="translate(-145.715 -37.917)" fill="#f5f5f5"/>
            <path id="Trazado_231345" data-name="Trazado 231345" d="M588.6,151.235c0,.042-7.217.066-16.118.051s-16.119-.06-16.119-.1,7.216-.065,16.119-.051,16.118.061,16.118.1" transform="translate(-145.547 -39.536)" fill="#f5f5f5"/>
            <path id="Trazado_231346" data-name="Trazado 231346" d="M589.77,157.457c0,.042-7.479.064-16.7.049s-16.7-.063-16.7-.1,7.477-.064,16.7-.049,16.7.062,16.7.1" transform="translate(-145.547 -41.163)" fill="#f5f5f5"/>
            <path id="Trazado_231347" data-name="Trazado 231347" d="M590.421,163.739c0,.042-7.728.133-17.26.2s-17.262.092-17.262.049,7.727-.133,17.261-.2,17.261-.091,17.261-.049" transform="translate(-145.425 -42.829)" fill="#f5f5f5"/>
            <path id="Trazado_231348" data-name="Trazado 231348" d="M552.291,125.84c0,.042-2.692-.089-6.006-.294s-6-.4-6-.447,2.691.089,6.006.294,6,.405,6,.447" transform="translate(-141.341 -32.724)" fill="#f5f5f5"/>
            <path id="Trazado_231349" data-name="Trazado 231349" d="M585.3,141.742a1.049,1.049,0,0,1-.322.055c-.213.018-.526.064-.932.07a18.568,18.568,0,0,1-3.433-.19,20.19,20.19,0,0,1-16.457-14,18.54,18.54,0,0,1-.738-3.357c-.059-.4-.064-.718-.08-.931a1.094,1.094,0,0,1,0-.326,10.061,10.061,0,0,1,.226,1.235,21.894,21.894,0,0,0,.848,3.295,20.555,20.555,0,0,0,16.24,13.816,21.891,21.891,0,0,0,3.389.309,10.2,10.2,0,0,1,1.255.025" transform="translate(-147.369 -32.193)" fill="#263238"/>
            <g id="Grupo_115692" data-name="Grupo 115692" transform="translate(411.229 75.87)" opacity="0.2">
              <g id="Grupo_115691" data-name="Grupo 115691">
                <g id="Grupo_115690" data-name="Grupo 115690" clip-path="url(#clip-path-9)">
                  <path id="Trazado_231350" data-name="Trazado 231350" d="M556.986,120.154a16.747,16.747,0,0,0,3.963-17.4q-2.181,8.69-4.029,17.46" transform="translate(-556.921 -102.749)"/>
                </g>
              </g>
            </g>
            <g id="Grupo_115695" data-name="Grupo 115695" transform="translate(416.621 95.983)" opacity="0.2">
              <g id="Grupo_115694" data-name="Grupo 115694">
                <g id="Grupo_115693" data-name="Grupo 115693" clip-path="url(#clip-path-10)">
                  <path id="Trazado_231351" data-name="Trazado 231351" d="M564.612,129.988a13.734,13.734,0,0,0,9.42,7.31c1.521.313,3.089.363,4.6.711a6.231,6.231,0,0,1,3.894,2.347,2.114,2.114,0,0,1,.106,2.506c-.63.7-1.748.569-2.658.327a24.736,24.736,0,0,1-15.752-13.049" transform="translate(-564.224 -129.988)"/>
                </g>
              </g>
            </g>
            <path id="Trazado_231352" data-name="Trazado 231352" d="M555.9,164.088l24.668,110.006h13.953l-13.634-95.51,2.564-8.11-1.534-5.377Z" transform="translate(-145.425 -42.926)" fill="#263238"/>
            <path id="Trazado_231353" data-name="Trazado 231353" d="M581.005,178.468c1.207,1.286.466,41.293.466,41.293l39.177,32.828,9.447-8.241-32.148-30.576.972-36.911-2-11.23-17.566-.841Z" transform="translate(-151.56 -43.11)" fill="#263238"/>
            <path id="Trazado_231354" data-name="Trazado 231354" d="M594,170.6a2.979,2.979,0,0,1,.148.8,5.542,5.542,0,0,1-.369,2.288,13.265,13.265,0,0,1-1.816,3.186,13.129,13.129,0,0,0-2.279,4.187,13.842,13.842,0,0,0,.049,5.763l1.148,6.637c.786,4.68,1.593,9.833,2.416,15.246,1.622,10.819,3.091,20.611,4.159,27.733.549,3.523,1,6.383,1.311,8.4.151.969.271,1.732.357,2.282.034.244.062.439.083.6a.8.8,0,0,1,.016.2.811.811,0,0,1-.054-.2l-.121-.589-.428-2.271c-.358-1.975-.854-4.837-1.432-8.379-1.164-7.082-2.632-16.889-4.271-27.717-.822-5.412-1.619-10.566-2.386-15.246-.391-2.338-.763-4.561-1.113-6.643a14.026,14.026,0,0,1,0-5.884,13.169,13.169,0,0,1,2.367-4.241,13.523,13.523,0,0,0,1.85-3.114A5.518,5.518,0,0,0,594,170.6" transform="translate(-154.113 -44.629)" fill="#455a64"/>
            <path id="Trazado_231355" data-name="Trazado 231355" d="M603.341,231.28c.024.111-.995.386-2.14.967s-1.98,1.222-2.055,1.137a5.976,5.976,0,0,1,4.195-2.1" transform="translate(-156.737 -60.495)" fill="#455a64"/>
          </g>
        </g>
        <g id="Grupo_115708" data-name="Grupo 115708">
          <g id="Grupo_115707" data-name="Grupo 115707" clip-path="url(#clip-path)">
            <path id="Trazado_231356" data-name="Trazado 231356" d="M123.671,369.176a51.193,51.193,0,0,1,5.631-10.685,6.786,6.786,0,0,1,2.911-2.731c2.121-.808,4.409.491,6.3,1.738l4.385,2.885c.258.169.538.374.584.679.08.54-.6.852-1.142.916a7.833,7.833,0,0,1-5.319-1.314c-1.18-.813-2.327-2.016-3.753-1.865-1.771.187-2.561,2.243-3.247,3.885a17.472,17.472,0,0,1-7.459,8.405" transform="translate(-32.064 -93.002)" fill="#4dd0e1"/>
            <path id="Trazado_231357" data-name="Trazado 231357" d="M123.527,357.73c.339-8.774.687-17.619,2.788-26.144s6.11-16.815,12.713-22.6c-.873,7.394-3.558,14.436-6.221,21.388q-5.377,14.044-10.756,28.089" transform="translate(-31.929 -80.831)" fill="#4dd0e1"/>
            <path id="Trazado_231358" data-name="Trazado 231358" d="M113.213,369.917a97.4,97.4,0,0,0-6.666-23.234,5.743,5.743,0,0,0-2.025-2.849c-1.5-.9-3.427-.309-5.025.4a40.854,40.854,0,0,0-10.465,6.755,1.486,1.486,0,0,0-.559.788,1.034,1.034,0,0,0,.814,1.068,3.017,3.017,0,0,0,1.455-.092l8.772-2.029a3.436,3.436,0,0,1,4.786,2.4l8.618,17.366" transform="translate(-23.142 -89.829)" fill="#4dd0e1"/>
            <g id="Grupo_115700" data-name="Grupo 115700" transform="translate(90.504 262.507)" opacity="0.4">
              <g id="Grupo_115699" data-name="Grupo 115699">
                <g id="Grupo_115698" data-name="Grupo 115698" clip-path="url(#clip-path-12)">
                  <path id="Trazado_231359" data-name="Trazado 231359" d="M123.671,369.176a51.193,51.193,0,0,1,5.631-10.685,6.786,6.786,0,0,1,2.911-2.731c2.121-.808,4.409.491,6.3,1.738l4.385,2.885c.258.169.538.374.584.679.08.54-.6.852-1.142.916a7.833,7.833,0,0,1-5.319-1.314c-1.18-.813-2.327-2.016-3.753-1.865-1.771.187-2.561,2.243-3.247,3.885a17.472,17.472,0,0,1-7.459,8.405" transform="translate(-122.568 -355.509)"/>
                </g>
              </g>
            </g>
            <g id="Grupo_115703" data-name="Grupo 115703" transform="translate(90.122 228.152)" opacity="0.4">
              <g id="Grupo_115702" data-name="Grupo 115702">
                <g id="Grupo_115701" data-name="Grupo 115701" clip-path="url(#clip-path-13)">
                  <path id="Trazado_231360" data-name="Trazado 231360" d="M123.527,357.73c.339-8.774.687-17.619,2.788-26.144s6.11-16.815,12.713-22.6c-.873,7.394-3.558,14.436-6.221,21.388q-5.377,14.044-10.756,28.089" transform="translate(-122.051 -308.983)"/>
                </g>
              </g>
            </g>
            <g id="Grupo_115706" data-name="Grupo 115706" transform="translate(65.321 253.549)" opacity="0.3">
              <g id="Grupo_115705" data-name="Grupo 115705">
                <g id="Grupo_115704" data-name="Grupo 115704" clip-path="url(#clip-path-14)">
                  <path id="Trazado_231361" data-name="Trazado 231361" d="M113.213,369.917a97.4,97.4,0,0,0-6.666-23.234,5.743,5.743,0,0,0-2.025-2.849c-1.5-.9-3.427-.309-5.025.4a40.854,40.854,0,0,0-10.465,6.755,1.486,1.486,0,0,0-.559.788,1.034,1.034,0,0,0,.814,1.068,3.017,3.017,0,0,0,1.455-.092l8.772-2.029a3.436,3.436,0,0,1,4.786,2.4l8.618,17.366" transform="translate(-88.463 -343.377)"/>
                </g>
              </g>
            </g>
            <path id="Trazado_231362" data-name="Trazado 231362" d="M135.025,289.724a52.283,52.283,0,0,0-12.224,30.9c-.825,18.68-1.924,32.14-1.924,32.14h2.061s4.12-37.635,6.867-44.228,7.005-15.933,5.22-18.817" transform="translate(-31.622 -75.793)" fill="#4dd0e1"/>
            <path id="Trazado_231363" data-name="Trazado 231363" d="M135.313,289.724a4.139,4.139,0,0,1-.258.6L134.261,292c-.679,1.466-1.622,3.6-2.673,6.294s-2.2,5.932-3.294,9.588a98.051,98.051,0,0,0-2.87,12.064c-.37,2.169-.54,4.309-.7,6.383s-.275,4.075-.388,5.982c-.223,3.816-.456,7.255-.772,10.132s-.687,5.192-1.012,6.778c-.148.8-.3,1.405-.4,1.82a4.245,4.245,0,0,1-.172.627,4.151,4.151,0,0,1,.1-.644c.072-.419.2-1.032.329-1.83.278-1.591.618-3.9.888-6.778s.484-6.308.688-10.125c.1-1.909.216-3.913.366-5.989s.323-4.233.695-6.417a94.563,94.563,0,0,1,2.91-12.1c1.118-3.661,2.3-6.9,3.381-9.587s2.069-4.811,2.79-6.259c.354-.727.662-1.276.86-1.653a4.09,4.09,0,0,1,.326-.562" transform="translate(-31.91 -75.793)" fill="#263238"/>
            <path id="Trazado_231364" data-name="Trazado 231364" d="M144.082,313.409s-13.913,13.283-15.478,25.81-2.378,19.242-2.378,19.242H127.6s3.3-17.856,7.555-23.488,9.889-20.053,8.928-21.564" transform="translate(-33.021 -81.989)" fill="#4dd0e1"/>
            <path id="Trazado_231365" data-name="Trazado 231365" d="M144.286,314.582a2.178,2.178,0,0,1-.2.422l-.649,1.173L141,320.465c-2.036,3.625-4.856,8.64-7.413,14.442a73.762,73.762,0,0,0-4.975,15.406c-.4,2.037-.624,3.7-.748,4.859-.074.577-.1,1.027-.142,1.331a2.082,2.082,0,0,1-.072.464,2.25,2.25,0,0,1-.005-.468c.014-.306.018-.76.069-1.34a46.926,46.926,0,0,1,.63-4.9,69.138,69.138,0,0,1,4.89-15.511,142.008,142.008,0,0,1,7.529-14.422c1.054-1.8,1.925-3.236,2.535-4.228.291-.466.526-.842.711-1.136a2.067,2.067,0,0,1,.271-.383" transform="translate(-33.392 -82.296)" fill="#263238"/>
            <path id="Trazado_231366" data-name="Trazado 231366" d="M113.84,316.571s-2.06,26.234,2.747,41.893h1.648s1.1-33.926-4.395-41.893" transform="translate(-29.666 -82.816)" fill="#4dd0e1"/>
            <path id="Trazado_231367" data-name="Trazado 231367" d="M115.532,323.289a1.387,1.387,0,0,1,.066.369c.03.287.067.638.111,1.063.086.983.2,2.306.342,3.915.272,3.307.62,7.877.981,12.926s.668,9.624.869,12.936c.091,1.613.165,2.939.22,3.924.016.427.03.78.04,1.069a1.377,1.377,0,0,1-.012.374,1.369,1.369,0,0,1-.065-.368c-.03-.287-.067-.638-.112-1.063-.086-.983-.2-2.306-.342-3.915-.271-3.307-.62-7.878-.981-12.929s-.668-9.624-.87-12.935c-.09-1.612-.164-2.938-.219-3.923-.016-.428-.03-.78-.04-1.068a1.369,1.369,0,0,1,.012-.374" transform="translate(-30.22 -84.573)" fill="#263238"/>
            <path id="Trazado_231368" data-name="Trazado 231368" d="M107.121,371.248s5.046,3.623,4.787,5.3-12.421,10.739-11.645,17.855,6.6,12.034,16.562,11.645,16.691-6.6,15.785-12.939-10.792-16.415-10.905-16.9c-.325-1.392,4.436-4.963,4.436-4.963Z" transform="translate(-26.22 -97.12)" fill="#263238"/>
            <path id="Trazado_231369" data-name="Trazado 231369" d="M128.313,383.633c0,.106-3.674.192-8.205.192s-8.206-.086-8.206-.192,3.673-.192,8.206-.192,8.205.086,8.205.192" transform="translate(-29.274 -100.309)" fill="#fafafa"/>
            <path id="Trazado_231370" data-name="Trazado 231370" d="M128.846,385.966c0,.106-4.329.192-9.669.192s-9.669-.086-9.669-.192,4.328-.192,9.669-.192,9.669.086,9.669.192" transform="translate(-28.648 -100.92)" fill="#fafafa"/>
            <path id="Trazado_231371" data-name="Trazado 231371" d="M129.962,388.545c0,.106-5.115.192-11.424.192s-11.425-.086-11.425-.192,5.114-.192,11.425-.192,11.424.086,11.424.192" transform="translate(-28.021 -101.594)" fill="#fafafa"/>
            <path id="Trazado_231372" data-name="Trazado 231372" d="M130.812,391.983c0,.106-5.9.192-13.169.192s-13.17-.086-13.17-.192,5.9-.192,13.17-.192,13.169.086,13.169.192" transform="translate(-27.33 -102.494)" fill="#fafafa"/>
          </g>
        </g>
        <rect id="Rectángulo_51029" data-name="Rectángulo 51029" width="79.3" height="32.21" transform="translate(238.154 256.812)" fill="#fff"/>
        <g id="Grupo_115740" data-name="Grupo 115740">
          <g id="Grupo_115739" data-name="Grupo 115739" clip-path="url(#clip-path)">
            <path id="Trazado_231373" data-name="Trazado 231373" d="M401.785,379.963s-.006-.2-.009-.575-.006-.94-.01-1.671c-.005-1.47-.013-3.629-.022-6.41-.011-5.559-.027-13.6-.047-23.554l.088.088-79.294.038h-.006l.126-.126c0,11.28,0,22.167-.005,32.21l-.12-.12,56.857.057,16.494.033,4.415.015,1.142.007c.258,0,.393.007.393.007s-.125.005-.378.007l-1.128.007-4.39.016-16.465.033-56.939.057h-.12v-.12c0-10.043,0-20.931-.006-32.21v-.126h.131l79.294.037h.089v.088c-.02,9.975-.036,18.035-.047,23.607-.01,2.773-.017,4.925-.022,6.39,0,.724-.007,1.277-.01,1.655s-.009.558-.009.558" transform="translate(-84.33 -90.94)" fill="#263238"/>
            <path id="Trazado_231374" data-name="Trazado 231374" d="M322.636,353.635c0-.069,17.725-.125,39.585-.125s39.589.056,39.589.125-17.721.126-39.589.126-39.585-.056-39.585-.126" transform="translate(-84.403 -92.479)" fill="#263238"/>
            <g id="Grupo_115711" data-name="Grupo 115711" transform="translate(240.403 258.638)" opacity="0.3">
              <g id="Grupo_115710" data-name="Grupo 115710">
                <g id="Grupo_115709" data-name="Grupo 115709" clip-path="url(#clip-path-16)">
                  <path id="Trazado_231375" data-name="Trazado 231375" d="M326.724,350.845a.576.576,0,1,1-.575-.575.575.575,0,0,1,.575.575" transform="translate(-325.574 -350.27)" fill="#263238"/>
                </g>
              </g>
            </g>
            <g id="Grupo_115714" data-name="Grupo 115714" transform="translate(242.374 258.638)" opacity="0.3">
              <g id="Grupo_115713" data-name="Grupo 115713">
                <g id="Grupo_115712" data-name="Grupo 115712" clip-path="url(#clip-path-17)">
                  <path id="Trazado_231376" data-name="Trazado 231376" d="M329.4,350.845a.576.576,0,1,1-.575-.575.575.575,0,0,1,.575.575" transform="translate(-328.244 -350.27)" fill="#263238"/>
                </g>
              </g>
            </g>
            <g id="Grupo_115717" data-name="Grupo 115717" transform="translate(244.319 258.638)" opacity="0.3">
              <g id="Grupo_115716" data-name="Grupo 115716">
                <g id="Grupo_115715" data-name="Grupo 115715" clip-path="url(#clip-path-16)">
                  <path id="Trazado_231377" data-name="Trazado 231377" d="M332.027,350.845a.576.576,0,1,1-.575-.575.575.575,0,0,1,.575.575" transform="translate(-330.877 -350.27)" fill="#263238"/>
                </g>
              </g>
            </g>
            <rect id="Rectángulo_51033" data-name="Rectángulo 51033" width="19.154" height="19.154" transform="translate(244.894 266.391)" fill="#455a64"/>
            <path id="Trazado_231378" data-name="Trazado 231378" d="M406.895,367.678c0,.069-9.857.126-22.012.126s-22.015-.056-22.015-.126,9.855-.126,22.015-.126,22.012.056,22.012.126" transform="translate(-94.927 -96.153)" fill="#263238"/>
            <path id="Trazado_231379" data-name="Trazado 231379" d="M406.895,372.962c0,.069-9.857.126-22.012.126s-22.015-.056-22.015-.126,9.855-.126,22.015-.126,22.012.056,22.012.126" transform="translate(-94.927 -97.535)" fill="#263238"/>
            <path id="Trazado_231380" data-name="Trazado 231380" d="M391.21,378.247a1.236,1.236,0,0,1-.288.025l-.825.024-3.037.04-10.019.037-10.022-.037-3.037-.04-.826-.024a.145.145,0,1,1,0-.05l.826-.024,3.037-.04,10.022-.037,10.019.037,3.037.04.825.024a1.245,1.245,0,0,1,.288.025" transform="translate(-94.927 -98.918)" fill="#263238"/>
            <rect id="Rectángulo_51034" data-name="Rectángulo 51034" width="34.003" height="30.472" transform="translate(296.582 278.483)" fill="#4dd0e1"/>
            <g id="Grupo_115720" data-name="Grupo 115720" transform="translate(296.582 278.483)" opacity="0.2">
              <g id="Grupo_115719" data-name="Grupo 115719">
                <g id="Grupo_115718" data-name="Grupo 115718" clip-path="url(#clip-path-19)">
                  <rect id="Rectángulo_51035" data-name="Rectángulo 51035" width="34.003" height="30.472" transform="translate(0 0)"/>
                </g>
              </g>
            </g>
            <rect id="Rectángulo_51037" data-name="Rectángulo 51037" width="79.3" height="32.21" transform="translate(230.773 254.119)" fill="#fff"/>
            <path id="Trazado_231381" data-name="Trazado 231381" d="M391.788,376.316s-.006-.2-.009-.575-.006-.94-.01-1.671c-.005-1.47-.013-3.629-.022-6.41-.011-5.56-.027-13.6-.048-23.554l.089.088-79.294.038h-.006l.126-.126c0,11.28,0,22.167-.005,32.21l-.12-.12,56.857.057,16.494.033,4.415.016,1.142.007c.258,0,.393.007.393.007s-.125.005-.378.007l-1.128.007-4.39.015-16.466.033-56.939.057h-.12v-.12c0-10.043,0-20.931-.006-32.21v-.126h.131l79.294.037h.089v.089c-.02,9.975-.036,18.035-.047,23.607-.01,2.773-.017,4.925-.022,6.39,0,.724-.007,1.277-.01,1.655s-.009.557-.009.557" transform="translate(-81.715 -89.986)" fill="#263238"/>
            <path id="Trazado_231382" data-name="Trazado 231382" d="M312.64,349.988c0-.069,17.725-.126,39.585-.126s39.588.056,39.588.126-17.721.125-39.588.125-39.585-.056-39.585-.125" transform="translate(-81.788 -91.525)" fill="#263238"/>
            <g id="Grupo_115723" data-name="Grupo 115723" transform="translate(233.021 255.944)" opacity="0.3">
              <g id="Grupo_115722" data-name="Grupo 115722">
                <g id="Grupo_115721" data-name="Grupo 115721" clip-path="url(#clip-path-17)">
                  <path id="Trazado_231383" data-name="Trazado 231383" d="M316.728,347.2a.576.576,0,1,1-.575-.575.575.575,0,0,1,.575.575" transform="translate(-315.577 -346.622)" fill="#263238"/>
                </g>
              </g>
            </g>
            <g id="Grupo_115726" data-name="Grupo 115726" transform="translate(234.993 255.944)" opacity="0.3">
              <g id="Grupo_115725" data-name="Grupo 115725">
                <g id="Grupo_115724" data-name="Grupo 115724" clip-path="url(#clip-path-17)">
                  <path id="Trazado_231384" data-name="Trazado 231384" d="M319.4,347.2a.576.576,0,1,1-.575-.575.575.575,0,0,1,.575.575" transform="translate(-318.248 -346.622)" fill="#263238"/>
                </g>
              </g>
            </g>
            <g id="Grupo_115729" data-name="Grupo 115729" transform="translate(236.937 255.944)" opacity="0.3">
              <g id="Grupo_115728" data-name="Grupo 115728">
                <g id="Grupo_115727" data-name="Grupo 115727" clip-path="url(#clip-path-17)">
                  <path id="Trazado_231385" data-name="Trazado 231385" d="M322.031,347.2a.576.576,0,1,1-.575-.575.575.575,0,0,1,.575.575" transform="translate(-320.88 -346.622)" fill="#263238"/>
                </g>
              </g>
            </g>
            <rect id="Rectángulo_51041" data-name="Rectángulo 51041" width="19.154" height="19.154" transform="translate(237.513 263.698)" fill="#455a64"/>
            <path id="Trazado_231386" data-name="Trazado 231386" d="M396.9,364.03c0,.069-9.857.126-22.012.126s-22.014-.056-22.014-.126,9.854-.126,22.014-.126,22.012.056,22.012.126" transform="translate(-92.313 -95.198)" fill="#263238"/>
            <path id="Trazado_231387" data-name="Trazado 231387" d="M396.9,369.314c0,.069-9.857.126-22.012.126s-22.014-.056-22.014-.126,9.854-.126,22.014-.126,22.012.056,22.012.126" transform="translate(-92.313 -96.581)" fill="#263238"/>
            <path id="Trazado_231388" data-name="Trazado 231388" d="M381.214,374.6a1.238,1.238,0,0,1-.288.025l-.826.024-3.037.04-10.019.037-10.021-.037-3.037-.04-.825-.024a.145.145,0,1,1,0-.05l.825-.024,3.037-.04,10.021-.037,10.019.037,3.037.04.826.024a1.243,1.243,0,0,1,.288.025" transform="translate(-92.312 -97.963)" fill="#263238"/>
            <rect id="Rectángulo_51042" data-name="Rectángulo 51042" width="79.3" height="32.21" transform="translate(225.376 260.808)" fill="#fff"/>
            <path id="Trazado_231389" data-name="Trazado 231389" d="M384.48,385.375s-.006-.2-.009-.575-.006-.94-.01-1.671c-.005-1.47-.013-3.629-.022-6.41-.011-5.559-.027-13.6-.048-23.554l.089.088-79.294.038h-.006l.126-.126c0,11.28,0,22.167-.005,32.21l-.12-.12,56.857.057,16.494.033,4.414.016,1.143.007c.258,0,.393.007.393.007s-.126.005-.378.007l-1.128.007-4.39.015-16.466.033-56.939.057h-.12v-.12c0-10.043,0-20.931-.006-32.21v-.126h.131l79.294.037h.089v.088c-.02,9.975-.036,18.035-.047,23.607-.01,2.773-.017,4.925-.022,6.39,0,.724-.007,1.277-.01,1.655s-.009.557-.009.557" transform="translate(-79.803 -92.356)" fill="#263238"/>
            <path id="Trazado_231390" data-name="Trazado 231390" d="M305.332,359.048c0-.069,17.724-.126,39.585-.126s39.589.056,39.589.126-17.722.125-39.589.125-39.585-.056-39.585-.125" transform="translate(-79.876 -93.895)" fill="#263238"/>
            <g id="Grupo_115732" data-name="Grupo 115732" transform="translate(227.625 262.634)" opacity="0.3">
              <g id="Grupo_115731" data-name="Grupo 115731">
                <g id="Grupo_115730" data-name="Grupo 115730" clip-path="url(#clip-path-16)">
                  <path id="Trazado_231391" data-name="Trazado 231391" d="M309.42,356.257a.576.576,0,1,1-.576-.575.576.576,0,0,1,.576.575" transform="translate(-308.269 -355.682)" fill="#263238"/>
                </g>
              </g>
            </g>
            <g id="Grupo_115735" data-name="Grupo 115735" transform="translate(229.596 262.634)" opacity="0.3">
              <g id="Grupo_115734" data-name="Grupo 115734">
                <g id="Grupo_115733" data-name="Grupo 115733" clip-path="url(#clip-path-17)">
                  <path id="Trazado_231392" data-name="Trazado 231392" d="M312.09,356.257a.576.576,0,1,1-.575-.575.575.575,0,0,1,.575.575" transform="translate(-310.939 -355.682)" fill="#263238"/>
                </g>
              </g>
            </g>
            <g id="Grupo_115738" data-name="Grupo 115738" transform="translate(231.541 262.634)" opacity="0.3">
              <g id="Grupo_115737" data-name="Grupo 115737">
                <g id="Grupo_115736" data-name="Grupo 115736" clip-path="url(#clip-path-16)">
                  <path id="Trazado_231393" data-name="Trazado 231393" d="M314.722,356.257a.576.576,0,1,1-.575-.575.575.575,0,0,1,.575.575" transform="translate(-313.572 -355.682)" fill="#263238"/>
                </g>
              </g>
            </g>
            <rect id="Rectángulo_51046" data-name="Rectángulo 51046" width="19.154" height="19.154" transform="translate(232.116 270.388)" fill="#455a64"/>
            <path id="Trazado_231394" data-name="Trazado 231394" d="M389.59,373.09c0,.069-9.856.126-22.012.126s-22.015-.056-22.015-.126,9.855-.126,22.015-.126,22.012.056,22.012.126" transform="translate(-90.4 -97.569)" fill="#263238"/>
            <path id="Trazado_231395" data-name="Trazado 231395" d="M389.59,378.374c0,.069-9.856.126-22.012.126s-22.015-.056-22.015-.126,9.855-.126,22.015-.126,22.012.056,22.012.126" transform="translate(-90.4 -98.951)" fill="#263238"/>
            <path id="Trazado_231396" data-name="Trazado 231396" d="M373.906,383.659a1.248,1.248,0,0,1-.289.025l-.826.024-3.036.04-10.021.037-10.021-.037-3.036-.04-.826-.024a.145.145,0,1,1,0-.05l.826-.024,3.036-.04,10.021-.037,10.021.037,3.036.04.826.024a1.246,1.246,0,0,1,.289.025" transform="translate(-90.4 -100.333)" fill="#263238"/>
            <path id="Trazado_231397" data-name="Trazado 231397" d="M294.5,407.617h95.753V377.145H294.5Zm51.262-18.475H331.289a3.112,3.112,0,0,1,0-6.218h14.477a3.112,3.112,0,0,1,0,6.218" transform="translate(-77.043 -98.662)" fill="#4dd0e1"/>
          </g>
        </g>
        <g id="Grupo_115742" data-name="Grupo 115742">
          <g id="Grupo_115741" data-name="Grupo 115741" clip-path="url(#clip-path)">
            <path id="Trazado_231398" data-name="Trazado 231398" d="M209.69,324.116a4.254,4.254,0,1,1,4.254-4.254,4.254,4.254,0,0,1-4.254,4.254" transform="translate(-53.743 -82.564)" fill="#ffca28"/>
            <path id="Trazado_231399" data-name="Trazado 231399" d="M30.995,402.68a4.254,4.254,0,1,1,4.254-4.254,4.254,4.254,0,0,1-4.254,4.254" transform="translate(-6.996 -103.117)" fill="#ffca28"/>
            <path id="Trazado_231400" data-name="Trazado 231400" d="M323.734,151.352a4.254,4.254,0,1,1,4.254-4.254,4.254,4.254,0,0,1-4.254,4.254" transform="translate(-83.577 -37.368)" fill="#ffca28"/>
            <path id="Trazado_231401" data-name="Trazado 231401" d="M407.89,239.687a4.254,4.254,0,1,1,4.254-4.254,4.254,4.254,0,0,1-4.254,4.254" transform="translate(-105.592 -60.477)" fill="#ffca28"/>
            <path id="Trazado_231402" data-name="Trazado 231402" d="M507.2,54.427a4.254,4.254,0,1,1,4.254-4.254,4.254,4.254,0,0,1-4.254,4.254" transform="translate(-131.572 -12.013)" fill="#ffca28"/>
            <path id="Trazado_231403" data-name="Trazado 231403" d="M121.138,257.717a4.254,4.254,0,1,1,4.254-4.254,4.254,4.254,0,0,1-4.254,4.254" transform="translate(-30.577 -65.194)" fill="#ffca28"/>
            <path id="Trazado_231404" data-name="Trazado 231404" d="M384.026,51.68s-.109.221-.334.65l-1.009,1.909-3.954,7.43L363.7,89.8l-53.514,99.963-.11.207-.16-.171-62.442-66.772.3-.026-31.585,48.458L163.479,252.3l-.11.168-.157-.126L98.956,200.931l.23-.039L50.4,279.475,36.885,301.2l-3.552,5.688c-.8,1.283-1.229,1.938-1.229,1.938s.4-.671,1.189-1.963l3.513-5.712,13.445-21.773L98.92,200.727l.092-.149.137.11,64.29,51.367-.267.043,52.691-80.849,31.59-48.455.131-.2.165.176,62.412,66.8-.27.035,53.636-99.9L378.638,61.62l4-7.406,1.032-1.9c.233-.425.357-.637.357-.637" transform="translate(-8.399 -13.52)" fill="#4dd0e1"/>
          </g>
        </g>
        <g id="Grupo_115756" data-name="Grupo 115756">
          <g id="Grupo_115755" data-name="Grupo 115755" clip-path="url(#clip-path)">
            <path id="Trazado_231405" data-name="Trazado 231405" d="M308.995,74.8c0-.089,22.67-.161,50.63-.161s50.636.072,50.636.161-22.667.16-50.636.16-50.63-.072-50.63-.16" transform="translate(-80.834 -19.526)" fill="#4dd0e1"/>
            <g id="Grupo_115745" data-name="Grupo 115745" transform="translate(230.934 52.053)" opacity="0.3">
              <g id="Grupo_115744" data-name="Grupo 115744">
                <g id="Grupo_115743" data-name="Grupo 115743" clip-path="url(#clip-path-28)">
                  <path id="Trazado_231406" data-name="Trazado 231406" d="M314.223,71.23a.736.736,0,1,1-.736-.736.736.736,0,0,1,.736.736" transform="translate(-312.751 -70.494)" fill="#4dd0e1"/>
                </g>
              </g>
            </g>
            <g id="Grupo_115748" data-name="Grupo 115748" transform="translate(233.457 52.053)" opacity="0.3">
              <g id="Grupo_115747" data-name="Grupo 115747">
                <g id="Grupo_115746" data-name="Grupo 115746" clip-path="url(#clip-path-28)">
                  <path id="Trazado_231407" data-name="Trazado 231407" d="M317.639,71.23a.736.736,0,1,1-.736-.736.736.736,0,0,1,.736.736" transform="translate(-316.167 -70.494)" fill="#4dd0e1"/>
                </g>
              </g>
            </g>
            <g id="Grupo_115751" data-name="Grupo 115751" transform="translate(235.943 52.053)" opacity="0.3">
              <g id="Grupo_115750" data-name="Grupo 115750">
                <g id="Grupo_115749" data-name="Grupo 115749" clip-path="url(#clip-path-28)">
                  <path id="Trazado_231408" data-name="Trazado 231408" d="M321.006,71.23a.736.736,0,1,1-.736-.736.736.736,0,0,1,.736.736" transform="translate(-319.534 -70.494)" fill="#4dd0e1"/>
                </g>
              </g>
            </g>
            <g id="Grupo_115754" data-name="Grupo 115754" transform="translate(236.679 61.969)" opacity="0.3">
              <g id="Grupo_115753" data-name="Grupo 115753">
                <g id="Grupo_115752" data-name="Grupo 115752" clip-path="url(#clip-path-31)">
                  <rect id="Rectángulo_51052" data-name="Rectángulo 51052" width="24.499" height="24.499" transform="translate(0 0)" fill="#4dd0e1"/>
                </g>
              </g>
            </g>
            <path id="Trazado_231409" data-name="Trazado 231409" d="M416.764,92.758c0,.089-12.607.161-28.154.161s-28.157-.072-28.157-.161,12.6-.159,28.157-.159,28.154.071,28.154.159" transform="translate(-94.296 -24.224)" fill="#4dd0e1"/>
            <path id="Trazado_231410" data-name="Trazado 231410" d="M416.764,99.518c0,.089-12.607.161-28.154.161s-28.157-.072-28.157-.161,12.6-.16,28.157-.16,28.154.071,28.154.16" transform="translate(-94.296 -25.992)" fill="#4dd0e1"/>
            <path id="Trazado_231411" data-name="Trazado 231411" d="M396.7,106.276a1.509,1.509,0,0,1-.368.033l-1.056.03c-.96.013-2.276.029-3.885.051l-12.815.047-12.818-.047c-1.607-.022-2.924-.038-3.884-.051l-1.056-.03a1.5,1.5,0,0,1-.368-.033,1.614,1.614,0,0,1,.368-.032l1.056-.03,3.884-.051,12.818-.047,12.815.047,3.885.051,1.056.03a1.627,1.627,0,0,1,.368.032" transform="translate(-94.296 -27.76)" fill="#4dd0e1"/>
            <path id="Trazado_231412" data-name="Trazado 231412" d="M366.054,108.5s-.2.009-.58.01l-1.712-.005-6.638-.054-24.885-.263.085-.034-12.1,11.62-.242.233v-.336c0-3.49-.007-7.23-.012-11.113l.155.154-11.387.01h-.069l-.048-.048-.154-.154-.049-.048v-.069c-.009-12.559-.018-26.524-.029-41.358v-.187h.187l36.215.012,65.485.049h.174V67.1c-.056,15.464-.106,29.386-.15,41.315v.131h-.13l-32.281.024-8.773-.027-2.282-.016c-.514-.006-.777-.019-.777-.019s.264-.013.778-.021l2.281-.021,8.773-.045,32.269-.146-.13.131c.022-11.926.047-25.845.075-41.307l.174.174-65.485-.011-36.215-.023.187-.187c-.006,14.834-.01,28.8-.016,41.358l-.048-.117.154.154-.116-.049,11.387.01h.155v.155c0,3.883-.007,7.623-.011,11.113l-.242-.1,12.135-11.588.035-.034h.049l24.883.374,6.637.117,1.712.038c.385.01.58.024.58.024" transform="translate(-80.675 -17.491)" fill="#4dd0e1"/>
          </g>
        </g>
      </g>
    </g>
  </g>
</svg>
