<svg xmlns="http://www.w3.org/2000/svg" xmlns:xlink="http://www.w3.org/1999/xlink" width="244" height="181" viewBox="0 0 244 181">
  <defs>
    <clipPath id="clip-path">
      <rect id="Rectángulo_50327" data-name="Rectángulo 50327" width="171.5" height="161.705" fill="none"/>
    </clipPath>
  </defs>
  <g id="Grupo_117838" data-name="Grupo 117838" transform="translate(-1046 -17202)">
    <g id="Rectángulo_50237" data-name="Rectángulo 50237" transform="translate(1046 17202)" fill="#fff" stroke="#4dd0e1" stroke-width="4">
      <rect width="244" height="181" rx="25" stroke="none"/>
      <rect x="2" y="2" width="240" height="177" rx="23" fill="none"/>
    </g>
    <g id="Grupo_115122" data-name="Grupo 115122" transform="translate(1082 17212)">
      <rect id="Rectángulo_50322" data-name="Rectángulo 50322" width="105.987" height="105.578" transform="translate(32.398 32.324)" fill="#aae0ff"/>
      <g id="Grupo_115117" data-name="Grupo 115117">
        <g id="Grupo_115116" data-name="Grupo 115116" clip-path="url(#clip-path)">
          <path id="Trazado_229233" data-name="Trazado 229233" d="M.937,220.089H170.564a.936.936,0,0,0,0-1.873H.937a.936.936,0,1,0,0,1.873" transform="translate(0 -58.384)" fill="#2d5b98"/>
          <path id="Trazado_229234" data-name="Trazado 229234" d="M60.222,199.9h0a9.479,9.479,0,0,1-9.479-9.479V177.5H69.7v12.921a9.479,9.479,0,0,1-9.479,9.479" transform="translate(-13.576 -47.491)" fill="#5896fa"/>
          <rect id="Rectángulo_50323" data-name="Rectángulo 50323" width="1.05" height="20.056" transform="translate(36.116 139.776)" fill="#0e0e0e"/>
          <rect id="Rectángulo_50324" data-name="Rectángulo 50324" width="1.05" height="20.056" transform="translate(56.124 139.776)" fill="#0e0e0e"/>
          <rect id="Rectángulo_50325" data-name="Rectángulo 50325" width="1.05" height="20.056" transform="translate(48.085 139.776)" fill="#0e0e0e"/>
          <rect id="Rectángulo_50326" data-name="Rectángulo 50326" width="20.056" height="1.05" transform="translate(36.116 152.411)" fill="#0e0e0e"/>
          <path id="Trazado_229235" data-name="Trazado 229235" d="M78.652,148c1.144,1.648-1.159,3.068-1.517,5.351s2.257,3.569-.517,6.56c-1.709,1.841-3.152-.6-4.54,2.218s-.294,3.3-1.856,4.314c-2.722,1.77-6.886-2.143-5.485-4.962s4.234-2.567,2.922-4.887-1.8-3.319.462-4.511c2.8-1.476,5.263-.12,5.488-2.279s3.53-3.983,5.044-1.8" transform="translate(-17.245 -39.334)" fill="#ffca59"/>
          <path id="Trazado_229236" data-name="Trazado 229236" d="M67.34,170.34l-.471-.093a42.786,42.786,0,0,1,9.591-19.03l.349.33A42.262,42.262,0,0,0,67.34,170.34" transform="translate(-17.891 -40.458)" fill="#0e0e0e"/>
          <path id="Trazado_229237" data-name="Trazado 229237" d="M33.7,142.109c-1.183,2.41,2.15,3.827,3.084,6.777s-2.5,3.993,1.769,7.391c2.632,2.094,3.182.784,4.15,5.468.852,4.124,3.985.2,6.328,2.62,3.024,3.122,7.747-3.731,5.327-7.18s-5.244-2.558-3.976-5.891-.245-5.844-3.475-6.967c-4-1.39-5.436,1.966-6.168-.846s-5.473-4.56-7.037-1.373" transform="translate(-8.948 -37.565)" fill="#ed5a24"/>
          <path id="Trazado_229238" data-name="Trazado 229238" d="M55.26,169.211a56.549,56.549,0,0,0-16.309-22.966l.394-.508c.114.088,11.359,8.948,16.519,23.255Z" transform="translate(-10.421 -38.992)" fill="#0e0e0e"/>
        </g>
      </g>
      <g id="Grupo_115119" data-name="Grupo 115119">
        <g id="Grupo_115118" data-name="Grupo 115118" clip-path="url(#clip-path)">
          <path id="Trazado_229239" data-name="Trazado 229239" d="M64.814,94.954c-.336,0-.676-.011-1.01-.023l.023-.667c.329.011.663.018.993.022Zm1.01,0-.01-.668c.327,0,.661-.013.992-.026l.025.668c-.336.012-.675.021-1.008.026M62.8,94.884c-.336-.02-.675-.044-1.007-.072l.056-.666c.327.027.66.051.991.071Zm5.045-.008-.041-.667c.327-.021.66-.045.99-.074l.059.665c-.336.029-.675.055-1.008.075m-7.058-.16c-.334-.037-.671-.078-1-.122l.089-.663c.326.044.658.084.987.12Zm9.07-.015-.074-.664c.326-.036.657-.078.986-.122l.091.661c-.334.046-.672.088-1,.125m-11.072-.253c-.331-.053-.666-.111-1-.171l.121-.657c.324.06.654.116.979.168Zm13.073-.021-.107-.659c.326-.053.655-.111.979-.171l.123.656c-.329.062-.664.121-.995.174m-15.06-.346c-.328-.069-.659-.143-.986-.22l.154-.65c.321.075.647.149.969.216Zm17.045-.027L73.7,93.4c.322-.069.648-.143.969-.22l.156.65c-.326.078-.658.153-.985.223m-19.011-.438c-.322-.085-.65-.175-.974-.269l.186-.642c.319.092.641.181.958.264ZM75.8,93.581l-.172-.645c.318-.085.639-.175.957-.268l.188.641c-.323.1-.65.186-.973.272m-22.915-.529c-.321-.1-.645-.208-.963-.318l.218-.632c.313.108.631.214.946.313Zm24.854-.04-.2-.636c.314-.1.631-.207.943-.315l.22.631c-.316.111-.639.218-.958.321m-26.771-.621c-.314-.117-.632-.24-.945-.365l.249-.62c.308.123.62.244.929.36Zm28.678-.043-.235-.626c.308-.116.619-.237.925-.362l.251.62c-.312.126-.628.25-.941.368m-30.559-.712c-.307-.133-.618-.271-.925-.412l.28-.606c.3.139.607.275.91.406Zm32.428-.045-.266-.613c.3-.13.6-.267.9-.406l.281.606c-.3.141-.612.279-.918.412m-34.267-.8c-.3-.148-.6-.3-.9-.457l.309-.593c.293.153.592.3.888.45Zm36.094-.045-.3-.6c.3-.146.592-.3.883-.45l.311.592c-.3.155-.6.309-.9.458m-37.887-.892c-.292-.162-.588-.33-.879-.5l.338-.576c.286.168.577.334.864.494Zm39.671-.045-.325-.584c.287-.16.576-.326.86-.494L86,89.3c-.288.17-.582.338-.875.5m-41.416-.979c-.285-.177-.571-.36-.853-.544l.367-.558c.276.181.558.361.838.535Zm43.152-.046-.354-.566c.279-.174.56-.355.835-.536l.368.558c-.28.184-.565.367-.849.544M42.022,87.718c-.275-.191-.553-.388-.824-.586l.393-.54c.267.195.54.388.811.576Zm46.527-.047-.381-.549c.27-.188.542-.382.807-.576l.395.538c-.27.2-.546.395-.821.586m-48.16-1.144c-.266-.2-.533-.415-.794-.626l.42-.52c.256.207.519.415.781.615Zm49.788-.048-.408-.529c.261-.2.524-.409.779-.616l.42.519c-.259.21-.525.42-.791.626M38.817,85.257c-.255-.217-.512-.439-.762-.663l.445-.5c.246.22.5.439.749.653Zm52.928-.048-.433-.508c.25-.213.5-.433.748-.653l.445.5c-.25.224-.506.448-.76.664m-54.436-1.3c-.245-.23-.49-.465-.729-.7l.469-.476c.234.231.475.462.716.688Zm55.94-.05-.458-.487c.24-.226.48-.457.715-.689l.469.475c-.238.236-.483.471-.727.7M35.87,82.495c-.233-.24-.467-.488-.694-.734l.491-.453c.223.242.453.486.682.722Zm58.816-.052-.48-.464c.229-.237.458-.481.68-.724l.492.451c-.226.247-.459.494-.692.736M34.5,81.01c-.221-.253-.442-.511-.656-.768l.513-.428c.21.253.427.506.645.754Zm61.55-.056-.5-.439c.216-.248.433-.5.645-.757l.513.426c-.215.259-.435.518-.655.77M33.21,79.46c-.209-.262-.416-.531-.617-.8l.533-.4c.2.263.4.527.607.785Zm64.133-.06-.524-.414c.2-.259.409-.524.607-.788l.534.4c-.2.269-.409.538-.617.8M32,77.848c-.195-.272-.389-.55-.577-.827l.552-.376c.185.272.376.546.568.814Zm66.561-.065-.544-.387c.192-.269.382-.544.568-.817l.553.374c-.188.278-.382.557-.576.831m-67.7-1.6c-.181-.281-.36-.568-.535-.854l.57-.348c.171.281.349.564.527.841Zm68.828-.072-.563-.36c.177-.278.355-.562.526-.845l.571.346c-.174.288-.355.576-.535.858M29.813,74.459c-.167-.29-.333-.586-.492-.88l.587-.319c.157.289.32.579.484.865Zm70.926-.081-.579-.332c.164-.287.327-.579.484-.87l.587.318c-.16.3-.325.593-.492.884M28.85,72.688c-.152-.3-.3-.6-.448-.9L29,71.5c.142.3.291.594.441.887ZM101.7,72.6l-.6-.3c.15-.294.3-.595.441-.893l.6.288c-.144.3-.3.609-.448.908M27.976,70.873c-.137-.3-.272-.615-.4-.923l.615-.259c.127.3.261.608.4.908Zm74.6-.1-.609-.272c.135-.3.268-.609.4-.914l.617.258c-.13.31-.266.623-.4.929M27.195,69.018c-.123-.312-.243-.63-.358-.945l.628-.229c.113.31.231.623.352.929Zm76.161-.116-.623-.242c.12-.308.238-.623.35-.933l.628.226c-.114.316-.234.636-.356.949M26.5,67.12c-.107-.318-.212-.641-.311-.962l.639-.2c.1.315.2.634.3.946ZM104.043,67l-.634-.211c.1-.314.207-.634.3-.95l.639.195c-.1.322-.2.647-.308.966M25.907,65.19c-.091-.323-.179-.651-.261-.976l.647-.166c.081.319.168.642.258.96Zm78.727-.13-.644-.179c.089-.318.174-.641.254-.961l.648.163c-.082.324-.169.653-.259.976M25.408,63.232c-.074-.326-.146-.658-.212-.987l.655-.133c.065.324.136.65.209.971Zm79.719-.132-.652-.146c.073-.323.142-.65.207-.972l.655.13c-.065.327-.135.66-.209.988m-80.12-1.848c-.059-.329-.114-.664-.164-1l.661-.1c.05.327.1.656.161.98Zm80.514-.133-.658-.114c.057-.327.11-.656.158-.981l.661.1c-.049.33-.1.666-.16,1M24.7,59.256c-.042-.333-.081-.671-.114-1l.664-.067c.033.327.071.66.112.987Zm81.113-.135-.663-.081c.04-.328.077-.661.109-.987l.664.065c-.032.332-.07.669-.111,1M24.5,57.246c-.026-.333-.048-.672-.065-1.008L25.1,56.2c.018.33.039.664.064.992Zm81.514-.135-.667-.049c.024-.329.045-.662.061-.992l.667.033c-.016.334-.037.673-.062,1.008M24.4,55.229c-.01-.335-.015-.675-.016-1.009l.668,0c0,.33.007.664.015.993Zm81.716-.135-.668-.016c.008-.329.012-.664.012-.994,0-.089,0-.177,0-.264l.668,0c0,.089,0,.179,0,.27,0,.335,0,.675-.012,1.009M25.057,53.223l-.667-.014c.007-.335.018-.675.033-1.009l.667.03c-.015.33-.026.664-.033.993m80.38-.4c-.01-.33-.024-.664-.042-.992l.667-.037c.018.335.033.675.043,1.009Zm-80.29-1.588-.667-.047c.023-.335.051-.674.083-1.006l.665.063c-.031.327-.059.661-.081.99m80.18-.4c-.026-.33-.057-.662-.092-.99l.664-.069c.035.333.067.67.093,1.006ZM25.334,49.26l-.663-.079c.04-.333.084-.67.132-1l.661.1c-.048.327-.091.658-.13.985m79.787-.394c-.042-.327-.09-.658-.14-.984l.66-.1c.051.33.1.667.142,1Zm-79.5-1.573-.658-.112c.056-.331.117-.665.182-.993l.656.128c-.064.323-.124.652-.179.977m79.2-.391c-.058-.323-.121-.651-.188-.975l.655-.135c.067.33.132.663.191.992ZM26,45.344l-.653-.144c.073-.327.151-.658.231-.984l.648.161c-.079.319-.156.645-.227.967m78.415-.387c-.074-.32-.154-.645-.237-.965l.647-.167c.084.326.166.656.241.981ZM26.479,43.415l-.645-.177c.089-.324.183-.65.28-.97l.639.193c-.1.316-.188.636-.275.954m77.44-.382c-.09-.316-.186-.636-.284-.951l.637-.2c.1.321.2.646.289.968ZM27.053,41.509l-.634-.209c.1-.319.216-.642.329-.959l.629.225c-.111.311-.22.628-.324.943m76.273-.373c-.105-.312-.218-.627-.331-.936l.627-.231c.116.314.229.635.337.952Zm-75.6-1.5-.623-.24c.121-.314.248-.631.376-.94l.617.256c-.126.3-.25.616-.37.925m74.916-.36c-.12-.3-.247-.612-.376-.916l.615-.261c.131.309.26.622.382.932Zm-74.154-1.48-.61-.271c.136-.307.278-.617.422-.921l.6.286c-.141.3-.281.6-.415.905m73.379-.341c-.136-.3-.278-.6-.421-.9l.6-.292c.146.3.291.607.428.911ZM29.339,35.992l-.6-.3c.151-.3.308-.6.467-.9l.588.316c-.156.292-.311.589-.459.883M101,35.667c-.151-.292-.308-.586-.465-.875l.586-.321c.16.293.319.592.473.889Zm-70.72-1.43-.58-.33c.166-.292.338-.585.511-.873l.573.344c-.171.283-.34.572-.5.859m69.768-.308c-.165-.284-.336-.571-.508-.851l.569-.349c.175.285.349.576.517.865Zm-68.741-1.4-.564-.359c.18-.283.367-.568.554-.847l.554.373c-.184.274-.367.554-.544.833m67.7-.293c-.179-.276-.363-.554-.55-.825l.552-.377c.19.276.377.559.559.839ZM32.416,30.881l-.545-.386c.193-.274.393-.549.594-.818l.535.4c-.2.264-.394.535-.584.8M97.89,30.6c-.192-.266-.39-.535-.59-.8l.532-.4c.2.268.4.541.6.812ZM33.6,29.286l-.526-.412c.207-.264.42-.529.634-.787l.516.426c-.21.254-.42.515-.623.774M96.69,29.02c-.206-.257-.417-.516-.629-.768l.512-.429c.215.257.43.519.639.781ZM34.869,27.753l-.5-.438c.22-.253.446-.508.672-.755l.494.45c-.222.243-.444.493-.661.743M95.414,27.5c-.218-.247-.442-.5-.667-.737l.49-.454c.229.246.456.5.678.749ZM36.208,26.284l-.483-.461c.232-.243.47-.486.708-.721l.471.474c-.233.232-.467.471-.7.709m57.855-.241c-.23-.237-.466-.473-.7-.7l.467-.478c.24.234.48.475.713.716ZM37.618,24.883l-.459-.486c.243-.23.492-.461.741-.685l.448.5c-.245.22-.491.447-.73.674m55.025-.23c-.241-.225-.489-.45-.735-.668l.443-.5c.25.223.5.451.747.679Zm-53.55-1.1-.435-.507c.254-.218.514-.436.774-.647l.423.518c-.256.208-.512.423-.762.636m52.062-.218c-.252-.212-.51-.425-.768-.631l.418-.522c.261.21.524.426.78.642ZM40.631,22.3l-.409-.528c.264-.205.535-.409.8-.609l.4.538c-.265.195-.532.4-.792.6M89.6,22.091c-.263-.2-.532-.4-.8-.593l.392-.541c.271.2.544.4.811.6Zm-47.376-.97-.383-.547c.275-.192.555-.383.834-.568l.37.557c-.275.182-.55.37-.82.559m45.765-.2c-.272-.187-.55-.373-.827-.553l.365-.56c.281.183.564.372.841.563Zm-44.112-.9-.355-.565c.283-.178.573-.355.86-.526l.341.574c-.283.168-.567.342-.846.517m42.445-.185c-.281-.174-.568-.346-.853-.512l.336-.577c.29.169.582.344.868.52Zm-40.74-.829-.327-.582c.292-.164.589-.326.885-.483l.312.59c-.29.154-.583.313-.869.475m39.021-.174c-.289-.159-.584-.316-.878-.469l.308-.593c.3.155.6.315.892.477Zm-37.27-.754-.3-.6c.3-.149.6-.3.907-.438l.283.605c-.3.139-.6.285-.892.431m35.5-.162c-.3-.145-.6-.288-.9-.425l.278-.608c.305.14.613.285.916.432Zm-33.708-.678-.268-.612c.305-.134.617-.266.927-.393l.253.618c-.3.125-.612.254-.912.386m31.9-.15c-.3-.13-.614-.257-.921-.379l.247-.621c.313.125.628.255.937.387Zm-30.06-.6-.238-.625c.313-.119.633-.236.949-.347l.221.631c-.311.109-.625.224-.932.341m28.209-.136c-.31-.114-.626-.227-.94-.334l.216-.632c.319.109.64.223.955.339Zm-26.335-.524-.206-.635c.319-.1.643-.2.965-.3l.19.64c-.316.094-.636.193-.949.294m24.448-.119c-.315-.1-.635-.195-.951-.285l.184-.642c.322.092.647.19.968.29Zm-22.543-.446-.174-.645c.323-.088.653-.172.979-.251l.158.649c-.321.078-.645.161-.962.247m20.632-.1c-.319-.083-.643-.163-.965-.238l.152-.65c.327.076.656.157.981.242Zm-18.7-.37-.141-.653c.326-.07.658-.138.99-.2l.125.656c-.325.062-.653.129-.973.2m16.768-.081c-.323-.067-.651-.13-.976-.189l.119-.658c.33.06.664.125.992.193Zm-14.816-.292-.11-.659c.331-.055.667-.106,1-.153l.093.661c-.326.046-.656.1-.981.151m12.86-.063c-.324-.051-.656-.1-.983-.141l.086-.662c.333.043.669.092,1,.143ZM60.6,14.147l-.077-.664c.333-.038.671-.073,1-.1l.06.665c-.329.03-.661.064-.988.1m8.923-.043c-.327-.034-.659-.065-.989-.092l.053-.667c.335.027.673.059,1.006.094Zm-6.944-.136L62.53,13.3c.334-.022.674-.04,1.009-.054l.027.667c-.329.014-.663.031-.992.053m4.963-.024c-.327-.018-.661-.033-.992-.043l.021-.668c.336.011.676.026,1.009.045Zm-2.98-.058-.012-.668c.335-.006.675-.007,1.01-.005l0,.668c-.33,0-.664,0-.994.005" transform="translate(-6.523 -3.535)" fill="#2e77e6"/>
          <path id="Trazado_229240" data-name="Trazado 229240" d="M84.071,62.419a7.222,7.222,0,0,0,.073-.965,7.145,7.145,0,0,0-13.728-2.779A4.986,4.986,0,0,0,62.108,62.4h-.932a4.834,4.834,0,0,0-4.82,4.82h0a4.834,4.834,0,0,0,4.82,4.82H83.715a4.834,4.834,0,0,0,4.82-4.82h0a4.833,4.833,0,0,0-4.464-4.8" transform="translate(-15.078 -14.53)" fill="#fff"/>
          <path id="Trazado_229241" data-name="Trazado 229241" d="M75.9,126.382H71.035a14.5,14.5,0,0,1,0-28.995H75.9a14.5,14.5,0,0,1,0,28.995" transform="translate(-15.127 -26.056)" fill="#5896fa"/>
          <path id="Trazado_229242" data-name="Trazado 229242" d="M85.743,120.4H65.334a1.214,1.214,0,1,1,0-2.429H85.743a1.214,1.214,0,1,1,0,2.429" transform="translate(-17.155 -31.564)" fill="#fff"/>
          <path id="Trazado_229243" data-name="Trazado 229243" d="M85.743,125.742H65.334a1.214,1.214,0,1,1,0-2.429H85.743a1.214,1.214,0,1,1,0,2.429" transform="translate(-17.155 -32.993)" fill="#fff"/>
          <path id="Trazado_229244" data-name="Trazado 229244" d="M70.668,124.962a.427.427,0,1,1-.428-.428.428.428,0,0,1,.428.428" transform="translate(-18.679 -33.319)" fill="#80b2ff"/>
          <path id="Trazado_229245" data-name="Trazado 229245" d="M72.67,124.962a.427.427,0,1,1-.428-.428.428.428,0,0,1,.428.428" transform="translate(-19.214 -33.319)" fill="#80b2ff"/>
          <path id="Trazado_229246" data-name="Trazado 229246" d="M74.671,124.962a.427.427,0,1,1-.428-.428.428.428,0,0,1,.428.428" transform="translate(-19.75 -33.319)" fill="#80b2ff"/>
          <path id="Trazado_229247" data-name="Trazado 229247" d="M76.672,124.962a.427.427,0,1,1-.428-.428.428.428,0,0,1,.428.428" transform="translate(-20.285 -33.319)" fill="#80b2ff"/>
          <path id="Trazado_229248" data-name="Trazado 229248" d="M78.673,124.962a.427.427,0,1,1-.428-.428.428.428,0,0,1,.428.428" transform="translate(-20.82 -33.319)" fill="#80b2ff"/>
          <path id="Trazado_229249" data-name="Trazado 229249" d="M80.674,124.962a.427.427,0,1,1-.428-.428.428.428,0,0,1,.428.428" transform="translate(-21.356 -33.319)" fill="#80b2ff"/>
          <path id="Trazado_229250" data-name="Trazado 229250" d="M82.675,124.962a.427.427,0,1,1-.428-.428.428.428,0,0,1,.428.428" transform="translate(-21.891 -33.319)" fill="#80b2ff"/>
          <path id="Trazado_229251" data-name="Trazado 229251" d="M84.677,124.962a.427.427,0,1,1-.428-.428.428.428,0,0,1,.428.428" transform="translate(-22.427 -33.319)" fill="#80b2ff"/>
          <path id="Trazado_229252" data-name="Trazado 229252" d="M86.678,124.962a.427.427,0,1,1-.428-.428.428.428,0,0,1,.428.428" transform="translate(-22.962 -33.319)" fill="#80b2ff"/>
          <path id="Trazado_229253" data-name="Trazado 229253" d="M82.7,105.216a4.692,4.692,0,1,1-4.691-4.691,4.691,4.691,0,0,1,4.691,4.691" transform="translate(-19.615 -26.896)" fill="#fff"/>
          <path id="Trazado_229254" data-name="Trazado 229254" d="M79.188,105.591a1.481,1.481,0,0,0,1.151-.564,1.44,1.44,0,0,0,.317-.916,1.474,1.474,0,1,0-2.947,0,1.44,1.44,0,0,0,.317.916,1.486,1.486,0,0,0,1.162.564" transform="translate(-20.791 -27.459)" fill="#005cea"/>
          <path id="Trazado_229255" data-name="Trazado 229255" d="M81.373,109.458c0,.934-5.215.934-5.215,0V108.37c.206-1.488,4.789-1.55,5.214,0Z" transform="translate(-20.376 -28.69)" fill="#005cea"/>
          <path id="Trazado_229256" data-name="Trazado 229256" d="M66.784,124.468V124.4a.478.478,0,1,0-.955,0v.065h-.073v.861c0,.149,1.1.149,1.1,0v-.861ZM66,124.4a.309.309,0,1,1,.618,0v.065H66Zm.389.5v.249a.079.079,0,0,1-.083.076.074.074,0,0,1-.077-.076V124.9a.145.145,0,0,1-.076-.127.153.153,0,1,1,.236.127" transform="translate(-17.593 -33.156)" fill="#5896fa"/>
          <path id="Trazado_229257" data-name="Trazado 229257" d="M66.4,119.283a.313.313,0,0,0,.243-.118.308.308,0,0,0,.067-.193.311.311,0,1,0-.622,0,.3.3,0,0,0,.067.193.314.314,0,0,0,.245.118" transform="translate(-17.681 -31.747)" fill="#5896fa"/>
          <path id="Trazado_229258" data-name="Trazado 229258" d="M66.854,120.1c0,.2-1.106.2-1.106,0l.006-.23c.043-.313,1.011-.327,1.1,0Z" transform="translate(-17.591 -32.007)" fill="#5896fa"/>
          <path id="Trazado_229259" data-name="Trazado 229259" d="M74.505,119.858H70.033a.356.356,0,1,1,0-.713h4.472a.356.356,0,0,1,0,.713" transform="translate(-18.642 -31.877)" fill="#80b2ff"/>
          <path id="Trazado_229260" data-name="Trazado 229260" d="M82.558,119.858H78.086a.356.356,0,1,1,0-.713h4.472a.356.356,0,0,1,0,.713" transform="translate(-20.796 -31.877)" fill="#80b2ff"/>
          <path id="Trazado_229261" data-name="Trazado 229261" d="M79.891,131.043H75.838a1.04,1.04,0,0,1,0-2.081h4.053a1.04,1.04,0,0,1,0,2.081" transform="translate(-20.012 -34.504)" fill="#1251b3"/>
          <path id="Trazado_229262" data-name="Trazado 229262" d="M9.325,73.956h0v0" transform="translate(-2.495 -19.773)" fill="#d9ffff"/>
          <path id="Trazado_229263" data-name="Trazado 229263" d="M9.325,73.956h0v0" transform="translate(-2.495 -19.773)" fill="#d9ffff"/>
          <path id="Trazado_229264" data-name="Trazado 229264" d="M36.563,74.078v0" transform="translate(-9.782 -19.806)" fill="#d9ffff"/>
          <path id="Trazado_229265" data-name="Trazado 229265" d="M36.563,74.078v0" transform="translate(-9.782 -19.806)" fill="#d9ffff"/>
          <path id="Trazado_229266" data-name="Trazado 229266" d="M19.332,66.616a19.892,19.892,0,0,1-10,5.4c0,.265-.007,1.734-.038,8.5-.04,9.031,8.555,13.445,9.89,14.122,1.294-.6,10-5,10.037-14.034.03-6.77.037-8.239.038-8.5a19.785,19.785,0,0,1-9.922-5.49" transform="translate(-2.485 -17.823)" fill="#fff"/>
          <path id="Trazado_229267" data-name="Trazado 229267" d="M19.7,68.845a21.116,21.116,0,0,1-8.9,4.625l-.034,7.652a12.911,12.911,0,0,0,4.135,9.416,19.776,19.776,0,0,0,4.686,3.426l.132-.069V68.863l-.02-.018" transform="translate(-2.882 -18.42)" fill="#296acc"/>
          <path id="Trazado_229268" data-name="Trazado 229268" d="M22.994,68.869V93.9a19.785,19.785,0,0,0,4.584-3.316A12.919,12.919,0,0,0,31.8,81.207l.034-7.652a21.126,21.126,0,0,1-8.837-4.686" transform="translate(-6.152 -18.426)" fill="#2e77e6"/>
          <path id="Trazado_229269" data-name="Trazado 229269" d="M17.492,83.928v5.928c0,.661,8.06.661,8.06,0V83.928Zm4.438,3.147v1.681a.408.408,0,1,1-.815,0V87.072a.993.993,0,1,1,.815,0" transform="translate(-4.68 -22.455)" fill="#fff"/>
          <path id="Trazado_229270" data-name="Trazado 229270" d="M25.1,81.991h-.816v-.4a2.508,2.508,0,1,0-5.017,0v.4h-.816v-.4a3.324,3.324,0,1,1,6.648,0Z" transform="translate(-4.938 -20.94)" fill="#fff"/>
          <rect id="Rectángulo_50328" data-name="Rectángulo 50328" width="14.559" height="18.173" transform="translate(61.944 0.001)" fill="#296acc"/>
          <rect id="Rectángulo_50329" data-name="Rectángulo 50329" width="14.559" height="18.173" transform="translate(63.832 1.877)" fill="#fff"/>
          <path id="Trazado_229271" data-name="Trazado 229271" d="M101.862,20.889H86.817V2.231h15.045ZM87.3,20.4h14.074V2.716H87.3Z" transform="translate(-23.228 -0.597)" fill="#5896fa"/>
          <rect id="Rectángulo_50330" data-name="Rectángulo 50330" width="14.559" height="18.173" transform="translate(66.23 3.719)" fill="#fff"/>
          <path id="Trazado_229272" data-name="Trazado 229272" d="M105.135,23.405H90.091V4.747h15.044Zm-14.56-.486H104.65V5.232H90.576Z" transform="translate(-24.104 -1.27)" fill="#5896fa"/>
          <rect id="Rectángulo_50331" data-name="Rectángulo 50331" width="14.559" height="18.173" transform="translate(67.974 5.596)" fill="#5896fa"/>
          <rect id="Rectángulo_50332" data-name="Rectángulo 50332" width="7.531" height="1.182" transform="translate(72.737 8.579)" fill="#005cea"/>
          <rect id="Rectángulo_50333" data-name="Rectángulo 50333" width="9.758" height="1.182" transform="translate(70.51 11.356)" fill="#005cea"/>
          <rect id="Rectángulo_50334" data-name="Rectángulo 50334" width="9.758" height="1.182" transform="translate(70.51 14.133)" fill="#005cea"/>
          <rect id="Rectángulo_50335" data-name="Rectángulo 50335" width="9.758" height="1.182" transform="translate(70.51 16.91)" fill="#005cea"/>
          <rect id="Rectángulo_50336" data-name="Rectángulo 50336" width="9.758" height="1.182" transform="translate(70.51 19.687)" fill="#005cea"/>
          <path id="Trazado_229273" data-name="Trazado 229273" d="M44.227,25.129a5.142,5.142,0,1,1-5.143-5.143,5.143,5.143,0,0,1,5.143,5.143" transform="translate(-9.081 -5.347)" fill="#fff"/>
          <path id="Trazado_229274" data-name="Trazado 229274" d="M45.193,28.011A9.426,9.426,0,0,0,46.454,24.5l.383.056.756.111h.01a10.56,10.56,0,0,0-.2-4.108l-1.125.279a9.436,9.436,0,0,0-1.592-3.369l.932-.694a10.508,10.508,0,0,0-3.045-2.767l-.6,1a9.413,9.413,0,0,0-3.507-1.261l.168-1.149a10.613,10.613,0,0,0-4.108.2l.278,1.125a9.436,9.436,0,0,0-3.369,1.592l-.693-.932a10.511,10.511,0,0,0-2.768,3.045l1,.6a9.424,9.424,0,0,0-1.26,3.507l-.813-.12-.333-.046,0,0a10.627,10.627,0,0,0,.2,4.108l1.125-.278a9.467,9.467,0,0,0,1.6,3.371l-.932.693a10.509,10.509,0,0,0,3.041,2.766l.6-1a9.448,9.448,0,0,0,3.51,1.263l-.132.893-.036.256a10.624,10.624,0,0,0,4.1-.2l-.279-1.125a9.545,9.545,0,0,0,3.374-1.593l.694.932a10.574,10.574,0,0,0,2.761-3.043Zm-10.766-.486a5.141,5.141,0,1,1,7.056-1.751,5.141,5.141,0,0,1-7.056,1.751" transform="translate(-7.077 -3.341)" fill="#005cea"/>
          <path id="Trazado_229275" data-name="Trazado 229275" d="M22.24,31.75a4.965,4.965,0,0,0-1.383-1.392l.114-.169.224-.335,0,0a5.552,5.552,0,0,0-2-.834l-.122.6a4.967,4.967,0,0,0-1.961,0L17,29.01a5.531,5.531,0,0,0-2,.823l.338.511a4.965,4.965,0,0,0-1.392,1.383l-.508-.34a5.594,5.594,0,0,0-.834,2l.6.122a4.971,4.971,0,0,0,0,1.962l-.6.119a5.52,5.52,0,0,0,.823,2l.511-.338a4.965,4.965,0,0,0,1.383,1.392l-.24.36-.1.147h0a5.607,5.607,0,0,0,2,.834l.122-.6a4.978,4.978,0,0,0,1.964,0l.119.6a5.531,5.531,0,0,0,2-.821l-.338-.511a4.973,4.973,0,0,0,1.393-1.384l.395.264.114.075a5.587,5.587,0,0,0,.831-2l-.6-.122a5.009,5.009,0,0,0,0-1.964l.6-.119a5.584,5.584,0,0,0-.823-2Zm-2.664,5.01a2.707,2.707,0,1,1,.762-3.752,2.706,2.706,0,0,1-.762,3.752" transform="translate(-3.368 -7.762)" fill="#1251b3"/>
          <path id="Trazado_229276" data-name="Trazado 229276" d="M132.3,44.079h-5.408a4.023,4.023,0,0,1-4.023-4.023h0a4.023,4.023,0,0,1,4.023-4.023H132.3a4.023,4.023,0,1,1,0,8.046" transform="translate(-32.873 -9.641)" fill="#005cea"/>
          <rect id="Rectángulo_50337" data-name="Rectángulo 50337" width="13.454" height="1.389" transform="translate(89.994 27.911)" fill="#5896fa"/>
          <path id="Trazado_229277" data-name="Trazado 229277" d="M126.269,44.91h-1.978a.228.228,0,0,0,0,.456h1.978a.228.228,0,1,0,0-.456" transform="translate(-33.193 -12.016)" fill="#d1f5ff"/>
          <path id="Trazado_229278" data-name="Trazado 229278" d="M130.422,44.91h-1.978a.228.228,0,0,0,0,.456h1.978a.228.228,0,1,0,0-.456" transform="translate(-34.304 -12.016)" fill="#d1f5ff"/>
          <path id="Trazado_229279" data-name="Trazado 229279" d="M134.576,44.91H132.6a.228.228,0,1,0,0,.456h1.978a.228.228,0,0,0,0-.456" transform="translate(-35.416 -12.016)" fill="#d1f5ff"/>
          <path id="Trazado_229280" data-name="Trazado 229280" d="M138.729,44.91h-1.978a.228.228,0,1,0,0,.456h1.978a.228.228,0,0,0,0-.456" transform="translate(-36.527 -12.016)" fill="#d1f5ff"/>
          <path id="Trazado_229281" data-name="Trazado 229281" d="M124.158,36.59h0a.252.252,0,0,0-.251.251v.089a.251.251,0,1,0,.5,0v-.089a.252.252,0,0,0-.251-.251" transform="translate(-33.151 -9.79)" fill="#d1f5ff"/>
          <path id="Trazado_229282" data-name="Trazado 229282" d="M124.989,36.885h0a.3.3,0,0,0,.3.3h1.047a.3.3,0,0,0,0-.59h-1.047a.3.3,0,0,0-.3.3" transform="translate(-33.441 -9.79)" fill="#d1f5ff"/>
          <path id="Trazado_229283" data-name="Trazado 229283" d="M125.242,41.022h.187a.975.975,0,0,1,0,1.951h-.187a.975.975,0,1,1,0-1.951" transform="translate(-33.248 -10.975)" fill="#5896fa"/>
          <path id="Trazado_229284" data-name="Trazado 229284" d="M130.336,74.387v-.918a.755.755,0,0,0-.756-.756h-8.044a.755.755,0,0,0-.756.756V89.715h20.808V74.387Z" transform="translate(-32.315 -19.454)" fill="#1251b3"/>
          <path id="Trazado_229285" data-name="Trazado 229285" d="M142.453,75.762h-20.4l-1.269,14.769h20.707Z" transform="translate(-32.315 -20.27)" fill="#fff"/>
          <path id="Trazado_229286" data-name="Trazado 229286" d="M141.588,90.327H120.779l2.208-14.585A.872.872,0,0,1,123.85,75h19.044a.873.873,0,0,1,.863,1Z" transform="translate(-32.315 -20.066)" fill="#3383ff"/>
          <path id="Trazado_229287" data-name="Trazado 229287" d="M155.19,74.021a4.768,4.768,0,1,1-4.768-4.768,4.767,4.767,0,0,1,4.768,4.768" transform="translate(-38.97 -18.529)" fill="#005cea"/>
          <path id="Trazado_229288" data-name="Trazado 229288" d="M150.357,78.9a4.942,4.942,0,1,1,4.943-4.943,4.949,4.949,0,0,1-4.943,4.943m0-9.536a4.594,4.594,0,1,0,4.593,4.593,4.6,4.6,0,0,0-4.593-4.593" transform="translate(-38.906 -18.465)" fill="#fff"/>
          <path id="Trazado_229289" data-name="Trazado 229289" d="M149.03,74.583V77.96c0,.376,4.59.376,4.59,0V74.583Zm2.527,1.793v.957a.232.232,0,1,1-.464,0v-.959a.565.565,0,1,1,.464,0" transform="translate(-39.873 -19.955)" fill="#fff"/>
          <path id="Trazado_229290" data-name="Trazado 229290" d="M153.365,73.48H152.9v-.227a1.429,1.429,0,1,0-2.857,0v.227h-.464v-.227a1.893,1.893,0,1,1,3.786,0Z" transform="translate(-40.02 -19.092)" fill="#fff"/>
          <path id="Trazado_229291" data-name="Trazado 229291" d="M130.719,20.618a1.825,1.825,0,1,1-1.825-1.825,1.826,1.826,0,0,1,1.825,1.825" transform="translate(-33.997 -5.028)" fill="#aae0ff"/>
          <path id="Trazado_229292" data-name="Trazado 229292" d="M65.279,29.917a1.825,1.825,0,1,1-1.825-1.825,1.826,1.826,0,0,1,1.825,1.825" transform="translate(-16.489 -7.516)" fill="#aae0ff"/>
          <path id="Trazado_229293" data-name="Trazado 229293" d="M147.641,63.416a.955.955,0,1,1-.955-.955.955.955,0,0,1,.955.955" transform="translate(-38.991 -16.712)" fill="#fff"/>
          <path id="Trazado_229294" data-name="Trazado 229294" d="M11.2,65.861a.955.955,0,1,1-.955-.955.955.955,0,0,1,.955.955" transform="translate(-2.485 -17.366)" fill="#aae0ff"/>
          <path id="Trazado_229295" data-name="Trazado 229295" d="M32.147,113.053a1.825,1.825,0,1,1-1.825-1.825,1.826,1.826,0,0,1,1.825,1.825" transform="translate(-7.624 -29.759)" fill="#aae0ff"/>
          <path id="Trazado_229296" data-name="Trazado 229296" d="M70.863,4.377h0a.316.316,0,0,1-.316-.316V.675a.316.316,0,0,1,.633,0V4.061a.317.317,0,0,1-.316.316" transform="translate(-18.875 -0.096)" fill="#aae0ff"/>
          <path id="Trazado_229297" data-name="Trazado 229297" d="M68.236,2.986h0a.317.317,0,0,1,.316-.316h3.386a.316.316,0,0,1,0,.633H68.552a.317.317,0,0,1-.316-.316" transform="translate(-18.257 -0.714)" fill="#aae0ff"/>
          <path id="Trazado_229298" data-name="Trazado 229298" d="M120.008,63.736h0a.316.316,0,0,1-.316-.316V60.034a.316.316,0,0,1,.633,0V63.42a.317.317,0,0,1-.316.316" transform="translate(-32.024 -15.978)" fill="#fff"/>
          <path id="Trazado_229299" data-name="Trazado 229299" d="M117.381,62.345h0a.317.317,0,0,1,.316-.316h3.386a.316.316,0,0,1,0,.633H117.7a.317.317,0,0,1-.316-.316" transform="translate(-31.405 -16.596)" fill="#fff"/>
          <path id="Trazado_229300" data-name="Trazado 229300" d="M115.308,124.625h0a.317.317,0,0,1-.316-.316v-3.386a.316.316,0,0,1,.633,0v3.386a.316.316,0,0,1-.316.316" transform="translate(-30.766 -32.269)" fill="#fff"/>
          <path id="Trazado_229301" data-name="Trazado 229301" d="M112.681,123.233h0a.316.316,0,0,1,.316-.316h3.386a.317.317,0,0,1,0,.634H113a.317.317,0,0,1-.316-.317" transform="translate(-30.148 -32.887)" fill="#fff"/>
          <path id="Trazado_229302" data-name="Trazado 229302" d="M76.519,92.332a1.174,1.174,0,1,1,1.174-1.173,1.175,1.175,0,0,1-1.174,1.173m0-2.024a.851.851,0,1,0,.85.851.852.852,0,0,0-.85-.851" transform="translate(-20.159 -24.075)" fill="#fff"/>
        </g>
      </g>
      <path id="Trazado_229303" data-name="Trazado 229303" d="M109.322,215.055H105.36l-.409-8.614h4.781Z" transform="translate(-28.08 -55.234)" fill="#0e0e0e"/>
      <path id="Trazado_229304" data-name="Trazado 229304" d="M203.327,215.055h-3.962l-.409-8.614h4.781Z" transform="translate(-53.231 -55.234)" fill="#0e0e0e"/>
      <g id="Grupo_115121" data-name="Grupo 115121">
        <g id="Grupo_115120" data-name="Grupo 115120" clip-path="url(#clip-path)">
          <path id="Trazado_229305" data-name="Trazado 229305" d="M174.282,170.664q-.655,2.033-1.433,4.171H107.08s-8.488-34.547,0-40.865a5.564,5.564,0,0,1,.781-.476c11.431-5.874,57.264-7.253,66.569.3.071.056.137.114.2.173,3.429,3.147,6.41,15.71-.349,36.694" transform="translate(-27.64 -34.407)" fill="#ea7b00"/>
          <path id="Trazado_229306" data-name="Trazado 229306" d="M133.26,182.878H108.478l2.416-24.213c4.321,1.875,15.826,11.776,22.365,24.213" transform="translate(-29.023 -42.451)" fill="#982c20"/>
          <path id="Trazado_229307" data-name="Trazado 229307" d="M190.958,178.614q-.655,2.033-1.433,4.171H165.637c4.108-7.618,14.07-19.159,23.742-24.47Z" transform="translate(-44.316 -42.357)" fill="#982c20"/>
          <path id="Trazado_229308" data-name="Trazado 229308" d="M179.878,158.2H170.76a3.055,3.055,0,0,0-3.029,2.655l-2.908,21.989H111.531l-2.908-21.989a3.055,3.055,0,0,0-3.029-2.655H96.476a3.056,3.056,0,0,0-3.008,3.593l5.063,36.618h79.293l5.063-36.618a3.056,3.056,0,0,0-3.008-3.593" transform="translate(-24.994 -42.327)" fill="#ea7b00"/>
          <path id="Trazado_229309" data-name="Trazado 229309" d="M170.115,175.1c4.291,1.436,3.454,10.522,0,11.918H118.059c-3.888-1-4.216-13.021,1.391-12.117,34.312,6.451,35.974-3.841,50.664.2" transform="translate(-30.817 -46.588)" fill="#f2b066"/>
          <path id="Trazado_229310" data-name="Trazado 229310" d="M136.01,152.592a48.262,48.262,0,0,0,.363,6.488h24.408l1.446-23.833c-1.45-8.705-5.419-10.815-11.7-10.815-5.622,0-9.367,4.586-11.643,10.726a53.333,53.333,0,0,0-2.872,17.434" transform="translate(-36.389 -33.292)" fill="#007880"/>
          <path id="Trazado_229311" data-name="Trazado 229311" d="M136.011,156.97l8.833-.532c-4.9-1.606-5.293-9.131-.308-13.814l-5.652-3.548a56.1,56.1,0,0,0-2.872,17.894" transform="translate(-36.39 -37.21)" fill="#005459"/>
          <path id="Trazado_229312" data-name="Trazado 229312" d="M133.716,174.291h33.535V162.879H137.042Z" transform="translate(-35.776 -43.578)" fill="#0e0e0e"/>
          <path id="Trazado_229313" data-name="Trazado 229313" d="M179.494,170.644l-9.008,32.73h-7.023c2.223-13.928,1.725-22.982,3.817-34.547,1.835-9.494,14.4-6.981,12.214,1.817" transform="translate(-43.735 -43.552)" fill="#0e0e0e"/>
          <path id="Trazado_229314" data-name="Trazado 229314" d="M169.607,216.573c0-.022,0-.043,0-.064a4.393,4.393,0,1,1,8.786,0c0,.021,0,.042,0,.064Z" transform="translate(-45.378 -56.752)" fill="#b15626"/>
          <path id="Trazado_229315" data-name="Trazado 229315" d="M173.2,211.541l-1.6-.489c-1.054-2.074-5.55-1.816-4.924.707a3.3,3.3,0,0,1-2.692-.616l-.527,4.773h9.524Z" transform="translate(-43.735 -56.096)" fill="#b15626"/>
          <path id="Trazado_229316" data-name="Trazado 229316" d="M131.257,170.644l9.008,32.73h7.023c-2.223-13.928-1.725-22.982-3.817-34.547-1.835-9.494-14.4-6.981-12.214,1.817" transform="translate(-35.05 -43.552)" fill="#0e0e0e"/>
          <path id="Trazado_229317" data-name="Trazado 229317" d="M143.883,216.573c0-.022,0-.043,0-.064a4.393,4.393,0,1,0-8.786,0c0,.021,0,.042,0,.064Z" transform="translate(-36.146 -56.752)" fill="#b15626"/>
          <path id="Trazado_229318" data-name="Trazado 229318" d="M139.94,211.541l1.6-.489c1.054-2.074,5.55-1.816,4.924.707a3.3,3.3,0,0,0,2.692-.616l.527,4.773h-9.524Z" transform="translate(-37.441 -56.096)" fill="#b15626"/>
          <path id="Trazado_229319" data-name="Trazado 229319" d="M145.11,125.477c3.295,2,3.764,7.937,2.075,10.3l-9.4,7,9.57,4.929L145.8,152.8s-9.99-.812-14.88-5.828c-4.694-4.816,6.751-18.962,14.189-21.494" transform="translate(-34.735 -33.571)" fill="#007880"/>
          <path id="Trazado_229320" data-name="Trazado 229320" d="M158.788,134.54c-2.818-3.538-.872-9.005,2.72-8.845,11.7,4.118,15.308,15.552,11.6,20.684-3.174,4.4-17.14,6.091-17.14,6.091v-4.814l9.7-2.1s-5-7.751-6.886-11.019" transform="translate(-41.73 -33.629)" fill="#007880"/>
          <path id="Trazado_229321" data-name="Trazado 229321" d="M145.815,159.043A3.706,3.706,0,0,1,149,154.975c4.238-.77,5.772,1.556,6.172,3.218a.7.7,0,0,1-.653.851.717.717,0,0,1-.682-.576,1.641,1.641,0,0,0-.74-1.145c.438.858.255,1.721-.938,1.721Z" transform="translate(-39.007 -41.423)" fill="#f7a594"/>
          <path id="Trazado_229322" data-name="Trazado 229322" d="M155,154.47l3.335-16.723h.708c-.226,1.152-3.507,17.885-3.61,18.408h-10l-1.092-1.685Z" transform="translate(-38.619 -36.854)" fill="#99c1ff"/>
          <path id="Trazado_229323" data-name="Trazado 229323" d="M163.087,137.747H187.9l-3.671,18.408H159.477Z" transform="translate(-42.668 -36.854)" fill="#fff"/>
          <path id="Trazado_229324" data-name="Trazado 229324" d="M154.526,124.428c0,1.9,5.7,3.166,7.569,1.165a2.11,2.11,0,0,0,.551-1.129l1.074-4.82-6.813-2.568-.2.63Z" transform="translate(-41.344 -31.324)" fill="#f7a594"/>
          <path id="Trazado_229325" data-name="Trazado 229325" d="M163.543,124.769l1.074-4.82-6.446-1.735c-1.669,4.965,4.286,8.932,5.371,6.555" transform="translate(-42.241 -31.628)" fill="#f4856d"/>
          <path id="Trazado_229326" data-name="Trazado 229326" d="M157.081,111.607c-.359,4.737,3.385,8.909,6.526,9.12s7.466-3.3,7.824-8.034-2.563-8.82-6.525-9.12-7.466,3.3-7.825,8.034" transform="translate(-42.021 -27.707)" fill="#f7a594"/>
          <path id="Trazado_229327" data-name="Trazado 229327" d="M162.293,103.64c4.343-2.75,6.734-.164,8.9,2.58,1.518,1.926,2.593,3.309,4.482,3.6-3.634,4.583-10.9,1.559-13.19-3.033a5.518,5.518,0,0,1-5.441,4.53c-.691-2.909,1.324-8.79,5.252-7.675" transform="translate(-41.981 -27.415)" fill="#0e0e0e"/>
          <path id="Trazado_229328" data-name="Trazado 229328" d="M155.64,113.942a1.89,1.89,0,1,0,1.89-1.89,1.89,1.89,0,0,0-1.89,1.89" transform="translate(-41.642 -29.98)" fill="#f7a594"/>
        </g>
      </g>
    </g>
  </g>
</svg>
