<svg id="Grupo_114051" data-name="Grupo 114051" xmlns="http://www.w3.org/2000/svg" xmlns:xlink="http://www.w3.org/1999/xlink" width="273.362" height="272.414" viewBox="0 0 273.362 272.414">
  <defs>
    <clipPath id="clip-path">
      <rect id="Rectángulo_48218" data-name="Rectángulo 48218" width="273.362" height="272.414" fill="none"/>
    </clipPath>
    <clipPath id="clip-path-3">
      <rect id="Rectángulo_48168" data-name="Rectángulo 48168" width="57.475" height="162.834" fill="none"/>
    </clipPath>
    <clipPath id="clip-path-4">
      <rect id="Rectángulo_48169" data-name="Rectángulo 48169" width="31.782" height="118.773" fill="none"/>
    </clipPath>
    <clipPath id="clip-path-5">
      <path id="Trazado_224171" data-name="Trazado 224171" d="M1586.354,338.176a1.022,1.022,0,0,0-.7.976v5.228l4.581-.113-.39-4.883a1.475,1.475,0,0,0-.935-1.271,3.085,3.085,0,0,0-1.085-.185,4.9,4.9,0,0,0-1.468.248" transform="translate(-1585.651 -337.928)" fill="none"/>
    </clipPath>
    <linearGradient id="linear-gradient" x1="-33.324" y1="40.547" x2="-33.303" y2="40.547" gradientUnits="objectBoundingBox">
      <stop offset="0" stop-color="#a09799"/>
      <stop offset="1" stop-color="#8f888a"/>
    </linearGradient>
    <clipPath id="clip-path-7">
      <path id="Trazado_224174" data-name="Trazado 224174" d="M1703.8,383.5l-3.19,3.823,4.151,2.762,2.321-4.5a1.083,1.083,0,0,0-.159-1.228,4.362,4.362,0,0,0-1.846-1.227,1.173,1.173,0,0,0-.366-.059,1.186,1.186,0,0,0-.91.427" transform="translate(-1700.613 -383.073)" fill="none"/>
    </clipPath>
    <linearGradient id="linear-gradient-2" x1="-31.949" y1="28.295" x2="-31.93" y2="28.295" xlink:href="#linear-gradient"/>
    <clipPath id="clip-path-9">
      <path id="Trazado_224177" data-name="Trazado 224177" d="M1105.539,362.092l2.783,5.82s1.629,1.762,2.778.43c0,0,1.009-2.1.134-3.206s-4.031-4.535-4.031-4.535l-.367-2.369Z" transform="translate(-1105.539 -358.234)" fill="#f5d3a3"/>
    </clipPath>
    <clipPath id="clip-path-10">
      <path id="Trazado_224178" data-name="Trazado 224178" d="M1095.417,433.441c1.788.909,4.648.186,5.7-.131l1.371-9.629-2.778-.43a43.986,43.986,0,0,0-4.29,10.191" transform="translate(-1095.417 -423.25)" fill="#f5d3a3"/>
    </clipPath>
    <clipPath id="clip-path-12">
      <path id="Trazado_224180" data-name="Trazado 224180" d="M1155.207,358.648l3.266,5.15a1.583,1.583,0,0,0,1.425.751c1.352-.089,2.979-1.273,4.874-3.532a1.094,1.094,0,0,0-.081-1.485l-6.145-5.969Z" transform="translate(-1155.207 -353.563)" fill="#f5d3a3"/>
    </clipPath>
    <clipPath id="clip-path-13">
      <path id="Trazado_224181" data-name="Trazado 224181" d="M1017.534,542.219l11,.041.427-2.872-5.286-2.057Z" transform="translate(-1017.534 -537.331)" fill="#f5d3a3"/>
    </clipPath>
    <clipPath id="clip-path-14">
      <path id="Trazado_224182" data-name="Trazado 224182" d="M1108.425,322.062s.838,5.9,3.1,7.709,6.678.448,8.168-4l-2.97-7.6Z" transform="translate(-1108.425 -318.174)" fill="#ffd291"/>
    </clipPath>
    <clipPath id="clip-path-16">
      <path id="Trazado_224184" data-name="Trazado 224184" d="M1166.261,341.981l.3,1.578c1.348-.43,2.832-2.684,1.655-3.709a.717.717,0,0,0-.469-.2c-.909,0-1.483,2.335-1.483,2.335" transform="translate(-1166.261 -339.646)" fill="none"/>
    </clipPath>
    <linearGradient id="linear-gradient-3" x1="-42.631" y1="48.221" x2="-42.595" y2="48.221" xlink:href="#linear-gradient"/>
    <clipPath id="clip-path-18">
      <path id="Trazado_224188" data-name="Trazado 224188" d="M1084.287,527.267l-.012,2.831c7.316.485,12.761.191,16.883-.749a12.062,12.062,0,0,0-2.758-6.259c-6.177,4.353-14.113,4.177-14.113,4.177" transform="translate(-1084.275 -523.09)" fill="#f5d3a3"/>
    </clipPath>
    <clipPath id="clip-path-20">
      <rect id="Rectángulo_48185" data-name="Rectángulo 48185" width="68.989" height="68.188" fill="none"/>
    </clipPath>
    <clipPath id="clip-path-21">
      <path id="Trazado_224198" data-name="Trazado 224198" d="M304.74,1481.156l1.881,14.111a16.026,16.026,0,0,0-3.763,6.585c-.941,3.763-1.808,19.562-1.808,19.562l-1.786,1.08-.217.9,5.2,6.985-.861-5.56c-.137-.883.1-2.672.025-2.71,2.822-7.525,8.859-28.725,8.859-28.725v-14.111Z" transform="translate(-299.048 -1479.274)" fill="#e8d5ba"/>
    </clipPath>
    <clipPath id="clip-path-22">
      <path id="Trazado_224199" data-name="Trazado 224199" d="M349.927,1399.268l4.7,15.992c-3.223,4.835.526,33.149.445,33.137l.005.063-1.227,1.687.149.915,7.5,4.424-2.95-4.791a5.379,5.379,0,0,1-.78-2.508h-.1c-.048,0-.1,0-.145,0,.364-4.537,2.026-24.5,3.689-31.988,1.881-8.466-2.822-25.4-2.822-25.4Z" transform="translate(-349.927 -1390.802)" fill="#e8d5ba"/>
    </clipPath>
    <clipPath id="clip-path-23">
      <path id="Trazado_224200" data-name="Trazado 224200" d="M296.755,1166.665l1.68-1.216s-8.184-7.836,0-17.43l-1.68-9.458s-16.484,18.578,0,28.1" transform="translate(-289.428 -1138.561)" fill="#eed4b0"/>
    </clipPath>
    <clipPath id="clip-path-25">
      <path id="Trazado_224204" data-name="Trazado 224204" d="M355.5,1069.469h6.4l-.673-7.917-4.133-4.167Z" transform="translate(-355.499 -1057.385)" fill="#eed4b0"/>
    </clipPath>
    <clipPath id="clip-path-27">
      <path id="Trazado_224206" data-name="Trazado 224206" d="M407.2,1135.218a2.562,2.562,0,0,0-2.332,2.772,39.3,39.3,0,0,0,1.741,8.532,29.249,29.249,0,0,0,1.667,4.214,17.589,17.589,0,0,0,1.212,2.145,10.271,10.271,0,0,0,1.922,2.224c.24.192.488.379.76.558a6.1,6.1,0,0,0,.99.5c.193.072.388.138.584.2a3.859,3.859,0,0,0,.449.081c.286.042.572.076.858.1.537.031.984-.013,1.475-.03.439-.059.859-.134,1.285-.2a22.949,22.949,0,0,0,4.391-1.492c.677-.309,1.328-.643,1.978-.974.637-.355,1.264-.724,1.88-1.1a28.249,28.249,0,0,0,3.517-2.568.973.973,0,0,0-.82-1.687l-.021,0c-2.761.512-5.45,1.189-8.036,1.671a27.418,27.418,0,0,1-3.689.506l-.787,0c-.2-.034-.858-.139-.838-.141s.132-.021.1-.047a6.647,6.647,0,0,1-.7-1c-.257-.456-.538-.958-.793-1.505-.5-1.1-.976-2.294-1.441-3.514-.914-2.437-1.765-5.04-2.707-7.521l-.034-.091a2.563,2.563,0,0,0-2.392-1.65c-.073,0-.148,0-.223.01" transform="translate(-404.854 -1135.208)" fill="#eed4b0"/>
    </clipPath>
    <clipPath id="clip-path-28">
      <path id="Trazado_224207" data-name="Trazado 224207" d="M560.549,1206.2l-1.141,2.709c-.06,1.8,5.046.63,5.527-.542a2.2,2.2,0,0,0-.42-2.167c2.523-.456,2.042-1.5,2.042-1.5Z" transform="translate(-559.407 -1204.702)" fill="#eed4b0"/>
    </clipPath>
    <clipPath id="clip-path-29">
      <path id="Trazado_224208" data-name="Trazado 224208" d="M364.162,1021.635c1.248,3.848,5.853,6.828,7.361,4.167s-.292-9.008-.52-9.142a7.767,7.767,0,0,0-3.821-1.277c-3.064,0-3.955,3.37-3.02,6.252" transform="translate(-363.809 -1015.383)" fill="#eed4b0"/>
    </clipPath>
    <clipPath id="clip-path-31">
      <rect id="Rectángulo_48208" data-name="Rectángulo 48208" width="90.392" height="32.262" fill="#ffca28"/>
    </clipPath>
    <clipPath id="clip-path-32">
      <rect id="Rectángulo_48209" data-name="Rectángulo 48209" width="67.51" height="26.01" fill="none"/>
    </clipPath>
    <clipPath id="clip-path-33">
      <rect id="Rectángulo_48210" data-name="Rectángulo 48210" width="69.602" height="27.693" fill="none"/>
    </clipPath>
    <clipPath id="clip-path-34">
      <rect id="Rectángulo_48211" data-name="Rectángulo 48211" width="12.769" height="12.765" fill="none"/>
    </clipPath>
    <clipPath id="clip-path-35">
      <rect id="Rectángulo_48212" data-name="Rectángulo 48212" width="31.125" height="31.386" fill="none"/>
    </clipPath>
    <clipPath id="clip-path-36">
      <rect id="Rectángulo_48213" data-name="Rectángulo 48213" width="41.456" height="17.293" fill="none"/>
    </clipPath>
    <clipPath id="clip-path-37">
      <rect id="Rectángulo_48214" data-name="Rectángulo 48214" width="35.572" height="18.433" fill="none"/>
    </clipPath>
    <clipPath id="clip-path-38">
      <rect id="Rectángulo_48215" data-name="Rectángulo 48215" width="8.698" height="8.698" fill="none"/>
    </clipPath>
    <clipPath id="clip-path-39">
      <rect id="Rectángulo_48216" data-name="Rectángulo 48216" width="21.479" height="21.653" fill="none"/>
    </clipPath>
  </defs>
  <g id="Grupo_114050" data-name="Grupo 114050" clip-path="url(#clip-path)">
    <g id="Grupo_113969" data-name="Grupo 113969">
      <g id="Grupo_113968" data-name="Grupo 113968" clip-path="url(#clip-path)">
        <path id="Trazado_224150" data-name="Trazado 224150" d="M246.836,241.708a98.036,98.036,0,0,1-15.023,12.563c-49.008,34.925-107,24.744-119.321,22.258-18.2-3.671-53.378-10.768-78.811-40.474C-4.8,191.112,1.194,120.306,31.04,73.566c5.459-8.55,34.3-56,92.911-63.612,35.472-4.605,76.822,4.683,106.766,29.6,62.855,52.3,58.381,157.964,16.118,202.154" transform="translate(-5.722 -7.504)" fill="#4dd0e1" opacity="0.13"/>
        <path id="Trazado_224151" data-name="Trazado 224151" d="M177.969,1.91A1.467,1.467,0,0,1,180.248.3c11.573,8.631,40.04,35.181,39.62,87.281-.527,65.368,15.578,87.367,33.927,99.817,0,0-23.726-4.139-40.885-26.369C170.782,106.445,185.761,25.958,177.969,1.91" transform="translate(-151.413 0)" fill="#4dd0e1"/>
        <g id="Grupo_113964" data-name="Grupo 113964" transform="translate(36.787 20.653)" style="mix-blend-mode: soft-light;isolation: isolate">
          <g id="Grupo_113963" data-name="Grupo 113963">
            <g id="Grupo_113962" data-name="Grupo 113962" clip-path="url(#clip-path-3)">
              <path id="Trazado_224152" data-name="Trazado 224152" d="M247.142,139.233c2.124,7.029,4.108,14.1,5.831,21.225q2.64,10.679,4.622,21.5c1.29,7.212,2.445,14.446,3.291,21.719.878,7.269,1.443,14.567,1.985,21.9.582,7.322,1.127,14.7,2.43,22.049a74.484,74.484,0,0,0,6.939,21.308c.864,1.665,1.761,3.32,2.747,4.906.957,1.6,1.985,3.168,3.041,4.712a77.238,77.238,0,0,0,24.423,22.828,1.419,1.419,0,0,0,1.5-2.41l0,0c-1.526-.977-3.039-1.971-4.5-3.029-.74-.517-1.456-1.066-2.182-1.6-.7-.562-1.431-1.1-2.118-1.68a74.853,74.853,0,0,1-7.831-7.425,82.029,82.029,0,0,1-12.289-17.713,71.463,71.463,0,0,1-4.126-9.945,81.046,81.046,0,0,1-2.637-10.486c-1.319-7.124-1.919-14.424-2.554-21.742s-1.343-14.669-2.342-21.978q-.735-5.484-1.666-10.937c-.3-1.819-.635-3.632-.966-5.445q-.524-2.715-1.082-5.423-2.262-10.824-5.186-21.485c-1.985-7.093-4.158-14.13-6.6-21.072a.381.381,0,0,0-.724.236" transform="translate(-247.125 -138.742)" fill="#fff"/>
            </g>
          </g>
        </g>
        <path id="Trazado_224153" data-name="Trazado 224153" d="M52.3,507.685a3.689,3.689,0,0,1-5.869,1.749c-11.173-9.17-40.42-37.952-40.18-87.85.2-42.136-3.692-65-6.18-75.262A2.313,2.313,0,0,1,3.8,344.006C22.687,359.815,80.129,416.934,52.3,507.685" transform="translate(0 -292.33)" fill="#3ff3f2"/>
        <g id="Grupo_113967" data-name="Grupo 113967" transform="translate(17.391 96.981)" style="mix-blend-mode: soft-light;isolation: isolate">
          <g id="Grupo_113966" data-name="Grupo 113966">
            <g id="Grupo_113965" data-name="Grupo 113965" clip-path="url(#clip-path-4)">
              <path id="Trazado_224154" data-name="Trazado 224154" d="M148.193,770.06a1.024,1.024,0,0,1-1.532-.384c-.274-.578-27.469-58.524-29.834-117.125a1.023,1.023,0,0,1,2.044-.083c2.348,58.174,29.366,115.756,29.638,116.331a1.023,1.023,0,0,1-.316,1.261" transform="translate(-116.825 -651.487)" fill="#fff"/>
            </g>
          </g>
        </g>
        <path id="Trazado_224155" data-name="Trazado 224155" d="M81.773,688.307a4.409,4.409,0,0,0,4.4,4.393h237.81a4.409,4.409,0,0,0,4.4-4.393l1.979-136.663a7.658,7.658,0,0,0-8.065-6.779L89.879,538.851a11.082,11.082,0,0,0-11.371,11.334Z" transform="translate(-66.818 -458.634)" fill="#353334"/>
        <path id="Trazado_224156" data-name="Trazado 224156" d="M110.675,713.89a4.173,4.173,0,0,0,4.16,4.16H342.806a4.173,4.173,0,0,0,4.161-4.16l1.867-124.064c-.22-7.466-6.765-10.149-10.733-9.991l-222.748-5.976a7.788,7.788,0,0,0-7.991,7.97Z" transform="translate(-91.378 -488.432)" fill="#cbeeff"/>
        <path id="Trazado_224157" data-name="Trazado 224157" d="M1696.936,954.32h-.009a.549.549,0,0,1-.6-.478l.148-7.764a.557.557,0,0,1,.609-.464h.009a.549.549,0,0,1,.6.478l-.148,7.764a.557.557,0,0,1-.609.464" transform="translate(-1443.811 -804.851)" fill="#d3c6c7"/>
        <path id="Trazado_224158" data-name="Trazado 224158" d="M1241.8,655.67h-.009a.549.549,0,0,1-.6-.478l.566-29.735a4.978,4.978,0,0,0-2.065-4.182c-2.539-1.877-6.569-1.781-6.738-1.775l-71.2-1.473a.544.544,0,0,1-.593-.483.538.538,0,0,1,.626-.457l71.153,1.473c.443-.02,4.734-.078,7.591,2.035a5.8,5.8,0,0,1,2.441,4.866l-.566,29.745a.556.556,0,0,1-.609.464" transform="translate(-988.314 -525.226)" fill="#d3c6c7"/>
        <path id="Trazado_224159" data-name="Trazado 224159" d="M10.736,1579.945H278.147a1.859,1.859,0,0,0,1.854-1.854v-8.3a1.859,1.859,0,0,0-1.854-1.854H10.736a1.859,1.859,0,0,0-1.854,1.854v8.3a1.859,1.859,0,0,0,1.854,1.854" transform="translate(-7.56 -1334.534)" fill="#4b4849"/>
        <path id="Trazado_224160" data-name="Trazado 224160" d="M309.625,742.027c1.014-40.109,31.626-72.29,69.242-72.29s68.228,32.181,69.242,72.29h22.033A6.226,6.226,0,0,0,476.1,735.2c-3.5-54.363-45.69-97.3-97.23-97.3-51.373,0-93.461,42.658-97.194,96.772a6.656,6.656,0,0,0,6.342,7.354Z" transform="translate(-239.728 -542.943)" fill="#4dd0e1"/>
        <path id="Trazado_224161" data-name="Trazado 224161" d="M921.577,644.59a2.3,2.3,0,0,1-2.3-2.3V606.562a2.3,2.3,0,1,1,4.59,0V642.3a2.3,2.3,0,0,1-2.295,2.3" transform="translate(-782.438 -514.316)" fill="#fff"/>
        <path id="Trazado_224162" data-name="Trazado 224162" d="M1168.858,750.13a2.3,2.3,0,0,1-1.984-3.445l17.247-29.8a2.3,2.3,0,0,1,3.973,2.3l-17.247,29.8a2.294,2.294,0,0,1-1.989,1.146" transform="translate(-992.91 -609.191)" fill="#fff"/>
        <path id="Trazado_224163" data-name="Trazado 224163" d="M1327.619,1023.569a2.3,2.3,0,0,1-1.059-4.332l28.756-14.922a2.295,2.295,0,1,1,2.114,4.074l-28.756,14.922a2.283,2.283,0,0,1-1.055.258" transform="translate(-1128.034 -854.592)" fill="#fff"/>
        <path id="Trazado_224164" data-name="Trazado 224164" d="M562.663,768.146a2.291,2.291,0,0,1-1.819-.894l-20.865-27.07a2.295,2.295,0,1,1,3.635-2.8l20.865,27.07a2.3,2.3,0,0,1-1.816,3.7" transform="translate(-459.191 -626.853)" fill="#fff"/>
        <path id="Trazado_224165" data-name="Trazado 224165" d="M345.093,1027.833a2.291,2.291,0,0,1-.907-.188l-31.7-13.662a2.3,2.3,0,0,1,1.817-4.216l31.7,13.662a2.3,2.3,0,0,1-.909,4.4" transform="translate(-264.787 -859.294)" fill="#fff"/>
        <path id="Trazado_224166" data-name="Trazado 224166" d="M849.962,711.91l-7.174-94.68a.3.3,0,1,1,.6-.089l19.2,91.28Z" transform="translate(-717.33 -525.035)" fill="#4b4849"/>
        <path id="Trazado_224167" data-name="Trazado 224167" d="M896.121,1215.8a10.025,10.025,0,1,1-10.025-10.025,10.025,10.025,0,0,1,10.025,10.025" transform="translate(-745.658 -1026.28)" fill="#4b4849"/>
        <path id="Trazado_224168" data-name="Trazado 224168" d="M897.59,1239.2a7.639,7.639,0,1,1,7.639-7.639,7.648,7.648,0,0,1-7.639,7.639m0-14.951a7.311,7.311,0,1,0,7.311,7.311,7.32,7.32,0,0,0-7.311-7.311" transform="translate(-757.473 -1041.726)" fill="#f4f0ef"/>
        <path id="Trazado_224169" data-name="Trazado 224169" d="M1583.394,277.443c0-.131-.009-.25-.012-.354a.989.989,0,0,1,.328-.769,27.52,27.52,0,0,1,12.828-6.309.842.842,0,0,1,.858.359,17.882,17.882,0,0,0-2.338.48,28.475,28.475,0,0,0-11.664,6.594" transform="translate(-1347.679 -229.804)" fill="#4b4849"/>
        <path id="Trazado_224170" data-name="Trazado 224170" d="M1595.129,272.984a17.88,17.88,0,0,1,2.337-.48.852.852,0,0,1,.022.938,5.741,5.741,0,0,1-.41.58c-1.059,1.325-9.613,10.1-9.613,10.1s-2.716.331-3.546-.15c-.269-.156-.4-2.975-.453-4.4a28.476,28.476,0,0,1,11.664-6.594" transform="translate(-1347.75 -231.939)" fill="#353334"/>
      </g>
    </g>
    <g id="Grupo_113971" data-name="Grupo 113971" transform="translate(236.04 50.304)">
      <g id="Grupo_113970" data-name="Grupo 113970" clip-path="url(#clip-path-5)">
        <rect id="Rectángulo_48171" data-name="Rectángulo 48171" width="7.046" height="5.466" transform="translate(-0.923 6.317) rotate(-81.685)" fill="url(#linear-gradient)"/>
      </g>
    </g>
    <g id="Grupo_113973" data-name="Grupo 113973">
      <g id="Grupo_113972" data-name="Grupo 113972" clip-path="url(#clip-path)">
        <path id="Trazado_224172" data-name="Trazado 224172" d="M1720.275,347.272a1.059,1.059,0,0,1,.338-.507,65.176,65.176,0,0,1,8.065,2.474c5.428,1.917,7.017,3.59,7.475,4.485-2.326.681-7.612,1.722-15.194.24l-1.5-.7a28.667,28.667,0,0,1,.815-5.991" transform="translate(-1463.501 -295.146)" fill="#353334"/>
        <path id="Trazado_224173" data-name="Trazado 224173" d="M1735.27,347.826a65.17,65.17,0,0,0-8.065-2.474,1.06,1.06,0,0,1,.9-.225c2.7.561,10.841,2.478,15.1,5.929a.683.683,0,0,1-.222,1.185l-.232.07c-.458-.895-2.047-2.569-7.475-4.485" transform="translate(-1470.093 -293.732)" fill="#4b4849"/>
      </g>
    </g>
    <g id="Grupo_113975" data-name="Grupo 113975" transform="translate(253.153 57.024)">
      <g id="Grupo_113974" data-name="Grupo 113974" clip-path="url(#clip-path-7)">
        <rect id="Rectángulo_48173" data-name="Rectángulo 48173" width="7.905" height="7.623" transform="matrix(0.145, -0.989, 0.989, 0.145, -1.003, 6.866)" fill="url(#linear-gradient-2)"/>
      </g>
    </g>
    <g id="Grupo_113977" data-name="Grupo 113977">
      <g id="Grupo_113976" data-name="Grupo 113976" clip-path="url(#clip-path)">
        <path id="Trazado_224175" data-name="Trazado 224175" d="M1572.7,367.142s-3.893-.747-6.053,0c0,0-2.847,17.088-2.358,22.582l8.411,1.71s.239-19.253,0-24.292" transform="translate(-1331.382 -312.206)" fill="#4b4849"/>
        <path id="Trazado_224176" data-name="Trazado 224176" d="M1389.211,431.591s27.506,1.544,38.67.774a3.091,3.091,0,0,0,2.553-1.7c2.393-4.79,9.569-19.164,10.2-20.536,0,0-2.915-2.435-5.067-2.771,0,0-10.188,11.334-10.614,17.116,0,0-23.593-6.785-25.922-6.721s-9.476,3.253-9.476,3.253Z" transform="translate(-1182.413 -346.716)" fill="#615c5d"/>
      </g>
    </g>
    <g id="Grupo_113979" data-name="Grupo 113979" transform="translate(164.571 53.327)">
      <g id="Grupo_113978" data-name="Grupo 113978" clip-path="url(#clip-path-9)">
        <rect id="Rectángulo_48175" data-name="Rectángulo 48175" width="6.57" height="11.44" transform="translate(0 0)" fill="#f5d3a3"/>
      </g>
    </g>
    <g id="Grupo_113981" data-name="Grupo 113981" transform="translate(163.064 63.005)">
      <g id="Grupo_113980" data-name="Grupo 113980" clip-path="url(#clip-path-10)">
        <rect id="Rectángulo_48176" data-name="Rectángulo 48176" width="7.067" height="11.1" transform="translate(0)" fill="#f5d3a3"/>
      </g>
    </g>
    <g id="Grupo_113983" data-name="Grupo 113983">
      <g id="Grupo_113982" data-name="Grupo 113982" clip-path="url(#clip-path)">
        <path id="Trazado_224179" data-name="Trazado 224179" d="M1083.253,411.923a56.917,56.917,0,0,1,1.8-9.376c1.788.909,4.648.186,5.7-.131l-.394,2.765,1.053-3.724a21.618,21.618,0,0,1,7.758-11.356l2.614-1.978c2.569-1.944,6.676-1.272,9.3.6,5.818,4.159,14.455,11.131,17.4,13.529a2.171,2.171,0,0,0,2.25.3l.492-.218a.659.659,0,0,1,.922.676l-1.252,11.447-19.988-.231c-2.4,0-9.34-.247-10.444-2.374l-1.848-4.537a36.323,36.323,0,0,1-12.864,6.952,2.086,2.086,0,0,1-2.495-2.344" transform="translate(-921.988 -329.351)" fill="#3ff3f2"/>
      </g>
    </g>
    <g id="Grupo_113985" data-name="Grupo 113985" transform="translate(171.964 52.631)">
      <g id="Grupo_113984" data-name="Grupo 113984" clip-path="url(#clip-path-12)">
        <rect id="Rectángulo_48178" data-name="Rectángulo 48178" width="9.932" height="11.023" transform="translate(0 0)" fill="#f5d3a3"/>
      </g>
    </g>
    <g id="Grupo_113987" data-name="Grupo 113987" transform="translate(151.47 79.987)">
      <g id="Grupo_113986" data-name="Grupo 113986" clip-path="url(#clip-path-13)">
        <rect id="Rectángulo_48179" data-name="Rectángulo 48179" width="11.097" height="11.942" transform="translate(-2.423 2.916) rotate(-50.273)" fill="#f5d3a3"/>
      </g>
    </g>
    <g id="Grupo_113989" data-name="Grupo 113989" transform="translate(165 47.363)">
      <g id="Grupo_113988" data-name="Grupo 113988" clip-path="url(#clip-path-14)">
        <rect id="Rectángulo_48180" data-name="Rectángulo 48180" width="14.449" height="15.938" transform="translate(-3.458 0.961) rotate(-15.524)" fill="#ffd291"/>
      </g>
    </g>
    <g id="Grupo_113991" data-name="Grupo 113991">
      <g id="Grupo_113990" data-name="Grupo 113990" clip-path="url(#clip-path)">
        <path id="Trazado_224183" data-name="Trazado 224183" d="M1095.77,294.714a.292.292,0,0,1-.38-.234,7.619,7.619,0,0,0-.7-2.355s.216-.774-1.955.4-5.432,2.885-7.352,1.863c-1.872-1-3.768-6.012,1.179-5.083a.292.292,0,0,0,.347-.305,3.009,3.009,0,0,1,1.942-3.33,2.76,2.76,0,0,1,3.186.731.29.29,0,0,0,.454-.007,3.366,3.366,0,0,1,4.153-1.25c1.773.781,2.048,1.873,2.019,2.554a.291.291,0,0,0,.415.277,1.752,1.752,0,0,1,2.253.668c1.156,1.449-.5,2.706-.992,3.035a.291.291,0,0,0-.132.241c0,.754-.122,4.041-1.77,5.9a.294.294,0,0,1-.489-.085l-1.269-3.022a.293.293,0,0,0-.36-.166Z" transform="translate(-922.134 -242.432)" fill="#353334"/>
      </g>
    </g>
    <g id="Grupo_113993" data-name="Grupo 113993" transform="translate(173.61 50.56)">
      <g id="Grupo_113992" data-name="Grupo 113992" clip-path="url(#clip-path-16)">
        <rect id="Rectángulo_48182" data-name="Rectángulo 48182" width="4.061" height="4.608" transform="translate(-1.009 0.28) rotate(-15.524)" fill="url(#linear-gradient-3)"/>
      </g>
    </g>
    <g id="Grupo_113995" data-name="Grupo 113995">
      <g id="Grupo_113994" data-name="Grupo 113994" clip-path="url(#clip-path)">
        <path id="Trazado_224185" data-name="Trazado 224185" d="M1186.091,402.117s-.237-7.3,2.762-7.446c3.724-.182,9.709,2.516,6.146,13.214-1.969,5.91-4.935,10.3-13.079,12.154a12.058,12.058,0,0,0-2.757-6.259,16.455,16.455,0,0,0,6.929-11.663" transform="translate(-1003.632 -335.913)" fill="#4dd0e1"/>
        <path id="Trazado_224186" data-name="Trazado 224186" d="M1180,412.136a.29.29,0,0,0,.168-.053c3.821-2.692,5.943-6.375,6.676-11.59a.275.275,0,0,0,0-.05c-.063-1.951.261-7.036,2.484-7.145a7.269,7.269,0,0,1,3.175.571.292.292,0,0,0,.232-.536,7.88,7.88,0,0,0-3.435-.619c-3.185.156-3.056,7.159-3.04,7.721-.713,5.031-2.757,8.581-6.431,11.17a.292.292,0,0,0,.168.53" transform="translate(-1004.099 -334.248)" fill="#38ecd1"/>
        <path id="Trazado_224187" data-name="Trazado 224187" d="M1213.431,476.506a.29.29,0,0,0,.1-.016c6.756-2.332,9.12-6.955,10.668-11.6a24.1,24.1,0,0,0,.8-3.016.292.292,0,0,0-.573-.111,23.57,23.57,0,0,1-.785,2.942c-1.5,4.507-3.789,8.988-10.305,11.237a.292.292,0,0,0,.095.568" transform="translate(-1032.551 -392.821)" fill="#38ecd1"/>
      </g>
    </g>
    <g id="Grupo_113997" data-name="Grupo 113997" transform="translate(161.405 77.867)">
      <g id="Grupo_113996" data-name="Grupo 113996" clip-path="url(#clip-path-18)">
        <rect id="Rectángulo_48184" data-name="Rectángulo 48184" width="16.553" height="17.773" transform="matrix(0.639, -0.769, 0.769, 0.639, -3.683, 4.432)" fill="#f5d3a3"/>
      </g>
    </g>
    <g id="Grupo_114002" data-name="Grupo 114002">
      <g id="Grupo_114001" data-name="Grupo 114001" clip-path="url(#clip-path)">
        <path id="Trazado_224189" data-name="Trazado 224189" d="M1001.509,563.737h-.058l-25.24-.028a1.13,1.13,0,1,1,0-2.259l25.24.028a1.13,1.13,0,0,1,.055,2.258" transform="translate(-829.931 -477.873)" fill="#4b4849"/>
        <path id="Trazado_224190" data-name="Trazado 224190" d="M820.633,422.858h21.02a4.006,4.006,0,0,1,3.624,2.3l9.718,20.606H828.872a2.435,2.435,0,0,1-2.265-1.54l-7.536-19.067a1.679,1.679,0,0,1,1.561-2.3" transform="translate(-697.043 -359.911)" fill="#4b4849"/>
        <path id="Trazado_224191" data-name="Trazado 224191" d="M910.534,481.795c.455,1.415.119,2.79-.752,3.07s-1.946-.64-2.4-2.055-.119-2.79.751-3.07,1.946.64,2.4,2.055" transform="translate(-772.135 -408.283)" fill="#b2a8aa"/>
        <path id="Trazado_224192" data-name="Trazado 224192" d="M331.693,1114.441l-52.676,52.8a5.367,5.367,0,0,0,.316,7.872l.391.333a4.988,4.988,0,0,0,7.054-.581l48.3-57.35Z" transform="translate(-236.149 -948.545)" fill="#353334"/>
        <g id="Grupo_114000" data-name="Grupo 114000" transform="translate(83.728 104.254)" opacity="0.2">
          <g id="Grupo_113999" data-name="Grupo 113999">
            <g id="Grupo_113998" data-name="Grupo 113998" clip-path="url(#clip-path-20)">
              <path id="Trazado_224193" data-name="Trazado 224193" d="M628.294,719.782c7.95,17,.364,37.336-16.944,45.432s-37.783.881-45.733-16.114-.364-37.336,16.944-45.432,37.783-.881,45.733,16.114" transform="translate(-562.461 -700.347)" fill="#fff"/>
            </g>
          </g>
        </g>
        <path id="Trazado_224194" data-name="Trazado 224194" d="M558.7,678.223c-19.259,9.009-27.7,31.642-18.854,50.554s31.63,26.939,50.889,17.931,27.7-31.642,18.854-50.554-31.63-26.939-50.889-17.931m29.682,63.454c-16.43,7.685-35.867.837-43.413-15.3s-.345-35.442,16.084-43.128,35.867-.837,43.413,15.3.345,35.442-16.084,43.128" transform="translate(-456.499 -574.117)" fill="#353334"/>
        <path id="Trazado_224195" data-name="Trazado 224195" d="M558.695,745.818a.136.136,0,0,1-.128-.063c-.482-.761-.939-1.55-1.361-2.345a.136.136,0,0,1,.241-.127c.418.79.872,1.573,1.35,2.327a.136.136,0,0,1-.042.188.133.133,0,0,1-.06.021m-4.24-9.687a.136.136,0,0,1-.145-.1,34.682,34.682,0,0,1-1.127-7.293,35.444,35.444,0,0,1,5.061-19.921,36.562,36.562,0,0,1,35.652-17.41.136.136,0,0,1-.033.27,36.289,36.289,0,0,0-35.386,17.28,35.174,35.174,0,0,0-5.022,19.769,34.434,34.434,0,0,0,1.118,7.235.136.136,0,0,1-.1.167l-.022,0" transform="translate(-470.805 -588.256)" fill="#615c5d"/>
        <path id="Trazado_224196" data-name="Trazado 224196" d="M293.294,1445.634c-2.22.217-3.734-.419-4.5-1.891a4.047,4.047,0,0,1,.741-4.65l6.232-6.538a.136.136,0,1,1,.2.188l-6.232,6.538a3.775,3.775,0,0,0-.7,4.336c.711,1.364,2.136,1.951,4.235,1.746l.069-.007a.136.136,0,0,1,.027.271l-.07.007" transform="translate(-245.434 -1219.269)" fill="#615c5d"/>
        <path id="Trazado_224197" data-name="Trazado 224197" d="M350.9,1414.407a.136.136,0,0,1-.112-.229l.808-.848a.136.136,0,0,1,.2.188l-.808.847a.135.135,0,0,1-.085.042" transform="translate(-298.535 -1202.906)" fill="#fff"/>
      </g>
    </g>
    <g id="Grupo_114004" data-name="Grupo 114004" transform="translate(44.516 220.205)">
      <g id="Grupo_114003" data-name="Grupo 114003" clip-path="url(#clip-path-21)">
        <rect id="Rectángulo_48187" data-name="Rectángulo 48187" width="52.424" height="30.826" transform="matrix(0.362, -0.932, 0.932, 0.362, -17.249, 44.405)" fill="#e8d5ba"/>
      </g>
    </g>
    <g id="Grupo_114006" data-name="Grupo 114006" transform="translate(52.09 207.035)">
      <g id="Grupo_114005" data-name="Grupo 114005" clip-path="url(#clip-path-22)">
        <rect id="Rectángulo_48188" data-name="Rectángulo 48188" width="43.164" height="62.845" transform="translate(-27.622 15.518) rotate(-29.327)" fill="#e8d5ba"/>
      </g>
    </g>
    <g id="Grupo_114008" data-name="Grupo 114008" transform="translate(43.084 169.486)">
      <g id="Grupo_114007" data-name="Grupo 114007" clip-path="url(#clip-path-23)">
        <rect id="Rectángulo_48189" data-name="Rectángulo 48189" width="18.164" height="28.104" transform="translate(-9.158)" fill="#eed4b0"/>
      </g>
    </g>
    <g id="Grupo_114010" data-name="Grupo 114010">
      <g id="Grupo_114009" data-name="Grupo 114009" clip-path="url(#clip-path)">
        <path id="Trazado_224201" data-name="Trazado 224201" d="M381.07,1789.327h-2.393a1.44,1.44,0,0,1-1.143-.561c-.746-.969-2.291-2.86-3.03-2.909-.995-.066-.867,3.47-.867,3.47h-.558l-.706-4.394a2.6,2.6,0,0,1,1.365-2.719,3.677,3.677,0,0,0,1.46,2.425c1.233.744,5.017,3.408,5.017,3.408a3.426,3.426,0,0,1,.972.026.633.633,0,0,1-.118,1.254" transform="translate(-316.913 -1516.914)" fill="#353334"/>
        <path id="Trazado_224202" data-name="Trazado 224202" d="M293.082,1774.421l-2.205-.928a1.44,1.44,0,0,1-.837-.96c-.312-1.183-1-3.525-1.665-3.857-.891-.447-2.145,2.862-2.145,2.862l-.514-.216,1.053-4.324a2.6,2.6,0,0,1,2.313-1.977,3.679,3.679,0,0,0,.405,2.8c.848,1.163,3.3,5.086,3.3,5.086a3.412,3.412,0,0,1,.886.4.633.633,0,0,1-.595,1.111" transform="translate(-243.184 -1502.28)" fill="#353334"/>
        <path id="Trazado_224203" data-name="Trazado 224203" d="M328.6,1293.9a30.309,30.309,0,0,0,.129,6.357c.406,4.662,2.343,15.606,1.948,26.077,0,0-5.508,1.284-15.078.676,0,0-4.039-16.349-3.055-22.564s6.321-10.674,6.321-10.674Z" transform="translate(-265.887 -1101.181)" fill="#fff"/>
      </g>
    </g>
    <g id="Grupo_114012" data-name="Grupo 114012" transform="translate(52.92 157.402)">
      <g id="Grupo_114011" data-name="Grupo 114011" clip-path="url(#clip-path-25)">
        <rect id="Rectángulo_48191" data-name="Rectángulo 48191" width="13.031" height="8.448" transform="matrix(0.178, -0.984, 0.984, 0.178, -2.12, 11.7)" fill="#eed4b0"/>
      </g>
    </g>
    <g id="Grupo_114014" data-name="Grupo 114014">
      <g id="Grupo_114013" data-name="Grupo 114013" clip-path="url(#clip-path)">
        <path id="Trazado_224205" data-name="Trazado 224205" d="M330.795,1129.891c2.207-.122,7.143-.347,10.639-.156a4.061,4.061,0,0,1,3.759,3.226l.853,4.087a9.842,9.842,0,0,1-.139,4.6l-3.425,12.574s-3.047,1.831-9.735-.128c0,0-5.874-14.007-3.469-22.967a1.665,1.665,0,0,1,1.516-1.233" transform="translate(-279.77 -961.5)" fill="#fff"/>
      </g>
    </g>
    <g id="Grupo_114016" data-name="Grupo 114016" transform="translate(60.267 168.987)">
      <g id="Grupo_114015" data-name="Grupo 114015" clip-path="url(#clip-path-27)">
        <rect id="Rectángulo_48193" data-name="Rectángulo 48193" width="21.469" height="25.293" transform="translate(-0.197 21.368) rotate(-89.771)" fill="#eed4b0"/>
      </g>
    </g>
    <g id="Grupo_114018" data-name="Grupo 114018" transform="translate(83.273 179.332)">
      <g id="Grupo_114017" data-name="Grupo 114017" clip-path="url(#clip-path-28)">
        <rect id="Rectángulo_48194" data-name="Rectángulo 48194" width="6.04" height="7.714" transform="translate(-0.084 6.009) rotate(-89.771)" fill="#eed4b0"/>
      </g>
    </g>
    <g id="Grupo_114020" data-name="Grupo 114020" transform="translate(54.157 151.15)">
      <g id="Grupo_114019" data-name="Grupo 114019" clip-path="url(#clip-path-29)">
        <rect id="Rectángulo_48195" data-name="Rectángulo 48195" width="15.281" height="16.296" transform="translate(-6.494 3.745) rotate(-32.347)" fill="#eed4b0"/>
      </g>
    </g>
    <g id="Grupo_114049" data-name="Grupo 114049">
      <g id="Grupo_114048" data-name="Grupo 114048" clip-path="url(#clip-path)">
        <path id="Trazado_224209" data-name="Trazado 224209" d="M179.98,1001.161c-1.033,5.061-4.455,3.676-6.879,5.927-3.929,3.649-9.548-.113-15.012,3.345-3.944,2.5-5.845,8.883-3.952,14.039,2.622,7.142,11.58,10.079,16.223,7.9,4.437-2.079,3.805-8.305,9.775-10.712,2.534-1.022,3.786-.358,5.3-1.872,2.657-2.651,1.94-7.794,1.664-9.776-.6-4.3-2.041-5.078-1.352-6.967,1.34-3.676,7.591-2.917,8.112-5.512.474-2.363-4.056-6.841-8.319-6.136-6.6,1.092-5.1,7.5-5.564,9.759" transform="translate(-130.564 -843.759)" fill="#353334"/>
        <path id="Trazado_224210" data-name="Trazado 224210" d="M168.138,1133.634a.173.173,0,0,1-.168-.132c-.845-3.506-.461-6.382,1.139-8.547,2.657-3.593,7.819-3.949,7.871-3.952a.175.175,0,0,1,.183.162.172.172,0,0,1-.162.182c-.05,0-5.057.351-7.616,3.815-1.536,2.079-1.9,4.857-1.08,8.258a.173.173,0,0,1-.128.208.185.185,0,0,1-.04,0" transform="translate(-142.595 -954.129)" fill="#615c5d"/>
        <path id="Trazado_224211" data-name="Trazado 224211" d="M284.694,1117.1l-.022,0a.087.087,0,0,1-.062-.106c.823-3.156,2.266-5.348,4.29-6.516a8.477,8.477,0,0,1,4.067-1,4.573,4.573,0,0,0,3-.851c1.685-1.5,1.588-5.1-.29-10.709a.086.086,0,1,1,.164-.055c1.9,5.679,1.983,9.344.241,10.893a4.7,4.7,0,0,1-3.106.894,8.343,8.343,0,0,0-3.991.975c-1.982,1.143-3.4,3.3-4.209,6.41a.086.086,0,0,1-.084.064" transform="translate(-242.241 -934.382)" fill="#615c5d"/>
        <path id="Trazado_224212" data-name="Trazado 224212" d="M347.884,1023.244a.093.093,0,0,1-.028,0,.086.086,0,0,1-.054-.109c.654-1.946,2.538-1.656,4.535-1.35a8.772,8.772,0,0,0,3.678.066c.827-.245,1.318-.625,1.46-1.129.242-.858-.607-1.816-.615-1.825a.086.086,0,0,1,.128-.115,2.473,2.473,0,0,1,.654,1.987c-.159.565-.69.985-1.577,1.248a8.892,8.892,0,0,1-3.753-.061c-2-.308-3.737-.574-4.344,1.234a.086.086,0,0,1-.082.059" transform="translate(-296.024 -867.097)" fill="#615c5d"/>
        <path id="Trazado_224213" data-name="Trazado 224213" d="M494.017,93.92l-95.843-.461c-1.155-.011-2.093,1.267-2.084,2.839l.212,37.92c.009,1.581.971,2.842,2.133,2.795l95.3-2.041c1.109-.045,1.994-1.271,2.008-2.78l.334-35.418c.015-1.563-.908-2.843-2.057-2.854" transform="translate(-337.128 -79.547)" fill="#7b7475"/>
        <path id="Trazado_224214" data-name="Trazado 224214" d="M408.179,148.3a.391.391,0,0,1-.358-.423l-.212-37.92a.467.467,0,0,1,.087-.284.332.332,0,0,1,.27-.145l95.844.461a.331.331,0,0,1,.268.147.472.472,0,0,1,.086.284l-.334,35.418a.392.392,0,0,1-.343.42h0Zm-.214-38.443a.167.167,0,0,0-.028.1l.212,37.92a.125.125,0,0,0,.035.1l95.285-2.043a.132.132,0,0,0,.033-.1l.334-35.418a.146.146,0,0,0-.024-.088Z" transform="translate(-346.932 -93.225)" fill="#fff"/>
        <g id="Grupo_114023" data-name="Grupo 114023" transform="translate(64.933 19.529)">
          <g id="Grupo_114022" data-name="Grupo 114022">
            <g id="Grupo_114021" data-name="Grupo 114021" clip-path="url(#clip-path-31)">
              <rect id="Rectángulo_48196" data-name="Rectángulo 48196" width="4.664" height="17.824" transform="translate(0 14.439)" fill="#ffca28"/>
              <rect id="Rectángulo_48197" data-name="Rectángulo 48197" width="4.664" height="11.698" transform="translate(7.793 20.565)" fill="#ffca28"/>
              <rect id="Rectángulo_48198" data-name="Rectángulo 48198" width="4.664" height="26.838" transform="translate(15.587 5.425)" fill="#ffca28"/>
              <rect id="Rectángulo_48199" data-name="Rectángulo 48199" width="4.664" height="6.447" transform="translate(23.38 25.815)" fill="#ffca28"/>
              <rect id="Rectángulo_48200" data-name="Rectángulo 48200" width="4.664" height="23.25" transform="translate(31.174 9.013)" fill="#ffca28"/>
              <rect id="Rectángulo_48201" data-name="Rectángulo 48201" width="4.664" height="19.224" transform="translate(38.967 13.039)" fill="#ffca28"/>
              <rect id="Rectángulo_48202" data-name="Rectángulo 48202" width="4.664" height="14.848" transform="translate(46.761 17.414)" fill="#ffca28"/>
              <rect id="Rectángulo_48203" data-name="Rectángulo 48203" width="4.664" height="32.263" transform="translate(54.554 0)" fill="#ffca28"/>
              <rect id="Rectángulo_48204" data-name="Rectángulo 48204" width="4.664" height="28.85" transform="translate(62.348 3.412)" fill="#ffca28"/>
              <rect id="Rectángulo_48205" data-name="Rectángulo 48205" width="4.664" height="23.687" transform="translate(70.141 8.576)" fill="#ffca28"/>
              <rect id="Rectángulo_48206" data-name="Rectángulo 48206" width="4.664" height="5.849" transform="translate(77.935 26.414)" fill="#ffca28"/>
              <rect id="Rectángulo_48207" data-name="Rectángulo 48207" width="4.664" height="17.211" transform="translate(85.728 15.051)" fill="#ffca28"/>
            </g>
          </g>
        </g>
        <g id="Grupo_114026" data-name="Grupo 114026" transform="translate(158.536 198.049)" opacity="0.3">
          <g id="Grupo_114025" data-name="Grupo 114025">
            <g id="Grupo_114024" data-name="Grupo 114024" clip-path="url(#clip-path-32)">
              <path id="Trazado_224215" data-name="Trazado 224215" d="M1147.533,1350.3a.931.931,0,0,1-1.271-.343c-.5-.865-1.041-1.723-1.614-2.547a.931.931,0,0,1,.219-1.285l.015-.011a.931.931,0,0,1,1.3.234c.6.868,1.175,1.77,1.7,2.682a.932.932,0,0,1-.343,1.271m-5.948-6.712c-.68-.738-1.4-1.455-2.134-2.13a.931.931,0,1,1,1.258-1.372c.775.71,1.53,1.464,2.245,2.241a.931.931,0,0,1-1.37,1.261m-5.964-5.178c-.824-.567-1.684-1.1-2.554-1.6a.931.931,0,1,1,.919-1.619c.917.52,1.822,1.087,2.69,1.684a.931.931,0,1,1-1.055,1.534m-6.972-3.714c-.932-.369-1.89-.7-2.849-.989a.931.931,0,0,1,.534-1.783c1.01.3,2.019.653,3,1.041a.931.931,0,0,1-.685,1.731m-7.626-2.068c-.988-.152-2-.265-3-.333a.931.931,0,1,1,.127-1.857c1.053.072,2.114.19,3.154.35a.931.931,0,1,1-.284,1.84m-7.893-.329c-1,.07-2.006.184-3,.338a.931.931,0,0,1-.287-1.839c1.041-.163,2.1-.282,3.153-.356a.931.931,0,1,1,.13,1.857m-29.459,18.076a.931.931,0,0,1-.348-1.27c.521-.915,1.09-1.819,1.69-2.688a.931.931,0,0,1,1.532,1.057c-.57.825-1.109,1.684-1.6,2.553a.929.929,0,0,1-1.269.348m21.694-16.648c-.958.29-1.914.625-2.843,1a.931.931,0,1,1-.691-1.729c.978-.391,1.986-.744,2.994-1.05a.931.931,0,1,1,.54,1.781m-17.079,9.977a.931.931,0,0,1-.055-1.315c.713-.775,1.469-1.529,2.246-2.242a.931.931,0,0,1,1.258,1.372c-.739.678-1.457,1.395-2.135,2.131a.921.921,0,0,1-.14.124.93.93,0,0,1-1.175-.07m9.829-6.85c-.868.5-1.726,1.037-2.55,1.608a.931.931,0,0,1-1.075-1.519l.016-.011c.867-.6,1.771-1.17,2.684-1.693a.931.931,0,0,1,1.009,1.561c-.026.019-.055.037-.083.055" transform="translate(-1080.49 -1330.434)" fill="#4dd0e1"/>
              <path id="Trazado_224216" data-name="Trazado 224216" d="M1066.477,1486.364a.927.927,0,0,0,.332-.446c.158-.453.329-.91.507-1.359a.931.931,0,1,0-1.73-.686c-.187.472-.367.953-.534,1.429a.931.931,0,0,0,1.425,1.061" transform="translate(-1065 -1460.532)" fill="#4dd0e1"/>
            </g>
          </g>
        </g>
        <g id="Grupo_114029" data-name="Grupo 114029" transform="translate(159.716 244.622)" opacity="0.3">
          <g id="Grupo_114028" data-name="Grupo 114028">
            <g id="Grupo_114027" data-name="Grupo 114027" clip-path="url(#clip-path-33)">
              <path id="Trazado_224217" data-name="Trazado 224217" d="M1075.048,1676.889a.931.931,0,0,0,.285-1.173c-.216-.428-.427-.869-.627-1.308a.931.931,0,0,0-1.7.77c.21.463.432.926.66,1.377a.93.93,0,0,0,1.377.334" transform="translate(-1072.928 -1669.313)" fill="#4dd0e1"/>
              <path id="Trazado_224218" data-name="Trazado 224218" d="M1145.235,1699.269a.931.931,0,1,1-1.016-1.56c.82-.534,1.63-1.112,2.417-1.722a.931.931,0,0,1,1.141,1.471q-.511.4-1.032.774c-.495.358-1,.707-1.51,1.038m5.013-5.172a.93.93,0,0,1-.013-1.316c.691-.705,1.359-1.447,1.986-2.2a.931.931,0,1,1,1.434,1.187c-.66.8-1.364,1.579-2.091,2.321a.919.919,0,0,1-.12.1.931.931,0,0,1-1.2-.09m-9.443,7.642c-.937.441-1.905.849-2.879,1.21a.931.931,0,1,1-.648-1.745c.925-.344,1.844-.73,2.734-1.149a.931.931,0,0,1,.943,1.6.954.954,0,0,1-.15.088m14.528-13.8a.931.931,0,0,1-.3-1.281c.518-.838,1.007-1.708,1.452-2.586a.931.931,0,0,1,1.66.842c-.469.925-.984,1.841-1.529,2.724a.93.93,0,0,1-1.281.3m-22.268,16.439c-1.01.224-2.044.408-3.073.547a.931.931,0,1,1-.249-1.844c.978-.132,1.96-.306,2.919-.52a.931.931,0,1,1,.4,1.817m-8.132.882c-1.037,0-2.087-.048-3.119-.136a.931.931,0,0,1,.159-1.854c.981.084,1.978.127,2.964.13a.931.931,0,1,1,0,1.861m-8.132-.911c-1.013-.228-2.027-.5-3.015-.812a.931.931,0,1,1,.559-1.775c.939.3,1.9.555,2.865.772a.931.931,0,1,1-.409,1.816m-7.739-2.663c-.938-.444-1.869-.933-2.765-1.454a.931.931,0,1,1,.935-1.609c.851.495,1.734.959,2.626,1.381a.931.931,0,1,1-.8,1.683m-6.968-4.3c-.816-.638-1.615-1.32-2.375-2.026a.931.931,0,0,1,1.267-1.364c.722.671,1.481,1.318,2.256,1.925a.931.931,0,0,1,.159,1.306.946.946,0,0,1-.188.181.931.931,0,0,1-1.119-.022m-5.848-5.72c-.484-.59-.956-1.2-1.4-1.819q-.242-.335-.476-.674a.92.92,0,0,1,.237-1.295.931.931,0,0,1,1.295.237q.222.322.453.641c.424.587.873,1.168,1.333,1.729a.931.931,0,0,1-.129,1.31l-.046.035a.931.931,0,0,1-1.264-.164" transform="translate(-1091.033 -1677.572)" fill="#4dd0e1"/>
              <path id="Trazado_224219" data-name="Trazado 224219" d="M1526.41,1646.405a.929.929,0,0,0,.334-.45c.164-.476.321-.965.467-1.453a.931.931,0,0,0-1.783-.533c-.138.463-.288.928-.444,1.38a.931.931,0,0,0,1.426,1.057" transform="translate(-1457.647 -1643.304)" fill="#4dd0e1"/>
            </g>
          </g>
        </g>
        <path id="Trazado_224220" data-name="Trazado 224220" d="M1167.551,1416.367a.435.435,0,0,0-.269-.427l-4.9-2.014a23.068,23.068,0,0,0-2.451-7.059l2.59-4.614a.435.435,0,0,0-.054-.5l-4.222-4.744a.435.435,0,0,0-.493-.112l-4.883,2.037a23.072,23.072,0,0,0-6.726-3.254l-1.432-5.1a.435.435,0,0,0-.394-.317l-6.34-.369a.435.435,0,0,0-.428.269l-2.014,4.9a23.057,23.057,0,0,0-7.059,2.451l-4.614-2.59a.434.434,0,0,0-.5.054l-4.744,4.222a.435.435,0,0,0-.112.493l2.037,4.883a23.054,23.054,0,0,0-3.254,6.726l-5.1,1.432a.435.435,0,0,0-.317.394l-.369,6.34a.435.435,0,0,0,.269.427l4.9,2.014a23.066,23.066,0,0,0,2.451,7.059l-2.59,4.614a.435.435,0,0,0,.054.5l4.222,4.744a.435.435,0,0,0,.493.112l4.883-2.037a23.061,23.061,0,0,0,6.727,3.254l1.432,5.1a.435.435,0,0,0,.394.317l6.34.369a.436.436,0,0,0,.428-.269l2.014-4.9a23.058,23.058,0,0,0,7.059-2.451l4.614,2.59a.435.435,0,0,0,.5-.054l4.744-4.222a.435.435,0,0,0,.112-.492l-2.037-4.883a23.057,23.057,0,0,0,3.254-6.727l5.1-1.432a.435.435,0,0,0,.317-.394Z" transform="translate(-946.048 -1182.995)" fill="#4dd0e1"/>
        <g id="Grupo_114032" data-name="Grupo 114032" transform="translate(187.095 228.539)" opacity="0.7">
          <g id="Grupo_114031" data-name="Grupo 114031">
            <g id="Grupo_114030" data-name="Grupo 114030" clip-path="url(#clip-path-34)">
              <path id="Trazado_224221" data-name="Trazado 224221" d="M1266.182,1547.307a6.381,6.381,0,1,1,.8-.492,6.391,6.391,0,0,1-.8.492m-7.615-7.134a4.894,4.894,0,1,0,2.408-2.87,4.975,4.975,0,0,0-.618.381,4.858,4.858,0,0,0-1.79,2.488" transform="translate(-1256.848 -1535.262)" fill="#fff"/>
            </g>
          </g>
        </g>
        <g id="Grupo_114035" data-name="Grupo 114035" transform="translate(177.651 219.214)" opacity="0.7">
          <g id="Grupo_114034" data-name="Grupo 114034">
            <g id="Grupo_114033" data-name="Grupo 114033" clip-path="url(#clip-path-35)">
              <path id="Trazado_224222" data-name="Trazado 224222" d="M1218.28,1501.044a15.943,15.943,0,0,0,1.257-1.01c.127-.113.253-.229.377-.346a15.836,15.836,0,0,0,1.68-1.87l.021-.027.058-.078c.038-.05.075-.1.112-.152a.372.372,0,0,0,0-.437.376.376,0,0,0-.083-.083.372.372,0,0,0-.52.081,14.969,14.969,0,0,1-16.179,5.562,14.858,14.858,0,0,1-7.072-4.435,15.164,15.164,0,0,1-.964-1.2,14.953,14.953,0,1,1,26.823-11.536.366.366,0,0,0,.064.149.372.372,0,0,0,.667-.287,15.7,15.7,0,1,0-28.159,12.11,16.061,16.061,0,0,0,1.012,1.259,15.7,15.7,0,0,0,20.9,2.3" transform="translate(-1193.407 -1472.62)" fill="#fff"/>
            </g>
          </g>
        </g>
        <g id="Grupo_114038" data-name="Grupo 114038" transform="translate(224.552 201.932)" opacity="0.3">
          <g id="Grupo_114037" data-name="Grupo 114037">
            <g id="Grupo_114036" data-name="Grupo 114036" clip-path="url(#clip-path-36)">
              <path id="Trazado_224223" data-name="Trazado 224223" d="M1777.183,1458.348a.575.575,0,0,0,.2-.658c-.163-.46-.342-.921-.533-1.371a.575.575,0,0,0-1.059.448c.181.429.352.868.508,1.307a.576.576,0,0,0,.734.35.592.592,0,0,0,.145-.077" transform="translate(-1735.965 -1441.165)" fill="#4dd0e1"/>
              <path id="Trazado_224224" data-name="Trazado 224224" d="M1547.8,1369.722a.575.575,0,0,1-.785-.21,24,24,0,0,0-1.313-2.023q-.149-.205-.3-.409a.575.575,0,0,1,.112-.805.6.6,0,0,1,.805.112q.161.213.316.428a24.886,24.886,0,0,1,1.376,2.122.575.575,0,0,1-.16.753c-.016.011-.032.022-.049.032m-4.3-4.86a23.776,23.776,0,0,0-2.155-1.969.575.575,0,1,1,.722-.9,24.933,24.933,0,0,1,2.259,2.064.575.575,0,0,1-.013.813.616.616,0,0,1-.063.053.575.575,0,0,1-.749-.066m-4.537-3.656a23.58,23.58,0,0,0-2.573-1.379.575.575,0,0,1,.479-1.045,24.806,24.806,0,0,1,2.7,1.446.575.575,0,0,1,.187.791.583.583,0,0,1-.152.163.576.576,0,0,1-.64.023m-5.3-2.43a23.74,23.74,0,0,0-2.832-.707.575.575,0,0,1,.209-1.131,24.981,24.981,0,0,1,2.969.742.575.575,0,1,1-.347,1.1m-5.73-1.062a23.9,23.9,0,0,0-2.918,0,.575.575,0,0,1-.071-1.147,25.125,25.125,0,0,1,3.059,0,.575.575,0,0,1-.07,1.148m-5.814.361a23.55,23.55,0,0,0-2.827.713.575.575,0,1,1-.35-1.1,24.745,24.745,0,0,1,2.966-.748.575.575,0,0,1,.211,1.13m-5.547,1.771a23.645,23.645,0,0,0-2.568,1.386.575.575,0,0,1-.607-.977,24.951,24.951,0,0,1,2.693-1.453.575.575,0,0,1,.579.987.583.583,0,0,1-.1.057m-7.914,5.063a.574.574,0,0,1-.013-.812,24.987,24.987,0,0,1,1.948-1.81c.1-.087.207-.172.311-.256a.575.575,0,0,1,.721.9c-.1.079-.2.159-.294.242a23.892,23.892,0,0,0-1.86,1.727.558.558,0,0,1-.077.066.575.575,0,0,1-.736-.053" transform="translate(-1508.482 -1356.521)" fill="#4dd0e1"/>
            </g>
          </g>
        </g>
        <g id="Grupo_114041" data-name="Grupo 114041" transform="translate(230.806 233.153)" opacity="0.3">
          <g id="Grupo_114040" data-name="Grupo 114040">
            <g id="Grupo_114039" data-name="Grupo 114039" clip-path="url(#clip-path-37)">
              <path id="Trazado_224225" data-name="Trazado 224225" d="M1576.525,1603.533a25.029,25.029,0,0,1-2.561,1.58.575.575,0,0,1-.543-1.013,23.793,23.793,0,0,0,2.443-1.507.575.575,0,0,1,.668.936l-.006,0m1.542-1.92a.575.575,0,0,1,.042-.812,24.048,24.048,0,0,0,2.015-2.047.575.575,0,0,1,.866.756,25.158,25.158,0,0,1-2.112,2.145.574.574,0,0,1-.812-.042m-6.839,4.759a24.942,24.942,0,0,1-2.868.915.575.575,0,0,1-.283-1.115,23.842,23.842,0,0,0,2.736-.872.575.575,0,0,1,.544,1,.564.564,0,0,1-.13.071m10.8-9.095a.575.575,0,0,1-.154-.8,23.568,23.568,0,0,0,1.461-2.472.575.575,0,1,1,1.024.523,24.683,24.683,0,0,1-1.532,2.594.59.59,0,0,1-.139.144.576.576,0,0,1-.659.01m-16.625,10.568a24.949,24.949,0,0,1-3,.2.575.575,0,0,1-.006-1.15,23.593,23.593,0,0,0,2.864-.189.575.575,0,0,1,.145,1.141m-6.008.033a25.128,25.128,0,0,1-2.964-.526.575.575,0,1,1,.269-1.117,24.026,24.026,0,0,0,2.828.5.575.575,0,1,1-.133,1.142m-5.844-1.406a24.89,24.89,0,0,1-2.752-1.223.575.575,0,0,1,.53-1.021,23.489,23.489,0,0,0,2.625,1.165.575.575,0,0,1-.4,1.078" transform="translate(-1550.489 -1589.61)" fill="#4dd0e1"/>
              <path id="Trazado_224226" data-name="Trazado 224226" d="M1779.6,1568.663a.574.574,0,0,0,.2-.269c.169-.462.324-.932.463-1.4a.575.575,0,1,0-1.1-.33c-.132.442-.281.89-.441,1.331a.575.575,0,0,0,.878.662" transform="translate(-1744.721 -1566.26)" fill="#4dd0e1"/>
            </g>
          </g>
        </g>
        <path id="Trazado_224227" data-name="Trazado 224227" d="M1540.214,1414.078a.291.291,0,0,0-.18-.286l-3.277-1.348a15.426,15.426,0,0,0-1.64-4.723l1.733-3.087a.291.291,0,0,0-.037-.336l-2.825-3.174a.291.291,0,0,0-.33-.075l-3.268,1.363a15.433,15.433,0,0,0-4.5-2.177l-.958-3.411a.291.291,0,0,0-.263-.212l-4.242-.247a.292.292,0,0,0-.286.18l-1.347,3.276a15.427,15.427,0,0,0-4.724,1.64l-3.087-1.733a.291.291,0,0,0-.336.037l-3.175,2.825a.292.292,0,0,0-.075.33l1.363,3.268a15.441,15.441,0,0,0-2.177,4.5l-3.411.958a.292.292,0,0,0-.212.263l-.247,4.242a.291.291,0,0,0,.18.286l3.277,1.348a15.433,15.433,0,0,0,1.64,4.724l-1.733,3.087a.291.291,0,0,0,.036.336l2.825,3.175a.291.291,0,0,0,.329.075l3.268-1.363a15.433,15.433,0,0,0,4.5,2.177l.958,3.411a.291.291,0,0,0,.263.212l4.242.247a.291.291,0,0,0,.286-.18l1.348-3.276a15.438,15.438,0,0,0,4.723-1.64l3.087,1.733a.291.291,0,0,0,.336-.036l3.175-2.825a.291.291,0,0,0,.075-.329l-1.363-3.268a15.432,15.432,0,0,0,2.177-4.5l3.411-.958a.291.291,0,0,0,.212-.263Z" transform="translate(-1279.019 -1188.501)" fill="#4dd0e1"/>
        <g id="Grupo_114044" data-name="Grupo 114044" transform="translate(238.097 222.266)" opacity="0.7">
          <g id="Grupo_114043" data-name="Grupo 114043">
            <g id="Grupo_114042" data-name="Grupo 114042" clip-path="url(#clip-path-38)">
              <path id="Trazado_224228" data-name="Trazado 224228" d="M1605.825,1501.327a4.336,4.336,0,1,1,.548-.339,4.43,4.43,0,0,1-.548.339m-4.845-2.38a3.2,3.2,0,1,0,.961-4.067,3.177,3.177,0,0,0-.961,4.067" transform="translate(-1599.47 -1493.123)" fill="#fff"/>
            </g>
          </g>
        </g>
        <g id="Grupo_114047" data-name="Grupo 114047" transform="translate(231.526 215.772)" opacity="0.7">
          <g id="Grupo_114046" data-name="Grupo 114046">
            <g id="Grupo_114045" data-name="Grupo 114045" clip-path="url(#clip-path-39)">
              <path id="Trazado_224229" data-name="Trazado 224229" d="M1572.5,1469.1a10.927,10.927,0,0,0,2.35-2.316l.059-.08a.575.575,0,0,0-.928-.678,9.7,9.7,0,0,1-1.386,1.525h0l-.085.075a9.585,9.585,0,0,1-4.228,2.143,9.733,9.733,0,0,1-2.6.219h-.021l-.066,0a9.617,9.617,0,0,1-6.668-3.228,9.735,9.735,0,0,1-.624-.776,9.68,9.68,0,1,1,17.365-7.469.575.575,0,0,0,1.13-.214,10.83,10.83,0,1,0-19.427,8.355,11.113,11.113,0,0,0,.7.869,10.845,10.845,0,0,0,14.431,1.58" transform="translate(-1555.328 -1449.495)" fill="#fff"/>
            </g>
          </g>
        </g>
      </g>
    </g>
  </g>
</svg>
