<svg xmlns="http://www.w3.org/2000/svg" xmlns:xlink="http://www.w3.org/1999/xlink" width="496.389" height="342.333" viewBox="0 0 496.389 342.333">
  <defs>
    <clipPath id="clip-path">
      <rect id="Rectángulo_50975" data-name="Rectángulo 50975" width="496.389" height="342.333" fill="none"/>
    </clipPath>
    <clipPath id="clip-path-3">
      <rect id="Rectángulo_50948" data-name="Rectángulo 50948" width="41.621" height="13.474" fill="none"/>
    </clipPath>
    <clipPath id="clip-path-6">
      <rect id="Rectángulo_50951" data-name="Rectángulo 50951" width="54.764" height="18.222" fill="none"/>
    </clipPath>
    <clipPath id="clip-path-8">
      <rect id="Rectángulo_50958" data-name="Rectángulo 50958" width="484.281" height="74.739" fill="none"/>
    </clipPath>
    <clipPath id="clip-path-9">
      <rect id="Rectángulo_50959" data-name="Rectángulo 50959" width="55.627" height="28.387" fill="none"/>
    </clipPath>
    <clipPath id="clip-path-10">
      <rect id="Rectángulo_50960" data-name="Rectángulo 50960" width="94.308" height="23.418" fill="none"/>
    </clipPath>
    <clipPath id="clip-path-11">
      <rect id="Rectángulo_50961" data-name="Rectángulo 50961" width="69.362" height="19.709" fill="none"/>
    </clipPath>
    <clipPath id="clip-path-13">
      <rect id="Rectángulo_50963" data-name="Rectángulo 50963" width="22.811" height="47.328" fill="none"/>
    </clipPath>
    <clipPath id="clip-path-15">
      <rect id="Rectángulo_50965" data-name="Rectángulo 50965" width="27.389" height="40.486" fill="none"/>
    </clipPath>
    <clipPath id="clip-path-16">
      <rect id="Rectángulo_50966" data-name="Rectángulo 50966" width="42.387" height="37.963" fill="none"/>
    </clipPath>
    <clipPath id="clip-path-18">
      <rect id="Rectángulo_50968" data-name="Rectángulo 50968" width="17.206" height="28.82" fill="none"/>
    </clipPath>
    <clipPath id="clip-path-19">
      <rect id="Rectángulo_50971" data-name="Rectángulo 50971" width="66.512" height="65.863" fill="none"/>
    </clipPath>
    <clipPath id="clip-path-20">
      <rect id="Rectángulo_50969" data-name="Rectángulo 50969" width="34.392" height="49.75" fill="none"/>
    </clipPath>
    <clipPath id="clip-path-21">
      <rect id="Rectángulo_50970" data-name="Rectángulo 50970" width="3.448" height="44.478" fill="none"/>
    </clipPath>
  </defs>
  <g id="Grupo_117854" data-name="Grupo 117854" transform="translate(-838.611 -4842.667)">
    <g id="Grupo_115672" data-name="Grupo 115672" transform="translate(838.611 4842.667)">
      <g id="Grupo_115671" data-name="Grupo 115671" clip-path="url(#clip-path)">
        <g id="Grupo_115627" data-name="Grupo 115627">
          <g id="Grupo_115626" data-name="Grupo 115626" clip-path="url(#clip-path)">
            <path id="Trazado_231014" data-name="Trazado 231014" d="M349.76,27.61H260.7S269.53,3.491,283.12,3.491s17.847,16.648,17.847,16.648,9.17-9.045,16.7-9.045,14.081,11.953,14.081,11.953,10.643-6.428,18.011,4.563" transform="translate(-52.166 -0.699)" fill="#ebebeb"/>
            <path id="Trazado_231015" data-name="Trazado 231015" d="M586.839,176.771H497.777s8.831-24.119,22.421-24.119S538.045,169.3,538.045,169.3s9.17-9.045,16.7-9.045,14.081,11.953,14.081,11.953,10.643-6.428,18.011,4.563" transform="translate(-99.606 -30.546)" fill="#ebebeb"/>
            <g id="Grupo_115616" data-name="Grupo 115616" transform="translate(159.181 100.331)" opacity="0.5">
              <g id="Grupo_115615" data-name="Grupo 115615">
                <g id="Grupo_115614" data-name="Grupo 115614" clip-path="url(#clip-path-3)">
                  <path id="Trazado_231016" data-name="Trazado 231016" d="M240.622,138.9H199s9.3-13.474,16.627-13.474,9.492,8.983,9.492,8.983,5.171-4.192,9.962-3.444,5.539,7.935,5.539,7.935" transform="translate(-199.001 -125.43)" fill="#ebebeb"/>
                </g>
              </g>
            </g>
            <g id="Grupo_115619" data-name="Grupo 115619" transform="translate(301.088 187.391)" opacity="0.5">
              <g id="Grupo_115618" data-name="Grupo 115618">
                <g id="Grupo_115617" data-name="Grupo 115617" clip-path="url(#clip-path-3)">
                  <path id="Trazado_231017" data-name="Trazado 231017" d="M418.029,247.743H376.408s9.3-13.474,16.628-13.474,9.492,8.983,9.492,8.983,5.171-4.192,9.962-3.444,5.539,7.935,5.539,7.935" transform="translate(-376.408 -234.269)" fill="#ebebeb"/>
                </g>
              </g>
            </g>
            <g id="Grupo_115622" data-name="Grupo 115622" transform="translate(353.427 46.692)" opacity="0.5">
              <g id="Grupo_115621" data-name="Grupo 115621">
                <g id="Grupo_115620" data-name="Grupo 115620" clip-path="url(#clip-path-3)">
                  <path id="Trazado_231018" data-name="Trazado 231018" d="M483.461,71.847H441.84s9.3-13.474,16.628-13.474,9.492,8.983,9.492,8.983,5.171-4.192,9.962-3.444,5.539,7.935,5.539,7.935" transform="translate(-441.84 -58.373)" fill="#ebebeb"/>
                </g>
              </g>
            </g>
            <path id="Trazado_231019" data-name="Trazado 231019" d="M92.518,120.97H11.448s11.1-24.786,22.978-26.335,17.557,18.418,17.557,18.418,7.659-7.058,13.683-7.058,10.671,9.295,10.671,9.295,12.049-6.369,16.18,5.68" transform="translate(-2.291 -18.919)" fill="#ebebeb"/>
            <g id="Grupo_115625" data-name="Grupo 115625" transform="translate(73.603 51.914)" opacity="0.5">
              <g id="Grupo_115624" data-name="Grupo 115624">
                <g id="Grupo_115623" data-name="Grupo 115623" clip-path="url(#clip-path-6)">
                  <path id="Trazado_231020" data-name="Trazado 231020" d="M146.779,83.123H92.015s9.407-17.958,19.613-18.219S127.2,78.494,127.2,78.494s15.875-12.74,19.582,4.629" transform="translate(-92.015 -64.901)" fill="#ebebeb"/>
                </g>
              </g>
            </g>
            <path id="Trazado_231021" data-name="Trazado 231021" d="M388.749,84.583c.135,20.77-16.392,37.881-36.915,38.216a36.947,36.947,0,0,1-37.4-37c-.135-20.771,16.393-37.881,36.916-38.217a36.947,36.947,0,0,1,37.4,37" transform="translate(-62.918 -9.52)" fill="#ebebeb"/>
            <path id="Trazado_231022" data-name="Trazado 231022" d="M382.62,86.786a29.515,29.515,0,0,1-28.8,29.811,28.82,28.82,0,0,1-29.177-28.863,29.513,29.513,0,0,1,28.8-29.81A28.82,28.82,0,0,1,382.62,86.786" transform="translate(-64.962 -11.59)" fill="#fff"/>
            <path id="Trazado_231023" data-name="Trazado 231023" d="M376.556,88.967a21.28,21.28,0,0,1-20.762,21.492,20.779,20.779,0,0,1-21.036-20.809A21.278,21.278,0,0,1,355.52,68.158a20.779,20.779,0,0,1,21.036,20.809" transform="translate(-66.986 -13.638)" fill="#ebebeb"/>
            <path id="Trazado_231024" data-name="Trazado 231024" d="M370.425,91.17a12.954,12.954,0,0,1-12.639,13.085,12.65,12.65,0,0,1-12.807-12.669A12.955,12.955,0,0,1,357.618,78.5,12.65,12.65,0,0,1,370.425,91.17" transform="translate(-69.031 -15.708)" fill="#fff"/>
            <path id="Trazado_231025" data-name="Trazado 231025" d="M365.132,93.073a5.767,5.767,0,0,1-5.626,5.825,5.632,5.632,0,0,1-5.7-5.639,5.768,5.768,0,0,1,5.627-5.826,5.632,5.632,0,0,1,5.7,5.64" transform="translate(-70.797 -17.495)" fill="#ebebeb"/>
            <rect id="Rectángulo_50952" data-name="Rectángulo 50952" width="0.64" height="61.475" transform="matrix(0.463, -0.886, 0.886, 0.463, 233.896, 47.313)" fill="#c7c7c7"/>
            <path id="Trazado_231026" data-name="Trazado 231026" d="M288.3,59.543l.141-.055,2.495-.77-4.917-2.571-2.664.811Z" transform="translate(-56.699 -11.235)" fill="#c7c7c7"/>
            <path id="Trazado_231027" data-name="Trazado 231027" d="M285.94,52.207l.885,2.592,4.917,2.571a11.964,11.964,0,0,1-.872-2.584Z" transform="translate(-57.217 -10.447)" fill="#c7c7c7"/>
            <path id="Trazado_231028" data-name="Trazado 231028" d="M361.432,93.268l-1.026,1.843-2.734-.233,1.795-1.469.182-2.305Z" transform="translate(-71.571 -18.23)" fill="#c7c7c7"/>
            <path id="Trazado_231029" data-name="Trazado 231029" d="M9.006,175.182l-3.558,7.829,2.4,1.085a2.043,2.043,0,0,1,1.192,1.785,11.687,11.687,0,0,0,.126,1.28,2.042,2.042,0,0,1-.82,1.977L6.2,190.671l5.019,6.991,2.143-1.533a2.049,2.049,0,0,1,2.14-.139,11.952,11.952,0,0,0,1.173.53,2.044,2.044,0,0,1,1.31,1.7l.257,2.62L26.818,200l-.262-2.628a2.044,2.044,0,0,1,.961-1.918c.177-.114.352-.233.525-.356s.342-.25.506-.382a2.048,2.048,0,0,1,2.119-.291l2.42,1.093,3.558-7.829-2.407-1.09a2.045,2.045,0,0,1-1.19-1.786,11.776,11.776,0,0,0-.123-1.275,2.039,2.039,0,0,1,.82-1.975l2.145-1.533-5.019-6.991-2.145,1.533a2.05,2.05,0,0,1-2.137.14,11.961,11.961,0,0,0-1.169-.527,2.043,2.043,0,0,1-1.312-1.7l-.261-2.625-8.572.845.26,2.626a2.041,2.041,0,0,1-.958,1.913c-.178.114-.354.234-.529.358s-.342.25-.506.382a2.056,2.056,0,0,1-2.129.292Zm7.93,4.441a7.047,7.047,0,1,1-1.631,9.825,7.059,7.059,0,0,1,1.631-9.825" transform="translate(-1.09 -33.988)" fill="#ebebeb"/>
            <path id="Trazado_231030" data-name="Trazado 231030" d="M577.482,98.056l-5.227,3.01.925,1.6a1.427,1.427,0,0,1-.051,1.5,8.39,8.39,0,0,0-.451.781,1.434,1.434,0,0,1-1.275.792h-1.848v6.025H571.4a1.434,1.434,0,0,1,1.275.792,8.379,8.379,0,0,0,.451.78,1.429,1.429,0,0,1,.051,1.5l-.925,1.6,5.227,3.01.925-1.6a1.437,1.437,0,0,1,1.332-.7c.147.007.3.01.444.01s.3,0,.444-.01a1.429,1.429,0,0,1,1.325.7l.931,1.608,5.227-3.01-.925-1.6a1.429,1.429,0,0,1,.053-1.5,8.306,8.306,0,0,0,.45-.776,1.435,1.435,0,0,1,1.275-.791h1.848v-6.025h-1.848a1.435,1.435,0,0,1-1.275-.791,8.305,8.305,0,0,0-.45-.776,1.43,1.43,0,0,1-.053-1.5l.925-1.6-5.227-3.01-.925,1.6a1.432,1.432,0,0,1-1.327.7c-.148-.007-.3-.011-.448-.011s-.3,0-.444.011a1.438,1.438,0,0,1-1.333-.7Zm2.7,5.758a4.934,4.934,0,1,1-4.945,4.931,4.935,4.935,0,0,1,4.945-4.931" transform="translate(-113.969 -19.621)" fill="#ebebeb"/>
            <path id="Trazado_231031" data-name="Trazado 231031" d="M36.819,224.826l3.665,4.784,1.467-1.121a1.436,1.436,0,0,1,1.5-.143,8.273,8.273,0,0,0,.833.346,1.43,1.43,0,0,1,.951,1.16l.238,1.829,5.986-.778-.238-1.828a1.431,1.431,0,0,1,.622-1.365,8.268,8.268,0,0,0,.717-.547,1.437,1.437,0,0,1,1.485-.245l1.705.709,2.316-5.562-1.713-.709a1.433,1.433,0,0,1-.869-1.227q-.017-.22-.046-.441c-.018-.147-.042-.294-.068-.438a1.427,1.427,0,0,1,.522-1.4l1.477-1.129L53.7,211.935l-1.472,1.122a1.434,1.434,0,0,1-1.5.142,8.468,8.468,0,0,0-.829-.346,1.431,1.431,0,0,1-.95-1.159l-.238-1.829-5.986.777.238,1.829a1.428,1.428,0,0,1-.621,1.363,8.331,8.331,0,0,0-.714.546,1.436,1.436,0,0,1-1.485.246l-1.71-.709-2.317,5.562,1.711.71a1.428,1.428,0,0,1,.865,1.223q.018.222.046.445t.069.438a1.434,1.434,0,0,1-.525,1.409Zm5.373-3.416a4.943,4.943,0,1,1,5.538,4.259,4.932,4.932,0,0,1-5.538-4.259" transform="translate(-7.228 -41.994)" fill="#dbdbdb"/>
          </g>
        </g>
        <rect id="Rectángulo_50954" data-name="Rectángulo 50954" width="136.345" height="21.366" transform="translate(187.801 220.346) rotate(-15.14)" fill="#4dd0e1"/>
        <rect id="Rectángulo_50955" data-name="Rectángulo 50955" width="13.723" height="21.366" transform="translate(170.578 225.007) rotate(-15.14)" fill="#4dd0e1"/>
        <rect id="Rectángulo_50956" data-name="Rectángulo 50956" width="8.465" height="21.366" transform="translate(158.43 228.293) rotate(-15.141)" fill="#4dd0e1"/>
        <rect id="Rectángulo_50957" data-name="Rectángulo 50957" width="4.199" height="21.366" transform="translate(150.401 230.465) rotate(-15.139)" fill="#4dd0e1"/>
        <path id="Trazado_231032" data-name="Trazado 231032" d="M406.3,256.724l-9.3-34.374L425.428,233.1Z" transform="translate(-79.439 -44.493)" fill="#4dd0e1"/>
        <g id="Grupo_115641" data-name="Grupo 115641">
          <g id="Grupo_115640" data-name="Grupo 115640" clip-path="url(#clip-path)">
            <path id="Trazado_231033" data-name="Trazado 231033" d="M499.418,408.795l-8.32-25.808-21.635-20.216-10.849-28.637H403.85l-14.4,5.69-51.211,2.3L310.927,357.1l-65.069,2.039s-18.437,10.587-19.776,11.363-33.259,6.451-33.259,6.451l-28.356,2.15H116.356l-45.65,19.708L15.137,408.873H499.418" transform="translate(-3.029 -66.861)" fill="#4dd0e1"/>
            <g id="Grupo_115630" data-name="Grupo 115630" transform="translate(12.108 267.273)" opacity="0.2">
              <g id="Grupo_115629" data-name="Grupo 115629">
                <g id="Grupo_115628" data-name="Grupo 115628" clip-path="url(#clip-path-8)">
                  <path id="Trazado_231034" data-name="Trazado 231034" d="M499.418,408.795l-8.32-25.808-21.635-20.216-10.849-28.637H403.85l-14.4,5.69-51.211,2.3L310.927,357.1l-65.069,2.039s-18.437,10.587-19.776,11.363-33.259,6.451-33.259,6.451l-28.356,2.15H116.356l-45.65,19.708L15.137,408.873H499.418" transform="translate(-15.137 -334.134)"/>
                </g>
              </g>
            </g>
            <g id="Grupo_115633" data-name="Grupo 115633" transform="translate(307.899 275.259)" opacity="0.1">
              <g id="Grupo_115632" data-name="Grupo 115632">
                <g id="Grupo_115631" data-name="Grupo 115631" clip-path="url(#clip-path-9)">
                  <path id="Trazado_231035" data-name="Trazado 231035" d="M384.923,359.1l22.544,8.625,33.084,4.778L418.9,356.99l-6.663-12.872Z" transform="translate(-384.923 -344.118)"/>
                </g>
              </g>
            </g>
            <g id="Grupo_115636" data-name="Grupo 115636" transform="translate(177.635 303.646)" opacity="0.1">
              <g id="Grupo_115635" data-name="Grupo 115635">
                <g id="Grupo_115634" data-name="Grupo 115634" clip-path="url(#clip-path-10)">
                  <path id="Trazado_231036" data-name="Trazado 231036" d="M222.072,386.6l16.336,11.975,53.272.384,24.7,4.064-20.258-12.958-22.609-.562-6.022-9.9Z" transform="translate(-222.072 -379.606)"/>
                </g>
              </g>
            </g>
            <g id="Grupo_115639" data-name="Grupo 115639" transform="translate(67.677 312.247)" opacity="0.1">
              <g id="Grupo_115638" data-name="Grupo 115638">
                <g id="Grupo_115637" data-name="Grupo 115637" clip-path="url(#clip-path-11)">
                  <path id="Trazado_231037" data-name="Trazado 231037" d="M84.607,410.067l25.383-4.48,18.088,3.015,25.89-6.779-23.711-11.464Z" transform="translate(-84.607 -390.359)"/>
                </g>
              </g>
            </g>
          </g>
        </g>
        <path id="Trazado_231038" data-name="Trazado 231038" d="M124.1,427.107l-62.048.071L0,427.372l62.049.194,62.048.07,124.1.134,124.1-.134,62.048-.07,62.049-.2-62.049-.2-62.048-.07-124.1-.133Z" transform="translate(0 -85.438)" fill="#263238"/>
        <g id="Grupo_115646" data-name="Grupo 115646">
          <g id="Grupo_115645" data-name="Grupo 115645" clip-path="url(#clip-path)">
            <path id="Trazado_231039" data-name="Trazado 231039" d="M121.855,145.335c2.372,18.323,7.641,36.5,12.753,38.916,6.876,3.251,24.84,2.736,34.14,1.607,2.732-.332-.279-21.546-3.2-21.195-3.532.425-21.764,2.914-22.114,2.848-.753-.14-11.856-18.265-14.4-22.66-4.255-7.339-8.228-7.649-7.174.483" transform="translate(-24.349 -27.872)" fill="#f7a9a0"/>
            <path id="Trazado_231040" data-name="Trazado 231040" d="M175.412,191.108c2.431.491,11.719,1.5,18.147.272,3.12-.6,11.894-3.264,11.618-5.694s-2.909-1.877-2.909-1.877,3.539-1.681,3.038-4.1-4.569-1.426-4.569-1.426,3.508-1.991,2.836-4.369-4.6-.693-4.6-.693,3.292-1.671,1.914-3.4c-1.657-2.077-7.378,1.69-10.86,2.178-.791.11-16.187,1.105-16.187,1.105Z" transform="translate(-34.786 -33.858)" fill="#f7a9a0"/>
            <path id="Trazado_231041" data-name="Trazado 231041" d="M202.28,174.189c-4.214,2.76-6.535,3.239-11.494,3.322-.1,0-.116.146-.015.154,4.863.361,7.861.18,11.653-3.279.186-.169.057-.328-.144-.2" transform="translate(-38.16 -34.846)" fill="#263238"/>
            <path id="Trazado_231042" data-name="Trazado 231042" d="M204.622,180.478c-4.627,2.484-7.141,3.026-12.327,3.5-.074.006-.07.131,0,.13,5.127-.034,8.114-.283,12.411-3.373.194-.139.122-.366-.089-.253" transform="translate(-38.468 -36.108)" fill="#263238"/>
            <path id="Trazado_231043" data-name="Trazado 231043" d="M205.743,187.682c-4.654,2.082-7.383,2.795-12.478,2.6a.094.094,0,0,0-.018.186,16.911,16.911,0,0,0,12.544-2.641c.27-.17.245-.28-.048-.149" transform="translate(-38.653 -37.544)" fill="#263238"/>
            <path id="Trazado_231044" data-name="Trazado 231044" d="M173.358,171.5a61.745,61.745,0,0,1,7.273-5.48c2.5-1.351,13.658-2.96,14.143-.57.626,3.087-5.634,5.285-8.841,5.962,0,0,1.453,7.139-2.7,9.689s-9.876-9.6-9.876-9.6" transform="translate(-34.689 -32.861)" fill="#f7a9a0"/>
            <path id="Trazado_231045" data-name="Trazado 231045" d="M197.179,166.886c-1.461,3.226-5.726,3.842-8.788,4.731a.291.291,0,0,0-.174.446c.409,3.033.1,7.431-2.277,9.615a.074.074,0,0,0,.09.118c2.871-2,3.524-6.293,2.863-9.586,3.154-.862,7.406-1.667,8.318-5.311a.017.017,0,0,0-.032-.013" transform="translate(-37.202 -33.392)" fill="#263238"/>
            <path id="Trazado_231046" data-name="Trazado 231046" d="M164.818,163.824l-.924,23.751s-25.236,1.149-30.717-4.153c-3.668-3.548-10.206-22.2-11.539-34.988s2.736-12.562,9.4-1.319,12.214,19.527,12.571,19.534,21.211-2.825,21.211-2.825" transform="translate(-24.289 -27.766)" fill="#4dd0e1"/>
            <path id="Trazado_231047" data-name="Trazado 231047" d="M169.772,172.8c0-.074-.115-.077-.124,0a190.428,190.428,0,0,0-1.318,19.846c0,.073.115.077.124,0a190.463,190.463,0,0,0,1.318-19.846" transform="translate(-33.683 -34.566)" fill="#263238"/>
            <g id="Grupo_115644" data-name="Grupo 115644" transform="translate(97.095 111.847)" opacity="0.1">
              <g id="Grupo_115643" data-name="Grupo 115643">
                <g id="Grupo_115642" data-name="Grupo 115642" clip-path="url(#clip-path-13)">
                  <path id="Trazado_231048" data-name="Trazado 231048" d="M144.2,187.155c-4.8-.606-9.109-1.67-11.016-3.516-3.67-3.555-10.212-22.2-11.544-34.994-.475-4.573-.262-7.477.521-8.817Z" transform="translate(-121.384 -139.827)"/>
                </g>
              </g>
            </g>
            <path id="Trazado_231049" data-name="Trazado 231049" d="M171.656,379.385c-1.63.506-47.9-.626-49.637-1.789-.666-.43,4.992-41.464,4.992-41.464l29.775.781-5.864,25.981s17.519,8.356,19.291,9.835c1.757,1.474,3.072,6.158,1.443,6.657" transform="translate(-24.405 -67.26)" fill="#f7a9a0"/>
            <path id="Trazado_231050" data-name="Trazado 231050" d="M171.658,384.717c-1.633.512-47.9-.619-49.64-1.787-.323-.209.856-10.08,2.145-20.136l27.883.462-1.125,4.971s17.515,8.355,19.293,9.832c1.76,1.477,3.068,6.162,1.444,6.657" transform="translate(-24.405 -72.596)" fill="#ebebeb"/>
            <path id="Trazado_231051" data-name="Trazado 231051" d="M172.249,386.076c-1.657.527-48.805-.278-50.579-1.45-.682-.434,1.521-15.992,1.52-16.08l27.835.369-.021.517s17.91,8.38,19.726,9.874,3.176,6.25,1.52,6.77" transform="translate(-24.32 -73.747)" fill="#4dd0e1"/>
            <path id="Trazado_231052" data-name="Trazado 231052" d="M172.313,387.985c-7.945-.331-40.019-.916-47.9-.639-.064,0-.065.046,0,.05,7.867.5,39.945.826,47.9.72.167,0,.17-.123,0-.13" transform="translate(-24.886 -77.494)" fill="#263238"/>
            <path id="Trazado_231053" data-name="Trazado 231053" d="M160.277,369.119c-3.117-.637-6.951-.222-9.379,1.965-.094.085.028.217.13.187a43.989,43.989,0,0,1,9.23-1.757.2.2,0,0,0,.019-.4" transform="translate(-30.188 -73.807)" fill="#263238"/>
            <path id="Trazado_231054" data-name="Trazado 231054" d="M163.07,370.869c-3.118-.638-6.951-.222-9.379,1.965-.094.085.028.217.13.186a43.935,43.935,0,0,1,9.23-1.757.2.2,0,0,0,.019-.4" transform="translate(-30.747 -74.157)" fill="#263238"/>
            <path id="Trazado_231055" data-name="Trazado 231055" d="M165.863,372.618c-3.118-.637-6.951-.222-9.379,1.965-.094.085.027.217.13.187a43.886,43.886,0,0,1,9.23-1.757.2.2,0,0,0,.019-.4" transform="translate(-31.306 -74.507)" fill="#263238"/>
            <path id="Trazado_231056" data-name="Trazado 231056" d="M144.772,333.683l-31.225-.171s9.192-64.684,8.393-67.345c-.313-1.04-34.133-33.871-34.133-33.871-13.481-13.29-9.435-34.724-9.435-34.724h38.881s-1.773,9.474.242,11.539c2.446,2.508,31.783,34.156,35.6,44.242,5.1,13.469-8.326,80.33-8.326,80.33" transform="translate(-15.569 -39.534)" fill="#37474f"/>
            <path id="Trazado_231057" data-name="Trazado 231057" d="M153.947,359.7c-4.8-.31-3.419-.3-8.225-.549-2.352-.119-17.8-.886-20.02-.522-.049.008-.053.109,0,.121,2.181.534,17.647.969,20,1.032,4.81.13,3.431.028,8.241.091.09,0,.1-.167.007-.173" transform="translate(-25.145 -71.743)" fill="#263238"/>
            <path id="Trazado_231058" data-name="Trazado 231058" d="M119.152,210.865,104.414,248.51C96.034,240.289,87.8,232.3,87.8,232.3c-13.476-13.29-9.432-34.731-9.432-34.731h38.881s-1.775,9.476.238,11.542c.265.274.838.874,1.66,1.757" transform="translate(-15.569 -39.533)" fill="#263238"/>
            <path id="Trazado_231059" data-name="Trazado 231059" d="M84.706,412.4c-1.695.2-46.966-9.453-48.455-10.916-.576-.546.446-7.224,1.912-15.258l.048-.251c.3-1.657,8.271-26.165,8.271-26.165l29.508,3.751-8.5,28.312-.117.494s15.676,11.444,17.145,13.225,1.884,6.62.19,6.809" transform="translate(-7.221 -71.999)" fill="#f7a9a0"/>
            <path id="Trazado_231060" data-name="Trazado 231060" d="M84.7,417.506c-1.687.2-46.96-9.448-48.453-10.915-.574-.547.45-7.223,1.917-15.259.018-.08.026-.168.044-.247.079-.433.689-2.676,1.545-5.74l29.308,6.394-1.572,5.245-.124.494S83.05,408.923,84.516,410.7s1.881,6.623.186,6.809" transform="translate(-7.221 -77.108)" fill="#ebebeb"/>
            <path id="Trazado_231061" data-name="Trazado 231061" d="M85.02,419.017c-1.727.2-47.823-9.744-49.336-11.239-.585-.558.472-7.359,1.985-15.54.016-.086.033-.171.05-.256l29.811,6.081-.121.5s15.943,11.7,17.435,13.515,1.9,6.748.177,6.936" transform="translate(-7.108 -78.436)" fill="#4dd0e1"/>
            <path id="Trazado_231062" data-name="Trazado 231062" d="M85.5,420.921c-7.729-1.866-39.08-8.665-46.862-9.923-.063-.01-.073.033-.01.049,7.621,2.017,39.025,8.561,46.845,10,.165.03.19-.088.027-.127" transform="translate(-7.72 -82.241)" fill="#263238"/>
            <path id="Trazado_231063" data-name="Trazado 231063" d="M77.243,400.324c-2.935-1.23-6.776-1.567-9.582.108-.109.065-.014.218.091.208a43.979,43.979,0,0,1,9.4.068.2.2,0,0,0,.1-.384" transform="translate(-13.529 -79.898)" fill="#263238"/>
            <path id="Trazado_231064" data-name="Trazado 231064" d="M79.644,402.582c-2.935-1.23-6.776-1.567-9.582.108-.109.064-.014.218.091.208a43.975,43.975,0,0,1,9.4.068.2.2,0,0,0,.1-.384" transform="translate(-14.01 -80.35)" fill="#263238"/>
            <path id="Trazado_231065" data-name="Trazado 231065" d="M82.045,404.84c-2.935-1.23-6.776-1.567-9.582.107-.109.066-.015.218.091.209a43.967,43.967,0,0,1,9.395.068.2.2,0,0,0,.1-.384" transform="translate(-14.49 -80.801)" fill="#263238"/>
            <path id="Trazado_231066" data-name="Trazado 231066" d="M101.683,197.572s2.528,21.641-1.938,26.57c0,0-7.914,49.836-10.743,64.192-3.734,18.952-18.758,70.589-18.758,70.589L37.2,353.339s19.486-67.879,19.645-69.114c.9-7.009,8.807-55.642,8.4-56.85-4.142-12.362,1.829-29.8,1.829-29.8Z" transform="translate(-7.443 -39.534)" fill="#37474f"/>
            <path id="Trazado_231067" data-name="Trazado 231067" d="M109.13,197.572s-3.152,22.871-9.384,26.57c0,0-7.914,49.836-10.743,64.192-3.734,18.952-18.758,70.589-18.758,70.589L37.2,353.339s19.487-67.879,19.646-69.114c.9-7.009,8.807-55.642,8.4-56.85-4.141-12.362,1.829-29.8,1.829-29.8Z" transform="translate(-7.443 -39.534)" fill="#37474f"/>
            <path id="Trazado_231068" data-name="Trazado 231068" d="M71.1,389.359c-4.886-1.093-3.466-.862-8.366-1.89-2.4-.5-18.158-3.794-20.49-3.8-.052,0-.071.1-.024.119,2.158.885,17.983,3.849,20.392,4.3,4.922.917,3.521.59,8.455,1.441.093.016.126-.149.034-.17" transform="translate(-8.444 -76.773)" fill="#263238"/>
            <path id="Trazado_231069" data-name="Trazado 231069" d="M118.487,227.673a63.822,63.822,0,0,0-10.064,4.687.114.114,0,0,0,.094.207c3.391-1.456,6.848-2.849,10.154-4.49a.222.222,0,0,0-.183-.4" transform="translate(-21.683 -45.555)" fill="#263238"/>
            <path id="Trazado_231070" data-name="Trazado 231070" d="M120.637,198.568c-.01-.117-.215-.143-.214-.017a112.688,112.688,0,0,1-.569,11.328c-.158,1.746-1.562,11.4-4.59,10.694-.507-.118-.766-.617-.846-1.381a12.15,12.15,0,0,1,.4-2.96c.336-2.021.606-4.047.78-6.088a55.4,55.4,0,0,0-.123-11.417.1.1,0,0,0-.2.01,104.756,104.756,0,0,1-.922,15.761c-.379,2.51-1.643,6.29.982,6.676,2.674.394,4.4-5.937,4.73-7.669a57.814,57.814,0,0,0,.566-14.938" transform="translate(-22.756 -39.714)" fill="#263238"/>
            <path id="Trazado_231071" data-name="Trazado 231071" d="M115.506,226.375a16.412,16.412,0,0,0-.682,2,4.55,4.55,0,0,0-.282,1.645c.011.106.153.117.21.044a5.783,5.783,0,0,0,.7-1.6c.23-.618.474-1.233.687-1.858a.339.339,0,0,0-.636-.231" transform="translate(-22.918 -45.256)" fill="#263238"/>
            <path id="Trazado_231072" data-name="Trazado 231072" d="M77.16,211.719c.737-.125,1.813.133,5-.086a17.181,17.181,0,0,0,2.617-.426,5.71,5.71,0,0,0,2.432-.987,12.757,12.757,0,0,0,2.773-3.818,19.7,19.7,0,0,0,1.941-4.713c.022-.1.166-.052.15.045-.168.933-.261,1.864-.507,2.786a17.029,17.029,0,0,1-.931,2.53,10.27,10.27,0,0,1-2.848,4.2c-1.438,1.083-3.444,1.285-5.187,1.407-1.008.07-4.963-.036-5.494-.6-.094-.1-.087-.318.053-.341" transform="translate(-15.417 -40.347)" fill="#263238"/>
            <path id="Trazado_231073" data-name="Trazado 231073" d="M117.436,193.91c-.878.622-43.487-8.764-43.661-9.1-.473-.918,20.753-43.689,32.914-49.688,2.616-1.29,9.177,1.4,10.521,3.284.842,1.182,1.821,7.987,2.381,13.528,1.12,11.093-1.389,41.429-2.155,41.977" transform="translate(-14.761 -26.97)" fill="#4dd0e1"/>
            <path id="Trazado_231074" data-name="Trazado 231074" d="M125.193,145.187c-.132,4.229-.347,8.453-.574,12.674s-.518,8.441-.773,12.662c-.317,4.216-.6,8.435-.947,12.65l-.535,6.32c-.206,2.105-.386,4.212-.614,6.315.059-2.115.166-4.227.247-6.34l.326-6.334c.227-4.223.518-8.441.775-12.662.318-4.216.6-8.435.948-12.649s.706-8.429,1.148-12.636" transform="translate(-24.362 -29.052)" fill="#263238"/>
            <path id="Trazado_231075" data-name="Trazado 231075" d="M128.458,161.429a.793.793,0,1,1-.753-.831.793.793,0,0,1,.753.831" transform="translate(-25.387 -32.136)" fill="#263238"/>
            <path id="Trazado_231076" data-name="Trazado 231076" d="M127.561,171.6a.793.793,0,1,1-.754-.831.793.793,0,0,1,.754.831" transform="translate(-25.208 -34.171)" fill="#263238"/>
            <path id="Trazado_231077" data-name="Trazado 231077" d="M126.664,181.775a.793.793,0,1,1-.754-.831.793.793,0,0,1,.754.831" transform="translate(-25.028 -36.207)" fill="#263238"/>
            <path id="Trazado_231078" data-name="Trazado 231078" d="M125.768,191.948a.793.793,0,1,1-.754-.831.793.793,0,0,1,.754.831" transform="translate(-24.849 -38.243)" fill="#263238"/>
            <path id="Trazado_231079" data-name="Trazado 231079" d="M124.87,202.121a.793.793,0,1,1-.754-.831.793.793,0,0,1,.754.831" transform="translate(-24.67 -40.278)" fill="#263238"/>
            <path id="Trazado_231080" data-name="Trazado 231080" d="M96.52,140.188c-16.159,7.373-29.005,19.46-28.968,24.761.054,7.606,6.8,26.329,11.459,34.46,1.368,2.388,19.744-8.631,18.285-11.187-1.764-3.088-10.815-21.3-10.891-21.647-.163-.747,12.486-15.967,15.811-19.681,6.1-6.813,3.092-10.717-5.7-6.707" transform="translate(-13.517 -27.728)" fill="#f7a9a0"/>
            <path id="Trazado_231081" data-name="Trazado 231081" d="M112.341,225.589a3.278,3.278,0,0,1-3.659.788,4.864,4.864,0,0,1-1.6,2.9c-1.566,1.249-4.211-.659-4.211-.659a6,6,0,0,1-2.17,2.788c-1.619,1.045-4.563-.5-4.563-.5a5.262,5.262,0,0,1-3.452,1.249c-3.373-.166-5.889-4.669-7.517-7.516S81.6,212.193,81.039,210.4L99.216,199.8s10.931,10.687,12.37,14.3c1.213,3.048,2.43,9.552.756,11.488" transform="translate(-16.216 -39.98)" fill="#f7a9a0"/>
            <path id="Trazado_231082" data-name="Trazado 231082" d="M114.994,230.135c-.511-3.55-2.045-6.755-3.392-10.042a.062.062,0,0,0-.114.048c1.379,3.253,2.095,6.738,3.341,10.039a.087.087,0,0,0,.165-.045" transform="translate(-22.308 -44.034)" fill="#263238"/>
            <path id="Trazado_231083" data-name="Trazado 231083" d="M107.435,233.272a9.32,9.32,0,0,0-.885-2.279q-.552-1.177-1.145-2.334-1.184-2.317-2.482-4.574c-.038-.066-.15-.024-.113.048.783,1.541,1.544,3.094,2.262,4.667q.539,1.181,1.059,2.37a11.193,11.193,0,0,0,1.085,2.193.124.124,0,0,0,.219-.091" transform="translate(-20.571 -44.833)" fill="#263238"/>
            <path id="Trazado_231084" data-name="Trazado 231084" d="M98.811,236.509A6.509,6.509,0,0,0,97.9,234.5q-.562-1.044-1.111-2.095c-.733-1.4-1.465-2.8-2.148-4.228-.034-.07-.147-.024-.114.048.687,1.452,1.354,2.913,2.054,4.359q.515,1.064,1.042,2.124a6.1,6.1,0,0,0,1.113,1.841.044.044,0,0,0,.069-.04" transform="translate(-18.915 -45.651)" fill="#263238"/>
            <path id="Trazado_231085" data-name="Trazado 231085" d="M96.876,187.417l-22.923,7.045s-9.46-27.151-7.191-31.721S82.513,145.672,94.333,140.6s14.75-1.071,5.99,8.627-13.841,16.977-13.741,17.32,10.293,20.866,10.293,20.866" transform="translate(-13.289 -27.694)" fill="#4dd0e1"/>
            <path id="Trazado_231086" data-name="Trazado 231086" d="M95.069,194.692c.066-.024.031-.134-.038-.118a174.871,174.871,0,0,0-18.282,5.359c-.066.022-.031.134.037.118a174.914,174.914,0,0,0,18.282-5.359" transform="translate(-15.351 -38.934)" fill="#263238"/>
            <path id="Trazado_231087" data-name="Trazado 231087" d="M101.96,190.538c-1.578-3.547-8.133-16.489-9.873-19.956a1.776,1.776,0,0,1-.2-.484,1.126,1.126,0,0,1,.329-.847c.276-.386.562-.767.845-1.149q.881-1.19,1.778-2.368c1.174-1.541,2.377-3.06,3.577-4.583l.186-.237c.951-.813,1.92-1.614,2.808-2.493.044-.044-.025-.118-.074-.08-.757.588-1.473,1.231-2.186,1.877q1.7-2.165,3.4-4.327a.024.024,0,0,0-.038-.03c-2.838,3.064-5.469,6.284-8,9.606q-.93,1.221-1.844,2.456c-.3.41-.614.819-.909,1.237a1.487,1.487,0,0,0-.335.719,1.875,1.875,0,0,0,.292.956c.237.49.474.979.717,1.466l1.363,2.728c1.028,2.057,6.935,13.557,8.044,15.572.038.068.153.007.122-.064" transform="translate(-18.293 -31.187)" fill="#263238"/>
            <path id="Trazado_231088" data-name="Trazado 231088" d="M121.685,141.507c-2.661-.1-5.9-5.1-6.738-8.661-.057-.245.885-2.392,1.906-5.054.614-1.618,1.258-3.435,1.727-5.135l9.948,5.53a28.117,28.117,0,0,0-2.83,6.243,3.972,3.972,0,0,0-.119.718c0,.033-.006.074-.016.12-.15,1.385-1.3,6.332-3.877,6.239" transform="translate(-23 -24.544)" fill="#f7a9a0"/>
            <path id="Trazado_231089" data-name="Trazado 231089" d="M120.046,122.985c-.253,2.214-.734,10.264,5.4,12.106a7.679,7.679,0,0,0,1.109.244.428.428,0,0,0,.015-.122,4.039,4.039,0,0,1,.119-.716,28.249,28.249,0,0,1,2.835-6.243Z" transform="translate(-23.996 -24.609)" fill="#263238"/>
            <path id="Trazado_231090" data-name="Trazado 231090" d="M116.158,109.374c-.572,4.059,3.235,14.928,6.382,16.989,4.564,2.988,11.158,2.3,13.475-2.98,2.246-5.123-2.967-19.2-6.4-20.981-5.059-2.626-12.611.976-13.457,6.973" transform="translate(-23.232 -20.316)" fill="#f7a9a0"/>
            <path id="Trazado_231091" data-name="Trazado 231091" d="M131.066,117.735c-.015-.026-.046.054-.034.084.276.726.47,1.6-.11,2.075-.018.014,0,.05.02.039.77-.394.5-1.555.123-2.2" transform="translate(-26.196 -23.558)" fill="#263238"/>
            <path id="Trazado_231092" data-name="Trazado 231092" d="M129.8,117.056c-1.21.317-.487,2.714.634,2.42,1.1-.29.38-2.686-.634-2.42" transform="translate(-25.847 -23.419)" fill="#263238"/>
            <path id="Trazado_231093" data-name="Trazado 231093" d="M136.253,116.207c0-.03.069.018.077.048.2.75.557,1.575,1.3,1.619.023,0,.033.039.006.043-.854.132-1.316-.968-1.385-1.71" transform="translate(-27.264 -23.251)" fill="#263238"/>
            <path id="Trazado_231094" data-name="Trazado 231094" d="M136.68,114.975c1.167-.451,1.983,1.916.9,2.334-1.064.411-1.881-1.956-.9-2.334" transform="translate(-27.262 -22.995)" fill="#263238"/>
            <path id="Trazado_231095" data-name="Trazado 231095" d="M128.144,115.531a9.788,9.788,0,0,0,.829-.607c.316-.237.592-.392.729-.781a.53.53,0,0,0-.267-.589,1.311,1.311,0,0,0-1.306.253,1.932,1.932,0,0,0-.823,1.12.565.565,0,0,0,.838.6" transform="translate(-25.47 -22.705)" fill="#263238"/>
            <path id="Trazado_231096" data-name="Trazado 231096" d="M136.921,112.788a9.583,9.583,0,0,1-1.027.04,1.662,1.662,0,0,1-1.056-.158.53.53,0,0,1-.158-.627,1.313,1.313,0,0,1,1.181-.614,1.931,1.931,0,0,1,1.341.366.565.565,0,0,1-.281.994" transform="translate(-26.941 -22.296)" fill="#263238"/>
            <path id="Trazado_231097" data-name="Trazado 231097" d="M132.559,126.657a1.177,1.177,0,0,0,.756.247,2.039,2.039,0,0,0,.742-.427.027.027,0,0,1,.043.028,1.045,1.045,0,0,1-.821.688.827.827,0,0,1-.782-.481c-.024-.04.028-.073.062-.055" transform="translate(-26.512 -25.307)" fill="#263238"/>
            <path id="Trazado_231098" data-name="Trazado 231098" d="M132.706,121.369a2.641,2.641,0,0,0,2.027.616,3.332,3.332,0,0,0,.922-.233.9.9,0,0,0,.167-.073c.053-.022.1-.044.156-.074a.193.193,0,0,0,.1-.211l0-.006a.348.348,0,0,0-.03-.074l0-.006-.021-.065c-.157-.577-.475-1.429-.475-1.429.241.042,1.451.2,1.344-.094a39.792,39.792,0,0,0-3.29-7.356.072.072,0,0,0-.13.06c.767,2.368,1.945,4.584,2.753,6.95a4.611,4.611,0,0,0-1.3,0c-.074.048.644,1.637.694,1.9a.115.115,0,0,1,0,.029,3.659,3.659,0,0,1-2.862-.023c-.068-.025-.112.042-.05.088" transform="translate(-26.549 -22.477)" fill="#263238"/>
            <path id="Trazado_231099" data-name="Trazado 231099" d="M135.167,123.959a3.114,3.114,0,0,1-1.021,1.2,1.4,1.4,0,0,1-.82.225c-.634-.033-.764-.582-.752-1.076a3.327,3.327,0,0,1,.118-.779,4.019,4.019,0,0,0,2.474.433" transform="translate(-26.528 -24.718)" fill="#263238"/>
            <path id="Trazado_231100" data-name="Trazado 231100" d="M134.147,125.349a1.4,1.4,0,0,1-.82.225c-.634-.033-.764-.581-.752-1.076a1.444,1.444,0,0,1,1.572.851" transform="translate(-26.528 -24.91)" fill="#ff9cbd"/>
            <path id="Trazado_231101" data-name="Trazado 231101" d="M120.082,114.141c.458-2.261-1.248-5.729-.29-6.84,2.073-2.4,7.383,1.018,10.678.618,3.192-.389,4-2.576,3.089-5.091s-3.329-3.973-6.978-4.05a13.571,13.571,0,0,0-8.644,3.257s.64-1.4.287-1.759-1.756,1.08-2.166,1.67a4.848,4.848,0,0,0-.584,1.637,5.186,5.186,0,0,0-1.476.036,3.053,3.053,0,0,0-1.783,1.089c-.033.2,1.147.2,1.966.134a7.6,7.6,0,0,0-1.006,3.931c.254,1.72,3.986,9.57,4.642,9.576.844.008,2.079-3.288,2.265-4.207" transform="translate(-22.454 -19.765)" fill="#263238"/>
            <path id="Trazado_231102" data-name="Trazado 231102" d="M114.62,106.047c.026-.021.07.014.046.042a5.5,5.5,0,0,0-1.413,2.66,6.837,6.837,0,0,0,.42,3.558,32.846,32.846,0,0,0,3.395,6.082c.036.058-.061.12-.1.065A24.2,24.2,0,0,1,113.3,111.9c-.638-2.018-.463-4.455,1.317-5.856" transform="translate(-22.605 -21.219)" fill="#263238"/>
            <path id="Trazado_231103" data-name="Trazado 231103" d="M121.378,108.348a7.862,7.862,0,0,1,2.918-.181,11.191,11.191,0,0,1,2.638.91,11.152,11.152,0,0,0,6.1.865c.026-.006.033.034.007.041a9.761,9.761,0,0,1-5.637-.474,24.479,24.479,0,0,0-2.744-1.03,10.16,10.16,0,0,0-3.253.039.087.087,0,0,1-.03-.171" transform="translate(-24.274 -21.632)" fill="#263238"/>
            <path id="Trazado_231104" data-name="Trazado 231104" d="M121.68,100.764a15.275,15.275,0,0,1,3.92-1.876,12.039,12.039,0,0,1,4.108-.671,6,6,0,0,1,5.643,3.666,5.208,5.208,0,0,1-.01,3.747.067.067,0,0,1-.126-.046,5.376,5.376,0,0,0-2.015-6.114c-2.153-1.434-4.891-1.215-7.26-.519a22.023,22.023,0,0,0-4.251,1.829c-.009,0-.018-.01-.01-.015" transform="translate(-24.348 -19.652)" fill="#263238"/>
            <path id="Trazado_231105" data-name="Trazado 231105" d="M129.639,121.8a3.27,3.27,0,1,1,.774-.25,3.222,3.222,0,0,1-.774.25M128.5,115.8a2.831,2.831,0,1,0,3.095,1.582A2.856,2.856,0,0,0,128.5,115.8" transform="translate(-25.165 -23.075)" fill="#37474f"/>
            <path id="Trazado_231106" data-name="Trazado 231106" d="M138.714,118.959c-1.229.234-2.583-.813-3.095-2.439a3.894,3.894,0,0,1-.027-2.388,2.035,2.035,0,0,1,3.324-1.046,3.9,3.9,0,0,1,1.345,1.972c.541,1.719-.06,3.445-1.339,3.848a1.887,1.887,0,0,1-.208.053m-1.463-5.911a1.393,1.393,0,0,0-.161.041,1.743,1.743,0,0,0-1.085,1.183,3.472,3.472,0,0,0,.03,2.117c.47,1.489,1.7,2.434,2.755,2.1s1.523-1.811,1.054-3.3a3.462,3.462,0,0,0-1.188-1.752,1.8,1.8,0,0,0-1.405-.39" transform="translate(-27.097 -22.528)" fill="#37474f"/>
            <path id="Trazado_231107" data-name="Trazado 231107" d="M133.466,117.846l-.369-.235c.348-.546,1.273-1.424,2.291-.849l-.214.38c-.911-.517-1.676.654-1.708.7" transform="translate(-26.633 -23.327)" fill="#37474f"/>
            <path id="Trazado_231108" data-name="Trazado 231108" d="M116.4,123.585l-.43-.075c.035-.2.366-1.974,1.249-2.418.826-.413,6.578-1.648,6.822-1.7l.092.427c-1.65.352-6.08,1.342-6.718,1.663-.583.294-.931,1.617-1.016,2.1" transform="translate(-23.206 -23.891)" fill="#37474f"/>
            <path id="Trazado_231109" data-name="Trazado 231109" d="M120.52,121.1s-3.164-3.157-4.64-1.967,1.351,6.081,3.4,6.454a1.984,1.984,0,0,0,2.431-1.516Z" transform="translate(-23.105 -23.786)" fill="#f7a9a0"/>
            <path id="Trazado_231110" data-name="Trazado 231110" d="M117.032,120.93a.027.027,0,0,0,0,.054,5.014,5.014,0,0,1,3.1,2.635,1.1,1.1,0,0,0-1.666-.007c-.03.031.013.08.05.066a1.22,1.22,0,0,1,1.4.184,5.928,5.928,0,0,1,.824.957c.085.11.29.006.22-.125l-.017-.029c-.272-1.724-2.035-3.889-3.91-3.734" transform="translate(-23.414 -24.197)" fill="#263238"/>
            <path id="Trazado_231111" data-name="Trazado 231111" d="M125.021,137.552l-2.073,5.11-8.285-8.589-2.42,2.484s7.082,13.407,7.165,12.825l3.728-5.429,2.86,4.115.307-8.218Z" transform="translate(-22.46 -26.828)" fill="#4dd0e1"/>
            <path id="Trazado_231112" data-name="Trazado 231112" d="M126.462,144.048c-.013-1.606.077-1.723-.01-3.327,0-.057-.09-.087-.108-.022-.41,1.527-.386,6.167-.478,7.633l-.016-.018c-.15-.176-2.605-3.634-2.642-3.585-.627.849-3.561,4.809-3.716,5.169-1.119-2.129-5.434-9.884-6.787-11.914a.055.055,0,0,0-.1.05c.968,2.237,6.667,12.674,6.766,12.65a50.194,50.194,0,0,0,3.868-5.739c.534.738,3,4.612,3.022,4.375a50.439,50.439,0,0,0,.2-5.273" transform="translate(-22.531 -27.605)" fill="#263238"/>
          </g>
        </g>
        <g id="Grupo_115654" data-name="Grupo 115654">
          <g id="Grupo_115653" data-name="Grupo 115653" clip-path="url(#clip-path)">
            <path id="Trazado_231113" data-name="Trazado 231113" d="M263.375,385.282c-1.765.2-48.9-9.844-50.454-11.367-.6-.569.464-7.523,1.99-15.888l.05-.262c.311-1.725,8.613-30.576,8.613-30.576l30.726,7.237-8.853,29.481-.122.514s16.324,11.916,17.853,13.771,1.961,6.893.2,7.089" transform="translate(-42.572 -65.471)" fill="#ad6359"/>
            <path id="Trazado_231114" data-name="Trazado 231114" d="M214.168,370.941c-1.1,6.41-1.749,11.256-1.247,11.729,1.552,1.525,48.688,11.572,50.456,11.367s1.317-5.242-.2-7.091c-.93-1.127-7.353-5.993-12.236-9.628,3.272,2.647,7.976,8.982-12.2,2.5-12.449-4-20.226-7.034-24.57-8.875" transform="translate(-42.571 -74.226)" fill="#263238"/>
            <path id="Trazado_231115" data-name="Trazado 231115" d="M278.17,166.873s2.632,22.534-2.018,27.667c0,0-7.152,51.06-10.1,66.008-3.888,19.734-15.776,63.087-15.776,63.087L216.663,315.5s17.406-57.113,17.571-58.4c.937-7.3,6.434-57.946,5.991-59.2-5.722-16.15,1.905-31.034,1.905-31.034Z" transform="translate(-43.355 -33.392)" fill="#263238"/>
            <path id="Trazado_231116" data-name="Trazado 231116" d="M250.963,349.844c-4.682-1.293-3.316-1.01-8.016-2.234-2.3-.6-17.419-4.519-19.689-4.583-.05,0-.077.1-.031.126,2.04,1,17.244,4.574,19.558,5.115,4.73,1.105,3.388.721,8.133,1.757.09.019.133-.156.045-.181" transform="translate(-44.663 -68.64)" fill="#37474f"/>
            <path id="Trazado_231117" data-name="Trazado 231117" d="M253.414,309.729l4.108-17.188,4.172-17.172,2.053-8.593.492-2.149c.138-.709.251-1.439.361-2.165l.627-4.37,2.341-17.514,4.672-35.034,1.176-8.758.606-4.377.163-1.1c.018-.156.081-.43.1-.543.022-.167.033-.354.043-.534.033-.731.049-1.467.063-2.2.083-5.888.047-11.78.016-17.671.12,5.89.245,11.779.25,17.673,0,.738-.006,1.473-.038,2.214-.01.186-.018.369-.044.566-.052.248-.066.334-.1.543l-.157,1.091-.583,4.378-1.13,8.763-4.49,35.059c-.752,5.843-1.569,11.677-2.395,17.511l-.65,4.373c-.114.73-.23,1.455-.378,2.191l-.507,2.154-2.1,8.584-4.275,17.147Z" transform="translate(-50.709 -34.09)" fill="#37474f"/>
            <path id="Trazado_231118" data-name="Trazado 231118" d="M282.52,194.54s-2.811,20.073-5.631,38.723L248.5,166.878h36.041s2.628,22.527-2.021,27.662" transform="translate(-49.725 -33.393)" fill="#37474f"/>
            <path id="Trazado_231119" data-name="Trazado 231119" d="M350.068,354.944c-1.688.554-49.886.177-51.709-1-.7-.436,4.481-43.256,4.481-43.256l30.8,1.329L328.2,338.132s18.384,8.4,20.255,9.906c1.855,1.5,3.305,6.358,1.617,6.906" transform="translate(-59.689 -62.168)" fill="#ad6359"/>
            <path id="Trazado_231120" data-name="Trazado 231120" d="M350.057,362.722c-.743.244-10.461.306-21.285.2l-2.148-.027c-1.847-.014-3.712-.043-5.559-.074-.72-.017-1.439-.034-2.149-.043l-.034,0c-.711-.018-1.422-.035-2.117-.046-1.078-.018-2.133-.045-3.162-.074-.669-.021-1.331-.042-1.975-.055l-.026,0c-.644-.022-1.281-.046-1.892-.062l-.025,0c-.929-.027-1.817-.058-2.663-.1-.569-.019-1.13-.039-1.667-.069-1.047-.044-2-.1-2.85-.154-.427-.02-.83-.051-1.2-.084-.923-.07-1.664-.143-2.17-.226a2.537,2.537,0,0,1-.791-.2c-.244-.15-.087-5.364.212-12.142,4.652,1.089,13.165,2.8,26.182,4.67,21.4,3.079,15.024-2.677,11.39-4.631-.035-.022-.07-.037-.1-.06.225.1.458.211.682.321a.655.655,0,0,1,.112.05l1.244.59c.449.211.906.43,1.356.65.752.358,1.5.714,2.221,1.074.726.342,1.417.687,2.075,1.017.39.2.77.39,1.133.565.182.087.355.184.528.273.234.117.467.234.685.354q.727.376,1.275.688a2.472,2.472,0,0,1,.252.142,7.778,7.778,0,0,1,.848.542c1.858,1.5,3.3,6.354,1.622,6.9" transform="translate(-59.675 -69.946)" fill="#263238"/>
            <path id="Trazado_231121" data-name="Trazado 231121" d="M322.079,297.362l-32.27.39s7.993-58.519,7.162-61.29c-.325-1.083-39.467-36.584-39.467-36.584-14.038-13.837-9.2-33-9.2-33h36.038s.485,5.628,2.381,7.755c10.839,12.161,38.465,37.316,42.7,48.491,5.311,14.025-7.336,74.243-7.336,74.243" transform="translate(-49.524 -33.392)" fill="#263238"/>
            <path id="Trazado_231122" data-name="Trazado 231122" d="M248.623,182.4a24,24,0,0,0,1.142,6.313,32.164,32.164,0,0,0,2.518,5.884,47.16,47.16,0,0,0,7.659,10.236c2.944,3.115,6.153,5.987,9.344,8.866,3.209,2.865,6.466,5.679,9.734,8.487-1.739-1.273-3.43-2.608-5.127-3.936q-2.518-2.025-4.994-4.106c-3.28-2.8-6.5-5.677-9.51-8.783a45.437,45.437,0,0,1-7.624-10.491,32.207,32.207,0,0,1-2.358-6.054,22.43,22.43,0,0,1-.785-6.417" transform="translate(-49.748 -36.499)" fill="#37474f"/>
            <path id="Trazado_231123" data-name="Trazado 231123" d="M283.078,170.364a16.692,16.692,0,0,0,.3,4.134,6.987,6.987,0,0,0,.663,1.942c.4.56.859,1.081,1.309,1.605,1.827,2.084,3.72,4.111,5.606,6.143l11.319,12.2q5.661,6.1,11.275,12.242c3.727,4.11,7.445,8.229,11,12.5.881,1.075,1.745,2.164,2.57,3.291.409.566.812,1.137,1.17,1.753a4.072,4.072,0,0,1,.447,1.006,8.847,8.847,0,0,1,.224,1.046,46.092,46.092,0,0,1,.175,8.359c-.277,5.551-.87,11.073-1.528,16.582s-1.43,11-2.252,16.491q-1.278,8.223-2.717,16.418,1.31-8.217,2.44-16.459c.781-5.491,1.518-10.987,2.151-16.5s1.186-11.027,1.429-16.559a45.834,45.834,0,0,0-.218-8.251,8.3,8.3,0,0,0-.216-.985,3.552,3.552,0,0,0-.4-.884,20.459,20.459,0,0,0-1.148-1.7c-.819-1.108-1.688-2.185-2.568-3.252-3.516-4.277-7.21-8.417-10.911-12.546s-7.45-8.217-11.2-12.3l-11.246-12.265c-1.853-2.064-3.712-4.123-5.507-6.241-.443-.535-.9-1.06-1.291-1.639a7.05,7.05,0,0,1-.644-1.986,16.729,16.729,0,0,1-.227-4.147" transform="translate(-56.637 -34.09)" fill="#37474f"/>
            <path id="Trazado_231124" data-name="Trazado 231124" d="M330.95,320.346c-4.511-.133-3.216-.184-7.727-.246-2.208-.03-16.719-.209-18.781.274-.046.011-.046.119,0,.13,2.063.483,16.572.3,18.781.274,4.511-.062,3.216-.114,7.727-.246.085,0,.085-.183,0-.186" transform="translate(-60.913 -64.041)" fill="#37474f"/>
            <path id="Trazado_231125" data-name="Trazado 231125" d="M295.555,136.008c-.446-.025-2.536-.134-5.593-.287a17.178,17.178,0,0,1-1.01-10.387c.155-.8-2.1,3.689-1.831,10.245-5.9-.3-13.938-.718-20.951-1.146.07-2.746.011-5.294.011-5.294a30.389,30.389,0,0,1-1.537,5.206c-.96-.051-1.9-.119-2.8-.177a106.744,106.744,0,0,0,.357-11.684A37.452,37.452,0,0,1,257.86,133.9c-4.449-.319-7.37-.61-7.166-.807,7.309-7.208,2.716-12.022,5.141-18.672,2.908-7.969,10.024-8.734,10.276-14.865.218-4.987.277-14.06,6.707-15.516a12.143,12.143,0,0,1,13.33-1.529c9.646,4.551,4.56,19.6,5,22.771.629,4.531,2.632,6.262,3.835,11.465,1.229,5.267-1.371,8.506-1.9,11.975s3.586,7.357,2.468,7.284" transform="translate(-50.162 -16.247)" fill="#263238"/>
            <path id="Trazado_231126" data-name="Trazado 231126" d="M250.551,136.323a17.427,17.427,0,0,0,2.488-4.193,9.117,9.117,0,0,0,.333-4.674,48.717,48.717,0,0,1-.449-4.978,13.022,13.022,0,0,1,.876-5.085,11.412,11.412,0,0,1,3.011-4.212,30.389,30.389,0,0,1,4.063-2.957,18.543,18.543,0,0,0,3.78-3.006,8.961,8.961,0,0,0,2.117-4.314,8.379,8.379,0,0,1-1.649,4.691,16.836,16.836,0,0,1-3.688,3.431,38.187,38.187,0,0,0-3.8,3.032,10.879,10.879,0,0,0-2.623,3.823,12.751,12.751,0,0,0-.815,4.6c-.029,1.6.148,3.221.238,4.889a16.551,16.551,0,0,1-.03,2.547,7.327,7.327,0,0,1-.753,2.485,14.165,14.165,0,0,1-3.1,3.921" transform="translate(-50.136 -20.591)" fill="#263238"/>
            <path id="Trazado_231127" data-name="Trazado 231127" d="M301.456,90.5a25.046,25.046,0,0,1,.9,6.038c.1,2.037.1,4.074.082,6.1l-.01,3.028a15.053,15.053,0,0,0,.238,2.913A16.168,16.168,0,0,0,305,113.931a23.247,23.247,0,0,1,1.422,2.78,14.165,14.165,0,0,1,.882,3.055,21.129,21.129,0,0,1,.2,3.136,12.976,12.976,0,0,1-.408,3.129c-.259,1.024-.626,1.983-.942,2.925a15.433,15.433,0,0,0-.685,2.884,6.227,6.227,0,0,0,2.056,5.319,6.324,6.324,0,0,1-2.684-5.369,15.258,15.258,0,0,1,.492-3.074c.253-1,.581-1.954.764-2.912a16.169,16.169,0,0,0-.026-5.826,14.052,14.052,0,0,0-.841-2.765,21.828,21.828,0,0,0-1.377-2.617,30.7,30.7,0,0,1-1.461-2.74,12.675,12.675,0,0,1-.953-3.044,16.253,16.253,0,0,1-.165-3.147c.02-1.025.078-2.04.138-3.053.109-2.025.246-4.043.3-6.062a29.457,29.457,0,0,0-.257-6.046" transform="translate(-60.283 -18.11)" fill="#263238"/>
            <path id="Trazado_231128" data-name="Trazado 231128" d="M286.784,126.044c5.862,16.4,16.6,29.95,21.785,30.353,7.434.578,22.669-2.881,31-6.754,2.447-1.138-5.81-19.627-8.427-18.414-3.164,1.466-19.07,6.839-19.418,6.885-.744.1-14.562-13.521-17.915-17.079-6.149-6.522-10.213-3.909-7.025,5.009" transform="translate(-57.163 -23.492)" fill="#ad6359"/>
            <path id="Trazado_231129" data-name="Trazado 231129" d="M346.99,152.085c2.412-.2,11.394-1.77,17.086-4.671,2.762-1.407,10.263-6.288,9.345-8.491s-3.236-.969-3.236-.969,2.86-2.536,1.735-4.669-4.671-.1-4.671-.1,2.748-2.82,1.473-4.867-4.5.6-4.5.6,2.632-2.46.873-3.7c-2.117-1.5-6.458,3.587-9.59,4.99-.711.318-14.874,5.43-14.874,5.43Z" transform="translate(-68.161 -25.001)" fill="#ad6359"/>
            <path id="Trazado_231130" data-name="Trazado 231130" d="M367.554,129.9c-3.2,3.732-5.247,4.81-9.873,6.234-.09.028-.07.169.028.148,4.656-.981,7.418-1.965,10.034-6.236.128-.209-.037-.323-.189-.146" transform="translate(-71.561 -25.975)" fill="#263238"/>
            <path id="Trazado_231131" data-name="Trazado 231131" d="M371.466,135.1c-3.664,3.585-5.872,4.775-10.607,6.622-.067.026-.03.142.04.122,4.8-1.424,7.529-2.468,10.719-6.53.144-.184.015-.378-.152-.214" transform="translate(-72.201 -27.022)" fill="#263238"/>
            <path id="Trazado_231132" data-name="Trazado 231132" d="M374.415,141.532c-3.8,3.215-6.163,4.623-10.991,5.827a.092.092,0,0,0,.034.18,16.508,16.508,0,0,0,11.043-5.881c.207-.232.154-.329-.086-.126" transform="translate(-72.708 -28.299)" fill="#263238"/>
            <path id="Trazado_231133" data-name="Trazado 231133" d="M339.972,134.717a60.348,60.348,0,0,1,5.33-7.111c1.975-1.945,12-6.482,13.1-4.372,1.425,2.724-3.847,6.484-6.67,7.988,0,0,3.3,6.3.1,9.816s-11.864-6.32-11.864-6.32" transform="translate(-68.029 -24.55)" fill="#ad6359"/>
            <path id="Trazado_231134" data-name="Trazado 231134" d="M361.423,124.464c-.494,3.421-4.326,5.156-6.955,6.82a.284.284,0,0,0-.042.466c1.207,2.732,2.114,6.938.475,9.632a.072.072,0,0,0,.117.085c2.149-2.65,1.6-6.854.082-9.763,2.723-1.664,6.49-3.573,6.356-7.236a.016.016,0,0,0-.033,0" transform="translate(-70.901 -24.903)" fill="#263238"/>
            <path id="Trazado_231135" data-name="Trazado 231135" d="M319.669,134.664l4.493,20.732s-13.516,3.908-17.792,1.311S291,139.9,287.033,127.936s.178-14.5,8.924-5.135,15.436,14.929,15.78,14.861,7.933-3,7.933-3" transform="translate(-57.133 -23.434)" fill="#4dd0e1"/>
            <path id="Trazado_231136" data-name="Trazado 231136" d="M323.849,141.831c-.018-.066-.128-.042-.118.026a171.415,171.415,0,0,0,3.718,18.3c.017.066.129.042.118-.026a171.538,171.538,0,0,0-3.718-18.3" transform="translate(-64.779 -28.373)" fill="#263238"/>
            <g id="Grupo_115649" data-name="Grupo 115649" transform="translate(228.387 93.68)" opacity="0.1">
              <g id="Grupo_115648" data-name="Grupo 115648">
                <g id="Grupo_115647" data-name="Grupo 115647" clip-path="url(#clip-path-15)">
                  <path id="Trazado_231137" data-name="Trazado 231137" d="M312.908,157.522c-2.648.2-5.1.054-6.537-.815-4.275-2.6-15.366-16.8-19.337-28.774-2.873-8.65-1.5-12.366,2.78-10.225Z" transform="translate(-285.52 -117.115)"/>
                </g>
              </g>
            </g>
            <path id="Trazado_231138" data-name="Trazado 231138" d="M286.858,148.571l-2.316,8.184-36.039,0s8.011-29.056,21.681-37.993c6.838-4.47,11.5-2.443,14.481,2.644.756,1.288,6.392,13.743,6.661,19.075a8.794,8.794,0,0,1-4.467,8.093" transform="translate(-49.726 -23.27)" fill="#4dd0e1"/>
            <g id="Grupo_115652" data-name="Grupo 115652" transform="translate(199.217 94.029)" opacity="0.1">
              <g id="Grupo_115651" data-name="Grupo 115651">
                <g id="Grupo_115650" data-name="Grupo 115650" clip-path="url(#clip-path-16)">
                  <path id="Trazado_231139" data-name="Trazado 231139" d="M285.336,154.578l-.264.936H249.053q.12-.42.288-.936Zm-35.132-2.64c-.1.32-.208.632-.312.928h35.931l.264-.928Zm.936-2.648c-.12.32-.232.624-.336.928h35.771l.264-.928Zm1-2.648c-.128.312-.248.624-.368.936h36.883a8.334,8.334,0,0,0,.872-.936Zm1.048-2.64c-.128.312-.256.624-.376.928h37.8a6.421,6.421,0,0,0,.376-.928Zm1.136-2.648c-.136.312-.272.616-.408.928h37.467a6.966,6.966,0,0,0,.056-.928Zm36.835-2.648H255.54c-.152.312-.3.624-.44.936h36.227c-.048-.3-.1-.608-.168-.936m-.656-2.648H256.852l-.48.936H290.76c-.08-.3-.168-.616-.256-.936m-.84-2.64h-31.4c-.176.312-.344.616-.52.928h32.228c-.1-.3-.208-.616-.312-.928m-.96-2.648H259.82c-.192.312-.384.616-.568.936h29.8c-.112-.312-.232-.624-.352-.936m-1.032-2.648H261.547c-.216.312-.432.624-.632.936h27.133c-.128-.32-.256-.632-.376-.936m-1.112-2.64H263.5c-.248.3-.488.608-.72.928H286.96c-.136-.32-.272-.632-.4-.928m-1.192-2.648H265.795c-.3.3-.576.616-.864.936H285.8q-.24-.528-.432-.936m-1.568-2.648H268.667q-.564.444-1.1.936h16.894c-.208-.328-.424-.64-.656-.936m-2.864-2.64h-7.991a16.017,16.017,0,0,0-1.792.928h11.071a7.491,7.491,0,0,0-1.288-.928" transform="translate(-249.053 -117.551)" fill="#030402"/>
                </g>
              </g>
            </g>
            <path id="Trazado_231140" data-name="Trazado 231140" d="M289.656,153.2a19.253,19.253,0,0,0-4.05.743c-.666.21-1.322.465-1.98.741-.327.138-.655.258-.985.378a3.079,3.079,0,0,1-1.045.228c-.031,0-.035.069,0,.072a4.82,4.82,0,0,0,.99.032,5.054,5.054,0,0,0,.96-.21c.676-.2,1.347-.454,2.022-.668a41.9,41.9,0,0,1,4.1-1.149c.063-.014.058-.173-.006-.167" transform="translate(-56.343 -30.656)" fill="#263238"/>
            <path id="Trazado_231141" data-name="Trazado 231141" d="M294,155.567a19.742,19.742,0,0,0-3.312-.44,13.271,13.271,0,0,0-1.672.049c-.267.022-.534.052-.8.086-.294.038-.587.134-.88.166-.031,0-.036.074,0,.072.277-.018.554.034.83.041s.555.01.832.016c.556.014,1.111.036,1.667.041,1.113.01,2.221.038,3.331.106.06,0,.064-.125.008-.137" transform="translate(-57.491 -31.039)" fill="#263238"/>
            <path id="Trazado_231142" data-name="Trazado 231142" d="M261.939,117.309c-17.807,1.873-31.779,7.545-36.616,10.12-3.161,1.682-20.733,14.081-24.738,17.756-1.965,1.8,10.463,16.584,12.767,14.9,3.124-2.279,22.526-19.749,22.8-19.965,1.054-.837,21.775-13.486,26.091-15.852,7.209-3.952,7.6-7.794-.3-6.962" transform="translate(-40.095 -23.451)" fill="#ad6359"/>
            <path id="Trazado_231143" data-name="Trazado 231143" d="M195.819,184.81a3.177,3.177,0,0,1-2.035-3,4.715,4.715,0,0,1-3.183-.383c-1.69-.954-.935-4.023-.935-4.023a5.811,5.811,0,0,1-3.292-.939c-1.526-1.076-1.205-4.282-1.205-4.282a5.1,5.1,0,0,1-2.375-2.648c-1.074-3.092,2.06-6.986,4.027-9.48s9.885-7.73,11.292-8.88l11.678,15.716s-1.193,10.471-3.922,13.077c-2.3,2.195-7.7,5.648-10.05,4.846" transform="translate(-36.534 -30.25)" fill="#ad6359"/>
            <path id="Trazado_231144" data-name="Trazado 231144" d="M196.988,187.885c3.005-1.747,5.33-4.287,7.794-6.691a.059.059,0,0,0-.084-.084c-2.424,2.419-5.3,4.326-7.81,6.643a.084.084,0,0,0,.1.132" transform="translate(-39.393 -36.237)" fill="#263238"/>
            <path id="Trazado_231145" data-name="Trazado 231145" d="M191.709,182.229a9.041,9.041,0,0,0,1.727-1.622q.857-.924,1.682-1.875,1.653-1.9,3.21-3.89c.046-.058-.033-.143-.084-.084-1.1,1.263-2.221,2.51-3.373,3.725q-.865.913-1.745,1.812a10.79,10.79,0,0,0-1.578,1.77.12.12,0,0,0,.162.164" transform="translate(-38.326 -34.965)" fill="#263238"/>
            <path id="Trazado_231146" data-name="Trazado 231146" d="M185.861,175.653a6.32,6.32,0,0,0,1.477-1.543q.735-.884,1.481-1.759c.993-1.166,1.987-2.332,3.02-3.464.051-.056-.033-.141-.085-.084-1.055,1.144-2.126,2.273-3.172,3.427q-.77.849-1.53,1.707a5.927,5.927,0,0,0-1.251,1.669c-.013.034.031.064.061.047" transform="translate(-37.179 -33.774)" fill="#263238"/>
            <path id="Trazado_231147" data-name="Trazado 231147" d="M224,155.577,209.35,138.046s13.451-9.111,17.641-11.638c4.235-2.554,21.218-8.4,33.641-9.392s12.107,2.942,1.061,9.136-18.982,11.471-19.217,11.726c-.7.765-18.478,17.7-18.478,17.7" transform="translate(-41.891 -23.385)" fill="#4dd0e1"/>
            <path id="Trazado_231148" data-name="Trazado 231148" d="M228.6,155.275c.047.049.13-.026.09-.08A169.393,169.393,0,0,0,216.7,141.159c-.046-.05-.131.026-.09.08A169.57,169.57,0,0,0,228.6,155.275" transform="translate(-43.342 -28.243)" fill="#263238"/>
            <path id="Trazado_231149" data-name="Trazado 231149" d="M251.612,139.766c1.4-.985,2.839-1.918,4.28-2.842s2.908-1.806,4.361-2.712c1.477-.865,2.94-1.753,4.429-2.6s2.981-1.682,4.506-2.463c-1.405.988-2.842,1.92-4.283,2.844s-2.907,1.806-4.359,2.71c-1.477.864-2.938,1.751-4.427,2.595s-2.981,1.682-4.507,2.465" transform="translate(-50.348 -25.844)" fill="#263238"/>
            <path id="Trazado_231150" data-name="Trazado 231150" d="M268.11,132.25a10.587,10.587,0,0,1,1.817-.793,14.794,14.794,0,0,1,1.912-.512,4.711,4.711,0,0,1-.867.5,8.635,8.635,0,0,1-.921.371,8.392,8.392,0,0,1-1.941.43" transform="translate(-53.649 -26.202)" fill="#263238"/>
            <path id="Trazado_231151" data-name="Trazado 231151" d="M283.98,117.9c.238.742,4.245,5.363,7.691,4.922,1.121-.146.6-6.3.6-6.3l.066-.463.911-6.488-7.873-4.2-1.133-.549s-.132,1.792-.275,4.023c-.006.1-.014.207-.02.318s-.023.245-.029.363c-.026.333-.05.674-.067,1.013-.015.258-.03.51-.035.782s-.018.538-.031.81a42.148,42.148,0,0,0,.2,5.773" transform="translate(-56.783 -20.973)" fill="#ad6359"/>
            <path id="Trazado_231152" data-name="Trazado 231152" d="M284.017,108.837a13.142,13.142,0,0,0,8.37,7.213l.911-6.488-7.873-4.2-1.133-.548s-.133,1.791-.275,4.023" transform="translate(-56.832 -20.973)" fill="#263238"/>
            <path id="Trazado_231153" data-name="Trazado 231153" d="M299.7,92.58c3.828,10.843-2.235,14.36-4.574,15.182-2.123.747-9.448,3.02-14.375-7.369s-1.1-15.6,3.67-17.561,11.451-1.1,15.279,9.748" transform="translate(-55.719 -16.408)" fill="#ad6359"/>
            <path id="Trazado_231154" data-name="Trazado 231154" d="M301.8,94.518a7.631,7.631,0,0,1-.7.37,1.284,1.284,0,0,1-.789.242.409.409,0,0,1-.318-.385,1.014,1.014,0,0,1,.618-.821,1.492,1.492,0,0,1,1.056-.192.436.436,0,0,1,.136.786" transform="translate(-60.028 -18.751)" fill="#263238"/>
            <path id="Trazado_231155" data-name="Trazado 231155" d="M293,97.709a7.5,7.5,0,0,0,.749-.266,1.281,1.281,0,0,0,.711-.417.41.41,0,0,0-.067-.5,1.017,1.017,0,0,0-1.023-.1,1.494,1.494,0,0,0-.857.648.436.436,0,0,0,.487.632" transform="translate(-58.519 -19.278)" fill="#263238"/>
            <path id="Trazado_231156" data-name="Trazado 231156" d="M295.908,99.673c-.014-.026-.048.054-.038.084.25.742.41,1.634-.193,2.088-.018.014,0,.051.019.04.792-.366.566-1.549.211-2.212" transform="translate(-59.164 -19.944)" fill="#263238"/>
            <path id="Trazado_231157" data-name="Trazado 231157" d="M294.668,98.944c-1.233.272-.6,2.718.544,2.467,1.124-.248.49-2.695-.544-2.467" transform="translate(-58.829 -19.796)" fill="#263238"/>
            <path id="Trazado_231158" data-name="Trazado 231158" d="M293.915,99.258c-.178.194-.324.493-.575.585-.29.106-.582-.091-.841-.287-.026-.02-.042.006-.034.039.115.47.42.9.941.845.475-.055.7-.556.691-1.057,0-.093-.11-.2-.182-.124" transform="translate(-58.522 -19.856)" fill="#263238"/>
            <path id="Trazado_231159" data-name="Trazado 231159" d="M301.011,97.712c0-.03.069.019.077.05.185.762.525,1.6,1.277,1.664.023,0,.031.04.006.044-.866.113-1.305-1.007-1.359-1.758" transform="translate(-60.233 -19.55)" fill="#263238"/>
            <path id="Trazado_231160" data-name="Trazado 231160" d="M301.466,96.483c1.189-.428,1.957,1.98.856,2.376-1.083.39-1.852-2.017-.856-2.376" transform="translate(-60.231 -19.296)" fill="#263238"/>
            <path id="Trazado_231161" data-name="Trazado 231161" d="M302.2,96.336c.254.069.537.244.8.188.3-.065.443-.387.558-.691.012-.031.039-.017.05.014a.923.923,0,0,1-.345,1.216c-.431.207-.885-.1-1.149-.526-.049-.079-.015-.23.087-.2" transform="translate(-60.448 -19.173)" fill="#263238"/>
            <path id="Trazado_231162" data-name="Trazado 231162" d="M297.718,107.007c.221.141.456.349.739.314a2.08,2.08,0,0,0,.783-.366.027.027,0,0,1,.041.032,1.054,1.054,0,0,1-.884.622.834.834,0,0,1-.745-.55c-.022-.042.034-.07.066-.05" transform="translate(-59.56 -21.401)" fill="#263238"/>
            <path id="Trazado_231163" data-name="Trazado 231163" d="M300.148,100.714s.462,1.086.607,1.618c.013.05-.11.109-.287.168-.008.006-.012.01-.02.006a2.622,2.622,0,0,1-2.715-.277c-.051-.042,0-.115.06-.1a3.95,3.95,0,0,0,2.489.034c0-.158-.854-1.834-.772-1.863a4.8,4.8,0,0,1,1.283-.055c-.9-2.29-2.156-4.417-3.016-6.711a.075.075,0,0,1,.13-.072,39.771,39.771,0,0,1,3.556,7.09c.126.29-1.078.189-1.315.156" transform="translate(-59.573 -18.697)" fill="#263238"/>
            <path id="Trazado_231164" data-name="Trazado 231164" d="M300.337,104.492a3.211,3.211,0,0,1-.934,1.329,1.445,1.445,0,0,1-.822.31c-.655.027-.841-.524-.877-1.034a3.461,3.461,0,0,1,.047-.813,4.149,4.149,0,0,0,2.586.207" transform="translate(-59.57 -20.868)" fill="#263238"/>
            <path id="Trazado_231165" data-name="Trazado 231165" d="M299.4,106.016a1.448,1.448,0,0,1-.822.31c-.656.027-.842-.525-.877-1.034a1.491,1.491,0,0,1,1.7.724" transform="translate(-59.571 -21.062)" fill="#ff9cbd"/>
            <path id="Trazado_231166" data-name="Trazado 231166" d="M280.328,100.3c2.652-.838,1.271-5,1.271-5s2.911-1.25,1.552-6.163a7.715,7.715,0,0,0,6.656,1.721c.9-.155-2.711-1.445-2.711-1.445s4.478,2,10.506-1.279c.426-.232-2.748-6.684-8.534-7.35A11.243,11.243,0,0,0,277.093,87.1a6.423,6.423,0,0,0-1.679,5.816c.726,3.628,3.883,7.715,4.914,7.389" transform="translate(-55.083 -16.146)" fill="#263238"/>
            <path id="Trazado_231167" data-name="Trazado 231167" d="M283.4,104.237s-3.328-2.848-4.68-1.573,1.775,5.839,3.8,6.05a1.944,1.944,0,0,0,2.261-1.664Z" transform="translate(-55.706 -20.478)" fill="#ad6359"/>
            <path id="Trazado_231168" data-name="Trazado 231168" d="M279.955,104.347a.026.026,0,0,0,0,.052,4.917,4.917,0,0,1,3.228,2.342,1.073,1.073,0,0,0-1.629.118c-.028.033.018.078.053.06a1.2,1.2,0,0,1,1.379.075,5.794,5.794,0,0,1,.877.873c.091.1.284-.015.206-.138l-.018-.027c-.4-1.664-2.281-3.648-4.1-3.355" transform="translate(-56.015 -20.874)" fill="#263238"/>
          </g>
        </g>
        <g id="Grupo_115668" data-name="Grupo 115668">
          <g id="Grupo_115667" data-name="Grupo 115667" clip-path="url(#clip-path)">
            <path id="Trazado_231169" data-name="Trazado 231169" d="M451.947,82.949c5.394,14.108,20.353,32.807,24.089,34.165,5.93,2.157,24.754-5.436,31.887-9.233,2.143-1.141-7.024-20.3-9.208-18.9-4.631,2.969-17.3,8.273-18.956,8.145-1.1-.085-12.906-10.655-20.237-16.872-9.271-7.862-8.991-1.01-7.574,2.695" transform="translate(-90.287 -15.335)" fill="#d3766a"/>
            <path id="Trazado_231170" data-name="Trazado 231170" d="M464,105.754l6.917-17.665A108.274,108.274,0,0,0,456.6,76.623c-7.117-4.524-7.478,2.744-2.1,12.807S464,105.754,464,105.754" transform="translate(-90.209 -15.058)" fill="#4dd0e1"/>
            <path id="Trazado_231171" data-name="Trazado 231171" d="M464.468,103.773c1.336-3.877,2.944-7.666,4.623-11.414q.713-1.59,1.5-3.146c.014-.03.061-.016.05.016-.709,1.922-1.494,3.815-2.269,5.712s-1.571,3.8-2.4,5.681c-.47,1.061-.937,2.123-1.428,3.176-.021.045-.09.024-.074-.025" transform="translate(-92.94 -17.848)" fill="#263238"/>
            <g id="Grupo_115657" data-name="Grupo 115657" transform="translate(360.605 61.881)" opacity="0.2">
              <g id="Grupo_115656" data-name="Grupo 115656">
                <g id="Grupo_115655" data-name="Grupo 115655" clip-path="url(#clip-path-18)">
                  <path id="Trazado_231172" data-name="Trazado 231172" d="M468.019,95.911,464,106.181s-4.133-6.263-9.508-16.324c-2.921-5.477-4.151-10.12-3.519-12.5,4.311,4.669,12.362,13.419,17.044,18.55" transform="translate(-450.813 -77.361)"/>
                </g>
              </g>
            </g>
            <path id="Trazado_231173" data-name="Trazado 231173" d="M513.2,106.427c-2.5-.641-5.473-16.838-3.64-18.756a10.459,10.459,0,0,1,2.214-1.465V86.2a37.584,37.584,0,0,0,5.772-9.335c1.6-4.083,3.514-10.33,5.742-9.55,3.252,1.128,1.783,9.316.654,13.965a15.5,15.5,0,0,1,6.1-.82c4.561.855,5.891,18.316,2.237,21.3s-16.573,5.306-19.077,4.665" transform="translate(-101.85 -13.456)" fill="#d3766a"/>
            <g id="Grupo_115666" data-name="Grupo 115666" transform="translate(420.061 4.016)" style="isolation: isolate">
              <g id="Grupo_115665" data-name="Grupo 115665">
                <g id="Grupo_115664" data-name="Grupo 115664" clip-path="url(#clip-path-19)">
                  <path id="Trazado_231174" data-name="Trazado 231174" d="M568.318,64.053,565.3,25.164a6.047,6.047,0,0,0,.471,1.928,7.086,7.086,0,0,0,1.186,1.869c3.759,4.326,13.725,6.7,29.714,7.065l3.02,38.889c-15.989-.37-25.955-2.739-29.714-7.065a7.088,7.088,0,0,1-1.186-1.869,6.041,6.041,0,0,1-.471-1.927" transform="translate(-533.178 -9.051)" fill="#4dd0e1"/>
                  <g id="Grupo_115660" data-name="Grupo 115660" transform="translate(32.12 16.113)" opacity="0.1">
                    <g id="Grupo_115659" data-name="Grupo 115659">
                      <g id="Grupo_115658" data-name="Grupo 115658" clip-path="url(#clip-path-20)">
                        <path id="Trazado_231175" data-name="Trazado 231175" d="M568.318,64.053,565.3,25.164a6.047,6.047,0,0,0,.471,1.928,7.086,7.086,0,0,0,1.186,1.869c3.759,4.326,13.725,6.7,29.714,7.065l3.02,38.889c-15.989-.37-25.955-2.739-29.714-7.065a7.088,7.088,0,0,1-1.186-1.869,6.041,6.041,0,0,1-.471-1.927" transform="translate(-565.298 -25.164)"/>
                      </g>
                    </g>
                  </g>
                  <path id="Trazado_231176" data-name="Trazado 231176" d="M568.7,57.067a12.8,12.8,0,0,1-.193,2.847,12.183,12.183,0,0,0-.191,2.741l-3.02-38.889a12.186,12.186,0,0,1,.191-2.741,12.79,12.79,0,0,0,.193-2.847c.906,11.667,2.114,27.223,3.02,38.889" transform="translate(-533.173 -7.653)" fill="#4dd0e1"/>
                  <g id="Grupo_115663" data-name="Grupo 115663" transform="translate(32.099 10.525)" opacity="0.4">
                    <g id="Grupo_115662" data-name="Grupo 115662">
                      <g id="Grupo_115661" data-name="Grupo 115661" clip-path="url(#clip-path-21)">
                        <path id="Trazado_231177" data-name="Trazado 231177" d="M568.7,57.067a12.8,12.8,0,0,1-.193,2.847,12.183,12.183,0,0,0-.191,2.741l-3.02-38.889a12.186,12.186,0,0,1,.191-2.741,12.79,12.79,0,0,0,.193-2.847c.906,11.667,2.114,27.223,3.02,38.889" transform="translate(-565.272 -18.178)"/>
                      </g>
                    </g>
                  </g>
                  <path id="Trazado_231178" data-name="Trazado 231178" d="M557.647,15.545l3.02,38.889a6.383,6.383,0,0,0-.57-2.2,7.63,7.63,0,0,0-1.185-1.82c-3.9-4.494-14.012-6.629-30.749-6.5l-3.02-38.889c16.736-.129,26.844,2.006,30.748,6.5a7.644,7.644,0,0,1,1.185,1.82,6.39,6.39,0,0,1,.57,2.2" transform="translate(-525.143 -5.02)" fill="#4dd0e1"/>
                </g>
              </g>
            </g>
            <rect id="Rectángulo_50972" data-name="Rectángulo 50972" width="1.856" height="216.535" transform="matrix(0.997, -0.077, 0.077, 0.997, 419.225, 0.143)" fill="#263238"/>
            <path id="Trazado_231179" data-name="Trazado 231179" d="M523.923,82.206c-.912,2.233,2.241,2.029,2.241,2.029s-4.468,1.387-4.518,4.052c-.041,2.568,3.76,2.189,4.031,2.165-.235.075-4.308,1.457-4.082,4.14.237,2.789,3.987,1.753,4.228,1.685-.2.141-2.816,2.051-2.18,4.051,1.093,3.436,7.916-1.265,10.763-.616,0,0-1.464,5.235-1.449,5.382,0,0,7.5-4.625,8.159-8.513a2.519,2.519,0,0,0-1.493-2.779s2.277-1.165,2.166-3.283c-.06-1.087-1.853-1.959-1.853-1.959a3.155,3.155,0,0,0,1.568-2.887c-.167-1.5-1.94-2.141-1.94-2.141s1.264-1.763.6-3.239c-1.343-2.98-14.28-2.868-16.236,1.911" transform="translate(-104.37 -15.666)" fill="#d3766a"/>
            <path id="Trazado_231180" data-name="Trazado 231180" d="M540.38,84.5a.034.034,0,0,0,.013-.066,22.44,22.44,0,0,0-13.319.9c-.134.056-.1.3.058.263a45.966,45.966,0,0,1,13.249-1.1" transform="translate(-105.452 -16.774)" fill="#263238"/>
            <path id="Trazado_231181" data-name="Trazado 231181" d="M540.953,90.945c.05,0,.057-.08,0-.091a21.013,21.013,0,0,0-14.469,1.89c-.153.086-.2.317-.02.23,3.088-1.445,10.315-2.351,14.484-2.029" transform="translate(-105.324 -18.077)" fill="#263238"/>
            <path id="Trazado_231182" data-name="Trazado 231182" d="M526.543,100.3c4.364-2.243,9.008-2.861,13.869-2.81.063,0,.058-.089,0-.1a18.916,18.916,0,0,0-7.868.048,12.944,12.944,0,0,0-6.085,2.713c-.07.058-.014.2.078.153" transform="translate(-105.34 -19.407)" fill="#263238"/>
            <path id="Trazado_231183" data-name="Trazado 231183" d="M525.963,85.668c-.16.067.114.227-.044.3-.663.3-4.5,2.472-4.168,4.009.27,1.231,2.111,1.723,2.892,1.634l1.965-.222-1.769.893a8.109,8.109,0,0,0-2.131,1.525,2.9,2.9,0,0,0-.968,2.159,1.653,1.653,0,0,0,1.325,1.6,5.01,5.01,0,0,0,2.5-.185l2.243-.678-1.89,1.368A7.636,7.636,0,0,0,524.5,99.4a3.134,3.134,0,0,0-.765,1.638,1.492,1.492,0,0,0,.69,1.41,3.3,3.3,0,0,0,1.827.238,25.9,25.9,0,0,0,3.966-.876c.663-.177,1.329-.355,2-.5a4.882,4.882,0,0,1,2.053-.121,5.269,5.269,0,0,0-2.005.3c-.654.2-1.3.422-1.947.648a22.065,22.065,0,0,1-4.005,1.107,3.85,3.85,0,0,1-2.2-.216,2.113,2.113,0,0,1-1.1-2.041,3.828,3.828,0,0,1,.893-2.057,8.351,8.351,0,0,1,1.554-1.5l.354.69a5.745,5.745,0,0,1-2.95.248,2.4,2.4,0,0,1-1.382-.848,2.711,2.711,0,0,1-.541-1.509,3.651,3.651,0,0,1,1.225-2.733,8.8,8.8,0,0,1,2.371-1.642l.2.67c-1,.078-3.115-.246-3.773-2.1-.5-2.548,4.128-4.282,5-4.539" transform="translate(-104.239 -17.142)" fill="#263238"/>
            <path id="Trazado_231184" data-name="Trazado 231184" d="M526.618,84.77a4.861,4.861,0,0,1-1.421-.414,1.119,1.119,0,0,1-.667-.917,2.275,2.275,0,0,1,.421-1.225c.261-.41.556-.827.879-1.246a3.861,3.861,0,0,0-1.3.927,2.257,2.257,0,0,0-.674,1.589,1.605,1.605,0,0,0,.37.885,1.673,1.673,0,0,0,.776.475,2.594,2.594,0,0,0,1.616-.074" transform="translate(-104.824 -16.202)" fill="#263238"/>
            <path id="Trazado_231185" data-name="Trazado 231185" d="M433.287,285.188s-5.231,29.412-5.235,29.432c-.821,5.657-1.439,10.631-1.519,13.234a.084.084,0,0,0,0,.042,3.994,3.994,0,0,0,.163,1.808c.012.016.016.031.029.04,1.517,1.385,46.534,9.261,48.2,9.007s1.07-5.011-.433-6.711-17.4-12.424-17.4-12.424l4.847-29.456Z" transform="translate(-85.348 -57.067)" fill="#d3766a"/>
            <path id="Trazado_231186" data-name="Trazado 231186" d="M428.9,314.385s-.845,6.057-.85,6.078c-.821,5.657-1.439,10.631-1.519,13.234a.094.094,0,0,0,0,.042,7.774,7.774,0,0,0,.164,1.808.19.19,0,0,0,.028.041c1.518,1.385,46.534,9.26,48.2,9.006s1.069-5.011-.434-6.711-17.4-12.424-17.4-12.424l.946-6.156Z" transform="translate(-85.35 -62.909)" fill="#ebebeb"/>
            <path id="Trazado_231187" data-name="Trazado 231187" d="M474.67,346.221c-1.692.256-47.446-7.734-49-9.142-.591-.53-.046-7.705,1.944-15.4l29.491,5.187s15.58,10.8,17.116,12.527,2.139,6.569.447,6.825" transform="translate(-85.132 -64.369)" fill="#4dd0e1"/>
            <path id="Trazado_231188" data-name="Trazado 231188" d="M474.981,347.952c-7.637-1.528-38.583-6.969-46.249-7.9-.062-.008-.07.034-.008.048,7.537,1.679,38.526,6.87,46.235,7.976.162.023.183-.094.022-.126" transform="translate(-85.78 -68.045)" fill="#263238"/>
            <path id="Trazado_231189" data-name="Trazado 231189" d="M481.268,341.1a6.252,6.252,0,0,0-4.915,1.072,6.058,6.058,0,0,0-2.429,3.8c-.006.046.078.062.093.016a7.227,7.227,0,0,1,7.235-4.787.049.049,0,0,0,.017-.1" transform="translate(-94.833 -68.228)" fill="#263238"/>
            <path id="Trazado_231190" data-name="Trazado 231190" d="M465.568,329.6c-3.063-.578-6.811-.117-9.156,2.061-.091.085.03.213.13.182a43.072,43.072,0,0,1,9.014-1.855.2.2,0,0,0,.013-.387" transform="translate(-91.322 -65.907)" fill="#263238"/>
            <path id="Trazado_231191" data-name="Trazado 231191" d="M468.329,331.268c-3.063-.579-6.81-.117-9.157,2.061-.09.084.03.212.13.181a43.061,43.061,0,0,1,9.014-1.855.2.2,0,0,0,.013-.387" transform="translate(-91.875 -66.241)" fill="#263238"/>
            <path id="Trazado_231192" data-name="Trazado 231192" d="M471.09,332.941c-3.062-.578-6.81-.117-9.157,2.061-.09.085.031.213.13.182a43.058,43.058,0,0,1,9.014-1.855.2.2,0,0,0,.013-.387" transform="translate(-92.427 -66.576)" fill="#263238"/>
            <path id="Trazado_231193" data-name="Trazado 231193" d="M473.851,334.613c-3.062-.578-6.81-.117-9.156,2.061-.091.085.03.213.13.182A43.112,43.112,0,0,1,473.839,335a.2.2,0,0,0,.013-.387" transform="translate(-92.98 -66.911)" fill="#263238"/>
            <path id="Trazado_231194" data-name="Trazado 231194" d="M435.777,129.878s5.588,74.472,5.786,75.528c.021.1-15.031,76.124-15.031,76.124l32.591,5.65S469.9,213.9,469.994,205.8c.169-13.877-1.861-55.487-6.965-75.925Z" transform="translate(-85.35 -25.989)" fill="#455a64"/>
            <path id="Trazado_231195" data-name="Trazado 231195" d="M460.161,315.323c-.78-.334-20.21-4.12-27.813-4.87-.082-.008-.275.182-.006.278,2.06.727,27.293,4.842,27.784,4.815.086,0,.11-.191.035-.223" transform="translate(-86.485 -62.122)" fill="#263238"/>
            <path id="Trazado_231196" data-name="Trazado 231196" d="M445.315,136.415c-.119-.869-.27-1.731-.425-2.594-.023-.128-.235-.092-.226.037.277,3.732.792,7.449,1.2,11.169s5.138,59.844,4.955,61.679a41.67,41.67,0,0,1-1,5.387c-.853,3.627-10.568,51.072-12.409,58.321-.23.907-.42,1.822-.6,2.74a.087.087,0,0,0,.17.042c1.269-3.554,14.8-62.957,14.858-66.62.062-3.713-5.488-62.642-6.523-70.161" transform="translate(-87.406 -26.762)" fill="#263238"/>
            <path id="Trazado_231197" data-name="Trazado 231197" d="M472.114,193.833l-30.629-19.082c-1.6-20.932-3.394-44.874-3.394-44.874H465.34c4.089,16.388,6.358,46.186,6.774,63.956" transform="translate(-87.663 -25.989)" fill="#263238"/>
            <path id="Trazado_231198" data-name="Trazado 231198" d="M493.159,277.389s-1.837,29.833-1.84,29.854c-.381,5.7-.614,10.711-.492,13.312a.085.085,0,0,0,0,.042,3.982,3.982,0,0,0,.3,1.789c.012.015.018.03.03.038,1.621,1.263,47.111,5.64,48.748,5.259s.679-5.079-.95-6.658-18.3-11.044-18.3-11.044l1.553-29.838Z" transform="translate(-98.209 -55.506)" fill="#d3766a"/>
            <path id="Trazado_231199" data-name="Trazado 231199" d="M491.7,307.054s-.376,6.1-.378,6.125c-.382,5.7-.614,10.711-.493,13.312a.086.086,0,0,0,0,.042,7.8,7.8,0,0,0,.3,1.789c.013.015.018.03.031.038,1.621,1.263,47.11,5.64,48.747,5.258s.68-5.079-.95-6.658-18.3-11.043-18.3-11.043l.468-6.21Z" transform="translate(-98.209 -61.442)" fill="#ebebeb"/>
            <path id="Trazado_231200" data-name="Trazado 231200" d="M539.911,335.187c-1.659.418-47.97-3.126-49.651-4.377-.64-.472-.788-7.665.45-15.512l29.855,2.32s16.547,9.25,18.243,10.82,2.762,6.332,1.1,6.75" transform="translate(-98.005 -63.092)" fill="#4dd0e1"/>
            <path id="Trazado_231201" data-name="Trazado 231201" d="M540.081,336.932c-7.749-.785-39.075-3.218-46.794-3.4-.062,0-.066.041,0,.048,7.663.945,39.009,3.125,46.789,3.484.163.007.173-.11.009-.127" transform="translate(-98.698 -66.739)" fill="#263238"/>
            <path id="Trazado_231202" data-name="Trazado 231202" d="M545.8,329.349a6.251,6.251,0,0,0-4.789,1.541,6.056,6.056,0,0,0-2.053,4.012c0,.046.083.054.094.007a7.226,7.226,0,0,1,6.741-5.462.049.049,0,0,0,.007-.1" transform="translate(-107.846 -65.896)" fill="#263238"/>
            <path id="Trazado_231203" data-name="Trazado 231203" d="M529,319.392c-3.1-.281-6.79.54-8.916,2.934-.082.093.051.208.146.168a43.117,43.117,0,0,1,8.793-2.716.2.2,0,0,0-.024-.386" transform="translate(-104.064 -63.9)" fill="#263238"/>
            <path id="Trazado_231204" data-name="Trazado 231204" d="M531.908,320.79c-3.1-.281-6.79.54-8.916,2.934-.082.092.05.208.146.167a43.1,43.1,0,0,1,8.793-2.715.2.2,0,0,0-.024-.386" transform="translate(-104.646 -64.18)" fill="#263238"/>
            <path id="Trazado_231205" data-name="Trazado 231205" d="M534.818,322.189c-3.1-.281-6.79.54-8.916,2.933-.082.093.05.209.146.169a43.088,43.088,0,0,1,8.793-2.716.2.2,0,0,0-.024-.386" transform="translate(-105.229 -64.46)" fill="#263238"/>
            <path id="Trazado_231206" data-name="Trazado 231206" d="M537.727,323.587c-3.1-.281-6.79.541-8.916,2.934-.082.092.05.208.146.168a43.089,43.089,0,0,1,8.794-2.716.2.2,0,0,0-.025-.386" transform="translate(-105.811 -64.74)" fill="#263238"/>
            <path id="Trazado_231207" data-name="Trazado 231207" d="M474.988,275.805l33.529,3.071s9.255-89.869,6-99.479c-4.315-12.734-60.324-30.695-58.906-32.5,0,0,2.672-10.784,5.475-17.015H419.927c-5.539,16.34-2.4,27.91-.488,31.173,9,15.328,64.086,31.309,63.522,35.329-.89,6.348-7.973,79.425-7.973,79.425" transform="translate(-83.403 -25.989)" fill="#455a64"/>
            <path id="Trazado_231208" data-name="Trazado 231208" d="M521.519,306.22c-.809-.258-20.511-2.173-28.151-2.194-.082,0-.257.207.021.276,2.12.528,27.631,2.217,28.116,2.144.085-.013.092-.2.014-.226" transform="translate(-98.698 -60.836)" fill="#263238"/>
            <path id="Trazado_231209" data-name="Trazado 231209" d="M468.06,150.471c-.534.024-1.066-.022-1.6.029s-1.061.1-1.592.163c-1.032.126-2.05.342-3.064.57a30.252,30.252,0,0,0-5.958,1.9c-.069.032-.014.126.05.114,2.041-.414,4.06-.948,6.1-1.365.988-.2,1.984-.363,2.972-.562.522-.106,1.045-.214,1.57-.3s1.026-.258,1.549-.348c.112-.019.079-.2-.031-.2" transform="translate(-91.209 -30.109)" fill="#263238"/>
            <path id="Trazado_231210" data-name="Trazado 231210" d="M469.914,129.919c0-.046-.064-.041-.069,0a76.258,76.258,0,0,1-1.577,10.794,4.6,4.6,0,0,1-1.036,2.233c-.318.322-.735.6-1.159.29a1.434,1.434,0,0,1-.483-1.229,27.9,27.9,0,0,1,.368-3.018c.109-.948.194-1.9.273-2.849.19-2.3.178-3.794.266-6.094,0-.081-.121-.076-.125,0-.138,2.377-.507,3.954-.814,6.313-.149,1.141-.317,2.281-.481,3.42a7.187,7.187,0,0,0-.174,3.128,1.8,1.8,0,0,0,1.368,1.243l-.074.178c-.118.284-.234.567-.349.853-.225.563-.433,1.138-.68,1.691-.034.074.059.154.119.088a4.983,4.983,0,0,0,.97-1.586,7.747,7.747,0,0,0,.369-1.22,2.636,2.636,0,0,0,1.769-1.567,9.533,9.533,0,0,0,.73-2.625c.206-1.161.374-2.329.517-3.5a35.838,35.838,0,0,0,.272-6.549" transform="translate(-93.002 -25.991)" fill="#263238"/>
            <path id="Trazado_231211" data-name="Trazado 231211" d="M444.4,133.8c-.024-.131-.226-.113-.253.006-.212.936-.281,1.9-.414,2.854-.131.931-.294,1.861-.5,2.779a10.1,10.1,0,0,1-1.969,4.46c-2.295,2.665-6.227,3.36-9.563,3.3-.082,0-.074.117,0,.125,2.947.318,6.027.5,8.636-1.167,2.448-1.565,3.4-4.249,3.838-7a16.282,16.282,0,0,0,.223-5.364" transform="translate(-86.372 -26.756)" fill="#263238"/>
            <path id="Trazado_231212" data-name="Trazado 231212" d="M474.416,155.382a41.379,41.379,0,0,0-4.815-2.252c-1.61-.649-3.27-1.14-4.888-1.762-.066-.025-.11.087-.046.115,1.623.717,3.181,1.558,4.818,2.249a41.069,41.069,0,0,0,4.891,1.754.057.057,0,0,0,.041-.1" transform="translate(-92.974 -30.288)" fill="#263238"/>
            <path id="Trazado_231213" data-name="Trazado 231213" d="M473.463,184.293c-1.579-.948-27.823-12.217-29.442-13.1q-2.479-1.347-4.895-2.8a82.512,82.512,0,0,1-8.952-6.031,19.2,19.2,0,0,1-6.255-7.927,26.934,26.934,0,0,1-1.465-10.016,76.424,76.424,0,0,1,1.187-13.05c.014-.079-.106-.11-.121-.03a99.042,99.042,0,0,0-1.569,11.822,29.9,29.9,0,0,0,.912,10.381,18.17,18.17,0,0,0,5.559,8.358,59.761,59.761,0,0,0,8.936,6.257q2.774,1.67,5.657,3.144c1.883.965,28.364,12.518,30.376,13.179.111.037.166-.128.073-.184" transform="translate(-84.415 -26.271)" fill="#263238"/>
            <path id="Trazado_231214" data-name="Trazado 231214" d="M501.6,205.23c-.465-.929-21.653-10.8-23.394-11.243-.078-.02-.169.292-.1.322,1.165.478,22.505,10.747,22.81,11.2.639.961-6.038,71.313-6.038,72.014a.172.172,0,0,0,.338.038c.39-1.285,6.924-71.247,6.379-72.336" transform="translate(-95.666 -38.817)" fill="#263238"/>
            <path id="Trazado_231215" data-name="Trazado 231215" d="M415.755,132.014c.116.12,47.793-2.641,48.21-3.152.582-.719-12.486-47.243-17.674-53.463-1.11-1.329-4.6-1.569-7.54-1.08a13.158,13.158,0,0,0-2.256.558.318.318,0,0,1-.075.024,5.432,5.432,0,0,0-1.637.887c-7.949,6.9-13.529,27.145-14.863,34.1-2.213,11.455-4.579,21.694-4.165,22.128" transform="translate(-83.184 -14.825)" fill="#4dd0e1"/>
            <path id="Trazado_231216" data-name="Trazado 231216" d="M459.7,120.178a5,5,0,0,0-.976.184,6.088,6.088,0,0,0-2.152,1.176,10.631,10.631,0,0,0-2.128,2.624c-.064.1-.12.192-.176.3-.24.4-.456.824-.672,1.24-.032.072-.072.144-.1.216a1.91,1.91,0,0,0-.1.224c-.7,1.432-1.32,2.912-1.992,4.383a14.132,14.132,0,0,1-2.912,4.511,4.077,4.077,0,0,1-2.48,1.136,8.192,8.192,0,0,1-2.68-.368,14.282,14.282,0,0,1-4.551-2.768c-.232-.192-.456-.384-.68-.584-.208-.168-.408-.344-.608-.52-.808-.7-1.616-1.4-2.456-2.04-.112-.08-.216-.16-.328-.24l-.352-.256a9.468,9.468,0,0,0-4.287-1.84,10.979,10.979,0,0,0-1.256-.04c-.424.048-.84.128-1.256.2a9.113,9.113,0,0,0-2.312,1,.008.008,0,0,1-.008.008c-.232.144-.456.288-.68.456a30.767,30.767,0,0,0-2.736,2.328c-.152.144-.312.28-.472.424-.048.048-.1.088-.152.136a15.466,15.466,0,0,1-4.3,2.76c.032-.168.064-.336.1-.512a16.627,16.627,0,0,0,3.768-2.7l.016-.016c.144-.128.28-.256.424-.392.912-.84,1.8-1.736,2.816-2.5a7.463,7.463,0,0,1,.656-.464c.056-.04.112-.08.176-.12a7.851,7.851,0,0,1,5.287-1.224,9.923,9.923,0,0,1,4.583,2.2c.088.064.168.128.248.192.128.1.256.208.384.328.816.68,1.584,1.4,2.36,2.112.192.176.384.352.584.528.216.192.432.384.656.568a12.565,12.565,0,0,0,4.455,2.712,6.976,6.976,0,0,0,2.56.288,3.686,3.686,0,0,0,2.216-1.112,14.458,14.458,0,0,0,2.632-4.455c.616-1.448,1.192-2.936,1.864-4.383a1.921,1.921,0,0,1,.1-.224c.04-.1.08-.184.128-.28.264-.536.544-1.072.856-1.6a3.033,3.033,0,0,1,.16-.272,10.969,10.969,0,0,1,2.1-2.592,6.3,6.3,0,0,1,2.464-1.352,7.862,7.862,0,0,1,.96-.2c.088.28.168.552.248.824m2.736,9.711c-.232-.008-.464-.016-.688-.04a10.471,10.471,0,0,1-1.224-.288,8.289,8.289,0,0,1-2.76-1.632c-.24-.208-.472-.432-.7-.656s-.448-.464-.664-.7c-.688-.768-1.328-1.584-1.96-2.408-.168-.224-.336-.448-.512-.664-.272-.36-.552-.728-.832-1.08a14.291,14.291,0,0,0-3.9-3.632,7.856,7.856,0,0,0-2.544-.9,4.132,4.132,0,0,0-2.656.6,14.212,14.212,0,0,0-3.768,3.84c-1.064,1.424-2.048,2.9-3.136,4.263a17.707,17.707,0,0,1-2.376,2.512c-.12.1-.248.2-.376.3a7.558,7.558,0,0,1-1.008.664,6,6,0,0,1-2.344.712,7.084,7.084,0,0,1-2.472-.3,9.988,9.988,0,0,1-3.288-1.76c-.192-.152-.376-.312-.56-.472-.152-.136-.3-.28-.456-.424A23.475,23.475,0,0,1,421,123.706c-.472-.736-.936-1.48-1.4-2.232-.056.264-.1.536-.16.8.336.592.672,1.184,1.032,1.768a24.546,24.546,0,0,0,3.192,4.327,4.612,4.612,0,0,0,.352.336,5.86,5.86,0,0,0,.528.472,10.7,10.7,0,0,0,3.744,2.08,7.642,7.642,0,0,0,2.768.352,6.467,6.467,0,0,0,2.688-.824,8.949,8.949,0,0,0,1.28-.9,3.48,3.48,0,0,0,.328-.272,18.16,18.16,0,0,0,2.336-2.568c1.1-1.416,2.048-2.92,3.056-4.359a14.277,14.277,0,0,1,3.48-3.832,3.718,3.718,0,0,1,2.4-.632,6.912,6.912,0,0,1,2.44.808,12.36,12.36,0,0,1,3.816,3.56c.3.384.592.776.888,1.176.16.224.328.456.5.688.576.808,1.16,1.616,1.792,2.4a.517.517,0,0,0,.064.072c.152.184.312.368.472.552a9.535,9.535,0,0,0,3.712,2.7,7.379,7.379,0,0,0,2.312.424c-.064-.24-.12-.48-.184-.72m-.448-1.64a14.749,14.749,0,0,1-4.919-.976c-.312-.112-.632-.224-.944-.344-.88-.328-1.752-.68-2.632-1.016-.24-.088-.472-.176-.7-.264a14.633,14.633,0,0,0-7.119-1.088,6.373,6.373,0,0,0-4.031,2.3c-1.032,1.184-1.824,2.5-2.776,3.64a11.071,11.071,0,0,1-1.144,1.224c-.072.064-.152.128-.232.2a7.817,7.817,0,0,1-2.024,1.264,10.643,10.643,0,0,1-4.3.776,19.544,19.544,0,0,1-8.639-2.128c-.24-.112-.472-.224-.712-.336-.2-.1-.408-.2-.608-.3-.928-.448-1.864-.9-2.832-1.3a4.3,4.3,0,0,0-.448-.168c-.024.128-.048.256-.072.376.12.048.232.1.352.16.864.408,1.712.872,2.56,1.336l.576.312c.3.16.608.32.912.472a25.111,25.111,0,0,0,4.287,1.752,16.418,16.418,0,0,0,4.623.64,10.815,10.815,0,0,0,4.631-.84,8.63,8.63,0,0,0,2.3-1.5c.072-.064.144-.128.208-.192a11.406,11.406,0,0,0,1.144-1.272c.976-1.224,1.736-2.56,2.672-3.7a6.02,6.02,0,0,1,3.632-2.288,11.558,11.558,0,0,1,4.471.152,19.287,19.287,0,0,1,2.464.728c.24.088.472.176.7.264.376.152.752.312,1.128.472.688.288,1.376.592,2.08.872.384.152.776.3,1.168.448.344.12.688.24,1.04.344a13.487,13.487,0,0,0,3.344.568c-.056-.192-.1-.392-.16-.592" transform="translate(-83.421 -23.582)" fill="#fff"/>
            <path id="Trazado_231217" data-name="Trazado 231217" d="M423.285,77.37C405.991,82.008,393.079,89.8,388.706,93.1c-2.859,2.156-18.273,17.154-21.652,21.411-1.659,2.089,12.931,14.741,14.944,12.72,2.728-2.74,19.155-23.033,19.39-23.287.909-.993,19.394-16.73,23.287-19.743,6.5-5.032,6.287-8.888-1.389-6.829" transform="translate(-73.422 -15.369)" fill="#d3766a"/>
            <path id="Trazado_231218" data-name="Trazado 231218" d="M343.932,142.589a1.03,1.03,0,0,0,.937.187c-.368,1.645-.258,3.057.9,3.58a1.885,1.885,0,0,0,2.047-.48,1.429,1.429,0,0,0,1.011,1.673c1.358.374,3.5-1.986,5.367-4.562-1,1.969-1.49,3.762-.286,4.149,3.2,1.018,6.766-5.195,9.772-9.062a15.839,15.839,0,0,1,3.2-3.228,4.053,4.053,0,0,1,.6-.333,1.248,1.248,0,0,1,1.451.062c.658.628-.307,2.48-1.3,3.466-1.894,1.861-2.642,5.882-1.489,7.081,1.686,1.758,5.463-3.088,7.2-4.45,2.321-1.82,4.673-6.752,4.916-7.029,0,0-.478-.947-1.772-3.149-2.464-4.2-6.571-10.461-9.553-11.354A71.39,71.39,0,0,0,349.4,127.76c-2.686,1.911-8.244,12.911-5.471,14.829" transform="translate(-68.67 -23.84)" fill="#d3766a"/>
            <path id="Trazado_231219" data-name="Trazado 231219" d="M363.515,137.243a12.076,12.076,0,0,0-4.035,3.826c-1.453,2.132-1.788,3.561-2.826,5.8a.05.05,0,0,0,.09.045c.5-1.065,2.3-4.535,2.9-5.515a11.554,11.554,0,0,1,3.891-4.126c.019-.012,0-.041-.02-.03" transform="translate(-71.366 -27.462)" fill="#263238"/>
            <path id="Trazado_231220" data-name="Trazado 231220" d="M358.671,133.669a26.864,26.864,0,0,0-4.557,4.179,22.825,22.825,0,0,0-3.519,6.693q-.836,2.112-1.58,4.26c-.021.06.066.106.09.045q1.394-3.614,3.005-7.14a18.118,18.118,0,0,1,4.127-5.785c1-.932,1.391-1.367,2.456-2.218.02-.016,0-.05-.022-.034" transform="translate(-69.838 -26.747)" fill="#263238"/>
            <path id="Trazado_231221" data-name="Trazado 231221" d="M354.82,130.445a17.642,17.642,0,0,0-4.83,4.08,26.917,26.917,0,0,0-3.26,6.5c-.5,1.3-.949,2.621-1.382,3.948-.018.054.075.086.094.033a72.243,72.243,0,0,1,3.644-8.59,11.5,11.5,0,0,1,2.316-3.211,25.514,25.514,0,0,1,3.426-2.748c.007-.006,0-.018-.009-.014" transform="translate(-69.104 -26.102)" fill="#263238"/>
            <path id="Trazado_231222" data-name="Trazado 231222" d="M353.867,149.293a1.137,1.137,0,0,1-.581-.589,1.642,1.642,0,0,1-.075-.832,6.766,6.766,0,0,1,.482-1.625c.1-.266.217-.526.3-.812a.4.4,0,0,0,.013-.063c0-.02.01,0,0-.054s-.062-.083-.091-.07c-.093.026-.073.046-.1.059a.366.366,0,0,0-.038.046l-.13.178-.24.355c-.316.474-.638.941-.985,1.391a6.892,6.892,0,0,1-2.471,2.213,1.643,1.643,0,0,1-1.512-.1,1.045,1.045,0,0,1-.486-1.282l.211-.593-.468.427a1.99,1.99,0,0,1-1.3.539,1.257,1.257,0,0,1-1.158-.64,3.267,3.267,0,0,1-.351-1.43,4.614,4.614,0,0,1,.15-1.489l.106-.352-.345.147a.946.946,0,0,1-.872-.179,1.253,1.253,0,0,1-.512-.824,6.337,6.337,0,0,1-.039-2.155,16.662,16.662,0,0,1,1.223-4.143,25.4,25.4,0,0,1,4.768-7.5,23.586,23.586,0,0,0-5.045,7.3,16.265,16.265,0,0,0-1.254,4.3,6.633,6.633,0,0,0,.03,2.272,2.144,2.144,0,0,0,.212.562,1.363,1.363,0,0,0,.423.455,1.254,1.254,0,0,0,1.221.212l-.239-.2a4.678,4.678,0,0,0-.17,1.613,3.582,3.582,0,0,0,.406,1.58,1.456,1.456,0,0,0,.618.606,1.86,1.86,0,0,0,.829.19,2.291,2.291,0,0,0,1.523-.642l-.256-.166a1.427,1.427,0,0,0,0,.948,1.349,1.349,0,0,0,.621.706,1.987,1.987,0,0,0,.876.272,2.054,2.054,0,0,0,.9-.17,7.1,7.1,0,0,0,2.536-2.346c.341-.462.657-.94.964-1.421l.23-.36c.058-.118.234-.262.054-.224-.064.266-.169.535-.262.8a6.913,6.913,0,0,0-.43,1.663,1.7,1.7,0,0,0,.108.849,1.157,1.157,0,0,0,.609.577" transform="translate(-68.632 -25.997)" fill="#263238"/>
            <path id="Trazado_231223" data-name="Trazado 231223" d="M407.466,83.949l16.082,9.968a107.727,107.727,0,0,0,13.776-12.034c5.7-6.191-1.362-7.848-12.176-4.363s-17.682,6.428-17.682,6.428" transform="translate(-81.535 -15.153)" fill="#4dd0e1"/>
            <path id="Trazado_231224" data-name="Trazado 231224" d="M413.162,84.306c3.562,2.009,6.99,4.269,10.363,6.592q1.431.986,2.817,2.039c.026.02,0,.063-.025.046-1.758-1.041-3.472-2.153-5.195-3.256s-3.445-2.226-5.14-3.38c-.957-.652-1.915-1.3-2.859-1.973-.04-.029-.007-.093.038-.068" transform="translate(-82.663 -16.869)" fill="#263238"/>
            <path id="Trazado_231225" data-name="Trazado 231225" d="M435.329,91.062c.058-.039.039-.1-.022-.065-.782.449-1.543.928-2.3,1.416,1.391-1.212,2.737-2.468,4.06-3.76a.065.065,0,0,0-.085-.1c-1.77,1.4-3.539,2.789-5.263,4.243-.849.715-4.271,3.624-4.387,3.65-.042.009-.692-.4-.925-.541-.069-.042-.139.063-.07.1.263.15.932.711,1.1.75a38.008,38.008,0,0,0,3.96-2.98c.31-.255.613-.516.917-.775h0c1.035-.61,2.013-1.27,3.01-1.941" transform="translate(-85.305 -17.717)" fill="#263238"/>
            <path id="Trazado_231226" data-name="Trazado 231226" d="M449.191,81.1c-2.518.437-6.786-2.772-9.042-5.562-.154-.192-.234-2.488-.462-5.274-.146-1.69-.348-3.568-.656-5.269l11.135.659a27.517,27.517,0,0,0,.153,6.716,3.869,3.869,0,0,0,.2.685c.01.031.026.069.037.113.456,1.286,2.185,7.316-1.364,7.932" transform="translate(-87.851 -13.006)" fill="#d3766a"/>
            <path id="Trazado_231227" data-name="Trazado 231227" d="M450.168,65.649s-.054.477-.088,1.232c-1.745,3.36-4.991,7.6-10.128,7.111-.068-.952-.15-2.272-.267-3.731-.146-1.688-.345-3.562-.661-5.27Z" transform="translate(-87.849 -13.005)" fill="#263238"/>
            <path id="Trazado_231228" data-name="Trazado 231228" d="M448.139,45.464c1.864,3.56,1.923,14.847-.306,17.786-3.231,4.26-9.544,5.8-13.421,1.68-3.759-3.991-3.576-18.7-.991-21.478,3.807-4.087,11.965-3.246,14.718,2.013" transform="translate(-86.349 -8.178)" fill="#d3766a"/>
            <path id="Trazado_231229" data-name="Trazado 231229" d="M440.037,57.245c.006-.029.06.035.059.066-.017.761.093,1.634.783,1.88.022.007.02.046-.006.042-.841-.11-.974-1.27-.837-1.989" transform="translate(-88.043 -11.453)" fill="#263238"/>
            <path id="Trazado_231230" data-name="Trazado 231230" d="M440.713,56.245c1.221-.1,1.342,2.346.21,2.444-1.114.1-1.234-2.356-.21-2.444" transform="translate(-88.047 -11.254)" fill="#263238"/>
            <path id="Trazado_231231" data-name="Trazado 231231" d="M434.664,57.718c-.008-.029-.057.04-.054.071.078.757.039,1.636-.629,1.937-.021.01-.016.047.01.042.829-.177.868-1.345.673-2.049" transform="translate(-86.838 -11.548)" fill="#263238"/>
            <path id="Trazado_231232" data-name="Trazado 231232" d="M433.7,56.79c-1.226-.006-1.148,2.447-.012,2.452,1.118.006,1.04-2.448.012-2.452" transform="translate(-86.605 -11.364)" fill="#263238"/>
            <path id="Trazado_231233" data-name="Trazado 231233" d="M441.533,54.365a9.44,9.44,0,0,1-.966-.288,1.629,1.629,0,0,1-.929-.481.52.52,0,0,1,.053-.632,1.286,1.286,0,0,1,1.289-.2,1.893,1.893,0,0,1,1.129.763.554.554,0,0,1-.575.833" transform="translate(-87.955 -10.543)" fill="#263238"/>
            <path id="Trazado_231234" data-name="Trazado 231234" d="M432.457,54.9a9.563,9.563,0,0,0,.955-.322,1.628,1.628,0,0,0,.911-.514.519.519,0,0,0-.074-.63,1.287,1.287,0,0,0-1.3-.15,1.888,1.888,0,0,0-1.1.8.554.554,0,0,0,.6.813" transform="translate(-86.397 -10.643)" fill="#263238"/>
            <path id="Trazado_231235" data-name="Trazado 231235" d="M441.465,66.048c-.173.186-.342.441-.617.478a2,2,0,0,1-.826-.151.027.027,0,0,0-.031.041,1.025,1.025,0,0,0,.984.365.81.81,0,0,0,.564-.7c.01-.044-.049-.058-.074-.03" transform="translate(-88.042 -13.213)" fill="#263238"/>
            <path id="Trazado_231236" data-name="Trazado 231236" d="M439.595,61.238a2.588,2.588,0,0,1-1.669,1.235,3.243,3.243,0,0,1-.928.089.929.929,0,0,1-.178-.012c-.056,0-.106-.008-.168-.018a.189.189,0,0,1-.161-.162v-.006a.318.318,0,0,1,0-.078v-.006l0-.067c-.045-.583-.032-1.475-.032-1.475-.208.117-1.273.661-1.271.354a38.92,38.92,0,0,1,.618-7.874.07.07,0,0,1,.139.013c.071,2.438-.287,4.872-.255,7.323a4.507,4.507,0,0,1,1.2-.43c.084.019-.056,1.723-.015,1.984a.118.118,0,0,0,.006.027,3.585,3.585,0,0,0,2.636-.962c.054-.046.117,0,.074.065" transform="translate(-87.082 -10.638)" fill="#263238"/>
            <path id="Trazado_231237" data-name="Trazado 231237" d="M437.863,64.263a3.079,3.079,0,0,0,1.275.892,1.381,1.381,0,0,0,.841.01c.6-.189.586-.746.452-1.217a3.311,3.311,0,0,0-.308-.716,3.976,3.976,0,0,1-2.26,1.03" transform="translate(-87.617 -12.653)" fill="#263238"/>
            <path id="Trazado_231238" data-name="Trazado 231238" d="M439.457,65.334a1.387,1.387,0,0,0,.841.011c.6-.19.586-.746.452-1.217a1.428,1.428,0,0,0-1.293,1.206" transform="translate(-87.936 -12.832)" fill="#ff9cbd"/>
            <path id="Trazado_231239" data-name="Trazado 231239" d="M430.065,47.906c4.364,2.273,9.368-2.575,9.368-2.575a4.414,4.414,0,0,0,4.783,2.233s1.621,6.724,3.416,6.493c2.738-.351,2.454-9.753,1.369-11.475a4.922,4.922,0,0,0-3.467-1.909,4.509,4.509,0,0,0-2.193-2.484c-2.045-1.2-8.267,1.509-8.267,1.509a6.05,6.05,0,0,0-1.925-2.032,1.7,1.7,0,0,0-2.411.521,4.078,4.078,0,0,1,.862,1.6c.565,1.957-1.065,2.153-1.271.341a2.841,2.841,0,0,1,.41-1.942c-.949-1.085-2.309-1.312-3.031-.581-1.308,1.327-1.272,8.414,2.358,10.3" transform="translate(-85.428 -7.44)" fill="#263238"/>
            <path id="Trazado_231240" data-name="Trazado 231240" d="M450.935,57.683s1.883-3.956,3.638-3.342.753,6.058-1.017,7.077a1.944,1.944,0,0,1-2.743-.6Z" transform="translate(-90.208 -10.861)" fill="#d3766a"/>
            <path id="Trazado_231241" data-name="Trazado 231241" d="M454.494,56.3c.03-.008.043.034.018.049a4.917,4.917,0,0,0-2,3.454,1.074,1.074,0,0,1,1.536-.555c.038.019.014.078-.024.077a1.194,1.194,0,0,0-1.229.63,5.765,5.765,0,0,0-.446,1.154c-.042.129-.266.1-.244-.042l.006-.032c-.316-1.681.6-4.261,2.382-4.734" transform="translate(-90.456 -11.265)" fill="#263238"/>
          </g>
        </g>
        <g id="Grupo_115670" data-name="Grupo 115670">
          <g id="Grupo_115669" data-name="Grupo 115669" clip-path="url(#clip-path)">
            <path id="Trazado_231242" data-name="Trazado 231242" d="M496.887,22.847A16.51,16.51,0,0,1,469.3,33.293L461.033,34.5l4.134-7.142a16.516,16.516,0,1,1,31.72-4.515" transform="translate(-92.253 -0.923)" fill="#fff"/>
            <path id="Trazado_231243" data-name="Trazado 231243" d="M496.748,22.811a16.625,16.625,0,0,1-3.333,8.372,18.43,18.43,0,0,1-1.5,1.723,18.676,18.676,0,0,1-1.743,1.476,16.268,16.268,0,0,1-3.983,2.217,16.477,16.477,0,0,1-4.447,1.061,16.271,16.271,0,0,1-2.294.043,14.426,14.426,0,0,1-2.285-.238A16.665,16.665,0,0,1,469,33.431l.2.06-8.254,1.267-.6.092.3-.528,4.109-7.156-.019.282a16.7,16.7,0,0,1,1.017-14.719,16.89,16.89,0,0,1,5.172-5.508,16.8,16.8,0,0,1,14.516-1.954,16.865,16.865,0,0,1,6.369,3.905,16.612,16.612,0,0,1,4.943,13.638m0,0A16.336,16.336,0,0,0,478.02,4.939a16.224,16.224,0,0,0-6.82,2.694,17.018,17.018,0,0,0-4.942,5.39,16.3,16.3,0,0,0-2.1,6.988,16.506,16.506,0,0,0,1.162,7.194l.06.148-.079.134-4.158,7.129-.3-.436,8.27-1.158.114-.016.082.076a16.259,16.259,0,0,0,7.908,4.073,14.063,14.063,0,0,0,2.241.273,16.019,16.019,0,0,0,2.26,0,16.309,16.309,0,0,0,4.411-.971,15.38,15.38,0,0,0,3.983-2.147,18.348,18.348,0,0,0,1.745-1.457,18.423,18.423,0,0,0,1.5-1.705,16.6,16.6,0,0,0,3.382-8.333" transform="translate(-92.114 -0.886)" fill="#263238"/>
            <path id="Trazado_231244" data-name="Trazado 231244" d="M481.141,32.35l-7.054-7.14,2.37-2.341,4.12,4.171,8.56-13.42,2.809,1.791Z" transform="translate(-94.866 -2.725)" fill="#4dd0e1"/>
          </g>
        </g>
      </g>
    </g>
  </g>
</svg>
