<svg xmlns="http://www.w3.org/2000/svg" xmlns:xlink="http://www.w3.org/1999/xlink" width="455.994" height="277.398" viewBox="0 0 455.994 277.398">
  <defs>
    <clipPath id="clip-path">
      <rect id="Rectángulo_50110" data-name="Rectángulo 50110" width="455.994" height="277.399" fill="none"/>
    </clipPath>
  </defs>
  <g id="Grupo_117830" data-name="Grupo 117830" transform="translate(-823.003 -13713)">
    <g id="Grupo_114761" data-name="Grupo 114761" transform="translate(823.003 13713)">
      <g id="Grupo_114760" data-name="Grupo 114760" clip-path="url(#clip-path)">
        <path id="Trazado_228368" data-name="Trazado 228368" d="M21.741,8.443H19.977A3.34,3.34,0,0,1,16.638,5.1V3.34a3.34,3.34,0,0,0-6.679,0V5.1a3.34,3.34,0,0,1-3.34,3.34H4.856a3.34,3.34,0,1,0,0,6.679H6.619a3.34,3.34,0,0,1,3.34,3.34v1.762a3.34,3.34,0,0,0,6.679,0V18.462a3.34,3.34,0,0,1,3.339-3.34h1.764a3.34,3.34,0,0,0,0-6.679" transform="translate(-0.221)" fill="#fff"/>
        <path id="Trazado_228369" data-name="Trazado 228369" d="M8.849,41.969H8.077a1.461,1.461,0,0,1-1.461-1.461v-.772a1.461,1.461,0,0,0-2.922,0v.772a1.461,1.461,0,0,1-1.461,1.461H1.461a1.461,1.461,0,1,0,0,2.922h.772a1.461,1.461,0,0,1,1.461,1.462v.77a1.461,1.461,0,0,0,2.922,0v-.77a1.461,1.461,0,0,1,1.461-1.462h.772a1.461,1.461,0,1,0,0-2.922" transform="translate(0 -5.591)" fill="#fff"/>
        <path id="Trazado_228370" data-name="Trazado 228370" d="M191.915,114.4H190.7a2.3,2.3,0,0,1-2.3-2.3v-1.215a2.3,2.3,0,0,0-4.6,0V112.1a2.3,2.3,0,0,1-2.3,2.3h-1.214a2.3,2.3,0,1,0,0,4.6H181.5a2.3,2.3,0,0,1,2.3,2.3v1.213a2.3,2.3,0,1,0,4.6,0V121.3a2.3,2.3,0,0,1,2.3-2.3h1.214a2.3,2.3,0,1,0,0-4.6" transform="translate(-25.998 -15.861)" fill="#fff"/>
        <path id="Trazado_228371" data-name="Trazado 228371" d="M183.035,137.5H182.5a1.007,1.007,0,0,1-1.007-1.007v-.531a1.006,1.006,0,1,0-2.013,0v.531a1.007,1.007,0,0,1-1.007,1.007h-.531a1.006,1.006,0,1,0,0,2.013h.531a1.007,1.007,0,0,1,1.007,1.007v.531a1.006,1.006,0,0,0,2.013,0v-.531a1.007,1.007,0,0,1,1.007-1.007h.531a1.006,1.006,0,1,0,0-2.013" transform="translate(-25.845 -19.712)" fill="#fff"/>
        <path id="Trazado_228372" data-name="Trazado 228372" d="M105.59,241h-1.214a2.3,2.3,0,0,1-2.3-2.3v-1.214a2.3,2.3,0,1,0-4.6,0V238.7a2.3,2.3,0,0,1-2.3,2.3H93.959a2.3,2.3,0,1,0,0,4.6h1.214a2.3,2.3,0,0,1,2.3,2.3v1.213a2.3,2.3,0,1,0,4.6,0v-1.213a2.3,2.3,0,0,1,2.3-2.3h1.214a2.3,2.3,0,1,0,0-4.6" transform="translate(-13.389 -34.354)" fill="#fff"/>
        <path id="Trazado_228373" data-name="Trazado 228373" d="M96.71,264.1h-.531a1.007,1.007,0,0,1-1.007-1.007v-.531a1.006,1.006,0,1,0-2.013,0v.531a1.007,1.007,0,0,1-1.007,1.007h-.531a1.006,1.006,0,1,0,0,2.013h.531a1.007,1.007,0,0,1,1.007,1.007v.531a1.006,1.006,0,0,0,2.013,0v-.531a1.007,1.007,0,0,1,1.007-1.007h.531a1.006,1.006,0,1,0,0-2.013" transform="translate(-13.236 -38.205)" fill="#fff"/>
        <path id="Trazado_228374" data-name="Trazado 228374" d="M279.648,259.671h-1.763a3.34,3.34,0,0,1-3.34-3.34v-1.763a3.34,3.34,0,1,0-6.679,0v1.763a3.34,3.34,0,0,1-3.34,3.34h-1.763a3.34,3.34,0,0,0,0,6.679h1.763a3.34,3.34,0,0,1,3.34,3.34v1.762a3.34,3.34,0,0,0,6.679,0V269.69a3.34,3.34,0,0,1,3.34-3.34h1.763a3.34,3.34,0,1,0,0-6.679" transform="translate(-37.894 -36.697)" fill="#fff"/>
        <path id="Trazado_228375" data-name="Trazado 228375" d="M266.756,293.2h-.772a1.461,1.461,0,0,1-1.461-1.461v-.772a1.461,1.461,0,0,0-2.922,0v.772a1.461,1.461,0,0,1-1.461,1.461h-.772a1.461,1.461,0,1,0,0,2.922h.772a1.461,1.461,0,0,1,1.461,1.462v.77a1.461,1.461,0,1,0,2.922,0v-.77a1.461,1.461,0,0,1,1.461-1.462h.772a1.461,1.461,0,0,0,0-2.922" transform="translate(-37.672 -42.287)" fill="#fff"/>
        <path id="Trazado_228376" data-name="Trazado 228376" d="M97.508,119.5H96.294a2.3,2.3,0,0,1-2.3-2.3v-1.214a2.3,2.3,0,0,0-4.6,0V117.2a2.3,2.3,0,0,1-2.3,2.3H85.877a2.3,2.3,0,0,0,0,4.6h1.214a2.3,2.3,0,0,1,2.3,2.3v1.213a2.3,2.3,0,1,0,4.6,0V126.4a2.3,2.3,0,0,1,2.3-2.3h1.214a2.3,2.3,0,0,0,0-4.6" transform="translate(-12.208 -16.606)" fill="#fff"/>
        <path id="Trazado_228377" data-name="Trazado 228377" d="M88.628,142.6H88.1a1.007,1.007,0,0,1-1.007-1.007v-.531a1.006,1.006,0,1,0-2.013,0v.531a1.007,1.007,0,0,1-1.007,1.007H83.54a1.006,1.006,0,1,0,0,2.013h.531a1.007,1.007,0,0,1,1.007,1.007v.531a1.006,1.006,0,0,0,2.013,0v-.531a1.007,1.007,0,0,1,1.007-1.007h.531a1.006,1.006,0,1,0,0-2.013" transform="translate(-12.056 -20.457)" fill="#fff"/>
        <path id="Trazado_228378" data-name="Trazado 228378" d="M22.755,130.133H21.541a2.3,2.3,0,0,1-2.3-2.3v-1.214a2.3,2.3,0,1,0-4.6,0v1.214a2.3,2.3,0,0,1-2.3,2.3H11.124a2.3,2.3,0,0,0,0,4.6h1.214a2.3,2.3,0,0,1,2.3,2.3v1.213a2.3,2.3,0,1,0,4.6,0v-1.213a2.3,2.3,0,0,1,2.3-2.3h1.214a2.3,2.3,0,1,0,0-4.6" transform="translate(-1.289 -18.159)" fill="#fff"/>
        <path id="Trazado_228379" data-name="Trazado 228379" d="M13.875,153.227h-.531a1.007,1.007,0,0,1-1.007-1.007v-.531a1.006,1.006,0,1,0-2.013,0v.531a1.007,1.007,0,0,1-1.007,1.007H8.787a1.006,1.006,0,1,0,0,2.013h.531a1.007,1.007,0,0,1,1.007,1.007v.531a1.006,1.006,0,0,0,2.013,0v-.531a1.007,1.007,0,0,1,1.007-1.007h.531a1.006,1.006,0,1,0,0-2.013" transform="translate(-1.136 -22.01)" fill="#fff"/>
        <path id="Trazado_228380" data-name="Trazado 228380" d="M151.467,281.784h-1.214a2.3,2.3,0,0,1-2.3-2.3v-1.214a2.3,2.3,0,0,0-4.6,0v1.214a2.3,2.3,0,0,1-2.3,2.3h-1.214a2.3,2.3,0,1,0,0,4.6h1.214a2.3,2.3,0,0,1,2.3,2.3V289.9a2.3,2.3,0,1,0,4.6,0v-1.213a2.3,2.3,0,0,1,2.3-2.3h1.214a2.3,2.3,0,1,0,0-4.6" transform="translate(-20.09 -40.311)" fill="#fff"/>
        <path id="Trazado_228381" data-name="Trazado 228381" d="M142.587,304.878h-.531a1.007,1.007,0,0,1-1.007-1.007v-.531a1.006,1.006,0,1,0-2.013,0v.531a1.007,1.007,0,0,1-1.007,1.007H137.5a1.006,1.006,0,1,0,0,2.013h.531a1.007,1.007,0,0,1,1.007,1.007v.531a1.006,1.006,0,0,0,2.013,0V307.9a1.007,1.007,0,0,1,1.007-1.007h.531a1.006,1.006,0,1,0,0-2.013" transform="translate(-19.937 -44.161)" fill="#fff"/>
        <path id="Trazado_228382" data-name="Trazado 228382" d="M300.97,284.188h-1.214a2.3,2.3,0,0,1-2.3-2.3v-1.214a2.3,2.3,0,0,0-4.6,0v1.214a2.3,2.3,0,0,1-2.3,2.3h-1.214a2.3,2.3,0,0,0,0,4.6h1.214a2.3,2.3,0,0,1,2.3,2.3V292.3a2.3,2.3,0,1,0,4.6,0V291.09a2.3,2.3,0,0,1,2.3-2.3h1.214a2.3,2.3,0,1,0,0-4.6" transform="translate(-41.928 -40.662)" fill="#fff"/>
        <path id="Trazado_228383" data-name="Trazado 228383" d="M292.09,307.281h-.531a1.007,1.007,0,0,1-1.007-1.007v-.531a1.006,1.006,0,1,0-2.013,0v.531a1.007,1.007,0,0,1-1.007,1.007H287a1.006,1.006,0,1,0,0,2.013h.531a1.007,1.007,0,0,1,1.007,1.007v.531a1.006,1.006,0,0,0,2.013,0V310.3a1.007,1.007,0,0,1,1.007-1.007h.531a1.006,1.006,0,1,0,0-2.013" transform="translate(-41.775 -44.513)" fill="#fff"/>
        <path id="Trazado_228384" data-name="Trazado 228384" d="M86.732,99.4h-71.1a14.872,14.872,0,1,1,0-29.745h71.1a14.872,14.872,0,0,1,0,29.745" transform="translate(-0.111 -10.175)" fill="#dc3944"/>
        <path id="Trazado_228385" data-name="Trazado 228385" d="M32.126,89.211c-.036-.464-.225-.582-1.2-1l-.309-.131a2.571,2.571,0,0,1-1.83-2.5,2.422,2.422,0,0,1,2.508-2.532,3.7,3.7,0,0,1,2.222.773.475.475,0,0,1,.143.57l-.344.7a.44.44,0,0,1-.4.261.551.551,0,0,1-.274-.071l-.011-.012a2.458,2.458,0,0,0-1.319-.488.714.714,0,0,0-.8.725c0,.381.178.654,1.117,1.07.048.012.19.072.725.3a2.378,2.378,0,0,1,1.5,2.247,2.547,2.547,0,0,1-2.686,2.591,3.864,3.864,0,0,1-2.258-.773.472.472,0,0,1-.143-.57l.368-.7a.436.436,0,0,1,.393-.261.461.461,0,0,1,.273.083h.012a2.514,2.514,0,0,0,1.343.488c.594,0,.974-.3.974-.773" transform="translate(-4.195 -12.132)" fill="#fff"/>
        <path id="Trazado_228386" data-name="Trazado 228386" d="M38.508,84.978v1.4h1.819a.455.455,0,0,1,.452.464v.8a.455.455,0,0,1-.452.464H38.508v1.711h2.52a.465.465,0,0,1,.452.476v.82a.458.458,0,0,1-.452.476H37.45a.693.693,0,0,1-.677-.713V83.92a.7.7,0,0,1,.2-.5.614.614,0,0,1,.475-.214h3.578a.458.458,0,0,1,.452.476v.82a.465.465,0,0,1-.452.476Z" transform="translate(-5.371 -12.154)" fill="#fff"/>
        <path id="Trazado_228387" data-name="Trazado 228387" d="M46.135,84.978v1.4h1.819a.454.454,0,0,1,.451.464v.8a.454.454,0,0,1-.451.464H46.135v1.711h2.52a.465.465,0,0,1,.452.476v.82a.458.458,0,0,1-.452.476H45.077a.693.693,0,0,1-.677-.713V83.92a.7.7,0,0,1,.2-.5.614.614,0,0,1,.475-.214h3.578a.458.458,0,0,1,.452.476v.82a.465.465,0,0,1-.452.476Z" transform="translate(-6.485 -12.154)" fill="#fff"/>
        <path id="Trazado_228388" data-name="Trazado 228388" d="M57.65,86.948l-.44,4.171a.532.532,0,0,1-.512.464h-.784a.439.439,0,0,1-.345-.143.554.554,0,0,1-.119-.392l.88-7.322a.565.565,0,0,1,.57-.547h.963a.557.557,0,0,1,.535.416l1.581,5.087,1.569-5.1a.575.575,0,0,1,.547-.4h.868a.568.568,0,0,1,.582.547l.88,7.322a.55.55,0,0,1-.12.392.436.436,0,0,1-.344.143H63.14a.516.516,0,0,1-.511-.475l-.452-4.172-1.319,4.3a.556.556,0,0,1-.535.416h-.809a.56.56,0,0,1-.535-.4Z" transform="translate(-8.099 -12.15)" fill="#fff"/>
        <path id="Trazado_228389" data-name="Trazado 228389" d="M74.269,88.558a3.011,3.011,0,1,1-6.014,0V86.2a3.01,3.01,0,1,1,6.014,0ZM72.534,86.2a1.276,1.276,0,1,0-2.544,0v2.353a1.371,1.371,0,0,0,1.272,1.39,1.354,1.354,0,0,0,1.271-1.39Z" transform="translate(-9.97 -12.132)" fill="#fff"/>
        <path id="Trazado_228390" data-name="Trazado 228390" d="M81.027,88.247l1.593,2.6a.544.544,0,0,1,.071.261.46.46,0,0,1-.464.476h-.856a.531.531,0,0,1-.464-.262l-1.675-2.841h-.167v2.628a.458.458,0,0,1-.452.476h-.832a.458.458,0,0,1-.452-.476V83.92a.7.7,0,0,1,.2-.5.611.611,0,0,1,.475-.213h1.961a2.594,2.594,0,0,1,2.567,2.639,2.622,2.622,0,0,1-1.509,2.4m-1.961-3.293v1.784h.844a.892.892,0,0,0,0-1.784Z" transform="translate(-11.296 -12.154)" fill="#fff"/>
        <path id="Trazado_228391" data-name="Trazado 228391" d="M87.151,84.978v1.4H88.97a.454.454,0,0,1,.451.464v.8a.454.454,0,0,1-.451.464H87.151v1.711h2.52a.465.465,0,0,1,.452.476v.82a.458.458,0,0,1-.452.476H86.093a.693.693,0,0,1-.677-.713V83.92a.7.7,0,0,1,.2-.5.614.614,0,0,1,.475-.214h3.578a.458.458,0,0,1,.452.476v.82a.465.465,0,0,1-.452.476Z" transform="translate(-12.477 -12.154)" fill="#fff"/>
        <path id="Trazado_228392" data-name="Trazado 228392" d="M363.056,48.808a21.995,21.995,0,1,1-21.995-21.995,21.995,21.995,0,0,1,21.995,21.995" transform="translate(-46.606 -3.917)" fill="#223b50"/>
        <path id="Trazado_228393" data-name="Trazado 228393" d="M389.988,159.378a22,22,0,1,1-21.995-21.995,21.995,21.995,0,0,1,21.995,21.995" transform="translate(-50.54 -20.067)" fill="#0090c5"/>
        <path id="Trazado_228394" data-name="Trazado 228394" d="M357.571,273.474a21.995,21.995,0,1,1-21.995-21.995,21.995,21.995,0,0,1,21.995,21.995" transform="translate(-45.805 -36.733)" fill="#db3944"/>
        <path id="Trazado_228395" data-name="Trazado 228395" d="M263.38,176.871l-148.639,4.923,85.9,121.314.056-.04a148.51,148.51,0,0,0,62.683-126.2" transform="translate(-16.76 -25.835)" fill="#db3944"/>
        <path id="Trazado_228396" data-name="Trazado 228396" d="M252.881,164.86,107.9,183.468,191.862,290.28l.055-.043c41.227-32.337,62.534-79.876,60.963-125.378" transform="translate(-15.76 -24.081)" fill="#f7f7f6"/>
        <path id="Trazado_228397" data-name="Trazado 228397" d="M191.687,290.712,107.113,183.125l146-18.739.014.392A141.511,141.511,0,0,1,250.05,199.1a151.484,151.484,0,0,1-11.394,33.466,159.191,159.191,0,0,1-19.435,30.988,166.127,166.127,0,0,1-27.2,26.891ZM108.452,183.673,191.808,289.71c39.469-31.066,62.1-77.564,60.615-124.515Z" transform="translate(-15.646 -24.012)" fill="#898989"/>
        <path id="Trazado_228398" data-name="Trazado 228398" d="M220.29,68.169,132.368,188.116l148.464,7.357c0-.023,0-.046,0-.069A148.51,148.51,0,0,0,220.29,68.169" transform="translate(-19.335 -9.957)" fill="#0090c5"/>
        <path id="Trazado_228399" data-name="Trazado 228399" d="M209.863,85.841,132.62,190.328,263.142,196.8c0-.02,0-.04,0-.061a129.137,129.137,0,0,0-53.282-110.9" transform="translate(-19.372 -12.539)" fill="#f7f7f6"/>
        <path id="Trazado_228400" data-name="Trazado 228400" d="M263.364,197.092l-.357-.017L131.82,190.567l.4-.536L209.67,85.259l.286.208a130.966,130.966,0,0,1,40.406,48,128.425,128.425,0,0,1,13.022,63.206Zm-130.178-7.172,129.5,6.424a128.679,128.679,0,0,0-52.863-110.09Z" transform="translate(-19.255 -12.454)" fill="#898989"/>
        <path id="Trazado_228401" data-name="Trazado 228401" d="M122.794,21.762l18.367,147.581L254.2,72.809l-.045-.053A148.51,148.51,0,0,0,122.794,21.762" transform="translate(-17.936 -3.015)" fill="#223b50"/>
        <path id="Trazado_228402" data-name="Trazado 228402" d="M124.652,36.711l16.78,134.83L244.7,83.347l-.04-.049A135.681,135.681,0,0,0,124.652,36.711" transform="translate(-18.208 -5.213)" fill="#f7f7f6"/>
        <path id="Trazado_228403" data-name="Trazado 228403" d="M141.092,172.183,124.186,36.34l.354-.044a136.82,136.82,0,0,1,65.039,7.787,135.543,135.543,0,0,1,55.283,38.922l.272.32-.272.232ZM124.983,36.962l16.654,133.817L244.128,83.247A135.229,135.229,0,0,0,124.983,36.962" transform="translate(-18.14 -5.152)" fill="#898989"/>
        <path id="Trazado_228404" data-name="Trazado 228404" d="M172.814,181.992a41.286,41.286,0,1,1-55.126-19.239,41.287,41.287,0,0,1,55.126,19.239" transform="translate(-13.78 -23.172)" fill="#f7f7f6"/>
        <path id="Trazado_228405" data-name="Trazado 228405" d="M135.573,241.527a41.554,41.554,0,1,1,2.074-.052q-1.039.051-2.074.052m-.068-82.579a40.926,40.926,0,1,0,36.926,23.137,40.683,40.683,0,0,0-36.926-23.137" transform="translate(-13.718 -23.111)" fill="#898989"/>
        <path id="Trazado_228406" data-name="Trazado 228406" d="M386.221,54.2c0,2.874-1.877,5.553-4.947,5.553s-4.966-2.659-4.966-5.553v-7.7a.731.731,0,0,1,.723-.763h1.388a.747.747,0,0,1,.743.763v7.8c0,1.524.821,2.5,2.112,2.5,1.427,0,2.092-1.212,2.092-2.5v-7.8a.747.747,0,0,1,.743-.763H385.5a.731.731,0,0,1,.723.763Z" transform="translate(-54.967 -6.68)" fill="#182b30"/>
        <path id="Trazado_228407" data-name="Trazado 228407" d="M396.918,55.583c-.079-.763-.371-.958-1.975-1.642l-.508-.215c-1.857-.841-3.011-1.955-3.011-4.107a3.973,3.973,0,0,1,4.125-4.165,6.1,6.1,0,0,1,3.657,1.271.776.776,0,0,1,.215.938l-.567,1.154a.7.7,0,0,1-.646.43.911.911,0,0,1-.449-.117l-.02-.02a4.043,4.043,0,0,0-2.171-.8,1.164,1.164,0,0,0-1.31,1.193c0,.626.293,1.075,1.838,1.76.079.02.313.117,1.193.488a3.912,3.912,0,0,1,2.464,3.7,4.191,4.191,0,0,1-4.419,4.262,6.462,6.462,0,0,1-3.734-1.271.771.771,0,0,1-.215-.938l.606-1.154a.7.7,0,0,1,.646-.43.757.757,0,0,1,.449.137h.02a4.089,4.089,0,0,0,2.209.8c.978,0,1.584-.488,1.6-1.271" transform="translate(-57.158 -6.64)" fill="#182b30"/>
        <path id="Trazado_228408" data-name="Trazado 228408" d="M407.441,48.621v2.307h2.991a.747.747,0,0,1,.743.763V53a.747.747,0,0,1-.743.763h-2.991v2.815h4.145a.764.764,0,0,1,.743.782V58.71a.752.752,0,0,1-.743.782H405.7a1.14,1.14,0,0,1-1.114-1.173V46.88a1.153,1.153,0,0,1,.332-.821,1.015,1.015,0,0,1,.782-.352h5.885a.752.752,0,0,1,.743.782v1.349a.764.764,0,0,1-.743.782Z" transform="translate(-59.097 -6.676)" fill="#182b30"/>
        <path id="Trazado_228409" data-name="Trazado 228409" d="M423.032,54l2.62,4.282a.889.889,0,0,1,.118.43.757.757,0,0,1-.763.782H423.6a.869.869,0,0,1-.763-.43l-2.757-4.674h-.274V58.71a.752.752,0,0,1-.743.782h-1.369a.752.752,0,0,1-.743-.782V46.88a1.153,1.153,0,0,1,.332-.821,1.013,1.013,0,0,1,.782-.352h3.226a4.269,4.269,0,0,1,4.224,4.341A4.317,4.317,0,0,1,423.032,54m-3.226-5.416v2.933h1.388a1.467,1.467,0,0,0,0-2.933Z" transform="translate(-60.904 -6.676)" fill="#182b30"/>
        <path id="Trazado_228410" data-name="Trazado 228410" d="M411.867,170.779a1.116,1.116,0,0,1,.02.274.777.777,0,0,1-.782.8h-1.232a.919.919,0,0,1-.9-.7l-.684-2.326h-3.5l-.7,2.326a.913.913,0,0,1-.88.7h-1.212a.777.777,0,0,1-.782-.8,1.116,1.116,0,0,1,.02-.274l3.754-12.122a.921.921,0,0,1,.9-.684h1.33a.922.922,0,0,1,.9.684Zm-5.338-7.938-.919,3.148h1.838Z" transform="translate(-58.605 -23.075)" fill="#182b30"/>
        <path id="Trazado_228411" data-name="Trazado 228411" d="M425,169.156a.889.889,0,0,1,.079,1.154l-.02.02a4.876,4.876,0,0,1-3.813,1.76,5.067,5.067,0,0,1-4.849-5.2v-3.872a5.05,5.05,0,0,1,4.849-5.182,4.708,4.708,0,0,1,3.793,1.74.837.837,0,0,1,.2.567.961.961,0,0,1-.215.606l-.782.861a.751.751,0,0,1-.547.254.726.726,0,0,1-.587-.293,2.3,2.3,0,0,0-1.838-.821,2.2,2.2,0,0,0-2.014,2.268v3.872a2.211,2.211,0,0,0,2.014,2.288,2.3,2.3,0,0,0,1.838-.821.722.722,0,0,1,.567-.293.762.762,0,0,1,.567.254Z" transform="translate(-60.822 -23.055)" fill="#182b30"/>
        <path id="Trazado_228412" data-name="Trazado 228412" d="M437.955,169.156a.889.889,0,0,1,.079,1.154l-.02.02a4.876,4.876,0,0,1-3.813,1.76,5.067,5.067,0,0,1-4.849-5.2v-3.872a5.05,5.05,0,0,1,4.849-5.182,4.709,4.709,0,0,1,3.793,1.74.837.837,0,0,1,.2.567.961.961,0,0,1-.215.606l-.782.861a.751.751,0,0,1-.547.254.726.726,0,0,1-.587-.293,2.3,2.3,0,0,0-1.838-.821,2.2,2.2,0,0,0-2.014,2.268v3.872a2.21,2.21,0,0,0,2.014,2.288,2.3,2.3,0,0,0,1.838-.821.722.722,0,0,1,.567-.293.762.762,0,0,1,.567.254Z" transform="translate(-62.715 -23.055)" fill="#182b30"/>
        <path id="Trazado_228413" data-name="Trazado 228413" d="M445.465,161v2.307h2.991a.747.747,0,0,1,.743.763v1.31a.747.747,0,0,1-.743.763h-2.991v2.815h4.145a.764.764,0,0,1,.743.782v1.349a.752.752,0,0,1-.743.782h-5.885a1.14,1.14,0,0,1-1.114-1.173V159.26a1.153,1.153,0,0,1,.332-.821,1.015,1.015,0,0,1,.782-.352h5.885a.752.752,0,0,1,.743.782v1.349a.764.764,0,0,1-.743.782Z" transform="translate(-64.652 -23.092)" fill="#182b30"/>
        <path id="Trazado_228414" data-name="Trazado 228414" d="M459.205,167.257h-1.33v3.832a.753.753,0,0,1-.744.782h-1.368a.752.752,0,0,1-.743-.782V159.26a1.153,1.153,0,0,1,.332-.821,1.011,1.011,0,0,1,.782-.352h3.07a4.589,4.589,0,0,1,0,9.17m-.079-6.3h-1.251v3.422h1.251a1.679,1.679,0,0,0,1.622-1.721,1.661,1.661,0,0,0-1.622-1.7" transform="translate(-66.464 -23.092)" fill="#182b30"/>
        <path id="Trazado_228415" data-name="Trazado 228415" d="M476.657,160.218a.764.764,0,0,1-.743.782h-2.523V171.09a.752.752,0,0,1-.743.782h-1.369a.752.752,0,0,1-.743-.782V161h-2.523a.765.765,0,0,1-.743-.782v-1.349a.753.753,0,0,1,.743-.782h7.9a.752.752,0,0,1,.743.782Z" transform="translate(-68.254 -23.092)" fill="#182b30"/>
        <path id="Trazado_228416" data-name="Trazado 228416" d="M491,170.779a1.017,1.017,0,0,1,.039.274.789.789,0,0,1-.782.8h-1.251a.913.913,0,0,1-.88-.7l-.7-2.326h-3.5l-.684,2.326a.952.952,0,0,1-.9.7h-1.213a.789.789,0,0,1-.782-.8,1.016,1.016,0,0,1,.039-.274l3.734-12.122a.939.939,0,0,1,.9-.684h1.349a.916.916,0,0,1,.88.684Zm-5.318-7.938-.919,3.148h1.818Z" transform="translate(-70.164 -23.075)" fill="#182b30"/>
        <path id="Trazado_228417" data-name="Trazado 228417" d="M498.7,163.8v7.293a.741.741,0,0,1-.743.782h-1.232a.753.753,0,0,1-.743-.782V159.006a.9.9,0,0,1,.88-.919h1.407a.9.9,0,0,1,.782.45l4.282,7.644v-7.312a.752.752,0,0,1,.743-.782h1.251a.736.736,0,0,1,.723.782v12.083a.9.9,0,0,1-.88.92h-1.427a.926.926,0,0,1-.782-.45Z" transform="translate(-72.448 -23.092)" fill="#182b30"/>
        <path id="Trazado_228418" data-name="Trazado 228418" d="M520.272,169.156a.889.889,0,0,1,.079,1.154l-.02.02a4.876,4.876,0,0,1-3.813,1.76,5.067,5.067,0,0,1-4.849-5.2v-3.872a5.05,5.05,0,0,1,4.849-5.182,4.709,4.709,0,0,1,3.793,1.74.837.837,0,0,1,.2.567.961.961,0,0,1-.215.606l-.782.861a.751.751,0,0,1-.547.254.726.726,0,0,1-.587-.293,2.3,2.3,0,0,0-1.838-.821,2.2,2.2,0,0,0-2.014,2.268v3.872a2.21,2.21,0,0,0,2.014,2.288,2.3,2.3,0,0,0,1.838-.821.722.722,0,0,1,.567-.293.762.762,0,0,1,.567.254Z" transform="translate(-74.739 -23.055)" fill="#182b30"/>
        <path id="Trazado_228419" data-name="Trazado 228419" d="M527.782,161v2.307h2.991a.747.747,0,0,1,.743.763v1.31a.747.747,0,0,1-.743.763h-2.991v2.815h4.145a.764.764,0,0,1,.743.782v1.349a.752.752,0,0,1-.743.782h-5.885a1.14,1.14,0,0,1-1.114-1.173V159.26a1.153,1.153,0,0,1,.332-.821,1.016,1.016,0,0,1,.782-.352h5.885a.752.752,0,0,1,.743.782v1.349a.764.764,0,0,1-.743.782Z" transform="translate(-76.676 -23.092)" fill="#182b30"/>
        <path id="Trazado_228420" data-name="Trazado 228420" d="M378.283,273.936a.764.764,0,0,1-.743.782h-2.523v10.089a.752.752,0,0,1-.743.782h-1.369a.741.741,0,0,1-.743-.782V274.719H369.64a.765.765,0,0,1-.743-.782v-1.349a.752.752,0,0,1,.743-.782h7.9a.752.752,0,0,1,.743.782Z" transform="translate(-53.884 -39.702)" fill="#182b30"/>
        <path id="Trazado_228421" data-name="Trazado 228421" d="M384.46,274.719v2.307h2.991a.747.747,0,0,1,.743.763v1.31a.747.747,0,0,1-.743.763H384.46v2.815H388.6a.764.764,0,0,1,.743.782v1.349a.752.752,0,0,1-.743.782h-5.885a1.14,1.14,0,0,1-1.114-1.173V272.978a1.153,1.153,0,0,1,.332-.821,1.015,1.015,0,0,1,.782-.352H388.6a.752.752,0,0,1,.743.782v1.349a.764.764,0,0,1-.743.782Z" transform="translate(-55.741 -39.702)" fill="#182b30"/>
        <path id="Trazado_228422" data-name="Trazado 228422" d="M398.873,281.681c-.079-.763-.371-.958-1.975-1.642l-.508-.215c-1.857-.841-3.011-1.956-3.011-4.107a3.973,3.973,0,0,1,4.125-4.165,6.1,6.1,0,0,1,3.657,1.271.776.776,0,0,1,.215.938l-.567,1.154a.7.7,0,0,1-.646.43.911.911,0,0,1-.449-.117l-.02-.02a4.043,4.043,0,0,0-2.171-.8,1.164,1.164,0,0,0-1.31,1.193c0,.626.293,1.075,1.838,1.76.079.02.313.117,1.193.488a3.912,3.912,0,0,1,2.464,3.7,4.191,4.191,0,0,1-4.419,4.262,6.462,6.462,0,0,1-3.734-1.271.771.771,0,0,1-.215-.938l.606-1.154a.7.7,0,0,1,.646-.43.757.757,0,0,1,.449.137h.02a4.089,4.089,0,0,0,2.209.8c.978,0,1.584-.488,1.6-1.271" transform="translate(-57.444 -39.665)" fill="#182b30"/>
        <path id="Trazado_228423" data-name="Trazado 228423" d="M414.92,273.936a.764.764,0,0,1-.743.782h-2.523v10.089a.752.752,0,0,1-.743.782h-1.369a.752.752,0,0,1-.743-.782V274.719h-2.523a.765.765,0,0,1-.743-.782v-1.349a.752.752,0,0,1,.743-.782h7.9a.752.752,0,0,1,.743.782Z" transform="translate(-59.236 -39.702)" fill="#182b30"/>
        <path id="Trazado_228424" data-name="Trazado 228424" d="M424.8,271.713a.764.764,0,0,1,.743.782v1.251a.752.752,0,0,1-.743.782H423.71v8.232H424.8a.764.764,0,0,1,.743.782v1.251a.752.752,0,0,1-.743.782h-5.064a.752.752,0,0,1-.743-.782v-1.251a.764.764,0,0,1,.743-.782h1.095v-8.232h-1.095a.752.752,0,0,1-.743-.782V272.5a.764.764,0,0,1,.743-.782Z" transform="translate(-61.203 -39.689)" fill="#182b30"/>
        <path id="Trazado_228425" data-name="Trazado 228425" d="M432.775,277.514v7.293a.741.741,0,0,1-.743.782H430.8a.753.753,0,0,1-.743-.782V272.724a.9.9,0,0,1,.88-.919h1.407a.9.9,0,0,1,.782.45l4.282,7.644v-7.312a.752.752,0,0,1,.743-.782H439.4a.736.736,0,0,1,.723.782V284.67a.9.9,0,0,1-.88.92H437.82a.926.926,0,0,1-.782-.45Z" transform="translate(-62.818 -39.702)" fill="#182b30"/>
        <path id="Trazado_228426" data-name="Trazado 228426" d="M454.109,276.971a1.173,1.173,0,0,1,1.134,1.193v2.112a4.963,4.963,0,1,1-9.913,0v-3.891a5.118,5.118,0,0,1,4.966-5.22,5.034,5.034,0,0,1,3.91,1.739.946.946,0,0,1,.2.567,1,1,0,0,1-.214.606l-.8.88a.72.72,0,0,1-.547.254.756.756,0,0,1-.587-.273,2.467,2.467,0,0,0-1.936-.861,2.293,2.293,0,0,0-2.131,2.307v3.891a2.293,2.293,0,0,0,2.131,2.307,2.189,2.189,0,0,0,2.092-2.23v-.508h-1.955a.752.752,0,0,1-.743-.782v-1.31a.764.764,0,0,1,.743-.782Z" transform="translate(-65.049 -39.609)" fill="#182b30"/>
        <path id="Trazado_228427" data-name="Trazado 228427" d="M252.1,148.634l-6.6-6.6a2.486,2.486,0,0,0-3.516,0l-27.854,27.854-6.439-6.439a2.485,2.485,0,0,0-3.516,0l-6.6,6.6a2.485,2.485,0,0,0,0,3.515l8.109,8.11c.028.031.056.061.086.091l6.6,6.6a2.487,2.487,0,0,0,3.516,0L252.1,152.149a2.484,2.484,0,0,0,0-3.515" transform="translate(-28.754 -20.641)" fill="#0090c5"/>
        <path id="Trazado_228428" data-name="Trazado 228428" d="M214.342,225.347h-6.629a2.268,2.268,0,0,1,0-4.537h6.629a2.268,2.268,0,0,1,0,4.537" transform="translate(-30.009 -32.254)" fill="#db3944"/>
        <path id="Trazado_228429" data-name="Trazado 228429" d="M215.307,225.728H206.59a1.686,1.686,0,0,1-1.683-1.684v-2.088a1.685,1.685,0,0,1,1.683-1.683h8.717a1.686,1.686,0,0,1,1.684,1.683v2.088a1.686,1.686,0,0,1-1.684,1.684m-8.717-4.537a.766.766,0,0,0-.765.765v2.088a.766.766,0,0,0,.765.765h8.717a.766.766,0,0,0,.765-.765v-2.088a.766.766,0,0,0-.765-.765Z" transform="translate(-29.931 -32.175)" fill="#fff"/>
        <rect id="Rectángulo_50105" data-name="Rectángulo 50105" width="33.964" height="48.717" transform="translate(163.448 191.655)" fill="#db3944"/>
        <path id="Trazado_228430" data-name="Trazado 228430" d="M225.752,273.535H190.869V223.9h34.883Zm-33.964-.918h33.046v-47.8H191.788Z" transform="translate(-27.88 -32.705)" fill="#fff"/>
        <rect id="Rectángulo_50106" data-name="Rectángulo 50106" width="5.472" height="7.133" transform="translate(167.117 195.834)" fill="#db3944"/>
        <path id="Trazado_228431" data-name="Trazado 228431" d="M201.556,236.846h-6.39V228.8h6.39Zm-5.472-.919h4.554v-6.214h-4.554Z" transform="translate(-28.508 -33.42)" fill="#fff"/>
        <rect id="Rectángulo_50107" data-name="Rectángulo 50107" width="5.472" height="7.133" transform="translate(167.117 205.693)" fill="#db3944"/>
        <path id="Trazado_228432" data-name="Trazado 228432" d="M201.556,248.392h-6.39v-8.051h6.39Zm-5.472-.918h4.554V241.26h-4.554Z" transform="translate(-28.508 -35.106)" fill="#fff"/>
        <rect id="Rectángulo_50108" data-name="Rectángulo 50108" width="5.472" height="7.133" transform="translate(167.117 216.156)" fill="#db3944"/>
        <path id="Trazado_228433" data-name="Trazado 228433" d="M201.556,260.645h-6.39v-8.051h6.39Zm-5.472-.919h4.554v-6.214h-4.554Z" transform="translate(-28.508 -36.896)" fill="#fff"/>
        <rect id="Rectángulo_50109" data-name="Rectángulo 50109" width="5.472" height="7.133" transform="translate(167.117 226.849)" fill="#db3944"/>
        <path id="Trazado_228434" data-name="Trazado 228434" d="M201.556,273.167h-6.39v-8.051h6.39Zm-5.472-.918h4.554v-6.214h-4.554Z" transform="translate(-28.508 -38.725)" fill="#fff"/>
        <path id="Trazado_228435" data-name="Trazado 228435" d="M215.142,234.742h-8.228a1.468,1.468,0,1,1,0-2.937h8.228a1.468,1.468,0,1,1,0,2.937" transform="translate(-30.009 -33.86)" fill="#db3944"/>
        <path id="Trazado_228436" data-name="Trazado 228436" d="M215.557,235.122h-9.216a1.435,1.435,0,0,1-1.434-1.434V232.7a1.435,1.435,0,0,1,1.434-1.434h9.216a1.435,1.435,0,0,1,1.434,1.434v.987a1.435,1.435,0,0,1-1.434,1.434m-9.216-2.937a.516.516,0,0,0-.516.516v.987a.516.516,0,0,0,.516.516h9.216a.516.516,0,0,0,.516-.516V232.7a.516.516,0,0,0-.516-.516Z" transform="translate(-29.931 -33.781)" fill="#fff"/>
        <path id="Trazado_228437" data-name="Trazado 228437" d="M223.068,246.288H206.913a1.468,1.468,0,0,1,0-2.937h16.156a1.468,1.468,0,1,1,0,2.937" transform="translate(-30.009 -35.546)" fill="#db3944"/>
        <path id="Trazado_228438" data-name="Trazado 228438" d="M223.484,246.668H206.342a1.435,1.435,0,0,1-1.434-1.434v-.987a1.435,1.435,0,0,1,1.434-1.434h17.143a1.436,1.436,0,0,1,1.434,1.434v.987a1.436,1.436,0,0,1-1.435,1.434m-17.142-2.937a.516.516,0,0,0-.516.516v.987a.516.516,0,0,0,.516.516h17.142a.517.517,0,0,0,.517-.516v-.987a.516.516,0,0,0-.516-.516Z" transform="translate(-29.931 -35.467)" fill="#fff"/>
        <path id="Trazado_228439" data-name="Trazado 228439" d="M223.068,271.063H206.913a1.468,1.468,0,0,1,0-2.937h16.156a1.468,1.468,0,1,1,0,2.937" transform="translate(-30.009 -39.165)" fill="#db3944"/>
        <path id="Trazado_228440" data-name="Trazado 228440" d="M223.484,271.443H206.342a1.435,1.435,0,0,1-1.434-1.434v-.987a1.435,1.435,0,0,1,1.434-1.434h17.142a1.435,1.435,0,0,1,1.434,1.434v.987a1.435,1.435,0,0,1-1.434,1.434m-17.142-2.937a.517.517,0,0,0-.517.516v.987a.517.517,0,0,0,.517.516h17.142a.517.517,0,0,0,.517-.516v-.987a.517.517,0,0,0-.517-.516Z" transform="translate(-29.931 -39.086)" fill="#fff"/>
        <path id="Trazado_228441" data-name="Trazado 228441" d="M218.3,258.541H206.913a1.468,1.468,0,1,1,0-2.937H218.3a1.468,1.468,0,1,1,0,2.937" transform="translate(-30.009 -37.336)" fill="#db3944"/>
        <path id="Trazado_228442" data-name="Trazado 228442" d="M218.716,258.921H206.342a1.435,1.435,0,0,1-1.434-1.434V256.5a1.435,1.435,0,0,1,1.434-1.434h12.374a1.435,1.435,0,0,1,1.434,1.434v.987a1.435,1.435,0,0,1-1.434,1.434m-12.374-2.937a.516.516,0,0,0-.516.516v.987a.516.516,0,0,0,.516.516h12.374a.516.516,0,0,0,.516-.516V256.5a.516.516,0,0,0-.516-.516Z" transform="translate(-29.931 -37.257)" fill="#fff"/>
        <path id="Trazado_228443" data-name="Trazado 228443" d="M156.61,104.433l-6.931,1.887-3.734-5.819,4.551-5.019a25.35,25.35,0,0,1-1.446-4.95l-6.609-2.292.2-6.911,6.744-1.612a25.613,25.613,0,0,1,1.857-5.091l-3.991-5.463,4.1-5.565,6.6,2.569q.917-.752,1.918-1.429,1.073-.724,2.192-1.325.045-3.538.089-7.076l6.621-1.99,3.773,6.074a25.577,25.577,0,0,1,4.939.174l4.695-5.724,6.415,2.581-.817,6.865a25.361,25.361,0,0,1,4.085,3.209l6.654-2.107,3.967,5.663L197.9,76.571a25.341,25.341,0,0,1,1.307,4.511l6.6,2.47q-.186,3.452-.37,6.9l-6.481,1.384a25.59,25.59,0,0,1-1.823,5.127l4.186,5.9-4.177,5.509-6.808-2.758q-.917.752-1.918,1.43c-.628.424-1.269.813-1.919,1.174q-.146,3.739-.291,7.479l-6.671,1.815-3.608-6.162a25.635,25.635,0,0,1-5.095-.159l-4.221,5.921-6.574-2.14.384-7.562a25.359,25.359,0,0,1-3.814-2.977" transform="translate(-20.806 -7.938)" fill="#223b50"/>
        <path id="Trazado_228444" data-name="Trazado 228444" d="M179.238,117.953l-3.642-6.222a26.131,26.131,0,0,1-4.627-.145l-4.257,5.972-7.229-2.353.389-7.647a25.927,25.927,0,0,1-3.469-2.708l-7.009,1.909-4.1-6.4,4.594-5.067a25.89,25.89,0,0,1-1.315-4.508l-6.675-2.315.222-7.6,6.816-1.629a26.12,26.12,0,0,1,1.7-4.662L146.6,69.069l4.51-6.12,6.681,2.6c.569-.456,1.154-.888,1.742-1.285.642-.433,1.312-.843,1.993-1.219l.09-7.143,7.28-2.189,3.815,6.141a26.155,26.155,0,0,1,4.5.161l4.748-5.788,7.053,2.837-.825,6.929a25.838,25.838,0,0,1,3.715,2.92l6.716-2.125,4.362,6.226-4.635,5.551a25.9,25.9,0,0,1,1.182,4.084l6.674,2.5-.406,7.591-6.545,1.4a26.088,26.088,0,0,1-1.669,4.692l4.225,5.95-4.593,6.058-6.884-2.789c-.568.456-1.152.887-1.74,1.283-.55.371-1.13.73-1.726,1.068l-.295,7.559Zm-3.136-7.176,3.574,6.1,6.007-1.634.289-7.4.225-.126c.653-.362,1.287-.75,1.885-1.153.638-.43,1.272-.9,1.884-1.4l.211-.173,6.735,2.728,3.762-4.96-4.148-5.841.117-.244a25.212,25.212,0,0,0,1.79-5.036l.067-.281,6.421-1.371.333-6.217-6.525-2.441-.049-.254a24.924,24.924,0,0,0-1.283-4.429l-.1-.254,4.533-5.428-3.572-5.1-6.593,2.087-.2-.19a24.918,24.918,0,0,0-4.011-3.15l-.245-.155.81-6.8-5.776-2.324L177.6,60.991l-.253-.033a25.117,25.117,0,0,0-4.851-.171l-.273.016-3.733-6.008-5.962,1.792-.089,7.009-.237.128c-.737.4-1.462.835-2.153,1.3-.638.43-1.271.9-1.884,1.4l-.208.17-6.524-2.539-3.693,5.011,3.957,5.415-.122.248a25.168,25.168,0,0,0-1.824,5l-.067.271-6.674,1.6-.182,6.223,6.543,2.268.049.263a24.882,24.882,0,0,0,1.42,4.861l.108.267-4.509,4.973,3.362,5.24,6.856-1.867.187.178a24.94,24.94,0,0,0,3.744,2.922l.225.143-.381,7.478,5.92,1.926,4.185-5.871.273.036a25.221,25.221,0,0,0,5,.155Z" transform="translate(-20.726 -7.846)" fill="#fff"/>
        <path id="Trazado_228445" data-name="Trazado 228445" d="M166.57,96.551a13.115,13.115,0,1,0,3.537-18.208,13.115,13.115,0,0,0-3.537,18.208" transform="translate(-24.003 -11.116)" fill="#223b50"/>
        <path id="Trazado_228446" data-name="Trazado 228446" d="M177.384,102.708a13.568,13.568,0,1,1,7.572-2.318,13.572,13.572,0,0,1-7.572,2.318m-.047-26.23a12.691,12.691,0,1,0,2.44.236,12.784,12.784,0,0,0-2.44-.236" transform="translate(-23.924 -11.038)" fill="#fff"/>
        <path id="Trazado_228447" data-name="Trazado 228447" d="M183.215,84.667a4.484,4.484,0,1,1-4.466-4.084,4.288,4.288,0,0,1,4.466,4.084" transform="translate(-25.457 -11.771)" fill="#223b50"/>
        <path id="Trazado_228448" data-name="Trazado 228448" d="M178.669,89.133a4.559,4.559,0,1,1,4.925-4.544,4.752,4.752,0,0,1-4.925,4.544m0-8.17a3.644,3.644,0,1,0,4.008,3.626,3.835,3.835,0,0,0-4.008-3.626" transform="translate(-25.379 -11.692)" fill="#fff"/>
        <path id="Trazado_228449" data-name="Trazado 228449" d="M183.253,103.228a13.18,13.18,0,0,0,2.184-1.19q.451-.3.868-.639c-.036-1-.071-1.943-.027-2.9a21.065,21.065,0,0,0-.19-5.306,3.013,3.013,0,0,0-.517-1.011,3.047,3.047,0,0,0-1.2-.9c-.292-.028-.683-.059-1.145-.076-.676-.025-9.568-.021-10.223,0-.462.017-.852.048-1.145.076a2.911,2.911,0,0,0-1.717,1.909,21.071,21.071,0,0,0-.191,5.306c.044.966.009,1.913-.027,2.92a13,13,0,0,0,3.052,1.817q0-.533-.009-1.072-.013-.947-.038-1.871c.009-.642.005-1.117,0-1.45,0-.215-.009-.534.153-.611a.361.361,0,0,1,.306.038c.1.061.1.132.19.191v5.013a13.127,13.127,0,0,0,9.2-.051v-5.1a.281.281,0,0,1,.068-.057.357.357,0,0,1,.306-.038c.162.077.155.4.152.611,0,.333-.008.808,0,1.451q-.026.924-.038,1.87c-.005.359-.007.714-.009,1.067" transform="translate(-24.812 -13.32)" fill="#223b50"/>
        <path id="Trazado_228450" data-name="Trazado 228450" d="M178.034,104.663a13.646,13.646,0,0,1-4.68-.829v.019l-.641-.272a13.515,13.515,0,0,1-3.16-1.881l-.18-.144.011-.308c.034-.968.067-1.883.025-2.805,0-.069-.007-.154-.012-.251a19.653,19.653,0,0,1,.222-5.206,3.5,3.5,0,0,1,.6-1.166,3.451,3.451,0,0,1,1.383-1.035l.065-.028.07-.006c.387-.038.781-.064,1.172-.079.678-.026,9.593-.029,10.257,0,.392.015.786.041,1.172.079l.07.007.065.027a3.368,3.368,0,0,1,1.979,2.2,19.66,19.66,0,0,1,.222,5.207c-.005.1-.009.181-.012.25-.043.922-.009,1.837.025,2.805l.011.291-.181.144c-.293.234-.6.457-.9.661a13.68,13.68,0,0,1-2.259,1.232l-.642.275v-.019a13.509,13.509,0,0,1-4.68.835m-4.08-1.592a12.651,12.651,0,0,0,8.281-.047V98.071l.116-.131a.735.735,0,0,1,.175-.145.813.813,0,0,1,.74-.059c.426.2.418.739.413,1.026-.006.448-.006.919,0,1.444v.019c-.017.618-.03,1.246-.038,1.863,0,.114,0,.228,0,.342a12.724,12.724,0,0,0,1.463-.851c.221-.149.441-.308.658-.476-.033-.924-.061-1.8-.019-2.707,0-.07.007-.156.012-.254a19.52,19.52,0,0,0-.184-4.9,2.577,2.577,0,0,0-.436-.856,2.523,2.523,0,0,0-.958-.734c-.345-.032-.7-.055-1.046-.067-.659-.025-9.515-.021-10.188,0-.349.013-.7.035-1.046.067a2.527,2.527,0,0,0-.958.733,2.584,2.584,0,0,0-.436.856,19.552,19.552,0,0,0-.184,4.9c.005.1.009.184.013.255.041.909.014,1.793-.02,2.724a12.675,12.675,0,0,0,2.121,1.318c0-.117,0-.233,0-.35-.009-.617-.021-1.244-.038-1.863v-.019c.007-.525.007-1,0-1.438,0-.294-.013-.828.414-1.032a.811.811,0,0,1,.74.059.762.762,0,0,1,.234.219l.179.119Z" transform="translate(-24.734 -13.241)" fill="#fff"/>
        <path id="Trazado_228451" data-name="Trazado 228451" d="M123.764,209.1c0,5.582-3.645,10.785-9.608,10.785s-9.646-5.165-9.646-10.785V194.142a1.421,1.421,0,0,1,1.406-1.482h2.7a1.451,1.451,0,0,1,1.443,1.482v15.151c0,2.962,1.6,4.861,4.1,4.861,2.772,0,4.063-2.355,4.063-4.861V194.142a1.451,1.451,0,0,1,1.443-1.482h2.7a1.421,1.421,0,0,1,1.4,1.482Z" transform="translate(-15.266 -28.142)" fill="#182b30"/>
        <path id="Trazado_228452" data-name="Trazado 228452" d="M153,217.266a2.151,2.151,0,0,1,.038.532,1.509,1.509,0,0,1-1.519,1.557h-2.393a1.782,1.782,0,0,1-1.746-1.367l-1.33-4.519h-6.8l-1.367,4.519a1.772,1.772,0,0,1-1.709,1.367h-2.354A1.509,1.509,0,0,1,132.3,217.8a2.2,2.2,0,0,1,.038-.532l7.292-23.545a1.789,1.789,0,0,1,1.746-1.329h2.582a1.789,1.789,0,0,1,1.747,1.329Zm-10.367-15.418-1.785,6.114h3.569Z" transform="translate(-19.326 -28.103)" fill="#182b30"/>
        <path id="Trazado_228453" data-name="Trazado 228453" d="M179.083,196.755a1.485,1.485,0,0,1-1.443,1.519h-4.9v19.6a1.461,1.461,0,0,1-1.443,1.519H168.64a1.438,1.438,0,0,1-1.443-1.519v-19.6h-4.9a1.485,1.485,0,0,1-1.443-1.519v-2.62a1.461,1.461,0,0,1,1.443-1.519H177.64a1.461,1.461,0,0,1,1.443,1.519Z" transform="translate(-23.496 -28.135)" fill="#182b30"/>
        <path id="Trazado_228454" data-name="Trazado 228454" d="M85.955,194.7c2.25-1.7,2.051-3.155,3.18-4.056s3.283-2.067,3.545-3.335,1.352-.388,1.252.842a5.246,5.246,0,0,1-.874,2.308,29.169,29.169,0,0,0,3.7-3.666c.764-.909,1.389-1.92,1.808-1.775.366.127.346,1.054.334,1.58a6.694,6.694,0,0,1-1.007,3.3,11.063,11.063,0,0,1-1.468,1.768c-1.862,2-2.754,3.118-4.157,3.509a5.767,5.767,0,0,0-3.349,2.235Z" transform="translate(-12.555 -27.024)" fill="#a44c46"/>
        <path id="Trazado_228455" data-name="Trazado 228455" d="M56.764,222.478l2.769,80.847H53.662L44.074,238.55l-13,64.775H25.555l3.961-69.311L32.1,222.478Z" transform="translate(-3.733 -32.497)" fill="#26303f"/>
        <path id="Trazado_228456" data-name="Trazado 228456" d="M64.257,317.154c0,2.677,10.67,1.582,10.67,6.108H58.165a12.027,12.027,0,0,1,.222-6.108Z" transform="translate(-8.456 -46.326)" fill="#151515"/>
        <path id="Trazado_228457" data-name="Trazado 228457" d="M31.835,323.263a13.329,13.329,0,0,0-1.325-6.108H24.993s-3.544,4.136-3.273,6.108Z" transform="translate(-3.17 -46.327)" fill="#151515"/>
        <path id="Trazado_228458" data-name="Trazado 228458" d="M37.883,166.5l3.643-2.336,5.382,1.2,2.77,6.883,2.283,41.714H39.785l-3.969-36.846Z" transform="translate(-5.232 -23.98)" fill="#acc1de"/>
        <path id="Trazado_228459" data-name="Trazado 228459" d="M61.634,208.028c-.62-4.323-1.187-7.938-1.347-8.924Z" transform="translate(-8.806 -29.083)" fill="#edecec"/>
        <path id="Trazado_228460" data-name="Trazado 228460" d="M58.205,183.967l1.737,12.657s3.414,6.974,4.69,9.146,4.7,2.728,9.133,0,12.6-7.657,12.6-7.657l-.19-.6s-5.709,3.237-12.5,7.133-7.042.716-9.37-3.493c-4.076-7.369-6.1-17.184-6.1-17.184" transform="translate(-8.502 -26.872)" fill="#a5c6d5"/>
        <path id="Trazado_228461" data-name="Trazado 228461" d="M31.579,212.007l5.242,7.3-.166-.231-4.7-11.305s-.152,2.628-.373,4.235" transform="translate(-4.613 -30.349)" fill="#a5c6d5"/>
        <path id="Trazado_228462" data-name="Trazado 228462" d="M31.281,208.834a212.194,212.194,0,0,0-1.745-22.779s2.855,10.165,3.344,17.781,0,7.226,0,7.226Z" transform="translate(-4.314 -27.177)" fill="#a5c6d5"/>
        <path id="Trazado_228463" data-name="Trazado 228463" d="M29.877,225.385l2.363,2.92-2.7-.73Z" transform="translate(-4.314 -32.922)" fill="#a5c6d5"/>
        <path id="Trazado_228464" data-name="Trazado 228464" d="M36.885,221.1a8.068,8.068,0,0,1-4.282,6.425l-.587-.812a9.482,9.482,0,0,0,4.117-6.66Z" transform="translate(-4.677 -32.143)" fill="#a5c6d5"/>
        <path id="Trazado_228465" data-name="Trazado 228465" d="M41.681,155.776a11.884,11.884,0,0,1,.133,3.49,5.518,5.518,0,0,1-.548,2.552s-.025.709-.024,1.416a8.059,8.059,0,0,0,.107,1.186c.528.886,1.535,2.172,2.938,2.172a4.284,4.284,0,0,0,3.324-1.752l.35-2.7Z" transform="translate(-6.024 -22.754)" fill="#a44c46"/>
        <path id="Trazado_228466" data-name="Trazado 228466" d="M40.24,160.94c1.75-.629-1.684-8.493,2.306-11.982,2.8-2.445,7.616.156,8.646-1.778.74-1.388-1.044-3.815-2.553-5.046-2.9-2.368-7.077-2.175-9.983-.957a9.918,9.918,0,0,0-5.452,5.182c-2.667,6.913,5.1,15.279,7.036,14.582" transform="translate(-4.769 -20.493)" fill="#161515"/>
        <path id="Trazado_228467" data-name="Trazado 228467" d="M51.377,148.518s1.612,10.087-1.758,12.257-9.258-2.61-10.06-4.472c0,0-2.632.564-3.045-1.776s3.058-2.612,3.569-.957a3.467,3.467,0,0,0,.761-.925,3.638,3.638,0,0,0,.374-2.414,2.974,2.974,0,0,0,2-.669c.782-.718.623-1.644,1.388-2.121a2.539,2.539,0,0,1,1.924-.061c1.311.272,2.947.642,4.844,1.138" transform="translate(-5.329 -21.505)" fill="#a44c46"/>
        <path id="Trazado_228468" data-name="Trazado 228468" d="M41.393,222.5c.173-15.936-.57-22.3-.584-31.292a130.324,130.324,0,0,0-1.75-17.169h0c-.71-5.36-1.353-9.43-1.353-9.43l1.589-1.923s-8.468,6.328-12.11,8.859-5.218,6.328-6.006,12.071-3.151,17.133-1.28,20.833,8.467,11.779,8.467,11.779l-.6,6.274ZM29.77,205.421a22.59,22.59,0,0,1-2.363-4.089c-.664-1.752,1.7-9.126,1.7-9.126,1.181,8.761.664,13.215.664,13.215" transform="translate(-2.804 -23.763)" fill="#354377"/>
        <path id="Trazado_228469" data-name="Trazado 228469" d="M63.258,203.083c-1.276-2.172-4.691-9.146-4.691-9.146l.042.268c.16.987.727,4.6,1.347,8.925l.154,1.033c.4,2.774.8,5.76,1.134,8.493.5,4.165.777,7.726.93,10.264H53.263c.126-2.877.231-5.632.284-8.162a211.984,211.984,0,0,0-4.484-47.649l-.26-1.542c5.569,1.524,8.445,4.078,9.988,5.923,2.767,3.3,3.441,7.43,5.352,13.615,2.587,8.375,2.752,12.336,5.428,10.952,2.883-1.49,11.383-6.77,11.383-6.77,1.808.7,2.948,2.973,3.533,4.55l.006.006a15.264,15.264,0,0,1,.5,1.583s-8.17,4.936-12.6,7.657-7.857,2.178-9.133,0" transform="translate(-7.129 -24.184)" fill="#354377"/>
        <path id="Trazado_228470" data-name="Trazado 228470" d="M287.479,177.541c-2.2-1.2-2.222-2.509-3.331-3.151s-3.149-1.382-3.55-2.464-1.233-.161-.978.913a4.712,4.712,0,0,0,1.078,1.919,26.045,26.045,0,0,1-3.734-2.735c-.792-.7-1.476-1.508-1.821-1.324-.3.161-.157.977-.075,1.44a6.021,6.021,0,0,0,1.33,2.779,9.877,9.877,0,0,0,1.523,1.363c1.9,1.512,2.83,2.381,4.109,2.536a5.091,5.091,0,0,1,3.23,1.52Z" transform="translate(-40.163 -24.93)" fill="#f5b8b3"/>
        <path id="Trazado_228471" data-name="Trazado 228471" d="M302.488,314.721l-5.434,4.826s1.091,1.459,4.714.43a11.071,11.071,0,0,0,6.073-3.922,12.847,12.847,0,0,1,2.148-2L310,315.32l1.622-.012s1.757-2.826.18-7.293Z" transform="translate(-43.39 -44.991)" fill="#151515"/>
        <path id="Trazado_228472" data-name="Trazado 228472" d="M334.287,311.584l-.94,4.574a1.8,1.8,0,0,0,.172,1.2l2.4,4.538a1.8,1.8,0,0,0,1.607.962l.2,0a1.8,1.8,0,0,0,1.693-1.218l1.328-3.872a1.8,1.8,0,0,0,0-1.166l-1.825-5.362Z" transform="translate(-48.686 -45.463)" fill="#151515"/>
        <path id="Trazado_228473" data-name="Trazado 228473" d="M307.935,267.317s.929,22.388.2,28.88-2.053,9.048-4.721,11.847c0,0,.431,1.464,2.573-.018s6.056-5.061,6.739-6.688a19.453,19.453,0,0,1,.624-10.12c1.812-5.882,4.5-19.337,3.967-28.91Z" transform="translate(-44.32 -38.315)" fill="#f5b8b3"/>
        <path id="Trazado_228474" data-name="Trazado 228474" d="M326.988,261.41s1.954,14.4,3.854,20.978,3,17.483,2.522,21.914c0,0,1.062,4.666,2.812,4.654s1.819-5,1.819-5a42.579,42.579,0,0,1-1.019-13.172c.565-7.417-.368-23.061-.906-26.456s-9.082-2.922-9.082-2.922" transform="translate(-47.763 -38.181)" fill="#f5b8b3"/>
        <path id="Trazado_228475" data-name="Trazado 228475" d="M318.667,164.929c1.779,2.554,4.018,3.117,7.388,4.68,15.682,7.27,20.006,19.563,23.523,17.874,2.667-1.281,1.374-10.343-1.6-16.845-2.09-4.575-3.311-4.156-7.058-10.189-6.082-9.792-5.44-15.038-10.21-16.9-3.479-1.354-6.9.235-7.831.721-6.884,3.609-8.188,14.952-4.217,20.655" transform="translate(-46.222 -20.891)" fill="#ce5337"/>
        <path id="Trazado_228476" data-name="Trazado 228476" d="M314.177,224.029l19.48.049q.051-27,.1-54a5.926,5.926,0,0,0-1.7-.432,6.006,6.006,0,0,0-2.585.314c0,.086.006.214,0,.369a6.274,6.274,0,0,1-.211,1.554c-.344,1.028-2.175,1.564-3.538,1.5a3.531,3.531,0,0,1-2.3-.871,2.576,2.576,0,0,1-.523-.884c-.039-.321-.068-.666-.081-1.034q-.014-.387-.005-.74a8.3,8.3,0,0,1-4.471.216q-2.084,26.98-4.169,53.959" transform="translate(-45.892 -24.775)" fill="#bac9df"/>
        <path id="Trazado_228477" data-name="Trazado 228477" d="M334.556,251.01a39.959,39.959,0,0,1-19.589.137q-.158-22.477-.314-44.955a27.4,27.4,0,0,0,19.588-.137q.158,22.477.315,44.954" transform="translate(-45.961 -30.098)" fill="#313f6a"/>
        <path id="Trazado_228478" data-name="Trazado 228478" d="M287.916,175.842c1.365.15,1.944,2.157,3.283,4.339a20.636,20.636,0,0,0,7.664,7.118l8.924-13.7c0-.038,0-.078,0-.116a5.8,5.8,0,0,1,1.464-2.08c2.672-2.39,6.663-1.2,7.016-1.084l-1.7,79.446a13.326,13.326,0,0,1-17.944,2.861A332.618,332.618,0,0,0,306.14,202.4q1-9,1.467-17.488c-2.219,7.264-6.451,11.772-10.3,11.784-4.454.014-8.582-5.98-9.813-7.767a24.38,24.38,0,0,1-3.758-8.845c1.09-2.076,2.634-4.414,4.184-4.243" transform="translate(-41.444 -24.821)" fill="#252f3e"/>
        <path id="Trazado_228479" data-name="Trazado 228479" d="M304.61,207.445l12.023-.085a2.165,2.165,0,0,0,2.064-2.77l-4.65-15.967a2.166,2.166,0,0,0-2.095-1.56l-11.673.082a2.166,2.166,0,0,0-2.076,2.728l4.3,15.969a2.166,2.166,0,0,0,2.106,1.6" transform="translate(-43.547 -27.324)" fill="#ccdaec"/>
        <path id="Trazado_228480" data-name="Trazado 228480" d="M315.937,202.471c3.022,1.473,4.307,1.676,4.89,1.519a11.172,11.172,0,0,1,1.591.173c0-.466-.005-.935-.01-1.4q-.018-2-.064-3.955c-1.743-.864-3.475-1.57-3.815-1.119-.256.341.441,1.12.195,1.366-.463.463-3.879-1.3-5.077-1.924-.114-.058-.423-.22-.555-.107-.053.044-.109.16,0,.517,1.161,3.695,2.844,4.932,2.844,4.932" transform="translate(-45.724 -28.773)" fill="#f5b8b3"/>
        <path id="Trazado_228481" data-name="Trazado 228481" d="M323.888,200.485l-.045-6.505,6.8-.048c-.15-1.616-.291-3.09-.336-6.06-.1-6.776.484-9.088.816-10.208.155-.523.325-1.025.507-1.505l0-.2.091-.032a22.958,22.958,0,0,1,3.417-5.907,17.551,17.551,0,0,1,7.48,2.018,36.939,36.939,0,0,1,7.135,15.845c.629,3.5,1.7,9.435-1.4,11.69a5.88,5.88,0,0,1-4.356.769l-2.271.016Q343,228.129,344.273,255.9a15.418,15.418,0,0,1-9.684-.08,15.734,15.734,0,0,1-8.779-7.922c-.993-11.036-.385-19.231.143-21.736.561-2.655,1.369-5.111,1.369-5.111.3-.917.539-1.542.652-1.852a43.764,43.764,0,0,0,1.935-8.663c.406-2.654.833-6.062,1.109-10.1Z" transform="translate(-47.303 -24.835)" fill="#252f3e"/>
        <path id="Trazado_228482" data-name="Trazado 228482" d="M324.037,169.745a2.711,2.711,0,0,0,.232,1.477,3.724,3.724,0,0,0,2.746,1.607c1.277.223,3.151.058,3.616-.913a3.379,3.379,0,0,0,.143-.74,15.238,15.238,0,0,0,.134-1.923,31.454,31.454,0,0,0-.552-4.949l-6.136.044c-.032,2.312-.1,4.019-.184,5.4" transform="translate(-47.33 -24)" fill="#e9999e"/>
        <path id="Trazado_228483" data-name="Trazado 228483" d="M326.592,149.095c2.727-.019,5.04,2.623,5.738,6.229a1.7,1.7,0,1,1,.3,3.376c-.044,0-.087,0-.131,0-.371,4.12-2.809,7.307-5.787,7.328-3.256.023-5.922-3.748-5.954-8.423s2.58-8.482,5.836-8.505" transform="translate(-46.852 -21.778)" fill="#f5b8b3"/>
        <path id="Trazado_228484" data-name="Trazado 228484" d="M321.822,151.064c.335.868,2.283.053,4.742,1.519,1.564.932,1.6,1.754,2.973,2.2,1.477.476,3.592.224,4.06-.768.863-1.827-3.308-7.32-7.44-6.823-2.549.307-4.73,2.849-4.335,3.874" transform="translate(-47.001 -21.495)" fill="#ce5337"/>
      </g>
    </g>
  </g>
</svg>
