<svg xmlns="http://www.w3.org/2000/svg" xmlns:xlink="http://www.w3.org/1999/xlink" width="453.804" height="439.692" viewBox="0 0 453.804 439.692">
  <defs>
    <clipPath id="clip-path">
      <rect id="Rectángulo_49995" data-name="Rectángulo 49995" width="453.804" height="439.692" fill="none"/>
    </clipPath>
    <clipPath id="clip-path-3">
      <rect id="Rectángulo_49949" data-name="Rectángulo 49949" width="2.007" height="2.007" transform="translate(52.607 86.208)" fill="none"/>
    </clipPath>
    <clipPath id="clip-path-4">
      <rect id="Rectángulo_49950" data-name="Rectángulo 49950" width="2.007" height="2.007" transform="translate(56.046 86.208)" fill="none"/>
    </clipPath>
    <clipPath id="clip-path-5">
      <rect id="Rectángulo_49951" data-name="Rectángulo 49951" width="2.007" height="2.007" transform="translate(59.436 86.208)" fill="none"/>
    </clipPath>
    <clipPath id="clip-path-6">
      <rect id="Rectángulo_49958" data-name="Rectángulo 49958" width="1.704" height="1.704" transform="translate(156.106 22.832)" fill="none"/>
    </clipPath>
    <clipPath id="clip-path-7">
      <rect id="Rectángulo_49959" data-name="Rectángulo 49959" width="1.704" height="1.704" transform="translate(159.025 22.832)" fill="none"/>
    </clipPath>
    <clipPath id="clip-path-8">
      <rect id="Rectángulo_49960" data-name="Rectángulo 49960" width="1.704" height="1.704" transform="translate(161.902 22.832)" fill="none"/>
    </clipPath>
    <clipPath id="clip-path-12">
      <rect id="Rectángulo_49976" data-name="Rectángulo 49976" width="30.509" height="15.232" transform="translate(265.395 424.46)" fill="none"/>
    </clipPath>
    <clipPath id="clip-path-13">
      <rect id="Rectángulo_49977" data-name="Rectángulo 49977" width="3.439" height="3.424" transform="translate(265.449 413.513)" fill="none"/>
    </clipPath>
    <clipPath id="clip-path-14">
      <rect id="Rectángulo_49978" data-name="Rectángulo 49978" width="3.356" height="3.345" transform="translate(299.165 401.396)" fill="none"/>
    </clipPath>
    <clipPath id="clip-path-15">
      <rect id="Rectángulo_49979" data-name="Rectángulo 49979" width="43.069" height="3.567" transform="translate(293.162 412.23)" fill="none"/>
    </clipPath>
    <clipPath id="clip-path-16">
      <rect id="Rectángulo_49980" data-name="Rectángulo 49980" width="21.319" height="3.951" transform="translate(293.09 385.59)" fill="none"/>
    </clipPath>
  </defs>
  <g id="Grupo_117826" data-name="Grupo 117826" transform="translate(-834 -10366)">
    <g id="Grupo_114705" data-name="Grupo 114705" transform="translate(834 10366)">
      <g id="Grupo_114704" data-name="Grupo 114704" clip-path="url(#clip-path)">
        <rect id="Rectángulo_49948" data-name="Rectángulo 49948" width="125.216" height="83.84" transform="translate(49.675 83.504)" fill="#fff"/>
        <g id="Grupo_114678" data-name="Grupo 114678">
          <g id="Grupo_114677" data-name="Grupo 114677" clip-path="url(#clip-path)">
            <path id="Trazado_227787" data-name="Trazado 227787" d="M174.891,167.344s-.013-.524-.02-1.525-.012-2.489-.021-4.423c-.01-3.881-.026-9.573-.045-16.862-.022-14.566-.055-35.5-.093-61.03l.179.18-125.206.045h-.011L49.9,83.5c-.006,29.868-.013,58.271-.018,83.84l-.207-.206,90.21.1,25.774.055,6.854.025,1.771.012c.4,0,.608.012.608.012s-.194.008-.585.012l-1.747.012-6.814.025-25.725.055-90.346.1h-.2v-.206c-.006-25.569-.013-53.972-.019-83.84V83.28h.234l125.206.045h.179V83.5c-.038,25.573-.071,46.548-.094,61.141-.02,7.272-.035,12.951-.046,16.822-.008,1.92-.015,3.39-.019,4.39s-.019,1.487-.019,1.487" fill="#e0e0e0"/>
            <path id="Trazado_227788" data-name="Trazado 227788" d="M49.675,90.986c0-.124,28.01-.225,62.553-.225s62.559.1,62.559.225-28,.224-62.559.224-62.553-.1-62.553-.224" fill="#e0e0e0"/>
            <g id="Grupo_114661" data-name="Grupo 114661" opacity="0.3">
              <g id="Grupo_114660" data-name="Grupo 114660">
                <g id="Grupo_114659" data-name="Grupo 114659" clip-path="url(#clip-path-3)">
                  <path id="Trazado_227789" data-name="Trazado 227789" d="M54.615,87.211a1,1,0,1,1-1-1,1,1,0,0,1,1,1" fill="#e0e0e0"/>
                </g>
              </g>
            </g>
            <g id="Grupo_114664" data-name="Grupo 114664" opacity="0.3">
              <g id="Grupo_114663" data-name="Grupo 114663">
                <g id="Grupo_114662" data-name="Grupo 114662" clip-path="url(#clip-path-4)">
                  <path id="Trazado_227790" data-name="Trazado 227790" d="M58.053,87.211a1,1,0,1,1-1-1,1,1,0,0,1,1,1" fill="#e0e0e0"/>
                </g>
              </g>
            </g>
            <g id="Grupo_114667" data-name="Grupo 114667" opacity="0.3">
              <g id="Grupo_114666" data-name="Grupo 114666">
                <g id="Grupo_114665" data-name="Grupo 114665" clip-path="url(#clip-path-5)">
                  <path id="Trazado_227791" data-name="Trazado 227791" d="M61.443,87.211a1,1,0,1,1-1-1,1,1,0,0,1,1,1" fill="#e0e0e0"/>
                </g>
              </g>
            </g>
            <rect id="Rectángulo_49952" data-name="Rectángulo 49952" width="33.401" height="33.401" transform="translate(60.44 99.729)" fill="#e0e0e0"/>
            <path id="Trazado_227792" data-name="Trazado 227792" d="M157.719,109.17c0,.124-13.027.225-29.093.225s-29.1-.1-29.1-.225,13.024-.224,29.1-.224,29.093.1,29.093.224" fill="#e0e0e0"/>
            <path id="Trazado_227793" data-name="Trazado 227793" d="M157.719,115.377c0,.124-13.027.224-29.093.224s-29.1-.1-29.1-.224,13.024-.224,29.1-.224,29.093.1,29.093.224" fill="#e0e0e0"/>
            <path id="Trazado_227794" data-name="Trazado 227794" d="M157.719,121.584c0,.124-13.027.224-29.093.224s-29.1-.1-29.1-.224,13.024-.224,29.1-.224,29.093.1,29.093.224" fill="#e0e0e0"/>
            <path id="Trazado_227795" data-name="Trazado 227795" d="M133.921,127.791a7.731,7.731,0,0,1-1.351.087l-3.685.072c-3.112.04-7.411.065-12.158.065s-9.049-.025-12.16-.065l-3.685-.072a7.732,7.732,0,0,1-1.351-.087,7.859,7.859,0,0,1,1.351-.087l3.685-.072c3.111-.04,7.411-.065,12.16-.065s9.046.025,12.158.065l3.685.072a7.859,7.859,0,0,1,1.351.087" fill="#e0e0e0"/>
            <rect id="Rectángulo_49953" data-name="Rectángulo 49953" width="15.697" height="15.697" transform="translate(62.53 144.392)" fill="#e0e0e0"/>
            <rect id="Rectángulo_49954" data-name="Rectángulo 49954" width="15.697" height="15.697" transform="translate(90.996 144.392)" fill="#e0e0e0"/>
            <rect id="Rectángulo_49955" data-name="Rectángulo 49955" width="15.697" height="15.697" transform="translate(119.464 144.392)" fill="#e0e0e0"/>
            <rect id="Rectángulo_49956" data-name="Rectángulo 49956" width="15.697" height="15.697" transform="translate(147.93 144.392)" fill="#e0e0e0"/>
            <path id="Trazado_227796" data-name="Trazado 227796" d="M403.055,104.721a4.783,4.783,0,0,1-.685,1.416,6.322,6.322,0,0,1-3.433,2.515,6.4,6.4,0,0,1-2.982.174,6.5,6.5,0,0,1-3.1-1.475,6.514,6.514,0,0,1-2.02-3.2,6.476,6.476,0,0,1,2.775-7.2,6.5,6.5,0,0,1,3.647-1.019,6.487,6.487,0,0,1,3.286.983,6.41,6.41,0,0,1,2.093,2.131,6.326,6.326,0,0,1,.858,4.169,4.781,4.781,0,0,1-.443,1.509c-.043-.013.191-.533.3-1.526a6.333,6.333,0,0,0-.936-4.017,6.205,6.205,0,0,0-5.167-2.914,6.213,6.213,0,0,0-3.448.985,6.148,6.148,0,0,0-2.622,6.805,6.2,6.2,0,0,0,1.9,3.043,6.2,6.2,0,0,0,5.786,1.307,6.327,6.327,0,0,0,3.389-2.349c.585-.811.76-1.353.8-1.334" fill="#e0e0e0"/>
            <path id="Trazado_227797" data-name="Trazado 227797" d="M409.03,110.754a1.352,1.352,0,0,1,.222.019l.672.084,2.652.356-.062.036,2.1-5.534.035.11-2.978-1.979-.054-.035.007-.065a14.427,14.427,0,0,0-.109-3.827l-.011-.071.058-.044,2.863-2.145-.041.157-2.413-5.4.159.083-3.508.7-.089.018-.058-.071a14.367,14.367,0,0,0-2.768-2.628l-.077-.056.013-.094c.159-1.1.334-2.307.512-3.539l.1.175-5.524-2.121.2-.064-1.988,2.971-.058.087-.1-.011a14.429,14.429,0,0,0-3.81.1l-.106.017-.064-.086-2.138-2.867.215.056-5.409,2.4.105-.2c.218,1.108.455,2.305.693,3.51l.021.108-.086.069a14.351,14.351,0,0,0-2.625,2.756h0l-.175.074h-.01l-.014,0-.028,0-.056-.008-.111-.016-.223-.033-.445-.065-.887-.129-1.764-.258.2-.115q-1.079,2.8-2.129,5.522l-.068-.215,2.969,1.992.09.061-.012.107a14.352,14.352,0,0,0,.093,3.81l.017.106-.085.064-2.87,2.135.055-.21q1.225,2.771,2.394,5.411l-.186-.1,3.51-.688.1-.019.062.077a14.294,14.294,0,0,0,2.758,2.635l.078.057-.014.094c-.179,1.213-.353,2.388-.523,3.537l-.1-.164,5.517,2.14-.166.053,2-2.965.044-.066.078.009a14.448,14.448,0,0,0,3.824-.086l.073-.011.042.058,2.128,2.875-.13-.034,5.42-2.376-.047.091c-.267-1.4-.487-2.555-.67-3.514l-.006-.035.027-.022a15.061,15.061,0,0,0,2.087-2.012l.457-.554a1.412,1.412,0,0,1,.153-.182,1.846,1.846,0,0,1-.129.2c-.093.129-.233.324-.435.573a13.968,13.968,0,0,1-2.059,2.065l.02-.057c.2.957.43,2.1.715,3.5l.013.064-.06.027-5.4,2.423-.078.035-.052-.069-2.147-2.861.115.046a14.649,14.649,0,0,1-3.89.11l.123-.058-1.984,2.975-.062.093-.1-.04-5.526-2.118-.113-.043.017-.12c.166-1.149.336-2.325.511-3.539l.063.151a14.666,14.666,0,0,1-2.828-2.687l.159.058-3.509.7-.131.026-.055-.123-2.4-5.406-.056-.127.111-.083,2.867-2.139-.069.169a14.633,14.633,0,0,1-.1-3.9l.078.168-2.971-1.99-.12-.08.052-.135,2.127-5.523.052-.136.144.022,1.764.257.887.13.445.065.223.032.111.017.056.008.028,0,.013,0h.011l-.173.073h0a14.723,14.723,0,0,1,2.692-2.826l-.064.177c-.237-1.205-.473-2.4-.692-3.51l-.028-.142.133-.059,5.41-2.4.131-.058.085.115,2.135,2.87-.169-.069a14.786,14.786,0,0,1,3.9-.1l-.162.076,1.994-2.968.075-.113.127.049L406.37,86.7l.121.047-.018.128c-.182,1.232-.361,2.441-.523,3.537l-.063-.15a14.671,14.671,0,0,1,2.819,2.694l-.146-.053,3.511-.686.113-.022.046.1c.837,1.9,1.635,3.709,2.387,5.414l.042.1-.083.062L411.7,100l.047-.114a14.626,14.626,0,0,1,.085,3.887l-.047-.1,2.962,2,.061.041-.026.069c-.88,2.243-1.607,4.1-2.161,5.509l-.017.044-.045-.007-2.62-.414-.677-.113a1.8,1.8,0,0,1-.233-.047" fill="#e0e0e0"/>
            <path id="Trazado_227798" data-name="Trazado 227798" d="M440.5,93.919a12.059,12.059,0,0,1-2.207,2.318l.574,2.911-4.488,1.991-1.773-2.38a11.966,11.966,0,0,1-3.2.081l-1.652,2.464-4.581-1.766L423.6,96.6a12,12,0,0,1-2.318-2.207l-2.912.574-1.99-4.488,2.379-1.773a12.048,12.048,0,0,1-.08-3.2l-2.464-1.651,1.765-4.582,2.936.429a12,12,0,0,1,2.207-2.318l-.574-2.912,4.488-1.991,1.773,2.38a12.042,12.042,0,0,1,3.2-.08l1.652-2.464,4.582,1.766-.429,2.935a12,12,0,0,1,2.318,2.207l2.912-.574,1.99,4.487-2.38,1.774a12.006,12.006,0,0,1,.081,3.2l2.464,1.651-1.766,4.581Zm-4.957-5a5.267,5.267,0,1,0-6.809,3.02,5.267,5.267,0,0,0,6.809-3.02" fill="#e0e0e0" fill-rule="evenodd"/>
            <path id="Trazado_227799" data-name="Trazado 227799" d="M421.159,66.568A18.906,18.906,0,0,1,417.7,70.2l.9,4.565-7.038,3.122-2.781-3.732a18.825,18.825,0,0,1-5.018.127l-2.59,3.864-7.184-2.769.672-4.6a18.824,18.824,0,0,1-3.635-3.462l-4.566.9-3.122-7.037,3.732-2.781a18.868,18.868,0,0,1-.126-5.018l-3.864-2.59,2.769-7.186,4.6.673a18.848,18.848,0,0,1,3.461-3.635l-.9-4.566,7.039-3.122,2.78,3.732a18.951,18.951,0,0,1,5.018-.126l2.59-3.863,7.185,2.769-.673,4.6a18.824,18.824,0,0,1,3.635,3.462l4.566-.9,3.122,7.037-3.732,2.781a18.872,18.872,0,0,1,.126,5.019l3.864,2.59-2.769,7.183Zm-7.773-7.849a8.26,8.26,0,1,0-10.677,4.737,8.259,8.259,0,0,0,10.677-4.737" fill="#e0e0e0" fill-rule="evenodd"/>
            <path id="Trazado_227800" data-name="Trazado 227800" d="M350.566,28.448a3.4,3.4,0,0,1,.524-.595l1.519-1.526c1.294-1.278,3.1-3.026,5.1-4.94l.046-.043V21.6c-2.022-1.878-3.837-3.591-5.138-4.843l-1.528-1.5a3.406,3.406,0,0,1-.528-.583,3.358,3.358,0,0,1,.62.482l1.6,1.414c1.344,1.2,3.186,2.888,5.209,4.766l.138.128L358,21.6l-.045.044c-2.007,1.914-3.838,3.633-5.175,4.864l-1.6,1.445a3.359,3.359,0,0,1-.618.5" fill="#e0e0e0"/>
            <path id="Trazado_227801" data-name="Trazado 227801" d="M334.958,14.679a3.4,3.4,0,0,1-.524.6L332.915,16.8c-1.293,1.278-3.1,3.026-5.1,4.94l-.046.043v-.258c2.022,1.879,3.837,3.591,5.138,4.843q.906.886,1.529,1.5a3.411,3.411,0,0,1,.527.583,3.415,3.415,0,0,1-.62-.482l-1.6-1.414c-1.345-1.2-3.187-2.888-5.21-4.766l-.138-.128.137-.13.045-.044c2.007-1.914,3.838-3.633,5.175-4.864l1.6-1.445a3.359,3.359,0,0,1,.618-.495" fill="#e0e0e0"/>
            <path id="Trazado_227802" data-name="Trazado 227802" d="M338.964,31.691c-.091-.034,1.547-4.639,3.659-10.284s3.9-10.195,3.989-10.161-1.547,4.638-3.659,10.285-3.9,10.194-3.989,10.16" fill="#e0e0e0"/>
            <path id="Trazado_227803" data-name="Trazado 227803" d="M368.3,41.544s-.011-.267-.016-.77-.01-1.253-.017-2.215c-.009-1.945-.022-4.779-.038-8.39-.018-7.223-.044-17.546-.076-29.992l.147.148L317.538.354h-.005l.177-.177c-.007,14.954-.014,29.077-.019,41.367l-.158-.158,36.66.079,10.39.042,2.759.019.713.009c.161,0,.247.009.247.009s-.074.006-.229.009l-.7.009-2.727.019-10.355.042-36.762.079h-.157v-.158c-.006-12.29-.012-26.413-.019-41.367V0h.181L368.3.03h.147V.177c-.031,12.485-.058,22.839-.076,30.084-.016,3.6-.029,6.42-.038,8.357q-.01,1.427-.017,2.188c-.005.492-.016.738-.016.738" fill="#e0e0e0"/>
            <path id="Trazado_227804" data-name="Trazado 227804" d="M368.7,6.315c0,.1-11.46.177-25.593.177s-25.6-.079-25.6-.177,11.458-.177,25.6-.177,25.593.079,25.593.177" fill="#e0e0e0"/>
            <path id="Trazado_227805" data-name="Trazado 227805" d="M321.676,3.3a.684.684,0,1,1-.684-.686.685.685,0,0,1,.684.686" fill="#e0e0e0"/>
            <path id="Trazado_227806" data-name="Trazado 227806" d="M324.168,3.3a.684.684,0,1,1-.684-.686.685.685,0,0,1,.684.686" fill="#e0e0e0"/>
            <path id="Trazado_227807" data-name="Trazado 227807" d="M326.659,3.3a.684.684,0,1,1-.684-.686.685.685,0,0,1,.684.686" fill="#e0e0e0"/>
            <rect id="Rectángulo_49957" data-name="Rectángulo 49957" width="117.383" height="47.679" transform="translate(152.779 20.13)" fill="#fff"/>
            <path id="Trazado_227808" data-name="Trazado 227808" d="M270.162,67.809s-.009-.293-.013-.852-.008-1.391-.014-2.473c-.008-2.176-.019-5.372-.033-9.489-.017-8.229-.041-20.133-.071-34.865l.131.13-117.375.056h-.008l.186-.186c0,16.7-.006,32.813-.008,47.679l-.178-.178,84.161.084,24.415.049,6.534.023,1.692.011c.381,0,.581.011.581.011s-.185.007-.559.011l-1.671.011-6.5.023-24.374.049-84.282.084H152.6v-.178c0-14.866-.005-30.982-.008-47.679v-.186h.194L270.162,20h.131v.131c-.03,14.766-.054,26.7-.071,34.944-.014,4.1-.025,7.291-.032,9.46q-.01,1.608-.014,2.45c-.005.55-.014.825-.014.825" fill="#e0e0e0"/>
            <path id="Trazado_227809" data-name="Trazado 227809" d="M152.9,26.56c0-.1,26.238-.186,58.6-.186s58.6.083,58.6.186-26.232.186-58.6.186-58.6-.083-58.6-.186" fill="#e0e0e0"/>
            <g id="Grupo_114670" data-name="Grupo 114670" opacity="0.3">
              <g id="Grupo_114669" data-name="Grupo 114669">
                <g id="Grupo_114668" data-name="Grupo 114668" clip-path="url(#clip-path-6)">
                  <path id="Trazado_227810" data-name="Trazado 227810" d="M157.81,23.684a.852.852,0,1,1-.852-.852.853.853,0,0,1,.852.852" fill="#ebebeb"/>
                </g>
              </g>
            </g>
            <g id="Grupo_114673" data-name="Grupo 114673" opacity="0.3">
              <g id="Grupo_114672" data-name="Grupo 114672">
                <g id="Grupo_114671" data-name="Grupo 114671" clip-path="url(#clip-path-7)">
                  <path id="Trazado_227811" data-name="Trazado 227811" d="M160.729,23.684a.852.852,0,1,1-.852-.852.852.852,0,0,1,.852.852" fill="#ebebeb"/>
                </g>
              </g>
            </g>
            <g id="Grupo_114676" data-name="Grupo 114676" opacity="0.3">
              <g id="Grupo_114675" data-name="Grupo 114675">
                <g id="Grupo_114674" data-name="Grupo 114674" clip-path="url(#clip-path-8)">
                  <path id="Trazado_227812" data-name="Trazado 227812" d="M163.606,23.684a.852.852,0,1,1-.852-.852.852.852,0,0,1,.852.852" fill="#ebebeb"/>
                </g>
              </g>
            </g>
            <rect id="Rectángulo_49961" data-name="Rectángulo 49961" width="28.353" height="28.353" transform="translate(162.754 34.309)" fill="#e0e0e0"/>
            <path id="Trazado_227813" data-name="Trazado 227813" d="M262.04,41.907c0,.1-14.59.186-32.584.186s-32.586-.083-32.586-.186,14.587-.186,32.586-.186,32.584.083,32.584.186" fill="#e0e0e0"/>
            <path id="Trazado_227814" data-name="Trazado 227814" d="M262.04,47.683c0,.1-14.59.186-32.584.186s-32.586-.083-32.586-.186,14.587-.186,32.586-.186,32.584.083,32.584.186" fill="#e0e0e0"/>
            <path id="Trazado_227815" data-name="Trazado 227815" d="M238.823,53.459a1.856,1.856,0,0,1-.426.037l-1.222.035-4.5.059-14.831.055-14.834-.055-4.5-.059L197.3,53.5a1.856,1.856,0,0,1-.426-.037,1.883,1.883,0,0,1,.426-.038l1.223-.034,4.5-.059,14.834-.055,14.831.055,4.5.059,1.222.034a1.883,1.883,0,0,1,.426.038" fill="#e0e0e0"/>
          </g>
        </g>
        <g id="Grupo_114680" data-name="Grupo 114680">
          <g id="Grupo_114679" data-name="Grupo 114679" clip-path="url(#clip-path)">
            <path id="Trazado_227816" data-name="Trazado 227816" d="M453.8,412.175c0,.144-99.787.26-222.852.26-123.107,0-222.873-.116-222.873-.26s99.766-.26,222.873-.26c123.065,0,222.852.116,222.852.26" fill="#263238"/>
          </g>
        </g>
        <rect id="Rectángulo_49964" data-name="Rectángulo 49964" width="140.129" height="114.16" transform="translate(275.976 102.495)" fill="#e0e0e0"/>
        <rect id="Rectángulo_49965" data-name="Rectángulo 49965" width="140.129" height="114.16" transform="translate(266.012 109.751)" fill="#ebebeb"/>
        <rect id="Rectángulo_49966" data-name="Rectángulo 49966" width="143.868" height="117.205" transform="translate(252.284 117.699)" fill="#fff"/>
        <g id="Grupo_114682" data-name="Grupo 114682">
          <g id="Grupo_114681" data-name="Grupo 114681" clip-path="url(#clip-path)">
            <path id="Trazado_227817" data-name="Trazado 227817" d="M396.152,234.9s-.016-.743-.024-2.161-.014-3.522-.025-6.258c-.013-5.481-.032-13.511-.056-23.749-.027-20.46-.066-49.734-.112-85.037l.217.217-143.855.043h-.013l.26-.26c-.01,42.382-.019,82.4-.028,117.205l-.232-.232,103.96.116,29.418.062,7.793.027,2.008.014c.453,0,.689.013.689.013s-.219.009-.662.013l-1.983.014-7.748.027-29.365.062-104.11.116h-.232V234.9c-.009-34.8-.018-74.823-.028-117.205v-.261h.273l143.855.043h.217v.218c-.046,35.36-.085,64.681-.112,85.173-.024,10.217-.043,18.231-.056,23.7-.011,2.718-.019,4.8-.025,6.217s-.024,2.114-.024,2.114" fill="#263238"/>
            <path id="Trazado_227818" data-name="Trazado 227818" d="M269.819,134.635l-1.544.566,1.544.561v.58l-2.207-.84v-.6l2.207-.84Z" fill="#4dd0e1"/>
            <path id="Trazado_227819" data-name="Trazado 227819" d="M273.462,133.578v3.247h-.752v-1.331h-1.475v1.331h-.751v-3.247h.751v1.28h1.475v-1.28Z" fill="#4dd0e1"/>
            <path id="Trazado_227820" data-name="Trazado 227820" d="M274.9,134.19h-1.039v-.612h2.83v.612h-1.039v2.635H274.9Z" fill="#4dd0e1"/>
            <path id="Trazado_227821" data-name="Trazado 227821" d="M280.047,136.825l-.005-1.948-.955,1.605h-.339l-.951-1.563v1.906h-.705v-3.247h.622l1.215,2.018,1.2-2.018h.616l.01,3.247Z" fill="#4dd0e1"/>
            <path id="Trazado_227822" data-name="Trazado 227822" d="M281.517,133.578h.752v2.635H283.9v.612h-2.38Z" fill="#4dd0e1"/>
            <path id="Trazado_227823" data-name="Trazado 227823" d="M286.426,134.9v.6l-2.207.839v-.58l1.544-.561-1.544-.566v-.575Z" fill="#4dd0e1"/>
            <path id="Trazado_227824" data-name="Trazado 227824" d="M268.508,223.517l-1.545.565,1.545.562v.58l-2.209-.84v-.6l2.209-.84Z" fill="#4dd0e1"/>
            <path id="Trazado_227825" data-name="Trazado 227825" d="M270.165,221.8h.645l-1.531,4.37h-.645Z" fill="#4dd0e1"/>
            <path id="Trazado_227826" data-name="Trazado 227826" d="M273.967,222.459v3.247h-.752v-1.331H271.74v1.331h-.752v-3.247h.752v1.28h1.475v-1.28Z" fill="#4dd0e1"/>
            <path id="Trazado_227827" data-name="Trazado 227827" d="M275.406,223.071h-1.039v-.612H277.2v.612h-1.039v2.635h-.751Z" fill="#4dd0e1"/>
            <path id="Trazado_227828" data-name="Trazado 227828" d="M280.552,225.706l-.005-1.948-.955,1.6h-.339L278.3,223.8v1.906H277.6v-3.247h.622l1.215,2.018,1.2-2.018h.617l.009,3.247Z" fill="#4dd0e1"/>
            <path id="Trazado_227829" data-name="Trazado 227829" d="M282.023,222.459h.752v2.635H284.4v.612h-2.38Z" fill="#4dd0e1"/>
            <path id="Trazado_227830" data-name="Trazado 227830" d="M286.932,223.781v.6l-2.207.839v-.58l1.544-.561-1.544-.566v-.575Z" fill="#4dd0e1"/>
            <path id="Trazado_227831" data-name="Trazado 227831" d="M280.007,143.524l-1.647.635,1.647.636v.385l-2.078-.821v-.4l2.078-.821Z"/>
            <path id="Trazado_227832" data-name="Trazado 227832" d="M283.6,142.536v3.247h-.464v-1.447h-1.864v1.447H280.8v-3.247h.464v1.4h1.864v-1.4Z"/>
            <path id="Trazado_227833" data-name="Trazado 227833" d="M286.922,145.38v.4h-2.357v-3.247h2.292v.4h-1.828v1h1.628v.394h-1.628v1.049Z"/>
            <path id="Trazado_227834" data-name="Trazado 227834" d="M289.738,144.971h-1.726l-.356.812h-.478l1.47-3.247h.459l1.476,3.247H290.1Zm-.161-.371-.7-1.591-.7,1.591Z"/>
            <path id="Trazado_227835" data-name="Trazado 227835" d="M291.062,142.536h1.368a1.628,1.628,0,1,1,0,3.247h-1.368Zm1.341,2.844a1.224,1.224,0,1,0,0-2.44h-.877v2.44Z"/>
            <path id="Trazado_227836" data-name="Trazado 227836" d="M296.791,143.96v.4l-2.078.821v-.385l1.651-.635-1.651-.636v-.385Z"/>
            <path id="Trazado_227837" data-name="Trazado 227837" d="M280.007,154.645l-1.647.636,1.647.635v.385l-2.078-.821v-.4l2.078-.821Z"/>
            <path id="Trazado_227838" data-name="Trazado 227838" d="M281.448,154.061h-1.113v-.4h2.685v.4h-1.113V156.9h-.459Z"/>
            <rect id="Rectángulo_49967" data-name="Rectángulo 49967" width="0.464" height="3.247" transform="translate(283.523 153.657)"/>
            <path id="Trazado_227839" data-name="Trazado 227839" d="M285.6,154.061h-1.113v-.4h2.685v.4h-1.113V156.9H285.6Z"/>
            <path id="Trazado_227840" data-name="Trazado 227840" d="M287.679,153.657h.464V156.5H289.9v.4h-2.222Z"/>
            <path id="Trazado_227841" data-name="Trazado 227841" d="M292.788,156.5v.4h-2.356v-3.247h2.291v.4H290.9v1h1.628v.394H290.9V156.5Z"/>
            <path id="Trazado_227842" data-name="Trazado 227842" d="M295.438,155.082v.4l-2.078.822v-.385l1.651-.636-1.651-.635v-.385Z"/>
            <path id="Trazado_227843" data-name="Trazado 227843" d="M297.48,153.657h.464V156.5H299.7v.4H297.48Z"/>
            <path id="Trazado_227844" data-name="Trazado 227844" d="M299.909,155.675a1.278,1.278,0,1,1,1.279,1.257,1.223,1.223,0,0,1-1.279-1.257m2.105,0a.829.829,0,1,0-.826.867.806.806,0,0,0,.826-.867"/>
            <path id="Trazado_227845" data-name="Trazado 227845" d="M304.4,154.423v.432a.726.726,0,0,0-.1,0,.733.733,0,0,0-.775.83V156.9h-.445v-2.459h.426v.414a.938.938,0,0,1,.9-.437"/>
            <path id="Trazado_227846" data-name="Trazado 227846" d="M307.134,155.824h-1.995a.834.834,0,0,0,.891.719.92.92,0,0,0,.71-.3l.246.288a1.34,1.34,0,0,1-2.292-.858,1.2,1.2,0,0,1,1.234-1.253,1.186,1.186,0,0,1,1.215,1.267,1.291,1.291,0,0,1-.009.134m-1.995-.32h1.578a.794.794,0,0,0-1.578,0"/>
            <path id="Trazado_227847" data-name="Trazado 227847" d="M311.839,155.49V156.9h-.445v-1.364c0-.483-.232-.719-.636-.719a.713.713,0,0,0-.737.816V156.9h-.446v-1.364c0-.483-.231-.719-.635-.719a.714.714,0,0,0-.738.816V156.9h-.445v-2.459h.427v.366a1,1,0,0,1,.849-.389.911.911,0,0,1,.854.455,1.1,1.1,0,0,1,.945-.455.943.943,0,0,1,1.007,1.067"/>
            <path id="Trazado_227848" data-name="Trazado 227848" d="M313.823,153.685a.293.293,0,0,1,.3-.292.29.29,0,1,1-.3.292m.079.761h.445V156.9H313.9Z"/>
            <path id="Trazado_227849" data-name="Trazado 227849" d="M317.741,155.675a1.194,1.194,0,0,1-1.243,1.257,1.051,1.051,0,0,1-.858-.4V157.8h-.446v-3.358h.427v.388a1.053,1.053,0,0,1,.877-.413,1.193,1.193,0,0,1,1.243,1.253m-.45,0a.829.829,0,1,0-.83.867.812.812,0,0,0,.83-.867"/>
            <path id="Trazado_227850" data-name="Trazado 227850" d="M318.044,156.645l.186-.353a1.576,1.576,0,0,0,.862.256c.413,0,.585-.126.585-.334,0-.552-1.554-.074-1.554-1.053,0-.441.4-.738,1.026-.738a1.788,1.788,0,0,1,.894.223l-.189.352a1.292,1.292,0,0,0-.71-.194c-.39,0-.58.143-.58.338,0,.58,1.558.107,1.558,1.062,0,.445-.408.729-1.062.729a1.768,1.768,0,0,1-1.016-.288"/>
            <path id="Trazado_227851" data-name="Trazado 227851" d="M322.969,154.446V156.9h-.422v-.371a1,1,0,0,1-.836.4.965.965,0,0,1-1.057-1.071v-1.415h.446v1.364c0,.482.24.723.663.723a.723.723,0,0,0,.761-.816v-1.271Z"/>
            <path id="Trazado_227852" data-name="Trazado 227852" d="M327.9,155.49V156.9h-.445v-1.364c0-.483-.232-.719-.636-.719a.713.713,0,0,0-.737.816V156.9h-.446v-1.364c0-.483-.231-.719-.635-.719a.714.714,0,0,0-.738.816V156.9h-.445v-2.459h.427v.366a1,1,0,0,1,.849-.389.911.911,0,0,1,.854.455,1.1,1.1,0,0,1,.945-.455.943.943,0,0,1,1.007,1.067"/>
            <path id="Trazado_227853" data-name="Trazado 227853" d="M331.925,154.645l-1.647.636,1.647.635v.385l-2.078-.821v-.4l2.078-.821Z"/>
            <path id="Trazado_227854" data-name="Trazado 227854" d="M333.635,153h.4l-1.531,4.37h-.4Z"/>
            <path id="Trazado_227855" data-name="Trazado 227855" d="M335.135,154.061h-1.113v-.4h2.685v.4h-1.113V156.9h-.459Z"/>
            <rect id="Rectángulo_49968" data-name="Rectángulo 49968" width="0.464" height="3.247" transform="translate(337.211 153.657)"/>
            <path id="Trazado_227856" data-name="Trazado 227856" d="M339.292,154.061h-1.113v-.4h2.685v.4h-1.113V156.9h-.459Z"/>
            <path id="Trazado_227857" data-name="Trazado 227857" d="M341.367,153.657h.464V156.5h1.758v.4h-2.222Z"/>
            <path id="Trazado_227858" data-name="Trazado 227858" d="M346.477,156.5v.4H344.12v-3.247h2.292v.4h-1.828v1h1.628v.394h-1.628V156.5Z"/>
            <path id="Trazado_227859" data-name="Trazado 227859" d="M349.126,155.082v.4l-2.078.822v-.385l1.651-.636-1.651-.635v-.385Z"/>
            <path id="Trazado_227860" data-name="Trazado 227860" d="M280.007,165.766l-1.647.636,1.647.635v.385l-2.078-.821v-.4l2.078-.821Z"/>
            <path id="Trazado_227861" data-name="Trazado 227861" d="M281.717,164.12h.4l-1.531,4.37h-.4Z"/>
            <path id="Trazado_227862" data-name="Trazado 227862" d="M285.226,164.778v3.247h-.464v-1.447H282.9v1.447h-.464v-3.247h.464v1.4h1.864v-1.4Z"/>
            <path id="Trazado_227863" data-name="Trazado 227863" d="M288.553,167.622v.4H286.2v-3.247h2.292v.4H286.66v1h1.628v.394H286.66v1.048Z"/>
            <path id="Trazado_227864" data-name="Trazado 227864" d="M291.369,167.214h-1.726l-.356.812h-.478l1.47-3.247h.459l1.476,3.247h-.487Zm-.162-.372-.7-1.59-.7,1.59Z"/>
            <path id="Trazado_227865" data-name="Trazado 227865" d="M292.693,164.779h1.368a1.628,1.628,0,1,1,0,3.247h-1.368Zm1.341,2.843a1.224,1.224,0,1,0,0-2.44h-.876v2.44Z"/>
            <path id="Trazado_227866" data-name="Trazado 227866" d="M298.422,166.2v.4l-2.078.822v-.385L298,166.4l-1.651-.635v-.385Z"/>
            <path id="Trazado_227867" data-name="Trazado 227867" d="M271.393,175.419l-1.646.635,1.646.635v.386l-2.078-.821v-.4l2.078-.82Z"/>
            <path id="Trazado_227868" data-name="Trazado 227868" d="M274.981,176.8c0,.557-.422.877-1.243.877h-1.549V174.43h1.456c.747,0,1.164.315,1.164.84a.769.769,0,0,1-.436.723.785.785,0,0,1,.608.807m-2.328-1.994v1.039h.951c.473,0,.742-.177.742-.519s-.269-.52-.742-.52Zm1.859,1.957c0-.376-.277-.543-.793-.543h-1.066V177.3h1.066c.516,0,.793-.162.793-.538"/>
            <path id="Trazado_227869" data-name="Trazado 227869" d="M275.432,176.054a1.727,1.727,0,1,1,1.73,1.661,1.65,1.65,0,0,1-1.73-1.661m2.987,0a1.262,1.262,0,1,0-1.257,1.248,1.218,1.218,0,0,0,1.257-1.248"/>
            <path id="Trazado_227870" data-name="Trazado 227870" d="M279.589,174.43h1.368a1.628,1.628,0,1,1,0,3.247h-1.368Zm1.341,2.844a1.224,1.224,0,1,0,0-2.44h-.877v2.44Z"/>
            <path id="Trazado_227871" data-name="Trazado 227871" d="M284.521,176.555v1.122h-.46v-1.131l-1.289-2.116h.5l1.039,1.712,1.044-1.712h.459Z"/>
            <path id="Trazado_227872" data-name="Trazado 227872" d="M288.177,175.854v.4l-2.078.821v-.385l1.651-.635-1.651-.635v-.386Z"/>
            <path id="Trazado_227873" data-name="Trazado 227873" d="M271.393,186.54l-1.646.636,1.646.635v.385l-2.078-.821v-.4l2.078-.822Z"/>
            <path id="Trazado_227874" data-name="Trazado 227874" d="M274.981,185.552V188.8h-.464v-1.447h-1.864V188.8h-.464v-3.247h.464v1.4h1.864v-1.4Z"/>
            <path id="Trazado_227875" data-name="Trazado 227875" d="M276.694,185.552V188.8h-.459v-2.843H275.5v-.4Z"/>
            <path id="Trazado_227876" data-name="Trazado 227876" d="M279.567,186.976v.4l-2.078.822v-.385l1.651-.636-1.651-.636v-.384Z"/>
            <path id="Trazado_227877" data-name="Trazado 227877" d="M281.651,185.552h.343v2.95h1.818v.3h-2.161Z"/>
            <path id="Trazado_227878" data-name="Trazado 227878" d="M284.028,187.579a1.24,1.24,0,1,1,1.242,1.243,1.2,1.2,0,0,1-1.242-1.243m2.147,0a.908.908,0,1,0-.9.951.891.891,0,0,0,.9-.951"/>
            <path id="Trazado_227879" data-name="Trazado 227879" d="M288.408,186.34v.32c-.029,0-.057,0-.08,0a.788.788,0,0,0-.82.9V188.8h-.33v-2.44h.315v.477a.922.922,0,0,1,.915-.5"/>
            <path id="Trazado_227880" data-name="Trazado 227880" d="M291.1,187.681h-2.041a.9.9,0,0,0,.96.849.96.96,0,0,0,.747-.321l.186.214a1.291,1.291,0,0,1-2.223-.844,1.176,1.176,0,0,1,1.192-1.239,1.163,1.163,0,0,1,1.183,1.239c0,.028,0,.065,0,.1m-2.041-.246h1.73a.867.867,0,0,0-1.73,0"/>
            <path id="Trazado_227881" data-name="Trazado 227881" d="M295.8,187.384V188.8h-.329v-1.382c0-.515-.26-.78-.7-.78a.785.785,0,0,0-.817.881V188.8h-.329v-1.382c0-.515-.26-.78-.705-.78a.786.786,0,0,0-.816.881V188.8h-.33v-2.44h.315v.446a.987.987,0,0,1,.9-.465.877.877,0,0,1,.867.515,1.064,1.064,0,0,1,.965-.515.921.921,0,0,1,.983,1.044"/>
            <path id="Trazado_227882" data-name="Trazado 227882" d="M297.831,185.589a.238.238,0,0,1,.242-.232.234.234,0,0,1,.241.228.237.237,0,0,1-.241.241.239.239,0,0,1-.242-.237m.075.77h.329v2.44h-.329Z"/>
            <path id="Trazado_227883" data-name="Trazado 227883" d="M301.625,187.579a1.181,1.181,0,0,1-1.215,1.243,1.066,1.066,0,0,1-.928-.482V189.7h-.329v-3.34h.315v.483a1.063,1.063,0,0,1,.942-.5,1.18,1.18,0,0,1,1.215,1.238m-.329,0a.91.91,0,1,0-.909.951.9.9,0,0,0,.909-.951"/>
            <path id="Trazado_227884" data-name="Trazado 227884" d="M301.955,188.521l.148-.26a1.481,1.481,0,0,0,.869.274c.463,0,.653-.158.653-.4,0-.636-1.581-.135-1.581-1.1,0-.4.343-.7.965-.7a1.653,1.653,0,0,1,.862.227l-.143.264a1.256,1.256,0,0,0-.719-.208c-.441,0-.636.171-.636.4,0,.659,1.582.163,1.582,1.1,0,.422-.371.7-1.007.7a1.638,1.638,0,0,1-.993-.3"/>
            <path id="Trazado_227885" data-name="Trazado 227885" d="M306.759,186.359v2.44h-.315v-.445a.972.972,0,0,1-.877.468.945.945,0,0,1-1.03-1.048v-1.415h.329v1.382a.683.683,0,0,0,.733.784.793.793,0,0,0,.831-.886v-1.28Z"/>
            <path id="Trazado_227886" data-name="Trazado 227886" d="M311.7,187.384V188.8h-.329v-1.382c0-.515-.26-.78-.7-.78a.785.785,0,0,0-.817.881V188.8h-.33v-1.382c0-.515-.259-.78-.7-.78a.786.786,0,0,0-.816.881V188.8h-.329v-2.44h.315v.446a.987.987,0,0,1,.9-.465.877.877,0,0,1,.867.515,1.064,1.064,0,0,1,.965-.515.921.921,0,0,1,.983,1.044"/>
            <path id="Trazado_227887" data-name="Trazado 227887" d="M316.035,185.357V188.8h-.315v-.482a1.058,1.058,0,0,1-.942.505,1.241,1.241,0,0,1,0-2.481,1.066,1.066,0,0,1,.928.482v-1.466Zm-.324,2.222a.908.908,0,1,0-.9.951.893.893,0,0,0,.9-.951"/>
            <path id="Trazado_227888" data-name="Trazado 227888" d="M316.706,187.579a1.241,1.241,0,1,1,1.244,1.243,1.2,1.2,0,0,1-1.244-1.243m2.148,0a.908.908,0,1,0-.9.951.89.89,0,0,0,.9-.951"/>
            <rect id="Rectángulo_49969" data-name="Rectángulo 49969" width="0.329" height="3.442" transform="translate(319.857 185.357)"/>
            <path id="Trazado_227889" data-name="Trazado 227889" d="M320.858,187.579a1.24,1.24,0,1,1,1.242,1.243,1.2,1.2,0,0,1-1.242-1.243m2.147,0a.908.908,0,1,0-.9.951.891.891,0,0,0,.9-.951"/>
            <path id="Trazado_227890" data-name="Trazado 227890" d="M325.238,186.34v.32c-.028,0-.056,0-.079,0a.788.788,0,0,0-.82.9V188.8h-.33v-2.44h.315v.477a.921.921,0,0,1,.914-.5"/>
            <path id="Trazado_227891" data-name="Trazado 227891" d="M326.742,188.521l.148-.26a1.475,1.475,0,0,0,.868.274c.463,0,.654-.158.654-.4,0-.636-1.582-.135-1.582-1.1,0-.4.343-.7.965-.7a1.653,1.653,0,0,1,.862.227l-.143.264a1.254,1.254,0,0,0-.719-.208c-.442,0-.636.171-.636.4,0,.659,1.582.163,1.582,1.1,0,.422-.371.7-1.007.7a1.632,1.632,0,0,1-.992-.3"/>
            <path id="Trazado_227892" data-name="Trazado 227892" d="M329.273,185.589a.237.237,0,0,1,.241-.232.234.234,0,0,1,.241.228.241.241,0,0,1-.482,0m.074.77h.329v2.44h-.329Z"/>
            <path id="Trazado_227893" data-name="Trazado 227893" d="M331.878,188.651a.785.785,0,0,1-.515.171.646.646,0,0,1-.714-.709v-1.475h-.436v-.279h.436v-.533h.33v.533h.742v.279h-.742v1.456a.391.391,0,0,0,.421.446.543.543,0,0,0,.362-.126Z"/>
            <path id="Trazado_227894" data-name="Trazado 227894" d="M335.53,187.287V188.8h-.315v-.38a.918.918,0,0,1-.84.4c-.552,0-.891-.287-.891-.71,0-.375.241-.691.942-.691h.776v-.148c0-.418-.237-.645-.692-.645a1.238,1.238,0,0,0-.812.288l-.147-.246a1.544,1.544,0,0,1,.991-.33.867.867,0,0,1,.988.947m-.328.779v-.4h-.767c-.471,0-.626.186-.626.436,0,.283.229.459.617.459a.782.782,0,0,0,.776-.5"/>
            <path id="Trazado_227895" data-name="Trazado 227895" d="M340.449,187.384V188.8h-.329v-1.382c0-.515-.26-.78-.7-.78a.785.785,0,0,0-.817.881V188.8h-.329v-1.382c0-.515-.26-.78-.7-.78a.786.786,0,0,0-.816.881V188.8h-.33v-2.44h.315v.446a.987.987,0,0,1,.9-.465.877.877,0,0,1,.867.515,1.063,1.063,0,0,1,.965-.515.921.921,0,0,1,.983,1.044"/>
            <path id="Trazado_227896" data-name="Trazado 227896" d="M343.473,187.681h-2.041a.9.9,0,0,0,.96.849.961.961,0,0,0,.747-.321l.185.214a1.29,1.29,0,0,1-2.222-.844,1.176,1.176,0,0,1,1.192-1.239,1.163,1.163,0,0,1,1.183,1.239c0,.028,0,.065,0,.1m-2.041-.246h1.73a.867.867,0,0,0-1.73,0"/>
            <path id="Trazado_227897" data-name="Trazado 227897" d="M345.432,188.651a.783.783,0,0,1-.515.171.646.646,0,0,1-.715-.709v-1.475h-.435v-.279h.435v-.533h.33v.533h.742v.279h-.742v1.456a.391.391,0,0,0,.422.446.545.545,0,0,0,.362-.126Z"/>
            <path id="Trazado_227898" data-name="Trazado 227898" d="M346.358,188.567a.76.76,0,0,1-.064.269l-.2.64h-.222l.158-.673a.233.233,0,0,1-.168-.236.246.246,0,1,1,.492,0"/>
            <path id="Trazado_227899" data-name="Trazado 227899" d="M348.026,187.579a1.2,1.2,0,0,1,1.258-1.238,1.065,1.065,0,0,1,.955.482l-.246.167a.827.827,0,0,0-.709-.362.951.951,0,0,0,0,1.9.822.822,0,0,0,.709-.357l.246.167a1.075,1.075,0,0,1-.955.482,1.2,1.2,0,0,1-1.258-1.243"/>
            <path id="Trazado_227900" data-name="Trazado 227900" d="M350.593,187.579a1.241,1.241,0,1,1,1.244,1.243,1.2,1.2,0,0,1-1.244-1.243m2.148,0a.908.908,0,1,0-.9.951.89.89,0,0,0,.9-.951"/>
            <path id="Trazado_227901" data-name="Trazado 227901" d="M355.99,187.384V188.8h-.329v-1.382a.682.682,0,0,0-.732-.78.8.8,0,0,0-.854.881V188.8h-.33v-2.44h.315v.45a1.027,1.027,0,0,1,.928-.469.934.934,0,0,1,1,1.044"/>
            <path id="Trazado_227902" data-name="Trazado 227902" d="M356.543,188.521l.148-.26a1.475,1.475,0,0,0,.868.274c.463,0,.654-.158.654-.4,0-.636-1.582-.135-1.582-1.1,0-.4.343-.7.965-.7a1.653,1.653,0,0,1,.862.227l-.144.264a1.248,1.248,0,0,0-.718-.208c-.442,0-.636.171-.636.4,0,.659,1.582.163,1.582,1.1,0,.422-.371.7-1.007.7a1.632,1.632,0,0,1-.992-.3"/>
            <path id="Trazado_227903" data-name="Trazado 227903" d="M361.272,187.681h-2.041a.9.9,0,0,0,.96.849.961.961,0,0,0,.747-.321l.186.214a1.291,1.291,0,0,1-2.223-.844,1.176,1.176,0,0,1,1.192-1.239,1.163,1.163,0,0,1,1.183,1.239c0,.028,0,.065,0,.1m-2.041-.246h1.73a.867.867,0,0,0-1.73,0"/>
            <path id="Trazado_227904" data-name="Trazado 227904" d="M361.7,187.579a1.2,1.2,0,0,1,1.258-1.238,1.065,1.065,0,0,1,.955.482l-.246.167a.827.827,0,0,0-.709-.362.951.951,0,0,0,0,1.9.822.822,0,0,0,.709-.357l.246.167a1.075,1.075,0,0,1-.955.482,1.2,1.2,0,0,1-1.258-1.243"/>
            <path id="Trazado_227905" data-name="Trazado 227905" d="M365.867,188.651a.783.783,0,0,1-.515.171.645.645,0,0,1-.714-.709v-1.475H364.2v-.279h.436v-.533h.329v.533h.742v.279h-.742v1.456a.391.391,0,0,0,.422.446.545.545,0,0,0,.362-.126Z"/>
            <path id="Trazado_227906" data-name="Trazado 227906" d="M368.5,187.681H366.46a.9.9,0,0,0,.96.849.961.961,0,0,0,.747-.321l.186.214a1.29,1.29,0,0,1-2.222-.844,1.189,1.189,0,1,1,2.375,0c0,.028-.005.065-.005.1m-2.041-.246h1.729a.866.866,0,0,0-1.729,0"/>
            <path id="Trazado_227907" data-name="Trazado 227907" d="M370.46,188.651a.785.785,0,0,1-.515.171.646.646,0,0,1-.714-.709v-1.475H368.8v-.279h.436v-.533h.33v.533h.742v.279h-.742v1.456a.391.391,0,0,0,.421.446.543.543,0,0,0,.362-.126Z"/>
            <path id="Trazado_227908" data-name="Trazado 227908" d="M373.255,186.359v2.44h-.315v-.445a.972.972,0,0,1-.877.468.945.945,0,0,1-1.03-1.048v-1.415h.329v1.382a.683.683,0,0,0,.733.784.793.793,0,0,0,.831-.886v-1.28Z"/>
            <path id="Trazado_227909" data-name="Trazado 227909" d="M376.3,187.681h-2.041a.9.9,0,0,0,.96.849.961.961,0,0,0,.747-.321l.186.214a1.291,1.291,0,0,1-2.223-.844,1.175,1.175,0,0,1,1.192-1.239,1.163,1.163,0,0,1,1.183,1.239c0,.028,0,.065,0,.1m-2.041-.246h1.73a.867.867,0,0,0-1.73,0"/>
            <path id="Trazado_227910" data-name="Trazado 227910" d="M378.2,186.34v.32c-.027,0-.056,0-.079,0a.789.789,0,0,0-.821.9V188.8h-.329v-2.44h.315v.477a.921.921,0,0,1,.914-.5"/>
            <path id="Trazado_227911" data-name="Trazado 227911" d="M271.3,192.848v1.512h-.315v-.381a.917.917,0,0,1-.84.4c-.552,0-.891-.287-.891-.71,0-.375.241-.691.943-.691h.774v-.148c0-.418-.237-.645-.691-.645a1.238,1.238,0,0,0-.812.288l-.148-.246a1.546,1.546,0,0,1,.992-.33.867.867,0,0,1,.988.947m-.329.779v-.4h-.766c-.473,0-.626.186-.626.436,0,.283.227.459.618.459a.78.78,0,0,0,.774-.5"/>
            <path id="Trazado_227912" data-name="Trazado 227912" d="M274.433,190.917v3.442h-.315v-.482a1.057,1.057,0,0,1-.942.505,1.241,1.241,0,0,1,0-2.481,1.066,1.066,0,0,1,.928.482v-1.466Zm-.324,2.222a.908.908,0,1,0-.9.951.893.893,0,0,0,.9-.951"/>
            <path id="Trazado_227913" data-name="Trazado 227913" d="M275.274,191.15a.237.237,0,0,1,.241-.232.234.234,0,1,1,0,.468.238.238,0,0,1-.241-.236m.074.77h.33v2.44h-.33Z"/>
            <path id="Trazado_227914" data-name="Trazado 227914" d="M279.068,193.139a1.181,1.181,0,0,1-1.216,1.243,1.068,1.068,0,0,1-.927-.482v1.359h-.33v-3.34h.316v.483a1.061,1.061,0,0,1,.941-.5,1.18,1.18,0,0,1,1.216,1.238m-.329,0a.91.91,0,1,0-.909.951.9.9,0,0,0,.909-.951"/>
            <path id="Trazado_227915" data-name="Trazado 227915" d="M279.662,191.15a.238.238,0,0,1,.242-.232.234.234,0,1,1,0,.468.239.239,0,0,1-.242-.236m.075.77h.33v2.44h-.33Z"/>
            <path id="Trazado_227916" data-name="Trazado 227916" d="M280.645,194.081l.148-.26a1.475,1.475,0,0,0,.868.274c.463,0,.654-.158.654-.4,0-.636-1.582-.135-1.582-1.1,0-.4.343-.7.965-.7a1.653,1.653,0,0,1,.862.227l-.144.265a1.242,1.242,0,0,0-.718-.209c-.442,0-.636.171-.636.4,0,.659,1.582.162,1.582,1.1,0,.422-.371.7-1.007.7a1.632,1.632,0,0,1-.992-.3"/>
            <path id="Trazado_227917" data-name="Trazado 227917" d="M283,193.139a1.2,1.2,0,0,1,1.257-1.238,1.063,1.063,0,0,1,.955.482l-.245.167a.832.832,0,0,0-.71-.362.951.951,0,0,0,0,1.9.828.828,0,0,0,.71-.357l.245.167a1.074,1.074,0,0,1-.955.482A1.2,1.2,0,0,1,283,193.139"/>
            <path id="Trazado_227918" data-name="Trazado 227918" d="M285.784,191.15a.237.237,0,0,1,.241-.232.233.233,0,0,1,.241.227.241.241,0,0,1-.482,0m.074.77h.33v2.44h-.33Z"/>
            <path id="Trazado_227919" data-name="Trazado 227919" d="M289.35,192.945v1.415h-.329v-1.383a.681.681,0,0,0-.733-.779.8.8,0,0,0-.854.881v1.281h-.329v-2.44h.315v.45a1.027,1.027,0,0,1,.928-.469.934.934,0,0,1,1,1.044"/>
            <path id="Trazado_227920" data-name="Trazado 227920" d="M292.51,191.919v2.143a1.071,1.071,0,0,1-1.22,1.221,1.7,1.7,0,0,1-1.137-.376l.168-.251a1.448,1.448,0,0,0,.96.334c.616,0,.9-.283.9-.886v-.311a1.1,1.1,0,0,1-.951.473,1.183,1.183,0,1,1,0-2.365,1.1,1.1,0,0,1,.965.487v-.469Zm-.32,1.16a.927.927,0,1,0-.928.9.873.873,0,0,0,.928-.9"/>
            <path id="Trazado_227921" data-name="Trazado 227921" d="M296.769,193.242h-2.041a.9.9,0,0,0,.96.849.961.961,0,0,0,.747-.321l.185.214a1.289,1.289,0,0,1-2.221-.844,1.189,1.189,0,1,1,2.375,0c0,.028,0,.065,0,.1M294.728,193h1.729a.866.866,0,0,0-1.729,0"/>
            <rect id="Rectángulo_49970" data-name="Rectángulo 49970" width="0.329" height="3.442" transform="translate(297.443 190.918)"/>
            <path id="Trazado_227922" data-name="Trazado 227922" d="M298.615,191.15a.237.237,0,0,1,.241-.232.233.233,0,0,1,.241.227.241.241,0,0,1-.482,0m.074.77h.329v2.44h-.329Z"/>
            <path id="Trazado_227923" data-name="Trazado 227923" d="M301.221,194.211a.783.783,0,0,1-.515.171.646.646,0,0,1-.715-.709V192.2h-.435v-.279h.435v-.533h.33v.533h.742v.279h-.742v1.456a.391.391,0,0,0,.422.446.545.545,0,0,0,.362-.126Z"/>
            <path id="Trazado_227924" data-name="Trazado 227924" d="M302.146,194.128a.744.744,0,0,1-.065.269l-.2.64h-.222l.157-.673a.233.233,0,0,1-.166-.236.246.246,0,1,1,.491,0"/>
            <path id="Trazado_227925" data-name="Trazado 227925" d="M303.721,194.081l.148-.26a1.481,1.481,0,0,0,.869.274c.463,0,.653-.158.653-.4,0-.636-1.581-.135-1.581-1.1,0-.4.343-.7.965-.7a1.653,1.653,0,0,1,.862.227l-.144.265a1.244,1.244,0,0,0-.718-.209c-.441,0-.636.171-.636.4,0,.659,1.582.162,1.582,1.1,0,.422-.371.7-1.007.7a1.638,1.638,0,0,1-.993-.3"/>
            <path id="Trazado_227926" data-name="Trazado 227926" d="M308.45,193.242h-2.041a.9.9,0,0,0,.96.849.96.96,0,0,0,.747-.321l.186.214a1.29,1.29,0,0,1-2.222-.844,1.189,1.189,0,1,1,2.375,0c0,.028,0,.065,0,.1M306.409,193h1.73a.867.867,0,0,0-1.73,0"/>
            <path id="Trazado_227927" data-name="Trazado 227927" d="M311.351,190.917v3.442h-.315v-.482a1.057,1.057,0,0,1-.942.505,1.241,1.241,0,0,1,0-2.481,1.066,1.066,0,0,1,.928.482v-1.466Zm-.324,2.222a.908.908,0,1,0-.9.951.893.893,0,0,0,.9-.951"/>
            <path id="Trazado_227928" data-name="Trazado 227928" d="M315.706,190.917v3.442h-.315v-.482a1.058,1.058,0,0,1-.942.505,1.241,1.241,0,0,1,0-2.481,1.066,1.066,0,0,1,.928.482v-1.466Zm-.324,2.222a.908.908,0,1,0-.9.951.893.893,0,0,0,.9-.951"/>
            <path id="Trazado_227929" data-name="Trazado 227929" d="M316.547,191.15a.238.238,0,0,1,.241-.232.234.234,0,1,1,0,.468.239.239,0,0,1-.241-.236m.074.77h.33v2.44h-.33Z"/>
            <path id="Trazado_227930" data-name="Trazado 227930" d="M319.71,192.848v1.512h-.315v-.381a.916.916,0,0,1-.84.4c-.552,0-.891-.287-.891-.71,0-.375.241-.691.942-.691h.775v-.148c0-.418-.236-.645-.691-.645a1.238,1.238,0,0,0-.812.288l-.148-.246a1.544,1.544,0,0,1,.992-.33.867.867,0,0,1,.988.947m-.329.779v-.4h-.766c-.472,0-.626.186-.626.436,0,.283.228.459.617.459a.781.781,0,0,0,.775-.5"/>
            <path id="Trazado_227931" data-name="Trazado 227931" d="M324.629,192.945v1.415H324.3v-1.383c0-.514-.26-.779-.7-.779a.785.785,0,0,0-.817.881v1.281h-.33v-1.383c0-.514-.259-.779-.705-.779a.786.786,0,0,0-.816.881v1.281H320.6v-2.44h.315v.445a.988.988,0,0,1,.9-.464.877.877,0,0,1,.867.515,1.062,1.062,0,0,1,.965-.515.921.921,0,0,1,.983,1.044"/>
            <path id="Trazado_227932" data-name="Trazado 227932" d="M327.449,192.1l-1.647.636,1.647.635v.385l-2.078-.821v-.4l2.078-.821Z"/>
            <path id="Trazado_227933" data-name="Trazado 227933" d="M329.159,190.454h.4l-1.531,4.37h-.4Z"/>
            <path id="Trazado_227934" data-name="Trazado 227934" d="M332.667,191.112v3.247H332.2v-1.447h-1.864v1.447h-.464v-3.247h.464v1.4H332.2v-1.4Z"/>
            <path id="Trazado_227935" data-name="Trazado 227935" d="M334.38,191.112v3.247h-.46v-2.843h-.732v-.4Z"/>
            <path id="Trazado_227936" data-name="Trazado 227936" d="M337.254,192.537v.4l-2.078.822v-.385l1.651-.636-1.651-.635v-.385Z"/>
            <path id="Trazado_227937" data-name="Trazado 227937" d="M271.393,203.222l-1.646.635,1.646.635v.386l-2.078-.821v-.4l2.078-.82Z"/>
            <path id="Trazado_227938" data-name="Trazado 227938" d="M274.809,203.366c0,.705-.51,1.132-1.354,1.132h-.8v.983h-.464v-3.247h1.266c.844,0,1.354.427,1.354,1.132m-.463,0c0-.464-.312-.729-.9-.729h-.788V204.1h.788c.593,0,.9-.265.9-.729"/>
            <path id="Trazado_227939" data-name="Trazado 227939" d="M277.436,203.658v.4l-2.078.821v-.385l1.651-.635-1.651-.635v-.386Z"/>
            <path id="Trazado_227940" data-name="Trazado 227940" d="M281.379,203.222l-1.647.635,1.647.635v.386l-2.078-.821v-.4l2.078-.82Z"/>
            <rect id="Rectángulo_49971" data-name="Rectángulo 49971" width="0.464" height="3.247" transform="translate(282.174 202.234)"/>
            <path id="Trazado_227941" data-name="Trazado 227941" d="M286.621,205.481l-.005-2.366-1.174,1.971h-.214l-1.172-1.957v2.352h-.446v-3.247h.38l1.355,2.282,1.336-2.282h.38l.005,3.247Z"/>
            <path id="Trazado_227942" data-name="Trazado 227942" d="M290.285,203.839h.445V205.1a1.914,1.914,0,0,1-1.228.413,1.662,1.662,0,1,1,1.257-2.82l-.288.287a1.29,1.29,0,0,0-.942-.375,1.248,1.248,0,1,0,0,2.495,1.374,1.374,0,0,0,.76-.208Z"/>
            <path id="Trazado_227943" data-name="Trazado 227943" d="M292.563,205.11l.172-.362a1.666,1.666,0,0,0,1.071.376c.562,0,.8-.218.8-.5,0-.793-1.967-.292-1.967-1.5,0-.5.391-.928,1.244-.928a1.911,1.911,0,0,1,1.043.287l-.152.372a1.671,1.671,0,0,0-.891-.265c-.552,0-.789.232-.789.515,0,.793,1.967.3,1.967,1.489,0,.5-.4.923-1.257.923a1.927,1.927,0,0,1-1.243-.408"/>
            <path id="Trazado_227944" data-name="Trazado 227944" d="M297.909,205.481l-.7-1c-.065.005-.134.009-.2.009h-.8v.988h-.464v-3.247H297c.844,0,1.354.427,1.354,1.132a1.025,1.025,0,0,1-.714,1.025l.771,1.09Zm-.014-2.115c0-.464-.312-.729-.9-.729H296.2V204.1h.788c.593,0,.9-.269.9-.733"/>
            <path id="Trazado_227945" data-name="Trazado 227945" d="M298.842,203.858a1.642,1.642,0,0,1,1.721-1.661,1.605,1.605,0,0,1,1.234.506l-.3.292a1.2,1.2,0,0,0-.914-.384,1.248,1.248,0,1,0,0,2.5,1.206,1.206,0,0,0,.914-.39l.3.292a1.612,1.612,0,0,1-1.238.511,1.641,1.641,0,0,1-1.717-1.661"/>
            <path id="Trazado_227946" data-name="Trazado 227946" d="M302.28,203.125h2.078v.366H302.28Zm0,1.1h2.078v.366H302.28Z"/>
            <path id="Trazado_227947" data-name="Trazado 227947" d="M306.2,202.234h.39l-.032,1.252h-.33Zm.84,0h.39l-.033,1.252h-.329Z"/>
            <path id="Trazado_227948" data-name="Trazado 227948" d="M308.212,202.234h.464v2.844h1.758v.4h-2.222Z"/>
            <path id="Trazado_227949" data-name="Trazado 227949" d="M310.639,204.252a1.278,1.278,0,1,1,1.281,1.257,1.224,1.224,0,0,1-1.281-1.257m2.106,0a.829.829,0,1,0-1.656,0,.829.829,0,1,0,1.656,0"/>
            <path id="Trazado_227950" data-name="Trazado 227950" d="M315.131,203v.431a.905.905,0,0,0-.1,0,.733.733,0,0,0-.775.83v1.224h-.445v-2.458h.426v.413a.94.94,0,0,1,.9-.436"/>
            <path id="Trazado_227951" data-name="Trazado 227951" d="M317.866,204.4h-1.995a.834.834,0,0,0,.891.719.916.916,0,0,0,.71-.3l.246.288a1.34,1.34,0,0,1-2.292-.859A1.2,1.2,0,0,1,316.66,203a1.185,1.185,0,0,1,1.215,1.267,1.29,1.29,0,0,1-.009.134m-1.995-.32h1.578a.794.794,0,0,0-1.578,0"/>
            <path id="Trazado_227952" data-name="Trazado 227952" d="M322.572,204.066v1.415h-.445v-1.364c0-.482-.232-.719-.636-.719a.713.713,0,0,0-.737.816v1.267h-.446v-1.364c0-.482-.231-.719-.635-.719a.714.714,0,0,0-.738.816v1.267h-.445v-2.458h.427v.366a1,1,0,0,1,.849-.389.912.912,0,0,1,.854.454,1.1,1.1,0,0,1,.945-.454.942.942,0,0,1,1.007,1.066"/>
            <path id="Trazado_227953" data-name="Trazado 227953" d="M324.555,202.262a.294.294,0,0,1,.3-.293.29.29,0,1,1-.3.293m.079.761h.445v2.458h-.445Z"/>
            <path id="Trazado_227954" data-name="Trazado 227954" d="M328.474,204.252a1.194,1.194,0,0,1-1.243,1.257,1.048,1.048,0,0,1-.858-.4v1.271h-.446v-3.358h.427v.39a1.047,1.047,0,0,1,.877-.413,1.193,1.193,0,0,1,1.243,1.252m-.45,0a.829.829,0,1,0-.83.868.812.812,0,0,0,.83-.868"/>
            <path id="Trazado_227955" data-name="Trazado 227955" d="M328.777,205.221l.185-.352a1.587,1.587,0,0,0,.863.254c.413,0,.585-.125.585-.334,0-.551-1.554-.074-1.554-1.052,0-.441.4-.738,1.025-.738a1.778,1.778,0,0,1,.895.223l-.189.353a1.286,1.286,0,0,0-.71-.2c-.39,0-.58.144-.58.339,0,.58,1.558.107,1.558,1.063,0,.445-.408.728-1.062.728a1.775,1.775,0,0,1-1.016-.288"/>
            <path id="Trazado_227956" data-name="Trazado 227956" d="M333.7,203.023v2.458h-.424v-.371a1,1,0,0,1-.834.4.966.966,0,0,1-1.058-1.071v-1.415h.445v1.364c0,.482.242.723.664.723a.723.723,0,0,0,.761-.816v-1.271Z"/>
            <path id="Trazado_227957" data-name="Trazado 227957" d="M338.628,204.066v1.415h-.445v-1.364c0-.482-.232-.719-.636-.719a.713.713,0,0,0-.737.816v1.267h-.446v-1.364c0-.482-.231-.719-.635-.719a.714.714,0,0,0-.738.816v1.267h-.445v-2.458h.427v.366a1,1,0,0,1,.849-.389.912.912,0,0,1,.854.454,1.1,1.1,0,0,1,.945-.454.942.942,0,0,1,1.007,1.066"/>
            <path id="Trazado_227958" data-name="Trazado 227958" d="M339.314,202.234h.39l-.032,1.252h-.329Zm.84,0h.39l-.032,1.252h-.33Z"/>
            <path id="Trazado_227959" data-name="Trazado 227959" d="M343.222,203.658v.4l-2.078.821v-.385l1.651-.635-1.651-.635v-.386Z"/>
            <path id="Trazado_227960" data-name="Trazado 227960" d="M345.919,203.222l-1.646.635,1.646.635v.386l-2.078-.821v-.4l2.078-.82Z"/>
            <path id="Trazado_227961" data-name="Trazado 227961" d="M347.629,201.575h.4l-1.531,4.37h-.4Z"/>
            <path id="Trazado_227962" data-name="Trazado 227962" d="M350.967,203.366c0,.705-.511,1.132-1.356,1.132h-.8v.983h-.464v-3.247h1.265c.845,0,1.356.427,1.356,1.132m-.465,0c0-.464-.311-.729-.9-.729h-.788V204.1h.788c.593,0,.9-.265.9-.729"/>
            <path id="Trazado_227963" data-name="Trazado 227963" d="M353.593,203.658v.4l-2.078.821v-.385l1.651-.635-1.651-.635v-.386Z"/>
            <path id="Trazado_227964" data-name="Trazado 227964" d="M271.393,214.343l-1.646.636,1.646.635V216l-2.078-.821v-.4l2.078-.821Z"/>
            <path id="Trazado_227965" data-name="Trazado 227965" d="M273.1,212.7h.4l-1.531,4.37h-.4Z"/>
            <path id="Trazado_227966" data-name="Trazado 227966" d="M276.612,215.726c0,.557-.422.876-1.243.876H273.82v-3.247h1.456c.747,0,1.164.316,1.164.84a.769.769,0,0,1-.436.723.786.786,0,0,1,.608.808m-2.328-1.995v1.039h.951c.473,0,.742-.176.742-.52s-.269-.519-.742-.519Zm1.859,1.958c0-.376-.277-.543-.793-.543h-1.066v1.081h1.066c.516,0,.793-.162.793-.538"/>
            <path id="Trazado_227967" data-name="Trazado 227967" d="M277.063,214.979a1.727,1.727,0,1,1,1.73,1.661,1.65,1.65,0,0,1-1.73-1.661m2.987,0a1.262,1.262,0,1,0-1.257,1.248,1.219,1.219,0,0,0,1.257-1.248"/>
            <path id="Trazado_227968" data-name="Trazado 227968" d="M281.22,213.356h1.368a1.628,1.628,0,1,1,0,3.247H281.22Zm1.341,2.843a1.223,1.223,0,1,0,0-2.439h-.877V216.2Z"/>
            <path id="Trazado_227969" data-name="Trazado 227969" d="M286.152,215.48V216.6h-.46v-1.131l-1.289-2.116h.5l1.039,1.712,1.044-1.712h.459Z"/>
            <path id="Trazado_227970" data-name="Trazado 227970" d="M289.808,214.78v.4L287.73,216v-.385l1.651-.636-1.651-.635v-.385Z"/>
            <path id="Trazado_227971" data-name="Trazado 227971" d="M396.152,127.45c0,.144-32.093.26-71.673.26s-71.681-.116-71.681-.26,32.087-.26,71.681-.26,71.673.116,71.673.26" fill="#263238"/>
            <path id="Trazado_227972" data-name="Trazado 227972" d="M257.093,122.331a.922.922,0,1,1-.922-.922.922.922,0,0,1,.922.922" fill="#263238"/>
            <path id="Trazado_227973" data-name="Trazado 227973" d="M260.636,122.331a.922.922,0,1,1-.922-.922.922.922,0,0,1,.922.922" fill="#263238"/>
            <path id="Trazado_227974" data-name="Trazado 227974" d="M264.179,122.331a.922.922,0,1,1-.922-.922.922.922,0,0,1,.922.922" fill="#263238"/>
            <path id="Trazado_227975" data-name="Trazado 227975" d="M261.9,235.872c-.144,0-.26-24.331-.26-54.337s.116-54.342.26-54.342.26,24.326.26,54.342-.116,54.337-.26,54.337" fill="#e0e0e0"/>
            <rect id="Rectángulo_49972" data-name="Rectángulo 49972" width="59.253" height="42.237" transform="translate(61.151 21.867)" fill="#4dd0e1"/>
            <path id="Trazado_227976" data-name="Trazado 227976" d="M120.868,28.133c0,.144-13.375.26-29.87.26s-29.873-.116-29.873-.26S74.5,27.873,91,27.873s29.87.116,29.87.26" fill="#fff"/>
            <path id="Trazado_227977" data-name="Trazado 227977" d="M65.987,25.051a.8.8,0,1,1-.8-.7.754.754,0,0,1,.8.7" fill="#fff"/>
            <path id="Trazado_227978" data-name="Trazado 227978" d="M68.895,25.051a.8.8,0,1,1-.8-.7.754.754,0,0,1,.8.7" fill="#fff"/>
            <path id="Trazado_227979" data-name="Trazado 227979" d="M71.8,25.051a.8.8,0,1,1-.8-.7.754.754,0,0,1,.8.7" fill="#fff"/>
            <path id="Trazado_227980" data-name="Trazado 227980" d="M83.065,44.979c0,2.535-1.837,4.066-4.865,4.066H75v3.76H73.742V40.9H78.2c3.028,0,4.865,1.531,4.865,4.083m-1.259,0c0-1.906-1.259-2.995-3.641-2.995H75v5.955h3.165c2.382,0,3.641-1.088,3.641-2.96" fill="#fff"/>
            <path id="Trazado_227981" data-name="Trazado 227981" d="M95.736,40.9v11.91H94.494v-5.5H87.042v5.5H85.783V40.9h1.259V46.2h7.452V40.9Z" fill="#fff"/>
            <path id="Trazado_227982" data-name="Trazado 227982" d="M108.933,44.979c0,2.535-1.837,4.066-4.865,4.066h-3.2v3.76H99.61V40.9h4.458c3.028,0,4.865,1.531,4.865,4.083m-1.259,0c0-1.906-1.259-2.995-3.641-2.995h-3.165v5.955h3.165c2.382,0,3.641-1.088,3.641-2.96" fill="#fff"/>
            <rect id="Rectángulo_49973" data-name="Rectángulo 49973" width="53.565" height="38.183" transform="translate(383.329 183.391)" fill="#4dd0e1"/>
            <path id="Trazado_227983" data-name="Trazado 227983" d="M401.394,201.122V208.7H399.64v-3.107H396.2V208.7h-1.754v-7.578H396.2v2.988h3.443v-2.988Z" fill="#fff"/>
            <path id="Trazado_227984" data-name="Trazado 227984" d="M404.761,202.551h-2.425v-1.429h6.6v1.429h-2.425V208.7h-1.754Z" fill="#fff"/>
            <path id="Trazado_227985" data-name="Trazado 227985" d="M409.883,201.122h1.754v6.149h3.8V208.7h-5.554Z" fill="#fff"/>
            <path id="Trazado_227986" data-name="Trazado 227986" d="M423.318,208.7l-.011-4.547-2.23,3.746h-.79l-2.22-3.649v4.45h-1.646v-7.578h1.451l2.837,4.709,2.793-4.709h1.44l.022,7.578Z" fill="#fff"/>
            <path id="Trazado_227987" data-name="Trazado 227987" d="M437.314,189.057c0,.093-12.091.169-27,.169s-27.005-.076-27.005-.169,12.088-.169,27.005-.169,27,.076,27,.169" fill="#fff"/>
            <path id="Trazado_227988" data-name="Trazado 227988" d="M387.7,186.27a.727.727,0,1,1-.721-.633.681.681,0,0,1,.721.633" fill="#fff"/>
            <path id="Trazado_227989" data-name="Trazado 227989" d="M390.33,186.27a.727.727,0,1,1-.721-.633.681.681,0,0,1,.721.633" fill="#fff"/>
            <path id="Trazado_227990" data-name="Trazado 227990" d="M392.958,186.27a.727.727,0,1,1-.721-.633.681.681,0,0,1,.721.633" fill="#fff"/>
            <rect id="Rectángulo_49974" data-name="Rectángulo 49974" width="39.486" height="28.147" transform="translate(32.718 182.842)" fill="#4dd0e1"/>
            <path id="Trazado_227991" data-name="Trazado 227991" d="M72.514,187.018c0,.069-8.913.124-19.9.124s-19.908-.055-19.908-.124,8.912-.124,19.908-.124,19.9.055,19.9.124" fill="#fff"/>
            <path id="Trazado_227992" data-name="Trazado 227992" d="M35.941,184.964a.536.536,0,1,1-.532-.467.5.5,0,0,1,.532.467" fill="#fff"/>
            <path id="Trazado_227993" data-name="Trazado 227993" d="M37.879,184.964a.536.536,0,1,1-.532-.467.5.5,0,0,1,.532.467" fill="#fff"/>
            <path id="Trazado_227994" data-name="Trazado 227994" d="M39.817,184.964a.536.536,0,1,1-.532-.467.5.5,0,0,1,.532.467" fill="#fff"/>
            <path id="Trazado_227995" data-name="Trazado 227995" d="M267.994,74.374a7.389,7.389,0,0,1,7.672-7.5,7.054,7.054,0,0,1,5.262,2.049l-.676.7a6.194,6.194,0,0,0-4.544-1.754,6.51,6.51,0,1,0,0,13.018,6.216,6.216,0,0,0,4.544-1.775l.676.7a7.066,7.066,0,0,1-5.262,2.071,7.389,7.389,0,0,1-7.672-7.5" fill="#4dd0e1"/>
            <path id="Trazado_227996" data-name="Trazado 227996" d="M282.957,79.868l.485-.8a7.036,7.036,0,0,0,4.882,1.86c2.959,0,4.27-1.289,4.27-2.9,0-4.438-9.236-1.775-9.236-7.227,0-2.093,1.607-3.931,5.242-3.931a7.939,7.939,0,0,1,4.459,1.331l-.4.867a7.3,7.3,0,0,0-4.057-1.247c-2.874,0-4.164,1.331-4.164,2.959,0,4.438,9.235,1.817,9.235,7.185,0,2.092-1.669,3.909-5.325,3.909a7.582,7.582,0,0,1-5.389-2.007" fill="#4dd0e1"/>
            <path id="Trazado_227997" data-name="Trazado 227997" d="M295.826,79.868l.485-.8a7.036,7.036,0,0,0,4.882,1.86c2.959,0,4.27-1.289,4.27-2.9,0-4.438-9.236-1.775-9.236-7.227,0-2.093,1.607-3.931,5.241-3.931a7.937,7.937,0,0,1,4.459,1.331l-.4.867a7.3,7.3,0,0,0-4.058-1.247c-2.874,0-4.163,1.331-4.163,2.959,0,4.438,9.235,1.817,9.235,7.185,0,2.092-1.669,3.909-5.325,3.909a7.582,7.582,0,0,1-5.389-2.007" fill="#4dd0e1"/>
            <path id="Trazado_227998" data-name="Trazado 227998" d="M319.133,93.606s-.015-.273-.022-.784q-.008-.793-.023-2.251c-.012-1.986-.03-4.871-.053-8.56-.026-7.4-.063-18.006-.108-30.961l.206.207-65.887.054h-.005l.26-.261c-.007,15.113-.014,29.5-.02,42.556l-.24-.24,47.4.118,13.6.065,3.628.029.941.014a3.161,3.161,0,0,1,.328.014,2.252,2.252,0,0,1-.3.014l-.914.014-3.58.029-13.541.065-47.557.118H253v-.24c-.006-13.053-.013-27.443-.02-42.556v-.26h.265l65.887.054h.207v.206c-.045,13.009-.082,23.664-.108,31.089-.023,3.669-.041,6.539-.053,8.514q-.015,1.433-.023,2.212c-.007.5-.022.741-.022.741" fill="#4dd0e1"/>
            <path id="Trazado_227999" data-name="Trazado 227999" d="M319.133,57.365c0,.144-14.758.26-32.958.26s-32.96-.116-32.96-.26,14.754-.26,32.96-.26,32.958.116,32.958.26" fill="#4dd0e1"/>
            <path id="Trazado_228000" data-name="Trazado 228000" d="M258.113,54.259a.811.811,0,1,1-.8-.706.76.76,0,0,1,.8.706" fill="#4dd0e1"/>
            <path id="Trazado_228001" data-name="Trazado 228001" d="M261.043,54.259a.811.811,0,1,1-.8-.706.76.76,0,0,1,.8.706" fill="#4dd0e1"/>
            <path id="Trazado_228002" data-name="Trazado 228002" d="M263.973,54.259a.81.81,0,1,1-.8-.706.76.76,0,0,1,.8.706" fill="#4dd0e1"/>
          </g>
        </g>
        <g id="Grupo_114699" data-name="Grupo 114699">
          <g id="Grupo_114698" data-name="Grupo 114698" clip-path="url(#clip-path)">
            <path id="Trazado_228003" data-name="Trazado 228003" d="M128.824,239.036l26.125,88.184a9.221,9.221,0,0,0,8.841,6.6l106,.292a9.8,9.8,0,1,0,.027-19.6H229.278l-32.461-90.446H140a11.656,11.656,0,0,0-11.176,14.967" fill="#455a64"/>
            <path id="Trazado_228004" data-name="Trazado 228004" d="M218.5,321.757c0,.206-10.808.374-24.136.374s-24.139-.168-24.139-.374,10.8-.373,24.139-.373,24.136.167,24.136.373" fill="#263238"/>
            <path id="Trazado_228005" data-name="Trazado 228005" d="M136.619,226.87c.2-.065,7.413,21.049,16.119,47.153s15.607,47.329,15.412,47.394-7.412-21.044-16.121-47.158-15.606-47.324-15.41-47.389" fill="#263238"/>
            <path id="Trazado_228006" data-name="Trazado 228006" d="M214.093,412.175l-6.46-.153v-78.2h6.46Z" fill="#455a64"/>
            <path id="Trazado_228007" data-name="Trazado 228007" d="M180.8,411.818h60.132l-27.24-9.467h-6.46Z" fill="#455a64"/>
            <path id="Trazado_228008" data-name="Trazado 228008" d="M165.59,203.849l9.949,49.707-1.775,37.252,66.878-11.123-2.624-32.621-.051-26.992,16.4,31.78,12.768-24.663-23.378-42.348,0,0a39.472,39.472,0,0,0-15.3-9.9,31.555,31.555,0,0,0-9.585-1.836,38.429,38.429,0,0,1-23.152.013c-.94.119-2.245.242-3.888.436l-.3.037a29.566,29.566,0,0,0-25.808,27.8Z" fill="#4dd0e1"/>
            <path id="Trazado_228009" data-name="Trazado 228009" d="M191.834,173.557s-27.479.209-30.883,29.231l-.462,21.281,23.666-.2Z" fill="#4dd0e1"/>
            <path id="Trazado_228010" data-name="Trazado 228010" d="M257.483,210.891c0,.206-21.623.373-48.291.373s-48.295-.167-48.295-.373,21.618-.373,48.295-.373,48.291.167,48.291.373" fill="#fafafa"/>
            <path id="Trazado_228011" data-name="Trazado 228011" d="M257.483,215.493c0,.206-21.623.373-48.291.373s-48.295-.167-48.295-.373,21.618-.373,48.295-.373,48.291.167,48.291.373" fill="#fafafa"/>
            <path id="Trazado_228012" data-name="Trazado 228012" d="M255.936,207.079c0,.206-21.277.374-47.517.374s-47.522-.168-47.522-.374,21.272-.373,47.522-.373,47.517.167,47.517.373" fill="#fafafa"/>
            <path id="Trazado_228013" data-name="Trazado 228013" d="M237.609,251.853c-.206,0-.115-11.767.205-26.269s.745-26.259.951-26.254.115,11.764-.205,26.271-.745,26.257-.951,26.252" fill="#263238"/>
            <path id="Trazado_228014" data-name="Trazado 228014" d="M228.214,232.777s13,.93,15.339,4.366,5.906,13.236,4.555,13.308a3.691,3.691,0,0,1-2.334-.738l-3.563-6.313s.573,6.1-1.557,6.22-12.685,2.233-12.685,2.233Z" fill="#ffbe9d"/>
            <path id="Trazado_228015" data-name="Trazado 228015" d="M160.5,218.4l-.048,33.509a12.729,12.729,0,0,0,15.423,11.751l52.408-10.8-.112-21.488-45.219,8.678-.6-22.746Z" fill="#4dd0e1"/>
            <path id="Trazado_228016" data-name="Trazado 228016" d="M190.4,260.98a3.628,3.628,0,0,1,.692-.193l2.031-.457,7.7-1.63,27.28-5.576-.268.326c-.012-6.747-.024-14.2-.037-22.072l.439.363-9.213,1.772-36.015,6.855-.392.074.014-.392c.342-9.974.627-18.281.829-24.165.119-2.861.214-5.129.282-6.748.04-.735.073-1.322.1-1.774a2.85,2.85,0,0,1,.067-.607,2.894,2.894,0,0,1,.032.612c0,.454,0,1.042,0,1.779-.025,1.62-.061,3.891-.106,6.754-.137,5.882-.331,14.188-.563,24.16l-.377-.317,35.994-6.965,9.215-1.764.441-.085v.448c-.013,7.872-.026,15.325-.037,22.072v.275l-.268.052L200.9,259.088l-7.74,1.448-2.052.357a3.6,3.6,0,0,1-.712.087" fill="#263238"/>
            <path id="Trazado_228017" data-name="Trazado 228017" d="M220.46,173.557c.024-.008.1.161.215.491a9.9,9.9,0,0,1,.406,1.482,12.159,12.159,0,0,1-.246,5.64,14.824,14.824,0,0,1-4.548,7.019,14.114,14.114,0,0,1-9.539,3.6,12.951,12.951,0,0,1-9.431-3.83,13.281,13.281,0,0,1-3.509-7.587,11.954,11.954,0,0,1,.66-5.607,7.988,7.988,0,0,1,.673-1.384c.18-.3.285-.452.307-.439.076.04-.317.668-.705,1.918a12.486,12.486,0,0,0-.411,5.445,13,13,0,0,0,3.479,7.175,12.4,12.4,0,0,0,8.937,3.562,13.6,13.6,0,0,0,9.083-3.372,14.622,14.622,0,0,0,4.5-6.653,12.719,12.719,0,0,0,.465-5.443c-.173-1.3-.408-2-.334-2.02" fill="#263238"/>
            <path id="Trazado_228018" data-name="Trazado 228018" d="M222.99,254.644a16.192,16.192,0,0,1,.011-3.307c.078-2.035.175-4.842.195-7.944s-.048-5.911-.1-7.946a16.3,16.3,0,0,1,.028-3.307,13.232,13.232,0,0,1,.5,3.276c.19,2.036.339,4.86.322,7.982s-.2,5.943-.416,7.976a13.246,13.246,0,0,1-.537,3.27" fill="#fafafa"/>
            <path id="Trazado_228019" data-name="Trazado 228019" d="M220.285,255.192a15.34,15.34,0,0,1-.094-3.283c.025-2.31.053-4.964.085-7.895,0-2.932-.006-5.587-.008-7.9a15.22,15.22,0,0,1,.127-3.281,13.594,13.594,0,0,1,.4,3.263c.138,2.023.241,4.824.226,7.919s-.146,5.893-.3,7.914a13.623,13.623,0,0,1-.433,3.26" fill="#fafafa"/>
            <path id="Trazado_228020" data-name="Trazado 228020" d="M272.767,388.335l9.9,27.277,14.055,19.317a2.973,2.973,0,0,1-3.534,4.5c-5.668-2.351-26.474-11.106-27.088-13.143-.709-2.359-14.14-31.7-14.14-31.7Z" fill="#4dd0e1"/>
            <g id="Grupo_114685" data-name="Grupo 114685" opacity="0.6">
              <g id="Grupo_114684" data-name="Grupo 114684">
                <g id="Grupo_114683" data-name="Grupo 114683" clip-path="url(#clip-path-12)">
                  <path id="Trazado_228021" data-name="Trazado 228021" d="M295.9,439.2l-30.509-14.736.446,1.146a4.474,4.474,0,0,0,2.041,2.32c2.5,1.349,9.5,4.925,25.228,11.535a2.969,2.969,0,0,0,2.794-.265" fill="#fff"/>
                </g>
              </g>
            </g>
            <g id="Grupo_114688" data-name="Grupo 114688" opacity="0.6">
              <g id="Grupo_114687" data-name="Grupo 114687">
                <g id="Grupo_114686" data-name="Grupo 114686" clip-path="url(#clip-path-13)">
                  <path id="Trazado_228022" data-name="Trazado 228022" d="M267.549,413.576a1.8,1.8,0,0,1,1.311,2.011,1.729,1.729,0,0,1-1.982,1.317,1.9,1.9,0,0,1-1.377-2.137,1.793,1.793,0,0,1,2.213-1.141" fill="#fff"/>
                </g>
              </g>
            </g>
            <path id="Trazado_228023" data-name="Trazado 228023" d="M285.124,429.785c.182.015.241-1.639,1.553-3.026,1.27-1.427,2.912-1.628,2.881-1.808,0-.075-.426-.152-1.094.005a4.743,4.743,0,0,0-3.43,3.738c-.1.679.014,1.1.09,1.091" fill="#263238"/>
            <path id="Trazado_228024" data-name="Trazado 228024" d="M288.46,432.657c.174.067.7-1.15,1.943-2.1,1.222-.973,2.53-1.183,2.508-1.369.025-.168-1.5-.235-2.9.866-1.411,1.085-1.721,2.58-1.552,2.6" fill="#263238"/>
            <path id="Trazado_228025" data-name="Trazado 228025" d="M279.732,426.539c.177.079.976-1.8,2.78-3.436,1.779-1.667,3.712-2.314,3.648-2.5-.013-.161-2.168.246-4.08,2.029-1.93,1.762-2.508,3.879-2.348,3.9" fill="#263238"/>
            <path id="Trazado_228026" data-name="Trazado 228026" d="M276.028,418.5c.135.134,1.387-1.072,3.3-1.9,1.906-.853,3.64-.959,3.633-1.15.023-.161-1.839-.345-3.889.567-2.058.893-3.181,2.39-3.047,2.482" fill="#263238"/>
            <path id="Trazado_228027" data-name="Trazado 228027" d="M272.917,410.565c.145.124,1.3-1.362,3.386-2.068,2.074-.752,3.9-.308,3.937-.495.022-.074-.406-.3-1.169-.416a6.48,6.48,0,0,0-5.5,1.925c-.524.568-.718,1.01-.655,1.054" fill="#263238"/>
            <path id="Trazado_228028" data-name="Trazado 228028" d="M275.667,407.005a2.5,2.5,0,0,0-.361-1.037,7.622,7.622,0,0,0-1.856-2.363,3.387,3.387,0,0,0-1.937-.979,1.2,1.2,0,0,0-1.159.737,1.945,1.945,0,0,0,.048,1.387,4.2,4.2,0,0,0,4.843,2.288,4.875,4.875,0,0,0,3.537-4.113,1.69,1.69,0,0,0-.436-1.34,1.17,1.17,0,0,0-1.368-.133,4.155,4.155,0,0,0-1.421,1.619,8.528,8.528,0,0,0-1.028,2.819,2.6,2.6,0,0,0-.052,1.1,13.579,13.579,0,0,1,1.465-3.682,3.883,3.883,0,0,1,1.273-1.381.624.624,0,0,1,.746.068,1.157,1.157,0,0,1,.235.9,4.351,4.351,0,0,1-3.108,3.53,3.649,3.649,0,0,1-4.139-1.882,1.413,1.413,0,0,1-.074-.968.647.647,0,0,1,.633-.415,3.057,3.057,0,0,1,1.656.8,11.275,11.275,0,0,1,2.5,3.052" fill="#263238"/>
            <path id="Trazado_228029" data-name="Trazado 228029" d="M314.583,381.2l-.856,22.169s22.246,8.315,22.486,12.428l-43.043-.117-.083-34.6Z" fill="#4dd0e1"/>
            <g id="Grupo_114691" data-name="Grupo 114691" opacity="0.6">
              <g id="Grupo_114690" data-name="Grupo 114690">
                <g id="Grupo_114689" data-name="Grupo 114689" clip-path="url(#clip-path-14)">
                  <path id="Trazado_228030" data-name="Trazado 228030" d="M300.423,401.467a1.758,1.758,0,0,0-1.221,2,1.69,1.69,0,0,0,1.975,1.227,1.853,1.853,0,0,0,1.281-2.127,1.753,1.753,0,0,0-2.2-1.05" fill="#fff"/>
                </g>
              </g>
            </g>
            <g id="Grupo_114694" data-name="Grupo 114694" opacity="0.6">
              <g id="Grupo_114693" data-name="Grupo 114693">
                <g id="Grupo_114692" data-name="Grupo 114692" clip-path="url(#clip-path-15)">
                  <path id="Trazado_228031" data-name="Trazado 228031" d="M293.171,415.68l-.009-3.45,41.358,1.378s1.914.839,1.694,2.189Z" fill="#fff"/>
                </g>
              </g>
            </g>
            <path id="Trazado_228032" data-name="Trazado 228032" d="M314.426,403.151c-.008.21-1.06.3-2.1.976-1.054.646-1.59,1.555-1.783,1.471-.194-.041.123-1.3,1.392-2.09s2.531-.55,2.486-.357" fill="#263238"/>
            <path id="Trazado_228033" data-name="Trazado 228033" d="M318.935,405.031c.048.2-.864.559-1.58,1.446-.742.866-.925,1.827-1.134,1.817-.2.032-.34-1.2.572-2.285s2.138-1.178,2.142-.978" fill="#263238"/>
            <path id="Trazado_228034" data-name="Trazado 228034" d="M321.485,410.441c-.191.044-.481-1.007.062-2.156s1.527-1.605,1.616-1.43c.118.173-.522.789-.953,1.74-.454.94-.516,1.826-.725,1.846" fill="#263238"/>
            <path id="Trazado_228035" data-name="Trazado 228035" d="M314.06,398.078c-.089.191-1.052-.1-2.24-.024-1.19.053-2.116.45-2.225.269-.121-.152.784-.928,2.185-1s2.384.589,2.28.754" fill="#263238"/>
            <g id="Grupo_114697" data-name="Grupo 114697" opacity="0.3">
              <g id="Grupo_114696" data-name="Grupo 114696">
                <g id="Grupo_114695" data-name="Grupo 114695" clip-path="url(#clip-path-16)">
                  <path id="Trazado_228036" data-name="Trazado 228036" d="M314.409,385.59l-.147,3.951-21.155-.25-.017-3.56Z"/>
                </g>
              </g>
            </g>
            <path id="Trazado_228037" data-name="Trazado 228037" d="M314.15,393.6a4.034,4.034,0,0,1-2.156-.017,9.654,9.654,0,0,1-2.253-.7,10.126,10.126,0,0,1-1.236-.66,2.643,2.643,0,0,1-.65-.509.916.916,0,0,1-.093-1.118,1.152,1.152,0,0,1,.922-.478,2.816,2.816,0,0,1,.808.113,7.747,7.747,0,0,1,1.339.464,7.579,7.579,0,0,1,1.984,1.31c1,.928,1.335,1.714,1.263,1.754-.1.069-.579-.59-1.593-1.356a8.641,8.641,0,0,0-1.92-1.089,8.093,8.093,0,0,0-1.237-.385c-.455-.121-.843-.125-.961.078-.042.077-.048.108.047.241a2.187,2.187,0,0,0,.478.372,11.18,11.18,0,0,0,1.137.653,11.962,11.962,0,0,0,2.081.8,14.739,14.739,0,0,1,2.04.521" fill="#263238"/>
            <path id="Trazado_228038" data-name="Trazado 228038" d="M313.876,393.9a3.427,3.427,0,0,1-.563-2.084,6.988,6.988,0,0,1,.853-3.666,1.782,1.782,0,0,1,1.378-1.085,1.008,1.008,0,0,1,.9.6,2.933,2.933,0,0,1,.219.79,4.81,4.81,0,0,1,0,1.453,4.959,4.959,0,0,1-.927,2.224c-.844,1.113-1.722,1.362-1.74,1.29-.07-.1.664-.509,1.311-1.579a4.966,4.966,0,0,0,.687-2.024,4.4,4.4,0,0,0-.036-1.246c-.066-.457-.237-.827-.408-.781-.214,0-.579.34-.756.7a7.153,7.153,0,0,0-.537,1.168,7.746,7.746,0,0,0-.424,2.149c-.062,1.264.161,2.051.046,2.083" fill="#263238"/>
            <path id="Trazado_228039" data-name="Trazado 228039" d="M293.129,274.929c-25.426,2.63-59.138,6.085-59.138,6.085l4.6,41.389s49.526-13.089,49.172-12.028,2.294,88.065,2.294,88.065h29.825l.561-98.53a24.768,24.768,0,0,0-27.313-24.981" fill="#263238"/>
            <path id="Trazado_228040" data-name="Trazado 228040" d="M173.146,291.626V304.46c0,8.737,9.951,18,18.688,18h6.755c5.324,0,13.664-3.875,17.962-7.016l2.583-1.887,31.053,96.208s35.537-6.369,35.537-7.49-24.066-78.8-35.174-114.854c-4.536-14.721-20.307-23.28-34.877-18.283q-.746.255-1.492.553c-15.919,6.368-41.035,21.933-41.035,21.933" fill="#263238"/>
            <path id="Trazado_228041" data-name="Trazado 228041" d="M285.724,402.277a1.414,1.414,0,0,1-.158-.342l-.392-1.029c-.338-.908-.828-2.25-1.409-3.994-1.194-3.479-2.823-8.544-4.808-14.811-3.964-12.536-9.274-29.9-15.056-49.109-2.875-9.609-5.614-18.76-8.108-27.093-1.237-4.163-2.414-8.12-3.516-11.828q-.828-2.777-1.6-5.359a48.267,48.267,0,0,0-1.617-4.867,19.927,19.927,0,0,0-5.016-7.1,42.256,42.256,0,0,0-5.255-4.092c-1.521-1.024-2.733-1.776-3.561-2.276l-.934-.583a1.361,1.361,0,0,1-.3-.221,1.469,1.469,0,0,1,.343.155l.972.519c.853.459,2.092,1.172,3.645,2.163a40.44,40.44,0,0,1,5.378,4.028,20.194,20.194,0,0,1,5.22,7.206,48.137,48.137,0,0,1,1.682,4.9q.788,2.575,1.638,5.349l3.582,11.808c2.511,8.328,5.269,17.473,8.164,27.076,5.789,19.175,11.03,36.534,14.845,49.168,1.92,6.237,3.481,11.3,4.58,14.876l1.275,4.035.322,1.054a1.421,1.421,0,0,1,.086.367" fill="#455a64"/>
            <path id="Trazado_228042" data-name="Trazado 228042" d="M293.22,297.963c.184.128-1.506,2.667-2.923,6.114-1.44,3.438-2.043,6.427-2.263,6.388-.189-.017.1-3.139,1.573-6.674,1.458-3.542,3.467-5.949,3.613-5.828" fill="#455a64"/>
            <path id="Trazado_228043" data-name="Trazado 228043" d="M298.917,301.963c.088.208-2.478,1.331-5.147,3.447-2.688,2.093-4.386,4.32-4.567,4.186-.164-.092,1.316-2.6,4.106-4.773,2.773-2.2,5.558-3.041,5.608-2.86" fill="#455a64"/>
            <path id="Trazado_228044" data-name="Trazado 228044" d="M250.523,409.767c-.2.063-8.586-25.684-18.737-57.5s-18.224-57.668-18.027-57.731,8.584,25.678,18.739,57.5,18.222,57.663,18.025,57.726" fill="#455a64"/>
            <path id="Trazado_228045" data-name="Trazado 228045" d="M212.411,259.68l101.653.978,18.955-53.579-73.938.5L241.922,255.76l-29.511.441Z" fill="#455a64"/>
            <path id="Trazado_228046" data-name="Trazado 228046" d="M289.48,238.484a4.117,4.117,0,1,1,4.652-3.5,4.117,4.117,0,0,1-4.652,3.5" fill="#fff"/>
            <path id="Trazado_228047" data-name="Trazado 228047" d="M204.116,114.653c.959-3.565,3.642-5.32,7.136-6.511a11.512,11.512,0,0,1,10.5,1.705c1.964,1.5,3.5,3.668,5.835,4.479,3.84,1.335,8.341-1.54,12.023.183a5.245,5.245,0,0,1-2.482,9.988c2.506.915,3.285,4.49,1.821,6.72s-4.472,3.073-7.094,2.584a14.715,14.715,0,0,1-6.894-3.864c-1.984-1.783-3.763-3.8-5.883-5.421a11.45,11.45,0,0,0-7.356-2.7c-3.607.194-6.7,2.914-8.309,6.148s-1.979,6.93-2.18,10.536-.265,7.273-1.333,10.724c-.126.4-.317.858-.722.983-.585.18-1.083-.442-1.374-.981a52.994,52.994,0,0,1-6.056-19.709c-.409-4-.3-7.782,1.894-11.145s7.75-5.841,10.474-3.717" fill="#263238"/>
            <path id="Trazado_228048" data-name="Trazado 228048" d="M197.141,131.39,195.3,171.851c-.314,6.881.631,17.052,11.533,17.052,9.458-.713,12.254-9.552,12.54-15.973.136-3.046.255-5.586.29-5.9,0,0,10.344-.5,11.553-10.66.584-4.91.963-15.121,1.2-24.363a19.059,19.059,0,0,0-17.042-19.429l-.982-.105c-10.65-.508-17.032,8.254-17.246,18.915" fill="#ffbe9d"/>
            <path id="Trazado_228049" data-name="Trazado 228049" d="M219.691,166.887a23.791,23.791,0,0,1-12.863-5.181s2.356,7.655,12.606,7.82Z" fill="#eb996e"/>
            <path id="Trazado_228050" data-name="Trazado 228050" d="M228.722,138.507a1.461,1.461,0,0,1-1.557,1.317,1.4,1.4,0,0,1-1.358-1.47,1.459,1.459,0,0,1,1.555-1.317,1.4,1.4,0,0,1,1.36,1.47" fill="#263238"/>
            <path id="Trazado_228051" data-name="Trazado 228051" d="M229.694,136.769c-.2.17-1.214-.762-2.778-.924-1.56-.184-2.793.5-2.942.288-.075-.093.145-.416.683-.726a4.009,4.009,0,0,1,2.381-.465,3.845,3.845,0,0,1,2.186.972c.441.42.568.779.47.855" fill="#263238"/>
            <path id="Trazado_228052" data-name="Trazado 228052" d="M213.331,137.406a1.462,1.462,0,0,1-1.557,1.317,1.4,1.4,0,0,1-1.358-1.47,1.461,1.461,0,0,1,1.556-1.317,1.4,1.4,0,0,1,1.359,1.47" fill="#263238"/>
            <path id="Trazado_228053" data-name="Trazado 228053" d="M214.295,135.425c-.2.17-1.216-.761-2.779-.924-1.56-.184-2.793.5-2.942.288-.074-.093.144-.416.684-.726a4.006,4.006,0,0,1,2.38-.465,3.855,3.855,0,0,1,2.187.971c.44.42.567.781.47.856" fill="#263238"/>
            <path id="Trazado_228054" data-name="Trazado 228054" d="M218.735,147.624a10.4,10.4,0,0,1,2.588-.188c.4,0,.79-.038.886-.3a2.042,2.042,0,0,0-.14-1.212q-.409-1.509-.857-3.166c-1.179-4.5-1.987-8.188-1.806-8.234s1.285,3.567,2.464,8.07q.422,1.663.806,3.179a2.323,2.323,0,0,1,.04,1.588,1,1,0,0,1-.719.514,2.678,2.678,0,0,1-.688.022,10.19,10.19,0,0,1-2.574-.27" fill="#263238"/>
            <path id="Trazado_228055" data-name="Trazado 228055" d="M214.018,148.216c.256.012.078,1.71,1.4,3.069s3.151,1.365,3.139,1.6c.012.109-.438.287-1.2.226a4.248,4.248,0,0,1-2.631-1.242,3.7,3.7,0,0,1-1.067-2.562c.011-.716.245-1.116.36-1.094" fill="#263238"/>
            <path id="Trazado_228056" data-name="Trazado 228056" d="M215.35,129.341c-.2.409-1.739.041-3.6.067-1.858-.012-3.4.368-3.6-.039-.09-.194.211-.567.853-.914a6.249,6.249,0,0,1,5.481-.022c.644.343.948.713.86.908" fill="#263238"/>
            <path id="Trazado_228057" data-name="Trazado 228057" d="M229.6,132.183c-.313.326-1.351-.157-2.644-.313-1.288-.2-2.417-.016-2.63-.414-.091-.192.119-.529.634-.814a3.856,3.856,0,0,1,4.25.585c.418.414.53.8.39.956" fill="#263238"/>
            <path id="Trazado_228058" data-name="Trazado 228058" d="M197.17,139.012c-.165-.094-6.771-2.812-7.289,4.168s6.6,6.059,6.623,5.86.666-10.028.666-10.028" fill="#ffbe9d"/>
            <path id="Trazado_228059" data-name="Trazado 228059" d="M194.568,146.237c-.029-.025-.128.076-.34.155a1.217,1.217,0,0,1-.911-.049,3.015,3.015,0,0,1-1.191-2.8,4.024,4.024,0,0,1,.469-1.716,1.409,1.409,0,0,1,.984-.865.621.621,0,0,1,.693.386c.079.2.024.338.06.353.019.019.159-.105.124-.4a.776.776,0,0,0-.242-.458.922.922,0,0,0-.659-.227,1.714,1.714,0,0,0-1.351.988,4.136,4.136,0,0,0-.566,1.914c-.059,1.409.563,2.779,1.55,3.145a1.3,1.3,0,0,0,1.126-.1c.229-.156.277-.31.254-.324" fill="#eb996e"/>
            <path id="Trazado_228060" data-name="Trazado 228060" d="M234.79,130.125a14.777,14.777,0,0,1-12.741-4.33c-2.251-2.362-3.84-5.582-6.84-6.866a8.312,8.312,0,0,0-6.411.191,16.067,16.067,0,0,0-5.26,3.894c1.416,5.38-.519,11.01-2.429,16.235a2.782,2.782,0,0,1-.98,1.519c-.891.545-2.07-.08-2.707-.907a8.634,8.634,0,0,1-1.4-4.737,28.8,28.8,0,0,1,1.268-11.275,19.6,19.6,0,0,1,6.4-9.263,18.564,18.564,0,0,1,13.466-3.514,22.793,22.793,0,0,1,12.643,6.1,13.357,13.357,0,0,1,3.748,5.375" fill="#263238"/>
          </g>
        </g>
        <g id="Grupo_114701" data-name="Grupo 114701">
          <g id="Grupo_114700" data-name="Grupo 114700" clip-path="url(#clip-path)">
            <path id="Trazado_228061" data-name="Trazado 228061" d="M39.259,345.164a18.887,18.887,0,0,1,11.72-1.424c2.127.351,4.343.987,5.79,2.584s1.721,4.408.06,5.781a5.557,5.557,0,0,1-3.651.926c-3.1-.036-6.536-.582-9.011,1.282-1.412,1.064-2.352,2.832-4.041,3.355a3.991,3.991,0,0,1-4.391-1.954,6.824,6.824,0,0,1-.5-5.035,7.687,7.687,0,0,1,4.021-5.515" fill="#4dd0e1"/>
            <path id="Trazado_228062" data-name="Trazado 228062" d="M31.091,329.4c2.18,3.113,6.417,2.083,8.381.182s2.795-4.654,3.55-7.281c1.727-6,3.468-12.3,2.184-18.408a10.233,10.233,0,0,0-2.35-5,5.344,5.344,0,0,0-5.064-1.685c-2.136.564-3.463,2.656-4.423,4.647a43.872,43.872,0,0,0-4.336,18.831c-.011,3.033.347,6.214,2.058,8.718" fill="#4dd0e1"/>
            <path id="Trazado_228063" data-name="Trazado 228063" d="M25.1,333.864a11.329,11.329,0,0,0,1.763-10.425,20.094,20.094,0,0,0-6.175-8.957,33.262,33.262,0,0,0-11.056-6.524,11.793,11.793,0,0,0-4.973-.844,5.217,5.217,0,0,0-4.173,2.525c-1.164,2.219-.048,4.911,1.159,7.107A84.174,84.174,0,0,0,8.912,327.8c2.177,2.806,4.67,5.574,7.987,6.842s6.764,1.119,8.522-1.181" fill="#4dd0e1"/>
            <path id="Trazado_228064" data-name="Trazado 228064" d="M30.944,376.362a6.773,6.773,0,0,0,.2-1.415c.1-1.029.226-2.322.376-3.86a55.9,55.9,0,0,1,.868-5.664,43.648,43.648,0,0,1,2.059-6.683,24.608,24.608,0,0,1,3.413-6.048,12.746,12.746,0,0,1,4.315-3.588,12.085,12.085,0,0,1,3.634-1.131,6.823,6.823,0,0,0,1.408-.2,6.629,6.629,0,0,0-1.433-.022,11,11,0,0,0-3.789.986,12.716,12.716,0,0,0-4.552,3.618,24.089,24.089,0,0,0-3.538,6.17,40.894,40.894,0,0,0-2.044,6.793,47.893,47.893,0,0,0-.752,5.735c-.123,1.639-.169,2.967-.192,3.885a6.634,6.634,0,0,0,.03,1.428" fill="#263238"/>
            <path id="Trazado_228065" data-name="Trazado 228065" d="M31.21,373.391a2.782,2.782,0,0,0,.038-.657c0-.493,0-1.114,0-1.877,0-1.629,0-3.986.084-6.9.144-5.822.645-12.088,1.613-20.922.917-8.307,2.148-17.975,3.447-24.26.278-1.43.559-2.716.823-3.842s.467-2.1.674-2.89c.178-.742.323-1.346.439-1.825a2.723,2.723,0,0,0,.114-.647,2.79,2.79,0,0,0-.228.615c-.143.472-.323,1.068-.545,1.8-.242.78-.489,1.747-.772,2.871s-.6,2.4-.909,3.833A212.863,212.863,0,0,0,32.36,341.2c-.971,8.852-1.408,16.913-1.446,22.75-.035,2.918.027,5.281.1,6.911.046.762.084,1.383.114,1.876a2.785,2.785,0,0,0,.08.652" fill="#263238"/>
            <path id="Trazado_228066" data-name="Trazado 228066" d="M31.249,357.844a12.469,12.469,0,0,0-.014-1.961c-.072-1.26-.245-3.081-.6-5.313a70.023,70.023,0,0,0-1.728-7.74,63.38,63.38,0,0,0-3.237-9.159,48.792,48.792,0,0,0-9.5-14.8,24.231,24.231,0,0,0-2.237-2.079c-.343-.29-.646-.579-.955-.809l-.867-.6a12.529,12.529,0,0,0-1.651-1.056,58.488,58.488,0,0,1,5.411,4.827A51.413,51.413,0,0,1,25.134,333.9a72.281,72.281,0,0,1,3.255,9.075,78.766,78.766,0,0,1,1.839,7.663c.4,2.209.639,4.012.781,5.261a12.6,12.6,0,0,0,.24,1.942" fill="#263238"/>
            <path id="Trazado_228067" data-name="Trazado 228067" d="M16.222,385.269l1.558,21.342H45.2l1.557-21.342Z" fill="#263238"/>
            <rect id="Rectángulo_49982" data-name="Rectángulo 49982" width="36.453" height="8.412" transform="translate(13.574 376.857)" fill="#263238"/>
            <path id="Trazado_228068" data-name="Trazado 228068" d="M13.574,405.794v2.332H49.425v-2.332Z" fill="#455a64"/>
            <path id="Trazado_228069" data-name="Trazado 228069" d="M16.966,412.23l-1.679-4.1H48.119l-1.959,4.1Z" fill="#455a64"/>
            <path id="Trazado_228070" data-name="Trazado 228070" d="M46.246,392.244a.865.865,0,0,1-.128.2l-.409.543-1.6,2.044-.071.091-.068-.1L40.048,389.6h.225l-3.863,5.47-.121.172-.136-.161c-1.425-1.7-2.974-3.539-4.581-5.452l.264,0-.252.317c-1.421,1.781-2.8,3.505-4.1,5.136l-.137.171-.126-.178L23.359,389.6l.225.01-4.761,5.424-.084.1-.065-.108c-.627-1.054-1.127-1.895-1.49-2.5l-.382-.667a.964.964,0,0,1-.117-.238,1.126,1.126,0,0,1,.159.211l.424.642,1.564,2.459-.149-.012,4.684-5.49.118-.138.107.149,3.9,5.444-.262-.007,4.087-5.144.252-.317.13-.163.134.16,4.569,5.462-.256.01c1.409-1.966,2.723-3.8,3.9-5.443l.115-.159.111.159,3.841,5.486-.139,0,1.662-1.992.444-.515c.1-.115.159-.171.165-.166" fill="#e0e0e0"/>
            <path id="Trazado_228071" data-name="Trazado 228071" d="M47.137,385.128c0,.094-6.87.171-15.343.171s-15.344-.077-15.344-.171,6.869-.171,15.344-.171,15.343.077,15.343.171" fill="#455a64"/>
            <path id="Trazado_228072" data-name="Trazado 228072" d="M48.522,408.356c0,.094-7.466.171-16.674.171s-16.676-.077-16.676-.171,7.464-.171,16.676-.171,16.674.077,16.674.171" fill="#263238"/>
          </g>
        </g>
        <path id="Trazado_228073" data-name="Trazado 228073" d="M372.648,162.651,353.6,242.315h5.327l18.763-79.664Z" fill="#263238"/>
        <g id="Grupo_114703" data-name="Grupo 114703">
          <g id="Grupo_114702" data-name="Grupo 114702" clip-path="url(#clip-path)">
            <path id="Trazado_228074" data-name="Trazado 228074" d="M365.334,215.119C364.99,216.579,373.96,260,373.96,260h-4.318l-6.774-34.411Z" fill="#263238"/>
            <rect id="Rectángulo_49984" data-name="Rectángulo 49984" width="89.227" height="94.592" transform="translate(339.538 317.413)" fill="#4dd0e1"/>
            <rect id="Rectángulo_49985" data-name="Rectángulo 49985" width="4.381" height="4.381" transform="translate(428.766 331.237)" fill="#263238"/>
            <rect id="Rectángulo_49986" data-name="Rectángulo 49986" width="4.381" height="4.381" transform="translate(428.766 345.147)" fill="#263238"/>
            <rect id="Rectángulo_49987" data-name="Rectángulo 49987" width="4.381" height="4.381" transform="translate(428.766 359.057)" fill="#263238"/>
            <rect id="Rectángulo_49988" data-name="Rectángulo 49988" width="4.381" height="4.381" transform="translate(428.766 372.968)" fill="#263238"/>
            <path id="Trazado_228075" data-name="Trazado 228075" d="M433.307,360.337a6.63,6.63,0,0,1,1.348-.3,22.325,22.325,0,0,1,3.753-.356,10.124,10.124,0,0,1,5.422,1.428,6.272,6.272,0,0,1,3.012,6,7.531,7.531,0,0,1-1.138,3.431,9.006,9.006,0,0,1-2.307,2.44,11.785,11.785,0,0,1-5.218,2.06,17.088,17.088,0,0,1-3.771.128,5.556,5.556,0,0,1-1.368-.191,9.364,9.364,0,0,1,1.376-.011,20.3,20.3,0,0,0,3.7-.289,11.781,11.781,0,0,0,4.993-2.083,7.681,7.681,0,0,0,3.211-5.525,5.83,5.83,0,0,0-2.752-5.561,10.011,10.011,0,0,0-5.17-1.464,28.429,28.429,0,0,0-3.719.189,7.4,7.4,0,0,1-1.375.094" fill="#263238"/>
            <path id="Trazado_228076" data-name="Trazado 228076" d="M432.216,346.511a1.611,1.611,0,0,1,.418-.254,8.846,8.846,0,0,1,1.3-.525,10.272,10.272,0,0,1,5.126-.285,4.664,4.664,0,0,1,1.632.65,2.842,2.842,0,0,1,1.155,1.557,4.5,4.5,0,0,1-1,3.989,4.427,4.427,0,0,1-1.846,1.36,2.885,2.885,0,0,1-2.417-.129,2.466,2.466,0,0,1-1.388-2.1,2.522,2.522,0,0,1,1.418-2.168,3.876,3.876,0,0,1,2.552-.268,5.266,5.266,0,0,1,2.226,1.061,6.02,6.02,0,0,1,2.225,3.975,5.62,5.62,0,0,1-1.142,3.962,8.079,8.079,0,0,1-2.743,2.316,13.177,13.177,0,0,1-4.972,1.3c-.6.049-1.074.064-1.392.067a1.688,1.688,0,0,1-.488-.025c0-.041.665-.089,1.858-.244a13.876,13.876,0,0,0,4.819-1.419,7.8,7.8,0,0,0,2.568-2.246,5.2,5.2,0,0,0,1.015-3.652,5.555,5.555,0,0,0-2.065-3.63,4.765,4.765,0,0,0-2.012-.954,3.386,3.386,0,0,0-2.209.222,2.013,2.013,0,0,0-1.14,1.705,1.963,1.963,0,0,0,1.111,1.652,2.379,2.379,0,0,0,2.005.112,3.979,3.979,0,0,0,1.649-1.2,4.077,4.077,0,0,0,.956-3.561,3.016,3.016,0,0,0-2.453-1.968,10.547,10.547,0,0,0-4.988.12c-1.156.312-1.752.629-1.772.584" fill="#263238"/>
            <path id="Trazado_228077" data-name="Trazado 228077" d="M432.261,332.933a2.562,2.562,0,0,1,.973-.179,7.147,7.147,0,0,1,2.677.375,7.653,7.653,0,0,1,3.334,2.246,7.609,7.609,0,0,1,.285,9.3,7.646,7.646,0,0,1-3.19,2.445,7.16,7.16,0,0,1-2.649.539,2.548,2.548,0,0,1-.982-.119,10.01,10.01,0,0,0,3.485-.758,7.552,7.552,0,0,0,2.95-2.392,7.288,7.288,0,0,0-.267-8.708,7.551,7.551,0,0,0-3.091-2.207,10.01,10.01,0,0,0-3.525-.543" fill="#263238"/>
            <path id="Trazado_228078" data-name="Trazado 228078" d="M366.032,267.158a8.919,8.919,0,0,1,.751,1.765,33.885,33.885,0,0,1,1.184,5.373c.369,2.362.681,5.269.99,8.646s.6,7.228,1.138,11.452c.139,1.056.307,2.132.523,3.22a14.347,14.347,0,0,0,.964,3.222,11.727,11.727,0,0,0,2.188,2.7,17.208,17.208,0,0,0,10.089,4.677,14.2,14.2,0,0,0,7.881-1.363,9.54,9.54,0,0,0,5.092-6.394,7.3,7.3,0,0,0-.3-4.251,7.5,7.5,0,0,0-2.771-3.348,8.367,8.367,0,0,0-4.22-1.406,6.683,6.683,0,0,0-4.272,1.257,4.705,4.705,0,0,0-1.447,1.708,3.527,3.527,0,0,0-.281,2.183,5.3,5.3,0,0,0,2.767,3.518,12.83,12.83,0,0,0,4.558,1.26,41.736,41.736,0,0,0,4.748.329,74.514,74.514,0,0,0,9.313-.525c6.087-.681,11.961-1.658,17.636-1.719,5.648-.094,11.135.727,15.7,2.966a18.359,18.359,0,0,1,5.844,4.365,13.476,13.476,0,0,1,3.035,6,16.182,16.182,0,0,1-1.734,11.253,19.016,19.016,0,0,1-5.931,6.331,22.2,22.2,0,0,1-4.9,2.5,15.219,15.219,0,0,1-1.836.554s.153-.066.457-.169.756-.262,1.342-.484a23.168,23.168,0,0,0,4.822-2.568,18.957,18.957,0,0,0,5.791-6.3,15.906,15.906,0,0,0,1.629-11.031,13.106,13.106,0,0,0-2.978-5.813,18,18,0,0,0-5.731-4.241c-4.492-2.181-9.906-2.981-15.507-2.875-5.628.074-11.478,1.056-17.588,1.747a74.508,74.508,0,0,1-9.377.536,42.119,42.119,0,0,1-4.805-.331,13.307,13.307,0,0,1-4.742-1.319,5.806,5.806,0,0,1-3.028-3.879,4.052,4.052,0,0,1,.323-2.5,5.224,5.224,0,0,1,1.606-1.9,7.194,7.194,0,0,1,4.6-1.356,8.871,8.871,0,0,1,4.483,1.5A8,8,0,0,1,397,296.02a7.808,7.808,0,0,1,.317,4.544,10.027,10.027,0,0,1-5.359,6.715,14.632,14.632,0,0,1-8.146,1.391,17.615,17.615,0,0,1-10.333-4.832,11.972,11.972,0,0,1-2.259-2.826,14.625,14.625,0,0,1-.981-3.322c-.213-1.1-.377-2.187-.51-3.248-.522-4.245-.77-8.1-1.063-11.475s-.563-6.282-.9-8.641a36.753,36.753,0,0,0-1.084-5.371,12.385,12.385,0,0,0-.472-1.344c-.126-.295-.179-.453-.179-.453" fill="#263238"/>
            <path id="Trazado_228079" data-name="Trazado 228079" d="M423.69,408.049s-.009-.145-.013-.418-.007-.686-.013-1.209c-.006-1.076-.015-2.647-.026-4.69-.014-4.106-.035-10.1-.06-17.718-.028-15.225-.068-36.924-.116-62.883l.228.227-80.654.033h-.008l.26-.26c-.014,31.953-.027,61.814-.038,86.918l-.222-.222,58.448.114,16.385.057,4.328.026c.982.009,1.5.025,1.5.025s-.486.017-1.452.025l-4.285.026-16.336.057-58.589.114h-.222v-.223c-.011-25.1-.024-54.965-.038-86.918v-.261h.268l80.654.033h.228v.228c-.048,26.019-.088,47.768-.116,63.03-.025,7.594-.046,13.571-.059,17.666-.012,2.024-.021,3.579-.027,4.645-.006.513-.01.906-.013,1.185,0,.264-.013.392-.013.392" fill="#263238"/>
            <path id="Trazado_228080" data-name="Trazado 228080" d="M400.974,331.821a.415.415,0,1,1-.415-.415.415.415,0,0,1,.415.415" fill="#263238"/>
            <path id="Trazado_228081" data-name="Trazado 228081" d="M403.253,331.821a.415.415,0,1,1-.415-.415.415.415,0,0,1,.415.415" fill="#263238"/>
            <path id="Trazado_228082" data-name="Trazado 228082" d="M405.532,331.821a.415.415,0,1,1-.415-.415.415.415,0,0,1,.415.415" fill="#263238"/>
            <path id="Trazado_228083" data-name="Trazado 228083" d="M407.811,331.821a.415.415,0,1,1-.415-.415.415.415,0,0,1,.415.415" fill="#263238"/>
            <path id="Trazado_228084" data-name="Trazado 228084" d="M410.09,331.821a.415.415,0,1,1-.415-.415.415.415,0,0,1,.415.415" fill="#263238"/>
            <path id="Trazado_228085" data-name="Trazado 228085" d="M412.369,331.821a.415.415,0,1,1-.415-.415.415.415,0,0,1,.415.415" fill="#263238"/>
            <path id="Trazado_228086" data-name="Trazado 228086" d="M414.648,331.821a.415.415,0,1,1-.415-.415.415.415,0,0,1,.415.415" fill="#263238"/>
            <path id="Trazado_228087" data-name="Trazado 228087" d="M413.6,333.353a.415.415,0,1,1-.415-.415.415.415,0,0,1,.415.415" fill="#263238"/>
            <path id="Trazado_228088" data-name="Trazado 228088" d="M411.266,333.353a.415.415,0,1,1-.415-.415.415.415,0,0,1,.415.415" fill="#263238"/>
            <path id="Trazado_228089" data-name="Trazado 228089" d="M408.934,333.353a.415.415,0,1,1-.415-.415.415.415,0,0,1,.415.415" fill="#263238"/>
            <path id="Trazado_228090" data-name="Trazado 228090" d="M406.6,333.353a.415.415,0,1,1-.415-.415.415.415,0,0,1,.415.415" fill="#263238"/>
            <path id="Trazado_228091" data-name="Trazado 228091" d="M404.271,333.353a.415.415,0,1,1-.415-.415.415.415,0,0,1,.415.415" fill="#263238"/>
            <path id="Trazado_228092" data-name="Trazado 228092" d="M401.939,333.353a.415.415,0,1,1-.415-.415.415.415,0,0,1,.415.415" fill="#263238"/>
            <path id="Trazado_228093" data-name="Trazado 228093" d="M400.974,335.086a.415.415,0,1,1-.415-.415.415.415,0,0,1,.415.415" fill="#263238"/>
            <path id="Trazado_228094" data-name="Trazado 228094" d="M403.253,335.086a.415.415,0,1,1-.415-.415.415.415,0,0,1,.415.415" fill="#263238"/>
            <path id="Trazado_228095" data-name="Trazado 228095" d="M405.532,335.086a.415.415,0,1,1-.415-.415.415.415,0,0,1,.415.415" fill="#263238"/>
            <path id="Trazado_228096" data-name="Trazado 228096" d="M407.811,335.086a.415.415,0,1,1-.415-.415.415.415,0,0,1,.415.415" fill="#263238"/>
            <path id="Trazado_228097" data-name="Trazado 228097" d="M410.09,335.086a.415.415,0,1,1-.415-.415.415.415,0,0,1,.415.415" fill="#263238"/>
            <path id="Trazado_228098" data-name="Trazado 228098" d="M412.369,335.086a.415.415,0,1,1-.415-.415.415.415,0,0,1,.415.415" fill="#263238"/>
            <path id="Trazado_228099" data-name="Trazado 228099" d="M414.648,335.086a.415.415,0,1,1-.415-.415.415.415,0,0,1,.415.415" fill="#263238"/>
            <path id="Trazado_228100" data-name="Trazado 228100" d="M413.6,336.618a.415.415,0,1,1-.415-.415.415.415,0,0,1,.415.415" fill="#263238"/>
            <path id="Trazado_228101" data-name="Trazado 228101" d="M411.266,336.618a.415.415,0,1,1-.415-.415.415.415,0,0,1,.415.415" fill="#263238"/>
            <path id="Trazado_228102" data-name="Trazado 228102" d="M408.934,336.618a.415.415,0,1,1-.415-.415.415.415,0,0,1,.415.415" fill="#263238"/>
            <path id="Trazado_228103" data-name="Trazado 228103" d="M406.6,336.618a.415.415,0,1,1-.415-.415.415.415,0,0,1,.415.415" fill="#263238"/>
            <path id="Trazado_228104" data-name="Trazado 228104" d="M404.271,336.618a.415.415,0,1,1-.415-.415.415.415,0,0,1,.415.415" fill="#263238"/>
            <path id="Trazado_228105" data-name="Trazado 228105" d="M401.939,336.618a.415.415,0,1,1-.415-.415.415.415,0,0,1,.415.415" fill="#263238"/>
            <path id="Trazado_228106" data-name="Trazado 228106" d="M400.974,338.351a.415.415,0,1,1-.415-.415.415.415,0,0,1,.415.415" fill="#263238"/>
            <path id="Trazado_228107" data-name="Trazado 228107" d="M403.253,338.351a.415.415,0,1,1-.415-.415.415.415,0,0,1,.415.415" fill="#263238"/>
            <path id="Trazado_228108" data-name="Trazado 228108" d="M405.532,338.351a.415.415,0,1,1-.415-.415.415.415,0,0,1,.415.415" fill="#263238"/>
            <path id="Trazado_228109" data-name="Trazado 228109" d="M407.811,338.351a.415.415,0,1,1-.415-.415.415.415,0,0,1,.415.415" fill="#263238"/>
            <path id="Trazado_228110" data-name="Trazado 228110" d="M410.09,338.351a.415.415,0,1,1-.415-.415.415.415,0,0,1,.415.415" fill="#263238"/>
            <path id="Trazado_228111" data-name="Trazado 228111" d="M412.369,338.351a.415.415,0,1,1-.415-.415.415.415,0,0,1,.415.415" fill="#263238"/>
            <path id="Trazado_228112" data-name="Trazado 228112" d="M414.648,338.351a.415.415,0,1,1-.415-.415.415.415,0,0,1,.415.415" fill="#263238"/>
            <path id="Trazado_228113" data-name="Trazado 228113" d="M413.6,339.882a.415.415,0,1,1-.415-.415.415.415,0,0,1,.415.415" fill="#263238"/>
            <path id="Trazado_228114" data-name="Trazado 228114" d="M411.266,339.882a.415.415,0,1,1-.415-.415.415.415,0,0,1,.415.415" fill="#263238"/>
            <path id="Trazado_228115" data-name="Trazado 228115" d="M408.934,339.882a.415.415,0,1,1-.415-.415.415.415,0,0,1,.415.415" fill="#263238"/>
            <path id="Trazado_228116" data-name="Trazado 228116" d="M406.6,339.882a.415.415,0,1,1-.415-.415.415.415,0,0,1,.415.415" fill="#263238"/>
            <path id="Trazado_228117" data-name="Trazado 228117" d="M404.271,339.882a.415.415,0,1,1-.415-.415.415.415,0,0,1,.415.415" fill="#263238"/>
            <path id="Trazado_228118" data-name="Trazado 228118" d="M401.939,339.882a.415.415,0,1,1-.415-.415.415.415,0,0,1,.415.415" fill="#263238"/>
            <path id="Trazado_228119" data-name="Trazado 228119" d="M369.437,238.381a5.036,5.036,0,0,1,1.625.284,9.114,9.114,0,0,1,3.94,2.576,17.043,17.043,0,0,1,3.485,6.6,64.614,64.614,0,0,1,2.2,9.664,121.864,121.864,0,0,1,.637,25.751,15.129,15.129,0,0,1-2.24,7.142,9.079,9.079,0,0,1-2.817,2.729,6.311,6.311,0,0,1-3.9.926,6.03,6.03,0,0,1-3.7-1.724,4.559,4.559,0,0,1-1.094-1.815,3.879,3.879,0,0,1-.03-2.152,4.6,4.6,0,0,1,2.791-3.145,3.309,3.309,0,0,1,2.211.006,4.005,4.005,0,0,1,1.762,1.33,5.449,5.449,0,0,1,.971,4.147,11.355,11.355,0,0,1-1.441,3.934,15.464,15.464,0,0,1-5.7,5.741,15.282,15.282,0,0,1-14.807.207,17.429,17.429,0,0,1-5.4-4.654,22.685,22.685,0,0,1-3.278-5.869,38.334,38.334,0,0,1-2.19-11.8c-.2-3.671.007-7-.358-9.873a16.5,16.5,0,0,0-.929-3.906,11.039,11.039,0,0,0-1.673-2.919,8.3,8.3,0,0,0-3.71-2.745,11.215,11.215,0,0,0-1.591-.382,5.129,5.129,0,0,1,1.624.282,8.26,8.26,0,0,1,3.835,2.717,11.142,11.142,0,0,1,1.745,2.956,16.562,16.562,0,0,1,.988,3.96c.4,2.912.214,6.243.437,9.89a38.223,38.223,0,0,0,2.225,11.669,22.242,22.242,0,0,0,3.236,5.741,16.971,16.971,0,0,0,5.265,4.514,14.807,14.807,0,0,0,14.324-.225,14.985,14.985,0,0,0,5.5-5.555,10.9,10.9,0,0,0,1.376-3.75,4.928,4.928,0,0,0-.868-3.759,3.508,3.508,0,0,0-1.53-1.159,2.784,2.784,0,0,0-1.859,0,4.091,4.091,0,0,0-2.462,2.786,3.592,3.592,0,0,0,.993,3.477,5.532,5.532,0,0,0,3.386,1.575,5.8,5.8,0,0,0,3.593-.853,8.591,8.591,0,0,0,2.664-2.574,14.691,14.691,0,0,0,2.174-6.911,123.709,123.709,0,0,0-.524-25.649,65.541,65.541,0,0,0-2.109-9.631,17.032,17.032,0,0,0-3.356-6.55,9.235,9.235,0,0,0-3.824-2.614,10.667,10.667,0,0,0-1.592-.383" fill="#e0e0e0"/>
            <rect id="Rectángulo_49989" data-name="Rectángulo 49989" width="33.221" height="6.329" transform="translate(328.368 252.849)" fill="#e0e0e0"/>
            <rect id="Rectángulo_49990" data-name="Rectángulo 49990" width="43.331" height="93.273" transform="translate(78.466 318.284)" fill="#263238"/>
            <path id="Trazado_228120" data-name="Trazado 228120" d="M118.07,401.733s-.01-.141-.016-.4c0-.279-.008-.662-.015-1.159-.007-1.034-.018-2.53-.031-4.463-.015-3.9-.039-9.555-.069-16.663-.029-14.217-.07-34.236-.116-57.532l.247.247-36.249.013h-.006l.261-.26c-.028,31.161-.054,59.459-.072,80.22l-.189-.188,26.469.1,7.235.047,1.892.02c.429.007.659.02.659.02s-.2.013-.62.02l-1.86.02-7.192.047-26.583.1h-.188v-.189c-.018-20.761-.044-49.059-.072-80.22v-.26h.266l36.249.013h.247v.247c-.046,23.363-.087,43.441-.116,57.7-.03,7.083-.054,12.72-.069,16.606-.013,1.911-.024,3.39-.031,4.412-.007.485-.011.858-.015,1.13-.006.252-.015.373-.015.373" fill="#455a64"/>
            <path id="Trazado_228121" data-name="Trazado 228121" d="M115.831,328.3c-.014-.014-.029-.349-.049-.973-.016-.666-.038-1.563-.065-2.7l.114.115c-5.608.086-17.626.146-31.523.146h0c.116-.116-.261.26.259-.261v1.87c0,.615,0,1.219,0,1.806l-.259-.259c8.818.006,16.653.059,22.322.111l6.709.077,1.833.036a5.052,5.052,0,0,1,.661.035,3.529,3.529,0,0,1-.592.035l-1.775.036-6.648.076c-5.658.053-13.585.106-22.51.112h-.259V328.3c0-.587,0-1.191,0-1.806q0-.462,0-.93v-.94c.521-.52.145-.144.262-.26h0c13.9,0,25.915.06,31.523.146l.117,0,0,.112c-.027,1.168-.049,2.087-.065,2.77a7.172,7.172,0,0,1-.049.906" fill="#455a64"/>
            <path id="Trazado_228122" data-name="Trazado 228122" d="M87.48,330.943c0,.144-.651.26-1.453.26s-1.454-.116-1.454-.26.651-.26,1.454-.26,1.453.116,1.453.26" fill="#455a64"/>
            <path id="Trazado_228123" data-name="Trazado 228123" d="M114.989,335.756c0,.144-6.71.26-14.985.26s-14.986-.116-14.986-.26,6.708-.26,14.986-.26,14.985.116,14.985.26" fill="#455a64"/>
            <path id="Trazado_228124" data-name="Trazado 228124" d="M115.118,341.57c0,.144-6.594.26-14.727.26s-14.728-.116-14.728-.26,6.593-.26,14.728-.26,14.727.116,14.727.26" fill="#455a64"/>
            <path id="Trazado_228125" data-name="Trazado 228125" d="M102.388,355.153A2.384,2.384,0,1,1,100,352.768a2.385,2.385,0,0,1,2.385,2.385" fill="#4dd0e1"/>
            <path id="Trazado_228126" data-name="Trazado 228126" d="M93.283,355.043a9.983,9.983,0,0,1-3.188.26,9.983,9.983,0,0,1-3.188-.26,9.983,9.983,0,0,1,3.188-.26,9.983,9.983,0,0,1,3.188.26" fill="#455a64"/>
            <path id="Trazado_228127" data-name="Trazado 228127" d="M112.64,354.428a9.069,9.069,0,0,1-3.034.26,9.064,9.064,0,0,1-3.034-.26,9.063,9.063,0,0,1,3.034-.26,9.067,9.067,0,0,1,3.034.26" fill="#455a64"/>
            <path id="Trazado_228128" data-name="Trazado 228128" d="M79.953,365.092a8.988,8.988,0,0,1-1.623-.3,14.1,14.1,0,0,1-4.29-1.986,18.346,18.346,0,0,1-5.172-5.392,31.161,31.161,0,0,1-3.772-9.163A37.426,37.426,0,0,1,63.9,336.3a24.526,24.526,0,0,1,4.55-12.934,20.469,20.469,0,0,1,5.433-5.161,18.581,18.581,0,0,1,3.487-1.733,19.036,19.036,0,0,1,3.859-.92c2.643-.368,5.346-.317,8.051-.476a19.982,19.982,0,0,0,7.914-1.824,8.87,8.87,0,0,0,4.913-6.037,8.429,8.429,0,0,0-8.419-10.3,5.974,5.974,0,0,0-3.338,1.237,3.618,3.618,0,0,0-1.4,3.017,4.839,4.839,0,0,0,4.46,4.309,7.332,7.332,0,0,0,5.718-2.568,13.741,13.741,0,0,0,2.767-5.429,47.147,47.147,0,0,0,1.153-5.609,92.44,92.44,0,0,0,.529-17.307c-.1-2.026-.183-3.61-.238-4.716-.025-.52-.044-.926-.058-1.227a2.5,2.5,0,0,1,0-.419,2.4,2.4,0,0,1,.055.415c.027.3.063.706.109,1.224.087,1.077.214,2.664.337,4.713a88.938,88.938,0,0,1-.367,17.369,47.354,47.354,0,0,1-1.132,5.667,14.1,14.1,0,0,1-2.832,5.608,7.762,7.762,0,0,1-6.07,2.736,5.3,5.3,0,0,1-4.908-4.739,4.106,4.106,0,0,1,1.566-3.422,6.46,6.46,0,0,1,3.613-1.355,8.931,8.931,0,0,1,8.96,10.907,8.707,8.707,0,0,1-1.836,3.776,10.31,10.31,0,0,1-3.348,2.613A20.421,20.421,0,0,1,89.31,315.6c-2.733.158-5.42.106-8.011.464a18.623,18.623,0,0,0-3.758.889,18.2,18.2,0,0,0-3.391,1.678,20.033,20.033,0,0,0-5.314,5.026,24.138,24.138,0,0,0-4.5,12.682,37.236,37.236,0,0,0,1.122,11.827,31.134,31.134,0,0,0,3.661,9.1,18.345,18.345,0,0,0,5.041,5.382,14.6,14.6,0,0,0,4.2,2.052c.516.151.915.249,1.187.3a2.548,2.548,0,0,1,.407.1" fill="#263238"/>
            <rect id="Rectángulo_49991" data-name="Rectángulo 49991" width="102.604" height="70.456" transform="translate(65.189 173.597)" fill="#263238"/>
            <rect id="Rectángulo_49992" data-name="Rectángulo 49992" width="13.97" height="26.578" transform="translate(108.558 234.447)" fill="#263238"/>
          </g>
        </g>
        <path id="Trazado_228129" data-name="Trazado 228129" d="M75.4,260v9.566h52.936V412.022h4.871V269.568l221.1,1.091V412.022h4.776V270.393l34.121.274V259.178Z" fill="#263238"/>
        <path id="Trazado_228130" data-name="Trazado 228130" d="M109.277,267.708l20.874,15.031-1.814,1.741-21.046-15.857Z" fill="#263238"/>
        <path id="Trazado_228131" data-name="Trazado 228131" d="M378.755,269.111l-24.22,17.248,1.814,1.741,24.392-18.074Z" fill="#263238"/>
        <rect id="Rectángulo_49994" data-name="Rectángulo 49994" width="54.716" height="4.026" transform="translate(152.385 256.482)" fill="#263238"/>
      </g>
    </g>
  </g>
</svg>
