<svg xmlns="http://www.w3.org/2000/svg" width="315" height="256.585" viewBox="0 0 315 256.585">
  <g id="Grupo_117828" data-name="Grupo 117828" transform="translate(-390 -12269)">
    <g id="Grupo_114742" data-name="Grupo 114742" transform="translate(333.618 12199.878)">
      <g id="Grupo_104459" data-name="Grupo 104459" transform="translate(56.382 83.148)">
        <path id="Rectángulo_45295" data-name="Rectángulo 45295" d="M19.3,0H270.961a19.3,19.3,0,0,1,19.3,19.3V223.254a19.3,19.3,0,0,1-19.3,19.3H19.3A19.3,19.3,0,0,1,0,223.254V19.3A19.3,19.3,0,0,1,19.3,0Z" fill="#fff"/>
        <rect id="Rectángulo_45296" data-name="Rectángulo 45296" width="282.052" height="234.345" rx="14.888" transform="translate(4.106 4.106)" fill="#4dd0e1"/>
        <path id="Trazado_216240" data-name="Trazado 216240" d="M343.917,119.275V104.482A11.152,11.152,0,0,0,332.765,93.33H73.017a11.152,11.152,0,0,0-11.152,11.152v14.793Z" transform="translate(-57.758 -89.223)" fill="#1565c0"/>
      </g>
      <g id="Grupo_104465" data-name="Grupo 104465" transform="translate(119.184 69.122)">
        <g id="Grupo_104460" data-name="Grupo 104460" transform="translate(15.85 7.648)" opacity="0.3" style="mix-blend-mode: multiply;isolation: isolate">
          <path id="Trazado_216241" data-name="Trazado 216241" d="M368.892,232.472l-.006-.022-.054.106c-.9,1.271-13.282,18.133-39.257,22.7-29.929,5.261-47.043-2.011-47.043-2.011l0,.022c-.2-.205-.428-.456-.666-.739-8.188-25.147-22.976-26.817-26.576-26.091-2.206.446-3.611,2.822-4.532,6.078l-9.49-27.605L289.777,188.2v-.089a21.294,21.294,0,0,0,11.4-26.352c-1.714-4.972-4.844-7.854-8.408-10.8L218.343,86.316c-4.648-4.569-10.119-6.984-15.827-6.984a21.033,21.033,0,0,0-6.851,1.172,21.392,21.392,0,0,0-14.158,17.233l-19.558,99.977a21.278,21.278,0,0,0,26.686,25.291l.02.019,45.938-15.818,11.464,33.344a35.023,35.023,0,0,0-5.909,1.032c-8.1,2.115-12.266,5.729-10.854,10.18,1.014,3.195,2.825,3.776,4.1,3.736-2.217,1.963-3.178,3.995-2.706,5.861,1.037,4.1,6.878,6.177,9.25,5.532a6.038,6.038,0,0,1,.428-.552,6.855,6.855,0,0,0-.863,3.617c.767,3.624,2.176,4.927,6.458,6.007,2.123.536,7.576.338,12.893-.24l4.206,11.155,6.661-2.326L266,274.672c.5-.1.971-.2,1.416-.3,5.805-1.327,11.8-3.952,15.012-8.935,8.156,3.992,36.89,8.8,58.005,2.867,15.125-4.246,23.859-10.016,28.46-14.006V232.472Z" transform="translate(-161.385 -79.332)" fill="#222221"/>
        </g>
        <g id="Grupo_104464" data-name="Grupo 104464" transform="translate(0)">
          <g id="Grupo_104462" data-name="Grupo 104462" transform="translate(15.85)">
            <path id="Trazado_216242" data-name="Trazado 216242" d="M282.4,285.091l-30.265-88.036-6.688,2.257L275.56,286.9Z" transform="translate(-182.481 -101.227)" fill="#353168"/>
            <g id="Grupo_104461" data-name="Grupo 104461">
              <path id="Trazado_216243" data-name="Trazado 216243" d="M182.677,213.65A21.292,21.292,0,0,1,161.948,187.5l19.558-99.978a21.39,21.39,0,0,1,14.158-17.232,21.013,21.013,0,0,1,6.851-1.172c5.708,0,11.18,2.414,15.827,6.984l74.427,64.641c3.564,2.95,6.7,5.831,8.408,10.8a21.293,21.293,0,0,1-11.4,26.352v.09L188.654,212.813l-.02-.019A21.187,21.187,0,0,1,182.677,213.65Z" transform="translate(-161.385 -69.122)" fill="#f0cc32"/>
              <path id="Trazado_216244" data-name="Trazado 216244" d="M291.889,143.741,217.4,79.043c-5.546-5.486-12.618-7.745-19.917-5.231a18.707,18.707,0,0,0-12.349,15.116L165.554,189a18.541,18.541,0,0,0,24.081,21.805c.189-.067.375-.139.562-.21l.013.012,97.742-33.655v0l.053-.016a18.544,18.544,0,0,0,11.5-23.572C298.074,149.223,295.509,146.738,291.889,143.741Z" transform="translate(-162.305 -70.042)" fill="#353168"/>
              <path id="Trazado_216245" data-name="Trazado 216245" d="M189.689,207.266a12.751,12.751,0,0,1-16.564-14.992l18.91-96.953.775-3.7c.99-5.018,3.894-8.819,8.493-10.4,4.891-1.685,9.335-.444,13.7,3.6l75.729,65.748c1.8,1.612,4.281,3.852,5.233,6.618a12.769,12.769,0,0,1-7.831,16.187S189.774,207.238,189.689,207.266Z" transform="translate(-164.245 -71.974)" fill="#eab331"/>
              <path id="Trazado_216246" data-name="Trazado 216246" d="M287.15,154.393l0-.006-83.331-72.87-20.8,108.715a8.914,8.914,0,0,0,11.565,10.559c.122-.042.236-.1.356-.145l.015.013,88.892-30.607.008-.038c.223-.059.446-.117.667-.192a8.914,8.914,0,0,0,2.624-15.43Z" transform="translate(-166.75 -72.233)" fill="#f0cc32"/>
              <path id="Trazado_216247" data-name="Trazado 216247" d="M192.774,206.422a10.343,10.343,0,0,1-12.51-13.767,8.936,8.936,0,0,1,.254-2.436l20.8-108.684-.019-.069c-4.6,1.585-7.5,5.383-8.484,10.4l-.775,3.7-18.91,96.953a12.751,12.751,0,0,0,16.564,14.992c.01,0,1.12-.384,3.091-1.063Z" transform="translate(-164.245 -72.22)" fill="#f6e434"/>
              <path id="Trazado_216248" data-name="Trazado 216248" d="M244.892,186.58a9.983,9.983,0,1,1,6.2-12.687A9.985,9.985,0,0,1,244.892,186.58Zm-14.947-74.671c-1.5-4.253-5.479-1.838-10.793-.011s-9.971,2.405-8.5,6.7a6.321,6.321,0,0,0,.363.848l17.221,38.293a6.372,6.372,0,1,0,12.051-4.144L230.3,112.713A4.91,4.91,0,0,0,229.945,111.909Z" transform="translate(-173.68 -79.265)" fill="#353168"/>
            </g>
          </g>
          <g id="Grupo_104463" data-name="Grupo 104463" transform="translate(83.487 146.977)">
            <path id="Trazado_216249" data-name="Trazado 216249" d="M409.054,273.568s-12.319,18.038-39.317,22.782c-29.929,5.26-47.043-2.011-47.043-2.011l-1.273,11.547c6.13,4.081,36.9,9.77,59.172,3.516,15.125-4.246,23.859-10.016,28.46-14Z" transform="translate(-269.184 -267.406)" fill="#353168"/>
            <path id="Trazado_216250" data-name="Trazado 216250" d="M309.323,296.98a12.524,12.524,0,0,1-2.644-3.364c-3.876-8.087-19.039-19.682-30.177-5.076-7.594,9.959.008,13.893-4.685,15.749s-6.473,7.246-6.152,8.767c.767,3.624,2.176,4.927,6.458,6.007,3.376.851,15.168-.151,21.453-1.588s12.794-4.389,15.758-10.214" transform="translate(-255.182 -269.411)" fill="#353168"/>
            <path id="Trazado_216251" data-name="Trazado 216251" d="M311.016,297.069s-1.548-.67-4.109-5.233c-4.516-8.05-17.7-17.166-29.832-6.163-3.937,3.57-3.323,7.587-3.217,10.882.131,4.084.586,8.277-.255,14.2.576,2.925-3.541,5.393-.381,6.22s15.124.578,21.395-.909,13.567-4.868,16.779-9.778" transform="translate(-256.785 -269.168)" fill="#f2d5b7"/>
            <path id="Trazado_216252" data-name="Trazado 216252" d="M251.954,295.53c-1.412-4.45,2.75-8.063,10.854-10.18s14.821-1.128,15.905,1.85c1.559,4.284-.9,6.491-.9,6.491a24.66,24.66,0,0,0-11.258,1.058c-6.455,2.031-9.05,4.2-9.05,4.2S253.633,300.821,251.954,295.53Z" transform="translate(-251.682 -270.079)" fill="#353168"/>
            <path id="Trazado_216253" data-name="Trazado 216253" d="M288.453,299.428c-1.579-2.235-7.674-7.126-18.747-3.928s-16.873,8.1-15.837,12.193,6.878,6.178,9.25,5.532c0,0,2.829-4.518,12.587-6.992s13.709-.9,13.709-.9S291.518,303.767,288.453,299.428Z" transform="translate(-252.201 -272.645)" fill="#353168"/>
            <path id="Trazado_216254" data-name="Trazado 216254" d="M254.69,295.342c-1.157-3.572,2.759-6.034,10.222-7.993s13.138-.789,13.808,1.67a5.291,5.291,0,0,1-.362,4.061,25.568,25.568,0,0,0-10.313,1.194c-5.956,1.842-8.39,3.678-8.39,3.678S256.067,299.589,254.69,295.342Z" transform="translate(-252.387 -270.616)" fill="#f2d5b7"/>
            <path id="Trazado_216255" data-name="Trazado 216255" d="M288.361,302.139c-1.03-1.958-6.8-5.559-17-2.633s-14.991,5.842-14.166,9.139,5.5,4.659,7.686,4.064c0,0,1.56-4.058,10.565-6.281,10.577-2.611,12.806-1.47,12.806-1.47S289.577,304.449,288.361,302.139Z" transform="translate(-253.042 -273.638)" fill="#f2d5b7"/>
            <path id="Trazado_216256" data-name="Trazado 216256" d="M273.85,320.386a22.038,22.038,0,0,0,10.384-.311c6.961-1.7,12.4-4.263,11.73-8.052-.894-5.052-7.069-5.181-14.858-3.88s-13.83,7.836-12.808,12.49a7.318,7.318,0,0,0,6.15,5.16" transform="translate(-255.824 -275.908)" fill="#353168"/>
            <path id="Trazado_216257" data-name="Trazado 216257" d="M312.343,294.937c-7.911-28.4-23.849-30.229-27.6-29.47s-5.2,7.1-5.864,13.881,1.05,14.367,5.8,14.009c2.41-.182,4.081-1.59,5.112-5.613,0,0,4.449,6.639,10.05,5.921" transform="translate(-258.472 -265.341)" fill="#353168"/>
            <path id="Trazado_216258" data-name="Trazado 216258" d="M313.83,296.853s-6.319-15.009-13.215-21.367c-7.635-7.039-12.505-8.087-14.406-7.305s-5.573,14.462-3.976,19.839,4.58,4.7,6.091,1.512,3.928-10.316,4.075-13.659c0,0,.727,4.114-1.19,10.59,0,0,2.916,6.905,9.868,8.183" transform="translate(-259.251 -265.999)" fill="#f2d5b7"/>
            <path id="Trazado_216259" data-name="Trazado 216259" d="M277.755,321.412s3.937-1.03,6.581-1.912c7.834-2.615,9.823-4.97,9.486-7.157-.583-3.777-6.355-3.446-13.645-2-7.732,1.539-12.91,6.276-12.132,10.03.416,2.012,3.528,4.524,7.807,4.231" transform="translate(-255.769 -276.381)" fill="#f2d5b7"/>
            <path id="Trazado_216260" data-name="Trazado 216260" d="M408.59,273.561l-.006-.021s-9.1,18.874-37.643,23.94c-36.618,6.5-48.58-2.67-48.58-2.67l-2.788,10.138c5.845,3.031,36.726,8.855,59.477,2.661a80.539,80.539,0,0,0,29.541-14.663Z" transform="translate(-268.72 -267.398)" fill="#f2d5b7"/>
          </g>
          <path id="Trazado_216261" data-name="Trazado 216261" d="M154.383,233.153s-4.246,28.122,25.474,30.6" transform="translate(-143.725 -110.286)" fill="none" stroke="#353168" stroke-miterlimit="10" stroke-width="2.75"/>
          <path id="Trazado_216262" data-name="Trazado 216262" d="M141.989,224.3s-6.544,20.862,5.577,33.161c10.25,10.4,20.952,9.8,26.529,9.5" transform="translate(-140.225 -108.064)" fill="none" stroke="#353168" stroke-miterlimit="10" stroke-width="2.75"/>
          <path id="Trazado_216263" data-name="Trazado 216263" d="M346.478,160.506s9.647,8.893,9.647,19.6c0,9.124-2.412,18.238-12.511,24.871" transform="translate(-191.266 -92.055)" fill="none" stroke="#353168" stroke-miterlimit="10" stroke-width="2.75"/>
          <path id="Trazado_216264" data-name="Trazado 216264" d="M357.1,212.25s12.963-10.551,13.868-28.036c.724-14-4.673-23.967-11.155-30.147" transform="translate(-194.65 -90.439)" fill="none" stroke="#353168" stroke-miterlimit="10" stroke-width="2.75"/>
          <path id="Trazado_216265" data-name="Trazado 216265" d="M288.69,323.063l6.319,16.758,6.661-2.326-6.3-16.712Z" transform="translate(-177.483 -132.277)" fill="#353168"/>
        </g>
      </g>
      <g id="Grupo_104466" data-name="Grupo 104466" transform="translate(113.655 263.986)">
        <rect id="Rectángulo_45297" data-name="Rectángulo 45297" width="175.72" height="46.067" rx="13.618" transform="translate(0 0)" fill="#fff"/>
        <path id="Rectángulo_45298" data-name="Rectángulo 45298" d="M8.464,0h151.07A8.464,8.464,0,0,1,168,8.464V29.882a8.464,8.464,0,0,1-8.464,8.464H8.465A8.465,8.465,0,0,1,0,29.881V8.464A8.464,8.464,0,0,1,8.464,0Z" transform="translate(3.86 3.861)" fill="#1565c0"/>
      </g>
    </g>
    <path id="Trazado_232452" data-name="Trazado 232452" d="M32,18.344H27.3L26.48,21H22.818L28.033,6.781h3.223L36.51,21H32.828ZM28.121,15.7h3.057l-1.533-4.932Zm19.414-6.27H43.268V21H39.84V9.428H35.65V6.781H47.535ZM57.8,14.965H52.408v3.4h6.367V21H48.98V6.781h9.814V9.428H52.408v3H57.8ZM72.047,21H68.639L63.6,12.152V21H60.172V6.781H63.6l5.029,8.848V6.781h3.418Zm13.672-4.814a5.193,5.193,0,0,1-.8,2.622,4.833,4.833,0,0,1-2.056,1.763,7,7,0,0,1-3.022.625,5.584,5.584,0,0,1-4.414-1.826,7.54,7.54,0,0,1-1.611-5.156v-.7a8.607,8.607,0,0,1,.728-3.657,5.513,5.513,0,0,1,2.095-2.422A5.844,5.844,0,0,1,79.8,6.576a6.129,6.129,0,0,1,4.16,1.362,5.383,5.383,0,0,1,1.787,3.755H82.33a2.547,2.547,0,0,0-.654-1.865A2.691,2.691,0,0,0,79.8,9.262a2.048,2.048,0,0,0-1.875.957,6.151,6.151,0,0,0-.625,3.057v1.006a6.806,6.806,0,0,0,.571,3.252,2.091,2.091,0,0,0,1.968.977,2.632,2.632,0,0,0,1.807-.557,2.363,2.363,0,0,0,.664-1.768ZM90.992,21H87.574V6.781h3.418Zm14.424-6.816a8.385,8.385,0,0,1-.771,3.682,5.7,5.7,0,0,1-2.192,2.466,6.1,6.1,0,0,1-3.237.864,6.191,6.191,0,0,1-3.223-.835A5.692,5.692,0,0,1,93.8,17.973a8.144,8.144,0,0,1-.825-3.564v-.8a8.422,8.422,0,0,1,.767-3.687,5.688,5.688,0,0,1,2.2-2.466,6.5,6.5,0,0,1,6.479-.01,5.79,5.79,0,0,1,2.2,2.446,8.18,8.18,0,0,1,.8,3.638Zm-3.486-.6a5.979,5.979,0,0,0-.708-3.218,2.271,2.271,0,0,0-2.026-1.1q-2.578,0-2.725,3.867l-.01,1.045a6.149,6.149,0,0,0,.693,3.213,2.268,2.268,0,0,0,2.061,1.123,2.24,2.24,0,0,0,2-1.1,5.982,5.982,0,0,0,.713-3.174ZM99.6,2.973h3.477l-2.715,3.066-2.686,0ZM119.059,21H115.65l-5.039-8.848V21h-3.428V6.781h3.428l5.029,8.848V6.781h3.418Z" transform="translate(466 12475)" fill="#fff"/>
    <g id="Grupo_114743" data-name="Grupo 114743" transform="translate(0 11758)">
      <g id="Elipse_6640" data-name="Elipse 6640" transform="translate(652.953 625.477)" fill="#4dd0e1" stroke="#fff" stroke-width="6">
        <ellipse cx="26.023" cy="26.023" rx="26.023" ry="26.023" stroke="none"/>
        <ellipse cx="26.023" cy="26.023" rx="23.023" ry="23.023" fill="none"/>
      </g>
      <g id="Unión_43" data-name="Unión 43" transform="translate(666.242 638.211)" fill="#fff">
        <path d="M 16.62550354003906 24.96873474121094 L 8.843784332275391 24.96873474121094 L 8.843784332275391 17.12498474121094 L 8.843784332275391 16.62498474121094 L 8.343784332275391 16.62498474121094 L 0.5000039339065552 16.62498474121094 L 0.5000039339065552 8.842764854431152 L 8.343784332275391 8.842764854431152 L 8.843784332275391 8.842764854431152 L 8.843784332275391 8.342764854431152 L 8.843784332275391 0.5000045299530029 L 16.62550354003906 0.5000045299530029 L 16.62550354003906 8.342764854431152 L 16.62550354003906 8.842764854431152 L 17.12550354003906 8.842764854431152 L 24.96928405761719 8.842764854431152 L 24.96928405761719 16.62498474121094 L 17.12550354003906 16.62498474121094 L 16.62550354003906 16.62498474121094 L 16.62550354003906 17.12498474121094 L 16.62550354003906 24.96873474121094 Z" stroke="none"/>
        <path d="M 16.12550354003906 24.46873474121094 L 16.12550354003906 16.12498474121094 L 24.46928405761719 16.12498474121094 L 24.46928405761719 9.342764854431152 L 16.12550354003906 9.342764854431152 L 16.12550354003906 1.000004529953003 L 9.343784332275391 1.000004529953003 L 9.343784332275391 9.342764854431152 L 1.000003933906555 9.342764854431152 L 1.000003933906555 16.12498474121094 L 9.343784332275391 16.12498474121094 L 9.343784332275391 24.46873474121094 L 16.12550354003906 24.46873474121094 M 17.12550354003906 25.46873474121094 L 8.343784332275391 25.46873474121094 L 8.343784332275391 17.12498474121094 L 3.936157099815318e-06 17.12498474121094 L 3.936157099815318e-06 8.342764854431152 L 8.343784332275391 8.342764854431152 L 8.343784332275391 4.509582595346728e-06 L 17.12550354003906 4.509582595346728e-06 L 17.12550354003906 8.342764854431152 L 25.46928405761719 8.342764854431152 L 25.46928405761719 17.12498474121094 L 17.12550354003906 17.12498474121094 L 17.12550354003906 25.46873474121094 Z" stroke="none" fill="#0f98a9"/>
      </g>
    </g>
  </g>
</svg>
