<svg xmlns="http://www.w3.org/2000/svg" xmlns:xlink="http://www.w3.org/1999/xlink" width="372.916" height="340.451" viewBox="0 0 372.916 340.451">
  <defs>
    <clipPath id="clip-path">
      <rect id="Rectángulo_46350" data-name="Rectángulo 46350" width="97.554" height="9.63" transform="translate(90.487 19.344)" fill="none"/>
    </clipPath>
    <clipPath id="clip-path-2">
      <path id="Trazado_220363" data-name="Trazado 220363" d="M254.1,99.087,239.6,107.2V113.2a12.742,12.742,0,0,0-4.01.191l.016.08s-2.141,12.654,10.64,12.654c12.176,0,13.725-11.839,13.837-12.973a26.367,26.367,0,0,0-5.449-.08V99.087Z" fill="none"/>
    </clipPath>
    <radialGradient id="radial-gradient" cx="0.538" cy="0.5" r="0.478" gradientTransform="matrix(1.016, 0, 0, -1, 0.137, 17.856)" gradientUnits="objectBoundingBox">
      <stop offset="0" stop-color="#ffc8af"/>
      <stop offset="1" stop-color="#ffbb9c"/>
    </radialGradient>
    <clipPath id="clip-path-3">
      <path id="Trazado_220364" data-name="Trazado 220364" d="M222.711,81.19c-1.581,8.368-.061,24.736,7.841,30.387,2.05,1.465,12.794.192,14.54-1.335q3.863-3.382,7.735-6.749a10.231,10.231,0,0,0,1.59-1.606A9.346,9.346,0,0,0,255.7,99c1.782-5.923,3.1-12.426,1.7-18.571a16.584,16.584,0,0,0-4.36-8.086,17.638,17.638,0,0,0-12.681-5.263c-8.059,0-15.964,5.231-17.643,14.111" fill="none"/>
    </clipPath>
    <radialGradient id="radial-gradient-2" cx="0.511" cy="0.486" r="0.385" gradientTransform="matrix(1.137, 0, 0, -1, 0.639, 10.474)" xlink:href="#radial-gradient"/>
    <clipPath id="clip-path-4">
      <path id="Trazado_220376" data-name="Trazado 220376" d="M211.639,305.769l4.233,9.649,12.926-5.671-4.218-9.619Z" fill="none"/>
    </clipPath>
    <radialGradient id="radial-gradient-3" cx="0.5" r="0.531" gradientTransform="matrix(0.891, 0, 0, -1, -1.343, 5.274)" xlink:href="#radial-gradient"/>
    <clipPath id="clip-path-5">
      <path id="Trazado_220378" data-name="Trazado 220378" d="M162.205,317.053h14.108L175.3,302.6l-14.108-.031Z" fill="none"/>
    </clipPath>
    <radialGradient id="radial-gradient-4" cx="0.5" r="0.511" gradientTransform="matrix(0.958, 0, 0, -1, -0.449, 5.231)" xlink:href="#radial-gradient"/>
    <clipPath id="clip-path-6">
      <path id="Trazado_220384" data-name="Trazado 220384" d="M175.945,180.971h25.563l.208-7-6.726.671s-2.668-3.659-9.586-3.659-9.459,9.986-9.459,9.986" fill="none"/>
    </clipPath>
    <radialGradient id="radial-gradient-5" cx="1.142" cy="1.383" r="1.533" gradientTransform="matrix(0, 1, 1.938, 0, -25.805, 19.626)" xlink:href="#radial-gradient"/>
    <clipPath id="clip-path-7">
      <path id="Trazado_220388" data-name="Trazado 220388" d="M237.937,167.39c-2.925.767-9.986,2.093-17.112,3.339-.942.176-1.886.336-2.828.511-8.484,1.471-16.281,2.733-16.281,2.733l-.016.415v.271l-.192,6.312v1.6a176.929,176.929,0,0,1,19.221.316c15,1.07,34.351,1.709,40.758-1.31,3-1.422,5.4-6.087,7.285-11.839l-.1.048-25.036-8.868c-1.822,3.4-3.771,5.96-5.7,6.471" fill="none"/>
    </clipPath>
    <radialGradient id="radial-gradient-6" cx="0.454" cy="0.196" r="0.591" gradientTransform="matrix(0, 1, 2.061, 0, -12.364, 9.297)" xlink:href="#radial-gradient"/>
    <clipPath id="clip-path-8">
      <rect id="Rectángulo_46390" data-name="Rectángulo 46390" width="9.997" height="25.178" transform="translate(243.382 134.411)" fill="none"/>
    </clipPath>
    <clipPath id="clip-path-9">
      <path id="Trazado_220403" data-name="Trazado 220403" d="M343.292,246.13c-.377,3.22-.662,6.45-1.013,9.674-.325,2.984-1.333,6.282-1.364,9.24-.04,3.733.5,10.259,2.756,13.342,1.724,2.355,4.588,4.411,7.555,3.806,11.013-2.245,10.5-16.427,12.212-24.752.914-4.433,1.544-9,2.657-13.384.753-2.965,1.767-6.093.929-9.188a38.137,38.137,0,0,0-1.857-5.175c-1.6-3.659-3.406-6.885-4.2-10.694-10.257,5.794-16.321,15.523-17.675,27.131" fill="none"/>
    </clipPath>
    <clipPath id="clip-path-10">
      <path id="Trazado_220405" data-name="Trazado 220405" d="M305.546,253.307c1.018,3.078,2.123,6.127,3.165,9.2.965,2.842,1.443,6.258,2.663,8.953,1.539,3.4,4.783,9.089,8.13,10.931,2.556,1.408,6.021,2.063,8.455.263,9.037-6.685,2.583-19.322.625-27.594-1.043-4.4-2.4-8.812-3.24-13.256-.569-3-.97-6.268-3.037-8.721a37.94,37.94,0,0,0-3.867-3.908c-2.991-2.644-5.993-4.8-8.321-7.922-6.853,9.582-8.245,20.961-4.573,32.057" fill="none"/>
    </clipPath>
    <clipPath id="clip-path-11">
      <path id="Trazado_220407" data-name="Trazado 220407" d="M320.07,241.183c.525,3.979,1.162,7.941,1.719,11.915.514,3.678.3,7.942,1.164,11.5,1.084,4.489,3.711,12.156,7.352,15.17,2.783,2.3,6.843,3.9,10.219,2.277,12.533-6.033,7.614-22.891,7.148-33.4-.248-5.6-.877-11.268-.871-16.866.005-3.784.274-7.845-1.671-11.3a46.9,46.9,0,0,0-3.8-5.646c-3.024-3.907-6.173-7.227-8.281-11.558-10.551,10.062-14.876,23.574-12.982,37.912" fill="none"/>
    </clipPath>
  </defs>
  <g id="Grupo_117818" data-name="Grupo 117818" transform="translate(-942.084 -2809.549)">
    <g id="Grupo_108188" data-name="Grupo 108188" transform="translate(0 -60.451)">
      <rect id="Rectángulo_46348" data-name="Rectángulo 46348" width="97.554" height="91.054" transform="translate(973.571 2889.344)" fill="#112b46"/>
      <g id="Grupo_108146" data-name="Grupo 108146" transform="translate(883.084 2870)">
        <g id="Grupo_108187" data-name="Grupo 108187">
          <g id="Grupo_108144" data-name="Grupo 108144" style="mix-blend-mode: screen;isolation: isolate">
            <g id="Grupo_108143" data-name="Grupo 108143">
              <g id="Grupo_108142" data-name="Grupo 108142" clip-path="url(#clip-path)">
                <rect id="Rectángulo_46349" data-name="Rectángulo 46349" width="97.554" height="9.63" transform="translate(90.487 19.344)" fill="#1d262d"/>
              </g>
            </g>
          </g>
          <path id="Trazado_220353" data-name="Trazado 220353" d="M166.954,24.268a1.765,1.765,0,1,1-1.765-1.765,1.765,1.765,0,0,1,1.765,1.765" fill="#606bf1"/>
          <path id="Trazado_220354" data-name="Trazado 220354" d="M174.325,24.268A1.765,1.765,0,1,1,172.56,22.5a1.765,1.765,0,0,1,1.765,1.765" fill="#fbd15b"/>
          <path id="Trazado_220355" data-name="Trazado 220355" d="M181.169,24.454a1.765,1.765,0,1,1-1.765-1.765,1.765,1.765,0,0,1,1.765,1.765" fill="#ff8578"/>
          <rect id="Rectángulo_46351" data-name="Rectángulo 46351" width="13.817" height="1.161" transform="translate(107.833 37.926)" fill="#ff8578"/>
          <rect id="Rectángulo_46352" data-name="Rectángulo 46352" width="13.817" height="1.161" transform="translate(124.05 37.926)" fill="#fbd15b"/>
          <rect id="Rectángulo_46353" data-name="Rectángulo 46353" width="21.426" height="1.161" transform="translate(112.107 44.182)" fill="#606bf1"/>
          <rect id="Rectángulo_46354" data-name="Rectángulo 46354" width="10.891" height="1.161" transform="translate(137.076 44.182)" fill="#ff8578"/>
          <rect id="Rectángulo_46355" data-name="Rectángulo 46355" width="9.41" height="1.161" transform="translate(119.54 50.437)" fill="#fbd15b"/>
          <rect id="Rectángulo_46356" data-name="Rectángulo 46356" width="31.217" height="1.161" transform="translate(134.389 50.437)" fill="#fbd15b"/>
          <rect id="Rectángulo_46357" data-name="Rectángulo 46357" width="35.677" height="1.161" transform="translate(126.848 56.693)" fill="#606bf1"/>
          <rect id="Rectángulo_46358" data-name="Rectángulo 46358" width="10.98" height="1.161" transform="translate(117.928 62.949)" fill="#ff8578"/>
          <rect id="Rectángulo_46359" data-name="Rectángulo 46359" width="10.98" height="1.161" transform="translate(133.606 62.949)" fill="#606bf1"/>
          <rect id="Rectángulo_46360" data-name="Rectángulo 46360" width="15.973" height="1.161" transform="translate(107.834 95.404)" fill="#ff8578"/>
          <rect id="Rectángulo_46361" data-name="Rectángulo 46361" width="15.974" height="1.161" transform="translate(129.4 95.404)" fill="#fbd15b"/>
          <rect id="Rectángulo_46362" data-name="Rectángulo 46362" width="15.973" height="1.161" transform="translate(150.388 95.404)" fill="#ff8578"/>
          <rect id="Rectángulo_46363" data-name="Rectángulo 46363" width="31.217" height="1.161" transform="translate(112.107 89.148)" fill="#606bf1"/>
          <rect id="Rectángulo_46364" data-name="Rectángulo 46364" width="31.217" height="1.161" transform="translate(148.192 89.148)" fill="#ff8578"/>
          <rect id="Rectángulo_46365" data-name="Rectángulo 46365" width="30.978" height="1.161" transform="translate(119.54 82.893)" fill="#ff8578"/>
          <rect id="Rectángulo_46366" data-name="Rectángulo 46366" width="8.622" height="1.161" transform="translate(153.219 82.893)" fill="#fbd15b"/>
          <rect id="Rectángulo_46367" data-name="Rectángulo 46367" width="11.662" height="1.161" transform="translate(117.516 76.637)" fill="#fbd15b"/>
          <rect id="Rectángulo_46368" data-name="Rectángulo 46368" width="11.662" height="1.161" transform="translate(135.371 76.637)" fill="#606bf1"/>
          <rect id="Rectángulo_46369" data-name="Rectángulo 46369" width="11.662" height="1.161" transform="translate(154.534 76.637)" fill="#ff8578"/>
          <rect id="Rectángulo_46370" data-name="Rectángulo 46370" width="16.352" height="1.161" transform="translate(131.035 70.381)" fill="#fbd15b"/>
          <rect id="Rectángulo_46371" data-name="Rectángulo 46371" width="16.352" height="1.161" transform="translate(108.513 70.381)" fill="#606bf1"/>
          <rect id="Rectángulo_46372" data-name="Rectángulo 46372" width="1.486" height="1.487" transform="translate(98.791 36.81)" fill="#f9fbfc"/>
          <path id="Trazado_220356" data-name="Trazado 220356" d="M100.277,91.352H98.791V88.321h1.486Zm0-7.58H98.791V80.741h1.486Zm0-7.579H98.791V73.161h1.486Zm0-7.579H98.791V65.582h1.486Zm0-7.579H98.791V58h1.486Zm0-7.58H98.791V50.423h1.486Zm0-7.579H98.791V42.844h1.486Z" fill="#f9fbfc"/>
          <rect id="Rectángulo_46373" data-name="Rectángulo 46373" width="1.486" height="1.487" transform="translate(98.791 95.899)" fill="#f9fbfc"/>
          <rect id="Rectángulo_46374" data-name="Rectángulo 46374" width="80.33" height="49.515" transform="translate(209.032)" fill="#4dd0e1"/>
          <path id="Trazado_220357" data-name="Trazado 220357" d="M240.23,19.916,230.673,24l9.557,4.019L238.979,30.9l-11.462-5.121V22.238l11.462-5.15Z" fill="#f9fbfc"/>
          <path id="Trazado_220358" data-name="Trazado 220358" d="M254.315,10.478l-6.937,26.646-3.3-.774,6.967-26.616Z" fill="#f9fbfc"/>
          <path id="Trazado_220359" data-name="Trazado 220359" d="M270.9,22.238v3.543L259.438,30.9l-1.25-2.888L267.716,24l-9.528-4.079,1.25-2.828Z" fill="#f9fbfc"/>
          <rect id="Rectángulo_46375" data-name="Rectángulo 46375" width="45.754" height="32.596" transform="translate(286.602 95.926)" fill="#039be5"/>
          <path id="Trazado_220360" data-name="Trazado 220360" d="M305.741,102.963c-1.472,0-1.962.4-1.962,1.5v4.906c0,1.916-.795,2.5-2.126,2.874,1.331.35,2.126.934,2.126,2.826v4.906c0,1.1.514,1.495,1.962,1.495v2.149c-3.714,0-4.766-1.191-4.766-3.667V115.3c0-1.332-.35-1.846-1.565-1.846V111c1.215,0,1.565-.537,1.565-1.869v-4.648c0-2.5,1.052-3.668,4.766-3.668Z" fill="#f1f2f2"/>
          <path id="Trazado_220361" data-name="Trazado 220361" d="M317.983,104.481v4.649c0,1.331.35,1.869,1.589,1.869v2.453c-1.239,0-1.589.514-1.589,1.845v4.649c0,2.476-1.051,3.668-4.766,3.668v-2.15c1.449,0,1.963-.4,1.963-1.495v-4.906c0-1.892.794-2.476,2.126-2.826-1.332-.374-2.126-.958-2.126-2.874v-4.9c0-1.1-.491-1.5-1.963-1.5v-2.149c3.715,0,4.766,1.168,4.766,3.668" fill="#f1f2f2"/>
          <rect id="Rectángulo_46376" data-name="Rectángulo 46376" width="51.329" height="34.332" transform="translate(59.439 7.102)" fill="#ffca28"/>
          <path id="Trazado_220362" data-name="Trazado 220362" d="M76.426,16.957A8.425,8.425,0,0,0,87.7,29.2l5.387,5.387a.582.582,0,0,0,.824,0l1.513-1.513a.582.582,0,0,0,0-.824l-5.387-5.387a8.425,8.425,0,0,0-13.61-9.91m10.813,9.45a5.957,5.957,0,1,1,0-8.425,5.965,5.965,0,0,1,0,8.425" fill="#f9fbfc"/>
        </g>
      </g>
      <g id="Grupo_108148" data-name="Grupo 108148" transform="translate(883.084 2870)">
        <g id="Grupo_108147" data-name="Grupo 108147" clip-path="url(#clip-path-2)">
          <rect id="Rectángulo_46378" data-name="Rectángulo 46378" width="26.618" height="27.034" transform="translate(233.463 99.087)" fill="url(#radial-gradient)"/>
        </g>
      </g>
      <g id="Grupo_108150" data-name="Grupo 108150" transform="translate(883.084 2870)">
        <g id="Grupo_108149" data-name="Grupo 108149" clip-path="url(#clip-path-3)">
          <rect id="Rectángulo_46379" data-name="Rectángulo 46379" width="46.491" height="52.861" transform="matrix(0.978, -0.21, 0.21, 0.978, 211.672, 69.116)" fill="url(#radial-gradient-2)"/>
        </g>
      </g>
      <path id="Trazado_220365" data-name="Trazado 220365" d="M248.6,90.108c.1-1.336,1.479-2.8,2.858-1.932,1.428.9,1.092,3.27.5,4.576-.464,1.025-2.016,2.145-3.067,1.193-.881-.8.488-1.74.533-2.469.041-.655-1.271-1.125-.734-1.827" transform="translate(883.084 2870)" fill="#f7b094"/>
      <path id="Trazado_220366" data-name="Trazado 220366" d="M248.85,96.287a4.08,4.08,0,0,0,4.5-2.672,15.364,15.364,0,0,0,.551-4.3,10.287,10.287,0,0,1,.353,4.737c-.373,2.922-1.4,5.705-3.69,5.741s-1.711-3.51-1.711-3.51" transform="translate(883.084 2870)" fill="#f7b094"/>
      <path id="Trazado_220367" data-name="Trazado 220367" d="M247.083,94.207a.514.514,0,0,1-.161.048c-.892.125-1.248-.954-1.38-1.629a30.055,30.055,0,0,1-.316-4.768,3.608,3.608,0,0,0-.145-1.273c-.5-1.149-1.836-1.894-2.243-3.077-.474-1.379.864-2.754.333-4.262-.813-2.311-3.78-2.842-5.926-2.818a67.386,67.386,0,0,0-9.538,1.129c-3.355.521-7.643,1.015-10.6-1.108-3.563-2.556-5.051-9.22-2.392-12.87a8.639,8.639,0,0,1,6.606-3.1c2.553-.057,4.71,1.465,7.052,2.229,1.865.611,3.669-1.173,5.412-1.523,2.191-.436,3.122,1.956,5.06,2.022,1.884.063,3.731-1.409,5.562-1.742,3.651-.668,3.436,3,5.885,4.251,1.522.78,3.489.308,5.029,1.1,1.17.6,1.334,1.656,1.589,2.853a27.85,27.85,0,0,0,.573,3.211,7.268,7.268,0,0,0,1.628,2.134,7.805,7.805,0,0,1,1.356,2.582,16.092,16.092,0,0,1,.675,6.556A44.545,44.545,0,0,1,258.4,94.932c-.8,2.254-1.1,4.6-2.325,6.731-.33.573-1.8,2.247-2.341,1a1.827,1.827,0,0,1-.079-.862c.162-2.322,2.324-17.287-3.344-15.488a4.016,4.016,0,0,0-2.432,2.5,9.711,9.711,0,0,0-.5,4.14c.01.205.015.409.007.614a.7.7,0,0,1-.3.644" transform="translate(883.084 2870)" fill="#3d3d7a"/>
      <path id="Trazado_220368" data-name="Trazado 220368" d="M239.6,111.824c6.446-1.036,10.7-6.128,10.7-6.128a11.747,11.747,0,0,1-11.086,9.035Z" transform="translate(883.084 2870)" fill="#f7b094"/>
      <path id="Trazado_220369" data-name="Trazado 220369" d="M250.179,228.8h9.227v88.525a1.626,1.626,0,0,1-1.626,1.626H251.8a1.626,1.626,0,0,1-1.626-1.626Z" transform="translate(883.084 2870)" fill="#0a2033"/>
      <path id="Trazado_220370" data-name="Trazado 220370" d="M229.421,230.061h50.742v1.385a6.314,6.314,0,0,1-6.314,6.315H235.735a6.314,6.314,0,0,1-6.314-6.315Z" transform="translate(883.084 2870)" fill="#30475e"/>
      <path id="Trazado_220371" data-name="Trazado 220371" d="M250.179,308.451h9.227v20.514a1.626,1.626,0,0,1-1.626,1.626H251.8a1.626,1.626,0,0,1-1.626-1.626Z" transform="translate(883.084 2870)" fill="#0a2033"/>
      <path id="Trazado_220372" data-name="Trazado 220372" d="M206.912,325.191a5.4,5.4,0,1,0,5.4-5.4,5.4,5.4,0,0,0-5.4,5.4" transform="translate(883.084 2870)" fill="#0a2033"/>
      <path id="Trazado_220373" data-name="Trazado 220373" d="M291.872,325.191a5.4,5.4,0,1,0,5.4-5.4,5.4,5.4,0,0,0-5.4,5.4" transform="translate(883.084 2870)" fill="#0a2033"/>
      <rect id="Rectángulo_46380" data-name="Rectángulo 46380" width="18.562" height="16.22" transform="translate(1128.595 3171.576)" fill="#30475e"/>
      <path id="Trazado_220374" data-name="Trazado 220374" d="M206.912,321.612h95.76V319.73a5.751,5.751,0,0,0-5.752-5.751H212.663a5.751,5.751,0,0,0-5.751,5.751Z" transform="translate(883.084 2870)" fill="#fbd15b"/>
      <rect id="Rectángulo_46381" data-name="Rectángulo 46381" width="3.201" height="60.548" transform="translate(1134.675 3109.581)" fill="#30475e"/>
      <path id="Trazado_220375" data-name="Trazado 220375" d="M291.042,164.628a3.763,3.763,0,0,0-3.886,3.974c.633,10.99-1.7,37.8-11.933,46.948-12.515,11.184-47.989,9.661-47.989,9.661s-5.858,7.189,5.858,8.787,44.736.533,52.725-6.923c7.733-7.218,12.323-26.127,8.864-59.039a3.789,3.789,0,0,0-3.639-3.408" transform="translate(883.084 2870)" fill="#fbd15b"/>
      <g id="Grupo_108154" data-name="Grupo 108154" transform="translate(883.084 2870)">
        <g id="Grupo_108153" data-name="Grupo 108153" clip-path="url(#clip-path-4)">
          <rect id="Rectángulo_46383" data-name="Rectángulo 46383" width="17.159" height="15.29" transform="translate(211.639 300.128)" fill="url(#radial-gradient-3)"/>
        </g>
      </g>
      <path id="Trazado_220377" data-name="Trazado 220377" d="M285.533,193.225c-.8,1.6-58.229.032-63.653.527,0,0-35.15,16.776-40.2,32.482a17.161,17.161,0,0,0-.495,6.167c1.406,22.112,26.586,75.061,26.586,75.061l3.866-1.694,12.942-5.64,1.837-.8s-19.971-59.515-15.977-62.711S259.7,225.435,275.4,221.185c15.721-4.266,10.129-27.96,10.129-27.96" transform="translate(883.084 2870)" fill="#56548c"/>
      <g id="Grupo_108158" data-name="Grupo 108158" transform="translate(883.084 2870)">
        <g id="Grupo_108157" data-name="Grupo 108157" clip-path="url(#clip-path-5)">
          <rect id="Rectángulo_46385" data-name="Rectángulo 46385" width="15.118" height="14.482" transform="translate(161.195 302.571)" fill="url(#radial-gradient-4)"/>
        </g>
      </g>
      <path id="Trazado_220379" data-name="Trazado 220379" d="M221.592,193.257l-.511.224s-58.844,8.26-68.431,24.764c-6.231,10.737,5.83,89.189,5.83,89.189l20.818.048s-3.113-65.351-2.075-68.994c1.167-4.154,3.164-5.656,3.963-6.087a17.161,17.161,0,0,1,.495-6.167c5.049-15.706,40.2-32.482,40.2-32.482a1.007,1.007,0,0,1-.288-.495" transform="translate(883.084 2870)" fill="#3d3d7a"/>
      <path id="Trazado_220380" data-name="Trazado 220380" d="M278.428,138.887l-3.946.543a193.027,193.027,0,0,1-3.308,21.282l-49.161,18.661-.672,3.563-.607-.048c.016.735.016,1.454.048,2.125.112,4.106.384,7.062.815,8.244a1.011,1.011,0,0,0,.288.5c1.335,1.089,18.723-1.022,37.52,5.88,16.3,5.986,25.441,12.525,25.863,11.647,5.124-10.652-4.2-52.453-6.84-72.393" transform="translate(883.084 2870)" fill="#4dd0e1"/>
      <path id="Trazado_220381" data-name="Trazado 220381" d="M273.3,163.268c-1.31,6.295-4.7,18.821-11.344,20.5-8.675,2.205-25.451,2.093-41.173,1.246-.032-.671-.032-1.39-.048-2.125l.607.048.671-3.563,49.162-18.661a192.883,192.883,0,0,0,3.307-21.282,1.384,1.384,0,0,0,.016.176c.1,1.646.767,14.363-1.2,23.662" transform="translate(883.084 2870)" fill="#3babb9"/>
      <path id="Trazado_220382" data-name="Trazado 220382" d="M224.02,123.181c-.879,1.6-2.141,18.693-2.828,35.661l-10.05-9.378c4.266-8.261,12.878-26.283,12.878-26.283" transform="translate(883.084 2870)" fill="#4dd0e1"/>
      <path id="Trazado_220383" data-name="Trazado 220383" d="M218,171.241c-8.484,1.47-16.281,2.732-16.281,2.732l-.016.416c-9.442-7.542-23.806-28.9-23.806-28.9s4.3-5.161,5.369-6.519c.159-.208,23.582,15.913,24.78,15.769.3-.031,1.5-2.14,3.1-5.272l10.049,9.379c-.159,4.042-.287,8.068-.367,11.887-.943.175-1.885.335-2.828.511" transform="translate(883.084 2870)" fill="#f7b094"/>
      <g id="Grupo_108162" data-name="Grupo 108162" transform="translate(883.084 2870)">
        <g id="Grupo_108161" data-name="Grupo 108161" clip-path="url(#clip-path-6)">
          <rect id="Rectángulo_46387" data-name="Rectángulo 46387" width="13.945" height="27.028" transform="translate(174.382 180.72) rotate(-80.879)" fill="url(#radial-gradient-5)"/>
        </g>
      </g>
      <path id="Trazado_220385" data-name="Trazado 220385" d="M183.071,138.807l.192.16c-1.071,1.358-5.369,6.518-5.369,6.518l-2.668-1.885a6.633,6.633,0,0,1-6.359-.08c-3.563-1.933-1.358-6.549-1.175-7.1-.69.2-4.96,3.645-5.631,3.278s-1.166-1.582,3.611-6.295c4.761-4.714,11.248,1.342,11.439,1.342Z" transform="translate(883.084 2870)" fill="#f7b094"/>
      <path id="Trazado_220386" data-name="Trazado 220386" d="M169.423,142.718s-1.03,1.929.8,2.768a18.243,18.243,0,0,0,6.924,1.3c1.53-.148,2.747-2.289,2.747-2.289l-4.635-4.349h-3.705Z" transform="translate(883.084 2870)" fill="#f7b094"/>
      <path id="Trazado_220387" data-name="Trazado 220387" d="M169.149,143.665c.275-.947,2.906-.442,4.538-.4,1.2.028,1.859-.286,2.231-1.2s-1.373-2.375-1.716-1.917.629,1.1.658,1.71-1.717.808-3.062.808a32.763,32.763,0,0,0-3.665.35Z" transform="translate(883.084 2870)" fill="#e8987c"/>
      <g id="Grupo_108166" data-name="Grupo 108166" transform="translate(883.084 2870)">
        <g id="Grupo_108165" data-name="Grupo 108165" clip-path="url(#clip-path-7)">
          <rect id="Rectángulo_46389" data-name="Rectángulo 46389" width="34.041" height="70.167" transform="matrix(0.159, -0.987, 0.987, 0.159, 197.802, 184.002)" fill="url(#radial-gradient-6)"/>
        </g>
      </g>
      <path id="Trazado_220389" data-name="Trazado 220389" d="M243.641,160.919l25.036,8.867-1.133,3.346-24.78-10.63Z" transform="translate(883.084 2870)" fill="#f7b094"/>
      <path id="Trazado_220390" data-name="Trazado 220390" d="M243.641,160.919c-1.822,3.4-3.772,5.959-5.705,6.471-2.924.767-9.985,2.093-17.11,3.339.078-3.819.207-7.845.366-11.887.688-16.968,1.949-34.063,2.828-35.661,1.438-2.668,5.368-8.468,11.569-9.794l.015.08s-2.14,12.654,10.64,12.654c12.175,0,13.725-11.839,13.837-12.974,6.263.7,15.866,3.835,17.191,16.425.272,2.492.655,5.688,1.15,9.314l-3.945.544s-1.6,17.734-5.7,30.308l-.1.048Z" transform="translate(883.084 2870)" fill="#4dd0e1"/>
      <g id="Grupo_108169" data-name="Grupo 108169" transform="translate(883.084 2870)" style="mix-blend-mode: screen;isolation: isolate">
        <g id="Grupo_108168" data-name="Grupo 108168">
          <g id="Grupo_108167" data-name="Grupo 108167" clip-path="url(#clip-path-8)">
            <path id="Trazado_220391" data-name="Trazado 220391" d="M243.382,158.612l10-24.2-7.365,25.178Z" fill="#6d4b35"/>
          </g>
        </g>
      </g>
      <path id="Trazado_220392" data-name="Trazado 220392" d="M260.081,113.147h-5.448s-7.753,8.513-12.738,8.513-2.3-8.465-2.3-8.465h-2.431a13.744,13.744,0,0,0-13.653,12.187c-.091.794-.174,1.548-.244,2.229-.534,5.151,20.329,8.9,20.329,8.9l10.742-.6,6.524-12.726,1.3-5.213Z" transform="translate(883.084 2870)" fill="#4dd0e1"/>
      <path id="Trazado_220393" data-name="Trazado 220393" d="M194.338,326.489c.486,2.6,2.29,4.454,4.893,3.968l34.7-6.472a1.617,1.617,0,0,0,1.293-1.886l-.574-3.079s-36.495,6.387-40.33,7.45Z" transform="translate(883.084 2870)" fill="#f1f2f2"/>
      <path id="Trazado_220394" data-name="Trazado 220394" d="M204.662,317.752c.362-.314.71-.626,1.072-.94.7-.623,1.381-1.229,2.04-1.816.348-.312.7-.623,1.019-.916.634-.568,1.231-1.1,1.766-1.577.385-.347.744-.675,1.067-.967l1.417-1.27a.785.785,0,0,1,1.033-.022c1.426,1.2,6.037,3.942,14.388-1.226a.8.8,0,0,1,1.136.3l5.05,9.706s-36.495,6.386-40.33,7.45c1.261-.787,5.92-4.818,10.342-8.718" transform="translate(883.084 2870)" fill="#3d3d7a"/>
      <path id="Trazado_220395" data-name="Trazado 220395" d="M139.687,326.148c.065,2.647,1.551,4.761,4.2,4.7l35.289-.862a1.617,1.617,0,0,0,1.577-1.655l-.077-3.131s-37.047.49-41,.929Z" transform="translate(883.084 2870)" fill="#f1f2f2"/>
      <path id="Trazado_220396" data-name="Trazado 220396" d="M151.271,319.168c.408-.253.8-.505,1.208-.757.787-.5,1.559-.994,2.3-1.468.393-.252.786-.505,1.151-.742.717-.459,1.391-.89,1.995-1.275.435-.282.842-.548,1.207-.786l1.6-1.027a.784.784,0,0,1,1.023.143c1.217,1.411,5.332,4.853,14.4,1.082a.8.8,0,0,1,1.075.473l3.439,10.386s-37.046.491-41,.93c1.369-.576,6.611-3.813,11.6-6.959" transform="translate(883.084 2870)" fill="#3d3d7a"/>
      <path id="Trazado_220397" data-name="Trazado 220397" d="M114.584,182.572,95.738,132.308h53.654l18.846,50.264Z" transform="translate(883.084 2870)" fill="#abb5ba"/>
      <path id="Trazado_220398" data-name="Trazado 220398" d="M171.555,182.572h-3.317l-18.846-50.264,3.012.134,17.432,45.5Z" transform="translate(883.084 2870)" fill="#8495a0"/>
      <path id="Trazado_220399" data-name="Trazado 220399" d="M170.514,182.572h35.453l-.1-3.169H169.789" transform="translate(883.084 2870)" fill="#8495a0"/>
      <rect id="Rectángulo_46391" data-name="Rectángulo 46391" width="8.536" height="140.234" transform="translate(1196.105 3062.158)" fill="#8495a0"/>
      <rect id="Rectángulo_46392" data-name="Rectángulo 46392" width="8.536" height="140.234" transform="translate(1149.771 3062.158)" fill="#abb5ba"/>
      <rect id="Rectángulo_46393" data-name="Rectángulo 46393" width="8.536" height="140.234" transform="translate(1001.332 3062.158)" fill="#8495a0"/>
      <rect id="Rectángulo_46394" data-name="Rectángulo 46394" width="8.536" height="140.234" transform="translate(954.999 3062.158)" fill="#abb5ba"/>
      <path id="Trazado_220400" data-name="Trazado 220400" d="M330.1,192.691H63.739a4.149,4.149,0,0,1-4.149-4.149v-1.821a4.149,4.149,0,0,1,4.149-4.149H330.1a4.149,4.149,0,0,1,4.149,4.149v1.821a4.149,4.149,0,0,1-4.149,4.149" transform="translate(883.084 2870)" fill="#141b56"/>
      <path id="Trazado_220401" data-name="Trazado 220401" d="M104.7,137.592l.918,2.448H116.3l-.918-2.448Z" transform="translate(883.084 2870)" fill="#8495a0"/>
      <path id="Trazado_220402" data-name="Trazado 220402" d="M211.143,149.464l-.767,1.482,10.817,11.179v-3.282Z" transform="translate(883.084 2870)" fill="#e8987c"/>
      <rect id="Rectángulo_46395" data-name="Rectángulo 46395" width="372.916" height="9.862" transform="translate(942.084 3200.589)" fill="#a5b7c6"/>
      <g id="Grupo_108173" data-name="Grupo 108173" transform="translate(883.084 2870)">
        <g id="Grupo_108172" data-name="Grupo 108172" clip-path="url(#clip-path-9)">
          <rect id="Rectángulo_46397" data-name="Rectángulo 46397" width="26.99" height="63.799" transform="translate(340.874 218.998)" fill="#1565c0"/>
        </g>
      </g>
      <path id="Trazado_220404" data-name="Trazado 220404" d="M349.362,282.473q.117-1.047.256-2.1a8.961,8.961,0,0,0,3.791-1.323,20.161,20.161,0,0,0,4.975-3.94c.08-.081-.056-.212-.142-.14a22.4,22.4,0,0,1-4.843,3.315,13.7,13.7,0,0,1-3.68,1.37q.174-1.25.381-2.495a10.448,10.448,0,0,0,3.786-1.757,43.286,43.286,0,0,0,5.426-4.142.02.02,0,0,0-.024-.032c-2.69,1.953-5.686,4.733-9.088,5.342.18-1.04.371-2.077.589-3.108.012-.053.024-.107.035-.161,3.937-1,6.6-4.084,9.615-6.58.049-.04,0-.124-.055-.084-2.969,2.306-5.758,4.937-9.428,6.056.318-1.474.649-2.944.982-4.412a21.006,21.006,0,0,0,8.9-6.309c.041-.048-.027-.117-.072-.07a27.132,27.132,0,0,1-8.683,5.749c.329-1.453.656-2.906.965-4.364a32.543,32.543,0,0,0,4.586-2.216,12.529,12.529,0,0,0,3.567-3.617.07.07,0,0,0-.118-.076c-1.993,2.865-5,3.757-7.9,5.264q.425-2.037.783-4.09c3.236-1.783,6.753-3.434,8.587-6.85.018-.033-.03-.066-.05-.033-1.943,3.138-5.339,4.489-8.422,6.2.04-.244.085-.487.123-.731.2-1.271.384-2.543.566-3.815a31.1,31.1,0,0,0,5.306-2.886,10.136,10.136,0,0,0,3.234-2.755.071.071,0,0,0-.116-.08c-1.736,2.486-5.537,3.924-8.345,5.168q.275-1.927.546-3.855c3.116-1.886,6.781-2.928,8.7-6.326a.09.09,0,0,0-.153-.1c-1.986,3.1-5.482,4.06-8.459,5.821q.171-1.194.351-2.388c3.364-1.237,7.276-4.053,9.05-7.094a.151.151,0,0,0-.253-.163,18.872,18.872,0,0,1-8.7,6.625c.2-1.288.406-2.576.636-3.86a.388.388,0,0,0,.05-.114,19.316,19.316,0,0,0,4.307-2.314,11.769,11.769,0,0,0,4.051-3.692c.108-.176-.178-.338-.28-.158-1.494,2.667-5.04,4.455-7.977,5.473.087-.468.171-.937.264-1.4q.209-1.048.424-2.1c1.2-.83,2.729-1.228,3.935-2.1a22.208,22.208,0,0,0,2.865-2.61c.089-.092-.043-.235-.138-.146a18.917,18.917,0,0,1-3.953,3.037c-.829.444-1.775.7-2.577,1.183.235-1.143.468-2.286.692-3.43l.043-.01.043.009a.211.211,0,0,0,.2-.061c1.635-.412,2.885-1.82,3.984-3.019a.03.03,0,0,0-.042-.043,10.911,10.911,0,0,1-4.007,2.7c-.006,0-.009-.005-.016-.006l-.117-.019c.179-.931.349-1.864.5-2.8a.215.215,0,0,0,.194-.24,17.2,17.2,0,0,0,2.392-2.049.06.06,0,0,0-.081-.089,13.969,13.969,0,0,1-2.391,1.687,57.756,57.756,0,0,0,.65-5.836c.01-.182-.264-.183-.281,0-.171,1.889-.445,3.759-.77,5.62a17.378,17.378,0,0,1-2.456-3.756c-.029-.07-.14-.041-.116.034a10.811,10.811,0,0,0,1.2,2.325,14.355,14.355,0,0,0,1.266,2.041q-.271,1.5-.583,2.991a5.519,5.519,0,0,1-3.007-1.177,5.459,5.459,0,0,1-1.847-3.758c-.014-.18-.3-.179-.281,0a6.218,6.218,0,0,0,1.6,3.66,5.848,5.848,0,0,0,3.451,1.682q-.361,1.725-.741,3.445a26.883,26.883,0,0,1-2.818-2.093,38.5,38.5,0,0,1-3.561-3.843c-.125-.13-.331.058-.207.19a40.36,40.36,0,0,0,3.315,3.734,19.089,19.089,0,0,0,3.18,2.424c-.013.061-.026.121-.04.182-.012.012-.026.021-.038.032a.185.185,0,0,0-.025.257c-.242,1.1-.484,2.2-.715,3.3-.015.069-.027.138-.042.207-2.561-1.173-6.39-3.21-6.729-6.182a.2.2,0,1,0-.389.085c.758,3.363,4.454,4.854,7,6.688q-.377,1.867-.693,3.745a15.161,15.161,0,0,1-4.617-2.378c-1.263-1.005-3.05-2.217-3.619-3.773-.018-.049-.091-.017-.074.031.527,1.548,2.13,2.611,3.3,3.667a12.351,12.351,0,0,0,4.9,3.013.349.349,0,0,0-.005.167q-.2,1.189-.378,2.383c-3.111-.239-7.464-2.6-9.054-4.955-.007-.011-.022,0-.016.012a10.2,10.2,0,0,0,4.572,3.756,12.632,12.632,0,0,0,4.434,1.6c-.223,1.472-.439,2.946-.659,4.419-1.349-.5-2.779-.744-4.115-1.279a10.19,10.19,0,0,1-4.671-3.978c-.071-.106-.247-.016-.178.094,2.154,3.424,5.253,4.429,8.882,5.711q-.271,1.812-.569,3.621c-2.971-.569-6.813-2.382-8.316-4.962-.11-.19-.412-.032-.3.159a9.632,9.632,0,0,0,4.255,3.541c1.2.607,2.857,1.614,4.288,1.721-.007.04-.012.079-.019.119-.294,1.735-.637,3.461-1.007,5.181-3.319-.833-5.464-3.292-7.876-5.593-.167-.16-.429.084-.263.248,2.458,2.418,4.616,4.956,8.03,5.85q-.46,2.1-.97,4.189a15.338,15.338,0,0,1-7.452-5.1c-.13-.164-.358.058-.235.22a16.5,16.5,0,0,0,7.556,5.42q-.551,2.242-1.13,4.476a11,11,0,0,1-6.928-4.557c-.042-.054-.136.017-.1.072,1.589,2.211,3.992,4.763,6.884,5.031l-.369,1.426q-.111.43-.23.872a16.508,16.508,0,0,1-6.029-2.906c-.051-.042-.108.037-.061.08a15.756,15.756,0,0,0,5.971,3.264c-.244.895-.5,1.815-.756,2.752a12.292,12.292,0,0,0-1.662-.708,11.909,11.909,0,0,1-2.743-1.586c-.087-.052-.185.071-.1.128a12.44,12.44,0,0,0,2.367,1.6c.7.265,1.365.6,2.045.9-1,3.72-1.881,7.674-1.4,11.244.106.792,1.435,1,1.64.16a63.715,63.715,0,0,0,.893-8" transform="translate(883.084 2870)" fill="#747ded"/>
      <g id="Grupo_108177" data-name="Grupo 108177" transform="translate(883.084 2870)">
        <g id="Grupo_108176" data-name="Grupo 108176" clip-path="url(#clip-path-10)">
          <rect id="Rectángulo_46399" data-name="Rectángulo 46399" width="58.517" height="72.12" transform="translate(277.69 232.511) rotate(-24.968)" fill="#1565c0"/>
        </g>
      </g>
      <path id="Trazado_220406" data-name="Trazado 220406" d="M326.388,283.692q-.336-1-.652-2.007a8.964,8.964,0,0,0,2.878-2.8,20.176,20.176,0,0,0,2.848-5.671c.038-.107-.14-.169-.188-.067a22.406,22.406,0,0,1-2.992,5.049,13.676,13.676,0,0,1-2.758,2.795q-.37-1.206-.707-2.423a10.468,10.468,0,0,0,2.691-3.19,43.354,43.354,0,0,0,3.17-6.045.02.02,0,0,0-.035-.019c-1.614,2.906-3.157,6.691-5.984,8.678-.276-1.018-.54-2.04-.778-3.066l-.036-.16c3.149-2.565,4.26-6.489,5.94-10.024.027-.057-.056-.111-.086-.053-1.718,3.343-3.136,6.906-5.991,9.469-.334-1.47-.654-2.943-.972-4.414a21.023,21.023,0,0,0,5.4-9.474c.017-.062-.074-.1-.1-.034a27.121,27.121,0,0,1-5.445,8.877c-.315-1.457-.632-2.912-.967-4.364a32.636,32.636,0,0,0,3.222-3.944,12.544,12.544,0,0,0,1.708-4.785.071.071,0,0,0-.14-.019c-.6,3.439-2.945,5.516-4.942,8.108-.317-1.351-.653-2.7-1.017-4.039,2.182-2.982,4.673-5.963,4.894-9.834,0-.038-.054-.048-.059-.009-.437,3.665-2.946,6.323-5.019,9.173-.067-.239-.129-.478-.2-.716-.356-1.235-.725-2.467-1.1-3.7a31.018,31.018,0,0,0,3.592-4.856,10.108,10.108,0,0,0,1.77-3.862.071.071,0,0,0-.139-.024c-.524,2.987-3.364,5.9-5.384,8.208q-.566-1.863-1.132-3.726c2.029-3.024,4.912-5.516,5.216-9.406a.091.091,0,0,0-.18-.021c-.49,3.651-3.256,5.994-5.212,8.847q-.348-1.155-.689-2.312c2.527-2.542,4.885-6.746,5.21-10.252a.15.15,0,0,0-.3-.04,18.883,18.883,0,0,1-5.089,9.677c-.364-1.253-.719-2.507-1.053-3.768a.375.375,0,0,0,0-.125,19.276,19.276,0,0,0,2.929-3.916,11.782,11.782,0,0,0,2.114-5.056.161.161,0,0,0-.32-.025c-.229,3.048-2.69,6.166-4.922,8.329-.119-.462-.241-.923-.354-1.386-.17-.692-.335-1.386-.5-2.08.74-1.26,1.956-2.265,2.68-3.569a22.348,22.348,0,0,0,1.495-3.575.1.1,0,0,0-.187-.074,18.916,18.916,0,0,1-2.3,4.421c-.564.752-1.314,1.381-1.837,2.16q-.4-1.7-.82-3.4l.035-.026.043-.011a.213.213,0,0,0,.153-.138c1.307-1.064,1.847-2.868,2.337-4.418a.03.03,0,0,0-.056-.021,10.922,10.922,0,0,1-2.491,4.141.1.1,0,0,0-.018,0l-.114.033q-.347-1.381-.724-2.752a.214.214,0,0,0,.074-.3,17.172,17.172,0,0,0,1.3-2.867.06.06,0,0,0-.111-.046,14,14,0,0,1-1.455,2.539,57.937,57.937,0,0,0-1.874-5.566c-.068-.169-.318-.054-.257.115.642,1.784,1.182,3.6,1.674,5.419a17.347,17.347,0,0,1-3.812-2.368c-.056-.051-.145.021-.091.079a10.713,10.713,0,0,0,2.064,1.6,14.185,14.185,0,0,0,2.01,1.317q.385,1.474.733,2.958a5.131,5.131,0,0,1-6.483-2.425c-.088-.158-.345-.037-.255.119a6.223,6.223,0,0,0,2.994,2.643,5.854,5.854,0,0,0,3.839.069q.4,1.714.782,3.435a26.767,26.767,0,0,1-3.438-.708A38.282,38.282,0,0,1,305.583,236a.141.141,0,0,0-.108.26,40.6,40.6,0,0,0,4.581,1.986,19.041,19.041,0,0,0,3.906.855c.014.061.027.121.041.182-.006.016-.015.03-.021.046a.184.184,0,0,0,.085.243c.245,1.1.489,2.2.744,3.292.016.069.034.137.05.2-2.817.019-7.148-.213-8.709-2.764-.149-.243-.5.007-.317.241,2.106,2.73,6.086,2.521,9.169,3.109q.447,1.851.953,3.688a15.167,15.167,0,0,1-5.189-.208c-1.57-.378-3.7-.722-4.874-1.893-.037-.037-.089.023-.054.06,1.131,1.18,3.033,1.467,4.536,1.932a12.341,12.341,0,0,0,5.713.664.346.346,0,0,0,.067.153q.325,1.162.663,2.321c-2.922,1.1-7.865.792-10.3-.671-.012-.007-.02.01-.01.018a10.218,10.218,0,0,0,5.73,1.475,12.622,12.622,0,0,0,4.7-.42c.419,1.429.845,2.856,1.267,4.284-1.436.113-2.834.5-4.27.577A10.193,10.193,0,0,1,308.019,254c-.109-.066-.231.089-.122.16,3.4,2.2,6.631,1.8,10.463,1.428q.519,1.759,1.012,3.524c-2.933.737-7.182.715-9.633-.99-.18-.125-.387.145-.207.272a9.631,9.631,0,0,0,5.352,1.415c1.345.043,3.271.257,4.614-.25l.033.116c.466,1.7.883,3.407,1.274,5.123-3.361.644-6.343-.679-9.5-1.747-.219-.075-.354.257-.134.335,3.249,1.156,6.276,2.545,9.749,1.915q.469,2.1.888,4.207a15.33,15.33,0,0,1-8.908-1.479c-.187-.093-.3.2-.119.3a16.5,16.5,0,0,0,9.137,1.725q.447,2.265.865,4.535a11,11,0,0,1-8.205-1.208c-.06-.031-.116.072-.056.106,2.373,1.334,5.629,2.633,8.364,1.656q.133.725.268,1.448c.054.292.106.588.158.888a16.486,16.486,0,0,1-6.691-.091c-.064-.016-.083.08-.022.1a15.722,15.722,0,0,0,6.79.44c.157.914.312,1.857.477,2.814a12.314,12.314,0,0,0-1.806.06,11.9,11.9,0,0,1-3.155-.281c-.1-.01-.138.142-.035.157a12.473,12.473,0,0,0,2.821.452c.749-.057,1.492-.031,2.235-.044.665,3.793,1.534,7.75,3.475,10.785.431.673,1.724.3,1.554-.548a63.7,63.7,0,0,0-2.566-7.628" transform="translate(883.084 2870)" fill="#747ded"/>
      <g id="Grupo_108181" data-name="Grupo 108181" transform="translate(883.084 2870)">
        <g id="Grupo_108180" data-name="Grupo 108180" clip-path="url(#clip-path-11)">
          <rect id="Rectángulo_46401" data-name="Rectángulo 46401" width="53.517" height="86.497" transform="matrix(0.97, -0.245, 0.245, 0.97, 299.077, 208.098)" fill="#1565c0"/>
        </g>
      </g>
      <path id="Trazado_220408" data-name="Trazado 220408" d="M338.372,282.949q-.177-1.293-.327-2.591a11.107,11.107,0,0,0,4.147-2.737,24.989,24.989,0,0,0,4.774-6.235c.072-.122-.131-.239-.212-.126a27.722,27.722,0,0,1-4.807,5.446,16.894,16.894,0,0,1-4,2.759q-.171-1.553-.3-3.109c1.593-.617,2.826-2.077,4.009-3.255a53.657,53.657,0,0,0,5.255-6.616.025.025,0,0,0-.039-.03c-2.635,3.159-5.387,7.4-9.284,9.165-.1-1.3-.185-2.6-.236-3.908,0-.068,0-.136-.007-.2,4.422-2.389,6.682-6.9,9.542-10.81.046-.063-.042-.148-.091-.084-2.864,3.666-5.413,7.67-9.477,10.124-.065-1.865-.114-3.729-.159-5.592a25.987,25.987,0,0,0,8.762-10.266.062.062,0,0,0-.107-.062c-2.279,4-5.217,6.708-8.675,9.53-.045-1.844-.094-3.686-.165-5.529,1.62-1.377,3.425-2.421,4.83-4.048a15.525,15.525,0,0,0,3.184-5.423.087.087,0,0,0-.165-.055c-1.522,4.043-4.858,6.024-7.885,8.712-.073-1.715-.169-3.43-.3-5.145,3.343-3.12,7.062-6.168,8.227-10.821.011-.046-.056-.072-.071-.025-1.38,4.353-5.045,7-8.226,9.989-.025-.305-.045-.61-.074-.916-.147-1.584-.31-3.167-.478-4.749a38.4,38.4,0,0,0,5.492-5.071,12.522,12.522,0,0,0,3.045-4.286.087.087,0,0,0-.163-.061c-1.329,3.51-5.454,6.387-8.445,8.732q-.256-2.4-.514-4.792c3.166-3.207,7.248-5.569,8.518-10.227a.112.112,0,0,0-.213-.068c-1.442,4.325-5.346,6.534-8.385,9.549q-.156-1.485-.3-2.971c3.661-2.5,7.5-7.069,8.708-11.256a.187.187,0,0,0-.354-.118,23.366,23.366,0,0,1-8.427,10.586c-.152-1.607-.293-3.214-.408-4.825a.434.434,0,0,0,.026-.152,23.879,23.879,0,0,0,4.467-4.082,14.579,14.579,0,0,0,3.741-5.657.2.2,0,0,0-.384-.105c-.984,3.653-4.7,6.873-7.912,8.985-.038-.588-.079-1.176-.109-1.765q-.069-1.323-.127-2.646c1.191-1.36,2.9-2.3,4.083-3.718a27.615,27.615,0,0,0,2.646-4,.125.125,0,0,0-.21-.134,23.362,23.362,0,0,1-3.822,4.842c-.86.784-1.918,1.375-2.734,2.2-.064-1.443-.13-2.885-.209-4.326l.048-.024.055,0a.261.261,0,0,0,.218-.133c1.836-.99,2.91-3.059,3.864-4.83a.037.037,0,0,0-.063-.039,13.515,13.515,0,0,1-3.987,4.458c-.008,0-.014,0-.022,0l-.147.013q-.1-1.758-.243-3.512a.265.265,0,0,0,.16-.346,21.306,21.306,0,0,0,2.249-3.184.075.075,0,0,0-.125-.082,17.29,17.29,0,0,1-2.356,2.749,71.644,71.644,0,0,0-.99-7.2c-.043-.221-.373-.14-.338.08.367,2.317.605,4.644.779,6.975a21.494,21.494,0,0,1-4.085-3.761c-.056-.075-.181-.008-.129.076a13.292,13.292,0,0,0,2.138,2.426,17.6,17.6,0,0,0,2.138,2.066c.086,1.254.152,2.509.207,3.766a6.826,6.826,0,0,1-3.964-.5,6.749,6.749,0,0,1-3.356-3.948c-.071-.211-.411-.124-.337.087a7.7,7.7,0,0,0,3.028,3.906,7.242,7.242,0,0,0,4.651.973q.09,2.177.155,4.356a33.081,33.081,0,0,1-4.015-1.656c-2.088-.946-3.535-2.353-5.437-3.531a.174.174,0,0,0-.191.291c1.793,1.145,3.159,2.531,5.109,3.474a23.531,23.531,0,0,0,4.551,1.945c0,.077,0,.154.007.23-.011.018-.025.033-.036.051a.228.228,0,0,0,.047.315c.043,1.392.086,2.784.142,4.175,0,.087.01.174.014.261-3.429-.63-8.641-1.914-9.949-5.377a.247.247,0,1,0-.441.22c1.929,3.806,6.816,4.473,10.428,5.9q.114,2.355.3,4.7a18.779,18.779,0,0,1-6.26-1.454c-1.821-.822-4.333-1.735-5.487-3.43-.037-.053-.114.007-.079.06,1.1,1.7,3.347,2.487,5.067,3.4a15.268,15.268,0,0,0,6.792,2.13.415.415,0,0,0,.045.2q.126,1.488.269,2.975c-3.806.656-9.745-.859-12.366-3.2-.012-.011-.027.008-.015.019a12.631,12.631,0,0,0,6.624,3.12,15.619,15.619,0,0,0,5.806.577c.178,1.834.366,3.667.549,5.5-1.772-.194-3.561-.05-5.326-.287a12.609,12.609,0,0,1-6.81-3.356c-.117-.1-.3.055-.185.167,3.623,3.455,7.645,3.721,12.389,4.159q.222,2.257.414,4.517c-3.737.218-8.9-.792-11.482-3.433-.19-.194-.5.087-.314.283a11.921,11.921,0,0,0,6.178,2.959c1.626.364,3.917,1.07,5.668.765l.012.148c.174,2.171.286,4.346.363,6.522-4.234.006-7.554-2.294-11.145-4.323-.25-.141-.49.231-.241.377,3.682,2.156,7.041,4.547,11.408,4.584q.086,2.659.106,5.321a18.982,18.982,0,0,1-10.487-3.86c-.205-.157-.411.178-.214.335a20.414,20.414,0,0,0,10.709,4.213c.013,1.9.01,3.809,0,5.713-3.618.35-6.853-1.153-9.7-3.367-.066-.052-.158.06-.093.115,2.576,2.171,6.234,4.505,9.785,3.949q0,.912-.01,1.823c0,.367-.006.74-.012,1.116a20.434,20.434,0,0,1-8.115-1.659c-.073-.035-.118.077-.048.114a19.458,19.458,0,0,0,8.153,2.106c-.022,1.148-.052,2.33-.072,3.532a15.1,15.1,0,0,0-2.21-.345,14.818,14.818,0,0,1-3.771-1.072c-.12-.037-.2.141-.078.183a15.438,15.438,0,0,0,3.324,1.2c.925.1,1.822.309,2.728.464-.07,4.766.07,9.778,1.728,13.917.367.918,2.025.767,2.016-.306-.029-3.3-.906-6.6-1.354-9.868" transform="translate(883.084 2870)" fill="#747ded"/>
      <path id="Trazado_220409" data-name="Trazado 220409" d="M354.59,286.886l-.464,8.543-.726,13.3-1.19,21.857H322.619l-1.19-21.857-.726-13.3-.464-8.543Z" transform="translate(883.084 2870)" fill="#95a8b5"/>
      <path id="Trazado_220410" data-name="Trazado 220410" d="M354.126,295.429l-.1,1.713-.1,1.773-.536,9.817H321.429l-.536-9.817-.1-1.773-.1-1.713Z" transform="translate(883.084 2870)" fill="#a5b7c6"/>
      <path id="Trazado_220411" data-name="Trazado 220411" d="M354.031,297.142l-.1,1.773H320.893l-.1-1.773Z" transform="translate(883.084 2870)" fill="#95a8b5"/>
    </g>
  </g>
</svg>
