<svg xmlns="http://www.w3.org/2000/svg" width="255.897" height="246.822" viewBox="0 0 255.897 246.822">
  <g id="Grupo_117816" data-name="Grupo 117816" transform="translate(-1059.104 -1270)">
    <g id="Grupo_114527" data-name="Grupo 114527" transform="translate(164.718 438.822)">
      <path id="Trazado_226113" data-name="Trazado 226113" d="M3143.979,218.933a93.82,93.82,0,1,1,93.82,93.82,93.819,93.819,0,0,1-93.82-93.82" transform="translate(-2209.582 735.012)" fill="#d9d2ff"/>
      <path id="Trazado_226114" data-name="Trazado 226114" d="M3899.127,141.281a1.315,1.315,0,0,1-.923-.377c-1.236-1.211-2.515-2.411-3.8-3.568a1.318,1.318,0,0,1,1.762-1.961c1.314,1.182,2.621,2.408,3.884,3.646a1.318,1.318,0,0,1-.923,2.259" transform="translate(-2786.051 727.382)" fill="#0e5489"/>
      <path id="Trazado_226115" data-name="Trazado 226115" d="M3971,240.151a1.318,1.318,0,0,1-1.282-1.02c-.851-3.662-1.888-7.325-3.083-10.887a1.318,1.318,0,0,1,2.5-.838c1.221,3.641,2.281,7.386,3.151,11.128a1.319,1.319,0,0,1-1.285,1.617m-7.263-21.671a1.318,1.318,0,0,1-1.2-.782c-1.527-3.432-3.238-6.834-5.084-10.111a1.318,1.318,0,0,1,2.3-1.294c1.887,3.348,3.635,6.825,5.2,10.333a1.319,1.319,0,0,1-1.2,1.854m-11.222-19.913a1.316,1.316,0,0,1-1.083-.566c-2.146-3.085-4.464-6.106-6.892-8.978a1.318,1.318,0,0,1,2.013-1.7c2.48,2.935,4.85,6.022,7.042,9.175a1.318,1.318,0,0,1-1.081,2.07" transform="translate(-2824.684 687.555)" fill="#0e5489"/>
      <path id="Trazado_226116" data-name="Trazado 226116" d="M4065.06,462.405a1.318,1.318,0,0,1-1.311-1.2c-.156-1.725-.352-3.469-.582-5.183a1.318,1.318,0,0,1,2.612-.351c.235,1.752.435,3.534.594,5.3a1.318,1.318,0,0,1-1.194,1.431c-.041,0-.08.005-.12.005" transform="translate(-2916.097 481.81)" fill="#0e5489"/>
      <path id="Trazado_226117" data-name="Trazado 226117" d="M3030.467,626.46a1.318,1.318,0,0,1-1.284-1.027c-.389-1.722-.747-3.479-1.061-5.221a1.318,1.318,0,1,1,2.594-.468c.308,1.7.657,3.423,1.038,5.108a1.319,1.319,0,0,1-1.287,1.609" transform="translate(-2120.514 355.653)" fill="#0e5489"/>
      <path id="Trazado_226118" data-name="Trazado 226118" d="M3021.524,268.068a1.318,1.318,0,0,1-1.311-1.2c-.312-3.57-.47-7.206-.47-10.807v-.393a1.3,1.3,0,0,1,1.322-1.314,1.318,1.318,0,0,1,1.313,1.322v.385c0,3.525.155,7.084.46,10.578a1.318,1.318,0,0,1-1.2,1.428c-.039,0-.078.005-.116.005m.073-22.164c-.041,0-.083,0-.125-.006a1.318,1.318,0,0,1-1.189-1.435c.349-3.714.872-7.451,1.557-11.105a1.318,1.318,0,1,1,2.591.485c-.67,3.576-1.182,7.232-1.523,10.867a1.318,1.318,0,0,1-1.311,1.195m4.081-21.783a1.319,1.319,0,0,1-1.268-1.679c1.019-3.582,2.218-7.159,3.563-10.632a1.318,1.318,0,1,1,2.458.952c-1.316,3.4-2.489,6.9-3.486,10.4a1.319,1.319,0,0,1-1.267.958m8-20.665a1.318,1.318,0,0,1-1.179-1.905c1.657-3.332,3.49-6.629,5.448-9.8a1.318,1.318,0,0,1,2.243,1.385c-1.916,3.1-3.709,6.328-5.33,9.588a1.318,1.318,0,0,1-1.181.731M3045.32,184.6a1.318,1.318,0,0,1-1.053-2.11c2.236-2.975,4.637-5.884,7.136-8.646a1.318,1.318,0,1,1,1.954,1.769c-2.446,2.7-4.8,5.549-6.983,8.461a1.316,1.316,0,0,1-1.054.526" transform="translate(-2114.09 697.887)" fill="#0e5489"/>
      <path id="Trazado_226119" data-name="Trazado 226119" d="M3190.217,130.393a1.318,1.318,0,0,1-.893-2.287c1.3-1.2,2.643-2.382,4-3.523a1.318,1.318,0,1,1,1.7,2.014c-1.323,1.117-2.638,2.276-3.909,3.447a1.312,1.312,0,0,1-.892.348" transform="translate(-2244.109 735.658)" fill="#0e5489"/>
      <path id="Trazado_226120" data-name="Trazado 226120" d="M3695.663,1024.278a1.318,1.318,0,0,1-.378-2.581c1.657-.5,3.325-1.036,4.959-1.6a1.318,1.318,0,0,1,.866,2.49c-1.67.581-3.375,1.132-5.068,1.639a1.323,1.323,0,0,1-.378.056" transform="translate(-2632.615 47.152)" fill="#0e5489"/>
      <path id="Trazado_226121" data-name="Trazado 226121" d="M3466.229,1042.849c-1.395,0-2.807-.024-4.2-.071a1.318,1.318,0,1,1,.089-2.634c3.235.109,6.531.088,9.763-.062a1.318,1.318,0,0,1,.122,2.633c-1.912.089-3.856.134-5.777.134m-13.992-.8a1.332,1.332,0,0,1-.152-.009c-3.295-.379-6.611-.9-9.855-1.542a1.318,1.318,0,1,1,.513-2.585c3.175.63,6.42,1.138,9.643,1.509a1.318,1.318,0,0,1-.149,2.627m29.537-.188a1.318,1.318,0,0,1-.166-2.625c3.218-.412,6.455-.961,9.622-1.633a1.318,1.318,0,0,1,.547,2.578c-3.237.686-6.545,1.248-9.834,1.669a1.3,1.3,0,0,1-.169.011" transform="translate(-2438.013 33.658)" fill="#0e5489"/>
      <path id="Trazado_226122" data-name="Trazado 226122" d="M3384.257,1026.37a1.32,1.32,0,0,1-.362-.051c-1.7-.485-3.412-1.015-5.089-1.574a1.318,1.318,0,0,1,.834-2.5c1.641.547,3.315,1.065,4.979,1.54a1.318,1.318,0,0,1-.361,2.585" transform="translate(-2389.386 45.494)" fill="#0e5489"/>
      <path id="Trazado_226123" data-name="Trazado 226123" d="M3388.633,107.619H3256.349c-1.206,0-2.185-1.383-2.185-3.09V8.784c0-1.707.979-3.09,2.185-3.09h132.285c1.207,0,2.185,1.384,2.185,3.09v95.745c0,1.707-.978,3.09-2.185,3.09" transform="translate(-2294.274 826.802)" fill="#fff"/>
      <path id="Trazado_226124" data-name="Trazado 226124" d="M3384.255,104.56H3251.971c-1.964,0-3.5-1.936-3.5-4.408V4.407c0-2.472,1.538-4.408,3.5-4.408h132.284c1.964,0,3.5,1.936,3.5,4.408v95.745c0,2.472-1.539,4.408-3.5,4.408M3251.971,2.635c-.305,0-.867.673-.867,1.772v95.745c0,1.1.561,1.772.867,1.772h132.284c.306,0,.867-.673.867-1.772V4.407c0-1.1-.561-1.772-.867-1.772Z" transform="translate(-2289.896 831.179)" fill="#0e5489"/>
      <line id="Línea_1988" data-name="Línea 1988" x2="136.654" transform="translate(959.889 850.019)" fill="#fff"/>
      <path id="Trazado_226125" data-name="Trazado 226125" d="M3386.44,78.373H3249.786a1.318,1.318,0,1,1,0-2.636H3386.44a1.318,1.318,0,0,1,0,2.636" transform="translate(-2289.896 772.964)" fill="#0e5489"/>
      <rect id="Rectángulo_49700" data-name="Rectángulo 49700" width="118.482" height="14.17" transform="translate(969.751 857.448)" fill="#9797cc"/>
      <path id="Trazado_226126" data-name="Trazado 226126" d="M3410.891,124.655H3292.409a1.318,1.318,0,0,1-1.318-1.318v-14.17a1.318,1.318,0,0,1,1.318-1.318h118.482a1.318,1.318,0,0,1,1.318,1.318v14.17a1.318,1.318,0,0,1-1.318,1.318m-117.164-2.636h115.846V110.485H3293.727Z" transform="translate(-2322.658 748.281)" fill="#0e5489"/>
      <path id="Trazado_226127" data-name="Trazado 226127" d="M3287.259,33.912a3.006,3.006,0,1,1-3.006-3.006,3.006,3.006,0,0,1,3.006,3.006" transform="translate(-2315.092 807.423)" fill="#b1b1fc"/>
      <path id="Trazado_226128" data-name="Trazado 226128" d="M3279.875,33.857a4.324,4.324,0,1,1,4.324-4.324,4.329,4.329,0,0,1-4.324,4.324m0-6.012a1.688,1.688,0,1,0,1.688,1.688,1.69,1.69,0,0,0-1.688-1.688" transform="translate(-2310.714 811.802)" fill="#0e5489"/>
      <path id="Trazado_226129" data-name="Trazado 226129" d="M3338.439,33.912a3.006,3.006,0,1,1-3.006-3.006,3.006,3.006,0,0,1,3.006,3.006" transform="translate(-2354.431 807.423)" fill="#b1b1fc"/>
      <path id="Trazado_226130" data-name="Trazado 226130" d="M3331.055,33.857a4.324,4.324,0,1,1,4.324-4.324,4.329,4.329,0,0,1-4.324,4.324m0-6.012a1.688,1.688,0,1,0,1.688,1.688,1.69,1.69,0,0,0-1.688-1.688" transform="translate(-2350.053 811.802)" fill="#0e5489"/>
      <path id="Trazado_226131" data-name="Trazado 226131" d="M3389.62,33.912a3.006,3.006,0,1,1-3.006-3.006,3.006,3.006,0,0,1,3.006,3.006" transform="translate(-2393.771 807.423)" fill="#b1b1fc"/>
      <path id="Trazado_226132" data-name="Trazado 226132" d="M3382.235,33.857a4.324,4.324,0,1,1,4.324-4.324,4.329,4.329,0,0,1-4.324,4.324m0-6.012a1.688,1.688,0,1,0,1.688,1.688,1.69,1.69,0,0,0-1.688-1.688" transform="translate(-2389.391 811.802)" fill="#0e5489"/>
      <line id="Línea_1989" data-name="Línea 1989" x2="13.15" transform="translate(1030.5 897.127)" fill="#fff"/>
      <path id="Trazado_226133" data-name="Trazado 226133" d="M3568.13,281.985H3554.98a1.318,1.318,0,0,1,0-2.636h13.151a1.318,1.318,0,0,1,0,2.636" transform="translate(-2524.48 616.46)" fill="#0e5489"/>
      <line id="Línea_1990" data-name="Línea 1990" x2="38.241" transform="translate(1030.5 905.159)" fill="#fff"/>
      <path id="Trazado_226134" data-name="Trazado 226134" d="M3593.221,316.7H3554.98a1.318,1.318,0,0,1,0-2.636h38.241a1.318,1.318,0,1,1,0,2.636" transform="translate(-2524.48 589.773)" fill="#0e5489"/>
      <line id="Línea_1991" data-name="Línea 1991" x2="9.461" transform="translate(1030.5 914.326)" fill="#fff"/>
      <path id="Trazado_226135" data-name="Trazado 226135" d="M3564.44,356.325h-9.46a1.318,1.318,0,1,1,0-2.636h9.46a1.318,1.318,0,1,1,0,2.636" transform="translate(-2524.48 559.319)" fill="#0e5489"/>
      <line id="Línea_1992" data-name="Línea 1992" x2="38.241" transform="translate(1030.5 923.492)" fill="#fff"/>
      <path id="Trazado_226136" data-name="Trazado 226136" d="M3593.221,395.945H3554.98a1.318,1.318,0,0,1,0-2.636h38.241a1.318,1.318,0,1,1,0,2.636" transform="translate(-2524.48 528.866)" fill="#0e5489"/>
      <line id="Línea_1993" data-name="Línea 1993" x2="33.813" transform="translate(1049.942 897.127)" fill="#fff"/>
      <path id="Trazado_226137" data-name="Trazado 226137" d="M3672.83,281.985h-33.813a1.318,1.318,0,1,1,0-2.636h33.813a1.318,1.318,0,1,1,0,2.636" transform="translate(-2589.074 616.46)" fill="#0e5489"/>
      <line id="Línea_1994" data-name="Línea 1994" x2="8.723" transform="translate(1075.033 905.159)" fill="#fff"/>
      <path id="Trazado_226138" data-name="Trazado 226138" d="M3756.188,316.7h-8.723a1.318,1.318,0,1,1,0-2.636h8.723a1.318,1.318,0,1,1,0,2.636" transform="translate(-2672.432 589.773)" fill="#0e5489"/>
      <line id="Línea_1995" data-name="Línea 1995" x2="37.503" transform="translate(1046.253 914.326)" fill="#fff"/>
      <path id="Trazado_226139" data-name="Trazado 226139" d="M3660.571,356.325h-37.5a1.318,1.318,0,1,1,0-2.636h37.5a1.318,1.318,0,1,1,0,2.636" transform="translate(-2576.815 559.319)" fill="#0e5489"/>
      <line id="Línea_1996" data-name="Línea 1996" x2="60.036" transform="translate(1026.865 880.213)" fill="#fff"/>
      <path id="Trazado_226140" data-name="Trazado 226140" d="M3599.3,208.881h-60.036a1.318,1.318,0,1,1,0-2.636H3599.3a1.318,1.318,0,1,1,0,2.636" transform="translate(-2512.404 672.65)" fill="#0e5489"/>
      <rect id="Rectángulo_49701" data-name="Rectángulo 49701" width="48.855" height="31.864" transform="translate(971.262 891.67)" fill="#abf5ff"/>
      <path id="Trazado_226141" data-name="Trazado 226141" d="M3347.8,290.263h-48.855a1.318,1.318,0,0,1-1.318-1.318V257.081a1.318,1.318,0,0,1,1.318-1.318H3347.8a1.318,1.318,0,0,1,1.318,1.318v31.864a1.318,1.318,0,0,1-1.318,1.318m-47.537-2.636h46.219V258.4H3300.26Z" transform="translate(-2327.68 634.589)" fill="#0e5489"/>
      <path id="Trazado_226142" data-name="Trazado 226142" d="M3383.858,323.3c.034-3.717,2.959-8.454,4.42-10.594l.007-.007-21.482,3.78c1.363,1.8,3.3,4.74,3.279,6.949v9.282h13.765Z" transform="translate(-2380.854 590.829)" fill="#9797cc"/>
      <path id="Trazado_226143" data-name="Trazado 226143" d="M3379.468,329.645H3365.7a1.318,1.318,0,0,1-1.318-1.318v-9.282c.012-1.368-1.086-3.606-3.012-6.154a1.318,1.318,0,0,1,.823-2.093l21.482-3.78a1.318,1.318,0,0,1,1.276,2.1c-1.267,1.863-4.122,6.434-4.157,9.809l-.011,9.4a1.318,1.318,0,0,1-1.318,1.316m-12.447-2.636h11.131l.01-8.093v-.011c.027-2.88,1.549-6.2,3.041-8.775l-16.5,2.9c1.556,2.374,2.335,4.395,2.32,6.023Z" transform="translate(-2376.475 595.207)" fill="#0e5489"/>
      <path id="Trazado_226144" data-name="Trazado 226144" d="M3371.917,214.126a13.741,13.741,0,0,1,1.495,6.335c-.361,5.724-4.655,10.81-10.29,13.406-4.145,1.91-8.8,2.593-12.6.881-3.071-1.382-5.247-4.365-6.72-7.668a17.706,17.706,0,0,1,.9-16.08l5.1,11.438a3.351,3.351,0,0,0,3.049,1.989,14.28,14.28,0,0,0,6.049-1.34,14.614,14.614,0,0,0,4.949-3.755,3.457,3.457,0,0,0,.557-3.662l-5.122-11.486a17.222,17.222,0,0,1,12.638,9.942" transform="translate(-2362.005 674.234)" fill="#9797cc"/>
      <path id="Trazado_226145" data-name="Trazado 226145" d="M3351.028,232.672a13.061,13.061,0,0,1-5.392-1.1c-3.044-1.37-5.528-4.173-7.383-8.333a19.112,19.112,0,0,1,.96-17.276,1.318,1.318,0,0,1,2.345.122l5.1,11.438a2.023,2.023,0,0,0,1.855,1.208,13,13,0,0,0,5.488-1.22,13.35,13.35,0,0,0,4.5-3.416,2.15,2.15,0,0,0,.354-2.267l-5.123-11.486a1.318,1.318,0,0,1,1.445-1.832,18.6,18.6,0,0,1,13.6,10.7,15.1,15.1,0,0,1,1.607,6.955c-.372,5.9-4.711,11.6-11.054,14.52a20.023,20.023,0,0,1-8.305,1.987m-10.707-22.894a16.4,16.4,0,0,0,.34,12.387c1.089,2.441,3.023,5.637,6.057,7,3.135,1.411,7.224,1.1,11.512-.875,5.475-2.522,9.214-7.347,9.526-12.292a12.716,12.716,0,0,0-1.383-5.715,15.949,15.949,0,0,0-9.1-8.478l3.991,8.949a4.794,4.794,0,0,1-.763,5.059,15.993,15.993,0,0,1-5.4,4.092,15.624,15.624,0,0,1-6.608,1.461,4.693,4.693,0,0,1-4.245-2.77Z" transform="translate(-2357.665 678.613)" fill="#0e5489"/>
      <path id="Trazado_226146" data-name="Trazado 226146" d="M3180.031,1025.684a4.1,4.1,0,1,1-4.1,4.1,4.1,4.1,0,0,1,4.1-4.1" transform="translate(-2234.142 42.799)" fill="#abf5ff"/>
      <path id="Trazado_226147" data-name="Trazado 226147" d="M3175.654,1030.823a5.418,5.418,0,1,1,5.417-5.417,5.424,5.424,0,0,1-5.417,5.417m0-8.2a2.782,2.782,0,1,0,2.782,2.782,2.785,2.785,0,0,0-2.782-2.782" transform="translate(-2229.765 47.177)" fill="#0e5489"/>
      <path id="Trazado_226148" data-name="Trazado 226148" d="M3180.031,498.429a4.1,4.1,0,1,1-4.1,4.1,4.1,4.1,0,0,1,4.1-4.1" transform="translate(-2234.142 448.066)" fill="#abf5ff"/>
      <path id="Trazado_226149" data-name="Trazado 226149" d="M3175.654,503.568a5.418,5.418,0,1,1,5.417-5.418,5.424,5.424,0,0,1-5.417,5.418m0-8.2a2.782,2.782,0,1,0,2.782,2.782,2.785,2.785,0,0,0-2.782-2.782" transform="translate(-2229.765 452.445)" fill="#0e5489"/>
      <path id="Trazado_226150" data-name="Trazado 226150" d="M3193.652,533.868V647.656" transform="translate(-2247.763 420.826)" fill="#fff"/>
      <path id="Trazado_226151" data-name="Trazado 226151" d="M3189.274,644.6a1.318,1.318,0,0,1-1.318-1.318V529.49a1.318,1.318,0,1,1,2.635,0V643.277a1.317,1.317,0,0,1-1.318,1.318" transform="translate(-2243.385 425.205)" fill="#0e5489"/>
      <path id="Trazado_226152" data-name="Trazado 226152" d="M3291.567,506.668a4.823,4.823,0,1,0-4.823-4.823,4.823,4.823,0,0,0,4.823,4.823" transform="translate(-2319.317 449.148)" fill="#abf5ff"/>
      <path id="Trazado_226153" data-name="Trazado 226153" d="M3287.189,503.608a6.141,6.141,0,1,1,6.141-6.141,6.148,6.148,0,0,1-6.141,6.141m0-9.646a3.505,3.505,0,1,0,3.5,3.505,3.51,3.51,0,0,0-3.5-3.505" transform="translate(-2314.938 453.526)" fill="#0e5489"/>
      <path id="Trazado_226154" data-name="Trazado 226154" d="M3307.591,649.138V538.716" transform="translate(-2335.341 417.101)" fill="#fff"/>
      <path id="Trazado_226155" data-name="Trazado 226155" d="M3303.214,646.078a1.318,1.318,0,0,1-1.318-1.318V534.338a1.318,1.318,0,1,1,2.635,0V644.761a1.317,1.317,0,0,1-1.318,1.318" transform="translate(-2330.963 421.479)" fill="#0e5489"/>
      <path id="Trazado_226156" data-name="Trazado 226156" d="M3291.567,1015.989a4.823,4.823,0,1,1-4.823,4.823,4.823,4.823,0,0,1,4.823-4.823" transform="translate(-2319.317 50.25)" fill="#abf5ff"/>
      <path id="Trazado_226157" data-name="Trazado 226157" d="M3287.189,1022.575a6.141,6.141,0,1,1,6.141-6.141,6.148,6.148,0,0,1-6.141,6.141m0-9.646a3.505,3.505,0,1,0,3.5,3.505,3.51,3.51,0,0,0-3.5-3.505" transform="translate(-2314.938 54.628)" fill="#0e5489"/>
      <path id="Trazado_226158" data-name="Trazado 226158" d="M3496.815,836.022a4.1,4.1,0,1,1,4.1,4.1,4.1,4.1,0,0,1-4.1-4.1" transform="translate(-2480.785 191.731)" fill="#abf5ff"/>
      <path id="Trazado_226159" data-name="Trazado 226159" d="M3496.537,837.061a5.418,5.418,0,1,1,5.417-5.418,5.424,5.424,0,0,1-5.417,5.418m0-8.2a2.782,2.782,0,1,0,2.782,2.782,2.785,2.785,0,0,0-2.782-2.782" transform="translate(-2476.407 196.109)" fill="#0e5489"/>
      <path id="Trazado_226160" data-name="Trazado 226160" d="M2978.145,836.022a4.1,4.1,0,1,1,4.1,4.1,4.1,4.1,0,0,1-4.1-4.1" transform="translate(-2082.116 191.731)" fill="#abf5ff"/>
      <path id="Trazado_226161" data-name="Trazado 226161" d="M2977.866,837.061a5.418,5.418,0,1,1,5.417-5.418,5.424,5.424,0,0,1-5.417,5.418m0-8.2a2.782,2.782,0,1,0,2.781,2.782,2.785,2.785,0,0,0-2.781-2.782" transform="translate(-2077.737 196.109)" fill="#0e5489"/>
      <path id="Trazado_226162" data-name="Trazado 226162" d="M3013.584,849.642h111.8" transform="translate(-2109.356 178.11)" fill="#fff"/>
      <path id="Trazado_226163" data-name="Trazado 226163" d="M3121.007,846.582h-111.8a1.318,1.318,0,1,1,0-2.636h111.8a1.318,1.318,0,1,1,0,2.636" transform="translate(-2104.978 182.489)" fill="#0e5489"/>
      <path id="Trazado_226164" data-name="Trazado 226164" d="M2986.384,719.678a4.823,4.823,0,1,0-4.823,4.823,4.823,4.823,0,0,0,4.823-4.823" transform="translate(-2081.034 281.713)" fill="#abf5ff"/>
      <path id="Trazado_226165" data-name="Trazado 226165" d="M2977.183,721.442a6.141,6.141,0,1,1,6.141-6.141,6.148,6.148,0,0,1-6.141,6.141m0-9.646a3.505,3.505,0,1,0,3.505,3.505,3.509,3.509,0,0,0-3.505-3.505" transform="translate(-2076.656 286.091)" fill="#0e5489"/>
      <path id="Trazado_226166" data-name="Trazado 226166" d="M3126.868,735.7H3018.432" transform="translate(-2113.082 265.689)" fill="#fff"/>
      <path id="Trazado_226167" data-name="Trazado 226167" d="M3122.49,732.643H3014.054a1.318,1.318,0,0,1,0-2.636H3122.49a1.318,1.318,0,0,1,0,2.636" transform="translate(-2108.704 270.067)" fill="#0e5489"/>
      <path id="Trazado_226168" data-name="Trazado 226168" d="M3487.12,719.678a4.823,4.823,0,1,1,4.823,4.823,4.823,4.823,0,0,1-4.823-4.823" transform="translate(-2473.333 281.713)" fill="#abf5ff"/>
      <path id="Trazado_226169" data-name="Trazado 226169" d="M3487.565,721.442a6.141,6.141,0,1,1,6.141-6.141,6.148,6.148,0,0,1-6.141,6.141m0-9.646a3.505,3.505,0,1,0,3.505,3.505,3.51,3.51,0,0,0-3.505-3.505" transform="translate(-2468.955 286.091)" fill="#0e5489"/>
      <path id="Trazado_226170" data-name="Trazado 226170" d="M3157.768,643a40.887,40.887,0,1,1-40.887-40.887A40.887,40.887,0,0,1,3157.768,643" transform="translate(-2157.327 368.372)" fill="#fff"/>
      <path id="Trazado_226171" data-name="Trazado 226171" d="M3112.5,680.827a42.205,42.205,0,1,1,42.205-42.205,42.253,42.253,0,0,1-42.205,42.205m0-81.774a39.569,39.569,0,1,0,39.57,39.569,39.614,39.614,0,0,0-39.57-39.569" transform="translate(-2152.948 372.749)" fill="#0e5489"/>
      <path id="Trazado_226172" data-name="Trazado 226172" d="M3214.164,568.724a49.32,49.32,0,0,1,17.341-.089" transform="translate(-2263.529 394.66)" fill="#fff"/>
      <path id="Trazado_226173" data-name="Trazado 226173" d="M3209.784,565.676a1.318,1.318,0,0,1-.238-2.614,50.882,50.882,0,0,1,17.807-.092,1.318,1.318,0,0,1-.452,2.6,48.242,48.242,0,0,0-16.876.087,1.3,1.3,0,0,1-.24.022" transform="translate(-2259.15 399.026)" fill="#0e5489"/>
      <path id="Trazado_226174" data-name="Trazado 226174" d="M3048.958,606.954a1.319,1.319,0,0,1-1.245-1.749,50.547,50.547,0,0,1,30.632-30.858,1.318,1.318,0,1,1,.88,2.484,47.891,47.891,0,0,0-29.021,29.235,1.318,1.318,0,0,1-1.245.887" transform="translate(-2135.532 389.771)" fill="#0e5489"/>
      <path id="Trazado_226175" data-name="Trazado 226175" d="M3043.134,769.885a49.309,49.309,0,0,1-.96-17.538" transform="translate(-2131.038 252.896)" fill="#fff"/>
      <path id="Trazado_226176" data-name="Trazado 226176" d="M3038.755,766.825a1.319,1.319,0,0,1-1.281-1.011,50.617,50.617,0,0,1-.986-18.009,1.318,1.318,0,0,1,2.615.328,47.99,47.99,0,0,0,.934,17.068,1.319,1.319,0,0,1-1.282,1.625" transform="translate(-2126.66 257.274)" fill="#0e5489"/>
      <path id="Trazado_226177" data-name="Trazado 226177" d="M3083.794,889.58a1.314,1.314,0,0,1-.47-.087,50.6,50.6,0,0,1-27.587-25.744,1.318,1.318,0,0,1,2.391-1.11,47.946,47.946,0,0,0,26.138,24.392,1.318,1.318,0,0,1-.471,2.549" transform="translate(-2141.661 168.708)" fill="#0e5489"/>
      <path id="Trazado_226178" data-name="Trazado 226178" d="M3347.71,606.954a1.318,1.318,0,0,1-1.245-.887,47.891,47.891,0,0,0-29.021-29.235,1.318,1.318,0,1,1,.88-2.484,50.547,50.547,0,0,1,30.632,30.858,1.319,1.319,0,0,1-1.246,1.749" transform="translate(-2342.238 389.771)" fill="#0e5489"/>
      <path id="Trazado_226179" data-name="Trazado 226179" d="M3456.929,769.885a49.287,49.287,0,0,0,.96-17.538" transform="translate(-2450.127 252.896)" fill="#fff"/>
      <path id="Trazado_226180" data-name="Trazado 226180" d="M3452.551,766.825a1.319,1.319,0,0,1-1.283-1.625,47.973,47.973,0,0,0,.934-17.068,1.318,1.318,0,0,1,2.616-.328,50.628,50.628,0,0,1-.986,18.009,1.318,1.318,0,0,1-1.281,1.011" transform="translate(-2445.749 257.274)" fill="#0e5489"/>
      <path id="Trazado_226181" data-name="Trazado 226181" d="M3322.722,889.58a1.318,1.318,0,0,1-.471-2.549,47.947,47.947,0,0,0,26.138-24.392,1.318,1.318,0,1,1,2.39,1.11,50.6,50.6,0,0,1-27.587,25.744,1.313,1.313,0,0,1-.47.087" transform="translate(-2345.957 168.708)" fill="#0e5489"/>
      <path id="Trazado_226182" data-name="Trazado 226182" d="M3234.176,987.167a49.386,49.386,0,0,1-15.091-.073" transform="translate(-2267.312 72.46)" fill="#fff"/>
      <path id="Trazado_226183" data-name="Trazado 226183" d="M3222.488,984.65a50.662,50.662,0,0,1-7.99-.633,1.318,1.318,0,0,1,.417-2.6,48.28,48.28,0,0,0,14.686.071,1.318,1.318,0,0,1,.392,2.607,50.711,50.711,0,0,1-7.5.558" transform="translate(-2262.933 76.839)" fill="#0e5489"/>
      <path id="Trazado_226184" data-name="Trazado 226184" d="M3180.216,680.9v-8.484a2.2,2.2,0,0,0-2.2-2.2h-4.546a1.179,1.179,0,0,1-1.119-.835,23.866,23.866,0,0,0-1.558-3.758,1.179,1.179,0,0,1,.2-1.382l3.215-3.215a2.2,2.2,0,0,0,0-3.114l-6-6a2.2,2.2,0,0,0-3.114,0l-3.215,3.215a1.179,1.179,0,0,1-1.382.2,23.845,23.845,0,0,0-3.759-1.558,1.179,1.179,0,0,1-.834-1.119V648.1a2.2,2.2,0,0,0-2.2-2.2h-8.484a2.2,2.2,0,0,0-2.2,2.2v4.546a1.179,1.179,0,0,1-.834,1.119,23.845,23.845,0,0,0-3.759,1.558,1.179,1.179,0,0,1-1.382-.2l-3.215-3.215a2.2,2.2,0,0,0-3.115,0l-6,6a2.2,2.2,0,0,0,0,3.114l3.215,3.215a1.179,1.179,0,0,1,.2,1.382,23.912,23.912,0,0,0-1.558,3.758,1.179,1.179,0,0,1-1.119.835H3120.9a2.2,2.2,0,0,0-2.2,2.2V680.9a2.2,2.2,0,0,0,2.2,2.2h4.546a1.179,1.179,0,0,1,1.119.835,23.9,23.9,0,0,0,1.558,3.758,1.179,1.179,0,0,1-.2,1.382l-3.215,3.215a2.2,2.2,0,0,0,0,3.114l6,6a2.2,2.2,0,0,0,3.115,0l3.215-3.215a1.179,1.179,0,0,1,1.382-.2,23.851,23.851,0,0,0,3.759,1.558,1.179,1.179,0,0,1,.834,1.119v4.546a2.2,2.2,0,0,0,2.2,2.2h8.484a2.2,2.2,0,0,0,2.2-2.2v-4.546a1.179,1.179,0,0,1,.834-1.119,23.851,23.851,0,0,0,3.759-1.558,1.179,1.179,0,0,1,1.382.2l3.215,3.215a2.2,2.2,0,0,0,3.114,0l6-6a2.2,2.2,0,0,0,0-3.114l-3.215-3.215a1.179,1.179,0,0,1-.2-1.382,23.858,23.858,0,0,0,1.558-3.758,1.179,1.179,0,0,1,1.119-.835h4.546a2.2,2.2,0,0,0,2.2-2.2m-30.757,7.768a12.01,12.01,0,1,1,12.01-12.01,12.01,12.01,0,0,1-12.01,12.01" transform="translate(-2190.153 334.717)" fill="#9797cc"/>
      <path id="Trazado_226185" data-name="Trazado 226185" d="M3149.323,704.351h-8.484a3.524,3.524,0,0,1-3.52-3.52v-4.436a25.252,25.252,0,0,1-3.8-1.576l-3.137,3.138a3.6,3.6,0,0,1-4.978,0l-6-6a3.524,3.524,0,0,1,0-4.978l3.137-3.137a25.231,25.231,0,0,1-1.576-3.8h-4.436a3.524,3.524,0,0,1-3.52-3.52v-8.484a3.524,3.524,0,0,1,3.52-3.52h4.436a25.239,25.239,0,0,1,1.576-3.8l-3.137-3.138a3.524,3.524,0,0,1,0-4.978l6-6a3.52,3.52,0,0,1,4.978,0l3.137,3.138a25.254,25.254,0,0,1,3.8-1.576v-4.436a3.524,3.524,0,0,1,3.52-3.52h8.484a3.524,3.524,0,0,1,3.52,3.52v4.436a25.266,25.266,0,0,1,3.8,1.576l3.138-3.138a3.52,3.52,0,0,1,4.978,0l6,6a3.524,3.524,0,0,1,0,4.978l-3.137,3.138a25.258,25.258,0,0,1,1.576,3.8h4.436a3.524,3.524,0,0,1,3.52,3.52v8.484a3.524,3.524,0,0,1-3.52,3.52H3169.2a25.258,25.258,0,0,1-1.576,3.8l3.137,3.137a3.524,3.524,0,0,1,0,4.978l-6,6a3.52,3.52,0,0,1-4.978,0l-3.137-3.138a25.25,25.25,0,0,1-3.8,1.576v4.436a3.524,3.524,0,0,1-3.52,3.52m-15.84-12.2a2.529,2.529,0,0,1,1.167.287,22.616,22.616,0,0,0,3.551,1.471,2.492,2.492,0,0,1,1.753,2.375v4.546a.885.885,0,0,0,.884.884h8.484a.885.885,0,0,0,.884-.884v-4.546a2.492,2.492,0,0,1,1.754-2.375,22.61,22.61,0,0,0,3.551-1.471,2.491,2.491,0,0,1,2.92.439l3.215,3.215a.906.906,0,0,0,1.25,0l6-6a.885.885,0,0,0,0-1.25l-3.215-3.215a2.491,2.491,0,0,1-.439-2.921,22.656,22.656,0,0,0,1.472-3.551,2.491,2.491,0,0,1,2.375-1.754h4.546a.885.885,0,0,0,.884-.884v-8.484a.885.885,0,0,0-.884-.884h-4.546a2.491,2.491,0,0,1-2.375-1.753,22.652,22.652,0,0,0-1.472-3.551,2.49,2.49,0,0,1,.439-2.92l3.215-3.215a.885.885,0,0,0,0-1.25l-6-6a.905.905,0,0,0-1.25,0l-3.215,3.215a2.491,2.491,0,0,1-2.92.439,22.6,22.6,0,0,0-3.551-1.471,2.491,2.491,0,0,1-1.754-2.375v-4.546a.885.885,0,0,0-.884-.884h-8.484a.885.885,0,0,0-.884.884v4.546a2.491,2.491,0,0,1-1.753,2.375,22.6,22.6,0,0,0-3.551,1.471,2.491,2.491,0,0,1-2.921-.439l-3.215-3.215a.905.905,0,0,0-1.25,0l-6,6a.885.885,0,0,0,0,1.25l3.215,3.215a2.491,2.491,0,0,1,.439,2.92,22.658,22.658,0,0,0-1.472,3.551,2.491,2.491,0,0,1-2.375,1.754h-4.546a.885.885,0,0,0-.884.884v8.484a.885.885,0,0,0,.884.884h4.546a2.491,2.491,0,0,1,2.375,1.753,22.649,22.649,0,0,0,1.472,3.551,2.492,2.492,0,0,1-.439,2.921l-3.215,3.215a.885.885,0,0,0,0,1.25l6,6a.906.906,0,0,0,1.25,0l3.215-3.215a2.474,2.474,0,0,1,1.753-.726m11.6-6.548a13.328,13.328,0,1,1,13.328-13.328,13.343,13.343,0,0,1-13.328,13.328m0-24.02a10.692,10.692,0,1,0,10.692,10.692,10.7,10.7,0,0,0-10.692-10.692" transform="translate(-2185.775 339.096)" fill="#0e5489"/>
      <path id="Trazado_226186" data-name="Trazado 226186" d="M3593.112,613.843a1.318,1.318,0,0,1-1.318-1.318V599.837l-1.89,2.46a1.318,1.318,0,1,1-2.09-1.606l4.253-5.535a1.318,1.318,0,0,1,2.363.8v16.566a1.318,1.318,0,0,1-1.318,1.318" transform="translate(-2550.521 374.114)" fill="#0e5489"/>
      <path id="Trazado_226187" data-name="Trazado 226187" d="M3597.372,668.88h-8.512a1.318,1.318,0,1,1,0-2.636h8.512a1.318,1.318,0,1,1,0,2.636" transform="translate(-2550.521 319.078)" fill="#0e5489"/>
      <path id="Trazado_226188" data-name="Trazado 226188" d="M3593.112,727.708a1.318,1.318,0,0,1-1.318-1.318V713.7l-1.89,2.46a1.318,1.318,0,1,1-2.09-1.606l4.253-5.535a1.318,1.318,0,0,1,2.363.8V726.39a1.318,1.318,0,0,1-1.318,1.318" transform="translate(-2550.521 286.594)" fill="#0e5489"/>
      <path id="Trazado_226189" data-name="Trazado 226189" d="M3597.372,782.746h-8.512a1.318,1.318,0,1,1,0-2.636h8.512a1.318,1.318,0,1,1,0,2.636" transform="translate(-2550.521 231.556)" fill="#0e5489"/>
      <path id="Trazado_226190" data-name="Trazado 226190" d="M3844.23,727.708a1.318,1.318,0,0,1-1.318-1.318V713.7l-1.89,2.46a1.318,1.318,0,0,1-2.09-1.606l4.253-5.535a1.318,1.318,0,0,1,2.363.8V726.39a1.318,1.318,0,0,1-1.318,1.318" transform="translate(-2743.54 286.594)" fill="#0e5489"/>
      <path id="Trazado_226191" data-name="Trazado 226191" d="M3848.49,782.746h-8.513a1.318,1.318,0,0,1,0-2.636h8.513a1.318,1.318,0,0,1,0,2.636" transform="translate(-2743.541 231.556)" fill="#0e5489"/>
      <path id="Trazado_226192" data-name="Trazado 226192" d="M3759.417,842.738a1.318,1.318,0,0,1-1.318-1.318V828.732l-1.89,2.46a1.318,1.318,0,1,1-2.09-1.606l4.253-5.535a1.318,1.318,0,0,1,2.363.8V841.42a1.318,1.318,0,0,1-1.318,1.318" transform="translate(-2678.35 198.177)" fill="#0e5489"/>
      <path id="Trazado_226193" data-name="Trazado 226193" d="M3763.677,897.776h-8.513a1.318,1.318,0,1,1,0-2.636h8.513a1.318,1.318,0,0,1,0,2.636" transform="translate(-2678.35 143.14)" fill="#0e5489"/>
      <path id="Trazado_226194" data-name="Trazado 226194" d="M3844.215,843.3a1.318,1.318,0,0,1-1.318-1.318V829.3l-1.89,2.46a1.318,1.318,0,0,1-2.09-1.606l4.253-5.535a1.318,1.318,0,0,1,2.363.8v16.566a1.318,1.318,0,0,1-1.318,1.318" transform="translate(-2743.528 197.744)" fill="#0e5489"/>
      <path id="Trazado_226195" data-name="Trazado 226195" d="M3848.475,898.339h-8.512a1.318,1.318,0,1,1,0-2.636h8.512a1.318,1.318,0,1,1,0,2.636" transform="translate(-2743.529 142.707)" fill="#0e5489"/>
      <path id="Trazado_226196" data-name="Trazado 226196" d="M3928.892,843.3a1.318,1.318,0,0,1-1.318-1.318V829.3l-1.89,2.46a1.318,1.318,0,0,1-2.09-1.606l4.253-5.535a1.318,1.318,0,0,1,2.363.8v16.566a1.318,1.318,0,0,1-1.318,1.318" transform="translate(-2808.614 197.744)" fill="#0e5489"/>
      <path id="Trazado_226197" data-name="Trazado 226197" d="M3933.152,898.339h-8.513a1.318,1.318,0,1,1,0-2.636h8.513a1.318,1.318,0,1,1,0,2.636" transform="translate(-2808.614 142.707)" fill="#0e5489"/>
      <path id="Trazado_226198" data-name="Trazado 226198" d="M4011.092,842.738a1.318,1.318,0,0,1-1.318-1.318V828.732l-1.89,2.46a1.318,1.318,0,0,1-2.09-1.606l4.253-5.535a1.318,1.318,0,0,1,2.363.8V841.42a1.318,1.318,0,0,1-1.318,1.318" transform="translate(-2871.796 198.177)" fill="#0e5489"/>
      <path id="Trazado_226199" data-name="Trazado 226199" d="M4015.352,897.776h-8.513a1.318,1.318,0,1,1,0-2.636h8.513a1.318,1.318,0,1,1,0,2.636" transform="translate(-2871.797 143.14)" fill="#0e5489"/>
      <path id="Trazado_226200" data-name="Trazado 226200" d="M3927.04,615.533a1.318,1.318,0,0,1-1.318-1.318V601.527l-1.89,2.46a1.318,1.318,0,1,1-2.09-1.606l4.253-5.535a1.318,1.318,0,0,1,2.363.8v16.566a1.318,1.318,0,0,1-1.318,1.318" transform="translate(-2807.191 372.815)" fill="#0e5489"/>
      <path id="Trazado_226201" data-name="Trazado 226201" d="M3931.3,670.571h-8.513a1.318,1.318,0,0,1,0-2.636h8.513a1.318,1.318,0,1,1,0,2.636" transform="translate(-2807.191 317.778)" fill="#0e5489"/>
      <path id="Trazado_226202" data-name="Trazado 226202" d="M3927.8,725.847a1.318,1.318,0,0,1-1.318-1.318V711.841l-1.89,2.46a1.318,1.318,0,0,1-2.09-1.606l4.253-5.535a1.318,1.318,0,0,1,2.363.8v16.566a1.318,1.318,0,0,1-1.318,1.318" transform="translate(-2807.771 288.024)" fill="#0e5489"/>
      <path id="Trazado_226203" data-name="Trazado 226203" d="M3932.055,780.885h-8.512a1.318,1.318,0,1,1,0-2.636h8.512a1.318,1.318,0,1,1,0,2.636" transform="translate(-2807.771 232.986)" fill="#0e5489"/>
      <path id="Trazado_226204" data-name="Trazado 226204" d="M3678.021,613.843a1.318,1.318,0,0,1-1.318-1.318V599.837l-1.89,2.46a1.318,1.318,0,0,1-2.09-1.606l4.253-5.535a1.318,1.318,0,0,1,2.363.8v16.566a1.318,1.318,0,0,1-1.318,1.318" transform="translate(-2615.785 374.114)" fill="#0e5489"/>
      <path id="Trazado_226205" data-name="Trazado 226205" d="M3682.281,668.88h-8.512a1.318,1.318,0,1,1,0-2.636h8.512a1.318,1.318,0,1,1,0,2.636" transform="translate(-2615.785 319.078)" fill="#0e5489"/>
      <path id="Trazado_226206" data-name="Trazado 226206" d="M3756.366,613.846a5.631,5.631,0,0,1-1.086-.106,5.326,5.326,0,0,1-2.824-1.556,5.986,5.986,0,0,1-1.638-4.115v-7.827a5.585,5.585,0,0,1,6.686-5.487,5.694,5.694,0,0,1,4.462,5.671v7.827a5.615,5.615,0,0,1-5.6,5.593m.023-16.565a2.886,2.886,0,0,0-1.853.666,2.961,2.961,0,0,0-1.082,2.295v7.827a3.328,3.328,0,0,0,.9,2.29,2.7,2.7,0,0,0,1.431.795,2.912,2.912,0,0,0,2.451-.618,2.954,2.954,0,0,0,1.092-2.283v-7.827a3.1,3.1,0,0,0-2.334-3.085,3.165,3.165,0,0,0-.608-.06" transform="translate(-2676.022 374.11)" fill="#0e5489"/>
      <path id="Trazado_226207" data-name="Trazado 226207" d="M3843.759,613.846a5.633,5.633,0,0,1-1.086-.106,5.326,5.326,0,0,1-2.823-1.556,5.986,5.986,0,0,1-1.638-4.115v-7.827a5.584,5.584,0,0,1,6.686-5.487,5.694,5.694,0,0,1,4.462,5.671v7.827a5.615,5.615,0,0,1-5.6,5.593m.023-16.565a2.886,2.886,0,0,0-1.853.666,2.96,2.96,0,0,0-1.082,2.295v7.827a3.327,3.327,0,0,0,.9,2.29,2.7,2.7,0,0,0,1.43.795,2.912,2.912,0,0,0,2.451-.618,2.954,2.954,0,0,0,1.092-2.283v-7.827a3.1,3.1,0,0,0-2.334-3.085,3.165,3.165,0,0,0-.608-.06" transform="translate(-2743.195 374.11)" fill="#0e5489"/>
      <path id="Trazado_226208" data-name="Trazado 226208" d="M4011.13,725.906a5.633,5.633,0,0,1-1.086-.106,5.329,5.329,0,0,1-2.824-1.556,5.987,5.987,0,0,1-1.638-4.115V712.3a5.584,5.584,0,0,1,6.686-5.487,5.694,5.694,0,0,1,4.462,5.671v7.827a5.615,5.615,0,0,1-5.6,5.593m.023-16.565a2.886,2.886,0,0,0-1.853.666,2.96,2.96,0,0,0-1.082,2.295v7.827a3.327,3.327,0,0,0,.9,2.29,2.7,2.7,0,0,0,1.43.795A2.911,2.911,0,0,0,4013,722.6a2.953,2.953,0,0,0,1.092-2.283v-7.827a3.1,3.1,0,0,0-2.334-3.085,3.163,3.163,0,0,0-.608-.06" transform="translate(-2871.844 287.977)" fill="#0e5489"/>
      <path id="Trazado_226209" data-name="Trazado 226209" d="M4010.375,613.846a5.638,5.638,0,0,1-1.086-.106,5.329,5.329,0,0,1-2.824-1.556,5.986,5.986,0,0,1-1.638-4.115v-7.827a5.585,5.585,0,0,1,6.687-5.487,5.694,5.694,0,0,1,4.462,5.671v7.827a5.615,5.615,0,0,1-5.6,5.593m.023-16.565a2.886,2.886,0,0,0-1.853.666,2.96,2.96,0,0,0-1.082,2.295v7.827a3.328,3.328,0,0,0,.9,2.29,2.7,2.7,0,0,0,1.43.795,2.912,2.912,0,0,0,2.451-.618,2.954,2.954,0,0,0,1.092-2.283v-7.827a3.1,3.1,0,0,0-2.334-3.085,3.163,3.163,0,0,0-.608-.06" transform="translate(-2871.263 374.11)" fill="#0e5489"/>
      <path id="Trazado_226210" data-name="Trazado 226210" d="M3678,727.712a5.633,5.633,0,0,1-1.086-.106,5.326,5.326,0,0,1-2.824-1.556,5.987,5.987,0,0,1-1.638-4.115v-7.827a5.585,5.585,0,0,1,6.686-5.487,5.694,5.694,0,0,1,4.462,5.671v7.827a5.615,5.615,0,0,1-5.6,5.593m.023-16.565a2.887,2.887,0,0,0-1.854.666,2.961,2.961,0,0,0-1.082,2.295v7.827a3.328,3.328,0,0,0,.9,2.29,2.7,2.7,0,0,0,1.43.795,2.911,2.911,0,0,0,2.451-.618,2.954,2.954,0,0,0,1.092-2.283v-7.827a3.1,3.1,0,0,0-2.334-3.085,3.167,3.167,0,0,0-.608-.06" transform="translate(-2615.785 286.589)" fill="#0e5489"/>
      <path id="Trazado_226211" data-name="Trazado 226211" d="M3594.884,842.8a5.629,5.629,0,0,1-1.086-.106,5.324,5.324,0,0,1-2.824-1.556,5.985,5.985,0,0,1-1.639-4.115v-7.827a5.585,5.585,0,0,1,6.687-5.487,5.694,5.694,0,0,1,4.462,5.671V837.2a5.615,5.615,0,0,1-5.6,5.593m.023-16.565a2.887,2.887,0,0,0-1.854.666,2.961,2.961,0,0,0-1.082,2.295v7.827a3.328,3.328,0,0,0,.9,2.29,2.7,2.7,0,0,0,1.43.795,2.911,2.911,0,0,0,2.451-.618,2.954,2.954,0,0,0,1.091-2.283v-7.827a3.1,3.1,0,0,0-2.334-3.085,3.158,3.158,0,0,0-.608-.06" transform="translate(-2551.9 198.131)" fill="#0e5489"/>
      <path id="Trazado_226212" data-name="Trazado 226212" d="M3677.389,842.8a5.629,5.629,0,0,1-1.086-.106,5.327,5.327,0,0,1-2.824-1.556,5.987,5.987,0,0,1-1.638-4.115v-7.827a5.585,5.585,0,0,1,6.686-5.487,5.694,5.694,0,0,1,4.462,5.671V837.2a5.615,5.615,0,0,1-5.6,5.593m.023-16.565a2.887,2.887,0,0,0-1.853.666,2.96,2.96,0,0,0-1.082,2.295v7.827a3.328,3.328,0,0,0,.9,2.29,2.705,2.705,0,0,0,1.43.795,2.912,2.912,0,0,0,2.451-.618,2.954,2.954,0,0,0,1.092-2.283v-7.827a3.1,3.1,0,0,0-2.334-3.085,3.163,3.163,0,0,0-.608-.06" transform="translate(-2615.317 198.131)" fill="#0e5489"/>
      <path id="Trazado_226213" data-name="Trazado 226213" d="M3759.44,727.46a5.632,5.632,0,0,1-1.086-.106,5.324,5.324,0,0,1-2.824-1.556,5.986,5.986,0,0,1-1.639-4.115v-7.827a5.585,5.585,0,0,1,6.687-5.487,5.694,5.694,0,0,1,4.462,5.671v7.828a5.615,5.615,0,0,1-5.6,5.593m.023-16.566a2.888,2.888,0,0,0-1.854.666,2.961,2.961,0,0,0-1.082,2.295v7.827a3.326,3.326,0,0,0,.9,2.29,2.7,2.7,0,0,0,1.43.795,2.911,2.911,0,0,0,2.451-.618,2.954,2.954,0,0,0,1.092-2.283v-7.828a3.1,3.1,0,0,0-2.334-3.085,3.158,3.158,0,0,0-.607-.06" transform="translate(-2678.385 286.782)" fill="#0e5489"/>
      <path id="Trazado_226214" data-name="Trazado 226214" d="M3685.148,526.814h-.011l-82.417-.712a1.318,1.318,0,1,1,.023-2.636l82.417.712a1.318,1.318,0,0,1-.011,2.636" transform="translate(-2561.184 428.821)" fill="#0e5489"/>
      <path id="Trazado_226215" data-name="Trazado 226215" d="M3980.145,515a1.318,1.318,0,0,1-.665-2.457l8.643-5.033-8.984-4.885a1.318,1.318,0,1,1,1.258-2.316l9.713,5.278a2.194,2.194,0,0,1,1.253,1.879,2.16,2.16,0,0,1-1.174,1.89l-9.383,5.464a1.313,1.313,0,0,1-.662.179m8.743-7.074h0Z" transform="translate(-2850.989 446.747)" fill="#0e5489"/>
      <path id="Trazado_226216" data-name="Trazado 226216" d="M3732.858,977.3h0l-87.416-.288a1.318,1.318,0,0,1,0-2.636h0l87.416.288a1.318,1.318,0,0,1,0,2.636" transform="translate(-2594.013 82.234)" fill="#0e5489"/>
      <path id="Trazado_226217" data-name="Trazado 226217" d="M3611.716,962.831a1.312,1.312,0,0,1-.662-.179l-9.383-5.464a2.16,2.16,0,0,1-1.175-1.89,2.194,2.194,0,0,1,1.253-1.879l9.713-5.278a1.318,1.318,0,0,1,1.259,2.316l-8.985,4.883,8.644,5.035a1.318,1.318,0,0,1-.665,2.457" transform="translate(-2560.479 102.524)" fill="#0e5489"/>
    </g>
  </g>
</svg>
