<svg xmlns="http://www.w3.org/2000/svg" xmlns:xlink="http://www.w3.org/1999/xlink" width="335" height="387.262" viewBox="0 0 335 387.262">
  <defs>
    <clipPath id="clip-path">
      <rect id="Rectángulo_49849" data-name="Rectángulo 49849" width="335" height="387.262" fill="none"/>
    </clipPath>
    <clipPath id="clip-path-5">
      <rect id="Rectángulo_49770" data-name="Rectángulo 49770" width="56.573" height="25.573" fill="none"/>
    </clipPath>
    <clipPath id="clip-path-6">
      <rect id="Rectángulo_49771" data-name="Rectángulo 49771" width="46.707" height="16.653" fill="none"/>
    </clipPath>
    <clipPath id="clip-path-7">
      <rect id="Rectángulo_49774" data-name="Rectángulo 49774" width="97.436" height="20.39" fill="none"/>
    </clipPath>
    <clipPath id="clip-path-8">
      <rect id="Rectángulo_49775" data-name="Rectángulo 49775" width="10.769" height="12.73" fill="none"/>
    </clipPath>
    <clipPath id="clip-path-9">
      <rect id="Rectángulo_49794" data-name="Rectángulo 49794" width="4.822" height="5.7" fill="none"/>
    </clipPath>
    <clipPath id="clip-path-10">
      <rect id="Rectángulo_49795" data-name="Rectángulo 49795" width="18.48" height="12.248" fill="none"/>
    </clipPath>
    <clipPath id="clip-path-11">
      <rect id="Rectángulo_49796" data-name="Rectángulo 49796" width="15.257" height="7.976" fill="none"/>
    </clipPath>
    <clipPath id="clip-path-12">
      <rect id="Rectángulo_49799" data-name="Rectángulo 49799" width="25.57" height="7.845" fill="none"/>
    </clipPath>
    <clipPath id="clip-path-14">
      <rect id="Rectángulo_49804" data-name="Rectángulo 49804" width="18.479" height="12.248" fill="none"/>
    </clipPath>
    <clipPath id="clip-path-16">
      <rect id="Rectángulo_49808" data-name="Rectángulo 49808" width="25.569" height="7.845" fill="none"/>
    </clipPath>
    <clipPath id="clip-path-21">
      <rect id="Rectángulo_49845" data-name="Rectángulo 49845" width="191.426" height="157.847" fill="none"/>
    </clipPath>
    <clipPath id="clip-path-22">
      <rect id="Rectángulo_49846" data-name="Rectángulo 49846" width="47.523" height="62.988" fill="none"/>
    </clipPath>
  </defs>
  <g id="Grupo_117819" data-name="Grupo 117819" transform="translate(-1020 -5539.936)">
    <g id="Grupo_114605" data-name="Grupo 114605" transform="translate(1020 5539.936)">
      <g id="Grupo_114604" data-name="Grupo 114604" clip-path="url(#clip-path)">
        <rect id="Rectángulo_49739" data-name="Rectángulo 49739" width="27.292" height="10.268" transform="translate(285.548 292.22)" fill="#ebebeb"/>
        <rect id="Rectángulo_49740" data-name="Rectángulo 49740" width="27.292" height="10.268" transform="translate(119.673 151.978)" fill="#ebebeb"/>
        <g id="Grupo_114547" data-name="Grupo 114547">
          <g id="Grupo_114546" data-name="Grupo 114546" clip-path="url(#clip-path)">
            <path id="Trazado_226412" data-name="Trazado 226412" d="M387.4,342.79c4.533-.091,16.155-.319,20.53-.379l6.761-.039-.353.418-.034-10.268.387.459c-4.532-.017-16.09-.067-20.469-.14l-6.823-.1.184-.218Zm0,0-.184-10.268,0-.215.188,0c3.4-.053,10.243-.146,13.646-.178l13.645-.062.39,0,0,.46-.034,10.268,0,.42-.352,0-6.884-.039c-4.347-.057-15.917-.288-20.407-.379" transform="translate(-86.632 -27.355)" fill="#ebebeb"/>
            <path id="Trazado_226413" data-name="Trazado 226413" d="M220.22,393.154c4.533-.09,16.155-.319,20.53-.379l6.762-.039-.354.418-.034-10.268.388.459c-4.533-.017-16.091-.067-20.469-.14l-6.823-.1.184-.218Zm0,0-.184-10.268,0-.215.188,0c3.4-.053,10.243-.146,13.646-.178l13.646-.062.389,0,0,.46-.034,10.268v.42l-.352,0-6.885-.039c-4.347-.057-15.917-.288-20.407-.379" transform="translate(-49.228 -31.504)" fill="#ebebeb"/>
            <path id="Trazado_226414" data-name="Trazado 226414" d="M239.832,407.264c4.533-.091,16.155-.319,20.53-.379l6.761-.039-.353.418L266.736,397l.387.459c-4.532-.017-16.09-.067-20.469-.14l-6.823-.1.184-.218Zm0,0L239.648,397l0-.215.188,0c3.4-.053,10.243-.146,13.646-.178l13.645-.062.39,0,0,.46-.034,10.268,0,.42-.352,0-6.884-.039c-4.347-.057-15.917-.288-20.407-.379" transform="translate(-53.616 -32.666)" fill="#ebebeb"/>
            <rect id="Rectángulo_49741" data-name="Rectángulo 49741" width="27.292" height="10.268" transform="translate(201.381 351.382)" fill="#ebebeb"/>
            <rect id="Rectángulo_49742" data-name="Rectángulo 49742" width="27.292" height="10.268" transform="translate(6.936 305.167)" fill="#ebebeb"/>
            <rect id="Rectángulo_49743" data-name="Rectángulo 49743" width="27.292" height="10.268" transform="translate(22.16 0.713)" fill="#ebebeb"/>
            <path id="Trazado_226415" data-name="Trazado 226415" d="M8.881,25.114c4.533-.091,16.155-.319,20.53-.379l6.761-.039-.353.418-.034-10.268.387.459c-4.532-.017-16.09-.067-20.469-.14l-6.823-.1.184-.218Zm0,0L8.7,14.846l0-.215.188,0c3.4-.053,10.243-.146,13.646-.178l13.645-.062.39,0,0,.46-.034,10.268,0,.42-.352,0-6.884-.039c-4.347-.057-15.917-.288-20.407-.379" transform="translate(-1.945 -1.185)" fill="#ebebeb"/>
            <path id="Trazado_226416" data-name="Trazado 226416" d="M367.792,11c4.533-.091,16.155-.319,20.53-.379l6.762-.039L394.73,11,394.7.736l.388.459c-4.533-.017-16.091-.067-20.469-.14l-6.823-.1.184-.218Zm0,0L367.608.736l0-.215.188,0C371.2.465,378.035.372,381.438.34L395.084.278l.389,0,0,.46L395.437,11v.42l-.352,0-6.885-.039c-4.347-.057-15.917-.288-20.407-.379" transform="translate(-82.244 -0.023)" fill="#ebebeb"/>
          </g>
        </g>
        <g id="Grupo_114551" data-name="Grupo 114551">
          <g id="Grupo_114550" data-name="Grupo 114550" clip-path="url(#clip-path)">
            <path id="Trazado_226434" data-name="Trazado 226434" d="M13.218,421.529c100.737-.562,213.742-.566,314.479,0-100.737.566-213.742.562-314.479,0" transform="translate(-2.957 -34.691)" fill="#263238"/>
          </g>
        </g>
        <rect id="Rectángulo_49748" data-name="Rectángulo 49748" width="285.878" height="213.788" transform="translate(24.561 23.643)" fill="#fff"/>
        <g id="Grupo_114589" data-name="Grupo 114589">
          <g id="Grupo_114588" data-name="Grupo 114588" clip-path="url(#clip-path)">
            <path id="Trazado_226435" data-name="Trazado 226435" d="M317.462,239.533c-.047.053-285.939.1-286,.14-.061-.05-.031-213.845-.075-213.929v-.228h.194c.032-.033,285.914.163,285.952.139.064.049-.122,213.811-.075,213.877m0,0c.016.045-.177-214.18,0-213.7l-285.876.139.193-.228c-.022-.07.082,214.4-.193,213.649l285.877.139" transform="translate(-7.023 -2.102)" fill="#263238"/>
            <rect id="Rectángulo_49749" data-name="Rectángulo 49749" width="285.878" height="8.226" transform="translate(24.561 23.643)" fill="#263238"/>
            <path id="Trazado_226436" data-name="Trazado 226436" d="M39.477,30.1a1.422,1.422,0,1,1-1.4-1.657,1.546,1.546,0,0,1,1.4,1.657" transform="translate(-8.205 -2.343)" fill="#4dd0e1"/>
            <path id="Trazado_226437" data-name="Trazado 226437" d="M46.852,30.1a1.422,1.422,0,1,1-1.4-1.657,1.546,1.546,0,0,1,1.4,1.657" transform="translate(-9.855 -2.343)" fill="#fff"/>
            <path id="Trazado_226438" data-name="Trazado 226438" d="M54.227,30.1a1.422,1.422,0,1,1-1.4-1.657,1.546,1.546,0,0,1,1.4,1.657" transform="translate(-11.505 -2.343)" fill="#455a64"/>
            <path id="Trazado_226439" data-name="Trazado 226439" d="M68.234,131.014c6.639-.151,13.28-.222,19.919-.281l19.92-.085,19.919.084,9.96.1,9.96.18-9.96.18-9.96.1-19.919.084-19.92-.085c-6.639-.059-13.28-.129-19.919-.281" transform="translate(-15.266 -10.763)" fill="#dbdbdb"/>
            <path id="Trazado_226440" data-name="Trazado 226440" d="M68.234,139.157c6.639-.151,13.28-.222,19.919-.281l19.92-.085,19.919.084,9.96.1,9.96.18-9.96.18-9.96.1-19.919.084-19.92-.085c-6.639-.059-13.28-.129-19.919-.281" transform="translate(-15.266 -11.434)" fill="#dbdbdb"/>
            <path id="Trazado_226441" data-name="Trazado 226441" d="M68.234,147.3c6.639-.151,13.28-.222,19.919-.281l19.92-.085,19.919.084,9.96.1,9.96.18-9.96.18-9.96.1-19.919.084-19.92-.085c-6.639-.059-13.28-.129-19.919-.281" transform="translate(-15.266 -12.104)" fill="#dbdbdb"/>
            <path id="Trazado_226442" data-name="Trazado 226442" d="M68.234,163.587c6.639-.151,13.28-.222,19.919-.281l19.92-.085,19.919.084,9.96.1,9.96.18-9.96.18-9.96.1-19.919.084-19.92-.085c-6.639-.059-13.28-.129-19.919-.281" transform="translate(-15.266 -13.446)" fill="#dbdbdb"/>
            <path id="Trazado_226443" data-name="Trazado 226443" d="M68.234,171.73c6.639-.151,13.28-.222,19.919-.281l19.92-.085,19.919.084,9.96.1,9.96.18-9.96.18-9.96.1-19.919.084-19.92-.085c-6.639-.059-13.28-.129-19.919-.281" transform="translate(-15.266 -14.117)" fill="#dbdbdb"/>
            <path id="Trazado_226444" data-name="Trazado 226444" d="M68.234,179.873c4.04-.151,8.082-.222,12.122-.281s8.082-.054,12.122-.085c4.04.028,8.082.026,12.122.084l6.061.1c2.021.061,4.04.1,6.061.18-2.021.083-4.04.118-6.061.18l-6.061.1c-4.04.059-8.082.055-12.122.084-4.04-.031-8.082-.026-12.122-.085s-8.082-.129-12.122-.281" transform="translate(-15.266 -14.788)" fill="#dbdbdb"/>
            <rect id="Rectángulo_49750" data-name="Rectángulo 49750" width="36.652" height="11.918" transform="translate(52.968 180.475)" fill="#4dd0e1"/>
            <path id="Trazado_226445" data-name="Trazado 226445" d="M74.3,204.832v-3.651h.3v3.332H76.39v.319Z" transform="translate(-16.624 -16.573)" fill="#fff"/>
            <path id="Trazado_226446" data-name="Trazado 226446" d="M79.644,204.513v.319H77.569v-3.651h2.036v.319H77.873v1.317h1.51v.3h-1.51v1.393Z" transform="translate(-17.355 -16.573)" fill="#fff"/>
            <path id="Trazado_226447" data-name="Trazado 226447" d="M81.842,201.181H82.1l1.283,3.651H83.06l-.4-1.142H81.272l-.4,1.142H80.55Zm.748,2.227-.622-1.8-.631,1.8Z" transform="translate(-18.021 -16.573)" fill="#fff"/>
            <path id="Trazado_226448" data-name="Trazado 226448" d="M84.77,204.833v-3.651h1.3a.706.706,0,0,1,.367.1,1,1,0,0,1,.29.262,1.252,1.252,0,0,1,.189.368,1.327,1.327,0,0,1,.068.417,1.444,1.444,0,0,1-.05.383,1.281,1.281,0,0,1-.139.329.922.922,0,0,1-.215.248.712.712,0,0,1-.283.136l.757,1.409h-.343l-.727-1.347h-.914v1.347Zm.3-1.666h1.009a.46.46,0,0,0,.246-.07.625.625,0,0,0,.189-.187.993.993,0,0,0,.122-.268,1.12,1.12,0,0,0,.043-.313,1,1,0,0,0-.05-.317.928.928,0,0,0-.135-.265.677.677,0,0,0-.2-.18.467.467,0,0,0-.241-.067h-.984Z" transform="translate(-18.966 -16.573)" fill="#fff"/>
            <path id="Trazado_226449" data-name="Trazado 226449" d="M88.733,201.85v2.982h-.3v-3.651h.235l2.044,3.04v-3.035h.3v3.646h-.265Z" transform="translate(-19.784 -16.573)" fill="#fff"/>
            <path id="Trazado_226450" data-name="Trazado 226450" d="M96.92,204.832v-3l-1.126,2.319h-.179l-1.126-2.319v3h-.305v-3.651H94.5l1.2,2.5,1.214-2.5h.308v3.651Z" transform="translate(-21.072 -16.573)" fill="#fff"/>
            <path id="Trazado_226451" data-name="Trazado 226451" d="M100.284,204.857a1.147,1.147,0,0,1-.59-.157,1.558,1.558,0,0,1-.459-.417,2.019,2.019,0,0,1-.3-.594,2.3,2.3,0,0,1-.1-.685,2.213,2.213,0,0,1,.111-.7,2.016,2.016,0,0,1,.307-.592,1.537,1.537,0,0,1,.461-.408,1.137,1.137,0,0,1,.574-.152,1.116,1.116,0,0,1,.59.163,1.553,1.553,0,0,1,.456.423,2.041,2.041,0,0,1,.293.595,2.246,2.246,0,0,1-.006,1.376,2,2,0,0,1-.3.588,1.5,1.5,0,0,1-.459.406,1.142,1.142,0,0,1-.574.152M99.139,203a1.981,1.981,0,0,0,.082.574,1.663,1.663,0,0,0,.235.488,1.211,1.211,0,0,0,.361.34.913.913,0,0,0,.94-.007,1.211,1.211,0,0,0,.361-.351,1.711,1.711,0,0,0,.228-.487,1.961,1.961,0,0,0,.081-.556,1.936,1.936,0,0,0-.085-.574,1.676,1.676,0,0,0-.237-.486,1.233,1.233,0,0,0-.361-.336.872.872,0,0,0-.461-.126.889.889,0,0,0-.474.13,1.18,1.18,0,0,0-.361.348,1.705,1.705,0,0,0-.228.488,1.955,1.955,0,0,0-.081.555" transform="translate(-22.112 -16.571)" fill="#fff"/>
            <path id="Trazado_226452" data-name="Trazado 226452" d="M103.307,204.833v-3.651h1.3a.706.706,0,0,1,.367.1,1,1,0,0,1,.29.262,1.253,1.253,0,0,1,.189.368,1.327,1.327,0,0,1,.068.417,1.444,1.444,0,0,1-.05.383,1.281,1.281,0,0,1-.139.329.911.911,0,0,1-.216.248.7.7,0,0,1-.283.136l.757,1.409h-.343l-.727-1.347h-.914v1.347Zm.3-1.666h1.009a.46.46,0,0,0,.246-.07.614.614,0,0,0,.189-.187.971.971,0,0,0,.123-.268,1.12,1.12,0,0,0,.043-.313,1,1,0,0,0-.05-.317.928.928,0,0,0-.135-.265.677.677,0,0,0-.2-.18.467.467,0,0,0-.241-.067h-.984Z" transform="translate(-23.113 -16.573)" fill="#fff"/>
            <path id="Trazado_226453" data-name="Trazado 226453" d="M109.041,204.513v.319h-2.075v-3.651H109v.319H107.27v1.317h1.51v.3h-1.51v1.393Z" transform="translate(-23.932 -16.573)" fill="#fff"/>
            <path id="Trazado_226454" data-name="Trazado 226454" d="M75.76,109.014v-13.8a1.183,1.183,0,0,1,1.088-1.286,1.2,1.2,0,0,1,1.108,1.286v5.613h5.125V95.215a1.182,1.182,0,0,1,1.088-1.286,1.2,1.2,0,0,1,1.108,1.286v13.8a1.2,1.2,0,0,1-1.108,1.287,1.182,1.182,0,0,1-1.088-1.287V103.4H77.956v5.613a1.2,1.2,0,0,1-1.108,1.287,1.183,1.183,0,0,1-1.088-1.287" transform="translate(-16.95 -7.738)" fill="#263238"/>
            <path id="Trazado_226455" data-name="Trazado 226455" d="M91.917,109.014v-13.8a1.183,1.183,0,0,1,1.088-1.286h6.47a1.209,1.209,0,0,1,1.088,1.286,1.232,1.232,0,0,1-1.088,1.309H94.113V100.8h4.61a1.318,1.318,0,0,1,0,2.6h-4.61v4.3h5.362a1.318,1.318,0,0,1,0,2.6H93.064c-.04,0-.04-.023-.04-.023l-.019.023a1.2,1.2,0,0,1-1.088-1.287" transform="translate(-20.565 -7.738)" fill="#263238"/>
            <path id="Trazado_226456" data-name="Trazado 226456" d="M113.856,106.443h-4.808l-.97,3.04a1.124,1.124,0,0,1-1.029.819.99.99,0,0,1-.375-.07,1.41,1.41,0,0,1-.654-1.684l4.373-13.776a1.117,1.117,0,0,1,1.048-.819,1.1,1.1,0,0,1,1.049.819l4.374,13.776a1.41,1.41,0,0,1-.654,1.684.921.921,0,0,1-.376.07,1.083,1.083,0,0,1-1.008-.819Zm-.81-2.573-1.6-5.029-1.6,5.029Z" transform="translate(-23.706 -7.74)" fill="#263238"/>
            <path id="Trazado_226457" data-name="Trazado 226457" d="M123.5,109.014v-13.8a1.182,1.182,0,0,1,1.088-1.286h2.334c3.818,0,6.906,3.672,6.906,8.162,0,4.538-3.087,8.21-6.906,8.21h-2.334a1.2,1.2,0,0,1-1.088-1.287m2.2-1.309h1.227c2.612-.023,4.709-2.5,4.709-5.614,0-3.063-2.1-5.566-4.709-5.566H125.7Z" transform="translate(-27.631 -7.738)" fill="#263238"/>
            <path id="Trazado_226458" data-name="Trazado 226458" d="M139.913,109.014v-13.8A1.2,1.2,0,0,1,141,93.928a1.212,1.212,0,0,1,1.108,1.286V107.7h5.362a1.318,1.318,0,0,1,0,2.6H141a1.2,1.2,0,0,1-1.088-1.287" transform="translate(-31.303 -7.738)" fill="#263238"/>
            <path id="Trazado_226459" data-name="Trazado 226459" d="M154.57,95.215a1.183,1.183,0,0,1,1.088-1.286,1.21,1.21,0,0,1,1.108,1.286v13.8a1.21,1.21,0,0,1-1.108,1.287,1.182,1.182,0,0,1-1.088-1.287Z" transform="translate(-34.582 -7.738)" fill="#263238"/>
            <path id="Trazado_226460" data-name="Trazado 226460" d="M164.348,109.028a1.21,1.21,0,0,1-1.068,1.287,1.2,1.2,0,0,1-1.088-1.287V95.415a1.361,1.361,0,0,1,.435-1.075.985.985,0,0,1,1.5.281l6.391,10.455V95.439a1.187,1.187,0,0,1,1.068-1.263,1.2,1.2,0,0,1,1.088,1.263v13.589a1.21,1.21,0,0,1-1.088,1.287,1.022,1.022,0,0,1-.811-.468.624.624,0,0,1-.1-.14l-6.331-10.385Z" transform="translate(-36.287 -7.752)" fill="#263238"/>
            <rect id="Rectángulo_49751" data-name="Rectángulo 49751" width="0.442" height="19.009" transform="translate(138.371 85.363)" fill="#263238"/>
            <line id="Línea_2061" data-name="Línea 2061" x2="92.119" transform="translate(56.985 102.562)" fill="none" stroke="#263238" stroke-miterlimit="10" stroke-width="0.25"/>
            <rect id="Rectángulo_49752" data-name="Rectángulo 49752" width="98.71" height="25.556" transform="translate(53.69 81.585)" fill="none" stroke="#263238" stroke-miterlimit="10" stroke-width="0.25"/>
            <rect id="Rectángulo_49753" data-name="Rectángulo 49753" width="1.443" height="1.706" transform="translate(52.968 80.731)" fill="#fff"/>
            <rect id="Rectángulo_49754" data-name="Rectángulo 49754" width="1.443" height="1.706" transform="translate(52.968 80.731)" fill="none" stroke="#263238" stroke-miterlimit="10" stroke-width="0.25"/>
            <rect id="Rectángulo_49755" data-name="Rectángulo 49755" width="1.443" height="1.706" transform="translate(102.323 80.731)" fill="#fff"/>
            <rect id="Rectángulo_49756" data-name="Rectángulo 49756" width="1.443" height="1.706" transform="translate(102.323 80.731)" fill="none" stroke="#263238" stroke-miterlimit="10" stroke-width="0.25"/>
            <rect id="Rectángulo_49757" data-name="Rectángulo 49757" width="1.443" height="1.706" transform="translate(52.968 93.509)" fill="#fff"/>
            <rect id="Rectángulo_49758" data-name="Rectángulo 49758" width="1.443" height="1.706" transform="translate(52.968 93.509)" fill="none" stroke="#263238" stroke-miterlimit="10" stroke-width="0.25"/>
            <rect id="Rectángulo_49759" data-name="Rectángulo 49759" width="1.443" height="1.706" transform="translate(52.968 106.287)" fill="#fff"/>
            <rect id="Rectángulo_49760" data-name="Rectángulo 49760" width="1.443" height="1.706" transform="translate(52.968 106.287)" fill="none" stroke="#263238" stroke-miterlimit="10" stroke-width="0.25"/>
            <rect id="Rectángulo_49761" data-name="Rectángulo 49761" width="1.443" height="1.706" transform="translate(102.323 106.287)" fill="#fff"/>
            <rect id="Rectángulo_49762" data-name="Rectángulo 49762" width="1.443" height="1.706" transform="translate(102.323 106.287)" fill="none" stroke="#263238" stroke-miterlimit="10" stroke-width="0.25"/>
            <rect id="Rectángulo_49763" data-name="Rectángulo 49763" width="1.443" height="1.706" transform="translate(151.678 80.731)" fill="#fff"/>
            <rect id="Rectángulo_49764" data-name="Rectángulo 49764" width="1.443" height="1.706" transform="translate(151.678 80.731)" fill="none" stroke="#263238" stroke-miterlimit="10" stroke-width="0.25"/>
            <rect id="Rectángulo_49765" data-name="Rectángulo 49765" width="1.443" height="1.706" transform="translate(151.678 93.509)" fill="#fff"/>
            <rect id="Rectángulo_49766" data-name="Rectángulo 49766" width="1.443" height="1.706" transform="translate(151.678 93.509)" fill="none" stroke="#263238" stroke-miterlimit="10" stroke-width="0.25"/>
            <rect id="Rectángulo_49767" data-name="Rectángulo 49767" width="1.443" height="1.706" transform="translate(151.678 106.287)" fill="#fff"/>
            <rect id="Rectángulo_49768" data-name="Rectángulo 49768" width="1.443" height="1.706" transform="translate(151.678 106.287)" fill="none" stroke="#263238" stroke-miterlimit="10" stroke-width="0.25"/>
            <rect id="Rectángulo_49769" data-name="Rectángulo 49769" width="97.436" height="78.556" transform="translate(178.425 88.025)" fill="#4dd0e1"/>
            <g id="Grupo_114554" data-name="Grupo 114554" transform="translate(219.288 120.618)" opacity="0.1">
              <g id="Grupo_114553" data-name="Grupo 114553">
                <g id="Grupo_114552" data-name="Grupo 114552" clip-path="url(#clip-path-5)">
                  <path id="Trazado_226461" data-name="Trazado 226461" d="M282.489,157.019h56.574l-28.287-25.574Z" transform="translate(-282.489 -131.446)"/>
                </g>
              </g>
            </g>
            <path id="Trazado_226462" data-name="Trazado 226462" d="M254.528,157.82h46.707l-23.353-16.653Z" transform="translate(-56.946 -11.629)" fill="#4dd0e1"/>
            <g id="Grupo_114557" data-name="Grupo 114557" transform="translate(197.582 129.538)" opacity="0.2">
              <g id="Grupo_114556" data-name="Grupo 114556">
                <g id="Grupo_114555" data-name="Grupo 114555" clip-path="url(#clip-path-6)">
                  <path id="Trazado_226463" data-name="Trazado 226463" d="M254.528,157.82h46.707l-23.353-16.653Z" transform="translate(-254.528 -141.167)"/>
                </g>
              </g>
            </g>
            <rect id="Rectángulo_49772" data-name="Rectángulo 49772" width="97.436" height="20.389" transform="translate(178.425 146.192)" fill="#4dd0e1"/>
            <g id="Grupo_114560" data-name="Grupo 114560" transform="translate(178.425 146.191)" opacity="0.2">
              <g id="Grupo_114559" data-name="Grupo 114559">
                <g id="Grupo_114558" data-name="Grupo 114558" clip-path="url(#clip-path-7)">
                  <rect id="Rectángulo_49773" data-name="Rectángulo 49773" width="97.436" height="20.389" transform="translate(0 0.001)"/>
                </g>
              </g>
            </g>
            <g id="Grupo_114563" data-name="Grupo 114563" transform="translate(192.35 110.038)" opacity="0.1">
              <g id="Grupo_114562" data-name="Grupo 114562">
                <g id="Grupo_114561" data-name="Grupo 114561" clip-path="url(#clip-path-8)">
                  <path id="Trazado_226464" data-name="Trazado 226464" d="M258.556,126.282c0,3.515-2.411,6.365-5.385,6.365s-5.384-2.849-5.384-6.365,2.41-6.366,5.384-6.366,5.385,2.85,5.385,6.366" transform="translate(-247.787 -119.917)"/>
                </g>
              </g>
            </g>
            <rect id="Rectángulo_49776" data-name="Rectángulo 49776" width="106.298" height="89.028" transform="translate(173.994 82.789)" fill="none" stroke="#263238" stroke-miterlimit="10" stroke-width="0.25"/>
            <rect id="Rectángulo_49777" data-name="Rectángulo 49777" width="3.479" height="4.113" transform="translate(172.254 80.731)" fill="#fff"/>
            <rect id="Rectángulo_49778" data-name="Rectángulo 49778" width="3.479" height="4.113" transform="translate(172.254 80.731)" fill="none" stroke="#263238" stroke-miterlimit="10" stroke-width="0.25"/>
            <rect id="Rectángulo_49779" data-name="Rectángulo 49779" width="3.479" height="4.113" transform="translate(225.403 80.731)" fill="#fff"/>
            <rect id="Rectángulo_49780" data-name="Rectángulo 49780" width="3.479" height="4.113" transform="translate(225.403 80.731)" fill="none" stroke="#263238" stroke-miterlimit="10" stroke-width="0.25"/>
            <rect id="Rectángulo_49781" data-name="Rectángulo 49781" width="3.479" height="4.113" transform="translate(278.553 80.731)" fill="#fff"/>
            <rect id="Rectángulo_49782" data-name="Rectángulo 49782" width="3.479" height="4.113" transform="translate(278.553 80.731)" fill="none" stroke="#263238" stroke-miterlimit="10" stroke-width="0.25"/>
            <rect id="Rectángulo_49783" data-name="Rectángulo 49783" width="3.479" height="4.113" transform="translate(172.254 125.246)" fill="#fff"/>
            <rect id="Rectángulo_49784" data-name="Rectángulo 49784" width="3.479" height="4.113" transform="translate(172.254 125.246)" fill="none" stroke="#263238" stroke-miterlimit="10" stroke-width="0.25"/>
            <rect id="Rectángulo_49785" data-name="Rectángulo 49785" width="3.479" height="4.113" transform="translate(278.553 125.246)" fill="#fff"/>
            <rect id="Rectángulo_49786" data-name="Rectángulo 49786" width="3.479" height="4.113" transform="translate(278.553 125.246)" fill="none" stroke="#263238" stroke-miterlimit="10" stroke-width="0.25"/>
            <rect id="Rectángulo_49787" data-name="Rectángulo 49787" width="3.479" height="4.113" transform="translate(172.254 169.761)" fill="#fff"/>
            <rect id="Rectángulo_49788" data-name="Rectángulo 49788" width="3.479" height="4.113" transform="translate(172.254 169.761)" fill="none" stroke="#263238" stroke-miterlimit="10" stroke-width="0.25"/>
            <rect id="Rectángulo_49789" data-name="Rectángulo 49789" width="3.479" height="4.113" transform="translate(225.403 169.761)" fill="#fff"/>
            <rect id="Rectángulo_49790" data-name="Rectángulo 49790" width="3.479" height="4.113" transform="translate(225.403 169.761)" fill="none" stroke="#263238" stroke-miterlimit="10" stroke-width="0.25"/>
            <rect id="Rectángulo_49791" data-name="Rectángulo 49791" width="3.479" height="4.113" transform="translate(278.553 169.761)" fill="#fff"/>
            <rect id="Rectángulo_49792" data-name="Rectángulo 49792" width="3.479" height="4.113" transform="translate(278.553 169.761)" fill="none" stroke="#263238" stroke-miterlimit="10" stroke-width="0.25"/>
            <rect id="Rectángulo_49793" data-name="Rectángulo 49793" width="25.57" height="30.225" transform="translate(178.425 182.483)" fill="#4dd0e1"/>
            <g id="Grupo_114566" data-name="Grupo 114566" transform="translate(182.499 187.402)" opacity="0.1">
              <g id="Grupo_114565" data-name="Grupo 114565">
                <g id="Grupo_114564" data-name="Grupo 114564" clip-path="url(#clip-path-9)">
                  <path id="Trazado_226465" data-name="Trazado 226465" d="M235.142,206.518c-.322,2.008,1.14,3.736,2.838,3.355a2.656,2.656,0,0,0,1.894-2.239c.322-2.008-1.14-3.736-2.838-3.355a2.657,2.657,0,0,0-1.894,2.239" transform="translate(-235.097 -204.226)"/>
                </g>
              </g>
            </g>
            <g id="Grupo_114569" data-name="Grupo 114569" transform="translate(185.515 192.614)" opacity="0.1">
              <g id="Grupo_114568" data-name="Grupo 114568">
                <g id="Grupo_114567" data-name="Grupo 114567" clip-path="url(#clip-path-10)">
                  <path id="Trazado_226466" data-name="Trazado 226466" d="M238.982,222.154h18.479l-9.24-12.247Z" transform="translate(-238.982 -209.906)"/>
                </g>
              </g>
            </g>
            <path id="Trazado_226467" data-name="Trazado 226467" d="M229.849,222.538h15.257l-7.628-7.976Z" transform="translate(-51.424 -17.676)" fill="#4dd0e1"/>
            <g id="Grupo_114572" data-name="Grupo 114572" transform="translate(178.425 196.886)" opacity="0.2">
              <g id="Grupo_114571" data-name="Grupo 114571">
                <g id="Grupo_114570" data-name="Grupo 114570" clip-path="url(#clip-path-11)">
                  <path id="Trazado_226468" data-name="Trazado 226468" d="M229.849,222.538h15.257l-7.628-7.976Z" transform="translate(-229.849 -214.562)"/>
                </g>
              </g>
            </g>
            <rect id="Rectángulo_49797" data-name="Rectángulo 49797" width="25.57" height="7.845" transform="translate(178.425 204.862)" fill="#4dd0e1"/>
            <g id="Grupo_114575" data-name="Grupo 114575" transform="translate(178.425 204.862)" opacity="0.2">
              <g id="Grupo_114574" data-name="Grupo 114574">
                <g id="Grupo_114573" data-name="Grupo 114573" clip-path="url(#clip-path-12)">
                  <rect id="Rectángulo_49798" data-name="Rectángulo 49798" width="25.57" height="7.845"/>
                </g>
              </g>
            </g>
            <path id="Trazado_226469" data-name="Trazado 226469" d="M276.139,230.3v1.376H277.3" transform="translate(-61.781 -18.972)" fill="none" stroke="#263238" stroke-miterlimit="10" stroke-width="0.25"/>
            <line id="Línea_2062" data-name="Línea 2062" x2="20.071" transform="translate(217.636 212.707)" fill="none" stroke="#263238" stroke-miterlimit="10" stroke-width="0.25" stroke-dasharray="2.722 2.722"/>
            <path id="Trazado_226470" data-name="Trazado 226470" d="M307.577,231.679h1.164V230.3" transform="translate(-68.814 -18.972)" fill="none" stroke="#263238" stroke-miterlimit="10" stroke-width="0.25"/>
            <line id="Línea_2063" data-name="Línea 2063" y1="23.726" transform="translate(239.928 185.107)" fill="none" stroke="#263238" stroke-miterlimit="10" stroke-width="0.25" stroke-dasharray="2.722 2.722"/>
            <path id="Trazado_226471" data-name="Trazado 226471" d="M308.742,200.241v-1.376h-1.164" transform="translate(-68.814 -16.382)" fill="none" stroke="#263238" stroke-miterlimit="10" stroke-width="0.25"/>
            <line id="Línea_2064" data-name="Línea 2064" x1="20.071" transform="translate(216.579 182.482)" fill="none" stroke="#263238" stroke-miterlimit="10" stroke-width="0.25" stroke-dasharray="2.722 2.722"/>
            <path id="Trazado_226472" data-name="Trazado 226472" d="M277.3,198.864h-1.164v1.376" transform="translate(-61.781 -16.382)" fill="none" stroke="#263238" stroke-miterlimit="10" stroke-width="0.25"/>
            <line id="Línea_2065" data-name="Línea 2065" y2="23.726" transform="translate(214.358 186.356)" fill="none" stroke="#263238" stroke-miterlimit="10" stroke-width="0.25" stroke-dasharray="2.722 2.722"/>
            <rect id="Rectángulo_49800" data-name="Rectángulo 49800" width="1.258" height="13.783" transform="translate(226.514 190.704)" fill="#263238"/>
            <rect id="Rectángulo_49801" data-name="Rectángulo 49801" width="11.66" height="1.487" transform="translate(221.313 196.852)" fill="#263238"/>
            <rect id="Rectángulo_49802" data-name="Rectángulo 49802" width="25.569" height="30.225" transform="translate(250.292 182.483)" fill="#4dd0e1"/>
            <g id="Grupo_114578" data-name="Grupo 114578" transform="translate(254.366 187.402)" opacity="0.1">
              <g id="Grupo_114577" data-name="Grupo 114577">
                <g id="Grupo_114576" data-name="Grupo 114576" clip-path="url(#clip-path-9)">
                  <path id="Trazado_226473" data-name="Trazado 226473" d="M327.722,206.518c-.322,2.008,1.14,3.736,2.838,3.355a2.656,2.656,0,0,0,1.894-2.239c.322-2.008-1.14-3.736-2.838-3.355a2.657,2.657,0,0,0-1.894,2.239" transform="translate(-327.677 -204.226)"/>
                </g>
              </g>
            </g>
            <g id="Grupo_114581" data-name="Grupo 114581" transform="translate(257.382 192.614)" opacity="0.1">
              <g id="Grupo_114580" data-name="Grupo 114580">
                <g id="Grupo_114579" data-name="Grupo 114579" clip-path="url(#clip-path-14)">
                  <path id="Trazado_226474" data-name="Trazado 226474" d="M331.562,222.154h18.479l-9.24-12.247Z" transform="translate(-331.562 -209.906)"/>
                </g>
              </g>
            </g>
            <path id="Trazado_226475" data-name="Trazado 226475" d="M322.429,222.538h15.257l-7.628-7.976Z" transform="translate(-72.137 -17.676)" fill="#4dd0e1"/>
            <g id="Grupo_114584" data-name="Grupo 114584" transform="translate(250.292 196.886)" opacity="0.2">
              <g id="Grupo_114583" data-name="Grupo 114583">
                <g id="Grupo_114582" data-name="Grupo 114582" clip-path="url(#clip-path-11)">
                  <path id="Trazado_226476" data-name="Trazado 226476" d="M322.429,222.538h15.257l-7.628-7.976Z" transform="translate(-322.429 -214.562)"/>
                </g>
              </g>
            </g>
            <rect id="Rectángulo_49806" data-name="Rectángulo 49806" width="25.569" height="7.845" transform="translate(250.292 204.862)" fill="#4dd0e1"/>
            <g id="Grupo_114587" data-name="Grupo 114587" transform="translate(250.292 204.862)" opacity="0.2">
              <g id="Grupo_114586" data-name="Grupo 114586">
                <g id="Grupo_114585" data-name="Grupo 114585" clip-path="url(#clip-path-16)">
                  <rect id="Rectángulo_49807" data-name="Rectángulo 49807" width="25.569" height="7.845" transform="translate(0)"/>
                </g>
              </g>
            </g>
            <rect id="Rectángulo_49809" data-name="Rectángulo 49809" width="5.661" height="1.076" transform="translate(45.541 50.361)" fill="#ebebeb"/>
            <rect id="Rectángulo_49810" data-name="Rectángulo 49810" width="5.661" height="1.076" transform="translate(45.541 55.183)" fill="#ebebeb"/>
            <rect id="Rectángulo_49811" data-name="Rectángulo 49811" width="5.661" height="1.076" transform="translate(45.541 52.8)" fill="#ebebeb"/>
            <rect id="Rectángulo_49812" data-name="Rectángulo 49812" width="33.769" height="2.383" transform="translate(116.75 52.8)" fill="#ebebeb"/>
            <rect id="Rectángulo_49813" data-name="Rectángulo 49813" width="33.769" height="2.383" transform="translate(163.063 52.8)" fill="#ebebeb"/>
            <rect id="Rectángulo_49814" data-name="Rectángulo 49814" width="33.769" height="2.383" transform="translate(209.376 52.8)" fill="#4dd0e1"/>
            <rect id="Rectángulo_49815" data-name="Rectángulo 49815" width="33.769" height="2.383" transform="translate(255.688 52.8)" fill="#ebebeb"/>
          </g>
        </g>
        <g id="Grupo_114591" data-name="Grupo 114591">
          <g id="Grupo_114590" data-name="Grupo 114590" clip-path="url(#clip-path)">
            <path id="Trazado_226477" data-name="Trazado 226477" d="M369.447,48.961c0,9.84,6.769,17.842,15.087,17.842s15.1-8,15.1-17.842-6.769-17.846-15.1-17.846-15.087,8.006-15.087,17.846m3.212,0c0-7.761,5.316-14.049,11.875-14.049s11.889,6.288,11.889,14.049-5.317,14.045-11.889,14.045S372.66,56.719,372.66,48.961m-3.212,0c0,9.84,6.769,17.842,15.087,17.842s15.1-8,15.1-17.842-6.769-17.846-15.1-17.846-15.087,8.006-15.087,17.846m3.212,0c0-7.761,5.316-14.049,11.875-14.049s11.889,6.288,11.889,14.049-5.317,14.045-11.889,14.045S372.66,56.719,372.66,48.961m-13.565,0c0,16.61,11.394,30.075,25.439,30.075s25.449-13.465,25.449-30.075-11.393-30.082-25.449-30.082-25.439,13.469-25.439,30.082m8.9,0c0-10.78,7.42-19.558,16.536-19.558s16.549,8.778,16.549,19.558-7.426,19.554-16.549,19.554S368,59.745,368,48.961m1.449,0c0,9.84,6.769,17.842,15.087,17.842s15.1-8,15.1-17.842-6.769-17.846-15.1-17.846-15.087,8.006-15.087,17.846m3.212,0c0-7.761,5.316-14.049,11.875-14.049s11.889,6.288,11.889,14.049-5.317,14.045-11.889,14.045S372.66,56.719,372.66,48.961" transform="translate(-80.34 -1.555)" fill="#a6a6a6"/>
            <path id="Trazado_226478" data-name="Trazado 226478" d="M388.024,18.857h5.826l-.58-6.874H388.6Z" transform="translate(-86.813 -0.987)" fill="#a6a6a6"/>
            <path id="Trazado_226479" data-name="Trazado 226479" d="M404.633,21.358l5.046,3.444,2.4-6.3-4.04-2.757Z" transform="translate(-90.529 -1.297)" fill="#a6a6a6"/>
            <path id="Trazado_226480" data-name="Trazado 226480" d="M417.823,31.978l2.913,5.965,4.746-4.031-2.333-4.776Z" transform="translate(-93.48 -2.4)" fill="#a6a6a6"/>
            <path id="Trazado_226481" data-name="Trazado 226481" d="M424.059,47.811V54.7l5.815-.685V48.5Z" transform="translate(-94.875 -3.939)" fill="#a6a6a6"/>
            <path id="Trazado_226482" data-name="Trazado 226482" d="M420.832,64.419l-2.913,5.965,5.327,2.843,2.333-4.776Z" transform="translate(-93.501 -5.307)" fill="#a6a6a6"/>
            <path id="Trazado_226483" data-name="Trazado 226483" d="M409.846,77.609,404.8,81.053l3.41,5.61,4.04-2.758Z" transform="translate(-90.566 -6.393)" fill="#a6a6a6"/>
            <path id="Trazado_226484" data-name="Trazado 226484" d="M394.044,83.846h-5.826l.58,6.874h4.666Z" transform="translate(-86.856 -6.907)" fill="#a6a6a6"/>
            <path id="Trazado_226485" data-name="Trazado 226485" d="M376.967,81.15l-5.046-3.444-2.4,6.3,4.04,2.757Z" transform="translate(-82.672 -6.401)" fill="#a6a6a6"/>
            <path id="Trazado_226486" data-name="Trazado 226486" d="M363.717,70.552,360.8,64.587l-4.746,4.031,2.333,4.776Z" transform="translate(-79.661 -5.321)" fill="#a6a6a6"/>
            <path id="Trazado_226487" data-name="Trazado 226487" d="M358.012,54.892V48l-5.815.685v5.516Z" transform="translate(-78.797 -3.955)" fill="#a6a6a6"/>
            <path id="Trazado_226488" data-name="Trazado 226488" d="M360.707,38.11l2.913-5.965L358.294,29.3l-2.333,4.776Z" transform="translate(-79.639 -2.414)" fill="#a6a6a6"/>
            <path id="Trazado_226489" data-name="Trazado 226489" d="M371.754,24.9l5.046-3.444-3.41-5.609L369.348,18.6Z" transform="translate(-82.634 -1.305)" fill="#a6a6a6"/>
            <path id="Trazado_226490" data-name="Trazado 226490" d="M313.5,21.526c-.216,9.663,6.238,17.705,14.412,17.961s14.981-7.374,15.2-17.037S336.876,4.74,328.7,4.484,313.72,11.858,313.5,21.526m7.891.246c.1-4.517,3.277-8.078,7.094-7.959s6.834,3.873,6.733,8.39-3.277,8.074-7.1,7.955-6.83-3.873-6.729-8.386" transform="translate(-70.139 -0.369)" fill="#455a64"/>
            <path id="Trazado_226491" data-name="Trazado 226491" d="M329.393,4.754l5.693.178L334.877.159,329.814,0Z" transform="translate(-73.695 0)" fill="#455a64"/>
            <path id="Trazado_226492" data-name="Trazado 226492" d="M343.287,7.75l3.919,4.885,2.708-3.55-3.485-4.344Z" transform="translate(-76.804 -0.391)" fill="#455a64"/>
            <path id="Trazado_226493" data-name="Trazado 226493" d="M351.06,19.852l-.151,6.73,4.039-.247.134-5.985Z" transform="translate(-78.509 -1.635)" fill="#455a64"/>
            <path id="Trazado_226494" data-name="Trazado 226494" d="M347.073,33.746l-4.132,4.633,3,3.2,3.675-4.12Z" transform="translate(-76.726 -2.78)" fill="#455a64"/>
            <path id="Trazado_226495" data-name="Trazado 226495" d="M334.791,41.547l-5.693-.178.209,4.773,5.064.159Z" transform="translate(-73.629 -3.408)" fill="#455a64"/>
            <path id="Trazado_226496" data-name="Trazado 226496" d="M320.628,38.285,316.709,33.4,314,36.95l3.485,4.344Z" transform="translate(-70.252 -2.751)" fill="#455a64"/>
            <path id="Trazado_226497" data-name="Trazado 226497" d="M313.563,26.287l.151-6.73-4.038.247-.134,5.985Z" transform="translate(-69.254 -1.611)" fill="#455a64"/>
            <path id="Trazado_226498" data-name="Trazado 226498" d="M316.827,12.294l4.132-4.633-3-3.2-3.675,4.12Z" transform="translate(-70.314 -0.367)" fill="#455a64"/>
            <path id="Trazado_226499" data-name="Trazado 226499" d="M335.187,18.73l-4.855-1.7-3.673,4.123,1.182,5.816,4.85,1.7,3.676-4.118Zm-3.715,6.015A1.785,1.785,0,0,1,329.91,22.8a1.751,1.751,0,0,1,1.646-1.846,1.791,1.791,0,0,1,1.563,1.946,1.751,1.751,0,0,1-1.647,1.847" transform="translate(-73.084 -1.403)" fill="#455a64"/>
            <path id="Trazado_226500" data-name="Trazado 226500" d="M3.963,169.519c-.216,9.663,6.238,17.705,14.412,17.961s14.981-7.374,15.2-17.037-6.238-17.71-14.415-17.965S4.179,159.851,3.963,169.519m7.891.246c.1-4.517,3.277-8.078,7.094-7.959s6.834,3.873,6.733,8.39-3.277,8.074-7.1,7.955-6.83-3.872-6.729-8.386" transform="translate(-0.886 -12.561)" fill="#4dd0e1"/>
            <path id="Trazado_226501" data-name="Trazado 226501" d="M19.852,152.747l5.693.178-.209-4.773-5.064-.159Z" transform="translate(-4.441 -12.192)" fill="#4dd0e1"/>
            <path id="Trazado_226502" data-name="Trazado 226502" d="M33.745,155.743l3.919,4.885,2.708-3.55-3.485-4.344Z" transform="translate(-7.55 -12.582)" fill="#4dd0e1"/>
            <path id="Trazado_226503" data-name="Trazado 226503" d="M41.519,167.845l-.15,6.73,4.037-.247.134-5.985Z" transform="translate(-9.255 -13.827)" fill="#4dd0e1"/>
            <path id="Trazado_226504" data-name="Trazado 226504" d="M37.532,181.738,33.4,186.371l3,3.2,3.675-4.12Z" transform="translate(-7.472 -14.972)" fill="#4dd0e1"/>
            <path id="Trazado_226505" data-name="Trazado 226505" d="M25.25,189.539l-5.693-.178.209,4.773,5.064.159Z" transform="translate(-4.375 -15.599)" fill="#4dd0e1"/>
            <path id="Trazado_226506" data-name="Trazado 226506" d="M11.087,186.277l-3.919-4.884-2.708,3.55,3.485,4.344Z" transform="translate(-0.998 -14.943)" fill="#4dd0e1"/>
            <path id="Trazado_226507" data-name="Trazado 226507" d="M4.021,174.279l.15-6.73L.134,167.8,0,173.782Z" transform="translate(0 -13.803)" fill="#4dd0e1"/>
            <path id="Trazado_226508" data-name="Trazado 226508" d="M7.286,160.287l4.132-4.633-3-3.2-3.675,4.12Z" transform="translate(-1.06 -12.559)" fill="#4dd0e1"/>
            <path id="Trazado_226509" data-name="Trazado 226509" d="M25.646,166.722l-4.855-1.7-3.673,4.123,1.182,5.816,4.85,1.7,3.676-4.117Zm-3.715,6.015a1.785,1.785,0,0,1-1.562-1.947,1.751,1.751,0,0,1,1.646-1.846,1.791,1.791,0,0,1,1.563,1.947,1.751,1.751,0,0,1-1.647,1.846" transform="translate(-3.83 -13.594)" fill="#4dd0e1"/>
          </g>
        </g>
        <rect id="Rectángulo_49818" data-name="Rectángulo 49818" width="115" height="86.006" transform="translate(213.387 230.454)" fill="#fff"/>
        <rect id="Rectángulo_49819" data-name="Rectángulo 49819" width="114.128" height="84.975" transform="translate(213.822 230.97)" fill="#fff"/>
        <g id="Grupo_114593" data-name="Grupo 114593">
          <g id="Grupo_114592" data-name="Grupo 114592" clip-path="url(#clip-path)">
            <path id="Trazado_226510" data-name="Trazado 226510" d="M275.425,336.66l114.128-.14c-.241.924-.15-85.059-.193-84.834l.193.228-114.128-.134c.1-.631.018,85.037,0,84.88m0,0c-.021-.08-.065-84.993-.08-85.069-.007-.033,114.185-.111,114.208-.135h.194v.229c0,.141-.074,84.985-.074,85.115-.057.106-114.166-.217-114.247-.14" transform="translate(-61.603 -20.715)" fill="#263238"/>
            <rect id="Rectángulo_49820" data-name="Rectángulo 49820" width="114.128" height="9.117" transform="translate(213.822 230.97)" fill="#263238"/>
            <rect id="Rectángulo_49821" data-name="Rectángulo 49821" width="4.447" height="1.921" transform="translate(222.31 259.849)" fill="#ebebeb"/>
            <rect id="Rectángulo_49822" data-name="Rectángulo 49822" width="51.016" height="1.921" transform="translate(229.999 259.849)" fill="#ebebeb"/>
            <rect id="Rectángulo_49823" data-name="Rectángulo 49823" width="8.447" height="1.921" transform="translate(283.748 259.849)" fill="#4dd0e1"/>
            <rect id="Rectángulo_49824" data-name="Rectángulo 49824" width="14.603" height="1.921" transform="translate(294.032 259.849)" fill="#a6a6a6"/>
            <rect id="Rectángulo_49825" data-name="Rectángulo 49825" width="4.447" height="1.921" transform="translate(226.758 264.989)" fill="#ebebeb"/>
            <rect id="Rectángulo_49826" data-name="Rectángulo 49826" width="33.48" height="1.921" transform="translate(234.335 264.989)" fill="#a6a6a6"/>
            <rect id="Rectángulo_49827" data-name="Rectángulo 49827" width="31.978" height="1.921" transform="translate(229.999 280.407)" fill="#a6a6a6"/>
            <rect id="Rectángulo_49828" data-name="Rectángulo 49828" width="22.434" height="1.921" transform="translate(234.335 270.128)" fill="#4dd0e1"/>
            <rect id="Rectángulo_49829" data-name="Rectángulo 49829" width="8.557" height="1.921" transform="translate(289.397 275.268)" fill="#a6a6a6"/>
            <rect id="Rectángulo_49830" data-name="Rectángulo 49830" width="35.826" height="1.921" transform="translate(259.258 270.128)" fill="#a6a6a6"/>
            <rect id="Rectángulo_49831" data-name="Rectángulo 49831" width="42.764" height="1.921" transform="translate(229.999 285.547)" fill="#4dd0e1"/>
            <rect id="Rectángulo_49832" data-name="Rectángulo 49832" width="23.176" height="1.921" transform="translate(293.09 264.989)" fill="#4dd0e1"/>
            <rect id="Rectángulo_49833" data-name="Rectángulo 49833" width="21.337" height="1.921" transform="translate(269.916 264.989)" fill="#ebebeb"/>
            <rect id="Rectángulo_49834" data-name="Rectángulo 49834" width="14.398" height="1.921" transform="translate(296.767 270.128)" fill="#ebebeb"/>
            <rect id="Rectángulo_49835" data-name="Rectángulo 49835" width="4.447" height="1.921" transform="translate(226.758 270.128)" fill="#ebebeb"/>
            <rect id="Rectángulo_49836" data-name="Rectángulo 49836" width="4.447" height="1.921" transform="translate(222.31 275.268)" fill="#a6a6a6"/>
            <rect id="Rectángulo_49837" data-name="Rectángulo 49837" width="26.285" height="1.921" transform="translate(229.999 275.268)" fill="#ebebeb"/>
            <rect id="Rectángulo_49838" data-name="Rectángulo 49838" width="28.408" height="1.921" transform="translate(263.787 280.407)" fill="#ebebeb"/>
            <rect id="Rectángulo_49839" data-name="Rectángulo 49839" width="18.075" height="1.921" transform="translate(294.032 280.407)" fill="#4dd0e1"/>
            <rect id="Rectángulo_49840" data-name="Rectángulo 49840" width="28.374" height="1.921" transform="translate(258.955 275.268)" fill="#4dd0e1"/>
            <rect id="Rectángulo_49841" data-name="Rectángulo 49841" width="4.447" height="1.921" transform="translate(222.31 280.407)" fill="#ebebeb"/>
            <rect id="Rectángulo_49842" data-name="Rectángulo 49842" width="4.447" height="1.921" transform="translate(222.31 285.547)" fill="#ebebeb"/>
            <path id="Trazado_226511" data-name="Trazado 226511" d="M289.235,277.286a.517.517,0,0,1,0,.65.359.359,0,0,1-.269.129.375.375,0,0,1-.28-.129l-1.716-2.056c-.019-.007-.025-.022-.03-.044a.09.09,0,0,0-.019-.015.2.2,0,0,1-.019-.058.037.037,0,0,1-.019-.028c-.005-.015-.005-.036-.012-.043s-.012-.028-.012-.036v-.05c0-.015-.006-.022-.006-.043s.006-.029.006-.037v-.05c0-.015.012-.021.012-.029s.006-.036.012-.058c0-.006.006-.006.006-.014a.549.549,0,0,1,.031-.065s0-.015.012-.015a.129.129,0,0,1,.036-.05l1.716-2.056a.354.354,0,0,1,.549,0,.517.517,0,0,1,0,.65l-1.446,1.725Z" transform="translate(-64.178 -22.494)" fill="#4dd0e1"/>
            <path id="Trazado_226512" data-name="Trazado 226512" d="M291.916,277.519l1.5-4.207a.32.32,0,0,1,.445-.209.419.419,0,0,1,.172.512l-1.5,4.215a.341.341,0,0,1-.311.239.247.247,0,0,1-.122-.029.417.417,0,0,1-.183-.519" transform="translate(-65.304 -22.495)" fill="#4dd0e1"/>
            <path id="Trazado_226513" data-name="Trazado 226513" d="M297.75,275.821s0,.007-.006.007a.315.315,0,0,1-.043.05l-1.715,2.056a.354.354,0,0,1-.549,0,.514.514,0,0,1,0-.649l1.445-1.725-1.445-1.724a.515.515,0,0,1,0-.65.354.354,0,0,1,.549,0l1.715,2.056a.314.314,0,0,1,.043.05c.006,0,.006.015.006.015.012.028.024.043.03.065,0,.006.006.006.006.014a.42.42,0,0,0,.018.065c0,.007.006.007.006.022v.05c0,.006.006.028.006.036s-.006.028-.006.036v.058c0,.007-.006.007-.006.015-.012.028-.012.05-.018.065s-.006.007-.006.021-.019.037-.03.065" transform="translate(-66.072 -22.494)" fill="#4dd0e1"/>
            <path id="Trazado_226514" data-name="Trazado 226514" d="M282.356,256.43a1.422,1.422,0,1,1-1.4-1.657,1.547,1.547,0,0,1,1.4,1.657" transform="translate(-62.544 -20.988)" fill="#4dd0e1"/>
            <path id="Trazado_226515" data-name="Trazado 226515" d="M289.73,256.43a1.422,1.422,0,1,1-1.4-1.657,1.546,1.546,0,0,1,1.4,1.657" transform="translate(-64.194 -20.988)" fill="#fff"/>
            <path id="Trazado_226516" data-name="Trazado 226516" d="M297.1,256.43a1.422,1.422,0,1,1-1.4-1.657,1.546,1.546,0,0,1,1.4,1.657" transform="translate(-65.844 -20.988)" fill="#455a64"/>
          </g>
        </g>
        <g id="Grupo_114595" data-name="Grupo 114595">
          <g id="Grupo_114594" data-name="Grupo 114594" clip-path="url(#clip-path)">
            <path id="Trazado_226517" data-name="Trazado 226517" d="M163.491,183.175a14.113,14.113,0,0,1-1.8-6.888c0-8.726,8.106-15.8,18.1-15.8s18.091,7.074,18.091,15.8-8.1,15.8-18.091,15.8a19.442,19.442,0,0,1-12.483-4.372l-6.234,1.873Z" transform="translate(-36.036 -13.221)" fill="#fffefd"/>
            <path id="Trazado_226518" data-name="Trazado 226518" d="M163.443,183.142c-3.751-6.231-1.56-14.256,3.517-18.4a19.657,19.657,0,0,1,11.079-4.595,20.33,20.33,0,0,1,11.605,2.43c5.425,2.81,10.064,9.856,8.139,17.1-4.085,13.9-21.457,16.023-30.632,8.169l.146.032-6.254,1.777-.19.054.082-.206Zm0,0-2.337,6.46L161,189.45l6.213-1.971a20.186,20.186,0,0,0,22.312,1.609c5.09-2.761,9.4-9.426,7.467-16.227-3.421-11.187-15.876-14-24.588-10.7-7.652,2.652-13.8,11.91-8.959,20.981" transform="translate(-35.988 -13.187)" fill="#263238"/>
            <path id="Trazado_226519" data-name="Trazado 226519" d="M176.228,181.41a1.28,1.28,0,0,1,0,1.6.891.891,0,0,1-.663.32.927.927,0,0,1-.694-.32l-4.236-5.079c-.045-.017-.06-.053-.075-.106a.194.194,0,0,0-.045-.036.509.509,0,0,1-.045-.143.1.1,0,0,1-.046-.071c-.015-.036-.015-.09-.029-.107,0-.053-.03-.072-.03-.089v-.125c0-.036-.015-.053-.015-.107,0-.017.015-.071.015-.088v-.125c0-.036.03-.054.03-.072.015-.053.015-.089.029-.142,0-.018.016-.018.016-.036a1.409,1.409,0,0,1,.075-.161s0-.036.03-.036a.324.324,0,0,1,.09-.125l4.236-5.078a.878.878,0,0,1,1.357,0,1.279,1.279,0,0,1,0,1.6l-3.573,4.259Z" transform="translate(-38.112 -14.084)" fill="#4dd0e1"/>
            <path id="Trazado_226520" data-name="Trazado 226520" d="M182.854,181.982l3.693-10.389a.794.794,0,0,1,1.1-.517,1.036,1.036,0,0,1,.422,1.265l-3.693,10.407a.841.841,0,0,1-.769.588.614.614,0,0,1-.3-.072,1.029,1.029,0,0,1-.453-1.283" transform="translate(-40.895 -14.087)" fill="#4dd0e1"/>
            <path id="Trazado_226521" data-name="Trazado 226521" d="M197.263,177.792s0,.018-.015.018a.836.836,0,0,1-.106.125l-4.236,5.078a.877.877,0,0,1-1.357,0,1.28,1.28,0,0,1,0-1.6l3.573-4.259-3.573-4.259a1.28,1.28,0,0,1,0-1.6.878.878,0,0,1,1.357,0l4.236,5.079a.793.793,0,0,1,.106.125c.015,0,.015.035.015.035a1.657,1.657,0,0,1,.075.161c0,.018.016.018.016.036a.919.919,0,0,0,.045.161c0,.017.016.017.016.053v.125c0,.017.015.072.015.089s-.015.072-.015.089v.142c0,.018-.016.018-.016.036-.03.072-.03.125-.045.161,0,.017-.016.017-.016.053s-.045.089-.075.161" transform="translate(-42.792 -14.084)" fill="#4dd0e1"/>
          </g>
        </g>
        <path id="Trazado_226522" data-name="Trazado 226522" d="M96.835,368.691l-50.9,48.52H48.8l58.79-48.52Z" transform="translate(-10.276 -30.373)" fill="#c7c7c7"/>
        <path id="Trazado_226523" data-name="Trazado 226523" d="M110.417,368.691l-25.153,48.52h2.868l30.829-48.52Z" transform="translate(-19.076 -30.373)" fill="#c7c7c7"/>
        <path id="Trazado_226524" data-name="Trazado 226524" d="M122.548,368.691l30.829,48.52h2.868l-25.153-48.52Z" transform="translate(-27.418 -30.373)" fill="#c7c7c7"/>
        <path id="Trazado_226525" data-name="Trazado 226525" d="M125.36,368.691l58.79,48.52h2.868l-50.9-48.52Z" transform="translate(-28.047 -30.373)" fill="#c7c7c7"/>
        <path id="Trazado_226526" data-name="Trazado 226526" d="M193.488,337.256v-14.2l-69.9-3.39L86.662,203.138H2.061L31.994,337.256l71.516,23.731h4.481Z" transform="translate(-0.461 -16.734)" fill="#455a64"/>
        <g id="Grupo_114603" data-name="Grupo 114603">
          <g id="Grupo_114602" data-name="Grupo 114602" clip-path="url(#clip-path)">
            <g id="Grupo_114598" data-name="Grupo 114598" transform="translate(1.6 186.404)" opacity="0.1">
              <g id="Grupo_114597" data-name="Grupo 114597">
                <g id="Grupo_114596" data-name="Grupo 114596" clip-path="url(#clip-path-21)">
                  <path id="Trazado_226527" data-name="Trazado 226527" d="M2.061,203.139h9.679L42.928,325.391,106.2,346.578l87.289-23.518v14.2l-85.5,23.73H103.51l-71.516-23.73Z" transform="translate(-2.061 -203.139)"/>
                </g>
              </g>
            </g>
            <path id="Trazado_226528" data-name="Trazado 226528" d="M55.491,360.946c.46-2.148,28.934-53.913,31.024-55.041.238-.145,15.008,10.491,15.008,10.491.636.866,26.949-8.065,26.949-8.065l2.569,38.076L82.3,349.295s-6.3,5.124-12.085,9.353c-.01,0-.015.01-.021.006a70.691,70.691,0,0,1-7.635,5.2c-2.39.943-7.538-.773-7.066-2.912" transform="translate(-12.408 -25.2)" fill="#f7a9a0"/>
            <path id="Trazado_226529" data-name="Trazado 226529" d="M62.557,363.856a69.155,69.155,0,0,0,7.635-5.2c.008.008.015,0,.023,0C76,354.42,82.3,349.292,82.3,349.292l10.848-.64,15-33.777c-3.675,1.094-6.422,1.795-6.626,1.518,0,0-14.764-10.636-15-10.487-2.09,1.126-30.563,52.889-31.024,55.038s4.675,3.86,7.065,2.913" transform="translate(-12.409 -25.2)" fill="#fff"/>
            <path id="Trazado_226530" data-name="Trazado 226530" d="M55.126,361.035c.488-2.2,29.105-53.952,31.252-55.11.812-.444,7.992,4,15.064,10.472L82.957,349.732s-18.1,13.372-20.573,14.343-7.747-.838-7.259-3.041" transform="translate(-12.326 -25.199)" fill="#4dd0e1"/>
            <path id="Trazado_226531" data-name="Trazado 226531" d="M57.875,361.939c4.977-8.535,24.371-43.517,28.742-52.4.036-.072,0-.1-.046-.035-5.09,8.332-24.243,43.5-28.817,52.344-.1.187.016.273.12.093" transform="translate(-12.913 -25.494)" fill="#263238"/>
            <path id="Trazado_226532" data-name="Trazado 226532" d="M68.355,365.961a9.586,9.586,0,0,0,1.077-6.574,8.242,8.242,0,0,0-2.846-4.966c-.044-.032-.1.062-.057.1a10.913,10.913,0,0,1,1.733,11.365c-.033.073.051.139.092.071" transform="translate(-14.881 -29.197)" fill="#263238"/>
            <path id="Trazado_226533" data-name="Trazado 226533" d="M87.985,354.9c1.961-3.441,3.15-8.267,1.941-12.281-.047-.156-.234-.075-.245.063a66.631,66.631,0,0,1-2.09,12c-.078.284.254.466.394.219" transform="translate(-19.594 -28.218)" fill="#263238"/>
            <path id="Trazado_226534" data-name="Trazado 226534" d="M84.936,357.08c1.961-3.44,3.15-8.267,1.941-12.281-.047-.156-.234-.074-.245.063a66.631,66.631,0,0,1-2.09,12c-.078.284.254.465.394.219" transform="translate(-18.912 -28.397)" fill="#263238"/>
            <path id="Trazado_226535" data-name="Trazado 226535" d="M81.888,359.257c1.961-3.44,3.15-8.267,1.941-12.281-.047-.156-.234-.074-.245.063a66.629,66.629,0,0,1-2.09,12c-.078.284.254.466.394.219" transform="translate(-18.23 -28.577)" fill="#263238"/>
            <path id="Trazado_226536" data-name="Trazado 226536" d="M78.84,361.433c1.961-3.44,3.15-8.267,1.941-12.28-.047-.156-.234-.075-.245.063a66.631,66.631,0,0,1-2.09,12c-.078.284.254.466.394.219" transform="translate(-17.548 -28.756)" fill="#263238"/>
            <path id="Trazado_226537" data-name="Trazado 226537" d="M100.724,317.324c2.145-3.9-2.983-7.849-5.131-3.94s2.982,7.849,5.131,3.94" transform="translate(-21.272 -25.684)" fill="#263238"/>
            <path id="Trazado_226538" data-name="Trazado 226538" d="M94.1,365.356c2.2-.8,2.225-3.949,1.544-6.022a21.766,21.766,0,0,0-5.767-8.96c-.06-.052-.116-.016-.144.044a.436.436,0,0,0-.582.441c.079,3.59-.212,7.439.8,10.893.588,2.016,2.066,4.365,4.151,3.6m-3.887-9.084c-.075-1.765-.077-3.523-.207-5.283,1.12,1.751,2.3,3.436,3.27,5.319a25.011,25.011,0,0,1,1.28,2.8c.553,1.5,1.123,6.81-2.263,4.685-1.868-1.171-1.99-5.418-2.08-7.521" transform="translate(-19.946 -28.862)" fill="#263238"/>
            <path id="Trazado_226539" data-name="Trazado 226539" d="M93.575,339.867c-2.064,2.719-3.061,6.4-4.314,9.672a.5.5,0,0,0,.392.674c.006.068.046.128.118.106a17.979,17.979,0,0,0,8.257-5.608c1.309-1.6,2.324-4.506.557-6.259-1.671-1.659-3.8-.173-5.01,1.415m2.831-.8c3.818-.4,1.55,4.224.546,5.356a20.846,20.846,0,0,1-2.1,1.992,54.169,54.169,0,0,1-4.762,3.4c.7-1.563,1.279-3.181,1.927-4.773.774-1.9,2.282-5.753,4.387-5.976" transform="translate(-19.963 -27.822)" fill="#263238"/>
            <path id="Trazado_226540" data-name="Trazado 226540" d="M131.382,297.783s40.867-22.507,59.152-22.388c21.756.141,38.829,30.539,12.277,52.749-23.469,19.632-97.791,18.775-97.791,18.775l17.169-37a137.958,137.958,0,0,1,47.351-10.761l-37.462,9.292Z" transform="translate(-23.496 -22.687)" fill="#263238"/>
            <path id="Trazado_226541" data-name="Trazado 226541" d="M139.945,306.988c3.208-.99,6.48-1.665,9.738-2.385,3.285-.726,6.585-1.372,9.887-1.982a169.155,169.155,0,0,1,19.889-2.533c.624-.039,1.249-.063,1.873-.09.128-.063.269-.1.4-.153.314-.118.625-.238.943-.339.592-.187,1.19-.341,1.788-.5,1.244-.334,2.5-.6,3.732-.98.074-.024.113.109.037.136-1.239.437-2.449.972-3.69,1.4-.357.124-.715.247-1.074.365,2.448-.055,4.9-.039,7.346.017.077,0,.088.142.009.143-3.326.05-6.665.3-9.977.65-3.29.343-6.577.707-9.852,1.209-6.625,1.012-13.231,2.279-19.808,3.659-3.69.774-7.385,1.634-11.109,2.134-.361.049-.5-.64-.134-.752" transform="translate(-31.262 -24.551)" fill="#37474f"/>
            <path id="Trazado_226542" data-name="Trazado 226542" d="M114.739,348.153c1.054-2.351,1.924-4.838,2.872-7.251s1.9-4.84,2.861-7.257c1.907-4.824,8.814-21.089,9.523-22.246.045-.073.15,0,.13.08-.3,1.239-4.572,11.982-5.56,14.381-1.978,4.8-4.074,9.513-6.136,14.259-.589,1.355-1.2,2.7-1.8,4.045s-1.241,2.678-1.782,4.057c-.033.083-.145.016-.108-.067" transform="translate(-25.669 -25.65)" fill="#37474f"/>
            <path id="Trazado_226543" data-name="Trazado 226543" d="M217.589,359.8c-.546-2.12-31.076-52.22-33.21-53.228-.244-.132-14.567,11.325-14.567,11.325-.6.9-27.243-6.535-27.243-6.535l-1.029,38.177,48.8.136s6.5,4.763,12.448,8.66c.011,0,.015.009.021,0a69.089,69.089,0,0,0,7.837,4.767c2.425.808,7.5-1.2,6.941-3.306" transform="translate(-31.667 -25.255)" fill="#f7a9a0"/>
            <path id="Trazado_226544" data-name="Trazado 226544" d="M216.873,363.11a67.545,67.545,0,0,1-7.836-4.769c-.008.009-.016,0-.023,0-5.948-3.9-12.446-8.666-12.446-8.666l-10.862-.028-16.347-32.892c3.714.885,6.487,1.431,6.679,1.142,0,0,14.318-11.457,14.564-11.321,2.133,1.006,32.662,51.105,33.21,53.225s-4.514,4.12-6.939,3.308" transform="translate(-37.891 -25.256)" fill="#fff"/>
            <path id="Trazado_226545" data-name="Trazado 226545" d="M226.025,359.876c-.577-2.173-31.25-52.249-33.44-53.285-.829-.4-7.821,4.441-14.623,11.31l19.807,32.256s18.623,12.336,21.129,13.167,7.7-1.275,7.128-3.448" transform="translate(-39.815 -25.255)" fill="#4dd0e1"/>
            <path id="Trazado_226546" data-name="Trazado 226546" d="M228.239,360.9c-5.316-8.245-26.1-42.093-30.824-50.721-.039-.071,0-.1.044-.039,5.42,8.036,25.971,42.082,30.9,50.66.1.181,0,.273-.116.1" transform="translate(-44.164 -25.546)" fill="#263238"/>
            <path id="Trazado_226547" data-name="Trazado 226547" d="M225.77,365.285a9.515,9.515,0,0,1-1.342-6.506,8.41,8.41,0,0,1,2.642-5.121c.043-.035.1.057.062.1a10.974,10.974,0,0,0-1.273,11.449c.036.071-.045.142-.089.076" transform="translate(-50.185 -29.134)" fill="#263238"/>
            <path id="Trazado_226548" data-name="Trazado 226548" d="M205.667,355.175c-2.1-3.326-3.48-8.08-2.434-12.158.04-.158.23-.087.248.05a66,66,0,0,0,2.572,11.867c.089.279-.234.48-.385.241" transform="translate(-45.389 -28.25)" fill="#263238"/>
            <path id="Trazado_226549" data-name="Trazado 226549" d="M208.815,357.2c-2.1-3.326-3.48-8.08-2.434-12.158.04-.158.23-.087.247.05a66.062,66.062,0,0,0,2.573,11.867c.088.279-.235.479-.385.241" transform="translate(-46.094 -28.417)" fill="#263238"/>
            <path id="Trazado_226550" data-name="Trazado 226550" d="M211.964,359.233c-2.1-3.326-3.48-8.08-2.434-12.158.04-.158.23-.087.247.05a66.06,66.06,0,0,0,2.573,11.867c.089.279-.235.48-.385.241" transform="translate(-46.798 -28.585)" fill="#263238"/>
            <path id="Trazado_226551" data-name="Trazado 226551" d="M215.113,361.261c-2.1-3.326-3.48-8.08-2.434-12.158.04-.158.23-.087.248.05A65.929,65.929,0,0,0,215.5,361.02c.088.279-.235.48-.386.241" transform="translate(-47.503 -28.752)" fill="#263238"/>
            <path id="Trazado_226552" data-name="Trazado 226552" d="M190.246,318.295c-2.3-3.778,2.663-8.009,4.967-4.225s-2.663,8.009-4.967,4.225" transform="translate(-42.431 -25.751)" fill="#263238"/>
            <path id="Trazado_226553" data-name="Trazado 226553" d="M202.968,362.1c.869-3.507.422-7.335.357-10.926a.43.43,0,0,0-.6-.407c-.03-.058-.088-.092-.145-.036a22.227,22.227,0,0,0-5.4,9.274c-.6,2.109-.45,5.25,1.785,5.929,2.114.642,3.495-1.787,4-3.834m-2.259,2.171c-3.3,2.312-2.942-3.019-2.45-4.552a25.533,25.533,0,0,1,1.165-2.868c.894-1.936,2-3.685,3.052-5.5-.059,1.766.01,3.522.006,5.288-.005,2.106.044,6.355-1.774,7.63" transform="translate(-44.048 -28.891)" fill="#263238"/>
            <path id="Trazado_226554" data-name="Trazado 226554" d="M192.227,339.354c-1.694,1.852-.563,4.7.809,6.22a17.593,17.593,0,0,0,8.475,5.136c.073.017.11-.045.113-.113a.511.511,0,0,0,.364-.695c-1.383-3.2-2.527-6.818-4.7-9.419-1.268-1.517-3.459-2.881-5.062-1.13m6.825,6.208c.713,1.554,1.357,3.137,2.118,4.659a53.1,53.1,0,0,1-4.894-3.128,20.188,20.188,0,0,1-2.177-1.871c-1.049-1.075-3.5-5.567.329-5.381,2.112.1,3.774,3.87,4.623,5.721" transform="translate(-42.816 -27.888)" fill="#263238"/>
            <path id="Trazado_226555" data-name="Trazado 226555" d="M116.826,297.91s-41.334-14.709-63.384-11.6c-21.6,3.047-30.467,35.069-9.4,52.422,23,18.949,109.605,12.317,109.605,12.317l-18.5-39.137s-29.488-8.2-56.384-7.883l37.794,7.168Z" transform="translate(-7.166 -23.551)" fill="#263238"/>
            <path id="Trazado_226556" data-name="Trazado 226556" d="M145.979,315.82a.971.971,0,0,1-.036-.2l-.03-.162c-.024-.126-.05-.251-.077-.376-.057-.261-.13-.508-.208-.761s-.165-.5-.256-.743a6.145,6.145,0,0,0-.347-.692c-.012-.024-.034-.028-.05-.044a.283.283,0,0,0-.034-.029.171.171,0,0,0-.047-.025.256.256,0,0,0-.048-.025c-3.245-.807-25.316-5.172-28.6-5.708-3.311-.54-6.633-1-9.956-1.422a168.06,168.06,0,0,0-19.969-1.408c-.625-.006-1.25.006-1.875.016-.13-.056-.272-.088-.408-.131-.318-.1-.634-.2-.956-.284-.6-.153-1.2-.274-1.806-.4-1.256-.263-2.518-.456-3.767-.769-.076-.019-.109.117-.033.139,1.255.366,2.486.832,3.742,1.193.363.1.724.207,1.088.3-2.447.084-4.891.239-7.337.431-.077.006-.082.147,0,.144,3.324-.139,6.669-.073,9.992.085,3.3.158,6.6.336,9.89.651,6.659.638,13.308,1.531,19.933,2.538,3.718.565,26.219,5.091,29.959,5.381a.26.26,0,0,0,.047-.008,2.765,2.765,0,0,0,.1.306c.1.243.2.484.3.722s.2.456.321.675c.058.109.116.218.177.326l.09.162a.94.94,0,0,1,.094.169c.024.1.154.038.111-.055" transform="translate(-16.759 -24.933)" fill="#37474f"/>
            <path id="Trazado_226557" data-name="Trazado 226557" d="M174.95,350.911c-1.148-2.289-2.117-4.724-3.162-7.08s-2.1-4.728-3.15-7.089c-2.1-4.711-9.654-20.568-10.411-21.683-.047-.071-.15.005-.127.087.346,1.22,5.05,11.711,6.135,14.052,2.168,4.68,4.453,9.272,6.7,13.9.643,1.32,1.309,2.624,1.962,3.938s1.347,2.605,1.944,3.951c.036.082.145.007.1-.073" transform="translate(-35.371 -25.952)" fill="#37474f"/>
            <path id="Trazado_226558" data-name="Trazado 226558" d="M122.1,183.254c-6.65,4.773-10.311,14.709-10.311,14.709s-7.283,8.985-7,15.056,4.135,8.587,4.135,8.587l.133-3.285s.9,4.526,6.323,7.8,13.471,3.352,17.917,2.115a15.259,15.259,0,0,0,7.061-4.391l-2.419,4.137s5.636,1.366,10.393-4.711-2.71-18.909-3.072-21.314,1.854-18.558-12.817-19.856c0,0-5.759-2.133-10.338,1.153" transform="translate(-23.442 -14.945)" fill="#263238"/>
            <path id="Trazado_226559" data-name="Trazado 226559" d="M106.469,221.938a11.515,11.515,0,0,1-2.783-5.686,11.655,11.655,0,0,1,.387-6.5,22.125,22.125,0,0,1,4.09-6.28c1.617-1.954,3.36-3.772,4.946-5.758.088-.109-.053-.26-.15-.181a54.339,54.339,0,0,0-4.62,4.458,27.271,27.271,0,0,0-3.917,4.808,11.239,11.239,0,0,0-.977,10.544,22.694,22.694,0,0,0,2.921,4.714c.068.1.184-.04.1-.118" transform="translate(-22.948 -16.271)" fill="#263238"/>
            <path id="Trazado_226560" data-name="Trazado 226560" d="M161.788,217.122c-.5-6.321-4.18-11.294-5.84-17.157-.9-3.174-1.407-6.55-2.821-9.486-.039-.08-.154,0-.119.079,1.122,2.6,1.5,5.45,2.122,8.242a48.676,48.676,0,0,0,2.788,8.08c1.985,4.766,4.376,10.411,2.6,15.776-.821,2.478-2.679,4.948-5.064,5.112-.092.006-.075.187.019.17a7.1,7.1,0,0,0,4.816-3.492,12.315,12.315,0,0,0,1.5-7.323" transform="translate(-34.231 -15.689)" fill="#263238"/>
            <path id="Trazado_226561" data-name="Trazado 226561" d="M161.6,219.625a13.01,13.01,0,0,0,.061-6.687,16.143,16.143,0,0,0-3.126-5.6c-1.48-1.894-3.071-3.742-3.742-6.263-.028-.106-.16-.039-.133.064,1.036,4.136,4.072,6.795,5.736,10.5a13.009,13.009,0,0,1-1.751,12.8,15.518,15.518,0,0,1-5.954,4.714c-.039.017-.015.087.025.071a14.769,14.769,0,0,0,8.886-9.6" transform="translate(-34.156 -16.56)" fill="#263238"/>
            <path id="Trazado_226562" data-name="Trazado 226562" d="M123.018,238.233C128.47,256.425,138.169,277.8,141.731,281c4.5,4.046,28.936,7.333,30.292,7.321,3.355-.056,5.859-26.6,2.27-26.722-5.464-.185-20.506.132-21.816-1.13-1.36-1.321-10.806-12.492-20.643-25.231-6.789-8.8-12.2-8.292-8.815,3" transform="translate(-27.291 -18.877)" fill="#eb9481"/>
            <path id="Trazado_226563" data-name="Trazado 226563" d="M184.788,291.14a61.826,61.826,0,0,0,9.439,3.3c2.54.507,9.884,1.736,10.635-1.514.514-2.216-3.733-3.539-6.719-4.555-1.573-.535-3.6-2.14-3.273-3.341.579-2.1,4.638-.622,7.349.777,5.242,2.705,12.379,7.888,15.093,4.533,1.025-1.268-.49-3.117-2.611-4.843,3.353,1.891,6.874,3.338,8.059,1.983a2.231,2.231,0,0,0,.108-2.694,2,2,0,0,0,2.37-.774c.894-1.4.217-3.185-1.08-4.936a1.287,1.287,0,0,0,.853-.843c1.775-4.172-10.085-13.843-13.912-14.378a80.487,80.487,0,0,0-22.757.559c-3.909,4.654-3.564,26.723-3.555,26.73" transform="translate(-41.34 -21.688)" fill="#eb9481"/>
            <path id="Trazado_226564" data-name="Trazado 226564" d="M204.052,278.25a16.492,16.492,0,0,1,7.636,2.331c2.99,1.79,5.081,4.077,7.662,6.315.068.059-.007.184-.075.126-1.23-1.064-6.278-5-7.569-5.879a15.945,15.945,0,0,0-7.658-2.838c-.03,0-.025-.056,0-.054" transform="translate(-45.647 -22.922)" fill="#263238"/>
            <path id="Trazado_226565" data-name="Trazado 226565" d="M205.992,271.955a38.823,38.823,0,0,1,8.846,2.325c3.1,1.364,5.668,3.926,8.19,6.385q2.272,2.215,4.458,4.548c.061.065-.01.191-.075.127q-3.845-3.82-7.881-7.36a22.246,22.246,0,0,0-8.322-4.723c-1.721-.518-3.472-.88-5.221-1.24-.033-.006-.028-.068.005-.061" transform="translate(-46.08 -22.404)" fill="#263238"/>
            <path id="Trazado_226566" data-name="Trazado 226566" d="M209.358,266.257c2.865.3,5.364.547,8.016,1.982a40.861,40.861,0,0,1,8.312,6.676c1.379,1.381,2.717,2.816,4.037,4.275.054.06-.032.172-.088.113a97.821,97.821,0,0,0-9.513-8.834,17.7,17.7,0,0,0-5.133-3.02,28.913,28.913,0,0,0-5.633-1.169c-.012,0-.01-.024,0-.023" transform="translate(-46.837 -21.934)" fill="#263238"/>
            <path id="Trazado_226567" data-name="Trazado 226567" d="M174.221,259.564l-5.243,32.041s-23.089-4.5-27.68-9.15-14.752-30.515-18.241-43.245,2.119-13.168,8.044-5.649,20.622,25.7,21.377,26.034,21.743-.032,21.743-.032" transform="translate(-27.291 -18.834)" fill="#4dd0e1"/>
            <path id="Trazado_226568" data-name="Trazado 226568" d="M164.431,279.474a1.559,1.559,0,0,1-.691.4,1.244,1.244,0,0,1-1.273-.459,1.577,1.577,0,0,0-1.979-.4,1.853,1.853,0,0,0-.737.762c-.163.294-.349.569-.5.881.264-.184.5-.395.745-.587a1.664,1.664,0,0,1,.683-.431,1.22,1.22,0,0,1,1.281.395,1.6,1.6,0,0,0,1.956.477,1.743,1.743,0,0,0,.761-.734c.163-.294.349-.569.5-.881-.264.174-.5.385-.745.578m-23.078-13.691a1.453,1.453,0,0,1-.691.395,1.227,1.227,0,0,1-1.273-.459,1.577,1.577,0,0,0-1.979-.4,1.853,1.853,0,0,0-.737.762c-.163.294-.349.569-.5.881.264-.174.5-.395.745-.587a1.617,1.617,0,0,1,.683-.431,1.22,1.22,0,0,1,1.281.395,1.608,1.608,0,0,0,1.956.486,1.861,1.861,0,0,0,.761-.743c.163-.294.349-.569.5-.881-.264.174-.5.385-.745.587m-18-33.521a1.537,1.537,0,0,1-.683.4,1.125,1.125,0,0,1-.675-.037,5.77,5.77,0,0,0,.008.817,1.432,1.432,0,0,0,.846-.147,1.767,1.767,0,0,0,.753-.734c.171-.294.349-.569.5-.881-.264.174-.5.385-.745.578m37.641,31.823a1.444,1.444,0,0,1-.722-.294,1.725,1.725,0,0,1-.629-1.395,2.125,2.125,0,0,0-1.157-1.936,1.5,1.5,0,0,0-.97-.083c-.295.073-.59.119-.885.211.295.1.59.138.885.211a1.449,1.449,0,0,1,.737.266,1.68,1.68,0,0,1,.668,1.349,2.169,2.169,0,0,0,1.095,1.973,1.43,1.43,0,0,0,.978.119c.295-.073.59-.119.885-.211-.295-.1-.59-.138-.885-.211m-22.031-16.168a1.532,1.532,0,0,1-.722-.294,1.7,1.7,0,0,1-.629-1.395,2.15,2.15,0,0,0-1.157-1.945,1.585,1.585,0,0,0-.978-.073c-.287.073-.582.11-.877.211.295.092.59.138.877.211a1.562,1.562,0,0,1,.745.257,1.7,1.7,0,0,1,.66,1.358,2.19,2.19,0,0,0,1.1,1.973,1.473,1.473,0,0,0,.978.11,7.244,7.244,0,0,0,.877-.211c-.287-.092-.582-.138-.877-.2m4.6,35.4a1.5,1.5,0,0,0-.97-.073l-.536.11c-.116.028-.233.055-.349.092.241.083.489.119.73.184a.917.917,0,0,1,.155.028,1.568,1.568,0,0,1,.737.266,1.512,1.512,0,0,1,.435.486c.287.156.6.312.916.468a2.041,2.041,0,0,0-1.118-1.56" transform="translate(-27.291 -19.086)" fill="#fff"/>
            <path id="Trazado_226569" data-name="Trazado 226569" d="M177.386,281c.644-3.782,1.315-7.558,1.841-11.368.3-2.165.608-4.328.889-6.5.011-.082-.106-.115-.123-.033-.775,3.765-1.543,7.544-2.172,11.35-.625,3.787-1.277,7.569-1.861,11.366-.331,2.159-.607,4.322-.828,6.5,0,.043.055.06.065.017.881-3.737,1.539-7.532,2.188-11.339" transform="translate(-39.182 -21.67)" fill="#263238"/>
            <g id="Grupo_114601" data-name="Grupo 114601" transform="translate(94.689 209.784)" opacity="0.1">
              <g id="Grupo_114600" data-name="Grupo 114600">
                <g id="Grupo_114599" data-name="Grupo 114599" clip-path="url(#clip-path-22)">
                  <path id="Trazado_226570" data-name="Trazado 226570" d="M169.5,288.418l-.523,3.187s-23.092-4.5-27.683-9.144-14.753-30.516-18.24-43.249c-2.552-9.309-.238-12.05,3.5-9.906,10.806,14.588,31.188,42.272,42.944,59.112" transform="translate(-121.979 -228.617)"/>
                </g>
              </g>
            </g>
            <path id="Trazado_226571" data-name="Trazado 226571" d="M83.195,292.335l53.761,1.062-2.678-20.324s4.37-4.47,1.823-12.969c-1.666-5.562-9.207-18.591-13.022-24.012-9.3-13.205-15.731-5.832-18.308-2.435-9.839,12.971-21.576,58.679-21.576,58.679" transform="translate(-18.613 -18.825)" fill="#4dd0e1"/>
            <path id="Trazado_226572" data-name="Trazado 226572" d="M138.645,284.055a1.784,1.784,0,0,0-.815-.743,1.5,1.5,0,0,0-.97-.073c-.295.064-.59.11-.885.2.295.1.59.138.885.211a1.568,1.568,0,0,1,.737.266,1.68,1.68,0,0,1,.668,1.349,2.3,2.3,0,0,0,.776,1.78Zm-37.5-36.971a1.508,1.508,0,0,1-.3-.073c-.078.165-.147.34-.217.514a1.6,1.6,0,0,0,.52-.028,7.24,7.24,0,0,0,.877-.211c-.287-.092-.582-.138-.877-.2m17.575,29.052a1.532,1.532,0,0,1-.722-.294,1.7,1.7,0,0,1-.629-1.395,2.15,2.15,0,0,0-1.157-1.945,1.585,1.585,0,0,0-.978-.073c-.287.073-.582.11-.877.211.295.092.59.138.877.211a1.561,1.561,0,0,1,.745.257,1.681,1.681,0,0,1,.66,1.358,2.19,2.19,0,0,0,1.1,1.973,1.473,1.473,0,0,0,.978.11,7.241,7.241,0,0,0,.877-.211c-.287-.092-.582-.138-.877-.2m14.4-28.254a1.358,1.358,0,0,1-.605-.266,1.7,1.7,0,0,1-.629-1.395,2.28,2.28,0,0,0-.124-.725,2.087,2.087,0,0,0-.466-.8,1.55,1.55,0,0,0-.567-.422,1.585,1.585,0,0,0-.978-.073c-.287.073-.582.11-.877.211.295.092.59.138.877.211a1.562,1.562,0,0,1,.745.257,1.7,1.7,0,0,1,.66,1.358,2.19,2.19,0,0,0,1.1,1.973,1.473,1.473,0,0,0,.978.11c.039-.009.078-.018.109-.028-.078-.138-.155-.275-.225-.413M117.15,252.2c-.054-.349-.093-.688-.171-1.037-.085.349-.116.688-.179,1.037a2.306,2.306,0,0,1-.225.872,1.322,1.322,0,0,1-1.141.789,1.837,1.837,0,0,0-1.677,1.3,2.379,2.379,0,0,0-.093,1.156c.062.34.1.688.179,1.037.085-.349.116-.7.179-1.037a2.123,2.123,0,0,1,.241-.863,1.344,1.344,0,0,1,1.18-.743,1.816,1.816,0,0,0,1.646-1.358,2.471,2.471,0,0,0,.062-1.156m-11.411,35.98c-.062-.349-.1-.688-.179-1.037-.085.349-.116.688-.179,1.037a2.131,2.131,0,0,1-.225.872,1.322,1.322,0,0,1-1.141.789,1.837,1.837,0,0,0-1.677,1.3,2.379,2.379,0,0,0-.093,1.156c.039.2.062.4.1.606h.163c.031-.2.054-.4.093-.606a2.121,2.121,0,0,1,.248-.853,1.318,1.318,0,0,1,1.18-.743,1.836,1.836,0,0,0,1.638-1.367,2.585,2.585,0,0,0,.07-1.156m11.885-55.929a1.537,1.537,0,0,1-.683.4,1.256,1.256,0,0,1-1.281-.459,1.577,1.577,0,0,0-1.979-.4,1.94,1.94,0,0,0-.737.752c-.163.3-.342.569-.489.89.264-.184.5-.395.745-.587a1.643,1.643,0,0,1,.675-.431,1.2,1.2,0,0,1,1.281.395,1.616,1.616,0,0,0,1.964.477,1.767,1.767,0,0,0,.753-.734c.171-.294.349-.569.5-.881-.264.174-.5.385-.745.578m-16.061,37.411a1.582,1.582,0,0,1-.691.395A1.227,1.227,0,0,1,99.6,269.6a1.577,1.577,0,0,0-1.979-.4,1.853,1.853,0,0,0-.737.762c-.163.294-.349.569-.5.881.264-.184.5-.395.745-.587a1.715,1.715,0,0,1,.683-.431,1.22,1.22,0,0,1,1.281.395,1.611,1.611,0,0,0,1.956.486,1.815,1.815,0,0,0,.761-.743c.163-.294.349-.569.5-.881-.264.174-.5.385-.745.587m34.063-3.891a1.453,1.453,0,0,1-.691.395,1.227,1.227,0,0,1-1.273-.459,1.577,1.577,0,0,0-1.979-.4,1.853,1.853,0,0,0-.737.762c-.163.294-.349.569-.5.881.264-.174.5-.395.745-.587a1.617,1.617,0,0,1,.683-.431,1.22,1.22,0,0,1,1.281.395,1.609,1.609,0,0,0,1.956.486,1.861,1.861,0,0,0,.761-.743c.163-.294.349-.569.5-.881-.264.174-.5.385-.745.587m-12.591,27.207a1.6,1.6,0,0,0-1.979-.4,1.884,1.884,0,0,0-.691.688l.683.009a1.365,1.365,0,0,1,.2-.073,1.242,1.242,0,0,1,.908.1l1.281.018a1.231,1.231,0,0,1-.4-.34m1.964.064a1.652,1.652,0,0,1-.427.3l.66.009c.008-.009.016-.009.016-.018.163-.294.349-.569.5-.881-.264.174-.5.395-.745.587" transform="translate(-21.564 -19.079)" fill="#fff"/>
            <path id="Trazado_226573" data-name="Trazado 226573" d="M128.052,276.859a40.234,40.234,0,0,1,7.036-.139c1.164.1,2.317.259,3.473.45.576.095,1.151.167,1.73.235a6.336,6.336,0,0,0,1.82.015c.054-.009.067.084.014.1a10.961,10.961,0,0,1-1.7.328,10.478,10.478,0,0,1-1.671-.014c-1.182-.086-2.36-.237-3.541-.337-2.383-.2-4.765-.4-7.155-.4-.109,0-.116-.22-.005-.23" transform="translate(-28.631 -22.788)" fill="#263238"/>
            <path id="Trazado_226574" data-name="Trazado 226574" d="M121.209,280.649a44.715,44.715,0,0,1,5.657-1.55c.956-.192,1.914-.316,2.88-.411.461-.046.924-.082,1.386-.11.508-.032,1.022.017,1.529-.024.054,0,.068.091.013.1-.477.055-.95.2-1.424.293s-.954.173-1.431.262c-.954.176-1.907.365-2.863.532-1.915.332-3.818.686-5.722,1.1-.1.023-.12-.152-.025-.185" transform="translate(-27.104 -22.947)" fill="#263238"/>
            <path id="Trazado_226575" data-name="Trazado 226575" d="M119.376,229.225c-.034,1.2,2.864,9.995,7.292,11.141,1.444.371,3.506-8.849,3.506-8.849l.283-.639,3.968-8.954-7.833-10.186-1.152-1.386s-.949,2.534-2.1,5.7c-.054.147-.108.294-.165.451-.07.177-.137.344-.2.513-.177.471-.357.952-.528,1.437-.13.368-.26.725-.384,1.117s-.258.772-.394,1.161a73.917,73.917,0,0,0-2.293,8.49" transform="translate(-26.708 -17.329)" fill="#eb9481"/>
            <path id="Trazado_226576" data-name="Trazado 226576" d="M124.477,216.057a21.091,21.091,0,0,0,7.122,14.821l3.968-8.954-7.834-10.187-1.152-1.385s-.949,2.534-2.1,5.7" transform="translate(-27.849 -17.329)" fill="#263238"/>
            <path id="Trazado_226577" data-name="Trazado 226577" d="M149.977,207.839c-1.685,17.627-10.806,18.426-14.021,17.992-2.919-.393-12.815-2.171-12.68-19.911s7.6-22.385,14.316-21.9,14.07,6.195,12.385,23.822" transform="translate(-27.58 -15.157)" fill="#eb9481"/>
            <path id="Trazado_226578" data-name="Trazado 226578" d="M154.768,206.169a8.91,8.91,0,0,1-.977-.411,1.645,1.645,0,0,1-.928-.644.72.72,0,0,1,.088-.763,1.157,1.157,0,0,1,1.335-.155,2.017,2.017,0,0,1,1.117,1c.274.5-.182,1.111-.636.975" transform="translate(-34.184 -16.81)" fill="#263238"/>
            <path id="Trazado_226579" data-name="Trazado 226579" d="M142.044,203.8a8.49,8.49,0,0,0,1.034-.09,1.487,1.487,0,0,0,1.039-.329.718.718,0,0,0,.086-.763,1.228,1.228,0,0,0-1.251-.569,1.791,1.791,0,0,0-1.3.612.7.7,0,0,0,.394,1.14" transform="translate(-31.653 -16.644)" fill="#263238"/>
            <path id="Trazado_226580" data-name="Trazado 226580" d="M144.2,209.651c0-.047-.085.046-.088.1-.082,1.2-.346,2.568-1.3,2.846-.03.008-.033.07,0,.068,1.139-.039,1.474-1.853,1.388-3.009" transform="translate(-31.946 -17.27)" fill="#263238"/>
            <path id="Trazado_226581" data-name="Trazado 226581" d="M143.154,208.153c-1.619-.362-2.113,3.493-.612,3.829,1.476.329,1.97-3.526.612-3.829" transform="translate(-31.69 -17.146)" fill="#263238"/>
            <path id="Trazado_226582" data-name="Trazado 226582" d="M142.172,208.211c-.313.167-.641.5-.99.481-.4-.025-.652-.482-.862-.917-.022-.045-.054-.017-.061.035-.1.737.04,1.538.695,1.767.6.21,1.121-.365,1.372-1.08.047-.132-.029-.354-.154-.286" transform="translate(-31.373 -17.115)" fill="#263238"/>
            <path id="Trazado_226583" data-name="Trazado 226583" d="M151.816,210.471c.014-.044.071.072.064.12-.193,1.186-.245,2.584.615,3.152.027.017.016.077-.017.065-1.089-.395-1-2.249-.661-3.337" transform="translate(-33.915 -17.338)" fill="#263238"/>
            <path id="Trazado_226584" data-name="Trazado 226584" d="M152.905,209.3c1.643.16,1.251,4.031-.27,3.883-1.5-.146-1.107-4.017.27-3.883" transform="translate(-33.935 -17.242)" fill="#263238"/>
            <path id="Trazado_226585" data-name="Trazado 226585" d="M154.05,209.68c.238.241.456.651.763.719.356.078.663-.3.932-.672.028-.039.05,0,.047.049-.057.742-.342,1.484-.958,1.542-.562.051-.9-.64-.975-1.4-.015-.14.1-.336.191-.239" transform="translate(-34.423 -17.271)" fill="#263238"/>
            <path id="Trazado_226586" data-name="Trazado 226586" d="M142.809,220.31c.193.334.369.772.727.893a2.306,2.306,0,0,0,1.128-.045c.033-.007.059.039.033.071a1.224,1.224,0,0,1-1.38.345,1.335,1.335,0,0,1-.612-1.232.056.056,0,0,1,.106-.031" transform="translate(-31.927 -18.147)" fill="#263238"/>
            <path id="Trazado_226587" data-name="Trazado 226587" d="M147.885,215.307s0,1.821-.1,2.664c-.009.079-.186.088-.431.065-.012,0-.019.006-.028,0a3.345,3.345,0,0,1-3.115-2.039c-.04-.09.061-.162.12-.1a4.816,4.816,0,0,0,2.971,1.558c.078-.225-.085-3.119.029-3.111a5.7,5.7,0,0,1,1.568.7c.1-3.793-.322-7.574-.178-11.35.007-.134.173-.148.193-.023a72.423,72.423,0,0,1,.631,12.214c0,.489-1.391-.385-1.66-.576" transform="translate(-32.262 -16.771)" fill="#263238"/>
            <path id="Trazado_226588" data-name="Trazado 226588" d="M147.155,218.721a4.262,4.262,0,0,1-1.75,1.394,1.6,1.6,0,0,1-1.14-.006c-.807-.319-.778-1.212-.585-1.964a5.8,5.8,0,0,1,.434-1.139,5.2,5.2,0,0,0,3.041,1.714" transform="translate(-32.12 -17.877)" fill="#263238"/>
            <path id="Trazado_226589" data-name="Trazado 226589" d="M145.4,220.217a1.6,1.6,0,0,1-1.14-.006c-.808-.319-.778-1.213-.585-1.964a2.129,2.129,0,0,1,1.725,1.969" transform="translate(-32.12 -17.979)" fill="#ff9bbc"/>
            <path id="Trazado_226590" data-name="Trazado 226590" d="M123.113,207.919c3.558-1.154,4.3-5.194,4.3-5.194a15.953,15.953,0,0,0,7.435-4.858c-.154.341-1.259,2.81-1.856,4.047a16.475,16.475,0,0,0,13.923-8.071,21.451,21.451,0,0,1,3.07,7.92s1.079-6.829-1.221-12.025c-2.814-6.362-7.941-6.322-7.941-6.322a11.81,11.81,0,0,0-13.724,2.051c-7.295,6.629-3.988,22.452-3.988,22.452" transform="translate(-27.377 -15)" fill="#263238"/>
            <path id="Trazado_226591" data-name="Trazado 226591" d="M144.16,202.447a15.264,15.264,0,0,1-5.151,1.1c-.014,0-.014-.025,0-.027A13.768,13.768,0,0,0,146.666,200a15.716,15.716,0,0,0,2.533-2.944,12.37,12.37,0,0,0,1.882-3.993c.024-.109.168-.065.144.045a15.21,15.21,0,0,1-1.4,4.24,11.8,11.8,0,0,1-2.642,3.26,11.542,11.542,0,0,1-3.026,1.837" transform="translate(-31.098 -15.899)" fill="#263238"/>
            <path id="Trazado_226592" data-name="Trazado 226592" d="M139.821,215.112a5.132,5.132,0,0,1-3.52-4.975c-.088-2.912,1.844-5.364,4.307-5.469s4.538,2.179,4.627,5.091-1.844,5.364-4.307,5.469a3.827,3.827,0,0,1-1.107-.116m1.768-9.638a3.3,3.3,0,0,0-.959-.1c-2.133.09-3.807,2.215-3.732,4.738s1.875,4.5,4.008,4.41,3.807-2.216,3.732-4.738a4.447,4.447,0,0,0-3.049-4.31" transform="translate(-30.494 -16.86)" fill="#fff"/>
            <path id="Trazado_226593" data-name="Trazado 226593" d="M153.239,216.314c-1.671-.429-2.816-2.841-2.591-5.585a6.948,6.948,0,0,1,1.242-3.569,2.776,2.776,0,0,1,2.5-1.31,3,3,0,0,1,2.243,1.855,7.277,7.277,0,0,1,.638,3.783c-.238,2.9-1.917,5.088-3.742,4.88a2.207,2.207,0,0,1-.29-.054m1.319-9.719a1.543,1.543,0,0,0-.224-.041,2.245,2.245,0,0,0-2,1.075,6.193,6.193,0,0,0-1.094,3.169c-.206,2.512.84,4.7,2.344,4.867s2.884-1.732,3.09-4.244a6.467,6.467,0,0,0-.559-3.358,2.573,2.573,0,0,0-1.56-1.467" transform="translate(-33.698 -16.957)" fill="#fff"/>
            <path id="Trazado_226594" data-name="Trazado 226594" d="M147.456,210.745l-.338-.583c.73-.592,2.364-1.314,3.337.184l-.474.43c-.87-1.344-2.458-.085-2.525-.032" transform="translate(-32.915 -17.255)" fill="#fff"/>
            <path id="Trazado_226595" data-name="Trazado 226595" d="M121.732,209.573l-.5-.384c.151-.276,1.516-2.705,2.865-2.808,1.261-.092,9.161,1.7,9.5,1.782l-.113.693c-2.264-.518-8.37-1.844-9.343-1.77-.891.068-2.035,1.818-2.4,2.487" transform="translate(-27.123 -17.001)" fill="#fff"/>
            <path id="Trazado_226596" data-name="Trazado 226596" d="M121.464,213.421a2.946,2.946,0,0,0,.645.371,2.024,2.024,0,0,0,.69.186,1.774,1.774,0,0,0,.9-.122,2.364,2.364,0,0,0,.643-.374,3.251,3.251,0,0,0,.724-.843l-.022-4.84s-2.288-6.193-4.6-5.334-1.25,9.3,1.015,10.957" transform="translate(-26.658 -16.672)" fill="#eb9481"/>
            <path id="Trazado_226597" data-name="Trazado 226597" d="M121.268,205.094c-.039-.014-.057.05-.026.074,1.575,1.231,2.157,3.325,2.457,5.425-.382-.872-1.006-1.448-1.979-.933-.051.027-.023.12.028.119a1.531,1.531,0,0,1,1.576,1.033,10.016,10.016,0,0,1,.533,1.8.162.162,0,0,0,.32-.053c0-.017,0-.034-.006-.05.484-2.575-.6-6.6-2.9-7.417" transform="translate(-27.122 -16.895)" fill="#263238"/>
            <path id="Trazado_226598" data-name="Trazado 226598" d="M101.158,234.995c-8.884,9.2-31.65,45.422-26.06,53.183,5.63,7.816,40.727,2.374,50.832-1.913,3.006-1.275-6.1-23.711-9.431-24.605-2.772-.744-17.783,5.314-18.115,4.289-.376-1.158,2.6-9.03,7.3-23.36,5.423-16.522-.6-11.66-4.525-7.594" transform="translate(-16.606 -19.033)" fill="#eb9481"/>
            <path id="Trazado_226599" data-name="Trazado 226599" d="M147.789,258.423c7.07-.321,8.927.88,14.772-3.137,3.836-2.635,6.906-.872,4.453,3.748-4.012,7.557-13.06,10.235-16.423,10.1Z" transform="translate(-33.065 -20.929)" fill="#eb9481"/>
            <path id="Trazado_226600" data-name="Trazado 226600" d="M123.063,264.55s8.27-4.214,15.776-5.437c5.191-.845,16.656-1.2,26.368,13.292,2.3,3.437,3.524,10.265-1.963,6.267-3.9-2.84-5.643-6.032-8.164-7.2,0,0,.68,8.9-2.323,11.5a68.073,68.073,0,0,1-8.255,6.117,16.959,16.959,0,0,1-1.107-1.724s-3,2.11-8.2.895Z" transform="translate(-27.533 -21.318)" fill="#eb9481"/>
            <path id="Trazado_226601" data-name="Trazado 226601" d="M148.874,259.282c2.3,1.781,7.109,5.652,10.114,10.436,3.338,5.315,8.557,16.616,5.213,19.489-2.452,2.106-4.766-2-4.766-2s1.324,5.209-1.244,6.539c-2.339,1.212-3.967-2.093-3.967-2.093s.343,3.323-2.1,3.977c-2.939.787-3.176-6.306-6.736-8.549-.8-.5,3.487-27.8,3.487-27.8" transform="translate(-32.505 -21.36)" fill="#eb9481"/>
            <path id="Trazado_226602" data-name="Trazado 226602" d="M156.047,274.177a28.381,28.381,0,0,1,5.834,14.13c.012.135-.067.218-.1.1A70.487,70.487,0,0,0,156,274.214c-.016-.03.021-.06.043-.037" transform="translate(-34.902 -22.586)" fill="#263238"/>
            <path id="Trazado_226603" data-name="Trazado 226603" d="M150.325,278.688a32.541,32.541,0,0,1,5.111,14.516c.009.135-.076.213-.1.091a77.07,77.07,0,0,0-5.05-14.573c-.016-.031.025-.06.044-.034" transform="translate(-33.622 -22.957)" fill="#263238"/>
            <path id="Trazado_226604" data-name="Trazado 226604" d="M164.3,272.556c2.2,1.06,3.571,2.554,5.355,4.355a32.759,32.759,0,0,0,2.742,2.538c.876.7,2.164,1.758,3.229.948a2.461,2.461,0,0,0,.605-2.145,12.129,12.129,0,0,0-.99-3.2c-.018-.038.036-.076.055-.039a16.863,16.863,0,0,1,1.135,2.883,4.217,4.217,0,0,1,.027,2.122c-.46,1.442-1.953,1.461-2.965.93a9.883,9.883,0,0,1-1.7-1.236c-.519-.439-1.02-.907-1.511-1.389-1.007-.991-1.965-2.049-2.961-3.054a30.517,30.517,0,0,0-3.061-2.623c-.04-.033,0-.107.042-.086" transform="translate(-36.745 -22.453)" fill="#263238"/>
            <path id="Trazado_226605" data-name="Trazado 226605" d="M168.083,282.571a91.931,91.931,0,0,0-4.008-9.956c-.023-.041.024-.084.051-.047a46.853,46.853,0,0,1,4.522,9.571,17.2,17.2,0,0,1,.93,5.83c-.238,2.806-1.858,3.151-2.451,3.22a2.753,2.753,0,0,1-1.987-.63,7.144,7.144,0,0,1-1.659-2.252c-.022-.041.026-.088.051-.048.729,1.2,2,2.456,3.31,2.41a2.021,2.021,0,0,0,1.548-.763,3.756,3.756,0,0,0,.571-2.216,17.878,17.878,0,0,0-.878-5.118" transform="translate(-36.574 -22.453)" fill="#263238"/>
            <path id="Trazado_226606" data-name="Trazado 226606" d="M111.954,262.221l8.669,28.632s-43.954,6.314-46.912-2.97,16.674-41.923,25.053-51.112c9.71-10.649,10.486-6.544,7.686,3.584-2.932,10.6-8.145,25.823-8.145,25.823Z" transform="translate(-16.424 -18.989)" fill="#4dd0e1"/>
            <path id="Trazado_226607" data-name="Trazado 226607" d="M97.235,247.163a1.532,1.532,0,0,1-.722-.294,1.724,1.724,0,0,1-.629-1.395,2.163,2.163,0,0,0-1.071-1.9l-.373.523c.016.009.039.028.054.037a1.7,1.7,0,0,1,.668,1.358,2.169,2.169,0,0,0,1.095,1.973,1.473,1.473,0,0,0,.978.11,7.24,7.24,0,0,0,.877-.211c-.287-.092-.582-.138-.877-.2m17.575,29.052a1.532,1.532,0,0,1-.722-.294,1.7,1.7,0,0,1-.629-1.395,2.15,2.15,0,0,0-1.157-1.945,1.585,1.585,0,0,0-.978-.073c-.287.073-.582.11-.877.211.295.092.59.138.877.211a1.562,1.562,0,0,1,.745.257,1.681,1.681,0,0,1,.66,1.358,2.19,2.19,0,0,0,1.1,1.973,1.473,1.473,0,0,0,.978.11,7.241,7.241,0,0,0,.877-.211c-.287-.092-.582-.138-.877-.2m-31.532,6.13a1.444,1.444,0,0,1-.722-.294,1.7,1.7,0,0,1-.629-1.395,2.125,2.125,0,0,0-1.157-1.936,1.527,1.527,0,0,0-.978-.083c-.295.073-.582.11-.877.211.295.1.582.138.877.211a1.423,1.423,0,0,1,.737.266,1.658,1.658,0,0,1,.668,1.349,2.175,2.175,0,0,0,1.1,1.973,1.419,1.419,0,0,0,.978.11c.295-.064.582-.11.877-.2a7.608,7.608,0,0,0-.877-.211m18.553,5.919c-.062-.349-.1-.688-.179-1.037-.085.349-.116.688-.179,1.037a2.131,2.131,0,0,1-.225.872,1.322,1.322,0,0,1-1.141.789,1.837,1.837,0,0,0-1.677,1.3,2.379,2.379,0,0,0-.093,1.156c.039.22.07.44.109.67a.8.8,0,0,0,.147-.009c.031-.22.062-.44.1-.661a2.121,2.121,0,0,1,.248-.853,1.318,1.318,0,0,1,1.18-.743,1.836,1.836,0,0,0,1.638-1.367,2.585,2.585,0,0,0,.07-1.156m7.25-55.709c-.016.028-.031.046-.047.073-.163.3-.342.569-.489.89.194-.138.373-.284.551-.431,0-.184-.008-.367-.016-.532M97.654,269.745a1.582,1.582,0,0,1-.691.395,1.227,1.227,0,0,1-1.273-.459,1.577,1.577,0,0,0-1.979-.4,1.853,1.853,0,0,0-.737.762c-.163.294-.349.569-.5.881.264-.184.5-.395.745-.587a1.715,1.715,0,0,1,.683-.431,1.22,1.22,0,0,1,1.281.395,1.611,1.611,0,0,0,1.956.486,1.815,1.815,0,0,0,.761-.743c.163-.294.349-.569.5-.881-.264.174-.5.385-.745.587" transform="translate(-17.656 -19.158)" fill="#fff"/>
            <path id="Trazado_226608" data-name="Trazado 226608" d="M87.845,275a47.253,47.253,0,0,1,6.638-3.609,43.4,43.4,0,0,1,6.935-2.372c1.343-.353,2.7-.629,4.05-.916.041-.009.051.066.01.075a55.76,55.76,0,0,0-7,2.3q-3.428,1.339-6.808,2.824c-1.276.561-2.529,1.193-3.788,1.8-.059.028-.093-.07-.04-.106" transform="translate(-19.648 -22.086)" fill="#263238"/>
            <path id="Trazado_226609" data-name="Trazado 226609" d="M118.994,263.907c-.222.041-12.367,3.235-12.77,3.4.067-.2,2.8-7.343,3.211-8.387.04-.1.077-.21.116-.314.255-.457.513-.912.753-1.381.307-.6.611-1.206.915-1.81.009-.018-.013-.038-.023-.019q-.49.878-.979,1.757c-.15.273-.293.549-.433.827.272-.74.536-1.482.8-2.229.42-1.189.808-2.39,1.193-3.6.012-.039-.036-.059-.051-.022-.807,2.082-1.668,4.131-2.48,6.21s-3.9,9.722-3.884,9.718c.02.023,13.406-3.865,13.666-3.959.1-.037.077-.216-.033-.2" transform="translate(-23.572 -20.769)" fill="#263238"/>
            <path id="Trazado_226610" data-name="Trazado 226610" d="M120.6,283.153c-.951-3.193-1.881-6.4-2.932-9.55-.6-1.79-1.186-3.586-1.8-5.371-.023-.067-.124-.03-.106.04.847,3.25,1.7,6.508,2.676,9.711.967,3.188,1.913,6.385,2.916,9.558q.856,2.707,1.847,5.344c.013.035.064.016.056-.021-.756-3.287-1.7-6.5-2.659-9.712" transform="translate(-25.9 -22.094)" fill="#263238"/>
            <path id="Trazado_226611" data-name="Trazado 226611" d="M122.269,296.52c-.359-.892-.8-2.169-1.19-3.043-.1-.231-.248-.2-.17.036.262.8.461,1.694.719,2.516-.616.07-1.232.125-1.848.2-.712.09-1.423.184-2.135.272q-2.09.256-4.185.461-4.242.417-8.5.619a139.375,139.375,0,0,1-17.068-.129c-1.588-.119-3.176-.275-4.757-.489a39.529,39.529,0,0,1-4.654-.819c-.041-.011-.057.073-.016.088a22.81,22.81,0,0,0,4.014,1.106c1.426.253,2.859.461,4.3.611,2.861.3,5.734.421,8.606.45q8.54.084,17.069-.683,2.386-.211,4.768-.488c.8-.094,1.6-.187,2.4-.3a13.2,13.2,0,0,0,2.646-.411" transform="translate(-17.551 -24.163)" fill="#263238"/>
            <rect id="Rectángulo_49847" data-name="Rectángulo 49847" width="55.338" height="2.93" transform="translate(106.006 276.607)" fill="#c7c7c7"/>
            <path id="Trazado_226612" data-name="Trazado 226612" d="M197,301.441v2.93H159.388l1.9-2.93Z" transform="translate(-35.66 -24.833)" fill="#a6a6a6"/>
            <path id="Trazado_226613" data-name="Trazado 226613" d="M169.189,301.008h48.433l7.008-40.393H176.2Z" transform="translate(-37.853 -21.469)" fill="#a6a6a6"/>
            <path id="Trazado_226614" data-name="Trazado 226614" d="M172.105,301.008h48.433l7.008-40.393H179.113Z" transform="translate(-38.505 -21.469)" fill="#c7c7c7"/>
            <path id="Trazado_226615" data-name="Trazado 226615" d="M212,280.725c.05,1.909-1.03,3.732-2.413,4.073s-2.545-.929-2.6-2.837,1.029-3.732,2.413-4.073,2.545.93,2.6,2.837" transform="translate(-46.309 -22.888)" fill="#fff"/>
          </g>
        </g>
        <g id="Grupo_114549" data-name="Grupo 114549" transform="translate(-6.614 -0.423)">
          <path id="Trazado_226417" data-name="Trazado 226417" d="M411.3,340.933c-8.553,13.694-17.472,29.585-19.643,46.757-.026.261.326.345.376.087a116,116,0,0,1,3.783-13.75c5.623-1.829,11.143-3.332,14.1-9.93,3.012-6.782,2.629-15.625,2.056-23.013a.359.359,0,0,0-.668-.152" transform="translate(-87.625 -28.071)" fill="#4dd0e1"/>
          <path id="Trazado_226418" data-name="Trazado 226418" d="M397.12,374.286c3.843-10.193,8.776-20.427,15.046-28.809.042-.056.108.025.069.082a126.7,126.7,0,0,0-10.271,19.085c2.832-3.4,5.935-6.443,8.618-10.047.053-.07.136.031.086.1-2.664,3.779-5.574,7.885-9.043,10.681q-1.4,3.045-2.822,6.1c.233-.154.474-.291.713-.431.042-.024.079.05.037.075-.265.158-.526.325-.8.462-.45.963-.9,1.928-1.36,2.889-.1.214-.355.027-.274-.189" transform="translate(-88.844 -28.458)" fill="#263238"/>
          <path id="Trazado_226419" data-name="Trazado 226419" d="M400.794,372.532a50.929,50.929,0,0,0,6.566-5.181c.056-.054.137.038.081.095a35.1,35.1,0,0,1-6.552,5.277c-.107.064-.2-.12-.095-.191" transform="translate(-89.66 -30.261)" fill="#263238"/>
          <path id="Trazado_226420" data-name="Trazado 226420" d="M390.2,382.8a.157.157,0,1,0,.313-.017c.044-5.654,0-11.335.076-17.016,1.226-2.924,3.857-4.542,5.685-6.885a30.5,30.5,0,0,0,3.412-5.616,45.887,45.887,0,0,0,3.958-15.6c.505-6.049-1.436-26.01-3.593-25.316-1.119.359-4.739,10.246-5.7,13.514a108.513,108.513,0,0,0-3.4,16.572c-1.749,13.308-1.6,26.973-.748,40.365" transform="translate(-87.163 -25.729)" fill="#4dd0e1"/>
          <path id="Trazado_226421" data-name="Trazado 226421" d="M390.326,358.714l.022-.022c.262-7.156,1.625-14.382,2.9-21.321,1.375-7.477,2.982-14.517,6.237-21.185.061-.124.216-.015.161.112a88.291,88.291,0,0,0-5.011,16.26c.218-.4.483-.785.71-1.166.089-.15.3-.01.21.146a10.694,10.694,0,0,1-1.017,1.7.084.084,0,0,1-.042.023c-1.121,5.343-1.925,10.81-2.613,16.262.051-.069.1-.143.153-.21.035-.045.095.012.071.064-.085.181-.181.36-.275.54-.346,2.768-.668,5.53-.991,8.268a39.011,39.011,0,0,0,9.737-15.294.021.021,0,1,1,.04.013c-1.967,6.345-5.068,11.986-9.842,15.834q-.13,1.108-.263,2.211c-.019.152-.224.112-.224-.036,0-.651.029-1.306.05-1.959a.168.168,0,0,1-.016-.238" transform="translate(-87.318 -26.043)" fill="#263238"/>
          <path id="Trazado_226422" data-name="Trazado 226422" d="M392.863,349.683a120.47,120.47,0,0,0,8.492-17.291c.026-.07.127-.02.1.051a59.335,59.335,0,0,1-8.436,17.385c-.076.1-.224-.032-.16-.146" transform="translate(-87.892 -27.379)" fill="#263238"/>
          <path id="Trazado_226423" data-name="Trazado 226423" d="M398.317,330.137c1.32-2.76,2.712-5.446,3.954-8.26.035-.079.127-.01.1.068a45.914,45.914,0,0,1-3.849,8.333c-.087.142-.279.019-.2-.14" transform="translate(-89.111 -26.513)" fill="#263238"/>
          <path id="Trazado_226424" data-name="Trazado 226424" d="M397.652,332.191c.026,0,.026.049,0,.049s-.026-.049,0-.049" transform="translate(-88.962 -27.366)" fill="#263238"/>
          <path id="Trazado_226425" data-name="Trazado 226425" d="M382.361,367.209a67.6,67.6,0,0,1-1.118,11.142l.148,1.22a62.016,62.016,0,0,0,1.685-12.419.439.439,0,0,0,.016-.384l0-.012a96.955,96.955,0,0,0-1.056-16.826c-1.481-10.393-4.718-20.367-10.85-28.157a.4.4,0,0,0-.677.165c-2.474,7.437-1.611,16.312.5,23.731a46.807,46.807,0,0,0,4.862,11.27c2.1,3.5,4.786,6.454,6.494,10.272" transform="translate(-82.557 -26.497)" fill="#4dd0e1"/>
          <path id="Trazado_226426" data-name="Trazado 226426" d="M372.679,325.569A90.294,90.294,0,0,1,383.027,363.1c.009.233-.324.3-.351.056-.137-1.183-.29-2.355-.451-3.524,0,0-.007,0-.01,0a43.739,43.739,0,0,1-6.594-9c-.03-.06.043-.13.083-.075a90.51,90.51,0,0,0,6.4,8.239q-.624-4.367-1.493-8.6c-.155-.211-.307-.427-.46-.639-.1-.139.067-.343.172-.2l.14.183a112.919,112.919,0,0,0-3.038-11.4c-1.48-2.086-3.133-3.888-4.211-6.4-.026-.061.044-.108.078-.053.866,1.436,1.7,2.882,2.687,4.216.391.531.821,1.028,1.227,1.546a95.524,95.524,0,0,0-4.758-11.723c-.083-.172.137-.323.225-.155" transform="translate(-83.325 -26.814)" fill="#263238"/>
          <path id="Trazado_226427" data-name="Trazado 226427" d="M374.222,340.56c1.879,2.988,4.019,5.839,5.765,8.928.05.089-.059.179-.121.111a45.692,45.692,0,0,1-5.77-8.951c-.051-.1.072-.174.127-.087" transform="translate(-83.694 -28.052)" fill="#263238"/>
          <path id="Trazado_226428" data-name="Trazado 226428" d="M382,351.044l.08.094c.055.066-.03.168-.086.1l-.08-.095c-.056-.066.03-.168.086-.1" transform="translate(-85.441 -28.917)" fill="#263238"/>
          <path id="Trazado_226429" data-name="Trazado 226429" d="M361.02,348.872a37.655,37.655,0,0,0,6.132,17.006,15.938,15.938,0,0,0,4.973,4.587c2.153,1.26,4.409,2.711,6.637,3.744a59,59,0,0,1,2.35,9.867c.071-.287.143-.587.215-.874a51.271,51.271,0,0,0-19.548-34.9c-.366-.287-.8.082-.758.572" transform="translate(-80.77 -28.685)" fill="#4dd0e1"/>
          <path id="Trazado_226430" data-name="Trazado 226430" d="M365.54,353.591c-.072-.074.024-.227.1-.159A48.486,48.486,0,0,1,378.6,372.309c.074.2-.157.373-.252.173-.474-.978-.956-1.931-1.445-2.866,0,0,0,0-.008,0-2.32-.517-4.519-2.447-6.241-4.28-.047-.05.023-.13.069-.082a14.529,14.529,0,0,0,2.937,2.438,29.634,29.634,0,0,0,2.948,1.381c-.86-1.614-1.757-3.161-2.693-4.662a26.277,26.277,0,0,1-6.974-4.636c-.067-.057-.008-.184.064-.132a66.789,66.789,0,0,0,6.484,4.1,67.3,67.3,0,0,0-4.578-6.309c-.789-.492-1.589-.986-2.354-1.513-.062-.043-.022-.169.05-.14a7.961,7.961,0,0,1,1.806,1.049c-.918-1.1-1.863-2.18-2.875-3.236" transform="translate(-81.777 -29.114)" fill="#263238"/>
          <path id="Trazado_226431" data-name="Trazado 226431" d="M365.8,359.071a3.05,3.05,0,0,1,.391.33.046.046,0,0,1-.049.075,2.894,2.894,0,0,1-.408-.273c-.07-.053,0-.186.066-.133" transform="translate(-81.819 -29.579)" fill="#263238"/>
          <path id="Trazado_226432" data-name="Trazado 226432" d="M399.591,418.281H371.728l2.25-29.994.494-6.615h22.377l.494,6.615Z" transform="translate(-83.167 -31.442)" fill="#455a64"/>
          <path id="Trazado_226433" data-name="Trazado 226433" d="M397.99,388.286H374.625l.494-6.615H397.5Z" transform="translate(-83.815 -31.442)" fill="#263238"/>
          <rect id="Rectángulo_49745" data-name="Rectángulo 49745" width="25.043" height="6.546" transform="translate(289.971 345.604)" fill="#455a64"/>
          <rect id="Rectángulo_49746" data-name="Rectángulo 49746" width="335" height="387.262" fill="none"/>
        </g>
      </g>
    </g>
  </g>
</svg>
