<svg xmlns="http://www.w3.org/2000/svg" xmlns:xlink="http://www.w3.org/1999/xlink" width="351.421" height="327.341" viewBox="0 0 351.421 327.341">
  <defs>
    <clipPath id="clip-path">
      <rect id="Rectángulo_50231" data-name="Rectángulo 50231" width="351.421" height="327.341" fill="none"/>
    </clipPath>
    <clipPath id="clip-path-5">
      <rect id="Rectángulo_50196" data-name="Rectángulo 50196" width="35.25" height="64.453" fill="none"/>
    </clipPath>
    <clipPath id="clip-path-8">
      <rect id="Rectángulo_50199" data-name="Rectángulo 50199" width="145.917" height="196.103" fill="none"/>
    </clipPath>
    <clipPath id="clip-path-10">
      <rect id="Rectángulo_50201" data-name="Rectángulo 50201" width="3.841" height="2.217" fill="none"/>
    </clipPath>
    <clipPath id="clip-path-11">
      <rect id="Rectángulo_50202" data-name="Rectángulo 50202" width="36.239" height="15.055" fill="none"/>
    </clipPath>
    <clipPath id="clip-path-12">
      <rect id="Rectángulo_50203" data-name="Rectángulo 50203" width="40.074" height="34.688" fill="none"/>
    </clipPath>
    <clipPath id="clip-path-13">
      <rect id="Rectángulo_50204" data-name="Rectángulo 50204" width="17.845" height="25.012" fill="none"/>
    </clipPath>
    <clipPath id="clip-path-14">
      <rect id="Rectángulo_50205" data-name="Rectángulo 50205" width="22.283" height="77" fill="none"/>
    </clipPath>
    <clipPath id="clip-path-16">
      <rect id="Rectángulo_50207" data-name="Rectángulo 50207" width="73.934" height="128.278" fill="none"/>
    </clipPath>
    <clipPath id="clip-path-17">
      <rect id="Rectángulo_50208" data-name="Rectángulo 50208" width="64.521" height="116.61" fill="none"/>
    </clipPath>
    <clipPath id="clip-path-20">
      <rect id="Rectángulo_50211" data-name="Rectángulo 50211" width="23.753" height="6.549" fill="none"/>
    </clipPath>
    <clipPath id="clip-path-21">
      <rect id="Rectángulo_50212" data-name="Rectángulo 50212" width="4.382" height="4.322" fill="none"/>
    </clipPath>
    <clipPath id="clip-path-22">
      <rect id="Rectángulo_50213" data-name="Rectángulo 50213" width="34.475" height="19.904" fill="none"/>
    </clipPath>
    <clipPath id="clip-path-23">
      <rect id="Rectángulo_50214" data-name="Rectángulo 50214" width="6.971" height="34.517" fill="none"/>
    </clipPath>
    <clipPath id="clip-path-25">
      <rect id="Rectángulo_50216" data-name="Rectángulo 50216" width="4.691" height="3.552" fill="none"/>
    </clipPath>
    <clipPath id="clip-path-27">
      <rect id="Rectángulo_50218" data-name="Rectángulo 50218" width="6.168" height="4.426" fill="none"/>
    </clipPath>
    <clipPath id="clip-path-28">
      <rect id="Rectángulo_50219" data-name="Rectángulo 50219" width="4.802" height="7.894" fill="none"/>
    </clipPath>
    <clipPath id="clip-path-29">
      <rect id="Rectángulo_50220" data-name="Rectángulo 50220" width="19.976" height="35.673" fill="none"/>
    </clipPath>
    <clipPath id="clip-path-30">
      <rect id="Rectángulo_50221" data-name="Rectángulo 50221" width="7.377" height="12.928" fill="none"/>
    </clipPath>
    <clipPath id="clip-path-31">
      <rect id="Rectángulo_50222" data-name="Rectángulo 50222" width="30.045" height="18.118" fill="none"/>
    </clipPath>
    <clipPath id="clip-path-32">
      <rect id="Rectángulo_50223" data-name="Rectángulo 50223" width="30.045" height="17.672" fill="none"/>
    </clipPath>
    <clipPath id="clip-path-33">
      <rect id="Rectángulo_50224" data-name="Rectángulo 50224" width="18.05" height="29.328" fill="none"/>
    </clipPath>
    <clipPath id="clip-path-34">
      <rect id="Rectángulo_50225" data-name="Rectángulo 50225" width="30.988" height="19.216" fill="none"/>
    </clipPath>
    <clipPath id="clip-path-36">
      <rect id="Rectángulo_50227" data-name="Rectángulo 50227" width="1.975" height="4.183" fill="none"/>
    </clipPath>
    <clipPath id="clip-path-37">
      <rect id="Rectángulo_50228" data-name="Rectángulo 50228" width="8.719" height="6.102" fill="none"/>
    </clipPath>
    <clipPath id="clip-path-38">
      <rect id="Rectángulo_50229" data-name="Rectángulo 50229" width="2.547" height="1.432" fill="none"/>
    </clipPath>
  </defs>
  <g id="Grupo_117833" data-name="Grupo 117833" transform="translate(-945.76 -15316)">
    <g id="Grupo_115068" data-name="Grupo 115068" transform="translate(945.76 15316)">
      <g id="Grupo_115067" data-name="Grupo 115067" clip-path="url(#clip-path)">
        <g id="Grupo_114966" data-name="Grupo 114966">
          <g id="Grupo_114965" data-name="Grupo 114965" clip-path="url(#clip-path)">
            <path id="Trazado_228838" data-name="Trazado 228838" d="M299.958,192.738c68.619,39.61,68.618,103.832,0,143.442s-179.873,39.611-248.492,0-68.619-103.832,0-143.442,179.873-39.611,248.492,0" transform="translate(0 -38.547)" fill="#f5f5f5"/>
          </g>
        </g>
        <g id="Grupo_114968" data-name="Grupo 114968">
          <g id="Grupo_114967" data-name="Grupo 114967" clip-path="url(#clip-path)">
            <path id="Trazado_228839" data-name="Trazado 228839" d="M399.694,297.008c17.156,9.9,17.156,25.964,0,35.869s-44.971,9.9-62.127,0-17.156-25.964,0-35.869,44.971-9.9,62.127,0" transform="translate(-76.774 -68.469)" fill="#e0e0e0"/>
            <path id="Trazado_228840" data-name="Trazado 228840" d="M142.1,345.522,33.118,282.6c-1.788-1.032-1.788-2.707,0-3.739L190.668,187.9a7.159,7.159,0,0,1,6.476,0l108.95,62.9c1.789,1.032,1.789,2.706,0,3.739L148.572,345.521a7.155,7.155,0,0,1-6.476,0" transform="translate(-7.513 -44.245)" fill="#e0e0e0"/>
          </g>
        </g>
        <g id="Grupo_114973" data-name="Grupo 114973">
          <g id="Grupo_114972" data-name="Grupo 114972" clip-path="url(#clip-path)">
            <path id="Trazado_228841" data-name="Trazado 228841" d="M411.21,285.734c-.939-6.444,1.463-31,6.928-40.338s14.543-19.153,22.384-17.688c7.3,1.365,7.879,10.6.323,17.876s-19.133,16.723-21.319,27.716l-5.956,18.715Z" transform="translate(-97.181 -53.806)" fill="#4dd0e1"/>
            <g id="Grupo_114971" data-name="Grupo 114971" transform="translate(313.83 173.757)" opacity="0.1">
              <g id="Grupo_114970" data-name="Grupo 114970">
                <g id="Grupo_114969" data-name="Grupo 114969" clip-path="url(#clip-path-5)">
                  <path id="Trazado_228842" data-name="Trazado 228842" d="M411.21,285.734c-.939-6.444,1.463-31,6.928-40.338s14.543-19.153,22.384-17.688c7.3,1.365,7.879,10.6.323,17.876s-19.133,16.723-21.319,27.716l-5.956,18.715Z" transform="translate(-411.011 -227.563)"/>
                </g>
              </g>
            </g>
            <path id="Trazado_228843" data-name="Trazado 228843" d="M413.376,285.366a.475.475,0,0,0,.354-.453c.337-22.649,14.819-43.627,24.7-49.469a.476.476,0,0,0,.168-.651.47.47,0,0,0-.652-.167c-10.069,5.953-24.825,27.281-25.167,50.274a.474.474,0,0,0,.467.482.453.453,0,0,0,.13-.015" transform="translate(-97.599 -55.46)" fill="#fff"/>
            <path id="Trazado_228844" data-name="Trazado 228844" d="M417.419,303.853c.507-3.773,3.146-10.284,9.118-16.728,7.313-7.891,19.459-12.231,21.149-16.819,2.029-5.511-2.6-9.273-10.494-6.765-10.61,3.373-22.444,16.618-22.294,33.654Z" transform="translate(-98.1 -62.125)" fill="#4dd0e1"/>
            <path id="Trazado_228845" data-name="Trazado 228845" d="M415.233,301.486a.476.476,0,0,0,.36-.37c4-19.827,20-30.506,26.536-32.342a.476.476,0,0,0,.329-.586.469.469,0,0,0-.586-.33c-7.224,2.03-23.132,12.832-27.212,33.07a.477.477,0,0,0,.573.558" transform="translate(-98.042 -63.329)" fill="#fff"/>
          </g>
        </g>
        <g id="Grupo_114975" data-name="Grupo 114975">
          <g id="Grupo_114974" data-name="Grupo 114974" clip-path="url(#clip-path)">
            <path id="Trazado_228846" data-name="Trazado 228846" d="M115.869,22.778l-5.816,3.358a6.983,6.983,0,0,0,.049-.77V23.682c0-3-2.105-4.214-4.7-2.715a9.1,9.1,0,0,0-2.8,2.7c-.425-3.77-3.383-5.175-6.976-3.1a15.548,15.548,0,0,0-7.035,12.183v2.521a6.631,6.631,0,0,0,.6,2.92l-4.831,2.789a5.764,5.764,0,0,0-2.608,4.517c0,1.663,1.167,2.337,2.608,1.506l31.517-18.2a5.764,5.764,0,0,0,2.608-4.517c0-1.663-1.167-2.337-2.608-1.506" transform="translate(-19.328 -4.635)" fill="#e6e6e6"/>
            <path id="Trazado_228847" data-name="Trazado 228847" d="M28.968,25.646l3.208-2.47V16.108c0-5.6,4.47-12.106,9.321-14.908S50.283.67,50.283,6.273V7.3A12.519,12.519,0,0,1,54.36,3.22c3.491-2.016,6.321-.382,6.321,3.65v.467l4.473-2.582c2.3-1.328,4.164-.252,4.164,2.4a9.2,9.2,0,0,1-4.164,7.211L28.968,35.261c-2.3,1.328-4.164.252-4.164-2.4a9.2,9.2,0,0,1,4.164-7.211" transform="translate(-5.865 0)" fill="#e6e6e6"/>
          </g>
        </g>
        <g id="Grupo_114980" data-name="Grupo 114980">
          <g id="Grupo_114979" data-name="Grupo 114979" clip-path="url(#clip-path)">
            <path id="Trazado_228848" data-name="Trazado 228848" d="M42.341,272.558a7.567,7.567,0,0,0,3.529,5.859L144.745,335.5a7.8,7.8,0,0,0,7.058,0l146.535-84.593a6.63,6.63,0,0,0,0-11.72L199.463,182.1a7.8,7.8,0,0,0-7.058,0L45.869,266.7a7.566,7.566,0,0,0-3.528,5.86" transform="translate(-10.011 -42.858)" fill="#37474f"/>
            <path id="Trazado_228849" data-name="Trazado 228849" d="M148.275,355.236v7.636a7.2,7.2,0,0,1-3.528-.839L45.868,304.946a6.609,6.609,0,0,1-.359-11.491c-1.581,1.132-1.458,2.795.359,3.846l98.878,57.087a7.192,7.192,0,0,0,3.528.848" transform="translate(-10.011 -69.386)" fill="#263238"/>
            <path id="Trazado_228850" data-name="Trazado 228850" d="M36.981,226.568a7.567,7.567,0,0,1-3.31-5.986V102.59A7.8,7.8,0,0,1,37.2,96.477L183.734,11.884a7.567,7.567,0,0,1,6.839-.126,7.565,7.565,0,0,1,3.311,5.986V135.736a7.8,7.8,0,0,1-3.528,6.112L43.819,226.442a7.568,7.568,0,0,1-6.838.126" transform="translate(-7.961 -2.601)" fill="#455a64"/>
            <path id="Trazado_228851" data-name="Trazado 228851" d="M43.4,253.939a7.58,7.58,0,0,1-6.422-.09,7.559,7.559,0,0,1-3.309-5.982v-118a7.119,7.119,0,0,1,1.035-3.472l6.617,3.814v.008a7.239,7.239,0,0,0-1.035,3.472v118c0,2.087,1.361,3.024,3.113,2.249" transform="translate(-7.962 -29.887)" fill="#263238"/>
            <path id="Trazado_228852" data-name="Trazado 228852" d="M42.341,107.72V225.712c0,2.25,1.58,3.163,3.529,2.037l146.536-84.593a7.8,7.8,0,0,0,3.528-6.112V19.052c0-2.25-1.58-3.163-3.528-2.037L45.87,101.608a7.8,7.8,0,0,0-3.529,6.112" transform="translate(-10.011 -3.909)" fill="#37474f"/>
            <path id="Trazado_228853" data-name="Trazado 228853" d="M46.51,270.773l98.875,57.085a7.8,7.8,0,0,0,7.058,0l146.536-84.594c1.949-1.125,1.949-2.95,0-4.074L200.1,182.1a7.8,7.8,0,0,0-7.058,0L46.51,266.7c-1.949,1.125-1.949,2.949,0,4.074" transform="translate(-10.652 -42.858)" fill="#455a64"/>
            <path id="Trazado_228854" data-name="Trazado 228854" d="M48.793,108.475,190.476,26.7c1.169-.675,2.117-.128,2.117,1.222V136.79a4.682,4.682,0,0,1-2.117,3.667L48.793,222.228c-1.17.675-2.118.128-2.118-1.223V112.142a4.68,4.68,0,0,1,2.118-3.667" transform="translate(-11.036 -6.245)" fill="#4dd0e1"/>
            <g id="Grupo_114978" data-name="Grupo 114978" transform="translate(35.639 20.169)" opacity="0.4">
              <g id="Grupo_114977" data-name="Grupo 114977">
                <g id="Grupo_114976" data-name="Grupo 114976" clip-path="url(#clip-path-8)">
                  <path id="Trazado_228855" data-name="Trazado 228855" d="M48.793,108.475,190.476,26.7c1.169-.675,2.117-.128,2.117,1.222V136.79a4.682,4.682,0,0,1-2.117,3.667L48.793,222.228c-1.17.675-2.118.128-2.118-1.223V112.142a4.68,4.68,0,0,1,2.118-3.667" transform="translate(-46.675 -26.414)"/>
                </g>
              </g>
            </g>
            <path id="Trazado_228856" data-name="Trazado 228856" d="M61.767,269.9l136.824-78.986a3.906,3.906,0,0,1,3.53,0l6.423,3.709a1.075,1.075,0,0,1,0,2.037L71.7,275.635a3.9,3.9,0,0,1-3.529,0l-6.4-3.7a1.075,1.075,0,0,1,0-2.037" transform="translate(-14.432 -45.041)" fill="#37474f"/>
            <path id="Trazado_228857" data-name="Trazado 228857" d="M83.447,282.415l136.822-78.987a3.9,3.9,0,0,1,3.528,0l39.506,22.81a1.075,1.075,0,0,1,0,2.037L126.625,307.162a3.918,3.918,0,0,1-3.532.005L83.45,284.447a1.071,1.071,0,0,1,0-2.032" transform="translate(-19.558 -48)" fill="#263238"/>
            <path id="Trazado_228858" data-name="Trazado 228858" d="M204.458,237.683l4.309-2.487c.182-.106.186-.276.006-.38l-4.547-2.624a.723.723,0,0,0-.655,0l-4.308,2.487c-.184.105-.186.275-.007.379l4.547,2.625a.725.725,0,0,0,.655,0m-7.382-9.237-4.308,2.487c-.183.106-.186.276-.007.379l4.547,2.625a.723.723,0,0,0,.655,0l4.308-2.488c.182-.105.186-.275.007-.378l-4.547-2.625a.723.723,0,0,0-.655,0m-13.918,8.035-7.29,4.209c-.182.105-.186.275-.007.378l4.547,2.625a.726.726,0,0,0,.657,0l7.29-4.209c.183-.105.186-.275.007-.379l-4.547-2.625a.727.727,0,0,0-.656,0m7.622-4.4-4.308,2.488c-.182.105-.186.275-.007.379l4.547,2.624a.723.723,0,0,0,.655,0l4.308-2.488c.183-.106.186-.275.007-.379l-4.547-2.624a.721.721,0,0,0-.655,0m-16.9,9.757-4.307,2.487c-.183.106-.186.276-.007.379l4.546,2.625a.726.726,0,0,0,.657,0l4.307-2.487c.184-.106.187-.276.008-.379l-4.547-2.625a.726.726,0,0,0-.657,0m-6.3,3.635-4.308,2.487c-.183.105-.186.275-.007.379l4.547,2.624a.725.725,0,0,0,.656,0l4.307-2.488c.184-.105.186-.275.007-.379l-4.545-2.624a.724.724,0,0,0-.657,0m17.855,10.691,4.308-2.488c.182-.105.186-.275.006-.378l-4.546-2.625a.726.726,0,0,0-.657,0l-4.308,2.487c-.183.106-.186.275-.007.379l4.547,2.625a.726.726,0,0,0,.657,0m-6.3,3.635,4.308-2.487c.182-.105.185-.275.005-.379l-4.545-2.624a.726.726,0,0,0-.657,0l-4.308,2.488c-.183.105-.185.275-.007.379l4.547,2.624a.724.724,0,0,0,.657,0m-6.3,3.635,4.308-2.487c.182-.106.186-.275.005-.379l-4.545-2.625a.726.726,0,0,0-.657,0l-4.308,2.487c-.182.106-.186.276-.006.379l4.546,2.625a.726.726,0,0,0,.657,0m-6.3,3.635,4.308-2.487c.184-.106.187-.276.008-.379l-4.547-2.624a.727.727,0,0,0-.657,0l-4.307,2.487c-.183.105-.186.276-.007.379l4.546,2.625a.727.727,0,0,0,.656,0m31.614-25.752,4.308-2.487c.183-.105.186-.275.006-.379l-4.547-2.625a.724.724,0,0,0-.654,0l-4.309,2.487c-.182.106-.186.276-.006.379l4.545,2.625a.726.726,0,0,0,.657,0m-6.428,11.211,9.61-5.548c.182-.106.185-.276.005-.379l-11.04-6.375a.729.729,0,0,0-.657,0l-4.97,2.87c-.182.105-.186.275-.008.379l5.847,3.375c.179.1.176.273-.007.379l-3.976,2.3c-.184.105-.187.275-.008.378l4.546,2.625a.726.726,0,0,0,.657,0m-30.447-3.421L156.98,251.6c-.183.105-.186.275-.006.378l4.546,2.625a.724.724,0,0,0,.657,0l4.308-2.487c.182-.105.185-.276.005-.379l-4.545-2.625a.726.726,0,0,0-.657,0m-6.3,3.635-4.308,2.487c-.182.106-.186.276-.006.379l4.546,2.625a.726.726,0,0,0,.657,0l4.307-2.487c.184-.106.186-.276.008-.379l-4.548-2.625a.725.725,0,0,0-.656,0m-33.17,39.775a.729.729,0,0,0,.657,0l4.308-2.488c.182-.105.186-.276.005-.379l-4.545-2.625a.729.729,0,0,0-.657,0l-4.307,2.487c-.184.106-.186.276-.007.379Zm-17.2-10.7-4.308,2.487c-.183.106-.186.276-.007.38l4.546,2.624a.724.724,0,0,0,.657,0l4.308-2.487c.182-.105.185-.276.006-.379l-4.546-2.625a.727.727,0,0,0-.656,0m9.046,7.9a.724.724,0,0,0,.657,0l4.307-2.487c.182-.105.186-.276.007-.379l-4.546-2.625a.725.725,0,0,0-.656,0l-4.308,2.487c-.183.106-.187.276-.007.379Zm18.616,4.626,4.309-2.488c.183-.105.186-.275.006-.379l-4.546-2.625a.727.727,0,0,0-.657,0l-4.308,2.487c-.182.105-.185.276-.005.379l4.545,2.625a.727.727,0,0,0,.656,0m-6.951,3.638a.723.723,0,0,0,.655,0L130.3,295.5c.182-.105.186-.275.007-.379l-4.547-2.625a.726.726,0,0,0-.655,0l-4.308,2.488c-.182.105-.186.275-.007.379Zm-14.415-19.8-4.307,2.488c-.183.105-.186.275-.007.379l4.546,2.625a.727.727,0,0,0,.656,0l4.308-2.488c.183-.105.186-.275.007-.379l-4.546-2.624a.726.726,0,0,0-.657,0m31.48-18.175-4.308,2.487c-.182.106-.186.276-.007.379l4.547,2.624a.724.724,0,0,0,.657,0l4.308-2.487c.182-.105.185-.275.005-.379l-4.545-2.625a.726.726,0,0,0-.657,0m-25.184,14.54-4.307,2.487c-.182.105-.186.276-.006.379l4.546,2.625a.725.725,0,0,0,.656,0l4.308-2.487c.183-.106.185-.276.005-.379l-4.545-2.626a.727.727,0,0,0-.657,0M148.7,256.378l-4.308,2.488c-.183.105-.186.276-.007.379l4.546,2.625a.729.729,0,0,0,.657,0l4.307-2.488c.184-.105.187-.275.007-.379l-4.545-2.625a.729.729,0,0,0-.657,0M136.1,263.648l-4.306,2.487c-.184.105-.187.276-.008.379l4.546,2.625a.726.726,0,0,0,.657,0l4.307-2.487c.184-.106.187-.276.008-.379l-4.547-2.624a.724.724,0,0,0-.657,0m-6.3,3.635L125.5,269.77c-.183.105-.186.276-.007.379l4.547,2.625a.729.729,0,0,0,.657,0L135,270.283c.182-.106.186-.276.006-.379l-4.546-2.625a.729.729,0,0,0-.657,0m-6.3,3.635L119.2,273.4c-.182.106-.186.276-.007.379l4.547,2.624a.724.724,0,0,0,.657,0l4.308-2.487c.183-.105.185-.276.005-.38l-4.545-2.624a.729.729,0,0,0-.657,0m30.447,3.421,4.308-2.487c.182-.105.185-.276.007-.379l-4.547-2.625a.726.726,0,0,0-.657,0l-4.308,2.487c-.182.106-.186.276-.006.379l4.546,2.624a.724.724,0,0,0,.657,0m57.035-53.928-4.306,2.488c-.184.105-.187.275-.008.379l4.546,2.624a.726.726,0,0,0,.657,0l4.307-2.487c.184-.105.187-.275.007-.379l-4.546-2.625a.726.726,0,0,0-.657,0m-7.62,4.4-4.309,2.488c-.182.105-.186.275-.006.379L203.6,230.3a.728.728,0,0,0,.657,0l4.307-2.487c.182-.106.186-.276.006-.379l-4.546-2.625a.723.723,0,0,0-.655,0m13.917-8.035-4.306,2.487c-.184.105-.186.275-.008.379l4.547,2.624a.725.725,0,0,0,.656,0l4.308-2.487c.183-.106.187-.276.007-.379l-4.546-2.625a.726.726,0,0,0-.657,0m-33.707,32.96,4.309-2.487c.183-.106.186-.276.006-.379l-4.546-2.625a.726.726,0,0,0-.657,0l-4.308,2.487c-.182.106-.185.276-.007.379l4.547,2.625a.725.725,0,0,0,.656,0m40.66-36.6a.728.728,0,0,0-.657,0l-4.307,2.487c-.182.106-.186.275-.007.379l4.547,2.625a.723.723,0,0,0,.655,0l4.308-2.487c.184-.106.187-.276.007-.379ZM160.255,270.7l4.306-2.488c.184-.105.186-.275.007-.379l-4.545-2.625a.729.729,0,0,0-.657,0l-4.308,2.488c-.183.105-.186.275-.007.379l4.547,2.624a.726.726,0,0,0,.657,0m77.209-44.578,4.308-2.486c.183-.106.186-.276.006-.379l-4.545-2.624a.724.724,0,0,0-.657,0l-4.308,2.487c-.182.105-.186.276-.007.379l4.547,2.624a.725.725,0,0,0,.656,0m-12.79-.114,4.308-2.488c.183-.105.186-.275.005-.379l-4.546-2.624a.723.723,0,0,0-.655,0l-4.308,2.488c-.183.105-.187.275-.007.379l4.546,2.625a.726.726,0,0,0,.657,0m6.063-9.126a.725.725,0,0,0-.656,0l-4.308,2.487c-.182.106-.186.276-.007.379l4.547,2.625a.723.723,0,0,0,.655,0l4.309-2.487c.182-.106.185-.276.005-.379Zm1.326-.765L243.1,222.5a.723.723,0,0,0,.655,0L248.067,220c.183-.105.186-.275.007-.379l-11.041-6.375a.727.727,0,0,0-.656,0l-4.308,2.487c-.183.106-.186.276-.007.379m-14.573,8.039-4.308,2.488c-.183.105-.186.275-.007.379l4.546,2.624a.725.725,0,0,0,.657,0l4.306-2.487c.183-.106.186-.276.008-.379l-4.547-2.625a.727.727,0,0,0-.656,0M170.1,251.518l-4.307,2.488c-.184.105-.187.275-.007.378l4.547,2.625a.721.721,0,0,0,.655,0l4.308-2.487c.183-.105.186-.275.007-.379l-4.547-2.625a.725.725,0,0,0-.656,0m60.41-21.752a.728.728,0,0,0,.655,0l4.308-2.488c.184-.105.187-.275.007-.379l-4.547-2.625a.727.727,0,0,0-.656,0l-4.308,2.488c-.182.105-.186.276-.006.379ZM176.4,247.884l-4.306,2.487c-.184.106-.186.276-.007.379l4.545,2.625a.726.726,0,0,0,.657,0l4.308-2.488c.182-.105.186-.275.007-.378l-4.547-2.625a.724.724,0,0,0-.657,0m-48.28,41a.729.729,0,0,0,.657,0l4.307-2.488c.182-.105.187-.275.008-.379l-4.548-2.625a.725.725,0,0,0-.655,0l-4.308,2.488c-.183.105-.186.276-.007.379Zm-8.384-8.285-4.307,2.488c-.183.105-.186.276-.006.379l4.545,2.625a.726.726,0,0,0,.657,0l4.308-2.487c.183-.105.186-.275.006-.379l-4.546-2.625a.729.729,0,0,0-.657,0m15.337,4.645,4.306-2.487c.183-.106.188-.276.008-.379l-4.547-2.624a.726.726,0,0,0-.657,0l-4.308,2.487c-.183.106-.186.276-.007.379l4.547,2.625a.729.729,0,0,0,.657,0m6.295-3.635,4.308-2.487c.184-.106.186-.276.007-.379l-4.545-2.625a.729.729,0,0,0-.657,0l-4.308,2.487c-.183.106-.186.276-.007.379l4.547,2.624a.723.723,0,0,0,.655,0m6.3-3.635,4.307-2.487c.184-.106.186-.276.008-.379l-4.548-2.624a.722.722,0,0,0-.656,0l-4.308,2.487c-.182.105-.186.276-.006.379l4.546,2.625a.729.729,0,0,0,.657,0m-21.632-1.01-4.307,2.487c-.182.105-.186.276-.008.379l4.547,2.625a.727.727,0,0,0,.656,0l4.309-2.487c.182-.105.186-.276.006-.38l-4.547-2.624a.722.722,0,0,0-.656,0m6.3-3.635-4.308,2.487c-.184.106-.187.276-.008.379l4.546,2.625a.724.724,0,0,0,.657,0l4.308-2.487c.182-.105.186-.275.007-.379l-4.547-2.625a.725.725,0,0,0-.655,0m25.183-14.54-4.308,2.487c-.182.106-.185.275-.005.379l4.545,2.625a.725.725,0,0,0,.656,0l4.309-2.487c.182-.105.186-.275.006-.379l-4.546-2.624a.724.724,0,0,0-.657,0m-6.295,3.635-4.308,2.488c-.182.105-.187.275-.008.379l4.546,2.624a.726.726,0,0,0,.657,0l4.308-2.487c.182-.105.186-.275.007-.379l-4.547-2.625a.723.723,0,0,0-.655,0m12.591-7.27-4.308,2.487c-.183.106-.185.276-.005.379l4.545,2.625a.725.725,0,0,0,.656,0L169,258.153c.182-.105.186-.275.006-.378l-4.547-2.625a.725.725,0,0,0-.656,0m-25.183,14.54-4.308,2.488c-.184.105-.186.276-.007.379l4.545,2.624a.724.724,0,0,0,.657,0l4.308-2.487c.182-.105.186-.275.006-.379l-4.546-2.624a.723.723,0,0,0-.655,0m6.295-3.635-4.308,2.487c-.182.106-.186.276-.005.379l4.545,2.625a.725.725,0,0,0,.656,0l4.308-2.487c.183-.106.186-.276.007-.379l-4.547-2.625a.725.725,0,0,0-.656,0m-6.336,24.657,4.308-2.487c.183-.106.186-.275.007-.379l-4.547-2.625a.723.723,0,0,0-.656,0l-4.307,2.487c-.182.106-.186.276-.007.379l4.547,2.625a.725.725,0,0,0,.655,0m-35.051-2.637-4.547-2.624a.725.725,0,0,0-.656,0l-4.308,2.487c-.183.105-.186.275-.006.379l4.546,2.625a.727.727,0,0,0,.656,0l4.308-2.487c.183-.106.186-.276.007-.38m8.814,2.411-4.546-2.625a.722.722,0,0,0-.656,0l-6.628,3.826c-.183.105-.186.276-.006.379l4.546,2.624a.725.725,0,0,0,.656,0l6.627-3.826c.184-.106.186-.276.007-.379m-15.7-7.536L92.1,280.33a.722.722,0,0,0-.656,0l-5.3,3.061c-.183.105-.186.276-.007.379l4.546,2.624a.722.722,0,0,0,.656,0l5.3-3.061c.182-.1.186-.275.006-.379m4.065-2.346a.725.725,0,0,0,.656,0l4.307-2.488c.183-.105.186-.275.007-.378l-4.546-2.625a.726.726,0,0,0-.657,0L96.167,277.6c-.183.106-.186.275-.007.379ZM120.5,293.283l-4.545-2.625a.722.722,0,0,0-.656,0l-8.285,4.783c-.182.106-.186.275-.006.379l4.546,2.625a.727.727,0,0,0,.656,0l8.285-4.783c.182-.106.185-.276.005-.379m3.513,5.471-4.547-2.624a.722.722,0,0,0-.656,0l-5.3,3.061c-.182.105-.185.276-.005.379l4.546,2.625a.726.726,0,0,0,.655,0l5.3-3.061c.183-.106.186-.276.007-.38m23.509-45.173a.722.722,0,0,0,.656,0l4.309-2.487c.182-.105.186-.275.006-.379l-4.546-2.625a.726.726,0,0,0-.657,0l-4.308,2.487c-.182.106-.185.276-.005.379Zm-12.593,7.271a.726.726,0,0,0,.657,0l4.308-2.487c.183-.105.186-.275.007-.379l-4.547-2.625a.727.727,0,0,0-.656,0l-4.307,2.487c-.184.106-.186.276-.008.379ZM107,276.972a.722.722,0,0,0,.656,0l4.307-2.487c.184-.105.187-.276.008-.379l-4.546-2.625a.729.729,0,0,0-.657,0l-4.307,2.488c-.183.105-.186.275-.007.379Zm34.219-19.756a.729.729,0,0,0,.657,0l4.308-2.488c.182-.105.186-.275.007-.379l-4.547-2.624a.721.721,0,0,0-.655,0l-4.308,2.487c-.184.105-.187.276-.008.379Zm-12.592,7.27a.729.729,0,0,0,.657,0L133.594,262c.183-.105.186-.276.005-.379l-4.545-2.624a.729.729,0,0,0-.657,0l-4.308,2.487c-.183.106-.185.276-.005.379Zm-1.346,34.629a.724.724,0,0,0-.657,0L120,302.945c-.182.105-.185.275-.005.379l4.545,2.624a.724.724,0,0,0,.657,0l6.627-3.826c.184-.105.186-.275.006-.379Zm-7.69-29.412a.726.726,0,0,0,.657,0l4.308-2.487c.183-.106.186-.276.006-.379l-4.546-2.624a.723.723,0,0,0-.655,0l-4.308,2.487c-.183.105-.186.276-.007.379Zm-6.295,3.635a.727.727,0,0,0,.656,0l4.307-2.488c.183-.105.186-.275.007-.378l-4.546-2.625a.722.722,0,0,0-.656,0l-4.308,2.487c-.183.105-.186.275-.006.379Zm130.625-41.566a.725.725,0,0,0-.656,0l-10.6,6.122c-.183.106-.186.276-.007.379l4.548,2.624a.721.721,0,0,0,.655,0l10.6-6.122c.182-.105.186-.275.007-.379Zm-13.917,8.035a.729.729,0,0,0-.657,0l-4.308,2.487c-.182.106-.186.276-.006.379l4.546,2.624a.722.722,0,0,0,.656,0l4.308-2.487c.184-.105.186-.276.006-.379Zm-85.13,47.274,4.308-2.487c.182-.105.186-.275.006-.379l-4.546-2.625a.723.723,0,0,0-.655,0l-4.308,2.488c-.184.105-.186.275-.007.379l4.545,2.625a.726.726,0,0,0,.657,0m72.538-40a.73.73,0,0,0-.657,0l-4.307,2.487c-.182.106-.186.276-.007.38l4.547,2.625a.725.725,0,0,0,.655,0l4.308-2.488c.184-.105.186-.276.007-.379Zm32.8-18.94a.725.725,0,0,0-.656,0l-4.308,2.488c-.182.105-.186.276-.006.379l4.547,2.625a.725.725,0,0,0,.655,0l4.309-2.487c.182-.106.185-.276.007-.379Zm10.843-1.01-11.042-6.375a.723.723,0,0,0-.655,0l-4.308,2.488c-.184.105-.187.275-.007.378L256.092,230a.728.728,0,0,0,.657,0l4.307-2.488c.182-.105.186-.276.007-.379M193.889,260.66a.726.726,0,0,0-.657,0l-5.3,3.061c-.182.105-.186.276-.006.379l4.547,2.625a.726.726,0,0,0,.655,0l5.3-3.061c.183-.105.186-.276.007-.379Zm15.9-9.183a.723.723,0,0,0-.655,0l-6.628,3.827c-.182.105-.186.275-.006.378l4.547,2.625a.725.725,0,0,0,.656,0l6.627-3.826c.183-.105.186-.275.007-.379Zm-30.486,17.6a.724.724,0,0,0-.657,0L143.2,289.553c-.184.105-.187.275-.008.378l4.546,2.625a.724.724,0,0,0,.657,0l35.456-20.47c.183-.106.186-.276.007-.379ZM141.863,290.7a.725.725,0,0,0-.656,0l-5.3,3.061c-.183.105-.186.276-.007.379l4.547,2.625a.723.723,0,0,0,.655,0l5.3-3.061c.183-.105.186-.275.007-.378ZM186.6,264.868a.725.725,0,0,0-.655,0l-5.3,3.061c-.182.106-.187.276-.007.379l4.547,2.624a.721.721,0,0,0,.655,0l5.3-3.061c.184-.105.186-.275.006-.379Zm-52.024,30.037a.729.729,0,0,0-.657,0l-5.3,3.061c-.182.106-.186.276-.006.379l4.546,2.625a.724.724,0,0,0,.657,0l5.3-3.061c.183-.105.186-.275.007-.379Zm66.606-38.454a.724.724,0,0,0-.657,0l-5.3,3.061c-.183.105-.186.275-.007.379l4.547,2.624a.721.721,0,0,0,.655,0l5.3-3.061c.184-.105.187-.275.007-.379Zm22.533-13.01a.73.73,0,0,0-.657,0l-4.308,2.488c-.182.105-.186.275-.006.379l4.547,2.625a.723.723,0,0,0,.655,0l4.308-2.486c.184-.106.186-.276.007-.379Zm13.949-9.929,4.308-2.487c.183-.105.186-.276.007-.379l-4.547-2.624a.721.721,0,0,0-.655,0l-4.308,2.487c-.183.105-.186.275-.006.379l4.545,2.624a.722.722,0,0,0,.656,0m-26.907.536,4.308-2.487c.182-.105.186-.276.007-.379l-4.547-2.625a.723.723,0,0,0-.655,0l-4.308,2.487c-.184.106-.186.276-.007.379l4.545,2.624a.724.724,0,0,0,.657,0M195.246,258l12.593-7.27c.184-.105.186-.276.007-.379l-4.547-2.625a.726.726,0,0,0-.655,0L190.051,255c-.182.105-.186.275-.006.379L194.59,258a.722.722,0,0,0,.656,0m35.463-20.85a.725.725,0,0,0,.656,0l4.308-2.487c.183-.106.186-.276.007-.379l-4.546-2.625a.723.723,0,0,0-.655,0l-4.309,2.488c-.183.105-.186.275-.006.378Zm-5.838-3.754,4.308-2.487c.183-.105.186-.276.006-.379l-4.545-2.625a.726.726,0,0,0-.657,0l-4.308,2.487c-.182.106-.186.276-.007.379l4.547,2.625a.722.722,0,0,0,.656,0m-35.921,28.239,4.308-2.488c.182-.105.186-.275.007-.378l-4.547-2.625a.726.726,0,0,0-.657,0l-4.306,2.487c-.184.106-.186.276-.007.379l4.545,2.625a.729.729,0,0,0,.657,0m27.842-16.449a.729.729,0,0,0,.657,0l4.308-2.488c.182-.105.185-.275.007-.379l-4.548-2.624a.722.722,0,0,0-.656,0l-4.308,2.487c-.182.105-.186.275-.006.379ZM157.47,279.81l4.308-2.487c.183-.106.186-.276.007-.379l-4.547-2.625a.725.725,0,0,0-.656,0l-4.307,2.488c-.182.105-.186.275-.008.378l4.547,2.625a.725.725,0,0,0,.656,0m6.3-3.635,4.308-2.487c.182-.105.186-.275.007-.379l-4.547-2.625a.723.723,0,0,0-.655,0l-4.308,2.487c-.182.105-.186.275-.007.379l4.547,2.624a.721.721,0,0,0,.655,0m-12.592,7.271,4.307-2.488c.183-.105.186-.275.007-.379l-4.546-2.624a.724.724,0,0,0-.657,0l-4.307,2.487c-.182.105-.186.275-.006.379l4.545,2.625a.729.729,0,0,0,.657,0m25.184-14.54,4.308-2.487c.183-.105.186-.276.007-.379l-4.546-2.625a.726.726,0,0,0-.657,0l-4.307,2.487c-.182.106-.186.276-.006.379l4.545,2.625a.725.725,0,0,0,.656,0m-6.3,3.635,4.309-2.487c.182-.106.186-.276.006-.379l-4.546-2.625a.724.724,0,0,0-.657,0l-4.308,2.487c-.182.105-.185.276-.005.379l4.547,2.625a.724.724,0,0,0,.654,0m12.593-7.271,4.308-2.487c.182-.105.186-.276.007-.379l-4.547-2.624a.721.721,0,0,0-.655,0l-4.308,2.487c-.184.105-.187.275-.007.379L182,265.275a.726.726,0,0,0,.657,0m31.612-52.152a.729.729,0,0,0,.657,0l4.307-2.488c.183-.105.187-.275.007-.379l-1.21-.7a.725.725,0,0,0-.656,0l-4.307,2.488c-.183.105-.186.275-.007.378Zm-31.136,19.9a.723.723,0,0,0,.655,0l4.308-2.487c.182-.105.186-.276.006-.379l-4.546-2.625a.723.723,0,0,0-.655,0l-4.308,2.487c-.184.106-.186.276-.007.38Zm12.592-7.27a.723.723,0,0,0,.655,0l4.308-2.487c.183-.106.186-.276.007-.379l-4.547-2.624a.723.723,0,0,0-.655,0l-4.308,2.487c-.182.105-.186.276-.007.379Zm-20.28,11.708a.721.721,0,0,0,.655,0l4.308-2.487c.184-.105.186-.276.007-.379l-4.545-2.625a.729.729,0,0,0-.657,0l-4.308,2.488c-.183.105-.186.275-.007.379Zm13.983-8.073a.73.73,0,0,0,.657,0l4.307-2.488c.182-.105.186-.276.006-.379l-4.546-2.624a.723.723,0,0,0-.655,0l-4.309,2.488c-.182.105-.186.275-.006.379ZM162.849,244.73a.726.726,0,0,0,.657,0l4.307-2.487c.184-.105.186-.275.008-.379l-4.548-2.624a.722.722,0,0,0-.656,0l-4.308,2.487c-.182.106-.186.275-.006.379Zm6.3-3.635a.726.726,0,0,0,.657,0l4.308-2.488c.182-.105.185-.275.005-.378L169.57,235.6a.726.726,0,0,0-.657,0l-4.308,2.487c-.182.106-.186.275-.007.379Zm32.529-20.707a.727.727,0,0,0,.656,0l4.309-2.488c.182-.105.186-.275.006-.379l-1.209-.7a.729.729,0,0,0-.657,0l-4.308,2.488c-.182.105-.186.275-.007.378Zm18.888-10.905a.727.727,0,0,0,.656,0l4.308-2.487c.183-.106.186-.276.007-.379l-1.209-.7a.728.728,0,0,0-.657,0l-4.307,2.487c-.183.105-.186.275-.007.379ZM230.113,215a.722.722,0,0,0,.656,0l4.308-2.487c.184-.106.187-.276.007-.379l-4.546-2.625a.726.726,0,0,0-.657,0l-4.308,2.488c-.182.105-.186.275-.006.378Zm13.845,14.881,4.308-2.488c.182-.105.186-.275.007-.378l-4.547-2.625a.723.723,0,0,0-.655,0l-4.308,2.487c-.184.105-.187.275-.007.379l4.545,2.625a.726.726,0,0,0,.657,0m-35.986-13.125a.721.721,0,0,0,.655,0l4.309-2.487c.182-.105.186-.276.006-.379l-1.211-.7a.721.721,0,0,0-.655,0l-4.308,2.487c-.182.106-.186.275-.007.379Zm-51.418,31.612a.723.723,0,0,0,.655,0l4.308-2.487c.184-.106.186-.276.007-.379l-4.547-2.625a.723.723,0,0,0-.655,0l-4.309,2.488c-.182.105-.186.275-.006.378Z" transform="translate(-20.334 -48.669)" fill="#455a64"/>
            <path id="Trazado_228859" data-name="Trazado 228859" d="M208.331,302.914l38.8-22.4a4.681,4.681,0,0,1,4.235,0l22.249,12.845a1.291,1.291,0,0,1,0,2.445l-38.8,22.4a4.681,4.681,0,0,1-4.235,0l-22.249-12.845a1.291,1.291,0,0,1,0-2.445" transform="translate(-49.051 -66.206)" fill="#263238"/>
          </g>
        </g>
        <g id="Grupo_115024" data-name="Grupo 115024">
          <g id="Grupo_115023" data-name="Grupo 115023" clip-path="url(#clip-path)">
            <path id="Trazado_228860" data-name="Trazado 228860" d="M176.146,85.627c-12.13,10.892-22.605,10.321-29.154,5.278-6.542,12.606-17.017,25.268-29.147,28.381l-6.925,18.7s3.712,4.277,3.712,14.51a50.941,50.941,0,0,1-1.714,12.694c-1.264,5.05-2.892,10.274-2.892,18.995,0,5.917.78,11.666,3.772,16.9a20.839,20.839,0,0,0,7.584,7.6c-2.239-1.29-8.828-5.1-10.529-6.078a21.019,21.019,0,0,1-7.981-7.826c-2.992-5.238-3.772-10.98-3.772-16.9,0-8.721,1.627-13.945,2.891-19a50.813,50.813,0,0,0,1.722-12.688c0-10.233-3.712-14.51-3.712-14.51l6.919-18.7c12.13-3.113,22.605-15.774,29.147-28.381,6.549,5.043,17.024,5.614,29.154-5.278Z" transform="translate(-23.431 -18.755)" fill="#4dd0e1"/>
            <g id="Grupo_114983" data-name="Grupo 114983" transform="translate(112.634 65.844)" opacity="0.8">
              <g id="Grupo_114982" data-name="Grupo 114982">
                <g id="Grupo_114981" data-name="Grupo 114981" clip-path="url(#clip-path-10)">
                  <path id="Trazado_228861" data-name="Trazado 228861" d="M151.354,88.45l-3.84-2.217a16.721,16.721,0,0,0,3.84,2.217" transform="translate(-147.513 -86.233)" fill="#fff"/>
                </g>
              </g>
            </g>
            <g id="Grupo_114986" data-name="Grupo 114986" transform="translate(116.475 60.565)" opacity="0.85">
              <g id="Grupo_114985" data-name="Grupo 114985">
                <g id="Grupo_114984" data-name="Grupo 114984" clip-path="url(#clip-path-11)">
                  <path id="Trazado_228862" data-name="Trazado 228862" d="M177.856,79.32c-9.98,8.963-18.839,10.16-25.313,7.5l7.086,4.09c6.549,5.043,17.024,5.614,29.153-5.278Z" transform="translate(-152.543 -79.32)" fill="#fff"/>
                </g>
              </g>
            </g>
            <g id="Grupo_114989" data-name="Grupo 114989" transform="translate(83.487 65.844)" opacity="0.65">
              <g id="Grupo_114988" data-name="Grupo 114988">
                <g id="Grupo_114987" data-name="Grupo 114987" clip-path="url(#clip-path-12)">
                  <path id="Trazado_228863" data-name="Trazado 228863" d="M138.487,86.233C131.945,98.84,121.47,111.5,109.34,114.614l10.926,6.307c12.13-3.113,22.605-15.774,29.147-28.381Z" transform="translate(-109.34 -86.233)" fill="#fff"/>
                </g>
              </g>
            </g>
            <g id="Grupo_114992" data-name="Grupo 114992" transform="translate(76.569 94.224)" opacity="0.55">
              <g id="Grupo_114991" data-name="Grupo 114991">
                <g id="Grupo_114990" data-name="Grupo 114990" clip-path="url(#clip-path-13)">
                  <path id="Trazado_228864" data-name="Trazado 228864" d="M107.2,123.4l-6.919,18.706,10.919,6.307,6.925-18.706Z" transform="translate(-100.279 -123.402)" fill="#fff"/>
                </g>
              </g>
            </g>
            <g id="Grupo_114995" data-name="Grupo 114995" transform="translate(75.668 112.929)" opacity="0.4">
              <g id="Grupo_114994" data-name="Grupo 114994">
                <g id="Grupo_114993" data-name="Grupo 114993" clip-path="url(#clip-path-14)">
                  <path id="Trazado_228865" data-name="Trazado 228865" d="M113.8,217.3c-2.992-5.231-3.772-10.98-3.772-16.9,0-8.721,1.627-13.945,2.891-18.994a50.916,50.916,0,0,0,1.715-12.695c0-10.233-3.712-14.509-3.712-14.509L100,147.9s3.712,4.276,3.712,14.51a50.812,50.812,0,0,1-1.721,12.687c-1.264,5.056-2.891,10.281-2.891,19,0,5.917.78,11.659,3.772,16.9a21.019,21.019,0,0,0,7.981,7.826c1.7.982,8.291,4.788,10.529,6.079a20.835,20.835,0,0,1-7.584-7.6" transform="translate(-99.099 -147.899)" fill="#fff"/>
                </g>
              </g>
            </g>
            <g id="Grupo_114998" data-name="Grupo 114998" transform="translate(75.668 112.929)" opacity="0.05">
              <g id="Grupo_114997" data-name="Grupo 114997">
                <g id="Grupo_114996" data-name="Grupo 114996" clip-path="url(#clip-path-14)">
                  <path id="Trazado_228866" data-name="Trazado 228866" d="M113.8,217.3c-2.992-5.231-3.772-10.98-3.772-16.9,0-8.721,1.627-13.945,2.891-18.994a50.916,50.916,0,0,0,1.715-12.695c0-10.233-3.712-14.509-3.712-14.509L100,147.9s3.712,4.276,3.712,14.51a50.812,50.812,0,0,1-1.721,12.687c-1.264,5.056-2.891,10.281-2.891,19,0,5.917.78,11.659,3.772,16.9a21.019,21.019,0,0,0,7.981,7.826c1.7.982,8.291,4.788,10.529,6.079a20.835,20.835,0,0,1-7.584-7.6" transform="translate(-99.099 -147.899)"/>
                </g>
              </g>
            </g>
            <path id="Trazado_228867" data-name="Trazado 228867" d="M150.378,215.851c-18.117.2-28.494-4.577-33.2-12.813-2.989-5.233-3.769-10.98-3.769-16.9,0-8.72,1.623-13.942,2.889-19a50.879,50.879,0,0,0,1.719-12.688c0-10.234-3.712-14.51-3.712-14.51l6.922-18.709c12.129-3.113,22.6-15.777,29.15-28.383,6.546,5.048,17.021,5.615,29.15-5.277L186.449,98.3a52.683,52.683,0,0,0-3.712,18.795,30.665,30.665,0,0,0,1.719,10.7,37.32,37.32,0,0,1,2.889,15.661,62.769,62.769,0,0,1-3.769,21.248c-4.7,13.668-15.082,30.429-33.2,51.148" transform="translate(-26.815 -20.708)" fill="#4dd0e1"/>
            <g id="Grupo_115001" data-name="Grupo 115001" transform="translate(86.596 66.871)" opacity="0.75">
              <g id="Grupo_115000" data-name="Grupo 115000">
                <g id="Grupo_114999" data-name="Grupo 114999" clip-path="url(#clip-path-16)">
                  <path id="Trazado_228868" data-name="Trazado 228868" d="M150.378,215.851c-18.117.2-28.494-4.577-33.2-12.813-2.989-5.233-3.769-10.98-3.769-16.9,0-8.72,1.623-13.942,2.889-19a50.879,50.879,0,0,0,1.719-12.688c0-10.234-3.712-14.51-3.712-14.51l6.922-18.709c12.129-3.113,22.6-15.777,29.15-28.383,6.546,5.048,17.021,5.615,29.15-5.277L186.449,98.3a52.683,52.683,0,0,0-3.712,18.795,30.665,30.665,0,0,0,1.719,10.7,37.32,37.32,0,0,1,2.889,15.661,62.769,62.769,0,0,1-3.769,21.248c-4.7,13.668-15.082,30.429-33.2,51.148" transform="translate(-113.411 -87.579)" fill="#fff"/>
                </g>
              </g>
            </g>
            <g id="Grupo_115004" data-name="Grupo 115004" transform="translate(91.302 73.827)" opacity="0.75">
              <g id="Grupo_115003" data-name="Grupo 115003">
                <g id="Grupo_115002" data-name="Grupo 115002" clip-path="url(#clip-path-17)">
                  <path id="Trazado_228869" data-name="Trazado 228869" d="M149.69,213.3c-14.033-.166-23.1-3.677-26.967-10.44-2.177-3.813-3.148-8.3-3.148-14.563a58.03,58.03,0,0,1,2.31-16.139q.223-.865.438-1.714a55.046,55.046,0,0,0,1.86-13.832c0-7.455-1.787-12.338-3.2-15.038l5.311-14.356c12.982-4.513,22.365-17.331,27.336-25.739a21.5,21.5,0,0,0,8.471,1.712c5.866,0,11.829-2.183,17.779-6.5l2.792,4.321a57.749,57.749,0,0,0-3.177,18.235,35.389,35.389,0,0,0,1.985,12.268c.147.415.3.825.448,1.24,1.118,3.05,2.173,5.933,2.173,12.857a58.315,58.315,0,0,1-3.512,19.716c-4.629,13.453-15.021,29.587-30.893,47.973" transform="translate(-119.575 -96.688)" fill="#4dd0e1"/>
                </g>
              </g>
            </g>
            <g id="Grupo_115007" data-name="Grupo 115007" transform="translate(91.302 73.827)" opacity="0.4">
              <g id="Grupo_115006" data-name="Grupo 115006">
                <g id="Grupo_115005" data-name="Grupo 115005" clip-path="url(#clip-path-17)">
                  <path id="Trazado_228870" data-name="Trazado 228870" d="M149.69,213.3c-14.033-.166-23.1-3.677-26.967-10.44-2.177-3.813-3.148-8.3-3.148-14.563a58.03,58.03,0,0,1,2.31-16.139q.223-.865.438-1.714a55.046,55.046,0,0,0,1.86-13.832c0-7.455-1.787-12.338-3.2-15.038l5.311-14.356c12.982-4.513,22.365-17.331,27.336-25.739a21.5,21.5,0,0,0,8.471,1.712c5.866,0,11.829-2.183,17.779-6.5l2.792,4.321a57.749,57.749,0,0,0-3.177,18.235,35.389,35.389,0,0,0,1.985,12.268c.147.415.3.825.448,1.24,1.118,3.05,2.173,5.933,2.173,12.857a58.315,58.315,0,0,1-3.512,19.716c-4.629,13.453-15.021,29.587-30.893,47.973" transform="translate(-119.575 -96.688)" fill="#fff"/>
                </g>
              </g>
            </g>
            <g id="Grupo_115010" data-name="Grupo 115010" transform="translate(91.302 73.827)" opacity="0.15">
              <g id="Grupo_115009" data-name="Grupo 115009">
                <g id="Grupo_115008" data-name="Grupo 115008" clip-path="url(#clip-path-17)">
                  <path id="Trazado_228871" data-name="Trazado 228871" d="M149.69,213.3c-14.033-.166-23.1-3.677-26.967-10.44-2.177-3.813-3.148-8.3-3.148-14.563a58.03,58.03,0,0,1,2.31-16.139q.223-.865.438-1.714a55.046,55.046,0,0,0,1.86-13.832c0-7.455-1.787-12.338-3.2-15.038l5.311-14.356c12.982-4.513,22.365-17.331,27.336-25.739a21.5,21.5,0,0,0,8.471,1.712c5.866,0,11.829-2.183,17.779-6.5l2.792,4.321a57.749,57.749,0,0,0-3.177,18.235,35.389,35.389,0,0,0,1.985,12.268c.147.415.3.825.448,1.24,1.118,3.05,2.173,5.933,2.173,12.857a58.315,58.315,0,0,1-3.512,19.716c-4.629,13.453-15.021,29.587-30.893,47.973" transform="translate(-119.575 -96.688)"/>
                </g>
              </g>
            </g>
            <g id="Grupo_115013" data-name="Grupo 115013" transform="translate(97.665 183.887)" opacity="0.8">
              <g id="Grupo_115012" data-name="Grupo 115012">
                <g id="Grupo_115011" data-name="Grupo 115011" clip-path="url(#clip-path-20)">
                  <path id="Trazado_228872" data-name="Trazado 228872" d="M127.908,240.83c4.78,4.215,12.727,6.419,23.753,6.55l-7.037-4.009a51.565,51.565,0,0,1-16.716-2.541" transform="translate(-127.908 -240.83)" fill="#fff"/>
                </g>
              </g>
            </g>
            <g id="Grupo_115016" data-name="Grupo 115016" transform="translate(150.012 73.827)" opacity="0.15">
              <g id="Grupo_115015" data-name="Grupo 115015">
                <g id="Grupo_115014" data-name="Grupo 115014" clip-path="url(#clip-path-21)">
                  <path id="Trazado_228873" data-name="Trazado 228873" d="M197.183,98.9l3.664,2.114-2.792-4.322-1.59,1.1Z" transform="translate(-196.465 -96.688)"/>
                </g>
              </g>
            </g>
            <path id="Trazado_228874" data-name="Trazado 228874" d="M177.811,129.738a35.379,35.379,0,0,1-1.985-12.267A57.749,57.749,0,0,1,179,99.235l-.718-1.11c-5.421,3.586-10.845,5.4-16.189,5.4a21.493,21.493,0,0,1-8.47-1.712c-4.971,8.408-14.354,21.226-27.337,25.739l-5.311,14.356c1.418,2.7,3.2,7.583,3.2,15.039a55.1,55.1,0,0,1-1.86,13.832c-.142.567-.289,1.137-.438,1.714a58.03,58.03,0,0,0-2.31,16.139c0,6.258.971,10.749,3.148,14.562a15.784,15.784,0,0,0,4.568,4.969q7.035,3.207,18.735,3.357C161.9,193.137,172.29,177,176.92,163.551a58.312,58.312,0,0,0,3.512-19.716c0-6.924-1.055-9.806-2.173-12.857-.151-.415-.3-.825-.448-1.241" transform="translate(-28.273 -23.201)" fill="#455a64"/>
            <path id="Trazado_228875" data-name="Trazado 228875" d="M126.289,128.7l-5.311,14.356c1.418,2.7,3.2,7.583,3.2,15.038a55.051,55.051,0,0,1-1.86,13.832c-.141.567-.289,1.138-.437,1.714a58.026,58.026,0,0,0-2.311,16.139c0,6.258.971,10.749,3.149,14.563a15.784,15.784,0,0,0,4.568,4.969q7.035,3.207,18.735,3.357v-52.9l7.6-2.3V102.959a84.14,84.14,0,0,1-7.6,10.875c-5.08,6.126-11.721,12.078-19.737,14.865" transform="translate(-28.273 -24.344)" fill="#37474f"/>
            <path id="Trazado_228876" data-name="Trazado 228876" d="M167.621,145.593a2.109,2.109,0,0,0-.288-.416c-.013-.015-.023-.03-.036-.044a3.28,3.28,0,0,0-.79-.618l-2.546-1.47a5.383,5.383,0,0,0-1.463-.561,7.157,7.157,0,0,0-.933-.147V134.8c0-3.776-1.427-6.765-3.915-8.2-2.375-1.371-5.311-1.186-8.271.522-5.434,3.138-9.691,10.794-9.691,17.43v8.892l-5.065,2.924a3.566,3.566,0,0,0-.431.293c-.046.036-.095.071-.137.108-.011.009-.02.02-.031.029a1.873,1.873,0,0,0-.7,1.379v30.486a1.514,1.514,0,0,0,.056.393,2.248,2.248,0,0,0,.956,1.236c.089.063.182.123.283.181l1.238.715,1.31.757a5.463,5.463,0,0,0,1.635.589,6.914,6.914,0,0,0,4.616-.591l23.084-13.327a2.2,2.2,0,0,0,1.295-1.805V146.321a1.577,1.577,0,0,0-.182-.728m-22.943-1.038c0-4.853,3.3-10.856,7.2-13.109,1.33-.767,2.526-.958,3.282-.523.89.514,1.42,1.965,1.42,3.881V143.7l-6.564,3.79-5.334,3.079Z" transform="translate(-31.525 -29.72)" fill="#263238"/>
            <path id="Trazado_228877" data-name="Trazado 228877" d="M171.326,153.222a2.2,2.2,0,0,0-1.295-1.806l-2.547-1.47a6.912,6.912,0,0,0-6.254,0l-23.083,13.327a2.2,2.2,0,0,0-1.3,1.808v30.486a2.194,2.194,0,0,0,1.3,1.81l2.546,1.47a6.913,6.913,0,0,0,6.255,0l23.084-13.327a2.2,2.2,0,0,0,1.295-1.805Z" transform="translate(-32.358 -35.277)" fill="#4dd0e1"/>
            <g id="Grupo_115019" data-name="Grupo 115019" transform="translate(104.493 113.921)" opacity="0.4">
              <g id="Grupo_115018" data-name="Grupo 115018">
                <g id="Grupo_115017" data-name="Grupo 115017" clip-path="url(#clip-path-22)">
                  <path id="Trazado_228878" data-name="Trazado 228878" d="M140.692,168.355l-2.546-1.47c-1.727-1-1.727-2.614,0-3.612l23.082-13.327a6.913,6.913,0,0,1,6.255,0l2.546,1.471c1.727,1,1.727,2.614,0,3.611l-23.083,13.327a6.913,6.913,0,0,1-6.255,0" transform="translate(-136.851 -149.198)" fill="#fff"/>
                </g>
              </g>
            </g>
            <g id="Grupo_115022" data-name="Grupo 115022" transform="translate(104.495 129.801)" opacity="0.1">
              <g id="Grupo_115021" data-name="Grupo 115021">
                <g id="Grupo_115020" data-name="Grupo 115020" clip-path="url(#clip-path-23)">
                  <path id="Trazado_228879" data-name="Trazado 228879" d="M143.824,174.019v30.493a6.381,6.381,0,0,1-3.128-.744l-2.55-1.474a2.175,2.175,0,0,1-1.292-1.813V170a2.182,2.182,0,0,0,1.292,1.806l2.55,1.474a6.389,6.389,0,0,0,3.128.744" transform="translate(-136.853 -169.996)"/>
                </g>
              </g>
            </g>
            <path id="Trazado_228880" data-name="Trazado 228880" d="M166.2,190.287l-5.511,3.182.854-9.97a2.6,2.6,0,0,1-1.079-2.438,7.14,7.14,0,0,1,2.981-5.7c1.646-.951,2.981.059,2.981,2.254a7.492,7.492,0,0,1-1.079,3.684Z" transform="translate(-37.942 -41.379)" fill="#455a64"/>
            <path id="Trazado_228881" data-name="Trazado 228881" d="M166.274,194.126l-4.992-2.882-.519,6.064Z" transform="translate(-38.011 -45.218)" fill="#37474f"/>
            <path id="Trazado_228882" data-name="Trazado 228882" d="M163.585,175.364a6.5,6.5,0,0,0-2.542,3.374l4.443,2.566v0a7.485,7.485,0,0,0,1.08-3.684c0-2.2-1.335-3.2-2.981-2.254" transform="translate(-38.078 -41.379)" fill="#37474f"/>
            <path id="Trazado_228883" data-name="Trazado 228883" d="M167.057,148.761v0h0V136.567c0-3.777-1.427-6.766-3.915-8.2-2.375-1.371-5.311-1.185-8.271.522-5.434,3.138-9.691,10.794-9.691,17.43v12.258h0a1.244,1.244,0,0,0,.732,1.018,3.9,3.9,0,0,0,3.525,0,1.244,1.244,0,0,0,.732-1.018V146.317c0-4.853,3.3-10.856,7.2-13.109,1.33-.767,2.526-.958,3.282-.523.89.514,1.42,1.965,1.42,3.882v12.2h0a1.243,1.243,0,0,0,.731,1.009,3.892,3.892,0,0,0,3.525,0,1.244,1.244,0,0,0,.731-1.009h0Z" transform="translate(-34.327 -30.136)" fill="#e0e0e0"/>
          </g>
        </g>
        <path id="Trazado_228884" data-name="Trazado 228884" d="M212.69,224.444l3.36-1.939,1.332-1.613-3.36,1.939Z" transform="translate(-50.289 -52.229)" fill="#4dd0e1"/>
        <g id="Grupo_115029" data-name="Grupo 115029">
          <g id="Grupo_115028" data-name="Grupo 115028" clip-path="url(#clip-path)">
            <g id="Grupo_115027" data-name="Grupo 115027" transform="translate(162.401 168.663)" opacity="0.4">
              <g id="Grupo_115026" data-name="Grupo 115026">
                <g id="Grupo_115025" data-name="Grupo 115025" clip-path="url(#clip-path-25)">
                  <path id="Trazado_228885" data-name="Trazado 228885" d="M212.69,224.444l3.36-1.939,1.332-1.613-3.36,1.939Z" transform="translate(-212.69 -220.892)"/>
                </g>
              </g>
            </g>
          </g>
        </g>
        <path id="Trazado_228886" data-name="Trazado 228886" d="M224.664,231.087l3.36-1.939,2.808-2.485-3.36,1.939Z" transform="translate(-53.12 -53.593)" fill="#4dd0e1"/>
        <g id="Grupo_115055" data-name="Grupo 115055">
          <g id="Grupo_115054" data-name="Grupo 115054" clip-path="url(#clip-path)">
            <g id="Grupo_115032" data-name="Grupo 115032" transform="translate(171.544 173.069)" opacity="0.4">
              <g id="Grupo_115031" data-name="Grupo 115031">
                <g id="Grupo_115030" data-name="Grupo 115030" clip-path="url(#clip-path-27)">
                  <path id="Trazado_228887" data-name="Trazado 228887" d="M224.664,231.087l3.36-1.939,2.808-2.485-3.36,1.939Z" transform="translate(-224.664 -226.662)"/>
                </g>
              </g>
            </g>
            <path id="Trazado_228888" data-name="Trazado 228888" d="M247.9,232.162a7.168,7.168,0,0,1,1.389,3.656,7.159,7.159,0,0,1-1.389-3.656m7.81.1c-1.13-7.7-5.266-15.312-10.2-18.157-2.366-1.367-4.555-1.416-6.308-.391-.513.3-2.415,1.4-3.165,1.825a1.823,1.823,0,0,0-.176.1,4.593,4.593,0,0,0-.409.26,5.679,5.679,0,0,0-.728.6c-.033.027-.066.066-.1.1-.1.1-.2.209-.292.32-.116.132-.231.27-.336.413a7.735,7.735,0,0,0-.618.948c-.094.166-.188.342-.276.524l-27.63-15.951-3.358,1.936v2.139l.287.165.265.154v.453l-.552.319v1.246l4.058,8.591,4.014,2.321,1.335-1.616,3.54,2.117,2.035,3.485,2.238,1.29,2.807-2.487,3.446,1.991,1.158,4.775,5.773,3.33a31.833,31.833,0,0,0,1.092,3.589c.039.121.082.243.133.375,1.919,5.046,4.973,9.363,8.414,11.353a8.991,8.991,0,0,0,1.3.623,6.638,6.638,0,0,0,.722.243,5.43,5.43,0,0,0,.645.143,5.527,5.527,0,0,0,2.046-.005l.281-.066a2.351,2.351,0,0,0,.392-.115l.3-.116a2.2,2.2,0,0,0,.309-.143,2.918,2.918,0,0,0,.287-.149c.05-.028.1-.056.144-.083a.218.218,0,0,0,.066-.038c.767-.441,2.658-1.533,3.171-1.826,2.553-1.478,4.206-5.221,4.206-10.514a27.6,27.6,0,0,0-.308-4.075" transform="translate(-47.789 -47.965)" fill="#4dd0e1"/>
            <path id="Trazado_228889" data-name="Trazado 228889" d="M246.914,239.253c-1.326-.765-2.4-3.04-2.4-5.081s1.074-3.075,2.4-2.31,2.4,3.04,2.4,5.081-1.074,3.075-2.4,2.31m5.438-4.456c-1.13-7.692-5.265-15.306-10.195-18.151-2.282-1.318-4.394-1.417-6.115-.508a1.822,1.822,0,0,0-.176.105,4.59,4.59,0,0,0-.409.259,5.683,5.683,0,0,0-.728.6c-.033.028-.066.066-.1.1-.1.1-.2.209-.292.32-.116.132-.231.27-.337.413a7.831,7.831,0,0,0-.617.949c-.094.165-.188.341-.276.523a13.265,13.265,0,0,0-1.064,3.264l-29.924-17.28v2.14l.287.166.264.154v.452l-.551.32v1.246l4.058,8.59,4.014,2.322,1.335-1.616,3.54,2.117,2.034,3.485,2.239,1.29,2.807-2.486,3.446,1.99,1.158,4.775,5.773,3.331a31.831,31.831,0,0,0,1.092,3.589c.039.121.082.242.132.375,1.919,5.045,4.974,9.362,8.414,11.353a8.912,8.912,0,0,0,1.3.623,6.6,6.6,0,0,0,.722.243,5.439,5.439,0,0,0,.645.144,5.544,5.544,0,0,0,2.046-.005l.281-.066a2.425,2.425,0,0,0,.392-.116l.3-.115a2.307,2.307,0,0,0,.309-.144,2.918,2.918,0,0,0,.287-.149c.05-.027.1-.055.143-.082a.216.216,0,0,0,.066-.039c2.448-1.544,4.02-5.233,4.02-10.4a28.47,28.47,0,0,0-.309-4.08" transform="translate(-47.789 -48.564)" fill="#4dd0e1"/>
            <g id="Grupo_115035" data-name="Grupo 115035" transform="translate(196.723 183.048)" opacity="0.4">
              <g id="Grupo_115034" data-name="Grupo 115034">
                <g id="Grupo_115033" data-name="Grupo 115033" clip-path="url(#clip-path-28)">
                  <path id="Trazado_228890" data-name="Trazado 228890" d="M262.442,245.061c0,2.04-1.075,3.076-2.4,2.311s-2.4-3.038-2.4-5.078,1.075-3.076,2.4-2.31a3.393,3.393,0,0,1,.981.9,7.207,7.207,0,0,0,1.39,3.656,4.2,4.2,0,0,1,.027.524" transform="translate(-257.64 -239.731)"/>
                </g>
              </g>
            </g>
            <g id="Grupo_115038" data-name="Grupo 115038" transform="translate(188.253 165.04)" opacity="0.4">
              <g id="Grupo_115037" data-name="Grupo 115037">
                <g id="Grupo_115036" data-name="Grupo 115036" clip-path="url(#clip-path-29)">
                  <path id="Trazado_228891" data-name="Trazado 228891" d="M266.524,239.48c0,5.293-1.654,9.037-4.207,10.515-.512.292-2.4,1.384-3.17,1.825,2.448-1.544,4.019-5.233,4.019-10.4a28.468,28.468,0,0,0-.308-4.08c-1.13-7.692-5.266-15.306-10.2-18.151-2.283-1.318-4.4-1.417-6.115-.508.75-.43,2.653-1.527,3.165-1.825,1.754-1.025,3.943-.976,6.309.392,4.929,2.845,9.064,10.46,10.195,18.157a27.6,27.6,0,0,1,.308,4.075" transform="translate(-246.548 -216.147)" fill="#fff"/>
                </g>
              </g>
            </g>
            <path id="Trazado_228892" data-name="Trazado 228892" d="M267.068,248.464c0,5.166-1.571,8.855-4.019,10.4.766-.441,2.657-1.532,3.17-1.825,2.553-1.478,4.207-5.221,4.207-10.515,0-.2-.008-.392-.011-.588l-3.359,1.939c0,.2.012.394.012.59" transform="translate(-62.196 -58.15)" fill="#4dd0e1"/>
            <g id="Grupo_115041" data-name="Grupo 115041" transform="translate(200.852 187.785)" opacity="0.1">
              <g id="Grupo_115040" data-name="Grupo 115040">
                <g id="Grupo_115039" data-name="Grupo 115039" clip-path="url(#clip-path-30)">
                  <path id="Trazado_228893" data-name="Trazado 228893" d="M267.068,248.464c0,5.166-1.571,8.855-4.019,10.4.766-.441,2.657-1.532,3.17-1.825,2.553-1.478,4.207-5.221,4.207-10.515,0-.2-.008-.392-.011-.588l-3.359,1.939c0,.2.012.394.012.59" transform="translate(-263.048 -245.935)"/>
                </g>
              </g>
            </g>
            <g id="Grupo_115044" data-name="Grupo 115044" transform="translate(154.326 159.288)" opacity="0.15">
              <g id="Grupo_115043" data-name="Grupo 115043">
                <g id="Grupo_115042" data-name="Grupo 115042" clip-path="url(#clip-path-31)">
                  <path id="Trazado_228894" data-name="Trazado 228894" d="M232.16,225.64v1.092l-30.044-17.346.551-.32v-.452Z" transform="translate(-202.115 -208.613)"/>
                </g>
              </g>
            </g>
            <g id="Grupo_115047" data-name="Grupo 115047" transform="translate(154.326 159.734)" opacity="0.15">
              <g id="Grupo_115046" data-name="Grupo 115046">
                <g id="Grupo_115045" data-name="Grupo 115045" clip-path="url(#clip-path-32)">
                  <path id="Trazado_228895" data-name="Trazado 228895" d="M232.16,226.23v.64l-30.044-17.346.551-.32V209.2Z" transform="translate(-202.115 -209.198)"/>
                </g>
              </g>
            </g>
            <g id="Grupo_115050" data-name="Grupo 115050" transform="translate(185.343 169.584)" opacity="0.15">
              <g id="Grupo_115049" data-name="Grupo 115049">
                <g id="Grupo_115048" data-name="Grupo 115048" clip-path="url(#clip-path-33)">
                  <path id="Trazado_228896" data-name="Trazado 228896" d="M243.1,231.8c0,7.436,3.916,15.726,8.746,18.515s8.746-.98,8.746-8.416-3.916-15.726-8.746-18.515S243.1,224.362,243.1,231.8Z" transform="translate(-242.822 -222.184)" fill="none" stroke="#000" stroke-miterlimit="10" stroke-width="0.732"/>
                </g>
              </g>
            </g>
            <g id="Grupo_115053" data-name="Grupo 115053" transform="translate(154.326 154.893)" opacity="0.5">
              <g id="Grupo_115052" data-name="Grupo 115052">
                <g id="Grupo_115051" data-name="Grupo 115051" clip-path="url(#clip-path-34)">
                  <path id="Trazado_228897" data-name="Trazado 228897" d="M233.1,218.809a13.287,13.287,0,0,0-1.064,3.264l-29.923-17.28,3.357-1.936Z" transform="translate(-202.115 -202.858)" fill="#fff"/>
                </g>
              </g>
            </g>
          </g>
        </g>
        <g id="Grupo_115066" data-name="Grupo 115066">
          <g id="Grupo_115065" data-name="Grupo 115065" clip-path="url(#clip-path)">
            <path id="Trazado_228898" data-name="Trazado 228898" d="M392.079,329.633c.116,1.045.259,3.977,5.573,4.707s8.663-1.028,10.08-3.585,1.092-4.641,1.319-7.009,2.184-3.628,2.746-4.848c.828-1.8-.383-4.591-.383-4.591Z" transform="translate(-92.705 -74.316)" fill="#263238"/>
            <path id="Trazado_228899" data-name="Trazado 228899" d="M341.249,322.265a3.219,3.219,0,0,0,.346,2.571,11.126,11.126,0,0,0,8.517,2.278,20.5,20.5,0,0,0,9.015-3.532,11.878,11.878,0,0,1,6.957-2c2.556-.088,4.426-.656,4.62-1.328.34-1.178.339-1.924-.22-1.887Z" transform="translate(-80.655 -75.275)" fill="#263238"/>
            <path id="Trazado_228900" data-name="Trazado 228900" d="M412.382,305.46c-.666,4.844-10.062,4.454-9.3.584l-1.676-11.766,10.636.33Z" transform="translate(-94.911 -69.58)" fill="#ffa8a7"/>
            <path id="Trazado_228901" data-name="Trazado 228901" d="M392.44,325.5a30.734,30.734,0,0,1,2.444-2.917,26.291,26.291,0,0,0,5.527-14.1c.021-.285.057-.838.341-1.009.3-.18.573.068.878.2l.016-.014,0,.023a5.625,5.625,0,0,0,1.645.431,30.712,30.712,0,0,0,4.435-.177c.366.05.478,1.183.448,2.407.67-.424.889-1.263,1.49-1.753.325-.264.468-.273.461-.709,0-.284-.023-.539-.025-.823.483-.142.888,1.712,1.286,3.125.46,1.637,1.033,3.485.388,5.148a14.145,14.145,0,0,1-1.5,2.566,10.648,10.648,0,0,0-1.93,4.7c-.072.747-.015,1.5-.121,2.246a6.579,6.579,0,0,1-4.638,5.4c-3.241,1.012-8.107.854-10.962-1.413-1-.794-.659-2.463-.189-3.336" transform="translate(-92.682 -72.602)" fill="#37474f"/>
            <path id="Trazado_228902" data-name="Trazado 228902" d="M373.769,302.263c-2.574,2-5.681,3.179-8.848,1.736l-.74-19.8,10.666,1.917Z" transform="translate(-86.108 -67.196)" fill="#ffa8a7"/>
            <path id="Trazado_228903" data-name="Trazado 228903" d="M343.347,315.54q1.061-.338,2.1-.752a38.385,38.385,0,0,0,5.567-2.777q1.177-.709,2.306-1.5c.789-.551,1.52-1.164,2.268-1.77a8.028,8.028,0,0,0,1.082-1.16,11.77,11.77,0,0,0,1.6-2.585.977.977,0,0,1,.4-.528.78.78,0,0,1,.75.153,3.479,3.479,0,0,0,.584.4c.206.089.419.171.628.258a7.1,7.1,0,0,0,2.094.514c2.7.24,2.785-.3,2.9.57a6.182,6.182,0,0,1,.021.976c1.424-.237,2.547-.7,2.609-1.236l.172-1.726c1.419-.128,1.514,2.412,1.981,5.265.377,2.309.931,3.983.3,5.68-2.147,1.875-5.933,1.421-8.09,1.777-3.052.5-4.478,2.763-8.721,4.23-6.838,2.366-11.157-.363-12.439-1.553-.847-1.515-1.016-3.309,1.9-4.238" transform="translate(-80.606 -71.968)" fill="#37474f"/>
            <path id="Trazado_228904" data-name="Trazado 228904" d="M398.8,154.515c.54,8.388,1.526,20.7,1.868,30.406.644,18.238.393,39.022.393,39.022a63.07,63.07,0,0,1,1.965,11.688c.436,11.65.353,37.811.353,37.811s-4.826,4.865-12.057,1.044c0,0-6.4-36.677-8.193-48.167-1.708-10.953-5.045-32.861-5.045-32.861l-1.51,31.1a47.988,47.988,0,0,1,1.136,14.925c-.392,5.336-3.438,31.694-3.438,31.694-2.776,2.6-10.873,1.188-12.642-.883,0,0-2.836-38.949-3.15-44.575-.681-12.17-2.49-57.528-1.585-64.573s41.9-6.626,41.9-6.626" transform="translate(-84.326 -36.533)" fill="#263238"/>
            <path id="Trazado_228905" data-name="Trazado 228905" d="M380.942,199.852l-2.119-14.033a28.218,28.218,0,0,1-10.086-4.261s1.657,3.748,8.1,6.424l2.094,13.068.5,29.9Z" transform="translate(-87.186 -42.928)"/>
            <path id="Trazado_228906" data-name="Trazado 228906" d="M400.308,77.126c.389,1.581,3.077,1.339,4.246,1.043a2.964,2.964,0,0,0,2.339-3.147,3.262,3.262,0,0,0,1.561-.956,2.266,2.266,0,0,0,.11-2.605,3.228,3.228,0,0,0,1.329-3.089,3.574,3.574,0,0,0-1.313-2.148,3.759,3.759,0,0,0-2.342-.834c-.275.039-.549.555-.15.6a4.083,4.083,0,0,1,1.7.738,3.279,3.279,0,0,1,1.158,1.465,2.4,2.4,0,0,1-.822,2.624,3.625,3.625,0,0,0-.469-.48,2.692,2.692,0,0,0-1.935-.683,1.382,1.382,0,0,0-1.277.79c-.186.6.433,1.1.89,1.363a2.714,2.714,0,0,0,2.21.2c.058-.019.115-.051.173-.074.04.082.08.163.11.243a1.514,1.514,0,0,1-1.15,2.079A2.528,2.528,0,0,0,403.5,72.9a.981.981,0,0,0-.271,1.616,2.593,2.593,0,0,0,1.806.719,5.563,5.563,0,0,0,.925-.024,2.007,2.007,0,0,1-.324,1.4,2.811,2.811,0,0,1-2.217.94,3.607,3.607,0,0,1-2.623-.832c-.23-.17-.546.17-.488.4m6.972-5.865a1.751,1.751,0,0,1-1.477-.24c-.32-.215-.672-.528-.1-.57a2.009,2.009,0,0,1,1.581.809m-1.594,3.169a3.4,3.4,0,0,1-.966-.087c-.226-.058-1.226-.564-.716-.79.394-.175,1.076.214,1.353.464a1.819,1.819,0,0,1,.329.413" transform="translate(-94.649 -15.458)" fill="#263238"/>
            <path id="Trazado_228907" data-name="Trazado 228907" d="M401.25,41.26s.192.027.495.1a2.291,2.291,0,0,1,1.22-2.575,2.455,2.455,0,0,1,3.171,1.3l-3.456,1.581a4.822,4.822,0,0,1,2.631,2.244c.948,1.949-.3,6.1-1.565,11.224a72.433,72.433,0,0,1-2.787,9.494c-.58,1.492-1.623,1.539-1.623,1.539V61.057l.22-4.238s-2.721-3.714-3.019-6.759c-.385-3.918.441-5.521.441-5.521Z" transform="translate(-93.735 -9.125)" fill="#263238"/>
            <path id="Trazado_228908" data-name="Trazado 228908" d="M375.437,36.331a8.622,8.622,0,1,1-8.65,8.594,8.622,8.622,0,0,1,8.65-8.594" transform="translate(-86.724 -8.59)" fill="#263238"/>
            <path id="Trazado_228909" data-name="Trazado 228909" d="M392.879,56.863c1.022.886,1.854-1.408,2.714-2.3s3.663-2.111,5.049.835c1.413,3-1.284,7.08-3.378,8.052a3.254,3.254,0,0,1-4.444-1.671V74.568c-3.232,5.823-10.222,4.461-13.526,5.276a7.336,7.336,0,0,1-.019-4.561l.024-4.168a15.444,15.444,0,0,1-4.223.226c-2.791-.441-4.287-2.74-5.124-5.765-1.345-4.859-1.623-13.016.246-22.449,3.126-2.417,13.7-2.026,20.262,2.133-.48,8.366,1.4,10.717,2.419,11.6" transform="translate(-87.217 -9.844)" fill="#ffa8a7"/>
            <path id="Trazado_228910" data-name="Trazado 228910" d="M382.526,78.584s6.237-1.235,8.419-2.386a7.177,7.177,0,0,0,3.022-2.971,9.831,9.831,0,0,1-1.723,3.51c-1.6,2.032-9.724,3.505-9.724,3.505Z" transform="translate(-90.445 -17.314)" fill="#f28f8f"/>
            <path id="Trazado_228911" data-name="Trazado 228911" d="M365.012,54.581a2.522,2.522,0,0,0,.573,1.343,1.252,1.252,0,0,1,.225.479,23.887,23.887,0,0,0,.77,3.6,3.962,3.962,0,0,0,3.812,2.629,5.22,5.22,0,0,0,1.315-.085.345.345,0,0,0,.1-.018,3.845,3.845,0,0,0,1.08-.395.262.262,0,0,1,.066-.037.847.847,0,0,1,.094-.057,1.137,1.137,0,0,1,.112-.084.418.418,0,0,0,.1-.076.613.613,0,0,0,.122-.094.947.947,0,0,0,.112-.094c.076-.066.141-.131.216-.206a5.108,5.108,0,0,0,.883-1.352c.582-1.239.469-3,1.39-3.182.037-.009.075-.009.112-.018h.122c1.248.047,1.07,1.952,1.737,3.332a4.656,4.656,0,0,0,4.506,2.826c.122.01.235.01.347.01.094,0,.188-.01.282-.019a4.374,4.374,0,0,0,.647-.075c.076-.019.141-.028.207-.047a1.535,1.535,0,0,0,.2-.047c.047-.01.085-.028.122-.037a4.158,4.158,0,0,0,.741-.329c.085-.057.17-.1.254-.16a3.878,3.878,0,0,0,.423-.366,3.942,3.942,0,0,0,.845-1.258,22.03,22.03,0,0,0,.817-3.539,1.418,1.418,0,0,1,.216-.517,2.436,2.436,0,0,0,.629-1.267,1.1,1.1,0,0,0-.733-1.145c-.206-.038-.431-.066-.657-.1a20.137,20.137,0,0,0-6.581-.047c-2.1.525-2.845,1.183-4.009,1.145-1.079-.047-1.774-.76-3.745-1.446a17.907,17.907,0,0,0-6.159-.431c-.216.009-.413.028-.62.047-.338.037-.7.544-.676,1.117m13.707,1.578a1.829,1.829,0,0,1,.6-.47.678.678,0,0,1,.113-.057.22.22,0,0,1,.056-.037c.094-.037.2-.084.3-.131.085-.037.179-.066.273-.1a7.812,7.812,0,0,1,.9-.263c.113-.028.234-.056.357-.076.3-.056.61-.1.92-.131.075,0,.141-.009.216-.009a5.282,5.282,0,0,1,3.7.8c.47.432.216,2.291.01,3.23-.01.018-.01.047-.019.066a.224.224,0,0,1-.018.075,3.74,3.74,0,0,1-.094.376c-.019.075-.038.16-.066.234v.01c-.047.131-.095.263-.15.394a.537.537,0,0,1-.056.131.315.315,0,0,1-.037.085c-.009.028-.028.056-.037.084l-.057.113c-.028.047-.047.085-.075.122a.643.643,0,0,1-.085.131c-.028.047-.056.094-.085.131a3.174,3.174,0,0,1-2.835,1.277,3.91,3.91,0,0,1-2.948-1.192,4.124,4.124,0,0,1-.938-1.925c-.225-1.061-.347-2.3.056-2.863m-11.8-1.211a1.512,1.512,0,0,1,.5-.3.046.046,0,0,1,.037-.019c.066-.028.14-.057.216-.085.047-.009.094-.028.131-.037l.112-.028c.028-.009.057-.009.076-.018s.018-.01.027-.01c.038-.009.076-.009.113-.018a3.357,3.357,0,0,1,.46-.066,2.166,2.166,0,0,1,.254-.019.821.821,0,0,1,.15-.009.508.508,0,0,0,.122-.01c.1,0,.207,0,.319.01h.113c.037,0,.075.009.112.009a9.053,9.053,0,0,1,.93.1,5.648,5.648,0,0,1,3.286,1.53,4.6,4.6,0,0,1,.066,2.864,5.425,5.425,0,0,1-.2.694.131.131,0,0,0-.019.056c-.009.028-.018.047-.028.076-.009.009-.009.027-.018.047s-.028.057-.037.085l-.085.169c-.019.047-.047.094-.076.15a.208.208,0,0,0-.027.047c-.019.028-.038.066-.066.1a.667.667,0,0,1-.057.085v.009a3.153,3.153,0,0,1-3.014,1.3,3.482,3.482,0,0,1-1.5-.394,4.276,4.276,0,0,1-1.9-3.1c-.2-.958-.432-2.836,0-3.23" transform="translate(-86.304 -12.613)" fill="#263238"/>
            <path id="Trazado_228912" data-name="Trazado 228912" d="M394.223,54.637l9.128,2.053a3.944,3.944,0,0,0-2.1,1.356l-7.034-1.334Z" transform="translate(-93.21 -12.919)" fill="#263238"/>
            <path id="Trazado_228913" data-name="Trazado 228913" d="M367.433,58.482a4.276,4.276,0,0,0,1.9,3.1,3.493,3.493,0,0,0,1.5.395,3.155,3.155,0,0,0,3.014-1.3v-.01a.734.734,0,0,0,.057-.084c.027-.037.047-.076.066-.1a.2.2,0,0,1,.027-.047c.028-.057.056-.1.076-.15l.085-.169c.009-.028.027-.057.037-.085s.009-.037.018-.047c.01-.028.019-.047.028-.076a.125.125,0,0,1,.019-.056,5.428,5.428,0,0,0,.2-.695,4.6,4.6,0,0,0-.066-2.863,5.644,5.644,0,0,0-3.286-1.53,8.858,8.858,0,0,0-.93-.1c-.037,0-.075-.009-.112-.009h-.113c-.112-.009-.216-.009-.319-.009a.55.55,0,0,1-.122.009.821.821,0,0,0-.15.009,2.345,2.345,0,0,0-.254.019,3.356,3.356,0,0,0-.46.066c-.037.009-.075.009-.113.019-.009,0-.018.009-.027.009s-.047.009-.076.018l-.112.028c-.037.01-.085.028-.131.038-.076.027-.15.056-.216.084a.046.046,0,0,0-.037.019,1.511,1.511,0,0,0-.5.3c-.432.395-.2,2.272,0,3.23" transform="translate(-86.82 -12.918)" fill="#37474f"/>
            <path id="Trazado_228914" data-name="Trazado 228914" d="M382.826,59.492a4.118,4.118,0,0,0,.939,1.925,3.91,3.91,0,0,0,2.947,1.192,3.176,3.176,0,0,0,2.835-1.277c.028-.037.057-.085.085-.131a.614.614,0,0,0,.085-.131c.028-.038.047-.076.075-.122l.057-.113c.009-.028.028-.056.037-.084a.315.315,0,0,0,.037-.085.537.537,0,0,0,.056-.131c.057-.131.1-.263.15-.395v-.009a2.051,2.051,0,0,0,.066-.234,3.732,3.732,0,0,0,.094-.376.229.229,0,0,0,.018-.075c.01-.019.01-.047.019-.066.207-.938.46-2.8-.009-3.229a5.284,5.284,0,0,0-3.7-.8c-.075,0-.141.009-.215.009-.31.028-.62.075-.92.131-.122.019-.244.047-.357.076a7.859,7.859,0,0,0-.9.263c-.094.037-.188.066-.273.1-.1.047-.206.094-.3.131a.213.213,0,0,0-.056.037.644.644,0,0,0-.112.057,1.825,1.825,0,0,0-.6.47c-.4.564-.282,1.8-.056,2.863" transform="translate(-90.467 -13.083)" fill="#37474f"/>
            <path id="Trazado_228915" data-name="Trazado 228915" d="M367.812,33.506c.011-.105.025-.21.04-.315a.969.969,0,0,1,.2-.541c.421-.438,1.26.66,1.56.916s.583.483.894.7a6.166,6.166,0,0,1,.839.5,8.946,8.946,0,0,1-.005-3.144c.124-.689.318-2.282,1.17-2.452.507-.1.949.322,1.326.676,3.413,3.193,7.868,1.716,11.98,1.847,3.438.109,7.587,1.509,9.139,4.852.71,1.529.832,3.141-.571,4.2-.907.683-1.794.651-2.3,1.742-.124.268-.909,3.522-.446,3.49a3.582,3.582,0,0,1-3.832-2.618c-.084-.357-.276-1-.354-1.37a.761.761,0,0,0-.982-.595c-1.042.224-1.723.651-2.711.922a19.783,19.783,0,0,1-8.656.51,10.252,10.252,0,0,1-5.439-2.919,8.152,8.152,0,0,1-1.858-6.4" transform="translate(-86.954 -6.894)" fill="#263238"/>
            <path id="Trazado_228916" data-name="Trazado 228916" d="M385.4,52.015l3.016.468a1.6,1.6,0,0,0-1.315-1.784,1.49,1.49,0,0,0-1.7,1.316" transform="translate(-91.127 -11.983)" fill="#263238"/>
            <path id="Trazado_228917" data-name="Trazado 228917" d="M383.693,70.81l-2.54.66a1.289,1.289,0,0,0,1.574.984,1.374,1.374,0,0,0,.966-1.644" transform="translate(-90.121 -16.743)" fill="#f28f8f"/>
            <path id="Trazado_228918" data-name="Trazado 228918" d="M370.419,52.119l3.057-.335a1.476,1.476,0,0,0-1.64-1.379,1.616,1.616,0,0,0-1.417,1.714" transform="translate(-87.582 -11.916)" fill="#263238"/>
            <path id="Trazado_228919" data-name="Trazado 228919" d="M378.806,58.13l-.412,7.126-3.97-1.037,3.958-6.168a.977.977,0,0,1,.424.079" transform="translate(-88.53 -13.725)" fill="#f28f8f"/>
            <path id="Trazado_228920" data-name="Trazado 228920" d="M402.466,64.061a1.857,1.857,0,1,0,1.857-1.857,1.857,1.857,0,0,0-1.857,1.857" transform="translate(-95.161 -14.708)" fill="#263238"/>
            <path id="Trazado_228921" data-name="Trazado 228921" d="M402.163,59.562a4.051,4.051,0,0,1,.823-1.5,1.889,1.889,0,0,1,1.475-.5c.026,0,.051.065.024.082-.2.123-.353.186-.555.331a3.451,3.451,0,0,0-.57.483,2.184,2.184,0,0,0-.357.581,2.55,2.55,0,0,0-.215.79,2.364,2.364,0,0,0,.179,1.223,2.028,2.028,0,0,0,.35.583,2.123,2.123,0,0,1,.411.454c.113.236-.211.638-.468.5a2.783,2.783,0,0,1-1.1-3.021" transform="translate(-95.06 -13.606)" fill="#263238"/>
            <path id="Trazado_228922" data-name="Trazado 228922" d="M364.237,93.412c-2.583,1.688-6.144,3.89-7.016,6.278s-3.383,16.25-3.661,20.715a22.782,22.782,0,0,0,7.256,2.047Z" transform="translate(-83.597 -22.087)" fill="#455a64"/>
            <path id="Trazado_228923" data-name="Trazado 228923" d="M396.212,84.762c6.538,3.583,13.013,8.947,14.369,11.009,0,0-3.826,12.731-7.185,18.768s-5.165,23.9-5.165,23.9-23.03,7.643-30.248,8.238-8.133-2.468-8.133-2.468-.151-19.963,1.506-33.292,1.314-17.287,4.368-19.551c1.975-1.464,10.5-5.157,10.5-5.157v3.832c4.684.075,19.992-5.279,19.992-5.279" transform="translate(-85.083 -20.041)" fill="#37474f"/>
            <path id="Trazado_228924" data-name="Trazado 228924" d="M378.814,93.057a5.127,5.127,0,0,1-.49-2.784l1.923-1.4.033,2.427Z" transform="translate(-89.448 -21.014)" fill="#4dd0e1"/>
            <g id="Grupo_115058" data-name="Grupo 115058" transform="translate(288.857 67.86)" opacity="0.25">
              <g id="Grupo_115057" data-name="Grupo 115057">
                <g id="Grupo_115056" data-name="Grupo 115056" clip-path="url(#clip-path-36)">
                  <path id="Trazado_228925" data-name="Trazado 228925" d="M378.814,93.057a5.127,5.127,0,0,1-.49-2.784l1.923-1.4.033,2.427Z" transform="translate(-378.305 -88.874)"/>
                </g>
              </g>
            </g>
            <path id="Trazado_228926" data-name="Trazado 228926" d="M383.868,91.532l4.984-2.843,3.735,2.965-7.557,3.137Z" transform="translate(-90.763 -20.97)" fill="#4dd0e1"/>
            <g id="Grupo_115061" data-name="Grupo 115061" transform="translate(293.105 67.719)" opacity="0.25">
              <g id="Grupo_115060" data-name="Grupo 115060">
                <g id="Grupo_115059" data-name="Grupo 115059" clip-path="url(#clip-path-37)">
                  <path id="Trazado_228927" data-name="Trazado 228927" d="M383.868,91.532l4.984-2.843,3.735,2.965-7.557,3.137Z" transform="translate(-383.868 -88.689)"/>
                </g>
              </g>
            </g>
            <path id="Trazado_228928" data-name="Trazado 228928" d="M396.047,77.679v1c-.191.957-2.07,3.169-6.811,5.3-4.826,2.165-6.715,4.387-6.715,4.387a12.283,12.283,0,0,1,3.759.7c2.158.773,5.745,3.51,6.769,3.485,1-.025,2.434-2.855,5.12-5.672,2.257-2.366,3.4-3.787,3.4-3.787s-3.684-5.388-5.526-5.408" transform="translate(-90.445 -18.367)" fill="#455a64"/>
            <path id="Trazado_228929" data-name="Trazado 228929" d="M381.34,89.4c-1.715.194-3.325,1.384-3.746.754s1.037-6.368,3.733-8.113Z" transform="translate(-89.263 -19.398)" fill="#455a64"/>
            <path id="Trazado_228930" data-name="Trazado 228930" d="M358.644,130.61s-.211,3.568-.266,4.787,1.991,22.16,1.991,22.16l-7.2,3.043s-.868-8.063-1.151-12.557a72.916,72.916,0,0,1,.62-13.846c.566-3.821.776-5.284.776-5.284a26.624,26.624,0,0,0,5.227,1.7" transform="translate(-83.209 -30.481)" fill="#f28f8f"/>
            <path id="Trazado_228931" data-name="Trazado 228931" d="M354.309,182.22s-.008.324.006,1.542a27.5,27.5,0,0,0,1.2,5.943c.451,1.128,1.546,3.609,2.094,3.9a2.7,2.7,0,0,0,1.757.313c1.142-.106,2.332.481,3.407-.035a6.628,6.628,0,0,1,1.271-.579c.671-.16,1.433.039,2.028-.312.379-.224.618-.635.993-.865.551-.335,1.275-.213,1.861-.482a1.926,1.926,0,0,0,.968-1.161,6.224,6.224,0,0,0-.2-3.15,2.8,2.8,0,0,0,.515-1.707,14.979,14.979,0,0,0-.451-3.866c-.257-.741-5.476-3.737-5.476-3.737l-1.031-.677a8.776,8.776,0,0,0-6.412,1.031c-3.028,1.933-2.533,3.844-2.533,3.844" transform="translate(-83.767 -41.883)" fill="#ffa8a7"/>
            <path id="Trazado_228932" data-name="Trazado 228932" d="M355.721,182.078c-1.38,2.3-.569,6.418-.564,6.467a25.29,25.29,0,0,1-.843-4.783c-.015-1.218-.006-1.541-.006-1.541s-.495-1.91,2.533-3.844a8.774,8.774,0,0,1,6.411-1.031s-6.144,2.419-7.532,4.732" transform="translate(-83.767 -41.883)" fill="#f28f8f"/>
            <path id="Trazado_228933" data-name="Trazado 228933" d="M373.551,188.864a12.89,12.89,0,0,0-2.223-4.1c-.58-.541-1.063-1.217-.483-.991s1.385.362,1.707-.045.386.3.032.851-.064.966.354,1.868a9.289,9.289,0,0,1,.612,2.416" transform="translate(-87.622 -43.413)" fill="#f28f8f"/>
            <path id="Trazado_228934" data-name="Trazado 228934" d="M405.888,99.512c2.177.749,2.468,6.717,2,12.058s-4.639,17.984-6.541,22.384c-2.134,4.936-3.426,7.788-4.845,9.339s-4.389,2.821-8.188,4.79a61.053,61.053,0,0,1-11.652,4.5c-6.612,2.052-9.149,2.178-10.568,3.16s-1.805,3.126-3.187,3.924l-1.031-.676a22.2,22.2,0,0,0-6.577,2.744,9.1,9.1,0,0,0-2.368,2.13l.006,1.542s-1.676.709-3.094-2.3-2.073-7.483-.437-9.447,6.807-4.62,10.987-5.966,6.285-2.688,11.188-5.65c5.222-3.157,8.846-5.256,11.426-6.673a4.151,4.151,0,0,0,2.1-3.089c.349-1.441,1.4-5.686,2.042-8.875,1.067-5.3,3.365-21.438,18.747-23.9" transform="translate(-82.387 -23.529)" fill="#ffa8a7"/>
            <path id="Trazado_228935" data-name="Trazado 228935" d="M419.425,98.938s1.012.178,1.154,4.4A64.858,64.858,0,0,1,420,115.319c-.551,3.246-3.794,12.835-3.794,12.835a31.241,31.241,0,0,1-18.958-.593s2.256-13.819,3.1-17.485,12.7-14.971,19.074-11.137" transform="translate(-93.927 -23.208)" fill="#455a64"/>
            <path id="Trazado_228936" data-name="Trazado 228936" d="M379.975,99.408a170.558,170.558,0,0,0-1.274,23.119c0,2.825-4.122,8.557-5.091,8.436s-2.748-5.514-3-8.641c.391-7.574,4.97-19.326,6.971-23.34Z" transform="translate(-87.628 -23.404)" fill="#4dd0e1"/>
            <g id="Grupo_115064" data-name="Grupo 115064" transform="translate(289.799 75.578)" opacity="0.15">
              <g id="Grupo_115063" data-name="Grupo 115063">
                <g id="Grupo_115062" data-name="Grupo 115062" clip-path="url(#clip-path-38)">
                  <path id="Trazado_228937" data-name="Trazado 228937" d="M379.539,99.309c.051-.114.1-.227.152-.327l2.394.427-.144,1.006a4.15,4.15,0,0,1-2.4-1.106" transform="translate(-379.539 -98.982)"/>
                </g>
              </g>
            </g>
            <path id="Trazado_228938" data-name="Trazado 228938" d="M382.708,92.327a10.3,10.3,0,0,0-2.272-.276,5.451,5.451,0,0,0-1.466,1.756,8.265,8.265,0,0,0,.586,3.536,2.9,2.9,0,0,0,2.394.426,5.067,5.067,0,0,0,1.92-2.184,4.6,4.6,0,0,0-1.162-3.259" transform="translate(-89.603 -21.765)" fill="#4dd0e1"/>
          </g>
        </g>
      </g>
    </g>
  </g>
</svg>
