<svg xmlns="http://www.w3.org/2000/svg" xmlns:xlink="http://www.w3.org/1999/xlink" width="244" height="181" viewBox="0 0 244 181">
  <defs>
    <clipPath id="clip-path">
      <rect id="Rectángulo_50270" data-name="Rectángulo 50270" width="221.569" height="133.465" fill="none"/>
    </clipPath>
    <clipPath id="clip-path-2">
      <rect id="Rectángulo_50267" data-name="Rectángulo 50267" width="221.57" height="133.465" fill="none"/>
    </clipPath>
    <clipPath id="clip-path-3">
      <rect id="Rectángulo_50245" data-name="Rectángulo 50245" width="181.122" height="27.868" fill="none"/>
    </clipPath>
    <clipPath id="clip-path-4">
      <path id="Trazado_228983" data-name="Trazado 228983" d="M360.05,1708.479c-.209-.1-.391-.18-.562-.277a1.314,1.314,0,0,1-.419-.374c-.113-.157-.215-.323-.337-.508a1.869,1.869,0,0,1-1.363,1.137c.135.055.22.089.305.125a1.545,1.545,0,0,1,.884,1.89,1.528,1.528,0,0,1-1.713,1.072,1.55,1.55,0,0,1-.352-2.967c.077-.031.156-.06.259-.1-.2-.089-.381-.158-.551-.246a1.322,1.322,0,0,1-.434-.356c-.121-.154-.224-.322-.341-.493-.083.038-.094.129-.139.193s-.1.158-.162.231a1.639,1.639,0,0,1-.175.184,1.779,1.779,0,0,1-.2.157,1.6,1.6,0,0,1-.219.128c-.085.04-.175.07-.263.1s-.16.052-.272.089c.109.035.189.058.267.086a1.538,1.538,0,1,1-.947-.006c.071-.023.144-.042.26-.075a2.4,2.4,0,0,1-.921-.437,1.858,1.858,0,0,1-.534-.806c-.111.019-.1.1-.13.153a1.724,1.724,0,0,1-1.192.995,1.632,1.632,0,0,1-1.434-.329,1.656,1.656,0,0,1-.514-.663c-.025-.056-.021-.136-.114-.158a1.7,1.7,0,0,1-3.282-.248c-.081.038-.078.117-.1.183a1.651,1.651,0,0,1-3.083.251c-.058-.128-.1-.262-.152-.4-.094.028-.086.117-.107.181a1.6,1.6,0,0,1-.37.627,1.617,1.617,0,0,1-2.787-.975,1.562,1.562,0,0,1,.8-1.541c.064-.04.13-.075.194-.114.007,0,.009-.015.022-.04-.062-.08-.173-.091-.254-.146s-.18-.1-.264-.163a1.6,1.6,0,0,1-.213-.185,2.34,2.34,0,0,1-.2-.238c-.061-.083-.113-.172-.181-.276-.033.029-.066.045-.082.072a1.851,1.851,0,0,1-1.107.867.375.375,0,0,0-.064.038c.056.084.152.1.23.129a1.577,1.577,0,0,1,.762.688,1.593,1.593,0,0,1-1.89,2.287,1.583,1.583,0,0,1-1.087-1.471,1.567,1.567,0,0,1,.956-1.5c.076-.034.152-.07.26-.12a2.856,2.856,0,0,1-.81-.432,2.4,2.4,0,0,1-.5-.7c-.08-.013-.082.049-.107.082a.8.8,0,0,0-.054.1,1.728,1.728,0,0,1-2.859.251,2.591,2.591,0,0,1-.224-.358c-.033-.055-.06-.113-.087-.165-.083,0-.075.06-.1.1s-.033.067-.05.1a1.626,1.626,0,0,1-.672.705,1.678,1.678,0,0,1-2.443-1.02c-.022-.081-.039-.164-.06-.248-.093.022-.074.1-.087.158a1.631,1.631,0,0,1-2.585.938,1.54,1.54,0,0,1-.61-1.548,1.563,1.563,0,0,1,.86-1.19l.174-.093c.008,0,.012-.014.018-.021a2.243,2.243,0,0,1-1.144-1.02c-.094.068-.124.184-.2.264s-.145.174-.228.25a1.761,1.761,0,0,1-.27.2,2.125,2.125,0,0,1-.3.149c-.1.041-.205.069-.361.121.136.052.219.084.3.115a1.583,1.583,0,0,1,.635,2.536,1.587,1.587,0,0,1-1.7.441,1.578,1.578,0,0,1-.14-2.929c.118-.052.241-.094.379-.146-.05-.078-.124-.064-.178-.087s-.125-.042-.186-.066a1.832,1.832,0,0,1-.18-.082,1.472,1.472,0,0,1-.168-.1c-.061-.044-.12-.091-.176-.141a1.716,1.716,0,0,1-.139-.14,1.616,1.616,0,0,1-.124-.154,1.788,1.788,0,0,1-.1-.169c-.031-.058-.059-.118-.087-.177s-.053-.111-.093-.2c-.1.133-.117.268-.19.373a2.843,2.843,0,0,1-.236.316,1.69,1.69,0,0,1-.3.255,1.606,1.606,0,0,1-.353.175,1.685,1.685,0,0,1-.385.082,1.99,1.99,0,0,1-.394,0,1.6,1.6,0,0,1-.951-.454,1.973,1.973,0,0,1-.505-.937c-.04.111-.07.188-.1.266a1.616,1.616,0,1,1-2.254-1.971c.067-.034.133-.069.2-.1.006,0,.006-.016.017-.045-.092-.067-.211-.1-.31-.157a2.389,2.389,0,0,1-.281-.188,1.967,1.967,0,0,1-.259-.259,1.8,1.8,0,0,1-.186-.282c-.058-.106-.1-.219-.16-.343a.648.648,0,0,0-.144.246,1.717,1.717,0,0,1-.966.861,1.661,1.661,0,0,1-1.87-.569,1.628,1.628,0,0,1-.172-1.759.756.756,0,0,1,.056-.1c.015-.023.035-.043.064-.078a8.528,8.528,0,0,1,.917-.016c.3,0,.6,0,.9,0h.942l.259.466.222-.448c.067-.007.122-.017.177-.017q1.3,0,2.6,0c.154,0,.154,0,.3.108a.357.357,0,0,1,.3-.108c.075,0,.151,0,.226,0h95.7c.075,0,.151,0,.226,0a.357.357,0,0,1,.3.106c.154-.1.154-.106.276-.106q1.371,0,2.742,0a.786.786,0,0,1,.1.014l.194.312.207-.32h2.783a1.537,1.537,0,0,1,.294.708c.075.017.07-.034.076-.065a1.6,1.6,0,0,1,.264-.628,3.542,3.542,0,0,1,.67-.023c.217-.005.433,0,.65,0h1.311a1.578,1.578,0,0,1,.113,1.744,1.635,1.635,0,0,1-1.569.807,1.684,1.684,0,0,1-1.468-1.4c-.077.012-.067.079-.078.13a1.637,1.637,0,0,1-.549.932,1.568,1.568,0,0,1-.508.3c-.113.04-.227.078-.381.13.131.047.225.082.321.115a1.451,1.451,0,0,1,.753.57,1.5,1.5,0,0,1,.08,1.68,1.483,1.483,0,0,1-1.456.8,1.5,1.5,0,0,1-1.366-.983,1.559,1.559,0,0,1,.911-2.058c.1-.032.189-.07.3-.112a2.036,2.036,0,0,1-1.363-1.081,2.211,2.211,0,0,1-1.145,1.1c.063.037.115.072.17.1a1.6,1.6,0,0,1,.909,1.31,1.629,1.629,0,0,1-3.158.7c-.036-.1-.066-.195-.111-.327a1.7,1.7,0,0,0-.07.173,1.748,1.748,0,0,1-.411.763,1.687,1.687,0,0,1-2.714-.348c-.047-.088-.092-.177-.155-.3a2.486,2.486,0,0,1-.524.8,2.085,2.085,0,0,1-.8.43c-.009.066.029.077.063.09a1.882,1.882,0,0,1,.5.256,1.593,1.593,0,0,1-.923,2.871,1.594,1.594,0,0,1-.651-3.063l.23-.091c.014-.057-.018-.072-.055-.083a1.94,1.94,0,0,1-.562-.259,1.767,1.767,0,0,1-.469-.484c-.035-.052-.077-.1-.126-.164a2.464,2.464,0,0,1-.492.6c-.2.142-.407.262-.61.392a1.728,1.728,0,0,1,1.013,1.936,1.686,1.686,0,0,1-1.411,1.254,1.642,1.642,0,0,1-1.48-.6,1.685,1.685,0,0,1-.336-.728c-.117.034-.1.115-.115.172a1.692,1.692,0,0,1-3.121.306c-.038-.073-.073-.148-.109-.22-.127.2-.239.392-.372.572a1.266,1.266,0,0,1-.5.4c-.2.091-.422.155-.646.236.028.05.087.039.132.051a1.629,1.629,0,0,1,1,.682,1.56,1.56,0,1,1-2.7,1.556,1.547,1.547,0,0,1,.6-2.041,4.783,4.783,0,0,1,.612-.251.533.533,0,0,0-.106-.046,1.754,1.754,0,0,1-1.286-.963.689.689,0,0,0-.081-.1,2.788,2.788,0,0,1-.5.691,2.328,2.328,0,0,1-.745.409c.031.092.11.1.172.131a1.469,1.469,0,0,1,.548.39,1.532,1.532,0,0,1,.3,1.683,1.594,1.594,0,0,1-2.907.1,1.583,1.583,0,0,1,.749-2.152c.076-.035.15-.073.25-.121a1.068,1.068,0,0,0-.28-.14c-.082-.047-.171-.081-.25-.131a2.022,2.022,0,0,1-.248-.187,1.869,1.869,0,0,1-.194-.2c-.065-.079-.123-.163-.2-.261-.111.081-.146.205-.226.291a3.559,3.559,0,0,1-.257.261,2.051,2.051,0,0,1-.276.2c-.1.062-.211.114-.308.165,0,.08.049.094.089.115a1.6,1.6,0,0,1,.909,1.342,1.514,1.514,0,0,1-.369,1.154,1.628,1.628,0,0,1-2.857-.737,1.618,1.618,0,0,1,.783-1.708c.07-.04.163-.051.207-.156-.13-.07-.265-.132-.388-.212a2.2,2.2,0,0,1-.329-.264c-.106-.1-.2-.226-.3-.349a5.916,5.916,0,0,1-.457.495,5.571,5.571,0,0,1-.548.377c.051.04.1.082.148.115a1.633,1.633,0,0,1,.717.947,1.572,1.572,0,0,1-.492,1.692,1.641,1.641,0,0,1-2.627-.61c-.041-.1-.078-.205-.123-.324a.607.607,0,0,0-.124.267,1.639,1.639,0,0,1-1.41,1.107,1.671,1.671,0,0,1-1.65-.869c-.049-.091-.092-.185-.149-.3-.037.064-.068.106-.089.154a1.718,1.718,0,0,1-1.347,1.044,1.724,1.724,0,0,1-1.793-1c-.026-.059-.054-.117-.094-.2a.966.966,0,0,0-.081.126,1.761,1.761,0,0,1-1.2,1.066c-.054.015-.106.036-.188.064.1.034.178.058.254.084a1.543,1.543,0,1,1-.944-.008c.071-.023.144-.042.231-.068-.207-.079-.4-.141-.584-.227a1.319,1.319,0,0,1-.465-.364c-.128-.159-.24-.331-.361-.5a2.068,2.068,0,0,1-1.3,1.092c.106.046.2.085.292.128a1.556,1.556,0,1,1-1.312,0c.092-.043.185-.083.291-.131a1.3,1.3,0,0,0-2.574,0c.087.042.16.08.234.114a1.532,1.532,0,0,1,.848.969,1.565,1.565,0,1,1-2.261-.911c.106-.058.218-.106.355-.172-.129-.081-.257-.105-.364-.168a2.767,2.767,0,0,1-.355-.23,1.9,1.9,0,0,1-.273-.284c-.082-.1-.148-.214-.215-.312-.065-.019-.082.021-.1.052a1.866,1.866,0,0,1-1.029.879c-.034.012-.066.031-.127.059.1.049.167.088.241.122a1.53,1.53,0,0,1,.746.742,1.569,1.569,0,1,1-2.135-.719.75.75,0,0,0,.278-.156,2.551,2.551,0,0,1-.743-.418,3.3,3.3,0,0,1-.5-.665,2.6,2.6,0,0,1-.5.674,2.329,2.329,0,0,1-.714.4c.029.113.134.106.2.138a1.533,1.533,0,0,1,.783.818,1.568,1.568,0,1,1-3.013.649,1.5,1.5,0,0,1,.839-1.432c.089-.049.183-.088.3-.143a4.854,4.854,0,0,1-.515-.26,2.054,2.054,0,0,1-.4-.35,4.88,4.88,0,0,1-.332-.475c-.093.065-.108.184-.173.268s-.132.184-.209.266a1.824,1.824,0,0,1-.255.222,2.238,2.238,0,0,1-.29.173c-.1.051-.2.09-.332.148l.25.123a1.525,1.525,0,0,1,.889,1.255,1.566,1.566,0,1,1-3.121.25,1.494,1.494,0,0,1,.795-1.456c.1-.056.2-.1.3-.151-.01-.081-.081-.071-.122-.095-.057-.032-.121-.052-.18-.08a1.638,1.638,0,0,1-.15-.078,1.513,1.513,0,0,1-.14-.1c-.052-.041-.1-.083-.151-.128s-.081-.079-.119-.121a1.4,1.4,0,0,1-.107-.131c-.038-.054-.071-.111-.106-.167s-.061-.093-.1-.154c-.1.073-.134.183-.2.268a2.282,2.282,0,0,1-.2.238,2.076,2.076,0,0,1-.26.216,1.931,1.931,0,0,1-.268.155c-.1.049-.208.086-.313.13.018.089.1.081.15.1a1.528,1.528,0,0,1,.792.693,1.5,1.5,0,0,1-.037,1.585,1.467,1.467,0,0,1-1.4.731,1.546,1.546,0,0,1-1.444-1.868,1.507,1.507,0,0,1,.834-1.08c.091-.046.186-.084.309-.139m54.456-10.023a2.089,2.089,0,0,1,.951,1.3c.045-.125.08-.24.127-.35a1.715,1.715,0,0,1,.39-.581,2.5,2.5,0,0,1,.266-.208c.094-.07.224-.086.3-.182a5.348,5.348,0,0,1-.6-.393,5.278,5.278,0,0,1-.475-.53c-.086.127-.161.256-.255.368a2.368,2.368,0,0,1-.32.317c-.116.094-.248.168-.389.262m-96.914-.022a1.968,1.968,0,0,1,.764.491,2.131,2.131,0,0,1,.4.8c.015-.019.024-.025.027-.033.013-.035.026-.071.036-.107a1.653,1.653,0,0,1,.83-1.052.329.329,0,0,0,.069-.07,5.43,5.43,0,0,1-.55-.408,5.646,5.646,0,0,1-.444-.53,2.274,2.274,0,0,1-1.135.913m11.156,4.755a2.008,2.008,0,0,1,.941-1.369,5.625,5.625,0,0,1-.541-.392,5.4,5.4,0,0,1-.43-.49,5.145,5.145,0,0,1-.477.49,5.529,5.529,0,0,1-.6.367,4.113,4.113,0,0,1,.393.232,1.729,1.729,0,0,1,.327.307,1.985,1.985,0,0,1,.244.41,3.855,3.855,0,0,1,.141.444m13.324,1.146c-.085.1-.152.191-.229.273a1.892,1.892,0,0,1-.227.21c-.089.068-.19.121-.282.184s-.207.073-.3.173c.074.042.133.069.185.106a3.911,3.911,0,0,1,.383.284,1.489,1.489,0,0,1,.4.637c.025.073.017.172.116.212a.55.55,0,0,0,.035-.078,1.693,1.693,0,0,1,.838-1.082c.027-.015.043-.049.065-.076a5.424,5.424,0,0,1-.524-.355,6.3,6.3,0,0,1-.464-.487m63.351-1.278a1.917,1.917,0,0,1,1.069-1.265,5.075,5.075,0,0,1-.548-.339,5.88,5.88,0,0,1-.486-.483c-.088.113-.165.229-.26.329a2.92,2.92,0,0,1-.335.3c-.109.084-.23.151-.351.229a2.026,2.026,0,0,1,.91,1.227m-59.085,2.15a6.063,6.063,0,0,1-.511-.36,5.913,5.913,0,0,1-.416-.437,5.752,5.752,0,0,1-.429.427c-.158.128-.339.228-.521.347a.594.594,0,0,0,.086.076,1.651,1.651,0,0,1,.83,1.085.5.5,0,0,0,.069.117c.049-.145.083-.272.134-.392a1.7,1.7,0,0,1,.176-.319,2.032,2.032,0,0,1,.262-.293c.094-.088.2-.16.32-.251m42.428-.767a.5.5,0,0,0-.081.071,2.171,2.171,0,0,1-.745.636c-.026.014-.041.051-.061.077a1.854,1.854,0,0,1,.827,1.124c.01.025.025.048.057.11a2.207,2.207,0,0,1,.332-.741,2.6,2.6,0,0,1,.6-.52,3.1,3.1,0,0,1-.931-.756m-66.679-4.906a2.273,2.273,0,0,1,.77-1.037c-.106-.079-.215-.151-.314-.235s-.176-.17-.264-.253-.137-.218-.251-.3c-.038.042-.064.068-.086.1a2,2,0,0,1-.687.574c-.037.019-.091.031-.082.093a2.01,2.01,0,0,1,.915,1.06m26.647,6.695c.043-.046.069-.062.078-.085a1.787,1.787,0,0,1,.666-.85.321.321,0,0,0,.059-.082c-.152-.107-.3-.194-.425-.3s-.251-.244-.36-.351c-.1.085-.179.161-.266.232s-.19.153-.289.223-.183.118-.278.179c.172.156.338.291.486.444a1.634,1.634,0,0,1,.329.591m-16.689-5.073c-.093.093-.174.183-.264.263s-.175.14-.264.209a2.467,2.467,0,0,0-.313.2c.107.077.2.137.284.206a1.759,1.759,0,0,1,.223.213,2.261,2.261,0,0,1,.2.273c.057.091.1.189.163.3a5.3,5.3,0,0,1,.337-.54,5.143,5.143,0,0,1,.442-.438c-.139-.1-.289-.194-.421-.308s-.249-.249-.383-.385m80.948-2.7a2.213,2.213,0,0,1-.826-.69c-.092.111-.165.207-.246.3a2.867,2.867,0,0,1-.244.235c-.091.078-.19.147-.286.22a5.409,5.409,0,0,1,.409.444,5.185,5.185,0,0,1,.3.508,2.239,2.239,0,0,1,.9-1.011m-27.544,6.12c-.133.128-.248.252-.378.359s-.268.2-.4.294a5.483,5.483,0,0,1,.443.453,4.781,4.781,0,0,1,.311.51,5.079,5.079,0,0,1,.355-.551,4.842,4.842,0,0,1,.468-.437c-.153-.1-.3-.186-.431-.29s-.245-.227-.363-.338m15.914-2.71c.111.1.214.18.3.275a2.655,2.655,0,0,1,.257.332c.069.1.12.221.19.351.059-.117.1-.212.152-.3a2.112,2.112,0,0,1,.2-.273c.067-.078.151-.14.222-.214s.2-.1.246-.2c-.026-.028-.036-.046-.051-.054a2.163,2.163,0,0,1-.661-.514.376.376,0,0,0-.1-.057,2.6,2.6,0,0,1-.755.654m-49.269,4.371c.073-.15.121-.271.189-.381a2.527,2.527,0,0,1,.253-.337c.085-.1.186-.178.291-.277-.143-.1-.276-.192-.4-.294s-.239-.23-.362-.351c-.127.12-.237.236-.36.336s-.268.194-.406.292a2.326,2.326,0,0,1,.79,1.011m30.77-1c-.144-.1-.278-.186-.4-.285s-.242-.224-.369-.343c-.126.126-.233.246-.352.35s-.248.189-.376.285a5.135,5.135,0,0,1,.417.44,5.605,5.605,0,0,1,.321.538c.069-.138.123-.268.2-.385a2.006,2.006,0,0,1,.242-.31c.094-.1.2-.186.32-.29m-48.21-3.381a5.078,5.078,0,0,1,.412.394,5.864,5.864,0,0,1,.341.5c.095-.156.171-.306.27-.439s.234-.265.363-.408c-.119-.095-.239-.182-.35-.28s-.211-.207-.327-.322c-.12.108-.226.212-.342.3s-.242.17-.366.255m64.148-.52-.644.568c.088.088.172.163.244.248s.136.18.2.27.078.209.2.3a2.1,2.1,0,0,1,.67-.833l-.679-.549m-40.746,3.926a2.031,2.031,0,0,1,.682.862c.1-.168.183-.318.284-.45s.234-.263.364-.406c-.118-.092-.224-.181-.337-.26s-.194-.225-.333-.291c-.109.1-.2.191-.3.275s-.219.168-.356.271m-2.637-.569c-.128.114-.23.211-.339.3s-.22.165-.321.24c.127.137.25.254.354.385s.2.291.31.454c.1-.149.178-.3.281-.426s.242-.259.378-.4c-.118-.088-.232-.167-.339-.256s-.207-.189-.323-.3m23.36.03-.645.54c.116.123.24.237.344.367s.187.279.292.439c.09-.1.121-.221.2-.313l.216-.26c.075-.092.2-.138.25-.252l-.654-.521m-3.359,1.388c.109-.173.2-.322.3-.471s.262-.234.356-.4c-.116-.087-.223-.161-.324-.244s-.208-.183-.315-.277c-.108.1-.206.19-.3.283s-.238.145-.33.275a2.2,2.2,0,0,1,.612.83m-10.005-.058c.091-.144.167-.284.263-.408s.224-.248.351-.385c-.114-.089-.218-.165-.317-.249s-.194-.176-.3-.271c-.1.094-.2.184-.3.268s-.2.16-.318.251c.118.128.233.238.329.363s.187.279.287.431m3.971-.79-.627-.514c-.109.1-.211.183-.3.277s-.228.125-.294.244c.119.13.234.24.331.365s.174.263.273.416c.094-.143.17-.281.267-.4s.225-.247.352-.385m-6.708.006-.591-.485-.6.491c.083.083.158.152.226.228s.132.159.195.241.089.182.191.252a2.667,2.667,0,0,1,.582-.727m-37.935-6.75c.089.077.176.146.254.223s.136.154.208.229.1.2.195.258l.535-.684c-.09-.078-.182-.169-.285-.246s-.163-.229-.3-.271l-.606.491m47.349,7.5.277-.4c.089-.128.234-.209.316-.357-.107-.081-.2-.157-.3-.226s-.169-.2-.293-.24l-.58.479a2.593,2.593,0,0,1,.581.747m36.714-6.8a2.246,2.246,0,0,1,.58-.686c-.109-.083-.2-.16-.3-.229s-.16-.182-.285-.233c-.158.195-.364.327-.515.5l.52.651m-70.054,3.351.492-.645-.523-.455-.525.428.557.672m56.738-1.07-.487.422.459.584c.086-.113.163-.216.243-.316s.21-.177.276-.3l-.491-.387m-66.769-2.4.338-.459a2.608,2.608,0,0,0-.446-.387c-.114.122-.27.18-.348.318l.456.528m63.82,2.837a1.626,1.626,0,0,0-.385-.313c-.074.065-.141.117-.2.177s-.151.083-.158.187c.083.109.166.222.253.331a.8.8,0,0,0,.1.089l.391-.47m12.988-3.672a2.136,2.136,0,0,0-.38.379c.059.076.112.142.162.21s.1.131.155.213c.079-.1.147-.172.208-.252s.167-.145.224-.258l-.37-.292m-63.845,3.671.4.465a3.958,3.958,0,0,0,.34-.433,1.651,1.651,0,0,0-.4-.309l-.335.277m3.77-.247a1.3,1.3,0,0,0-.337.309c.108.1.176.234.3.34a2.29,2.29,0,0,0,.3-.416l-.27-.232m43.3.613a1.217,1.217,0,0,0,.295-.342,1.133,1.133,0,0,0-.312-.253.7.7,0,0,0-.275.24l.292.355m-40.024-.1a1.139,1.139,0,0,0,.267-.334l-.119-.073-.123-.074-.242.216.217.265m3.137-.293a.5.5,0,0,0,.218.221.958.958,0,0,0,.222-.272l-.2-.162a.705.705,0,0,0-.238.213m-19.771-3.489-.256.22.194.218a.618.618,0,0,0,.245-.295l-.183-.144m53.317,3.293c-.07.06-.12.1-.166.143-.011.01-.01.034-.02.073.071.064.115.168.218.227a.439.439,0,0,0,.2-.246l-.23-.2m-3.113.2a.411.411,0,0,0-.211-.2.31.31,0,0,0-.2.19l.195.221c.115-.034.153-.124.217-.208m20.027-3.281-.219-.189a.173.173,0,0,0-.168.15c.065.068.1.167.214.218l.174-.179m-67.091-.03.133.141.211-.25-.11-.1a.392.392,0,0,0-.233.206m23.558,3.08c-.117.076-.2.1-.21.219l.136.12a.279.279,0,0,0,.177-.23l-.1-.109m-3.394.365c.1-.053.16-.1.176-.2l-.152-.12-.17.157.145.167m20.2-.2-.167-.149c-.072.039-.142.068-.139.18l.154.141.152-.172m3.314.041c-.152-.189-.164-.19-.292-.019l.156.166.136-.147M398.8,1698.7c.133-.148.133-.178.027-.264-.072-.059-.1-.05-.2.078l.169.187m-33.376,2.988c-.084.032-.148.067-.146.174l.141.123.148-.161-.143-.136m3.187.139.138.144c.156-.11.174-.143.123-.206-.072-.088-.118-.081-.261.062m-6.524-.131c-.046.059-.092.1-.1.136s.045.074.081.093.123-.044.114-.088-.052-.08-.1-.141m10.038.231a.374.374,0,0,0,.069-.112c.01-.044-.075-.107-.115-.085a.174.174,0,0,0-.079.1c-.013.051.051.106.125.1m-33.334-3.523a.172.172,0,0,0-.039.008c-.041.023-.075.05-.058.1a.027.027,0,0,0,.02.015c.055,0,.079-.033.088-.082,0-.008,0-.017-.011-.045m-23.447,1.605a1.559,1.559,0,1,0-1.567,1.554,1.554,1.554,0,0,0,1.567-1.554m19.958,6.733a1.551,1.551,0,1,0-1.561,1.528,1.55,1.55,0,0,0,1.561-1.528m78.43-4.925a1.541,1.541,0,0,0-.006,3.081,1.541,1.541,0,1,0,.006-3.081m-93.288.014a1.529,1.529,0,1,0,1.522,1.526,1.523,1.523,0,0,0-1.522-1.526m63.319,6.66a1.526,1.526,0,1,0,1.518,1.531,1.524,1.524,0,0,0-1.518-1.531m19.977-3.3a1.525,1.525,0,1,0,1.506,1.542,1.511,1.511,0,0,0-1.506-1.542m-54.841,4.836a1.519,1.519,0,1,0,1.515-1.534,1.5,1.5,0,0,0-1.515,1.534m-18.429-4.826a1.515,1.515,0,1,0,1.5,1.525,1.495,1.495,0,0,0-1.5-1.525m91.768-5.2a1.51,1.51,0,1,0,1.511-1.512,1.489,1.489,0,0,0-1.511,1.512m-33.682,10.026a1.5,1.5,0,1,0-1.5,1.485,1.49,1.49,0,0,0,1.5-1.485m-39.938.007a1.495,1.495,0,1,0-1.509,1.473,1.495,1.495,0,0,0,1.509-1.473m-38.2-11.518a1.487,1.487,0,1,0,1.5,1.476,1.472,1.472,0,0,0-1.5-1.476m106.684,3.358a1.483,1.483,0,1,0,1.483,1.5,1.476,1.476,0,0,0-1.483-1.5m-107.74-3.97a1.61,1.61,0,0,0,2.159-.022,1.581,1.581,0,0,0,.211-2.094c-.214-.03-2.216-.039-2.6-.01a1.588,1.588,0,0,0,.234,2.126m82.533,12.127a1.477,1.477,0,1,0-1.49,1.46,1.477,1.477,0,0,0,1.49-1.46m15.206-4.792a1.476,1.476,0,1,0,1.459,1.488,1.48,1.48,0,0,0-1.459-1.488m-63.329,6.249a1.474,1.474,0,1,0-.011-2.947,1.474,1.474,0,0,0,.011,2.947m-25.154-8.132a1.473,1.473,0,0,0-2.947,0,1.473,1.473,0,0,0,2.947,0m8.475,4.827a1.467,1.467,0,1,0-1.462-1.479,1.468,1.468,0,0,0,1.462,1.479m66.662.383a1.432,1.432,0,0,0-1.437,1.442,1.453,1.453,0,1,0,2.906,0,1.436,1.436,0,0,0-1.469-1.44m-53.273.006a1.428,1.428,0,0,0-1.461,1.44,1.446,1.446,0,0,0,2.892,0,1.427,1.427,0,0,0-1.431-1.444m88.013-8.514a1.445,1.445,0,0,0-1.4-1.5,1.443,1.443,0,0,0-.085,2.885,1.45,1.45,0,0,0,1.488-1.386m-2.512-2.223a1.553,1.553,0,0,0,2.109.022,1.533,1.533,0,0,0,.2-2.07c-.234-.031-2.244-.031-2.481,0a1.513,1.513,0,0,0,.173,2.048m-15.6,7.451a1.43,1.43,0,1,0,1.424,1.44,1.423,1.423,0,0,0-1.424-1.44m-104.313-7.461a1.544,1.544,0,0,0,2.144-.025,1.5,1.5,0,0,0,.117-2.026h-2.408a1.515,1.515,0,0,0,.147,2.052m115.754,5.518a1.43,1.43,0,0,0-2.86.016,1.43,1.43,0,1,0,2.86-.016m-114.691-4.764a1.429,1.429,0,0,0-1.427,1.434,1.424,1.424,0,1,0,2.848-.021,1.427,1.427,0,0,0-1.421-1.413m16.663,6.717a1.421,1.421,0,1,0,1.419,1.42,1.414,1.414,0,0,0-1.419-1.42m73.274,3.308a1.413,1.413,0,0,0-1.422,1.387,1.428,1.428,0,0,0,1.4,1.443,1.413,1.413,0,0,0,1.43-1.408,1.4,1.4,0,0,0-1.409-1.422m-59.965,2.824A1.411,1.411,0,1,0,335.7,1710a1.4,1.4,0,0,0,1.407,1.43m-21.906-8.063a1.414,1.414,0,1,0-1.428,1.407,1.411,1.411,0,0,0,1.428-1.407m113.88-5.99a1.42,1.42,0,0,0,1.349.813,1.486,1.486,0,0,0,1.266-2.235.337.337,0,0,0-.338-.191c-.648.008-1.3,0-1.945,0-.047,0-.093,0-.152.007a1.457,1.457,0,0,0-.179,1.6m-28.663,11.261A1.379,1.379,0,1,0,401.81,1710a1.366,1.366,0,0,0-1.392-1.369m13.328-3.3a1.378,1.378,0,1,0,1.365,1.37,1.378,1.378,0,0,0-1.365-1.37m15.291-5.344a1.37,1.37,0,1,0,2.739,0,1.37,1.37,0,0,0-2.739,0m-126.3-2.25a1.46,1.46,0,0,0,2.152-1.97h-2.236a1.426,1.426,0,0,0,.084,1.97M332.386,1710a1.369,1.369,0,1,0,1.379-1.348,1.369,1.369,0,0,0-1.379,1.348m-11.935-4.647a1.366,1.366,0,1,0,1.352,1.375,1.353,1.353,0,0,0-1.352-1.375m104.664-1.987a1.365,1.365,0,1,0-1.368,1.359,1.36,1.36,0,0,0,1.368-1.359m-53.3,10.014a1.362,1.362,0,1,0-2.725-.013,1.362,1.362,0,0,0,2.725.013m-3.36.006a1.364,1.364,0,1,0-2.727-.024,1.364,1.364,0,0,0,2.727.024m6.656-.028a1.361,1.361,0,0,0-2.723.017,1.361,1.361,0,1,0,2.723-.017m-10.013.014a1.366,1.366,0,0,0-1.37-1.36,1.352,1.352,0,0,0-1.346,1.35,1.334,1.334,0,0,0,1.35,1.368,1.349,1.349,0,0,0,1.366-1.358m-61.3-14.721a1.358,1.358,0,1,0,1.329,1.367,1.354,1.354,0,0,0-1.329-1.367m56.644,13.365a1.365,1.365,0,0,0-1.364,1.364,1.346,1.346,0,0,0,1.374,1.346,1.332,1.332,0,0,0,1.33-1.357,1.351,1.351,0,0,0-1.341-1.354m-50-10.006a1.353,1.353,0,1,0,1.332,1.364,1.35,1.35,0,0,0-1.332-1.364m66.657,10.01a1.352,1.352,0,1,0,1.35,1.35,1.355,1.355,0,0,0-1.35-1.35m-18.68,1.366a1.349,1.349,0,1,0-1.358,1.335,1.342,1.342,0,0,0,1.358-1.335m45.288-4.71a1.344,1.344,0,1,0,1.356,1.338,1.357,1.357,0,0,0-1.356-1.338m-23.295,3.361a1.338,1.338,0,1,0,1.317,1.348,1.346,1.346,0,0,0-1.317-1.348m-48.636-2.006a1.312,1.312,0,0,0-1.316-1.344,1.331,1.331,0,1,0-.023,2.662,1.312,1.312,0,0,0,1.339-1.318m22,2.012a1.331,1.331,0,1,0,1.328,1.335,1.341,1.341,0,0,0-1.328-1.335m78.573-14.927a1.343,1.343,0,0,0,1.129.979,1.325,1.325,0,0,0,1.406-.628,1.373,1.373,0,0,0,0-1.52.325.325,0,0,0-.319-.179c-.592.008-1.184,0-1.776,0-.046,0-.093.006-.159.01a1.374,1.374,0,0,0-.284,1.336m-48.571,14.937a1.334,1.334,0,0,0-1.344,1.313,1.318,1.318,0,0,0,2.636.021,1.33,1.33,0,0,0-1.292-1.334m-84.677-15.075a1.4,1.4,0,1,0,2.546-1.024.346.346,0,0,0-.344-.187c-.564.009-1.129,0-1.694,0-.056,0-.112.005-.188.009a1.387,1.387,0,0,0-.321,1.2M417.1,1705.4a1.318,1.318,0,1,0,1.317,1.307,1.316,1.316,0,0,0-1.317-1.307m-67.99,7.96a1.311,1.311,0,1,0,1.318-1.3,1.307,1.307,0,0,0-1.318,1.3m-31.963-7.946a1.3,1.3,0,1,0,1.306,1.312,1.3,1.3,0,0,0-1.306-1.312m68.609,7.942a1.3,1.3,0,1,0,1.31-1.287,1.305,1.305,0,0,0-1.31,1.287m-37.337.005a1.3,1.3,0,1,0-1.284,1.3,1.293,1.293,0,0,0,1.284-1.3m85.275-14.649a1.294,1.294,0,1,0,1.3,1.281,1.3,1.3,0,0,0-1.3-1.281m-6.653,3.352a1.294,1.294,0,1,0,1.3,1.286,1.3,1.3,0,0,0-1.3-1.286m-19.961,6.658a1.3,1.3,0,0,0,.007,2.592,1.3,1.3,0,0,0-.007-2.592m-79.971.012a1.269,1.269,0,0,0-1.294,1.286,1.284,1.284,0,1,0,2.569-.007,1.276,1.276,0,0,0-1.275-1.28m-25.357-8.714a1.278,1.278,0,0,0-2.556-.048,1.278,1.278,0,1,0,2.556.048m5.394,2.061a1.279,1.279,0,1,0,1.261,1.288,1.283,1.283,0,0,0-1.261-1.288m81.995,11.287a1.273,1.273,0,1,0,1.286-1.269,1.28,1.28,0,0,0-1.286,1.269m-44.109.027a1.266,1.266,0,1,0-1.274,1.247,1.271,1.271,0,0,0,1.274-1.247m92.948-17.618c-.583,0-1.166-.005-1.749-.01a.247.247,0,0,0-.212.115,1.33,1.33,0,0,0,1.03,2.152,1.313,1.313,0,0,0,1.232-.793,1.3,1.3,0,0,0-.274-1.454.1.1,0,0,0-.027-.009m-17.576,9.683a1.258,1.258,0,1,0,1.248,1.26,1.254,1.254,0,0,0-1.248-1.26m-123.663-7.5a1.314,1.314,0,0,0,1.442-2.028.36.36,0,0,0-.328-.171c-.5.009-1,0-1.5,0-.056,0-.111.008-.165.012a1.311,1.311,0,0,0,.546,2.183m114.884,12.061a1.243,1.243,0,1,0-1.242,1.241,1.251,1.251,0,0,0,1.242-1.241m-17.843,2.111a1.239,1.239,0,1,0-.021,2.477,1.239,1.239,0,0,0,.021-2.477m-78.755-5.4a1.239,1.239,0,1,0-1.246,1.227,1.23,1.23,0,0,0,1.246-1.227m8.758,2.053a1.235,1.235,0,1,0,1.241,1.227,1.228,1.228,0,0,0-1.241-1.227m17.915,4.587a1.232,1.232,0,1,0-1.237,1.237,1.237,1.237,0,0,0,1.237-1.237m87.485-10.042a1.222,1.222,0,1,0,1.247-1.2,1.224,1.224,0,0,0-1.247,1.2m9.086-3.314a1.209,1.209,0,0,0-1.212-1.223,1.212,1.212,0,0,0,.006,2.423,1.211,1.211,0,0,0,1.206-1.2m-42.408,13.356a1.205,1.205,0,1,0,1.209-1.2,1.209,1.209,0,0,0-1.209,1.2m-57.557,0a1.2,1.2,0,0,0-1.177-1.2,1.215,1.215,0,0,0-1.219,1.187,1.2,1.2,0,0,0,1.194,1.206,1.183,1.183,0,0,0,1.2-1.2m-33.336-10.025a1.2,1.2,0,0,0-2.4.014,1.2,1.2,0,1,0,2.4-.014m135.462-7.579c-.235,0-.471,0-.706,0a.273.273,0,0,0-.224.1,1.194,1.194,0,0,0-.286,1.154,1.211,1.211,0,0,0,1.317.918,1.156,1.156,0,0,0,1.036-.759,1.2,1.2,0,0,0-.215-1.294.316.316,0,0,0-.272-.116c-.216.005-.433,0-.65,0Zm-16.686,9.76a1.191,1.191,0,1,0,.01,2.382,1.191,1.191,0,0,0-.01-2.382m-11.195,4.469a1.186,1.186,0,1,0,1.2-1.165,1.186,1.186,0,0,0-1.2,1.165m-115.424-8.8a1.2,1.2,0,0,0,1.177-1.2,1.181,1.181,0,0,0-1.2-1.176,1.167,1.167,0,0,0-1.172,1.194,1.181,1.181,0,0,0,1.189,1.182m-2.2-3.973a1.19,1.19,0,0,0-.18-1.319.337.337,0,0,0-.291-.137c-.413.007-.827.011-1.24,0a.4.4,0,0,0-.358.178,1.226,1.226,0,1,0,2.069,1.281M319.265,1710a1.177,1.177,0,1,0,1.173-1.168,1.184,1.184,0,0,0-1.173,1.168m-8.812-4.462a1.173,1.173,0,1,0,1.153,1.21,1.177,1.177,0,0,0-1.153-1.21m91.141,7.825a1.175,1.175,0,0,0-1.148-1.163,1.166,1.166,0,1,0,1.148,1.163m-67.852,1.162a1.159,1.159,0,1,0-1.148-1.156,1.159,1.159,0,0,0,1.148,1.156m101.1-11.179a1.138,1.138,0,1,0-1.143,1.143,1.131,1.131,0,0,0,1.143-1.143m-68.882,13.314a1.129,1.129,0,0,0,2.258.023,1.129,1.129,0,0,0-2.258-.023m-2.219,1.129a1.124,1.124,0,1,0,0-2.247,1.124,1.124,0,1,0,0,2.247m52.234-7.771a1.123,1.123,0,1,0,1.12-1.136,1.12,1.12,0,0,0-1.12,1.136m-11.125,3.366a1.125,1.125,0,1,0-1.127,1.1,1.133,1.133,0,0,0,1.127-1.1m39.933-16.251a1.158,1.158,0,0,0-.272-1.271.343.343,0,0,0-.251-.1c-.357,0-.714,0-1.071,0a.365.365,0,0,0-.274.116,1.151,1.151,0,1,0,1.868,1.259m-72.157,19.511a1.121,1.121,0,1,0,1.126-1.1,1.116,1.116,0,0,0-1.126,1.1m-3.3.036a1.123,1.123,0,1,0,1.113-1.137,1.113,1.113,0,0,0-1.113,1.137m-67.732-13.32a1.12,1.12,0,1,0-1.119,1.109,1.124,1.124,0,0,0,1.119-1.109m139.943-3.348a1.119,1.119,0,1,0-1.128,1.1,1.111,1.111,0,0,0,1.128-1.1m-82.222,16.647a1.118,1.118,0,1,0,2.235.011,1.118,1.118,0,0,0-2.235-.011m17.8-1.107a1.112,1.112,0,1,0,1.1,1.122,1.107,1.107,0,0,0-1.1-1.122m-59.937-6.654a1.089,1.089,0,0,0-1.141,1.056,1.106,1.106,0,0,0,1.061,1.166,1.127,1.127,0,0,0,1.16-1.072,1.11,1.11,0,0,0-1.08-1.15m39.882,6.657a1.1,1.1,0,0,0-1.092,1.106,1.086,1.086,0,0,0,1.116,1.108,1.1,1.1,0,0,0,1.109-1.118,1.119,1.119,0,0,0-1.133-1.1m71.1-8.824a1.113,1.113,0,1,0-1.133,1.088,1.1,1.1,0,0,0,1.133-1.088m-96.6,6.637a1.108,1.108,0,0,0-2.216-.018,1.108,1.108,0,1,0,2.216.018m-40.34-17.5a.346.346,0,0,0-.251-.108q-.508,0-1.017,0a.356.356,0,0,0-.253.1,1.114,1.114,0,0,0-.359.657,1.131,1.131,0,0,0,1,1.3,1.118,1.118,0,0,0,1.246-1.045,1.166,1.166,0,0,0-.368-.905m89.191,19.7a1.1,1.1,0,0,0-.028,2.19,1.1,1.1,0,1,0,.028-2.19m-73.3-9.953a1.1,1.1,0,1,0,1.108,1.083,1.1,1.1,0,0,0-1.108-1.083M294.92,1700a1.1,1.1,0,0,0-1.093-1.1,1.1,1.1,0,0,0-.01,2.191,1.1,1.1,0,0,0,1.1-1.09m58.866,17.748a1.07,1.07,0,0,0,1.083-1.07,1.089,1.089,0,1,0-2.178-.016,1.067,1.067,0,0,0,1.094,1.085m29.973-2.157a1.071,1.071,0,1,0,1.079,1.071,1.064,1.064,0,0,0-1.079-1.071m24.392-2.238a1.065,1.065,0,1,0-1.067,1.081,1.059,1.059,0,0,0,1.067-1.081m-58.793,3.3a1.066,1.066,0,0,0,2.133.016,1.066,1.066,0,0,0-2.133-.016m71.045-5.587a1.06,1.06,0,1,0-1.068-1.052,1.061,1.061,0,0,0,1.068,1.052m-94.365,2.3a1.062,1.062,0,1,0,1.056-1.06,1.065,1.065,0,0,0-1.056,1.06m62.071,3.313a1.05,1.05,0,1,0-1.058,1.026,1.04,1.04,0,0,0,1.058-1.026m-39.938-.025a1.047,1.047,0,1,0-2.094.02,1.047,1.047,0,0,0,2.094-.02m88.9-14.354a1.047,1.047,0,1,0,1.037,1.046,1.047,1.047,0,0,0-1.037-1.046m-123.3,6.664a1.038,1.038,0,1,0,1.055,1.029,1.035,1.035,0,0,0-1.055-1.029m116.638-3.291a1.031,1.031,0,1,0,1.028,1.02,1.032,1.032,0,0,0-1.028-1.02m16.371-9.921a.475.475,0,0,0-.361.127,1.016,1.016,0,0,0-.35,1.09,1.044,1.044,0,1,0,1.666-1.088.494.494,0,0,0-.361-.13c-.1.008-.207,0-.311,0s-.189.006-.282,0m-148.64,7.606a1.021,1.021,0,1,0-2.043-.022,1.021,1.021,0,1,0,2.043.022m91.254,13.3a1.021,1.021,0,1,0,1.022-1.019,1.011,1.011,0,0,0-1.022,1.019m54.322-17.682a1.011,1.011,0,0,0-1.015,1.024,1.015,1.015,0,0,0,2.03,0,1,1,0,0,0-1.016-1.02m-100.962,17.7a1.013,1.013,0,1,0,1.012-1.025.994.994,0,0,0-1.012,1.025m68.637-3.3a1.009,1.009,0,1,0-2.018,0,1.009,1.009,0,0,0,2.018,0m-107.608-7.671a1.006,1.006,0,1,0,1,1.008,1,1,0,0,0-1-1.008m-16.866-9.946a.621.621,0,0,0-.527.215,1.025,1.025,0,0,0-.211,1.146.97.97,0,0,0,.945.589.939.939,0,0,0,.907-.6.986.986,0,0,0-.179-1.1.63.63,0,0,0-.568-.248,1.44,1.44,0,0,1-.169,0,1.557,1.557,0,0,1-.2,0m36.908,16.613a1,1,0,1,0,.969,1.008.992.992,0,0,0-.969-1.008m70.943,4.3a.994.994,0,1,0-1,.982,1,1,0,0,0,1-.982m-105.3-16.683a.992.992,0,1,0,1.985,0,.992.992,0,0,0-1.985,0m50.985,17.659a.984.984,0,1,0-.969-1.005.988.988,0,0,0,.969,1.005m84.28-7.656a.982.982,0,1,0-.973,1,.964.964,0,0,0,.973-1m-115.268.022a.961.961,0,0,0,1.923,0,.961.961,0,1,0-1.923,0m104.3,2.405a.947.947,0,1,0,.926.977.948.948,0,0,0-.926-.977m-15.748,4.242a.941.941,0,1,0-.947.946.931.931,0,0,0,.947-.946m41.463-13.322a.944.944,0,1,0,1.888,0,.944.944,0,0,0-1.888,0m-101.421,13.328a.951.951,0,0,0-.955-.943.94.94,0,1,0,.021,1.879.949.949,0,0,0,.934-.936m96.593-9.937a.937.937,0,0,0-.943-.956.936.936,0,0,0-.011,1.872.937.937,0,0,0,.954-.916m15.734-10.965a.933.933,0,1,0-.015,1.866.933.933,0,1,0,.015-1.866M320.455,1712.44a.925.925,0,0,0-.945.921.936.936,0,1,0,.945-.921m-19.976-4.809a.917.917,0,1,0-.921-.913.916.916,0,0,0,.921.913m-6.66-5.19a.917.917,0,0,0,0,1.833.917.917,0,1,0,0-1.833M446.177,1700a.9.9,0,1,0,.895-.895.892.892,0,0,0-.895.895m-44.85,16.678a.9.9,0,1,0-.9.891.888.888,0,0,0,.9-.891M283.8,1695.8a.9.9,0,1,0,.9.886.894.894,0,0,0-.9-.886m143.253,13.317a.881.881,0,0,0-.895.895.89.89,0,1,0,.895-.895m-94.185,7.546a.884.884,0,0,0,1.767.032.884.884,0,1,0-1.767-.032m-26.616-6.646a.883.883,0,0,0,.869.864.87.87,0,0,0,.878-.852.874.874,0,1,0-1.747-.012m109.97,3.332a.871.871,0,1,0,1.741.011.871.871,0,0,0-1.741-.011M287.977,1700.02a.872.872,0,1,0-.877.851.87.87,0,0,0,.877-.851m29.193,12.5a.854.854,0,1,0,.829.866.849.849,0,0,0-.829-.866m85.712,4.133a.845.845,0,1,0,.856-.824.837.837,0,0,0-.856.824m41.668-13.3a.829.829,0,1,0-.818.837.834.834,0,0,0,.818-.837M331.288,1716.68a.83.83,0,1,0-.835.814.825.825,0,0,0,.835-.814m105.785-10.793a.828.828,0,1,0,.815.832.821.821,0,0,0-.815-.832M363.738,1719.2a.823.823,0,1,0,.815.835.821.821,0,0,0-.815-.835m7.531.809a.821.821,0,1,0-.814.837.824.824,0,0,0,.814-.837m-4.179-.809a.823.823,0,0,0-.009,1.646.823.823,0,1,0,.009-1.646m6.671.011a.814.814,0,1,0-.017,1.627.824.824,0,0,0,.817-.806.814.814,0,0,0-.8-.821m-14.14.782a.815.815,0,1,0,.837-.783.821.821,0,0,0-.837.783m-62.491-12.475a.806.806,0,1,0-.819-.794.808.808,0,0,0,.819.794M376.3,1720a.8.8,0,0,0,.759.827.8.8,0,1,0,.073-1.608.79.79,0,0,0-.833.78m76.632-23.308a.8.8,0,1,0,1.592-.013.8.8,0,0,0-1.592.013m-95.862,22.536a.8.8,0,1,0,.8.8.8.8,0,0,0-.8-.8m-66.57-16.668a.8.8,0,1,0,.754.829.8.8,0,0,0-.754-.829m139.108,7.457a.8.8,0,1,0,.8-.8.8.8,0,0,0-.8.8m-8.433,3.347a.784.784,0,1,0-.787.788.773.773,0,0,0,.787-.788m-14.1,2.518a.784.784,0,1,0,.789.784.773.773,0,0,0-.789-.784M353,1720.007a.774.774,0,1,0,1.547.023.766.766,0,0,0-.761-.783.774.774,0,0,0-.786.76m27.4-.76a.774.774,0,0,0-.782.787.775.775,0,1,0,1.549-.016.768.768,0,0,0-.768-.77m70.739-19.219a.772.772,0,0,0-1.543-.058.772.772,0,0,0,1.543.058M313.794,1712.6a.77.77,0,1,0,.762.775.764.764,0,0,0-.762-.775m-10.783-2.592a.766.766,0,1,0,1.532,0,.766.766,0,1,0-1.532,0M327.1,1715.9a.768.768,0,1,0-.015,1.536.768.768,0,0,0,.015-1.536m-46.62-19.959a.763.763,0,1,0-.044,1.524.763.763,0,0,0,.044-1.524m102.508,24.109a.774.774,0,0,0,.777.737.763.763,0,0,0,.75-.788.764.764,0,1,0-1.526.051m-32.582.729a.753.753,0,1,0-.74-.766.763.763,0,0,0,.74.766M284.549,1700a.741.741,0,1,0-.737.738.738.738,0,0,0,.737-.738m102.5,19.29a.732.732,0,0,0,.006,1.464.732.732,0,1,0-.006-1.464m24.05-2.625a.706.706,0,0,0-.711-.72.719.719,0,1,0,0,1.439.7.7,0,0,0,.711-.719m-63.263,3.342a.719.719,0,0,0-.7-.7.728.728,0,0,0-.722.717.709.709,0,0,0,.723.708.7.7,0,0,0,.7-.723m43.281.029a.708.708,0,0,0-.681-.721.722.722,0,0,0-.729.707.706.706,0,0,0,.7.7.691.691,0,0,0,.709-.686m49.318-14.029a.705.705,0,1,0-.013,1.41.705.705,0,0,0,.013-1.41M323.1,1716.68a.7.7,0,0,0,1.391-.01.7.7,0,0,0-.7-.7.707.707,0,0,0-.692.711m100.66-2.612a.695.695,0,1,0-.706-.692.692.692,0,0,0,.706.692m-129.928-8.04a.687.687,0,1,0-.014,1.375.687.687,0,0,0,.014-1.375m139.188,3.993a.678.678,0,0,0,.692.675.682.682,0,1,0-.692-.675m14.738-6.664a.685.685,0,1,0-.677.686.695.695,0,0,0,.677-.686m-160.657-.673a.674.674,0,1,0,.672.66.668.668,0,0,0-.672-.66m56.671,16.67a.672.672,0,1,0,.663.667.669.669,0,0,0-.663-.667m50,0a.672.672,0,1,0,.67.66.673.673,0,0,0-.67-.66m-82.684-5.982a.66.66,0,1,0-.661.661.657.657,0,0,0,.661-.661m103.3,3.305a.651.651,0,0,0-.659-.659.651.651,0,0,0,.012,1.3.652.652,0,0,0,.647-.642m-114.563-6.663a.625.625,0,0,0,.642.644.64.64,0,0,0,.656-.663.658.658,0,0,0-.661-.636.644.644,0,0,0-.636.656m157.217-13.945a.635.635,0,1,0-.022,1.27.635.635,0,0,0,.022-1.27m-116.6,23.339a.623.623,0,0,0-.6.627.63.63,0,0,0,.617.612.62.62,0,0,0,.623-.629.613.613,0,0,0-.641-.609m86.6-6.644a.608.608,0,0,0-.608.607.617.617,0,0,0,.609.608.608.608,0,0,0,0-1.215m26.683-13.372a.6.6,0,0,0-.607.606.606.606,0,1,0,.607-.606m-132.689,17.283a.6.6,0,0,0-.613-.6.6.6,0,0,0,.013,1.193.6.6,0,0,0,.6-.589m76.619,3.1a.626.626,0,0,0-.3-.323.649.649,0,0,0-.792.171.592.592,0,0,0,.022.792,10.654,10.654,0,0,0,1.079-.182.55.55,0,0,0-.007-.458m39.4-10.325a.562.562,0,1,0,.563.555.565.565,0,0,0-.563-.555m-99.941,10.012a.561.561,0,1,0,.552.563.566.566,0,0,0-.552-.563m107.157-12.747a.56.56,0,1,0-.554.559.55.55,0,0,0,.554-.559m-137.125,6.111a.537.537,0,0,0-.57.536.55.55,0,0,0,.525.557.542.542,0,0,0,.567-.54.529.529,0,0,0-.522-.553m-9.512-2.817a.518.518,0,0,0-.52-.517.532.532,0,0,0-.534.537.54.54,0,0,0,.539.505.525.525,0,0,0,.514-.525m152.749-7.175a.523.523,0,1,0-.018,1.045.523.523,0,0,0,.018-1.045m-159.763,4.344a.158.158,0,0,0,.206-.028.555.555,0,0,0,.182-.584.544.544,0,0,0-.447-.417.529.529,0,0,0-.548.2,1.692,1.692,0,0,0-.144.289,6.383,6.383,0,0,0,.752.535m27.009,9.489a.493.493,0,1,0-.5.493.487.487,0,0,0,.5-.493m16.13,2.865a.493.493,0,1,0,.48.493.491.491,0,0,0-.48-.493m83.034-2.77a4.711,4.711,0,0,1,.705-.163c.056,0,.109-.06.162-.091a.6.6,0,0,0-.737-.417.586.586,0,0,0-.349.269.45.45,0,0,0-.06.4.435.435,0,0,0,.278.007m-112.607-3.411a.416.416,0,0,0-.424-.4.412.412,0,0,0-.413.437.416.416,0,0,0,.422.4.421.421,0,0,0,.415-.439m156.22-17.069a.409.409,0,0,0-.442.407.416.416,0,0,0,.389.436.433.433,0,0,0,.449-.411.426.426,0,0,0-.4-.432m-3.368,3.3a.417.417,0,0,0-.436.415.412.412,0,0,0,.432.417.407.407,0,0,0,.406-.413.412.412,0,0,0-.4-.419m-126.563,20.029a.416.416,0,1,0-.055.83.416.416,0,1,0,.055-.83m-16.689-3.331a.388.388,0,0,0-.028.775.388.388,0,1,0,.028-.775m47.034,7.141a.275.275,0,0,0,.015-.083.413.413,0,0,0-.432-.418.418.418,0,0,0-.384.438c.011.125.07.189.194.192.177,0,.355,0,.548,0,.03-.063.048-.1.06-.131m-3.736.2c.028,0,.056,0,.084,0a.243.243,0,0,0,.257-.21.36.36,0,0,0-.131-.378.379.379,0,0,0-.4-.033.344.344,0,0,0-.185.325c0,.185.1.321.289.3a.65.65,0,0,1,.084,0Zm6.869-.65a.415.415,0,0,0-.5.034.569.569,0,0,0-.134.208.247.247,0,0,0,.053.278,3.741,3.741,0,0,0,.73-.02c.054-.255.007-.4-.153-.5m-36.848-3.292a.346.346,0,0,0-.359.348.339.339,0,0,0,.332.344.342.342,0,0,0,.36-.345.348.348,0,0,0-.333-.347m72.876.232a1.2,1.2,0,0,0,.136-.027c.054-.011.108-.025.163-.032.185-.023.37-.041.555-.064a.09.09,0,0,0,.049-.152.6.6,0,0,0-1.029.181.236.236,0,0,0,.011.084.688.688,0,0,0,.115.01m-32.476,3.423a.348.348,0,0,0-.124-.325.4.4,0,0,0-.307-.116.412.412,0,0,0-.3.126.343.343,0,0,0-.1.327,2.259,2.259,0,0,0,.838-.013m-13.741.219c.056,0,.112,0,.167,0a.175.175,0,0,0,.185-.168.34.34,0,0,0-.165-.357.314.314,0,0,0-.344-.009.337.337,0,0,0-.181.349c.012.125.067.177.2.186.046,0,.093,0,.139,0Zm-3.191-.489a.3.3,0,0,0-.362.037.4.4,0,0,0-.095.166.187.187,0,0,0,.058.213,1.393,1.393,0,0,0,.5-.005c.056-.227.029-.324-.105-.411m80.145-10.013c.01,0,.013-.031.026-.066a.511.511,0,0,0-.85.294,3.043,3.043,0,0,0,.824-.228m-59.884,10.11a.4.4,0,0,0-.414-.29.456.456,0,0,0-.279.115c-.053.049-.115.1-.093.185a2.046,2.046,0,0,0,.785-.01m-47.028-3.386a.254.254,0,1,0-.029.506.253.253,0,0,0,.271-.253.248.248,0,0,0-.242-.253m123.356-13.483a.431.431,0,0,0-.323.052.319.319,0,0,0-.148.426,4.749,4.749,0,0,0,.667-.328.212.212,0,0,0-.195-.15m-136.5,10.306a.248.248,0,0,0-.425-.105.081.081,0,0,0,.016.14c.13.039.244.141.411.094a.431.431,0,0,0,0-.129m36.711,6.7a.179.179,0,0,0-.1-.2.335.335,0,0,0-.18-.055.349.349,0,0,0-.172.081.146.146,0,0,0-.057.18,1.518,1.518,0,0,0,.506,0m26.06-.277a2.083,2.083,0,0,1,.231-.05c.083-.008.166,0,.316,0-.245-.162-.374-.144-.547.051M440.18,1709.7c.067-.011.133-.019.169-.1-.141.012-.141.012-.169.1m-96.387,13.412c-.008,0-.016-.013-.022-.011a.2.2,0,0,0-.039.017l.023.013.038-.019" transform="translate(-279.687 -1695.758)" fill="none"/>
    </clipPath>
    <linearGradient id="linear-gradient" x1="-0.096" y1="0.999" x2="-0.096" y2="0.999" gradientUnits="objectBoundingBox">
      <stop offset="0" stop-color="#9ec8ff"/>
      <stop offset="1" stop-color="#e7f3fe"/>
    </linearGradient>
    <clipPath id="clip-path-5">
      <rect id="Rectángulo_50246" data-name="Rectángulo 50246" width="57.77" height="57.848" fill="none"/>
    </clipPath>
    <clipPath id="clip-path-6">
      <rect id="Rectángulo_50249" data-name="Rectángulo 50249" width="51.812" height="26.081" fill="none"/>
    </clipPath>
    <clipPath id="clip-path-7">
      <path id="Trazado_229053" data-name="Trazado 229053" d="M124.032,698.537a4.692,4.692,0,1,1,4.692,4.692,4.692,4.692,0,0,1-4.692-4.692m-4.165,0a8.857,8.857,0,1,0,8.857-8.857,8.857,8.857,0,0,0-8.857,8.857" transform="translate(-119.867 -689.68)" fill="none"/>
    </clipPath>
    <clipPath id="clip-path-9">
      <rect id="Rectángulo_50268" data-name="Rectángulo 50268" width="30.817" height="30.197" fill="none"/>
    </clipPath>
  </defs>
  <g id="Grupo_117835" data-name="Grupo 117835" transform="translate(-311 -17202)">
    <g id="Rectángulo_50233" data-name="Rectángulo 50233" transform="translate(311 17202)" fill="#fff" stroke="#4dd0e1" stroke-width="4">
      <rect width="244" height="181" rx="25" stroke="none"/>
      <rect x="2" y="2" width="240" height="177" rx="23" fill="none"/>
    </g>
    <g id="Grupo_117834" data-name="Grupo 117834">
      <g id="Grupo_115092" data-name="Grupo 115092" transform="translate(325 17230.682)">
        <g id="Grupo_115091" data-name="Grupo 115091" clip-path="url(#clip-path)">
          <g id="Grupo_115083" data-name="Grupo 115083" transform="translate(0 0)">
            <g id="Grupo_115082" data-name="Grupo 115082" clip-path="url(#clip-path-2)">
              <path id="Trazado_228939" data-name="Trazado 228939" d="M1107.764,45.362c9.023-9.38-35.21-42.023-71.737-45-33.629-2.74-78.058,10.525-32.951,30.135,42.98,18.685,99.973,19.766,104.687,14.864" transform="translate(-922.672 -0.004)" fill="#e7f3fe"/>
              <path id="Trazado_228940" data-name="Trazado 228940" d="M8.548,453.224c21.066-26.651,65.3,1.5,103.156,8.336s99.421-4.026,99.267,25.965c-.164,31.975-13.818,49.965-88.708,58.556S13.085,528.2,3.293,500.007c-7.622-21.944-.376-39.66,5.254-46.783" transform="translate(0 -414.449)" fill="#e7f3fe"/>
              <path id="Trazado_228941" data-name="Trazado 228941" d="M2202.513,1169.348c-3.092,6.276-6.968,23.427-8.025,24.366s-7.166,4.581-8.223,6.343-.587,1.175-.117,1.292,27.018.235,27.018.235-3.054-18.208-3.406-18.325-7.246-13.912-7.246-13.912" transform="translate(-2049.524 -1096.532)" fill="#a2dff2"/>
              <path id="Trazado_228942" data-name="Trazado 228942" d="M2386.217,1201.5c4.876.034,10.021.061,12.853.074l-3.878-23.191c-2.068-4.01-4.579-9.035-4.579-9.035-.39.791-.792,1.755-1.2,2.838-.4,17.419,2.106,22.3.222,25.4a12.208,12.208,0,0,1-3.419,3.909" transform="translate(-2237.624 -1096.532)" fill="#96cfe0"/>
              <path id="Trazado_228943" data-name="Trazado 228943" d="M2472.5,1047.7c4.409,4.07,14.224,7.93,14.224,7.93s1.491,13.778.474,21.579-.452,9.384-.452,9.384l-21.194.181s-1.76-3.95-6.732-15.67a39.207,39.207,0,0,1-2.6-15.829l12.324-5.54Z" transform="translate(-2303.231 -982.46)" fill="#a2dff2"/>
              <path id="Trazado_228944" data-name="Trazado 228944" d="M2585.188,1211.908h20.238s-.565-1.583.452-9.384c.838-6.424-.025-16.9-.356-20.4l-1.841-.789c-4.621,1.331-7.283,8.223-8.066,14.958-.524,4.507-7.99,8.943-12.874,11.385a39.983,39.983,0,0,0,2.447,4.228" transform="translate(-2421.91 -1107.773)" fill="#96cfe0"/>
              <path id="Trazado_228945" data-name="Trazado 228945" d="M2663.543,1094.845s.19,5.819,1.182,5.756,6.76-7.377,6.76-7.377l-.98-.469Z" transform="translate(-2497.681 -1024.708)" fill="#96cfe0"/>
              <path id="Trazado_228946" data-name="Trazado 228946" d="M2589.308,1115.87s-1.254,5.352-1.876,5.228-1.463-5.566-1.463-5.566Z" transform="translate(-2424.938 -1046.067)" fill="#96cfe0"/>
              <path id="Trazado_228947" data-name="Trazado 228947" d="M2599.426,1110.255l1.725.187.664,2.055s-1.517,1.776-1.548,2.491.334,3.393.354,5.822-.872,12.1-.467,18.018l.4,5.922-3.467.135s-.187-6.515,0-13.489a112.9,112.9,0,0,1,2.172-16.408l-.783-2.4Z" transform="translate(-2435.289 -1041.118)" fill="#f37168"/>
              <path id="Trazado_228948" data-name="Trazado 228948" d="M2527.707,820.6a12.081,12.081,0,0,0,.4,10.255c-.089-.212,3.693-9.174,3.693-9.174Z" transform="translate(-2369.391 -769.501)" fill="#2e5b9a"/>
              <path id="Trazado_228949" data-name="Trazado 228949" d="M2612.531,885.122l3.094,11.309a1.023,1.023,0,0,1-.2.916c-.726.894-1.759,2.733-3.843,3.323a5.171,5.171,0,0,1-1.309.147.883.883,0,0,1-.872-.715l-2.073-10.726Z" transform="translate(-2444.97 -830.005)" fill="#f09959"/>
              <path id="Trazado_228950" data-name="Trazado 228950" d="M2611.94,900.3l-1.131.464-3.477,2.845,1.334,6.8.532,2.711c3.165-1.973,4.326-5.193,2.741-12.818" transform="translate(-2444.97 -844.238)" fill="#e38540"/>
              <path id="Trazado_228951" data-name="Trazado 228951" d="M2523.279,840.386c0,3.783-2.278,6.763-5.093,6.656s-4.543-2.236-5.1-7.042c-.439-3.77.649-8.158,3.465-8.051s6.728,4.655,6.73,8.438" transform="translate(-2356.503 -780.14)" fill="#f09959"/>
              <path id="Trazado_228952" data-name="Trazado 228952" d="M2629.793,1173.62c4.094.925,4.855,9.241,6.187,18.013.153,1.01.94,9.555.94,9.555a2.616,2.616,0,0,1-1.488,2.349c-1.338.669-1.88,1.175-9.633,1.253-7.446.075-17.047-.235-17.047-.235a10.276,10.276,0,0,1,.679-4.125c1.148-2.036,12.922-4.96,14.019-5.117.157-2.193-1.081-10.127.626-15.507,1.175-3.7,2.438-5.639,4.02-6.145a3.18,3.18,0,0,1,1.7-.042" transform="translate(-2446.298 -1100.449)" fill="#a2dff2"/>
              <path id="Trazado_228953" data-name="Trazado 228953" d="M2676.406,1234.161c3.671.055,8.709.108,12.837.066,7.753-.078,8.294-.584,9.633-1.253a2.752,2.752,0,0,0,1.645-2.115s-.792-9.092-.94-10.1c-.862-5.874-1.792-12.595-3.959-15.839a44.289,44.289,0,0,1,2.4,13.156,13.108,13.108,0,0,1-.4,3.623,2.01,2.01,0,0,1-2.663,1.488c-2.82-.783-6.344.862-6.344.862a8.829,8.829,0,0,1,5.169-.078c2.506.861,7.675,6.578,2.036,8.693-1.726.647-12.061,1.175-19.415,1.5" transform="translate(-2509.743 -1129.886)" fill="#96cfe0"/>
              <path id="Trazado_228954" data-name="Trazado 228954" d="M2614.363,1583.046a3.882,3.882,0,0,1,3.185-1.775c2.14,0,1.984,3.5,1.671,4.647a1.739,1.739,0,0,1-1.566,1.2l-4.312-.109Z" transform="translate(-2450.605 -1482.803)" fill="#96cfe0"/>
              <path id="Trazado_228955" data-name="Trazado 228955" d="M1949.056,1648.892h35.973a1.8,1.8,0,0,0-1.8-1.8h-34.17Z" transform="translate(-1827.686 -1544.523)" fill="#75a1de"/>
              <path id="Trazado_228956" data-name="Trazado 228956" d="M2440.391,1571.246c-4.336-1.994-5.562-1.488-6.548-1.869-2.435-.941-3.112-.37-5.1,3.914-.4.854.544.99,1.481,1.07s2.236-1.643,2.618-1.82a5.11,5.11,0,0,1,1.379-.2s-.312-.027-.86.87-1.151,1.212-.423,1.274.934-1.125,2.265-.75,1.058,1.642,4.45,1.532c3.218-.1,5.622.218,5.74-1.816.113-1.929.408-2.873-1.389-3.367-1.383-.38-3.61,1.159-3.61,1.159" transform="translate(-2277.412 -1471.286)" fill="#f09959"/>
              <path id="Trazado_228957" data-name="Trazado 228957" d="M2617.991,1588.947c3.02-.083,1.824,3.568,1.486,3.854s1.656.252,1.656.252a3.624,3.624,0,0,0,.423-3.2,2.927,2.927,0,0,0-2.188-1.995l-1.389.615Z" transform="translate(-2454.954 -1488.981)" fill="#a86b48"/>
              <path id="Trazado_228958" data-name="Trazado 228958" d="M2615.452,1582.1c.024.464-.714.88-1.649.929s-1.712-.289-1.736-.753.714-.88,1.649-.929,1.712.289,1.736.753" transform="translate(-2449.41 -1482.871)" fill="#2e5b9a"/>
              <path id="Trazado_228959" data-name="Trazado 228959" d="M2616.588,1580.167c.022.415-.638.786-1.473.83s-1.529-.258-1.551-.673.638-.786,1.473-.83,1.529.258,1.551.673" transform="translate(-2450.814 -1481.133)" fill="#3e6bab"/>
              <path id="Trazado_228960" data-name="Trazado 228960" d="M2620.65,1581.1c.015.3-.459.566-1.061.6s-1.1-.186-1.117-.484.459-.566,1.061-.6,1.1.186,1.117.484" transform="translate(-2455.417 -1482.182)" fill="#f0ceb4"/>
              <path id="Trazado_228961" data-name="Trazado 228961" d="M2199.8,1598.468c2.229-1.239,4.955-.826,5.945.413s1.156,2.064-1.073,2.064-6.688.165-7.432.083,2.56-2.56,2.56-2.56" transform="translate(-2060.315 -1498.228)" fill="#f09959"/>
              <path id="Trazado_228962" data-name="Trazado 228962" d="M2286.521,1600.789c2.395-.578,4.031.815,6.028,2.147,1.734,1.156,2.083,2.28.165,1.321a14.467,14.467,0,0,0-4.459-1.569Z" transform="translate(-2144.136 -1500.98)" fill="#f09959"/>
              <path id="Trazado_228963" data-name="Trazado 228963" d="M2148.823,1615.362c-1.209,0-2.265-.386-3.119-.314s-3.557,2.845-3.13,3.059a.921.921,0,0,0,.1.042,1.457,1.457,0,0,0,1.728-.606c.383-.614,1-1.328,1.729-1.073a7.691,7.691,0,0,0,2.479.386Z" transform="translate(-2009.111 -1514.468)" fill="#f09959"/>
              <path id="Trazado_228964" data-name="Trazado 228964" d="M2240.614,1587.832c-1.239-.5.743-4.624,1.4-4.624s3.138,1.982,3.138,1.982-.583.329-2.56-.33c-.5-.165-.908,2.642-1.487,2.973s-.5,0-.5,0" transform="translate(-2100.714 -1484.62)" fill="#f7a96f"/>
              <path id="Trazado_228965" data-name="Trazado 228965" d="M2585.7,1070.594l.581,3.095-1.7,3.672-1.843-3.892Z" transform="translate(-2421.91 -1003.927)" fill="#a2dff2"/>
              <path id="Trazado_228966" data-name="Trazado 228966" d="M2473.811,791.479c.713,4.492,2.376,4.966,3.553,5.377s5.582-1.441,6.052-2.671c1.2-3.147-.737-5.517-.344-5.548s.949,1,2.218,2.248c.118.116.935.879.915.578-.273-4.09,1.582-5.718.338-9.676-.917-2.918-2.769-2.331-2.769-2.331s-1.684-2.272-5.437-1.285c-2.514.661-4.6,2.074-7.107,3.236s4.335,6.059,7.342,3.253,2.209,2.3,2.816,2.571.268,0,.968,2.409-2.12,4.585-2.974,4.96c-2.73,1.2-3.3.816-4.119-.143a12.47,12.47,0,0,1-1.452-2.978" transform="translate(-2316.837 -729.481)" fill="#2e5b9a"/>
              <path id="Trazado_228967" data-name="Trazado 228967" d="M2667.952,902.9c-.119,1.187-.785,2.063-1.487,1.956s-.891-1.019-1.055-2.343c-.148-1.194.785-2.063,1.487-1.956s1.175,1.156,1.055,2.343" transform="translate(-2499.417 -844.473)" fill="#f09959"/>
              <path id="Trazado_228968" data-name="Trazado 228968" d="M2665.076,1051.739l3.076,2.865s-5.919,5.573-6.431,5.511-1.382-4.733-1.382-4.733Z" transform="translate(-2494.677 -986.246)" fill="#a2dff2"/>
              <path id="Trazado_228969" data-name="Trazado 228969" d="M2619.483,1109.133c-.568.267-.385,1.077-.626,1.358s-.385.358-.578-.035-.163-1.279-.313-1.323a30.036,30.036,0,0,0-1.292,3.526s.839-2.283,1.03-2.034.039.481.734.523a5.123,5.123,0,0,0,1.578-.251Z" transform="translate(-2453.73 -1040.066)" fill="#a2dff2"/>
              <path id="Trazado_228970" data-name="Trazado 228970" d="M1824.373,1392.776h19.214l-8.16-17.95a1.467,1.467,0,0,0-1.336-.86h-17.38a.573.573,0,0,0-.522.81Z" transform="translate(-1703.046 -1288.407)" fill="#a8ceff"/>
              <path id="Trazado_228971" data-name="Trazado 228971" d="M1786.712,1373.964h17.733a1.467,1.467,0,0,1,1.336.86l8.159,17.95h-19.567l-8.182-18a.573.573,0,0,1,.521-.81" transform="translate(-1674.914 -1288.406)" fill="#75a1de"/>
              <path id="Trazado_228972" data-name="Trazado 228972" d="M1936.209,1493.894c.673,1.394,1.764,2.26,2.437,1.935s.675-1.718,0-3.112-1.764-2.26-2.438-1.935-.674,1.719,0,3.112" transform="translate(-1815.166 -1397.885)" fill="#6695d6"/>
              <path id="Trazado_228973" data-name="Trazado 228973" d="M814.986,840.785c-.3,0-.593-.015-.881-.03-.239-.012-.485-.025-.723-.028a.152.152,0,0,1,0-.3c.245,0,.495.016.736.028,1.8.091,3.67.186,5.488-3.309a16.2,16.2,0,0,0,1.471-7.788,13.092,13.092,0,0,0-4.637-9.574.152.152,0,1,1,.195-.233,13.389,13.389,0,0,1,4.746,9.791,16.523,16.523,0,0,1-1.505,7.944c-1.6,3.085-3.311,3.5-4.891,3.5" transform="translate(-762.592 -768.481)" fill="#303c60"/>
              <path id="Trazado_228974" data-name="Trazado 228974" d="M826.927,869.269c-.071,0-.141,0-.212-.005a.152.152,0,0,1,.015-.3c.065,0,.131,0,.2,0,1.883,0,3.621-1.333,4.8-3.689,1.931-3.873,2.118-10.228-1.338-14.375a.152.152,0,0,1,.233-.194c3.539,4.246,3.35,10.745,1.376,14.7-1.228,2.463-3.065,3.857-5.066,3.857" transform="translate(-775.099 -797.682)" fill="#303c60"/>
              <path id="Trazado_228975" data-name="Trazado 228975" d="M644.652,805.854c5.448-4.229,10.564-1.987,12.4,3.736,1.712,5.346-.482,16.833-8.609,14.831-8.407-2.071-9.108-4.645-9.044-8.386a13.275,13.275,0,0,1,5.256-10.181" transform="translate(-599.576 -753.618)" fill="#303c60"/>
              <path id="Trazado_228976" data-name="Trazado 228976" d="M553.626,1111.092,545.839,1114s2.18,15.817,2.366,21.857a23.694,23.694,0,0,1-2.865,11.281H565.7s2.8-16.449,2.242-22.24-4.421-11.791-4.608-11.936-4.857-1.2-4.857-1.2Z" transform="translate(-511.382 -1041.903)" fill="#a2dff2"/>
              <path id="Trazado_228977" data-name="Trazado 228977" d="M838.326,1423.755s.784,7.348,1.108,7.722,12.28,6.226,12.28,6.226l-17.374,1.184Z" transform="translate(-782.386 -1335.096)" fill="#d54a41"/>
              <path id="Trazado_228978" data-name="Trazado 228978" d="M834.341,1141.078c1.93.042,2.454,3.2,2.909,5.543s-2.909-5.543-2.909-5.543" transform="translate(-782.386 -1070.022)" fill="#d54a41"/>
              <path id="Trazado_228979" data-name="Trazado 228979" d="M567.539,1125.264c-1.059-3.8-6.747-14.376-6.747-14.376l-7.451,2.919s1.708,12.4,2.23,19.431l2.83,13.707h9.138s1.059-17.881,0-21.68" transform="translate(-518.884 -1041.712)" fill="#f37168"/>
              <path id="Trazado_228980" data-name="Trazado 228980" d="M612.464,1553.683l8.4-1.928-.686,7.161Z" transform="translate(-574.325 -1455.126)" fill="#d54a41"/>
              <path id="Trazado_228981" data-name="Trazado 228981" d="M553.719,1192.777c-1.37-1.855-2.71-3.9-1.4-8.157s1.432-5.791.975-9.652-2.532-10.026-6.58-10.213c0,0-.133,1.35-.349,3.505.657,5.091,1.716,13.787,1.844,17.916a23.693,23.693,0,0,1-2.864,11.281l16.564.364s-6.815-3.189-8.185-5.044" transform="translate(-511.381 -1092.224)" fill="#d54a41"/>
              <path id="Trazado_228982" data-name="Trazado 228982" d="M788.914,1140.218c-.56-5.791-4.421-11.792-4.608-11.936-.115-.089-1.943-.528-3.323-.85.406.957,4.684,11.152,4.506,15.352-.187,4.408.005,19.674.005,19.674h1.178s2.8-16.449,2.242-22.24" transform="translate(-732.35 -1057.226)" fill="#f37168"/>
              <g id="Grupo_115075" data-name="Grupo 115075" transform="translate(17.417 105.597)" opacity="0.5">
                <g id="Grupo_115074" data-name="Grupo 115074">
                  <g id="Grupo_115073" data-name="Grupo 115073" clip-path="url(#clip-path-3)">
                    <g id="Grupo_115072" data-name="Grupo 115072" transform="translate(0 0)">
                      <g id="Grupo_115071" data-name="Grupo 115071" clip-path="url(#clip-path-4)">
                        <rect id="Rectángulo_50244" data-name="Rectángulo 50244" width="181.142" height="27.913" transform="translate(-0.012 -0.024)" fill="url(#linear-gradient)"/>
                      </g>
                    </g>
                  </g>
                </g>
              </g>
              <path id="Trazado_228984" data-name="Trazado 228984" d="M323.9,1676.081H127.708a.953.953,0,0,1-.954-.953v-.06a.954.954,0,0,1,.954-.954H323.9a.954.954,0,0,1,.954.954v.06a.953.953,0,0,1-.954.953" transform="translate(-118.861 -1569.865)" fill="#2e5b9a"/>
              <path id="Trazado_228985" data-name="Trazado 228985" d="M1796.77,153.414h-21.263a.994.994,0,0,1-.991-.991v-7.6a.994.994,0,0,1,.991-.991h21.263a.994.994,0,0,1,.991.991v7.6a.994.994,0,0,1-.991.991" transform="translate(-1664.014 -134.878)" fill="#9ec8ff"/>
              <path id="Trazado_228986" data-name="Trazado 228986" d="M1819.6,262.327v5.285l6.09-6.09s-5.966.805-6.09.805" transform="translate(-1706.293 -245.237)" fill="#9ec8ff"/>
              <path id="Trazado_228987" data-name="Trazado 228987" d="M1813.824,166.764h-19.16a.843.843,0,0,1-.84-.84v-6a.843.843,0,0,1,.84-.84h19.16a.843.843,0,0,1,.84.84v6a.843.843,0,0,1-.84.84" transform="translate(-1682.12 -149.179)" fill="#fff"/>
              <path id="Trazado_228988" data-name="Trazado 228988" d="M1828.1,177.15h-9.414a.413.413,0,1,1,0-.826h9.414a.413.413,0,1,1,0,.826" transform="translate(-1705.05 -165.344)" fill="#9ec8ff"/>
              <path id="Trazado_228989" data-name="Trazado 228989" d="M1835.965,207.95h-17.46a.23.23,0,0,1-.23-.23v0a.23.23,0,0,1,.23-.23h17.46a.23.23,0,0,1,.229.23v0a.23.23,0,0,1-.229.23" transform="translate(-1705.05 -194.566)" fill="#9ec8ff"/>
              <path id="Trazado_228990" data-name="Trazado 228990" d="M1835.965,222.381h-17.46a.23.23,0,0,1-.23-.23v0a.23.23,0,0,1,.23-.23h17.46a.23.23,0,0,1,.229.23v0a.23.23,0,0,1-.229.23" transform="translate(-1705.05 -208.098)" fill="#9ec8ff"/>
              <path id="Trazado_228991" data-name="Trazado 228991" d="M2032.487,263.425h-.572a.219.219,0,0,1-.219-.219v-.471a.219.219,0,0,1,.219-.219h.572a.219.219,0,0,1,.219.219v.471a.219.219,0,0,1-.219.219" transform="translate(-1905.18 -246.17)" fill="#9ec8ff"/>
              <path id="Trazado_228992" data-name="Trazado 228992" d="M2061.955,263.425h-.572a.219.219,0,0,1-.219-.219v-.471a.219.219,0,0,1,.219-.219h.572a.219.219,0,0,1,.219.219v.471a.219.219,0,0,1-.219.219" transform="translate(-1932.813 -246.17)" fill="#9ec8ff"/>
              <path id="Trazado_228993" data-name="Trazado 228993" d="M2091.423,263.425h-.572a.218.218,0,0,1-.219-.219v-.471a.218.218,0,0,1,.219-.219h.572a.218.218,0,0,1,.219.219v.471a.218.218,0,0,1-.219.219" transform="translate(-1960.446 -246.17)" fill="#9ec8ff"/>
              <path id="Trazado_228994" data-name="Trazado 228994" d="M803.719,1641.278H767.746a2.308,2.308,0,0,1,2.309-2.309h33.664Z" transform="translate(-719.937 -1536.909)" fill="#a8ceff"/>
              <path id="Trazado_228995" data-name="Trazado 228995" d="M1056.77,1392.776h-19.214l8.159-17.95a1.467,1.467,0,0,1,1.336-.86h17.38a.573.573,0,0,1,.521.81Z" transform="translate(-972.946 -1288.407)" fill="#a8ceff"/>
              <path id="Trazado_228996" data-name="Trazado 228996" d="M1087.242,1373.964h-15.865a1.467,1.467,0,0,0-1.336.86l-8.159,17.95h17.7l8.182-18a.573.573,0,0,0-.522-.81" transform="translate(-995.757 -1288.406)" fill="#75a1de"/>
              <path id="Trazado_228997" data-name="Trazado 228997" d="M1278.682,1486.56c-.673,1.394-1.764,2.26-2.438,1.935s-.674-1.719,0-3.112,1.764-2.26,2.438-1.935.675,1.719,0,3.112" transform="translate(-1196.297 -1391.008)" fill="#6695d6"/>
              <path id="Trazado_228998" data-name="Trazado 228998" d="M676.772,924.054s-1.632,8.334-3.436,9.794,4.152,8.5,6.214,6.7.143-5.754.143-5.754-1.117-.687.773-5.069-3.2-7.646-3.2-7.646Z" transform="translate(-631.091 -864.659)" fill="#f09959"/>
              <path id="Trazado_228999" data-name="Trazado 228999" d="M724.958,922.078l-.5,1.976s-.227,1.159-.605,2.689a14.9,14.9,0,0,0,3.2,6.792,11.494,11.494,0,0,1,1.1-3.81c1.89-4.382-3.2-7.646-3.2-7.646" transform="translate(-678.781 -864.659)" fill="#e38540"/>
              <path id="Trazado_229000" data-name="Trazado 229000" d="M750.608,871.856c-1.1,3.025-3.778,5.454-5.48,4.893-2.781-.916-4.8-3.089-4.327-7.894.563-5.659,4.917-6.308,7.474-5.584s3.546,5.237,2.332,8.585" transform="translate(-694.605 -809.289)" fill="#f09959"/>
              <path id="Trazado_229001" data-name="Trazado 229001" d="M633.39,1110.888l-2.63,1.03,4.146,5.313-1.183,2.117a16.74,16.74,0,0,1,5.567,9.417,55.556,55.556,0,0,1,1.156,11.5s.319-12.6-.31-15.005c-1.219-4.67-6.747-14.376-6.747-14.376" transform="translate(-591.482 -1041.712)" fill="#d54a41"/>
              <path id="Trazado_229002" data-name="Trazado 229002" d="M780.983,1127.432s3.282,8.426,3.8,10.8.626,13.959.626,13.959,1.509-10.1,1.073-13.092-1.059-5.69-1.059-5.69l-1.993-1.471a27.774,27.774,0,0,0-.589-4.059c-.212-.052-1.862-.444-1.862-.444" transform="translate(-732.35 -1057.226)" fill="#d54a41"/>
              <path id="Trazado_229003" data-name="Trazado 229003" d="M711.1,1589.455c6.384-1.935,5.61-2.9,7.932-1.806s5.231,1.84,3.869,2.193-3.418-.774-3.418-.774.322,1.741-.838,2.257-6.315.7-9.187-.1,1.642-1.77,1.642-1.77" transform="translate(-664.382 -1488.354)" fill="#f09959"/>
              <path id="Trazado_229004" data-name="Trazado 229004" d="M721.872,1618.755h1.271l-.635,3.61s-2.5-.372-2.317-.621,1.681-2.989,1.681-2.989" transform="translate(-675.334 -1517.953)" fill="#a2dff2"/>
              <path id="Trazado_229005" data-name="Trazado 229005" d="M444.033,1157.755c-2.491,4.359-3.281,6.736-5.311,14.894s-2.846,11.869-.6,12.941c1.855.887,15.362,4.938,17,4.439.747.042,1.894-3.816,1.894-3.816l-12.294-5.48s3.558-8.494,4.172-14.073-2.117-8.9-3.487-8.9Z" transform="translate(-409.575 -1085.66)" fill="#f37168"/>
              <path id="Trazado_229006" data-name="Trazado 229006" d="M714.235,935.431c-.6,1.888-.343,2.273-1.176,2.45s-1.593-.65-1.839-1.811.229-2.245,1.062-2.421,2.313.651,1.953,1.782" transform="translate(-666.871 -875.488)" fill="#f09959"/>
              <path id="Trazado_229007" data-name="Trazado 229007" d="M704,834.677c-3.258,5.791-9.731,4.941-13.665,2.948-3.207-1.624,9.149-7.778,9.149-7.778Z" transform="translate(-646.852 -778.172)" fill="#303c60"/>
              <path id="Trazado_229008" data-name="Trazado 229008" d="M609.835,796.038c-1.208-3.643-6.156-2.781-8.4,2.065s1.189,8.088,3.268,6.9,5.131-8.966,5.131-8.966" transform="translate(-563.297 -744.362)" fill="#303c60"/>
              <g id="Grupo_115078" data-name="Grupo 115078" transform="translate(59.366 8.66)" opacity="0.5">
                <g id="Grupo_115077" data-name="Grupo 115077">
                  <g id="Grupo_115076" data-name="Grupo 115076" clip-path="url(#clip-path-5)">
                    <path id="Trazado_229009" data-name="Trazado 229009" d="M1010.241,175.749a28.841,28.841,0,0,0,.867-4.431l-4.574-2.059q.034-.65.035-1.309a24.442,24.442,0,0,0-.264-3.586l4.361-2.482a28.741,28.741,0,0,0-1.284-4.328l-5.008.3a24.227,24.227,0,0,0-2.484-4.226l2.707-4.222a29.159,29.159,0,0,0-3.152-3.236l-4.292,2.594a24.256,24.256,0,0,0-4.158-2.594l.435-5a28.759,28.759,0,0,0-4.292-1.4l-2.6,4.293a24.4,24.4,0,0,0-4.22-.367q-.335,0-.668.01l-1.937-4.627a28.913,28.913,0,0,0-4.453.749l-.3,5.007a24.112,24.112,0,0,0-4.5,1.955l-3.865-3.2a29.09,29.09,0,0,0-3.59,2.742l2.058,4.574a24.357,24.357,0,0,0-3.074,3.815l-4.91-1.035a28.833,28.833,0,0,0-1.91,4.091l3.949,3.094a24.134,24.134,0,0,0-.942,4.81l-4.825,1.365c-.009.3-.015.595-.015.894a29.277,29.277,0,0,0,.224,3.618l4.933.9a24.068,24.068,0,0,0,1.395,4.7l-3.64,3.452a28.959,28.959,0,0,0,2.289,3.892l4.79-1.492a24.393,24.393,0,0,0,3.418,3.509l-1.619,4.749a28.971,28.971,0,0,0,3.831,2.391l3.547-3.546a24.057,24.057,0,0,0,4.662,1.519l.774,4.956a29.21,29.21,0,0,0,4.378.329l.127,0,1.492-4.788a24.181,24.181,0,0,0,4.833-.814l2.989,4.03a28.816,28.816,0,0,0,4.14-1.8l-.9-4.935a24.337,24.337,0,0,0,3.895-2.973l4.518,2.179a29.121,29.121,0,0,0,2.835-3.517l-3.092-3.948a24.135,24.135,0,0,0,2.074-4.443Zm-27.92,4.126a11.926,11.926,0,1,1,11.926-11.926,11.926,11.926,0,0,1-11.926,11.926" transform="translate(-953.338 -139.084)" fill="#9ec8ff"/>
                  </g>
                </g>
              </g>
              <path id="Trazado_229010" data-name="Trazado 229010" d="M1115.931,759.019a.311.311,0,0,1-.25-.126,21.687,21.687,0,0,1-1.814-2.892.311.311,0,1,1,.552-.288,21.054,21.054,0,0,0,1.762,2.808.311.311,0,0,1-.25.5" transform="translate(-1044.472 -708.497)" fill="#fff"/>
              <path id="Trazado_229011" data-name="Trazado 229011" d="M1219.727,873.86l-.041,0a21.544,21.544,0,0,1-10.293-4.262.311.311,0,0,1,.379-.494,20.921,20.921,0,0,0,9.995,4.138.311.311,0,0,1-.04.62" transform="translate(-1133.969 -814.921)" fill="#fff"/>
              <rect id="Rectángulo_50247" data-name="Rectángulo 50247" width="56.612" height="31.408" transform="translate(88.751 23.126)" fill="#9ec8ff"/>
              <rect id="Rectángulo_50248" data-name="Rectángulo 50248" width="54.37" height="28.606" transform="translate(89.373 23.811)" fill="#fff"/>
              <g id="Grupo_115081" data-name="Grupo 115081" transform="translate(90.109 24.091)" opacity="0.5">
                <g id="Grupo_115080" data-name="Grupo 115080">
                  <g id="Grupo_115079" data-name="Grupo 115079" clip-path="url(#clip-path-6)">
                    <path id="Trazado_229012" data-name="Trazado 229012" d="M1498.724,412.951h-51.563a.125.125,0,0,1-.125-.125V386.995a.125.125,0,0,1,.125-.125h51.563a.125.125,0,0,1,.125.125v25.832a.125.125,0,0,1-.125.125m-51.438-.249H1498.6V387.119h-51.314Z" transform="translate(-1447.037 -386.87)" fill="#9ec8ff"/>
                    <path id="Trazado_229013" data-name="Trazado 229013" d="M1498.724,732.811h-51.563a.125.125,0,0,1,0-.249h51.563a.125.125,0,0,1,0,.249" transform="translate(-1447.037 -711.035)" fill="#9ec8ff"/>
                    <path id="Trazado_229014" data-name="Trazado 229014" d="M1498.724,663.673h-51.563a.125.125,0,0,1,0-.249h51.563a.125.125,0,0,1,0,.249" transform="translate(-1447.037 -646.203)" fill="#9ec8ff"/>
                    <path id="Trazado_229015" data-name="Trazado 229015" d="M1498.724,594.534h-51.563a.125.125,0,0,1,0-.249h51.563a.125.125,0,0,1,0,.249" transform="translate(-1447.037 -581.369)" fill="#9ec8ff"/>
                    <path id="Trazado_229016" data-name="Trazado 229016" d="M1498.724,525.4h-51.563a.125.125,0,0,1,0-.249h51.563a.125.125,0,0,1,0,.249" transform="translate(-1447.037 -516.535)" fill="#9ec8ff"/>
                    <path id="Trazado_229017" data-name="Trazado 229017" d="M1498.724,456.257h-51.563a.125.125,0,0,1,0-.249h51.563a.125.125,0,0,1,0,.249" transform="translate(-1447.037 -451.703)" fill="#9ec8ff"/>
                    <path id="Trazado_229018" data-name="Trazado 229018" d="M2137.19,412.951a.125.125,0,0,1-.125-.125V386.995a.125.125,0,1,1,.249,0v25.832a.124.124,0,0,1-.125.125" transform="translate(-2094.097 -386.87)" fill="#9ec8ff"/>
                    <path id="Trazado_229019" data-name="Trazado 229019" d="M1999.185,412.951a.125.125,0,0,1-.125-.125V386.995a.125.125,0,0,1,.249,0v25.832a.125.125,0,0,1-.125.125" transform="translate(-1964.685 -386.87)" fill="#9ec8ff"/>
                    <path id="Trazado_229020" data-name="Trazado 229020" d="M1861.18,412.951a.125.125,0,0,1-.125-.125V386.995a.125.125,0,1,1,.249,0v25.832a.125.125,0,0,1-.125.125" transform="translate(-1835.274 -386.87)" fill="#9ec8ff"/>
                    <path id="Trazado_229021" data-name="Trazado 229021" d="M1723.173,412.951a.125.125,0,0,1-.125-.125V386.995a.125.125,0,0,1,.249,0v25.832a.125.125,0,0,1-.125.125" transform="translate(-1705.862 -386.87)" fill="#9ec8ff"/>
                    <path id="Trazado_229022" data-name="Trazado 229022" d="M1585.168,412.951a.125.125,0,0,1-.125-.125V386.995a.125.125,0,0,1,.249,0v25.832a.125.125,0,0,1-.125.125" transform="translate(-1576.449 -386.87)" fill="#9ec8ff"/>
                  </g>
                </g>
              </g>
              <path id="Trazado_229023" data-name="Trazado 229023" d="M1445.286,411.2a.249.249,0,0,1-.112-.472l8.56-4.288,4.415-4.248,4.1-8.57a.248.248,0,0,1,.059-.079l4.66-4.152a.249.249,0,0,1,.392.081l3.929,8.449,4.669,8.295,3.515-4.039a.25.25,0,0,1,.18-.085.243.243,0,0,1,.185.073l4,4.019,4.181-12.533a.248.248,0,0,1,.06-.1l8.594-8.611a.249.249,0,1,1,.353.352l-8.552,8.569-4.29,12.86a.249.249,0,0,1-.413.1l-4.1-4.116-3.572,4.1a.249.249,0,0,1-.4-.041l-4.847-8.611-.009-.017-3.792-8.154-4.373,3.9-4.1,8.566a.249.249,0,0,1-.052.072l-4.474,4.305a.254.254,0,0,1-.061.043l-8.594,4.305a.249.249,0,0,1-.111.026" transform="translate(-1355.053 -360.904)" fill="#f39892"/>
              <path id="Trazado_229024" data-name="Trazado 229024" d="M1445.286,411.2a.249.249,0,0,1-.178-.423l12.6-12.916a.249.249,0,0,1,.349-.008l4.41,4.14,8.423-8.44a.249.249,0,0,1,.349,0l4.293,4.132,3.948-4.125a.249.249,0,0,1,.177-.077.253.253,0,0,1,.179.073l8.349,8.366,8.439-16.912a.249.249,0,1,1,.446.222l-8.594,17.221a.249.249,0,0,1-.4.065l-8.414-8.43-3.945,4.121a.249.249,0,0,1-.353.007l-4.3-4.136-8.421,8.438a.249.249,0,0,1-.347.006l-4.408-4.138-12.431,12.741a.248.248,0,0,1-.178.075" transform="translate(-1355.052 -360.903)" fill="#9ec8ff"/>
              <path id="Trazado_229025" data-name="Trazado 229025" d="M1224.022,199.736h-15.378v-27.8a.615.615,0,0,1,.615-.614h18.216a.615.615,0,0,1,.615.614V195.67a4.067,4.067,0,0,1-4.067,4.067" transform="translate(-1133.38 -160.655)" fill="#9ec8ff"/>
              <path id="Trazado_229026" data-name="Trazado 229026" d="M1226.869,206.189h-14.708V179.627a.584.584,0,0,1,.584-.584h17.4a.584.584,0,0,1,.583.584v22.7a3.863,3.863,0,0,1-3.863,3.863" transform="translate(-1136.678 -167.894)" fill="#fff"/>
              <path id="Trazado_229027" data-name="Trazado 229027" d="M1089.016,507.622v-.49a.657.657,0,0,0-.6-.7h-18.624a.657.657,0,0,0-.6.7v.49c0,3.47,2.43,6.283,5.428,6.283h19.029c-3,0-4.666-2.5-4.625-6.283" transform="translate(-1002.604 -474.897)" fill="#9ec8ff"/>
              <path id="Trazado_229028" data-name="Trazado 229028" d="M1100.654,518.854v-.4a.566.566,0,0,0-.566-.566h-17.44a.566.566,0,0,0-.566.566v.4a5.083,5.083,0,0,0,5.083,5.083h18.571c-2.807,0-5.083-1.359-5.083-5.083" transform="translate(-1014.7 -485.642)" fill="#fff"/>
              <path id="Trazado_229029" data-name="Trazado 229029" d="M1267.863,229.464H1254.6a.762.762,0,0,1-.761-.761V221.5a.762.762,0,0,1,.761-.761h13.265a.762.762,0,0,1,.761.761V228.7a.762.762,0,0,1-.761.761m-13.265-8.48a.513.513,0,0,0-.512.512V228.7a.513.513,0,0,0,.512.512h13.265a.513.513,0,0,0,.512-.512V221.5a.513.513,0,0,0-.512-.512Z" transform="translate(-1175.759 -206.99)" fill="#9ec8ff"/>
              <path id="Trazado_229030" data-name="Trazado 229030" d="M1183.032,405.748h-14.581a.377.377,0,1,1,0-.753h14.581a.377.377,0,0,1,0,.753" transform="translate(-1095.337 -379.776)" fill="#9ec8ff"/>
              <path id="Trazado_229031" data-name="Trazado 229031" d="M1183.032,427.818h-14.581a.377.377,0,1,1,0-.753h14.581a.377.377,0,0,1,0,.753" transform="translate(-1095.337 -400.471)" fill="#9ec8ff"/>
              <path id="Trazado_229032" data-name="Trazado 229032" d="M1183.032,449.12h-14.581a.377.377,0,1,1,0-.753h14.581a.377.377,0,0,1,0,.753" transform="translate(-1095.337 -420.447)" fill="#9ec8ff"/>
              <path id="Trazado_229033" data-name="Trazado 229033" d="M1410.793,239.921h-.487a.186.186,0,0,1-.186-.186v-.4a.186.186,0,0,1,.186-.186h.487a.186.186,0,0,1,.186.186v.4a.186.186,0,0,1-.186.186" transform="translate(-1322.309 -224.255)" fill="#9ec8ff"/>
              <path id="Trazado_229034" data-name="Trazado 229034" d="M1435.9,239.921h-.487a.186.186,0,0,1-.186-.186v-.4a.186.186,0,0,1,.186-.186h.487a.186.186,0,0,1,.186.186v.4a.186.186,0,0,1-.186.186" transform="translate(-1345.854 -224.255)" fill="#9ec8ff"/>
              <path id="Trazado_229035" data-name="Trazado 229035" d="M1461.01,239.921h-.487a.186.186,0,0,1-.186-.186v-.4a.186.186,0,0,1,.186-.186h.487a.186.186,0,0,1,.186.186v.4a.186.186,0,0,1-.186.186" transform="translate(-1369.399 -224.255)" fill="#9ec8ff"/>
              <rect id="Rectángulo_50250" data-name="Rectángulo 50250" width="1.963" height="3.241" transform="translate(79.529 18.11)" fill="#9ec8ff"/>
              <rect id="Rectángulo_50251" data-name="Rectángulo 50251" width="1.963" height="2.971" transform="translate(84.941 18.38)" fill="#9ec8ff"/>
              <rect id="Rectángulo_50252" data-name="Rectángulo 50252" width="1.963" height="4.298" transform="translate(88.072 17.053)" fill="#9ec8ff"/>
              <rect id="Rectángulo_50253" data-name="Rectángulo 50253" width="1.963" height="1.963" transform="translate(82.182 19.388)" fill="#9ec8ff"/>
              <path id="Trazado_229036" data-name="Trazado 229036" d="M3057.093,582.74h6.989a6.989,6.989,0,1,1-6.989-6.989Z" transform="translate(-2860.17 -539.898)" fill="#9ec8ff"/>
              <path id="Trazado_229037" data-name="Trazado 229037" d="M3188.127,567.025a6.989,6.989,0,0,0-6.989-6.989v6.989Z" transform="translate(-2983.044 -525.162)" fill="#f39892"/>
              <path id="Trazado_229038" data-name="Trazado 229038" d="M3068.9,672.272a6.989,6.989,0,0,0,6.989,6.989,7.022,7.022,0,0,1-6.989-6.989" transform="translate(-2877.796 -630.409)" fill="#f39892"/>
              <path id="Trazado_229039" data-name="Trazado 229039" d="M3075.89,560.036a6.989,6.989,0,0,0-6.989,6.989,7.022,7.022,0,0,1,6.989-6.989" transform="translate(-2877.796 -525.162)" fill="#f39892"/>
              <path id="Trazado_229040" data-name="Trazado 229040" d="M3181.137,679.261a6.989,6.989,0,0,0,6.989-6.989,7.023,7.023,0,0,1-6.989,6.989" transform="translate(-2983.043 -630.409)" fill="#f39892"/>
              <path id="Trazado_229041" data-name="Trazado 229041" d="M1791.178,451.133a.62.62,0,1,0-.62.62.62.62,0,0,0,.62-.62" transform="translate(-1678.477 -422.459)" fill="#f39892"/>
              <path id="Trazado_229042" data-name="Trazado 229042" d="M1643.178,586.954a.62.62,0,1,0-.62.62.62.62,0,0,0,.62-.62" transform="translate(-1539.693 -549.823)" fill="#9ec8ff"/>
              <path id="Trazado_229043" data-name="Trazado 229043" d="M1854.343,517.816a.62.62,0,1,0-.62.62.62.62,0,0,0,.62-.62" transform="translate(-1737.709 -484.99)" fill="#9ec8ff"/>
              <path id="Trazado_229044" data-name="Trazado 229044" d="M1992.348,517.816a.62.62,0,1,0-.62.62.62.62,0,0,0,.62-.62" transform="translate(-1867.12 -484.99)" fill="#9ec8ff"/>
              <path id="Trazado_229045" data-name="Trazado 229045" d="M2130.354,517.816a.62.62,0,1,0-.62.62.62.62,0,0,0,.62-.62" transform="translate(-1996.532 -484.99)" fill="#f39892"/>
              <path id="Trazado_229046" data-name="Trazado 229046" d="M1087.851,576.069a3.344,3.344,0,1,1-3.344-3.344,3.344,3.344,0,0,1,3.344,3.344" transform="translate(-1013.838 -537.061)" fill="#9cd499"/>
              <path id="Trazado_229047" data-name="Trazado 229047" d="M1113.044,610.957h-.007a.187.187,0,0,1-.133-.063l-.908-1.032a.187.187,0,1,1,.281-.247l.778.884,1.8-1.761a.187.187,0,0,1,.261.267l-1.94,1.9a.187.187,0,0,1-.131.053" transform="translate(-1042.706 -570.781)" fill="#fff"/>
              <rect id="Rectángulo_50254" data-name="Rectángulo 50254" width="2.226" height="12.143" transform="translate(23.42 18.872)" fill="#9ec8ff"/>
              <rect id="Rectángulo_50255" data-name="Rectángulo 50255" width="2.226" height="8.611" transform="translate(32.854 22.405)" fill="#9ec8ff"/>
              <rect id="Rectángulo_50256" data-name="Rectángulo 50256" width="2.226" height="12.143" transform="translate(37.571 18.872)" fill="#9ec8ff"/>
              <rect id="Rectángulo_50257" data-name="Rectángulo 50257" width="2.226" height="4.305" transform="translate(42.287 26.71)" fill="#9ec8ff"/>
              <rect id="Rectángulo_50258" data-name="Rectángulo 50258" width="2.226" height="15.841" transform="translate(28.137 15.175)" fill="#9ec8ff"/>
              <rect id="Rectángulo_50259" data-name="Rectángulo 50259" width="2.226" height="8.611" transform="translate(47.02 22.405)" fill="#9ec8ff"/>
              <rect id="Rectángulo_50260" data-name="Rectángulo 50260" width="2.226" height="6.441" transform="translate(160.384 19.971)" fill="#9ec8ff"/>
              <rect id="Rectángulo_50261" data-name="Rectángulo 50261" width="2.226" height="4.345" transform="translate(188.915 22.067)" fill="#9ec8ff"/>
              <rect id="Rectángulo_50262" data-name="Rectángulo 50262" width="2.226" height="15.07" transform="translate(169.818 11.342)" fill="#9ec8ff"/>
              <rect id="Rectángulo_50263" data-name="Rectángulo 50263" width="2.226" height="6.774" transform="translate(174.534 19.638)" fill="#9ec8ff"/>
              <rect id="Rectángulo_50264" data-name="Rectángulo 50264" width="2.226" height="8.691" transform="translate(179.251 17.721)" fill="#9ec8ff"/>
              <rect id="Rectángulo_50265" data-name="Rectángulo 50265" width="2.226" height="10.693" transform="translate(165.101 15.719)" fill="#9ec8ff"/>
              <rect id="Rectángulo_50266" data-name="Rectángulo 50266" width="2.226" height="13.171" transform="translate(183.984 13.241)" fill="#9ec8ff"/>
            </g>
          </g>
          <g id="Grupo_115085" data-name="Grupo 115085" transform="translate(7.464 42.947)">
            <g id="Grupo_115084" data-name="Grupo 115084" clip-path="url(#clip-path-7)">
              <path id="Trazado_229048" data-name="Trazado 229048" d="M248.3,836.812l-8.005-4.9-1.448,9.271a9.394,9.394,0,0,0,9.453-4.376" transform="translate(-231.441 -823.06)" fill="#a2dff2"/>
              <path id="Trazado_229049" data-name="Trazado 229049" d="M270.118,770.018c.022-.035.05-.084.049-.082a9.384,9.384,0,0,0,.208-9.237c-2.833,1.484-1.146.583-8.27,4.435,8.018,4.9,6.773,4.147,8.014,4.884" transform="translate(-253.247 -756.277)" fill="#9cd499"/>
              <path id="Trazado_229050" data-name="Trazado 229050" d="M120.788,687.524l8.8,3.243,8.255-4.464a9.39,9.39,0,0,0-17.055,1.221" transform="translate(-120.731 -681.909)" fill="#9ec8ff"/>
              <path id="Trazado_229051" data-name="Trazado 229051" d="M119.256,792.359l1.448-9.271-8.8-3.243a9.4,9.4,0,0,0,7.352,12.514" transform="translate(-111.846 -774.23)" fill="#f39892"/>
              <path id="Trazado_229052" data-name="Trazado 229052" d="M124.506,690.865a9.733,9.733,0,0,0,.243-9.125l.005,0-.148-.274-.009-.016-.121-.225,0,0a9.582,9.582,0,0,0-3.868-3.752,9.774,9.774,0,0,0-13.5,4.963l-.005,0-.108.291-.109.293.005,0a9.574,9.574,0,0,0,.821,7.91,9.7,9.7,0,0,0,6.572,4.671v.005l.307.048.308.049V695.7a9.7,9.7,0,0,0,9.3-4.317l.006,0,.061-.1s.1-.163.1-.163l.044-.074.007-.011,0-.008.1-.161Zm-.939-8.465.647-.338a9.109,9.109,0,0,1-.234,8.47l-.059-.035c-.327-.194-.469-.278-1.121-.675l-6.1-3.73,5.063-2.738c.744-.4,1.048-.559,1.8-.954m-15.884.25a9.079,9.079,0,0,1,16.223-1.162l-2.438,1.318c-.5.271-1.207.652-2.385,1.289l-2.921,1.58-.075.041-.245-.15-.013.086-3.855-1.421Zm.557,7.965a8.954,8.954,0,0,1-.774-7.381l5.8,2.136,2.468.909-1.36,8.706a9.084,9.084,0,0,1-6.131-4.37m6.746,4.467,1.327-8.5,3.454,2.112,2.691,1.645,1.192.729a9.036,9.036,0,0,1-8.664,4.011" transform="translate(-107.219 -677.219)" fill="#e7f3fe"/>
            </g>
          </g>
          <g id="Grupo_115090" data-name="Grupo 115090" transform="translate(0 0)">
            <g id="Grupo_115089" data-name="Grupo 115089" clip-path="url(#clip-path-2)">
              <path id="Trazado_229054" data-name="Trazado 229054" d="M87.471,1113.682a2.794,2.794,0,1,1-2.794-2.794,2.794,2.794,0,0,1,2.794,2.794" transform="translate(-76.784 -1041.712)" fill="#9ec8ff"/>
              <path id="Trazado_229055" data-name="Trazado 229055" d="M117.559,1136.646a1.4,1.4,0,1,1-1.4-1.4,1.4,1.4,0,0,1,1.4,1.4" transform="translate(-107.609 -1064.551)" fill="#fff"/>
              <path id="Trazado_229056" data-name="Trazado 229056" d="M3068.48,995.13h-6.937a1.85,1.85,0,0,1-1.845-1.845v-6.937a1.85,1.85,0,0,1,1.845-1.845h6.937a1.85,1.85,0,0,1,1.845,1.845v6.937a1.85,1.85,0,0,1-1.845,1.845" transform="translate(-2869.167 -923.197)" fill="#9ec8ff"/>
              <path id="Trazado_229057" data-name="Trazado 229057" d="M3115.688,1016.874h-6.937a2.159,2.159,0,0,1-2.156-2.156v-6.937a2.159,2.159,0,0,1,2.156-2.156h6.937a2.159,2.159,0,0,1,2.156,2.156v6.937a2.159,2.159,0,0,1-2.156,2.156m-6.937-10.627a1.535,1.535,0,0,0-1.533,1.534v6.937a1.535,1.535,0,0,0,1.533,1.534h6.937a1.535,1.535,0,0,0,1.533-1.534v-6.937a1.535,1.535,0,0,0-1.533-1.534Z" transform="translate(-2913.143 -943.004)" fill="#fff"/>
              <path id="Trazado_229058" data-name="Trazado 229058" d="M1209.571,1085.418l-1.77-2.042a.749.749,0,0,1,.075-1.054l2.042-1.77a.749.749,0,0,1,1.054.075l1.77,2.042a.749.749,0,0,1-.075,1.054l-2.042,1.77a.749.749,0,0,1-1.054-.075" transform="translate(-1132.419 -1013.094)" fill="#9ec8ff"/>
              <path id="Trazado_229059" data-name="Trazado 229059" d="M1362.624,1165.319a1.563,1.563,0,1,1-1.563-1.564,1.563,1.563,0,0,1,1.563,1.564" transform="translate(-1274.839 -1091.287)" fill="#9ec8ff"/>
              <path id="Trazado_229060" data-name="Trazado 229060" d="M3511.194,1087.623a1.559,1.559,0,1,1-1.559-1.558,1.559,1.559,0,0,1,1.559,1.558" transform="translate(-3289.625 -1018.435)" fill="#9ec8ff"/>
              <path id="Trazado_229061" data-name="Trazado 229061" d="M2864.154,577.559A1.558,1.558,0,1,1,2862.6,576a1.559,1.559,0,0,1,1.559,1.559" transform="translate(-2682.876 -540.132)" fill="#9ec8ff"/>
              <path id="Trazado_229062" data-name="Trazado 229062" d="M3351.352,892.617a1.214,1.214,0,1,1-1.215-1.214,1.214,1.214,0,0,1,1.215,1.214" transform="translate(-3140.381 -835.894)" fill="#9ec8ff"/>
              <path id="Trazado_229063" data-name="Trazado 229063" d="M2294.81,487.484H2269a.509.509,0,0,1-.509-.509V475.867a.509.509,0,0,1,.509-.509h25.815a.509.509,0,0,1,.509.509v11.109a.509.509,0,0,1-.509.509" transform="translate(-2127.225 -445.757)" fill="#9ec8ff"/>
              <path id="Trazado_229064" data-name="Trazado 229064" d="M2305.223,534.891h-24.544a.411.411,0,0,1-.411-.411v-7.549a.411.411,0,0,1,.411-.411h24.544a.411.411,0,0,1,.411.411v7.549a.411.411,0,0,1-.411.411" transform="translate(-2138.273 -493.733)" fill="#fff"/>
              <path id="Trazado_229065" data-name="Trazado 229065" d="M2287.073,490.634h-.6a.228.228,0,0,1-.228-.228v-.49a.228.228,0,0,1,.228-.228h.6a.228.228,0,0,1,.228.228v.49a.228.228,0,0,1-.228.228" transform="translate(-2143.882 -459.195)" fill="#fff"/>
              <path id="Trazado_229066" data-name="Trazado 229066" d="M2317.768,490.634h-.6a.228.228,0,0,1-.228-.228v-.49a.228.228,0,0,1,.228-.228h.6a.228.228,0,0,1,.228.228v.49a.228.228,0,0,1-.228.228" transform="translate(-2172.665 -459.195)" fill="#fff"/>
              <path id="Trazado_229067" data-name="Trazado 229067" d="M2348.458,490.634h-.6a.227.227,0,0,1-.228-.228v-.49a.228.228,0,0,1,.228-.228h.6a.228.228,0,0,1,.228.228v.49a.228.228,0,0,1-.228.228" transform="translate(-2201.445 -459.195)" fill="#fff"/>
              <path id="Trazado_229068" data-name="Trazado 229068" d="M2462.944,543.9h-13.417a.4.4,0,0,1,0-.8h13.417a.4.4,0,0,1,0,.8" transform="translate(-2296.616 -509.275)" fill="#9ec8ff"/>
              <path id="Trazado_229069" data-name="Trazado 229069" d="M2300.888,643.341h-13.417a.4.4,0,1,1,0-.8h13.417a.4.4,0,0,1,0,.8" transform="translate(-2144.65 -602.527)" fill="#9ec8ff"/>
              <path id="Trazado_229070" data-name="Trazado 229070" d="M2525.695,643.341h-1.388a.138.138,0,0,1-.137-.137v-.528a.138.138,0,0,1,.137-.137h1.388a.138.138,0,0,1,.137.137v.528a.138.138,0,0,1-.137.137" transform="translate(-2366.986 -602.527)" fill="#9ec8ff"/>
              <path id="Trazado_229071" data-name="Trazado 229071" d="M2559.3,643.341h-1.388a.138.138,0,0,1-.137-.137v-.528a.138.138,0,0,1,.137-.137h1.388a.138.138,0,0,1,.137.137v.528a.137.137,0,0,1-.137.137" transform="translate(-2398.501 -602.527)" fill="#9ec8ff"/>
              <path id="Trazado_229072" data-name="Trazado 229072" d="M2334.42,575.866H2312.2a.272.272,0,1,1,0-.545h22.219a.272.272,0,0,1,0,.545" transform="translate(-2167.962 -539.495)" fill="#9ec8ff"/>
              <path id="Trazado_229073" data-name="Trazado 229073" d="M2334.42,594.741H2312.2a.272.272,0,1,1,0-.545h22.219a.272.272,0,0,1,0,.545" transform="translate(-2167.962 -557.195)" fill="#9ec8ff"/>
              <path id="Trazado_229074" data-name="Trazado 229074" d="M93.94,424.008a3.082,3.082,0,1,1-3.082-3.082,3.082,3.082,0,0,1,3.082,3.082" transform="translate(-82.31 -394.715)" fill="#9ec8ff"/>
              <path id="Trazado_229075" data-name="Trazado 229075" d="M488.05,603.768H465.9a.411.411,0,0,1,0-.823H488.05a.411.411,0,1,1,0,.823" transform="translate(-436.506 -565.399)" fill="#9ec8ff"/>
              <path id="Trazado_229076" data-name="Trazado 229076" d="M488.05,636.757H465.9a.411.411,0,0,1,0-.823H488.05a.411.411,0,1,1,0,.823" transform="translate(-436.506 -596.334)" fill="#9ec8ff"/>
              <g id="Grupo_115088" data-name="Grupo 115088" transform="translate(103.991 52.948)" opacity="0.5">
                <g id="Grupo_115087" data-name="Grupo 115087">
                  <g id="Grupo_115086" data-name="Grupo 115086" clip-path="url(#clip-path-9)">
                    <path id="Trazado_229077" data-name="Trazado 229077" d="M1700.68,867.119a15.567,15.567,0,0,0,.1-1.73c0-.309-.01-.615-.028-.919l-2.859-.925a12.569,12.569,0,0,0-1.012-3.425l1.9-2.333a15.446,15.446,0,0,0-1.5-2.183l-2.859.933a12.7,12.7,0,0,0-2.83-2.175l.162-3a15.3,15.3,0,0,0-2.5-.885l-1.765,2.436a12.711,12.711,0,0,0-3.569-.094l-1.634-2.526a15.286,15.286,0,0,0-2.539.75l0,3.008a12.678,12.678,0,0,0-2.941,2.023l-2.8-1.082a15.473,15.473,0,0,0-1.615,2.1l1.77,2.43a12.563,12.563,0,0,0-1.193,3.366l-2.9.772a15.57,15.57,0,0,0-.1,1.73c0,.309.01.615.028.919l2.859.925a12.562,12.562,0,0,0,1.012,3.425l-1.9,2.332a15.419,15.419,0,0,0,1.5,2.183l2.859-.933a12.7,12.7,0,0,0,2.83,2.175l-.163,3a15.3,15.3,0,0,0,2.5.884l1.765-2.436a12.714,12.714,0,0,0,3.569.094l1.634,2.526a15.284,15.284,0,0,0,2.539-.75l0-3.008a12.68,12.68,0,0,0,2.942-2.023l2.8,1.082a15.473,15.473,0,0,0,1.615-2.1l-1.77-2.43a12.562,12.562,0,0,0,1.193-3.366Zm-15.311,4.313a6.043,6.043,0,1,1,6.043-6.043,6.043,6.043,0,0,1-6.043,6.043" transform="translate(-1669.961 -850.29)" fill="#9ec8ff"/>
                  </g>
                </g>
              </g>
              <path id="Trazado_229078" data-name="Trazado 229078" d="M2045.078,1043.856a.311.311,0,0,1-.239-.51,10.139,10.139,0,0,0,1.786-9.765.311.311,0,0,1,.589-.2,10.762,10.762,0,0,1-1.9,10.366.311.311,0,0,1-.24.112" transform="translate(-1917.437 -968.831)" fill="#fff"/>
              <path id="Trazado_229079" data-name="Trazado 229079" d="M1976.939,933.049a.31.31,0,0,1-.213-.085,10.066,10.066,0,0,0-3.484-2.147.311.311,0,1,1,.212-.585,10.681,10.681,0,0,1,3.7,2.279.311.311,0,0,1-.214.538" transform="translate(-1850.173 -872.288)" fill="#fff"/>
              <path id="Trazado_229080" data-name="Trazado 229080" d="M1875.067,921.155a.311.311,0,0,1-.076-.613,10.788,10.788,0,0,1,2.638-.326.311.311,0,0,1,0,.623,10.162,10.162,0,0,0-2.485.307.311.311,0,0,1-.076.01" transform="translate(-1758.012 -862.912)" fill="#fff"/>
            </g>
          </g>
        </g>
      </g>
    </g>
  </g>
</svg>
