<svg xmlns="http://www.w3.org/2000/svg" xmlns:xlink="http://www.w3.org/1999/xlink" width="248" height="253.775" viewBox="0 0 248 253.775">
  <defs>
    <clipPath id="clip-path">
      <rect id="Rectángulo_50103" data-name="Rectángulo 50103" width="248" height="253.775" fill="none"/>
    </clipPath>
  </defs>
  <g id="Grupo_117829" data-name="Grupo 117829" transform="translate(-1051 -13218)">
    <g id="Grupo_114759" data-name="Grupo 114759" transform="translate(1051 13217.995)">
      <g id="Grupo_114758" data-name="Grupo 114758" transform="translate(0 0.005)" clip-path="url(#clip-path)">
        <path id="Trazado_228272" data-name="Trazado 228272" d="M9.356,185.025A119.645,119.645,0,1,1,129,304.67,119.645,119.645,0,0,1,9.356,185.025" transform="translate(-7.283 -50.895)" fill="#4dd0e1" opacity="0.32"/>
        <path id="Trazado_228273" data-name="Trazado 228273" d="M483.745,97.463V93.178a74.768,74.768,0,0,0-.722-10.368L479.6,58.37a8.093,8.093,0,0,0-5.87-5.913c-4.158-1.059-9.846-2.178-13.587-3.255a4.672,4.672,0,0,1-3.388-4.486v-4.3l.572-.642a11.715,11.715,0,0,0,2.844-6.08,1.74,1.74,0,0,0,1.746-1.372c.682-4.236,1.174-4.419,1.174-6.28s-.689-2.3-1.518-1.821A11.435,11.435,0,0,0,462,21.364c.283-10.007-6.3-16.569-14.02-16.569s-14.3,6.561-14.02,16.569a11.44,11.44,0,0,0,.422,2.853c-.829-.481-1.518-.038-1.518,1.821s.492,2.044,1.174,6.28a1.74,1.74,0,0,0,1.746,1.372,11.715,11.715,0,0,0,2.844,6.08l.572.642v4.3a4.66,4.66,0,0,1-3.37,4.48c-3.752,1.083-9.477,2.207-13.645,3.271-2.885.737-5.122,3.717-5.831,6.609V97.463" transform="translate(-324.102 -3.734)" fill="#fff"/>
        <path id="Trazado_228274" data-name="Trazado 228274" d="M480.244,94.956a1,1,0,0,1-1-1V89.675a73.992,73.992,0,0,0-.713-10.23L475.12,55.056a7.087,7.087,0,0,0-5.136-5.137c-1.723-.439-3.761-.9-5.732-1.344-2.792-.631-5.679-1.283-7.885-1.919a5.7,5.7,0,0,1-4.11-5.443V36.907a1,1,0,0,1,.253-.663l.573-.642a10.7,10.7,0,0,0,2.6-5.563,1.019,1.019,0,0,1,1-.851c.192,0,.676-.064.752-.533a39.274,39.274,0,0,1,.838-4.028,7.038,7.038,0,0,0,.324-2.093,3.4,3.4,0,0,0-.1-.919,1,1,0,0,1-1.381-1.18,10.477,10.477,0,0,0,.383-2.6,15.975,15.975,0,0,0-4.147-11.765,12.314,12.314,0,0,0-17.752,0,15.975,15.975,0,0,0-4.147,11.764,10.472,10.472,0,0,0,.383,2.6,1,1,0,0,1-1.381,1.18,3.4,3.4,0,0,0-.1.919,7.05,7.05,0,0,0,.324,2.095,39.155,39.155,0,0,1,.837,4.027c.076.469.561.529.765.533a1.014,1.014,0,0,1,.982.851,10.693,10.693,0,0,0,2.6,5.563l.573.642a1,1,0,0,1,.253.663v4.305a5.687,5.687,0,0,1-4.09,5.438c-2.209.637-5.105,1.292-7.906,1.925-1.985.449-4.037.912-5.769,1.354-2.53.646-4.454,3.369-5.08,5.768V93.959a1,1,0,1,1-1.994,0V55.572a1,1,0,0,1,.029-.237c.713-2.911,3.067-6.448,6.552-7.338,1.759-.449,3.825-.916,5.823-1.367,2.772-.626,5.639-1.274,7.792-1.9a3.683,3.683,0,0,0,2.649-3.522V37.287l-.319-.358a12.669,12.669,0,0,1-2.958-5.877,2.525,2.525,0,0,1-1.872-2.08,37.432,37.432,0,0,0-.8-3.844,8.9,8.9,0,0,1-.388-2.594c0-1.419.372-2.353,1.106-2.776a1.7,1.7,0,0,1,.159-.081,13.414,13.414,0,0,1-.168-1.789,17.942,17.942,0,0,1,4.71-13.211,14.309,14.309,0,0,1,20.612,0,17.943,17.943,0,0,1,4.71,13.211,13.413,13.413,0,0,1-.168,1.788,1.7,1.7,0,0,1,.159.081c.734.423,1.106,1.357,1.106,2.776a8.873,8.873,0,0,1-.388,2.593,37.545,37.545,0,0,0-.8,3.845,2.524,2.524,0,0,1-1.872,2.08,12.679,12.679,0,0,1-2.957,5.877l-.32.358v3.925a3.694,3.694,0,0,0,2.667,3.527c2.151.62,5.009,1.266,7.773,1.89,1.984.448,4.035.912,5.784,1.358a9.074,9.074,0,0,1,6.592,6.642c.008.033.014.066.019.1l3.421,24.44a75.946,75.946,0,0,1,.732,10.507v4.284a1,1,0,0,1-1,1" transform="translate(-320.601 -0.23)" fill="#105489"/>
        <path id="Trazado_228275" data-name="Trazado 228275" d="M571.255,192.549l-3.3-3.605-8.866,10.012,6.273,6.066Z" transform="translate(-435.213 -147.081)" fill="#4dd0e1"/>
        <path id="Trazado_228276" data-name="Trazado 228276" d="M561.858,202.516a1,1,0,0,1-.693-.28l-6.274-6.066a1,1,0,0,1-.053-1.377l8.866-10.013a1,1,0,0,1,.738-.336,1.053,1.053,0,0,1,.744.324l3.3,3.605a1,1,0,0,1,.166,1.1l-5.895,12.473a1,1,0,0,1-.723.555.978.978,0,0,1-.179.016m-4.894-7.116,4.587,4.435,5.014-10.61-2.1-2.3Z" transform="translate(-431.71 -143.578)" fill="#105489"/>
        <path id="Trazado_228277" data-name="Trazado 228277" d="M504.251,192.544l5.876,12.479,6.273-6.066-8.866-10.012Z" transform="translate(-392.527 -147.082)" fill="#4dd0e1"/>
        <path id="Trazado_228278" data-name="Trazado 228278" d="M506.625,202.515a1,1,0,0,1-.9-.573l-5.876-12.479a1,1,0,0,1,.166-1.1l3.283-3.6a1.037,1.037,0,0,1,.744-.325,1,1,0,0,1,.739.336l8.866,10.013a1,1,0,0,1-.053,1.377l-6.274,6.066a1,1,0,0,1-.693.28m-4.689-13.3,5,10.614,4.586-4.434-7.5-8.468Z" transform="translate(-389.024 -143.577)" fill="#105489"/>
        <path id="Trazado_228279" data-name="Trazado 228279" d="M537.041,165.521l-6.019,3.274a8.2,8.2,0,0,1-6.379-.13l-5.182-3.139" transform="translate(-404.366 -128.848)" fill="#fff"/>
        <path id="Trazado_228280" data-name="Trazado 228280" d="M524.485,166.87a9.22,9.22,0,0,1-3.753-.8,1.092,1.092,0,0,1-.11-.058l-5.182-3.14a1,1,0,1,1,1.033-1.706l5.127,3.107a7.246,7.246,0,0,0,5.5.112l5.965-3.245a1,1,0,1,1,.953,1.751l-6.019,3.274a1.133,1.133,0,0,1-.107.051,9.2,9.2,0,0,1-3.4.649" transform="translate(-400.862 -125.348)" fill="#105489"/>
        <path id="Trazado_228281" data-name="Trazado 228281" d="M664.359,217.244v45.6" transform="translate(-517.16 -169.112)" fill="#fff"/>
        <path id="Trazado_228282" data-name="Trazado 228282" d="M660.857,260.334a1,1,0,0,1-1-1v-45.6a1,1,0,1,1,1.994,0v45.6a1,1,0,0,1-1,1" transform="translate(-513.658 -165.608)" fill="#105489"/>
        <line id="Línea_2078" data-name="Línea 2078" y2="10.126" transform="translate(101.126 47.999)" fill="#fff"/>
        <path id="Trazado_228283" data-name="Trazado 228283" d="M452.913,224.26a1,1,0,0,1-1-1V213.137a1,1,0,0,1,1.994,0v10.126a1,1,0,0,1-1,1" transform="translate(-351.787 -165.138)" fill="#105489"/>
        <path id="Trazado_228284" data-name="Trazado 228284" d="M382.566,262.395h47.677a4.393,4.393,0,0,1,4.38,4.38v26.9a4.393,4.393,0,0,1-4.38,4.38H382.566a4.393,4.393,0,0,1-4.38-4.38v-26.9a4.393,4.393,0,0,1,4.38-4.38" transform="translate(-294.393 -204.258)" fill="#fff"/>
        <path id="Trazado_228285" data-name="Trazado 228285" d="M426.739,295.545H379.061a5.383,5.383,0,0,1-5.377-5.377V263.273a5.383,5.383,0,0,1,5.377-5.377h47.678a5.383,5.383,0,0,1,5.376,5.377v26.895a5.383,5.383,0,0,1-5.376,5.377M379.061,259.89a3.387,3.387,0,0,0-3.383,3.383v26.895a3.387,3.387,0,0,0,3.383,3.383h47.678a3.387,3.387,0,0,0,3.382-3.383V263.273a3.387,3.387,0,0,0-3.382-3.383Z" transform="translate(-290.889 -200.756)" fill="#105489"/>
        <path id="Trazado_228286" data-name="Trazado 228286" d="M492.3,324.882a4.9,4.9,0,1,1-4.9-4.9,4.9,4.9,0,0,1,4.9,4.9" transform="translate(-375.599 -249.086)" fill="#4dd0e1"/>
        <path id="Trazado_228287" data-name="Trazado 228287" d="M483.9,327.276a5.9,5.9,0,1,1,5.9-5.9,5.9,5.9,0,0,1-5.9,5.9m0-9.8a3.9,3.9,0,1,0,3.9,3.9,3.907,3.907,0,0,0-3.9-3.9" transform="translate(-372.096 -245.583)" fill="#105489"/>
        <path id="Trazado_228288" data-name="Trazado 228288" d="M669.376,397.462a7.279,7.279,0,0,0-14.558,0Z" transform="translate(-509.733 -303.733)" fill="#f9b564"/>
        <path id="Trazado_228289" data-name="Trazado 228289" d="M665.873,394.955H651.314a1,1,0,0,1-1-1,8.276,8.276,0,1,1,16.553,0,1,1,0,0,1-1,1m-13.482-1.994H664.8a6.283,6.283,0,0,0-12.406,0" transform="translate(-506.23 -300.229)" fill="#105489"/>
        <path id="Trazado_228290" data-name="Trazado 228290" d="M500.516,92.469s4.074-2.122,10.992.637a6.068,6.068,0,0,1-1.1,4.329h-7.6s-2.334-1.1-2.292-4.965" transform="translate(-389.619 -71.376)" fill="#fff"/>
        <path id="Trazado_228291" data-name="Trazado 228291" d="M506.9,94.926h-7.6a.993.993,0,0,1-.426-.1c-.119-.057-2.912-1.428-2.863-5.878a1,1,0,0,1,.536-.873c.183-.095,4.563-2.3,11.822.594a1,1,0,0,1,.609.734,7.072,7.072,0,0,1-1.267,5.1,1,1,0,0,1-.815.422m-7.321-1.994h6.777a5.273,5.273,0,0,0,.705-2.626c-4.632-1.7-7.806-1.057-9.032-.668a4.24,4.24,0,0,0,1.55,3.294" transform="translate(-386.117 -67.87)" fill="#105489"/>
        <path id="Trazado_228292" data-name="Trazado 228292" d="M572.98,92.469s-4.074-2.122-10.992.637a6.069,6.069,0,0,0,1.1,4.329h7.6s2.334-1.1,2.292-4.965" transform="translate(-437.429 -71.376)" fill="#fff"/>
        <path id="Trazado_228293" data-name="Trazado 228293" d="M567.192,94.928h-7.6a1,1,0,0,1-.815-.422,7.074,7.074,0,0,1-1.267-5.1,1,1,0,0,1,.609-.734c7.258-2.894,11.639-.689,11.822-.594a1,1,0,0,1,.537.873c.049,4.45-2.743,5.822-2.863,5.878a.993.993,0,0,1-.426.1m-7.053-1.994h6.779a4.213,4.213,0,0,0,1.549-3.294c-1.225-.39-4.4-1.031-9.035.669a5.2,5.2,0,0,0,.707,2.624" transform="translate(-433.932 -67.872)" fill="#105489"/>
        <line id="Línea_2079" data-name="Línea 2079" x2="2.629" transform="translate(121.876 23.353)" fill="#fff"/>
        <path id="Trazado_228294" data-name="Trazado 228294" d="M549.2,102.9h-2.629a1,1,0,1,1,0-1.994H549.2a1,1,0,1,1,0,1.994" transform="translate(-424.691 -78.549)" fill="#105489"/>
        <path id="Trazado_228295" data-name="Trazado 228295" d="M518.247,27.258l.661-6.956a13.609,13.609,0,0,0-6.23-12.831,12.829,12.829,0,0,0-1.164-.639c-6.208-3.08-13.554-2.177-13.554-2.177a6.889,6.889,0,0,0-5.289,2.972L491.431,9.46h0a6.317,6.317,0,0,0-5.313,6.456l1.174,10.771,2.754-5.992a3.062,3.062,0,0,1,.559-.587,13.537,13.537,0,0,0,3.473-4.33l.622-1.261,1.025.459A29.668,29.668,0,0,0,510.857,17.2c.848-.086,1.493.072,1.648.675,2.691,10.5,5.743,9.385,5.743,9.385" transform="translate(-378.405 -3.529)" fill="#f9b564"/>
        <path id="Trazado_228296" data-name="Trazado 228296" d="M514.5,24.764a2.792,2.792,0,0,1-1.308-.349c-2-1.055-3.722-4.33-5.116-9.736a1.81,1.81,0,0,0-.6-.012,30.774,30.774,0,0,1-15.641-2.3l-.148-.066-.2.4a14.473,14.473,0,0,1-3.725,4.652,2.45,2.45,0,0,0-.336.331l-2.712,5.9a1,1,0,0,1-1.9-.308L481.639,12.5a7.337,7.337,0,0,1,5.706-7.458l1.015-1.5A7.924,7.924,0,0,1,494.414.137c.25-.032,7.655-.9,14.058,2.278a13.826,13.826,0,0,1,1.259.693,14.564,14.564,0,0,1,6.683,13.77l-.661,6.95a1,1,0,0,1-.651.843,1.815,1.815,0,0,1-.6.093m.263-1.03h0Zm-7.007-11.076a2.019,2.019,0,0,1,2.23,1.444c1.528,5.961,3.1,7.821,3.894,8.4l.553-5.816a12.581,12.581,0,0,0-5.777-11.9,12.084,12.084,0,0,0-1.068-.585c-5.855-2.9-12.917-2.088-12.989-2.079a5.955,5.955,0,0,0-4.585,2.541L488.769,6.5a1,1,0,0,1-.65.423,5.342,5.342,0,0,0-4.493,5.425l.778,7.128,1.248-2.715a1.034,1.034,0,0,1,.08-.143,3.96,3.96,0,0,1,.741-.791,12.5,12.5,0,0,0,3.221-4.008l.622-1.261a1,1,0,0,1,1.3-.469l1.025.459a28.83,28.83,0,0,0,14.626,2.14,4.756,4.756,0,0,1,.484-.025" transform="translate(-374.918 -0.005)" fill="#105489"/>
        <path id="Trazado_228297" data-name="Trazado 228297" d="M297.331,888.923c-.5-1.528-2.489-7.109-6.1-10.79l-27.392-27.9c-1.523-1.552-4.917-2.249-7.119-2.554l12.322-17.583v.01c.473,2.506,1.734,7.839,4.3,10.451l27.392,27.9c3.557,3.624,8.778,5.6,10.32,6.13l-8.865,4.929Z" transform="translate(-199.837 -646.174)" fill="#fff"/>
        <path id="Trazado_228298" data-name="Trazado 228298" d="M293.828,886.415c-.027,0-.053,0-.08,0a1,1,0,0,1-.868-.686c-.505-1.553-2.423-6.892-5.866-10.4l-27.392-27.9c-.994-1.013-3.319-1.818-6.545-2.266a1,1,0,0,1-.68-1.559l12.321-17.583a1,1,0,0,1,1.806.446c.419,2.2,1.632,7.455,4.02,9.888l27.392,27.9c3.4,3.463,8.462,5.38,9.933,5.885a1,1,0,0,1,.16,1.814l-8.6,4.783-4.714,9.14a1,1,0,0,1-.886.54m-38.887-42.971c2.913.554,4.962,1.421,6.1,2.583l27.392,27.9a28.5,28.5,0,0,1,5.545,9.014l3.812-7.39a.994.994,0,0,1,.4-.414l7-3.895a27.62,27.62,0,0,1-8.686-5.595l-27.392-27.9c-2.091-2.131-3.358-5.815-4.078-8.72Z" transform="translate(-196.334 -642.67)" fill="#105489"/>
        <path id="Trazado_228299" data-name="Trazado 228299" d="M198.269,770.693a13.529,13.529,0,0,1,5.45,3.369c3.733,4.235,4.284,10.765,2.169,16.493-1.556,4.214-4.32,7.93-8.161,9.387-3.1,1.175-6.69.614-10.014-.66a17.43,17.43,0,0,1-10.567-11.818l11.512,4.411a3.3,3.3,0,0,0,3.507-.737,14.06,14.06,0,0,0,3.277-5.144,14.391,14.391,0,0,0,.831-6.058A3.4,3.4,0,0,0,194.113,777l-11.56-4.429a16.953,16.953,0,0,1,15.717-1.877" transform="translate(-137.897 -599.056)" fill="#4dd0e1"/>
        <path id="Trazado_228300" data-name="Trazado 228300" d="M190.5,798.118a18.711,18.711,0,0,1-6.643-1.375,18.51,18.51,0,0,1-11.173-12.49A1,1,0,0,1,174,783.063l11.512,4.41a2.293,2.293,0,0,0,2.451-.516,13.136,13.136,0,0,0,3.042-4.779,13.448,13.448,0,0,0,.773-5.637,2.42,2.42,0,0,0-1.524-2.083l-11.561-4.429a1,1,0,0,1-.207-1.753,18.014,18.014,0,0,1,16.637-1.986h0a14.59,14.59,0,0,1,5.842,3.641c3.775,4.283,4.7,11.151,2.356,17.5-1.843,4.993-4.948,8.534-8.742,9.973a11.426,11.426,0,0,1-4.082.715M175.26,785.68a16.459,16.459,0,0,0,9.308,9.2c2.507.96,6.156,1.854,9.3.658,3.247-1.231,5.939-4.356,7.579-8.8,2.093-5.669,1.316-11.748-1.981-15.488a12.788,12.788,0,0,0-5.06-3.1,16.006,16.006,0,0,0-13.093.747l9.65,3.7a4.419,4.419,0,0,1,2.8,3.793,15.453,15.453,0,0,1-.89,6.478,15.144,15.144,0,0,1-3.512,5.507,4.314,4.314,0,0,1-4.564.959Z" transform="translate(-134.395 -595.585)" fill="#105489"/>
        <path id="Trazado_228301" data-name="Trazado 228301" d="M457.925,1032.926a11.327,11.327,0,0,0-16.228,0,11.844,11.844,0,0,0,0,16.531,11.327,11.327,0,0,0,16.228,0,11.844,11.844,0,0,0,0-16.531m-1.346,10.464-.51,2.348-2.075,1.211-1.793,1.6-2.39-.24-2.39.24-1.792-1.6-2.075-1.211-.51-2.348-.967-2.2.967-2.2.51-2.347,2.075-1.211,1.792-1.6,2.39.24,2.39-.24,1.793,1.6,2.075,1.211.51,2.347.967,2.2Z" transform="translate(-341.216 -801.402)" fill="#4dd0e1"/>
        <path id="Trazado_228302" data-name="Trazado 228302" d="M446.333,1050.374a12.284,12.284,0,0,1-8.826-3.722,12.859,12.859,0,0,1,0-17.927,12.324,12.324,0,0,1,17.651,0,12.859,12.859,0,0,1,0,17.927,12.283,12.283,0,0,1-8.825,3.722m0-23.378a10.305,10.305,0,0,0-7.4,3.125,10.855,10.855,0,0,0,0,15.134,10.331,10.331,0,0,0,14.806,0,10.855,10.855,0,0,0,0-15.134,10.3,10.3,0,0,0-7.4-3.125m2.39,19.046c-.033,0-.066,0-.1-.005l-2.291-.23-2.29.23a.988.988,0,0,1-.764-.248l-1.718-1.532-1.988-1.16a1,1,0,0,1-.472-.65l-.489-2.249-.927-2.108a1,1,0,0,1,0-.8l.927-2.108.489-2.25a1,1,0,0,1,.472-.65l1.988-1.16,1.718-1.533a1,1,0,0,1,.764-.248l2.29.23,2.291-.23a1,1,0,0,1,.764.248l1.718,1.533,1.988,1.16a1,1,0,0,1,.472.65l.489,2.25.927,2.108a1,1,0,0,1,0,.8l-.927,2.108-.489,2.249a1,1,0,0,1-.472.65l-1.988,1.16-1.718,1.532a1,1,0,0,1-.664.253m-2.391-2.234c.033,0,.066,0,.1.005l1.954.2,1.466-1.307a1.038,1.038,0,0,1,.161-.117l1.7-.989.417-1.919a1,1,0,0,1,.062-.189l.791-1.8-.791-1.8a1.025,1.025,0,0,1-.062-.19l-.417-1.919-1.7-.989a1.03,1.03,0,0,1-.161-.117l-1.466-1.307-1.954.2a1.031,1.031,0,0,1-.2,0l-1.954-.2-1.465,1.307a1.046,1.046,0,0,1-.162.117l-1.7.989-.417,1.919a1.02,1.02,0,0,1-.062.19l-.791,1.8.791,1.8a1,1,0,0,1,.062.189l.417,1.919,1.7.989a1.054,1.054,0,0,1,.162.117l1.465,1.307,1.954-.2c.033,0,.067-.005.1-.005m6.258-1.573h0Z" transform="translate(-337.738 -797.898)" fill="#105489"/>
        <path id="Trazado_228303" data-name="Trazado 228303" d="M197.745,972.54c-7.048,7.048-16.069,9.45-20.15,5.368s-1.683-13.106,5.365-20.154c3.537-3.537,9.311-6.207,12.807-7.653,5.774-2.389,9.428-7.607,11.518-12.165a3.751,3.751,0,0,1,6.061-1.094L219.1,942.6a3.75,3.75,0,0,1-.923,5.979c-4.488,2.32-10.887,6.343-13.219,11.347-1.729,3.71-3.168,8.572-7.213,12.617" transform="translate(-136.696 -728.418)" fill="#f9b564"/>
        <path id="Trazado_228304" data-name="Trazado 228304" d="M179.451,977.418a8.437,8.437,0,0,1-6.15-2.306c-4.542-4.542-2.186-14.014,5.364-21.564,2.759-2.759,7.177-5.406,13.132-7.869,5.76-2.384,9.156-7.655,10.993-11.659a4.747,4.747,0,0,1,7.672-1.383l5.753,5.753a4.746,4.746,0,0,1-1.17,7.569c-3.789,1.959-10.486,5.977-12.773,10.884-.353.756-.693,1.563-1.054,2.417-1.414,3.348-3.018,7.143-6.357,10.484-4.955,4.955-10.738,7.674-15.41,7.674m27.671-44.177a2.8,2.8,0,0,0-.5.045,2.724,2.724,0,0,0-2.02,1.565c-1.985,4.328-5.685,10.041-12.043,12.671-5.711,2.362-9.911,4.865-12.484,7.437a24.858,24.858,0,0,0-6.6,10.74c-.918,3.448-.48,6.291,1.234,8,3.625,3.625,12.206,1.166,18.74-5.368,3.064-3.065,4.587-6.67,5.93-9.85.368-.871.715-1.694,1.083-2.484,2.41-5.17,8.761-9.277,13.665-11.812a2.753,2.753,0,0,0,.675-4.389l-5.753-5.753a2.708,2.708,0,0,0-1.93-.807m-12.966,35.8h0Z" transform="translate(-133.107 -724.918)" fill="#105489"/>
        <path id="Trazado_228305" data-name="Trazado 228305" d="M377.061,782.278l4.51-7.937,9.044-4.778,2.665,2.665-4.854,8.968-7.784,4.663L354.27,812.232l-3.734-3.734Z" transform="translate(-272.87 -599.056)" fill="#4dd0e1"/>
        <path id="Trazado_228306" data-name="Trazado 228306" d="M350.768,809.725h0a1,1,0,0,1-.705-.292l-3.734-3.734a1,1,0,0,1,0-1.414l26.426-26.123,4.443-7.817a1,1,0,0,1,.4-.389l9.044-4.778a1,1,0,0,1,1.171.177l2.666,2.666a1,1,0,0,1,.172,1.179l-4.855,8.968a.993.993,0,0,1-.365.381l-7.678,4.6-26.285,26.285a1,1,0,0,1-.7.292M348.448,805l2.32,2.321,25.667-25.667a1.007,1.007,0,0,1,.193-.15l7.55-4.522,4.37-8.074-1.62-1.619-8.136,4.3-4.367,7.684a.992.992,0,0,1-.165.216Zm25.11-26.224h0Z" transform="translate(-269.367 -595.552)" fill="#105489"/>
        <line id="Línea_2080" data-name="Línea 2080" x2="9.619" y2="9.619" transform="translate(69.369 211.905)" fill="#fff"/>
        <path id="Trazado_228307" data-name="Trazado 228307" d="M319.2,963.519a.994.994,0,0,1-.705-.292l-9.619-9.619a1,1,0,0,1,1.41-1.41l9.619,9.619a1,1,0,0,1-.705,1.7" transform="translate(-240.213 -740.998)" fill="#105489"/>
        <path id="Trazado_228308" data-name="Trazado 228308" d="M43.64,431.785v28.878a4.291,4.291,0,0,0,8.582,0l-.245-28.878-.416-20.523c.829,1.238,1.69,2.448,2.622,3.62l.048.06a3.245,3.245,0,0,0,5.084-.025l9.434-12.007a3.334,3.334,0,0,0-.385-4.6,3.245,3.245,0,0,0-4.635.483l-6.862,8.733c-.69-1.036-1.373-2.118-2.084-3.257a8.263,8.263,0,0,0-7.648-3.991H47l-8.707.117c-6.457-.032-9.085,3.077-9.161,7,0,.148-.053,22.476-.053,22.476a3.244,3.244,0,0,0,3.173,3.314h.072a3.24,3.24,0,0,0,2.712-1.471" transform="translate(-22.633 -309.471)" fill="#fff"/>
        <path id="Trazado_228309" data-name="Trazado 228309" d="M44.426,462.442a5.294,5.294,0,0,1-5.288-5.288V428.277a1,1,0,1,1,1.994,0v28.878a3.294,3.294,0,0,0,6.588,0l-.245-28.87-.415-20.511a1,1,0,0,1,1.825-.575c.906,1.352,1.747,2.515,2.574,3.553l.045.055a2.247,2.247,0,0,0,3.522-.016l9.435-12.008a2.337,2.337,0,0,0-.24-3.218,2.248,2.248,0,0,0-3.211.334l-6.862,8.733a.985.985,0,0,1-.823.38,1,1,0,0,1-.791-.444c-.717-1.076-1.433-2.213-2.1-3.281a7.274,7.274,0,0,0-6.789-3.521h-.076l-8.77.118c-5.2.007-8.1,2.112-8.178,6.02,0,.306-.053,22.237-.053,22.459a2.254,2.254,0,0,0,2.2,2.315h0a2.262,2.262,0,0,0,1.928-1.02,1,1,0,0,1,1.668,1.093,4.231,4.231,0,0,1-3.546,1.921h-.1a4.241,4.241,0,0,1-4.144-4.332c.005-2.267.051-22.321.053-22.472.1-5,3.856-7.978,10.065-7.978h.1l8.764-.118h.19a9.242,9.242,0,0,1,8.381,4.459c.422.677.864,1.381,1.312,2.077l6-7.641a4.243,4.243,0,0,1,6.058-.632,4.344,4.344,0,0,1,.53,5.98l-9.435,12.007a4.242,4.242,0,0,1-6.646.033L49.9,412c-.26-.327-.519-.663-.782-1.013l.35,17.271.245,28.89a5.3,5.3,0,0,1-5.288,5.3" transform="translate(-19.128 -305.962)" fill="#105489"/>
        <line id="Línea_2081" data-name="Línea 2081" y2="19.739" transform="translate(12.425 102.576)" fill="#fff"/>
        <path id="Trazado_228310" data-name="Trazado 228310" d="M52.574,480.2a1,1,0,0,1-1-1V459.462a1,1,0,1,1,1.994,0V479.2a1,1,0,0,1-1,1" transform="translate(-40.149 -356.886)" fill="#105489"/>
        <path id="Trazado_228311" data-name="Trazado 228311" d="M64.659,552.054v28.878a4.291,4.291,0,0,1-8.582,0V552.054" transform="translate(-43.652 -429.739)" fill="#fff"/>
        <path id="Trazado_228312" data-name="Trazado 228312" d="M56.866,582.717a5.294,5.294,0,0,1-5.288-5.288V548.551a1,1,0,1,1,1.994,0v28.878a3.294,3.294,0,0,0,6.588,0V548.551a1,1,0,1,1,1.994,0v28.878a5.293,5.293,0,0,1-5.288,5.288" transform="translate(-40.15 -426.236)" fill="#105489"/>
        <path id="Trazado_228313" data-name="Trazado 228313" d="M195.3,400.589V318.005a2.5,2.5,0,0,1,1.177-2.14,8.384,8.384,0,0,1,5.521-.9c4.413.54,12.049,5.018,18.569,3.449v14.405c-7.373,2.528-14.832-1.638-18.478-2.7a7.038,7.038,0,0,0-6.789,1.422" transform="translate(-152.032 -245.106)" fill="#f9b564"/>
        <path id="Trazado_228314" data-name="Trazado 228314" d="M191.8,398.084a1,1,0,0,1-1-1V314.5a3.516,3.516,0,0,1,1.655-2.99,9.349,9.349,0,0,1,6.161-1.04,30.456,30.456,0,0,1,5.544,1.534c4.037,1.365,8.609,2.911,12.671,1.936a1,1,0,0,1,1.23.969v14.405a1,1,0,0,1-.674.943c-6.252,2.144-12.46-.224-16.569-1.792-.98-.374-1.827-.7-2.511-.9a6.1,6.1,0,0,0-5.513.924v68.591a1,1,0,0,1-1,1m4.608-72.789a8.755,8.755,0,0,1,2.46.362c.761.223,1.643.559,2.664.948,3.685,1.405,9.177,3.5,14.538,1.979V316.111c-4.276.58-8.825-.958-12.546-2.215a29.828,29.828,0,0,0-5.148-1.444,7.424,7.424,0,0,0-4.878.762,1.508,1.508,0,0,0-.7,1.289v11.655a7.97,7.97,0,0,1,3.611-.864" transform="translate(-148.529 -241.604)" fill="#105489"/>
        <path id="Trazado_228315" data-name="Trazado 228315" d="M20.655,574.362H5.3a.8.8,0,0,1-.8-.8V562.122a.8.8,0,0,1,.8-.8H20.655a.8.8,0,0,1,.8.8v11.437a.8.8,0,0,1-.8.8" transform="translate(-3.503 -436.951)" fill="#4dd0e1"/>
        <path id="Trazado_228316" data-name="Trazado 228316" d="M17.152,571.855H1.8a1.8,1.8,0,0,1-1.8-1.8V558.618a1.8,1.8,0,0,1,1.8-1.8H17.152a1.8,1.8,0,0,1,1.8,1.8v11.437a1.8,1.8,0,0,1-1.8,1.8M1.994,569.861H16.958V558.812H1.994Z" transform="translate(0 -433.448)" fill="#105489"/>
        <path id="Trazado_228317" data-name="Trazado 228317" d="M13.052,574.521H5.9a4.124,4.124,0,0,1-3.714-2.41l-.358-.778L.1,567.762a1,1,0,1,1,1.794-.869L4,571.275a2.123,2.123,0,0,0,1.9,1.251h7.151a2.123,2.123,0,0,0,1.91-1.265l.342-.745,1.755-3.623a1,1,0,1,1,1.794.869l-2.077,4.329a4.121,4.121,0,0,1-3.723,2.43" transform="translate(0 -440.852)" fill="#105489"/>
        <path id="Trazado_228318" data-name="Trazado 228318" d="M35.192,549.2H29.248v-2.724a.726.726,0,0,1,.726-.726h4.492a.726.726,0,0,1,.726.726Z" transform="translate(-22.768 -424.831)" fill="#fff"/>
        <path id="Trazado_228319" data-name="Trazado 228319" d="M31.689,546.693H25.744a1,1,0,0,1-1-1v-2.724a1.725,1.725,0,0,1,1.724-1.723h4.492a1.725,1.725,0,0,1,1.724,1.723V545.7a1,1,0,0,1-1,1M26.741,544.7h3.951v-1.456H26.741Z" transform="translate(-19.264 -421.328)" fill="#105489"/>
        <path id="Trazado_228320" data-name="Trazado 228320" d="M63.2,361.653a7.127,7.127,0,1,1,7.127-7.127,7.127,7.127,0,0,1-7.127,7.127" transform="translate(-43.652 -270.429)" fill="#fff"/>
        <path id="Trazado_228321" data-name="Trazado 228321" d="M59.7,359.148a8.124,8.124,0,1,1,8.124-8.124,8.133,8.133,0,0,1-8.124,8.124m0-14.253a6.13,6.13,0,1,0,6.13,6.13,6.136,6.136,0,0,0-6.13-6.13" transform="translate(-40.149 -266.927)" fill="#105489"/>
        <line id="Línea_2082" data-name="Línea 2082" y2="6.284" transform="translate(43.273 66.615)" fill="#fff"/>
        <path id="Trazado_228322" data-name="Trazado 228322" d="M191.8,304.442a1,1,0,0,1-1-1v-6.284a1,1,0,1,1,1.994,0v6.284a1,1,0,0,1-1,1" transform="translate(-148.529 -230.546)" fill="#105489"/>
        <path id="Trazado_228323" data-name="Trazado 228323" d="M908.007,435.833l-12.541,3.632a10.739,10.739,0,0,1-13.3-7.328l-8.647-29.86a12.8,12.8,0,0,1,8.735-15.856l8.581-2.485a12.8,12.8,0,0,1,15.856,8.735l8.647,29.86a10.739,10.739,0,0,1-7.328,13.3" transform="translate(-679.58 -298.474)" fill="#4dd0e1"/>
        <path id="Trazado_228324" data-name="Trazado 228324" d="M888.988,437.384a11.758,11.758,0,0,1-11.278-8.474l-8.647-29.86a13.812,13.812,0,0,1,9.415-17.091l8.581-2.485a13.81,13.81,0,0,1,17.091,9.415l8.647,29.86a11.749,11.749,0,0,1-8.008,14.537l-12.542,3.632a11.681,11.681,0,0,1-3.259.465m1.9-56.461a11.781,11.781,0,0,0-3.278.467l-8.581,2.485a11.817,11.817,0,0,0-8.054,14.621l8.647,29.86A9.756,9.756,0,0,0,891.692,435l12.541-3.632a9.755,9.755,0,0,0,6.648-12.068l-8.647-29.86a11.826,11.826,0,0,0-11.344-8.522m13.62,51.407h0Z" transform="translate(-676.083 -294.972)" fill="#105489"/>
        <path id="Trazado_228325" data-name="Trazado 228325" d="M940.211,426.037l-.82.238a1.224,1.224,0,0,1-1.516-.835l-2.1-7.24a1.224,1.224,0,0,1,.835-1.516l.82-.238a1.224,1.224,0,0,1,1.516.835l2.1,7.24a1.223,1.223,0,0,1-.835,1.515" transform="translate(-728.405 -324.14)" fill="#fff"/>
        <path id="Trazado_228326" data-name="Trazado 228326" d="M935.545,423.817a2.224,2.224,0,0,1-2.13-1.6l-2.1-7.24a2.222,2.222,0,0,1,1.514-2.75l.82-.238A2.221,2.221,0,0,1,936.4,413.5l2.1,7.24a2.22,2.22,0,0,1-1.514,2.75l-.82.238a2.218,2.218,0,0,1-.622.089m-1.274-9.926a.219.219,0,0,0-.064.009l-.818.237a.228.228,0,0,0-.155.28l2.1,7.241a.221.221,0,0,0,.109.135.217.217,0,0,0,.172.02l.82-.238h0a.218.218,0,0,0,.134-.108.221.221,0,0,0,.02-.172l-2.1-7.241a.227.227,0,0,0-.218-.163" transform="translate(-724.902 -320.635)" fill="#105489"/>
        <path id="Trazado_228327" data-name="Trazado 228327" d="M835.11,353.792a1,1,0,0,1-.957-.72L832.5,347.35a.96.96,0,0,1-.025-.1c-.054-.3-1.423-7.415-8.52-7.482a10.561,10.561,0,0,0-2.763.389c-3.281.876-14.153,3.15-16.34-4.4a1,1,0,1,1,1.915-.554c1.683,5.812,11.071,3.788,13.909,3.03a12.674,12.674,0,0,1,3.3-.457c8.371.079,10.281,8.245,10.451,9.064l1.645,5.683a1,1,0,0,1-.68,1.235.976.976,0,0,1-.278.04" transform="translate(-626.491 -260.37)" fill="#105489"/>
        <line id="Línea_2083" data-name="Línea 2083" x2="2.393" y2="8.262" transform="translate(211.396 102.016)" fill="#fff"/>
        <path id="Trazado_228328" data-name="Trazado 228328" d="M952.992,466.194a1,1,0,0,1-.957-.72l-2.393-8.263a1,1,0,1,1,1.915-.554l2.393,8.263a1,1,0,0,1-.68,1.235.979.979,0,0,1-.278.04" transform="translate(-739.204 -354.918)" fill="#105489"/>
        <path id="Trazado_228329" data-name="Trazado 228329" d="M911.288,409.019a4.875,4.875,0,0,0-5.783-3.494,4.726,4.726,0,0,0-3.321,5.9l-1.942-6.706a4.875,4.875,0,0,0-5.783-3.494,4.726,4.726,0,0,0-3.322,5.9l-.5-1.722a4.875,4.875,0,0,0-5.783-3.494,4.726,4.726,0,0,0-3.321,5.9l1.7,5.887a4.726,4.726,0,0,0-5.961-3.214,4.875,4.875,0,0,0-3.021,6.044l8.77,30.283h0l-9.1-10.475a4.837,4.837,0,0,0-6.7-.712,4.762,4.762,0,0,0-.527,6.773s8.886,13.939,18.713,21.183a42.182,42.182,0,0,0,6.536,3.25,22.2,22.2,0,0,0,12.871.072c11.912-3.518,18.487-16.364,15-28.392Z" transform="translate(-673.762 -312.217)" fill="#fff"/>
        <path id="Trazado_228330" data-name="Trazado 228330" d="M895,465.328a23.217,23.217,0,0,1-6.843-1.033,42.4,42.4,0,0,1-6.757-3.349.879.879,0,0,1-.077-.052c-9.637-7.1-18.195-20.252-18.924-21.389a5.758,5.758,0,0,1,.691-8.135,5.836,5.836,0,0,1,8.089.824l6.126,7.054-7.51-25.93a5.88,5.88,0,0,1,3.677-7.272,5.64,5.64,0,0,1,4.091.251l-.491-1.7a5.716,5.716,0,0,1,.521-4.448,5.646,5.646,0,0,1,3.506-2.7,5.758,5.758,0,0,1,6,2.193c.032-.062.065-.123.1-.183a5.647,5.647,0,0,1,3.506-2.7,5.882,5.882,0,0,1,6.994,4.182l.729,2.515a5.635,5.635,0,0,1,3.324-2.4,5.882,5.882,0,0,1,6.994,4.182l8.54,29.492c3.677,12.7-3.356,25.987-15.679,29.626a23.292,23.292,0,0,1-6.6.959m-12.531-6.067a40.624,40.624,0,0,0,6.276,3.128,21.2,21.2,0,0,0,12.295.068c11.273-3.329,17.7-15.513,14.329-27.159l-8.541-29.492A3.873,3.873,0,0,0,902.252,403a3.666,3.666,0,0,0-2.277,1.752,3.735,3.735,0,0,0-.339,2.907h0a1,1,0,0,1-1.915.555h0l-1.942-6.706a3.872,3.872,0,0,0-4.574-2.807,3.666,3.666,0,0,0-2.276,1.751,3.736,3.736,0,0,0-.34,2.907v0a1,1,0,0,1-1.915.554l-.5-1.722a3.875,3.875,0,0,0-4.573-2.807,3.667,3.667,0,0,0-2.277,1.751,3.739,3.739,0,0,0-.34,2.909l1.7,5.883s0,0,0,0a1,1,0,0,1-1.915.554,3.739,3.739,0,0,0-1.841-2.276,3.667,3.667,0,0,0-2.861-.264,3.876,3.876,0,0,0-2.366,4.817l8.77,30.282a1,1,0,0,1-1.71.931l-9.1-10.476a3.837,3.837,0,0,0-5.305-.6,3.712,3.712,0,0,0-1.328,2.57,3.757,3.757,0,0,0,.915,2.785,1.019,1.019,0,0,1,.088.118c.088.138,8.88,13.832,18.426,20.888" transform="translate(-670.257 -308.727)" fill="#105489"/>
        <line id="Línea_2084" data-name="Línea 2084" x2="5.353" y2="18.483" transform="translate(209.271 100.775)" fill="#fff"/>
        <path id="Trazado_228331" data-name="Trazado 228331" d="M946.359,470.813a1,1,0,0,1-.957-.72L940.05,451.61a1,1,0,0,1,1.915-.554l5.353,18.483a1,1,0,0,1-.68,1.235.977.977,0,0,1-.278.04" transform="translate(-731.737 -350.558)" fill="#105489"/>
        <line id="Línea_2085" data-name="Línea 2085" x2="6.466" y2="22.33" transform="translate(217.2 94.309)" fill="#fff"/>
        <path id="Trazado_228332" data-name="Trazado 228332" d="M983.263,445.475a1,1,0,0,1-.957-.72l-6.466-22.33a1,1,0,0,1,1.915-.554l6.466,22.33a1,1,0,0,1-.68,1.235.979.979,0,0,1-.278.04" transform="translate(-759.597 -327.839)" fill="#105489"/>
        <line id="Línea_2086" data-name="Línea 2086" x2="6.337" y2="21.884" transform="translate(226.373 92.137)" fill="#fff"/>
        <path id="Trazado_228333" data-name="Trazado 228333" d="M1024.533,435.224a1,1,0,0,1-.957-.72l-6.337-21.884a1,1,0,0,1,1.915-.554l6.337,21.884a1,1,0,0,1-.68,1.235.98.98,0,0,1-.278.04" transform="translate(-791.823 -320.206)" fill="#105489"/>
        <path id="Trazado_228334" data-name="Trazado 228334" d="M914.931,496.055c1.692-1.924,2.978-1.979,4.485-2.416" transform="translate(-712.214 -384.267)" fill="#fff"/>
        <path id="Trazado_228335" data-name="Trazado 228335" d="M911.426,493.543a1,1,0,0,1-.749-1.655,7.293,7.293,0,0,1,4.3-2.539c.216-.055.435-.111.66-.176a1,1,0,0,1,.554,1.915c-.245.071-.484.133-.72.193a5.41,5.41,0,0,0-3.294,1.924,1,1,0,0,1-.75.339" transform="translate(-708.71 -380.758)" fill="#105489"/>
        <line id="Línea_2087" data-name="Línea 2087" x1="7.253" y2="2.1" transform="translate(183.184 104.902)" fill="#fff"/>
        <path id="Trazado_228336" data-name="Trazado 228336" d="M823.266,473.055a1,1,0,0,1-.276-1.954l7.253-2.1a1,1,0,1,1,.554,1.915l-7.253,2.1a.978.978,0,0,1-.278.04" transform="translate(-640.084 -365.056)" fill="#105489"/>
        <line id="Línea_2088" data-name="Línea 2088" x1="7.525" y1="0.719" transform="translate(182.449 98.563)" fill="#fff"/>
        <path id="Trazado_228337" data-name="Trazado 228337" d="M827.48,443.066a.93.93,0,0,1-.1,0l-7.525-.719a1,1,0,1,1,.189-1.985l7.525.719a1,1,0,0,1-.094,1.99" transform="translate(-637.504 -342.787)" fill="#105489"/>
        <line id="Línea_2089" data-name="Línea 2089" x1="6.755" y1="3.438" transform="translate(184.829 90.452)" fill="#fff"/>
        <path id="Trazado_228338" data-name="Trazado 228338" d="M837.447,409.178a.99.99,0,0,1-.452-.108l-6.755-3.438a1,1,0,1,1,.9-1.777l6.755,3.438a1,1,0,0,1-.453,1.886" transform="translate(-645.864 -314.291)" fill="#105489"/>
        <rect id="Rectángulo_50098" data-name="Rectángulo 50098" width="67.968" height="79.656" transform="translate(137.328 172.121)" fill="#fff"/>
        <path id="Trazado_228339" data-name="Trazado 228339" d="M684.273,854H616.3a1,1,0,0,1-1-1V773.346a1,1,0,0,1,1-1h67.968a1,1,0,0,1,1,1V853a1,1,0,0,1-1,1M617.3,852.005h65.974V774.343H617.3Z" transform="translate(-478.977 -601.224)" fill="#105489"/>
        <path id="Trazado_228340" data-name="Trazado 228340" d="M735.638,767.488h-22.1a2.845,2.845,0,0,1-2.845-2.845v-.84a2.845,2.845,0,0,1,2.845-2.845h22.1a2.845,2.845,0,0,1,2.845,2.845v.84a2.845,2.845,0,0,1-2.845,2.845" transform="translate(-553.232 -592.357)" fill="#f9b564"/>
        <path id="Trazado_228341" data-name="Trazado 228341" d="M732.135,764.982h-22.1a3.846,3.846,0,0,1-3.841-3.842V760.3a3.846,3.846,0,0,1,3.841-3.841h22.1a3.846,3.846,0,0,1,3.841,3.841v.841a3.846,3.846,0,0,1-3.841,3.842m-22.1-6.53a1.85,1.85,0,0,0-1.847,1.847v.841a1.85,1.85,0,0,0,1.847,1.848h22.1a1.85,1.85,0,0,0,1.847-1.848V760.3a1.85,1.85,0,0,0-1.847-1.847Z" transform="translate(-549.729 -588.854)" fill="#105489"/>
        <rect id="Rectángulo_50099" data-name="Rectángulo 50099" width="9.506" height="9.498" transform="translate(143.254 182.087)" fill="#b19fcc"/>
        <path id="Trazado_228342" data-name="Trazado 228342" d="M652.559,828.82h-9.506a1,1,0,0,1-1-1v-9.5a1,1,0,0,1,1-1h9.506a1,1,0,0,1,1,1v9.5a1,1,0,0,1-1,1m-8.509-1.994h7.512v-7.5H644.05Z" transform="translate(-499.799 -636.238)" fill="#105489"/>
        <path id="Trazado_228343" data-name="Trazado 228343" d="M657.662,825.428a1,1,0,0,1-.718-.305l-2-2.078a1,1,0,0,1,1.436-1.384l1.2,1.246,4-5.191a1,1,0,0,1,1.579,1.218l-4.71,6.106a1,1,0,0,1-.735.387h-.054" transform="translate(-509.611 -636.238)" fill="#105489"/>
        <rect id="Rectángulo_50100" data-name="Rectángulo 50100" width="9.506" height="9.498" transform="translate(143.254 200.046)" fill="#4dd0e1"/>
        <path id="Trazado_228344" data-name="Trazado 228344" d="M652.559,909.873h-9.506a1,1,0,0,1-1-1v-9.5a1,1,0,0,1,1-1h9.506a1,1,0,0,1,1,1v9.5a1,1,0,0,1-1,1m-8.509-1.994h7.512v-7.5H644.05Z" transform="translate(-499.799 -699.332)" fill="#105489"/>
        <rect id="Rectángulo_50101" data-name="Rectángulo 50101" width="9.506" height="9.498" transform="translate(143.254 218.005)" fill="#4dd0e1"/>
        <path id="Trazado_228345" data-name="Trazado 228345" d="M652.559,990.926h-9.506a1,1,0,0,1-1-1v-9.5a1,1,0,0,1,1-1h9.506a1,1,0,0,1,1,1v9.5a1,1,0,0,1-1,1m-8.509-1.994h7.512v-7.5H644.05Z" transform="translate(-499.799 -762.427)" fill="#105489"/>
        <rect id="Rectángulo_50102" data-name="Rectángulo 50102" width="9.506" height="9.498" transform="translate(143.254 235.963)" fill="#4dd0e1"/>
        <path id="Trazado_228346" data-name="Trazado 228346" d="M652.559,1071.978h-9.506a1,1,0,0,1-1-1v-9.5a1,1,0,0,1,1-1h9.506a1,1,0,0,1,1,1v9.5a1,1,0,0,1-1,1m-8.509-1.994h7.512v-7.5H644.05Z" transform="translate(-499.799 -825.52)" fill="#105489"/>
        <path id="Trazado_228347" data-name="Trazado 228347" d="M711.061,823.023l-1.252,2.888a.081.081,0,0,1-.067.048l-3.15.292a.08.08,0,0,0-.046.14l2.376,2.077a.08.08,0,0,1,.025.078l-.694,3.069a.081.081,0,0,0,.12.087l2.721-1.6a.081.081,0,0,1,.083,0l2.721,1.6a.081.081,0,0,0,.12-.087l-.694-3.069a.08.08,0,0,1,.025-.078l2.376-2.077a.08.08,0,0,0-.046-.14l-3.15-.292a.081.081,0,0,1-.067-.048l-1.252-2.888a.081.081,0,0,0-.148,0" transform="translate(-549.979 -640.633)" fill="#f9b564"/>
        <path id="Trazado_228348" data-name="Trazado 228348" d="M710.434,829.207a1.08,1.08,0,0,1-.545-.147l-2.258-1.333-2.255,1.331a1.078,1.078,0,0,1-1.6-1.166l.574-2.535-1.964-1.718a1.077,1.077,0,0,1,.611-1.884l2.608-.241,1.036-2.389a1.078,1.078,0,0,1,1.98,0l1.035,2.388,2.61.241a1.076,1.076,0,0,1,.605,1.886l-1.96,1.714.574,2.535a1.078,1.078,0,0,1-1.052,1.315m-2.8-3.621a1.074,1.074,0,0,1,.547.149l.894.527-.226-1a1.073,1.073,0,0,1,.35-1.057l.758-.663-1.023-.095a1.087,1.087,0,0,1-.891-.648l-.41-.945-.412.949a1.079,1.079,0,0,1-.874.643l-1.038.1.767.671a1.06,1.06,0,0,1,.342,1.049l-.226,1,.892-.527a1.083,1.083,0,0,1,.549-.149m-2.887.115.038.033Zm5.772,0-.016.014.016-.014m1.047-3.564-.006.006Zm-7.869,0,.007.006-.007-.006m1.7-.127,0,.007Zm4.478,0,0,.007,0-.007m-3.079-2.088,0,.005Zm1.682,0v0l0,0m-.916-.394h0Z" transform="translate(-546.475 -637.13)" fill="#105489"/>
        <path id="Trazado_228349" data-name="Trazado 228349" d="M765.042,823.023l-1.252,2.888a.081.081,0,0,1-.067.048l-3.15.292a.08.08,0,0,0-.046.14l2.376,2.077a.079.079,0,0,1,.026.078l-.694,3.069a.081.081,0,0,0,.12.087l2.721-1.6a.081.081,0,0,1,.082,0l2.721,1.6a.081.081,0,0,0,.12-.087l-.694-3.069a.08.08,0,0,1,.025-.078l2.376-2.077a.08.08,0,0,0-.046-.14l-3.15-.292a.081.081,0,0,1-.067-.048l-1.252-2.888a.081.081,0,0,0-.148,0" transform="translate(-591.999 -640.633)" fill="#f9b564"/>
        <path id="Trazado_228350" data-name="Trazado 228350" d="M764.413,829.207a1.08,1.08,0,0,1-.545-.147l-2.258-1.333-2.254,1.331a1.078,1.078,0,0,1-1.6-1.166l.573-2.535-1.964-1.718a1.077,1.077,0,0,1,.612-1.884l2.608-.241,1.035-2.388a1.078,1.078,0,0,1,1.981,0l1.035,2.388,2.609.241a1.077,1.077,0,0,1,.606,1.886l-1.96,1.714.573,2.535a1.078,1.078,0,0,1-1.052,1.315m-5.127-5.663.767.671a1.068,1.068,0,0,1,.341,1.049l-.226,1,.893-.527a1.076,1.076,0,0,1,1.1,0l.894.527-.226-1a1.074,1.074,0,0,1,.35-1.057l.758-.663-1.023-.095a1.087,1.087,0,0,1-.891-.648l-.41-.946-.412.95a1.079,1.079,0,0,1-.871.643Zm-.553,2.165.017.015Zm5.763-.008-.016.014.016-.014m1.047-3.564-.006.006Zm-7.869,0,.007.006-.007-.006m1.7-.127,0,.007Zm4.478,0,0,.007,0-.007m-3.079-2.088,0,.005Zm1.682,0v.005l0-.005m-.916-.394h0Z" transform="translate(-588.494 -637.13)" fill="#105489"/>
        <path id="Trazado_228351" data-name="Trazado 228351" d="M819.023,823.023l-1.253,2.888a.081.081,0,0,1-.066.048l-3.15.292a.08.08,0,0,0-.046.14l2.376,2.077a.08.08,0,0,1,.026.078l-.694,3.069a.081.081,0,0,0,.12.087l2.72-1.6a.081.081,0,0,1,.083,0l2.72,1.6a.081.081,0,0,0,.12-.087l-.694-3.069a.08.08,0,0,1,.026-.078l2.376-2.077a.08.08,0,0,0-.046-.14l-3.15-.292a.081.081,0,0,1-.067-.048l-1.252-2.888a.081.081,0,0,0-.148,0" transform="translate(-634.02 -640.633)" fill="#f9b564"/>
        <path id="Trazado_228352" data-name="Trazado 228352" d="M818.4,829.207a1.08,1.08,0,0,1-.545-.147l-2.258-1.333-2.256,1.331a1.078,1.078,0,0,1-1.6-1.157l.576-2.544-1.964-1.718a1.077,1.077,0,0,1,.609-1.883l2.61-.241,1.037-2.391a1.078,1.078,0,0,1,1.979,0l1.036,2.388,2.61.241a1.077,1.077,0,0,1,.606,1.886l-1.96,1.715.574,2.535a1.078,1.078,0,0,1-1.052,1.315m-5.126-5.663.767.671a1.068,1.068,0,0,1,.341,1.049l-.226,1,.894-.527a1.075,1.075,0,0,1,1.1,0l.893.527-.226-1a1.071,1.071,0,0,1,.362-1.066l.747-.654-1.023-.095A1.087,1.087,0,0,1,816,822.8l-.41-.945-.411.949a1.079,1.079,0,0,1-.871.643Zm-.553,2.165.017.015Zm5.78-.023-.034.029c.012-.009.023-.019.034-.029m1.029-3.549-.007.006Zm-7.869,0,.007.006-.007-.006m1.7-.127,0,.007Zm4.477,0,0,.007a.024.024,0,0,0,0-.007m-3.079-2.088,0,.005Zm1.683,0v.005l0-.005m-.916-.394h0Z" transform="translate(-630.517 -637.13)" fill="#105489"/>
        <path id="Trazado_228353" data-name="Trazado 228353" d="M711.061,902.931l-1.252,2.888a.081.081,0,0,1-.067.048l-3.15.292a.08.08,0,0,0-.046.14l2.376,2.077a.081.081,0,0,1,.025.078l-.694,3.069a.081.081,0,0,0,.12.087l2.721-1.6a.082.082,0,0,1,.083,0l2.721,1.6a.081.081,0,0,0,.12-.087l-.694-3.069a.081.081,0,0,1,.025-.078l2.376-2.077a.08.08,0,0,0-.046-.14l-3.15-.292a.081.081,0,0,1-.067-.048l-1.252-2.888a.081.081,0,0,0-.148,0" transform="translate(-549.979 -702.836)" fill="#f9b564"/>
        <path id="Trazado_228354" data-name="Trazado 228354" d="M710.434,909.114a1.079,1.079,0,0,1-.545-.147l-2.258-1.332-2.256,1.33a1.078,1.078,0,0,1-1.6-1.166l.574-2.535-1.964-1.718a1.077,1.077,0,0,1,.611-1.884l2.609-.241,1.036-2.389a1.078,1.078,0,0,1,1.979,0l1.035,2.388,2.61.241a1.077,1.077,0,0,1,.605,1.886l-1.96,1.714.574,2.535a1.078,1.078,0,0,1-1.052,1.315m-2.8-3.621a1.073,1.073,0,0,1,.547.149l.894.527-.226-1a1.077,1.077,0,0,1,.338-1.046l.77-.674-1.023-.095a1.074,1.074,0,0,1-.887-.64l-.413-.954-.412.95a1.077,1.077,0,0,1-.9.645l-1.017.094.767.671a1.07,1.07,0,0,1,.342,1.049l-.226,1,.893-.526a1.081,1.081,0,0,1,.548-.149m-2.876.125.013.012Zm6.808-3.573-.006.006Zm-7.869,0,.007.006-.007-.006m2.45-.671h0Zm2.967,0h0m-2.322-1.547,0,0Zm1.682,0h0Zm-.915-.395h0Z" transform="translate(-546.475 -699.332)" fill="#105489"/>
        <path id="Trazado_228355" data-name="Trazado 228355" d="M765.042,902.931l-1.252,2.888a.081.081,0,0,1-.067.048l-3.15.292a.08.08,0,0,0-.046.14l2.376,2.077a.079.079,0,0,1,.026.078l-.694,3.069a.081.081,0,0,0,.12.087l2.721-1.6a.082.082,0,0,1,.082,0l2.721,1.6a.081.081,0,0,0,.12-.087l-.694-3.069a.08.08,0,0,1,.025-.078L769.7,906.3a.08.08,0,0,0-.046-.14l-3.15-.292a.081.081,0,0,1-.067-.048l-1.252-2.888a.081.081,0,0,0-.148,0" transform="translate(-591.999 -702.836)" fill="#f9b564"/>
        <path id="Trazado_228356" data-name="Trazado 228356" d="M764.413,909.114a1.079,1.079,0,0,1-.545-.147l-2.258-1.332-2.256,1.33a1.078,1.078,0,0,1-1.6-1.166l.573-2.535-1.964-1.718a1.077,1.077,0,0,1,.612-1.884l2.608-.241,1.035-2.388a1.078,1.078,0,0,1,1.981,0l1.035,2.388,2.609.241a1.077,1.077,0,0,1,.606,1.886l-1.96,1.714.573,2.535a1.078,1.078,0,0,1-1.052,1.315m-5.127-5.663.767.671a1.079,1.079,0,0,1,.341,1.049l-.226,1,.894-.527a1.075,1.075,0,0,1,1.1,0l.894.527-.226-1a1.077,1.077,0,0,1,.338-1.046l.77-.674-1.023-.095a1.074,1.074,0,0,1-.887-.64l-.413-.954-.412.95a1.079,1.079,0,0,1-.893.645Zm5.484,1.279v0Zm.772-2.685-.006.006Zm-7.869,0,.007.006-.007-.006m2.451-.671h0Zm2.967,0h0m-2.322-1.547,0,0Zm.766-.4h0Z" transform="translate(-588.494 -699.332)" fill="#105489"/>
        <path id="Trazado_228357" data-name="Trazado 228357" d="M819.023,902.931l-1.253,2.888a.081.081,0,0,1-.066.048l-3.15.292a.08.08,0,0,0-.046.14l2.376,2.077a.08.08,0,0,1,.026.078l-.694,3.069a.081.081,0,0,0,.12.087l2.72-1.6a.083.083,0,0,1,.083,0l2.72,1.6a.081.081,0,0,0,.12-.087l-.694-3.069a.08.08,0,0,1,.026-.078l2.376-2.077a.08.08,0,0,0-.046-.14l-3.15-.292a.081.081,0,0,1-.067-.048l-1.252-2.888a.081.081,0,0,0-.148,0" transform="translate(-634.02 -702.836)" fill="#f9b564"/>
        <path id="Trazado_228358" data-name="Trazado 228358" d="M818.4,909.114a1.079,1.079,0,0,1-.545-.147l-2.258-1.332-2.256,1.33a1.078,1.078,0,0,1-1.6-1.157l.576-2.544-1.964-1.718a1.077,1.077,0,0,1,.609-1.883l2.61-.241,1.037-2.391a1.078,1.078,0,0,1,1.979,0l1.035,2.388,2.61.241a1.077,1.077,0,0,1,.606,1.886l-1.96,1.715.574,2.535a1.078,1.078,0,0,1-1.052,1.315m-5.126-5.663.767.671a1.08,1.08,0,0,1,.341,1.049l-.226,1,.894-.527a1.073,1.073,0,0,1,1.1,0l.893.526-.226-1a1.073,1.073,0,0,1,.349-1.055l.76-.665-1.023-.095a1.072,1.072,0,0,1-.887-.64l-.414-.954-.411.95a1.079,1.079,0,0,1-.893.645Zm5.207,2.16-.014.012.014-.012m1.049-3.566-.007.006Zm-7.869,0,.007.006-.007-.006m2.451-.671h0Zm2.965,0h0m-2.321-1.547,0,.005Zm1.683,0v0m-.916-.395h0Z" transform="translate(-630.517 -699.332)" fill="#105489"/>
        <path id="Trazado_228359" data-name="Trazado 228359" d="M711.061,982.838l-1.252,2.888a.081.081,0,0,1-.067.048l-3.15.292a.08.08,0,0,0-.046.14l2.376,2.077a.08.08,0,0,1,.025.078l-.694,3.069a.081.081,0,0,0,.12.087l2.721-1.6a.082.082,0,0,1,.083,0l2.721,1.6a.081.081,0,0,0,.12-.087l-.694-3.069a.08.08,0,0,1,.025-.078l2.376-2.077a.08.08,0,0,0-.046-.14l-3.15-.292a.08.08,0,0,1-.067-.048l-1.252-2.888a.081.081,0,0,0-.148,0" transform="translate(-549.979 -765.039)" fill="#f9b564"/>
        <path id="Trazado_228360" data-name="Trazado 228360" d="M710.435,989.023a1.08,1.08,0,0,1-.545-.147l-2.258-1.332-2.256,1.33a1.078,1.078,0,0,1-1.6-1.166l.574-2.535-1.964-1.718a1.077,1.077,0,0,1,.611-1.884l2.609-.241,1.037-2.391h0a1.078,1.078,0,0,1,1.977,0l1.037,2.391,2.61.242a1.077,1.077,0,0,1,.611,1.882l-1.966,1.718.574,2.535a1.078,1.078,0,0,1-1.051,1.315m-2.8-3.621a1.074,1.074,0,0,1,.547.149l.894.527-.226-1a1.077,1.077,0,0,1,.338-1.046l.77-.673-1.023-.1a1.074,1.074,0,0,1-.887-.64l-.413-.954-.412.95a1.077,1.077,0,0,1-.9.645l-1.017.095.767.67a1.07,1.07,0,0,1,.342,1.049l-.226,1,.893-.526a1.081,1.081,0,0,1,.548-.149m-2.876.125.013.012Zm1.39-4.246h0Zm2.967,0h0" transform="translate(-546.476 -761.537)" fill="#105489"/>
        <path id="Trazado_228361" data-name="Trazado 228361" d="M765.042,982.838l-1.252,2.888a.081.081,0,0,1-.067.048l-3.15.292a.08.08,0,0,0-.046.14l2.376,2.077a.079.079,0,0,1,.026.078l-.694,3.069a.081.081,0,0,0,.12.087l2.721-1.6a.082.082,0,0,1,.082,0l2.721,1.6a.081.081,0,0,0,.12-.087l-.694-3.069a.08.08,0,0,1,.025-.078l2.376-2.077a.08.08,0,0,0-.046-.14l-3.15-.292a.081.081,0,0,1-.067-.048l-1.252-2.888a.081.081,0,0,0-.148,0" transform="translate(-591.999 -765.039)" fill="#f9b564"/>
        <path id="Trazado_228362" data-name="Trazado 228362" d="M764.415,989.023a1.079,1.079,0,0,1-.545-.147l-2.258-1.332-2.256,1.33a1.078,1.078,0,0,1-1.6-1.166l.573-2.535-1.964-1.716a1.078,1.078,0,0,1,.611-1.884l2.608-.241,1.037-2.391h0a1.079,1.079,0,0,1,1.978,0l1.037,2.391,2.609.242a1.077,1.077,0,0,1,.612,1.882l-1.965,1.718.573,2.535a1.078,1.078,0,0,1-1.052,1.315m-5.127-5.662.767.67a1.08,1.08,0,0,1,.341,1.049l-.226,1,.894-.527a1.075,1.075,0,0,1,1.1,0l.894.527-.226-1a1.077,1.077,0,0,1,.338-1.046l.77-.673-1.023-.1a1.074,1.074,0,0,1-.887-.64l-.413-.954-.412.95a1.079,1.079,0,0,1-.893.645Zm5.484,1.278v0Zm-4.646-3.359h0Zm2.967,0h0m-.641-1.546h0" transform="translate(-588.496 -761.537)" fill="#105489"/>
        <path id="Trazado_228363" data-name="Trazado 228363" d="M711.061,1062.747l-1.252,2.888a.081.081,0,0,1-.067.048l-3.15.292a.08.08,0,0,0-.046.14l2.376,2.077a.081.081,0,0,1,.025.078l-.694,3.069a.081.081,0,0,0,.12.087l2.721-1.6a.082.082,0,0,1,.083,0l2.721,1.6a.081.081,0,0,0,.12-.087l-.694-3.069a.081.081,0,0,1,.025-.078l2.376-2.077a.08.08,0,0,0-.046-.14l-3.15-.292a.081.081,0,0,1-.067-.048l-1.252-2.888a.081.081,0,0,0-.148,0" transform="translate(-549.979 -827.242)" fill="#f9b564"/>
        <path id="Trazado_228364" data-name="Trazado 228364" d="M704.83,1068.931a1.078,1.078,0,0,1-1.052-1.316l.574-2.535-1.964-1.718a1.077,1.077,0,0,1,.611-1.884l2.609-.241,1.035-2.388a1.078,1.078,0,0,1,1.98,0l1.035,2.387,2.61.242a1.077,1.077,0,0,1,.611,1.882l-1.966,1.718.574,2.536a1.077,1.077,0,0,1-1.6,1.163l-2.252-1.328-2.256,1.33a1.064,1.064,0,0,1-.546.151m-.463-1.87-.007,0Zm6.527,0,.006,0-.006,0m-3.262-1.75a1.074,1.074,0,0,1,.547.149l.894.527-.226-1a1.077,1.077,0,0,1,.338-1.046l.77-.673-1.023-.1a1.073,1.073,0,0,1-.891-.648l-.41-.945-.412.949a1.074,1.074,0,0,1-.9.645l-1.017.095.767.67a1.07,1.07,0,0,1,.342,1.049l-.226,1,.893-.527a1.082,1.082,0,0,1,.548-.149m-2.876.125.013.012Zm.636-3.7,0,.008Zm4.478,0,0,.007,0-.007m-3.724-.541h0Zm2.967,0h0m-2.322-1.546,0,.005Zm1.683,0v0l0,0m-.916-.394h0Z" transform="translate(-546.476 -823.739)" fill="#105489"/>
        <path id="Trazado_228365" data-name="Trazado 228365" d="M873,823.023l-1.252,2.888a.081.081,0,0,1-.067.048l-3.15.292a.08.08,0,0,0-.046.14l2.376,2.077a.079.079,0,0,1,.026.078l-.694,3.069a.081.081,0,0,0,.12.087l2.721-1.6a.081.081,0,0,1,.082,0l2.721,1.6a.081.081,0,0,0,.12-.087l-.694-3.069a.08.08,0,0,1,.025-.078l2.376-2.077a.08.08,0,0,0-.046-.14l-3.15-.292a.081.081,0,0,1-.067-.048l-1.252-2.888a.081.081,0,0,0-.148,0" transform="translate(-676.042 -640.633)" fill="#f9b564"/>
        <path id="Trazado_228366" data-name="Trazado 228366" d="M872.378,829.207a1.08,1.08,0,0,1-.545-.147l-2.258-1.333-2.255,1.331a1.078,1.078,0,0,1-1.6-1.166l.573-2.535-1.964-1.718a1.077,1.077,0,0,1,.611-1.884l2.608-.241,1.036-2.389a1.078,1.078,0,0,1,1.98,0l1.035,2.388,2.61.241a1.076,1.076,0,0,1,.605,1.886l-1.96,1.714.574,2.535a1.078,1.078,0,0,1-1.052,1.315m-2.8-3.621a1.075,1.075,0,0,1,.547.149l.894.527-.226-1a1.073,1.073,0,0,1,.35-1.057l.758-.663-1.023-.095a1.087,1.087,0,0,1-.891-.648l-.41-.945-.412.949a1.079,1.079,0,0,1-.874.643l-1.038.1.767.671a1.06,1.06,0,0,1,.342,1.049l-.226,1,.892-.527a1.082,1.082,0,0,1,.549-.149m-2.887.115.038.033Zm5.773,0-.016.014.016-.014m1.047-3.564-.006.006Zm-7.869,0,.007.006-.007-.006m1.7-.127,0,.007Zm4.478,0,0,.007s0,0,0-.007m-3.079-2.088,0,.005Zm1.682,0v0l0,0m-.916-.394h0Z" transform="translate(-672.538 -637.13)" fill="#105489"/>
        <path id="Trazado_228367" data-name="Trazado 228367" d="M481.581,552.081h-5.512a2.431,2.431,0,0,1-2.428-2.428v-2.78a16.568,16.568,0,0,1-2.3-.955l-1.967,1.966a2.486,2.486,0,0,1-3.433,0l-3.9-3.9a2.427,2.427,0,0,1,0-3.434L464,538.586a16.643,16.643,0,0,1-.954-2.3h-2.78a2.431,2.431,0,0,1-2.428-2.428v-5.513a2.431,2.431,0,0,1,2.428-2.428h2.78a16.554,16.554,0,0,1,.955-2.3l-1.966-1.966a2.427,2.427,0,0,1,0-3.433l3.9-3.9a2.431,2.431,0,0,1,3.433,0l1.967,1.966a16.623,16.623,0,0,1,2.3-.954v-2.78a2.431,2.431,0,0,1,2.428-2.428h5.512a2.431,2.431,0,0,1,2.428,2.428v2.78a16.579,16.579,0,0,1,2.3.955l1.966-1.967a2.432,2.432,0,0,1,3.432,0l3.9,3.9a2.427,2.427,0,0,1,0,3.433l-1.966,1.966a16.576,16.576,0,0,1,.955,2.3h2.78a2.431,2.431,0,0,1,2.428,2.428v5.513a2.431,2.431,0,0,1-2.428,2.428H494.6a16.66,16.66,0,0,1-.954,2.3l1.965,1.966a2.427,2.427,0,0,1,0,3.434l-3.9,3.9a2.485,2.485,0,0,1-3.433,0l-1.967-1.966a16.569,16.569,0,0,1-2.3.955v2.78a2.431,2.431,0,0,1-2.428,2.428m-10.292-8.209a1.788,1.788,0,0,1,.822.2,14.511,14.511,0,0,0,2.286.948,1.758,1.758,0,0,1,1.237,1.677v2.953a.435.435,0,0,0,.434.434h5.512a.434.434,0,0,0,.434-.434V546.7a1.757,1.757,0,0,1,1.239-1.677,14.532,14.532,0,0,0,2.283-.947,1.76,1.76,0,0,1,2.063.311l2.089,2.089a.434.434,0,0,0,.613,0l3.9-3.9a.434.434,0,0,0,0-.614l-2.089-2.089a1.759,1.759,0,0,1-.311-2.061,14.585,14.585,0,0,0,.947-2.285,1.76,1.76,0,0,1,1.677-1.238h2.954a.434.434,0,0,0,.434-.434v-5.513a.434.434,0,0,0-.434-.434h-2.954a1.76,1.76,0,0,1-1.677-1.237,14.527,14.527,0,0,0-.947-2.285,1.761,1.761,0,0,1,.311-2.062l2.089-2.089a.435.435,0,0,0,0-.613l-3.9-3.9a.433.433,0,0,0-.614,0l-2.088,2.089a1.76,1.76,0,0,1-2.062.311,14.622,14.622,0,0,0-2.286-.947,1.761,1.761,0,0,1-1.237-1.677v-2.954a.434.434,0,0,0-.434-.434h-5.512a.434.434,0,0,0-.434.434V515.5a1.76,1.76,0,0,1-1.237,1.677,14.6,14.6,0,0,0-2.286.947,1.76,1.76,0,0,1-2.061-.311l-2.089-2.09a.434.434,0,0,0-.614,0l-3.9,3.9a.435.435,0,0,0,0,.613l2.089,2.089a1.759,1.759,0,0,1,.31,2.063,14.55,14.55,0,0,0-.947,2.284,1.758,1.758,0,0,1-1.677,1.237h-2.954a.434.434,0,0,0-.434.434v5.513a.434.434,0,0,0,.434.434h2.954a1.757,1.757,0,0,1,1.677,1.239,14.649,14.649,0,0,0,.947,2.284,1.755,1.755,0,0,1-.311,2.061l-2.089,2.089a.435.435,0,0,0,0,.614l3.9,3.9a.434.434,0,0,0,.613,0l2.089-2.09a1.749,1.749,0,0,1,1.239-.513m7.536-3.973a8.8,8.8,0,1,1,8.8-8.8,8.81,8.81,0,0,1-8.8,8.8m0-15.607a6.806,6.806,0,1,0,6.807,6.807,6.814,6.814,0,0,0-6.807-6.807" transform="translate(-356.401 -397.095)" fill="#fff"/>
      </g>
    </g>
  </g>
</svg>
