<svg xmlns="http://www.w3.org/2000/svg" xmlns:xlink="http://www.w3.org/1999/xlink" width="266.489" height="232.671" viewBox="0 0 266.489 232.671">
  <defs>
    <clipPath id="clip-path">
      <rect id="Rectángulo_48292" data-name="Rectángulo 48292" width="266.489" height="232.671" fill="none"/>
    </clipPath>
    <clipPath id="clip-path-2">
      <rect id="Rectángulo_48291" data-name="Rectángulo 48291" width="266.488" height="232.671" fill="none"/>
    </clipPath>
    <clipPath id="clip-path-3">
      <rect id="Rectángulo_48223" data-name="Rectángulo 48223" width="73.046" height="2.094" fill="none"/>
    </clipPath>
    <clipPath id="clip-path-4">
      <rect id="Rectángulo_48225" data-name="Rectángulo 48225" width="31.839" height="4.757" fill="none"/>
    </clipPath>
    <clipPath id="clip-path-5">
      <rect id="Rectángulo_48229" data-name="Rectángulo 48229" width="7.547" height="58.411" fill="none"/>
    </clipPath>
    <clipPath id="clip-path-6">
      <rect id="Rectángulo_48231" data-name="Rectángulo 48231" width="7.547" height="40.594" fill="none"/>
    </clipPath>
    <clipPath id="clip-path-7">
      <rect id="Rectángulo_48233" data-name="Rectángulo 48233" width="7.546" height="45.756" fill="none"/>
    </clipPath>
    <clipPath id="clip-path-8">
      <rect id="Rectángulo_48235" data-name="Rectángulo 48235" width="7.547" height="47.555" fill="none"/>
    </clipPath>
    <clipPath id="clip-path-9">
      <rect id="Rectángulo_48237" data-name="Rectángulo 48237" width="7.547" height="33.455" fill="none"/>
    </clipPath>
    <clipPath id="clip-path-10">
      <rect id="Rectángulo_48239" data-name="Rectángulo 48239" width="7.547" height="44.949" fill="none"/>
    </clipPath>
    <clipPath id="clip-path-11">
      <rect id="Rectángulo_48241" data-name="Rectángulo 48241" width="7.547" height="31.238" fill="none"/>
    </clipPath>
    <clipPath id="clip-path-12">
      <rect id="Rectángulo_48243" data-name="Rectángulo 48243" width="7.546" height="35.21" fill="none"/>
    </clipPath>
    <clipPath id="clip-path-13">
      <rect id="Rectángulo_48245" data-name="Rectángulo 48245" width="7.547" height="36.595" fill="none"/>
    </clipPath>
    <clipPath id="clip-path-14">
      <rect id="Rectángulo_48247" data-name="Rectángulo 48247" width="7.547" height="25.745" fill="none"/>
    </clipPath>
    <clipPath id="clip-path-15">
      <rect id="Rectángulo_48249" data-name="Rectángulo 48249" width="102.043" height="13.097" fill="none"/>
    </clipPath>
    <clipPath id="clip-path-16">
      <rect id="Rectángulo_48251" data-name="Rectángulo 48251" width="65.679" height="3.357" fill="none"/>
    </clipPath>
    <clipPath id="clip-path-20">
      <rect id="Rectángulo_48274" data-name="Rectángulo 48274" width="21.08" height="26.48" fill="none"/>
    </clipPath>
    <clipPath id="clip-path-21">
      <rect id="Rectángulo_48275" data-name="Rectángulo 48275" width="16.956" height="22.131" fill="none"/>
    </clipPath>
    <clipPath id="clip-path-22">
      <rect id="Rectángulo_48277" data-name="Rectángulo 48277" width="3.344" height="3.35" fill="none"/>
    </clipPath>
    <clipPath id="clip-path-23">
      <rect id="Rectángulo_48279" data-name="Rectángulo 48279" width="15.919" height="15.918" fill="none"/>
    </clipPath>
    <clipPath id="clip-path-24">
      <rect id="Rectángulo_48281" data-name="Rectángulo 48281" width="31.054" height="2.163" fill="none"/>
    </clipPath>
    <clipPath id="clip-path-25">
      <rect id="Rectángulo_48283" data-name="Rectángulo 48283" width="20.957" height="2.163" fill="none"/>
    </clipPath>
    <clipPath id="clip-path-26">
      <rect id="Rectángulo_48285" data-name="Rectángulo 48285" width="27.894" height="2.163" fill="none"/>
    </clipPath>
    <clipPath id="clip-path-27">
      <rect id="Rectángulo_48286" data-name="Rectángulo 48286" width="45.105" height="45.1" fill="none"/>
    </clipPath>
    <clipPath id="clip-path-28">
      <rect id="Rectángulo_48287" data-name="Rectángulo 48287" width="38.699" height="39.118" fill="none"/>
    </clipPath>
    <clipPath id="clip-path-29">
      <rect id="Rectángulo_48288" data-name="Rectángulo 48288" width="33.415" height="33.824" fill="none"/>
    </clipPath>
    <clipPath id="clip-path-30">
      <rect id="Rectángulo_48289" data-name="Rectángulo 48289" width="47.899" height="47.892" fill="none"/>
    </clipPath>
  </defs>
  <g id="Grupo_117833" data-name="Grupo 117833" transform="translate(-943.511 -10406.814)">
    <g id="Grupo_114140" data-name="Grupo 114140" transform="translate(943.511 10406.814)">
      <g id="Grupo_114139" data-name="Grupo 114139" clip-path="url(#clip-path)">
        <g id="Grupo_114138" data-name="Grupo 114138" transform="translate(0 0)">
          <g id="Grupo_114137" data-name="Grupo 114137" clip-path="url(#clip-path-2)">
            <path id="Trazado_224230" data-name="Trazado 224230" d="M1241.457,425.53a28.148,28.148,0,1,0,34.213-20.348,28.18,28.18,0,0,0-34.213,20.348m6.952.816h0a21.229,21.229,0,0,1,40.657,12.234h0a21.229,21.229,0,0,1-40.657-12.234" transform="translate(-1048.795 -341.805)" fill="#eefbff"/>
            <path id="Trazado_224231" data-name="Trazado 224231" d="M1120.051,323.87c.133.672.741.907,2.242,1.5,2.686,1.065,5.373,2.131,8.019,3.289a1.866,1.866,0,0,1,.884,1.3c.306,2.812.442,5.643.776,8.45a1.533,1.533,0,0,1-.763,1.824c-3.126,1.964-6.2,4.016-9.253,6.012.765,3.278,4.614,10.646,6.672,12.707,3.242-1.364,6.576-2.708,9.851-4.18a1.778,1.778,0,0,1,2.39.442,74,74,0,0,0,6.292,5.251c.879.671,1.348,1.2,1.063,2.406-.739,3.134-1.287,6.312-1.972,9.459-.184.846-.023,1.375.812,1.633q5.893,1.824,11.788,3.642c.966.3,1.115-.5,1.356-1.064,1.221-2.878,2.457-5.752,3.58-8.669a2.022,2.022,0,0,1,2.177-1.493c3.149-.1,6.291-.4,9.677-.642l6.488,9.851a42.156,42.156,0,0,0,12.566-6.767l-4.443-10.674c2.331-2.953,4.551-5.64,6.607-8.448a1.589,1.589,0,0,1,1.955-.75c3.1.681,6.221,1.265,9.326,1.925.671.143,1.164.169,1.507-.565a40.319,40.319,0,0,0,3.7-11.594,1.268,1.268,0,0,0-.951-1.58c-3.02-1.247-6.017-2.553-9.042-3.788a1.472,1.472,0,0,1-1.106-1.5c-.231-3.1-.6-6.2-1.039-9.275a1.251,1.251,0,0,1,.69-1.457c3.084-2.031,6.153-4.085,9.306-6.184a45.227,45.227,0,0,0-6.563-12.494l-11.124,4.63-9.093-7.542c.556-2.772,1.219-5.962,1.828-9.161.5-2.626.877-2.281-1.761-3.388a4.439,4.439,0,0,1-.7-.457l-7.079-2.13a8.752,8.752,0,0,1-1.65-.2c-1.351-.428-2.111-.121-2.65,1.326-1.121,3.015-2.433,5.961-3.736,8.9a1.71,1.71,0,0,1-1.155.841c-2.761.349-5.56.46-8.292.952a2.091,2.091,0,0,1-2.559-1.167c-1.871-2.956-3.863-5.835-6-9.036l-12.536,6.582c.328.832.509,1.314.707,1.789,1.22,2.929,2.413,5.87,3.685,8.777a1.6,1.6,0,0,1-.388,1.961c-1.942,2.307-3.734,4.739-5.661,7.06a1.886,1.886,0,0,1-1.505.531c-2.564-.446-5.1-1.033-7.659-1.529-2.068-.4-2.837-.544-3.492.131Zm18.538-.289a29.146,29.146,0,1,1,3.2,22.076,28.955,28.955,0,0,1-3.2-22.076" transform="translate(-946.894 -240.103)" fill="#eefbff"/>
            <path id="Trazado_224232" data-name="Trazado 224232" d="M37.177,485.931c.43.335.918.16,2.131-.264,2.169-.758,4.34-1.516,6.534-2.2a1.483,1.483,0,0,1,1.211.324c1.648,1.531,3.2,3.163,4.866,4.677a1.22,1.22,0,0,1,.491,1.494c-.857,2.808-1.635,5.64-2.434,8.432,2.166,1.573,8.316,4,10.626,4.167,1.239-2.508,2.544-5.051,3.747-7.641a1.414,1.414,0,0,1,1.667-.978,58.857,58.857,0,0,0,6.517-.117c.878-.054,1.433.018,1.891.893,1.187,2.269,2.512,4.465,3.738,6.714.329.6.7.839,1.338.56q4.493-1.971,8.984-3.946c.736-.323.412-.878.261-1.346-.765-2.366-1.517-4.738-2.36-7.076a1.608,1.608,0,0,1,.532-2.031c1.842-1.7,3.573-3.517,5.484-5.424l9.029,2.545a33.529,33.529,0,0,0,4.033-10.61L97.235,470c-.135-2.989-.2-5.76-.425-8.519a1.264,1.264,0,0,1,.785-1.469c2.218-1.2,4.4-2.478,6.609-3.7.478-.264.787-.5.612-1.124a32.064,32.064,0,0,0-3.807-8.9,1.008,1.008,0,0,0-1.395-.455c-2.465.822-4.947,1.6-7.409,2.429a1.171,1.171,0,0,1-1.448-.328c-1.753-1.745-3.583-3.415-5.453-5.036a1,1,0,0,1-.343-1.235c.8-2.827,1.573-5.659,2.376-8.562a35.962,35.962,0,0,0-10.45-4.1l-4.279,8.574-9.393.2c-1.109-1.956-2.37-4.219-3.67-6.46-1.066-1.839-.66-1.828-2.823-1.12a3.538,3.538,0,0,1-.657.088l-5.365,2.4a6.981,6.981,0,0,1-1.1.736,1.444,1.444,0,0,0-.9,2.176c.895,2.4,1.64,4.85,2.388,7.3a1.36,1.36,0,0,1-.257,1.107c-1.478,1.647-3.1,3.171-4.49,4.889a1.663,1.663,0,0,1-2.146.631c-2.663-.8-5.36-1.5-8.313-2.308l-4.111,10.484c.63.33.99.525,1.356.708,2.258,1.126,4.506,2.273,6.784,3.359a1.268,1.268,0,0,1,.787,1.381c.034,2.4.222,4.793.271,7.191a1.5,1.5,0,0,1-.628,1.1c-1.774,1.067-3.606,2.036-5.4,3.068-1.452.835-1.989,1.15-2.031,1.9Zm11-9.824a23.179,23.179,0,1,1,13.414,11.609,23.027,23.027,0,0,1-13.414-11.609" transform="translate(-26.862 -362.686)" fill="#013d5d"/>
            <path id="Trazado_224233" data-name="Trazado 224233" d="M208.643,297.255l.985-1.809-.927-1.839a.283.283,0,0,1,.3-.406l2.02.381,1.458-1.453a.282.282,0,0,1,.479.165l.263,2.044,1.828.941a.284.284,0,0,1-.008.508l-1.857.882-.328,2.034a.282.282,0,0,1-.484.149l-1.411-1.5-2.031.316a.283.283,0,0,1-.291-.416" transform="translate(-176.358 -246.897)" fill="#ffc359"/>
            <path id="Trazado_224234" data-name="Trazado 224234" d="M1038.644,53.255l.985-1.808-.927-1.839a.283.283,0,0,1,.3-.406l2.02.381,1.458-1.453a.282.282,0,0,1,.479.165l.263,2.044,1.828.942a.284.284,0,0,1-.008.508l-1.857.882-.328,2.034a.282.282,0,0,1-.484.149l-1.411-1.5-2.031.316a.283.283,0,0,1-.291-.416" transform="translate(-878.042 -40.619)" fill="#ffc359"/>
            <path id="Trazado_224235" data-name="Trazado 224235" d="M903.985,353.171l.841-1.366-.676-.274a.289.289,0,1,1,.217-.535l.779.316.752-1.227-.722-.293a.289.289,0,0,1,.217-.535l.825.335.873-1.405a.289.289,0,0,1,.354-.115l.126.051a.289.289,0,0,1,.138.418l-.812,1.326,1.2.485.873-1.4a.289.289,0,0,1,.354-.115l.137.056a.289.289,0,0,1,.138.418l-.812,1.326.675.274a.289.289,0,0,1-.217.535l-.779-.316-.741,1.232.722.293a.289.289,0,0,1-.217.535l-.825-.335-.892,1.449a.289.289,0,0,1-.354.116l-.147-.06a.289.289,0,0,1-.137-.419l.841-1.366-1.2-.485-.892,1.449a.289.289,0,0,1-.355.116l-.147-.06a.289.289,0,0,1-.137-.419m3.048-1.095.752-1.227-1.2-.485-.752,1.227Z" transform="translate(-764.195 -294.242)" fill="#3ed5fc"/>
            <path id="Trazado_224236" data-name="Trazado 224236" d="M825.078,444.6l-1.139,6.053c.1.307.391.387,1.122.59,1.307.364,2.615.727,3.908,1.136a.876.876,0,0,1,.478.565c.283,1.3.487,2.613.784,3.907a.72.72,0,0,1-.265.89c-1.361,1.073-2.693,2.184-4.021,3.268a18.977,18.977,0,0,0,3.749,5.6c1.446-.8,2.935-1.592,4.391-2.443a.835.835,0,0,1,1.138.087,34.728,34.728,0,0,0,3.2,2.138c.444.269.689.492.616,1.07-.189,1.5-.286,3.011-.45,4.515-.044.4.057.643.46.722q2.842.558,5.685,1.113c.466.091.5-.287.58-.565.426-1.4.861-2.808,1.24-4.226a.949.949,0,0,1,.942-.806c1.465-.2,2.917-.5,4.487-.782l3.52,4.276a19.794,19.794,0,0,0,5.53-3.785l-2.606-4.762c.941-1.5,1.844-2.86,2.664-4.274a.747.747,0,0,1,.875-.448c1.481.164,2.968.281,4.45.434.321.033.552.021.676-.339a18.932,18.932,0,0,0,1.152-5.6.6.6,0,0,0-.523-.691c-1.472-.432-2.937-.892-4.411-1.318a.691.691,0,0,1-.592-.647c-.262-1.436-.587-2.863-.947-4.279a.588.588,0,0,1,.25-.715c1.339-1.1,2.669-2.214,4.037-3.351a21.234,21.234,0,0,0-3.687-5.507l-4.963,2.716-4.621-3.068c.121-1.322.272-2.844.4-4.368.1-1.251.3-1.108-.991-1.494a2.09,2.09,0,0,1-.348-.179l-3.411-.642a4.122,4.122,0,0,1-.78-.013c-.652-.132-.992.049-1.171.751-.373,1.463-.839,2.9-1.3,4.343a.8.8,0,0,1-.5.45c-1.272.3-2.573.492-3.824.858a.982.982,0,0,1-1.253-.417c-1.021-1.287-2.095-2.532-3.253-3.92l-5.525,3.7c.195.372.3.588.419.8.715,1.307,1.419,2.62,2.158,3.914a.749.749,0,0,1-.083.935c-.792,1.174-1.508,2.4-2.291,3.578a.885.885,0,0,1-.676.323c-1.219-.08-2.434-.228-3.652-.332-.986-.085-1.352-.113-1.624.235m11.252,5.1a9.968,9.968,0,1,1,7.953,11.64A9.968,9.968,0,0,1,836.33,449.7Z" transform="translate(-696.56 -362.968)" fill="#ffc359"/>
            <path id="Trazado_224237" data-name="Trazado 224237" d="M753.189,10.414l-.777,4.132c.065.21.267.264.766.4.892.248,1.785.5,2.668.776a.6.6,0,0,1,.326.386c.193.886.333,1.783.535,2.667a.491.491,0,0,1-.181.607c-.929.732-1.838,1.491-2.745,2.231a12.951,12.951,0,0,0,2.559,3.823c.987-.545,2-1.087,3-1.667a.57.57,0,0,1,.777.06,23.8,23.8,0,0,0,2.184,1.46c.3.184.47.335.421.731-.129,1.024-.2,2.056-.307,3.082-.03.276.039.439.314.493l3.881.76c.318.062.338-.2.4-.385.291-.959.588-1.917.846-2.885a.648.648,0,0,1,.643-.55c1-.139,1.992-.342,3.063-.534l2.4,2.919a13.5,13.5,0,0,0,3.775-2.584l-1.779-3.251c.643-1.021,1.259-1.953,1.819-2.917a.509.509,0,0,1,.6-.305c1.011.112,2.026.192,3.038.3.219.023.377.014.461-.231a12.929,12.929,0,0,0,.787-3.821.406.406,0,0,0-.357-.472c-1.005-.295-2-.609-3.011-.9a.472.472,0,0,1-.4-.442c-.179-.981-.4-1.955-.647-2.921a.4.4,0,0,1,.171-.488c.914-.753,1.822-1.512,2.756-2.288a14.5,14.5,0,0,0-2.517-3.759L775.26,6.693,772.1,4.6c.083-.9.186-1.942.271-2.982.07-.854.2-.757-.677-1.02a1.416,1.416,0,0,1-.237-.122L769.133.036A2.8,2.8,0,0,1,768.6.027c-.445-.09-.677.033-.8.513-.255,1-.573,1.983-.888,2.965a.548.548,0,0,1-.339.307c-.868.205-1.757.336-2.611.586a.67.67,0,0,1-.855-.285c-.7-.878-1.43-1.728-2.221-2.676l-3.772,2.524c.133.254.207.4.286.546.488.892.969,1.789,1.473,2.672a.511.511,0,0,1-.057.638c-.54.8-1.029,1.637-1.564,2.443a.6.6,0,0,1-.462.221c-.832-.055-1.662-.156-2.493-.227-.673-.058-.923-.077-1.109.161m7.682,3.478a6.8,6.8,0,1,1,5.429,7.946A6.8,6.8,0,0,1,760.871,13.893Z" transform="translate(-636.091 0.001)" fill="#4873ff"/>
            <path id="Trazado_224238" data-name="Trazado 224238" d="M606.319,262.555l3.584.432-1.529-2.782Z" transform="translate(-512.584 -219.978)" fill="#3ed5fc"/>
            <path id="Trazado_224239" data-name="Trazado 224239" d="M698.419,508.26a2.5,2.5,0,0,0,2.084,2.52,2.456,2.456,0,0,0,2.673-1.672c.812-2.174-1.567-3.888-2.857-2.573-1.2,1.228-.823,3.052.477,3.053.49,0,1.28-.411.966-1.006a.2.2,0,0,0-.34,0c-.158.269-.145.278-.22.338a.669.669,0,0,1-.426.123c-1.324-.023-.444-3.051,1.117-2.317a1.746,1.746,0,0,1,.812,2.227,1.994,1.994,0,0,1-1.943,1.4,2.282,2.282,0,0,1-2.02-2.089.162.162,0,0,0-.324,0" transform="translate(-590.438 -427.837)" fill="#6393ff"/>
            <path id="Trazado_224240" data-name="Trazado 224240" d="M1114.025,222.081l1.072.46s1.789-.4,1.989-.735.317-1.185.567-1.186a.764.764,0,0,1,.791.718c.049.432-.677,1.6-.589,1.739a6.17,6.17,0,0,0,1.111.568.867.867,0,0,1,.513.736h0a.462.462,0,0,1-.335.475l-.326.092.075.333a.462.462,0,0,1-.345.552l-.251.059.063.2a.462.462,0,0,1-.354.589l-.219.042,0,.057a.462.462,0,0,1-.385.49l-.217.036-2.854-1.226a2.135,2.135,0,0,1-.709-.5l-.932-.6a.241.241,0,0,1-.09-.3l1.108-2.488a.24.24,0,0,1,.314-.123" transform="translate(-940.58 -186.513)" fill="#6393ff"/>
            <path id="Trazado_224241" data-name="Trazado 224241" d="M478.025,128.081l1.072.46s1.789-.4,1.989-.735.317-1.185.567-1.186a.764.764,0,0,1,.791.718c.049.432-.677,1.6-.589,1.739a6.165,6.165,0,0,0,1.111.568.867.867,0,0,1,.513.737h0a.462.462,0,0,1-.335.475l-.326.092.075.333a.462.462,0,0,1-.345.552l-.251.059.063.2a.462.462,0,0,1-.354.589l-.219.042,0,.057a.462.462,0,0,1-.385.49l-.217.036-2.854-1.226a2.136,2.136,0,0,1-.709-.5l-.933-.6a.242.242,0,0,1-.09-.3l1.108-2.488a.24.24,0,0,1,.314-.123" transform="translate(-402.905 -107.045)" fill="#6393ff"/>
            <path id="Trazado_224242" data-name="Trazado 224242" d="M801.57,560.332H782.2a3.589,3.589,0,0,0-3.589,3.589v6.345a3.589,3.589,0,0,0,3.589,3.589H801.57a3.589,3.589,0,0,0,3.589-3.589v-6.345a3.589,3.589,0,0,0-3.589-3.589" transform="translate(-658.244 -473.706)" fill="#3190c1"/>
            <path id="Trazado_224243" data-name="Trazado 224243" d="M648.987,1422.541,628.477,1432v2.094h73.046V1432l-20.7-9.454Z" transform="translate(-531.316 -1202.62)" fill="#3190c1"/>
            <rect id="Rectángulo_48221" data-name="Rectángulo 48221" width="31.852" height="40.539" transform="translate(117.672 179.4)" fill="#3190c1"/>
            <path id="Trazado_224244" data-name="Trazado 224244" d="M432.355,699.8V608.382a7.865,7.865,0,0,0-7.864-7.865H247.246a7.864,7.864,0,0,0-7.864,7.865V699.8Z" transform="translate(-202.374 -507.678)" fill="#3190c1"/>
            <g id="Grupo_114055" data-name="Grupo 114055" transform="translate(97.161 229.375)" opacity="0.3" style="mix-blend-mode: multiply;isolation: isolate">
              <g id="Grupo_114054" data-name="Grupo 114054">
                <g id="Grupo_114053" data-name="Grupo 114053" clip-path="url(#clip-path-3)">
                  <rect id="Rectángulo_48222" data-name="Rectángulo 48222" width="73.046" height="2.094" transform="translate(0 0)" fill="#013d5d"/>
                </g>
              </g>
            </g>
            <g id="Grupo_114058" data-name="Grupo 114058" transform="translate(117.672 215.164)" opacity="0.3" style="mix-blend-mode: multiply;isolation: isolate">
              <g id="Grupo_114057" data-name="Grupo 114057">
                <g id="Grupo_114056" data-name="Grupo 114056" clip-path="url(#clip-path-4)">
                  <rect id="Rectángulo_48224" data-name="Rectángulo 48224" width="31.839" height="4.757" transform="translate(0)" fill="#013d5d"/>
                </g>
              </g>
            </g>
            <path id="Trazado_224245" data-name="Trazado 224245" d="M239.382,1242.692v14.649c0,3.047,2.014,5.517,4.5,5.517H427.856c2.485,0,4.5-2.47,4.5-5.517v-14.649Z" transform="translate(-202.374 -1050.575)" fill="#013d5d"/>
            <path id="Trazado_224246" data-name="Trazado 224246" d="M857.459,573.766a1.792,1.792,0,1,1-1.792-1.792,1.792,1.792,0,0,1,1.792,1.792" transform="translate(-721.869 -483.548)" fill="#013d5d"/>
            <path id="Trazado_224247" data-name="Trazado 224247" d="M452.539,717.534v-87.2a4.215,4.215,0,0,0-4.288-4.139H272.888a4.215,4.215,0,0,0-4.288,4.139v87.2Z" transform="translate(-227.075 -529.387)" fill="#dff0f4"/>
            <rect id="Rectángulo_48226" data-name="Rectángulo 48226" width="110.556" height="77.143" transform="translate(49.603 103.848)" fill="#eefbff"/>
            <rect id="Rectángulo_48227" data-name="Rectángulo 48227" width="110.556" height="9.032" transform="translate(49.603 103.848)" fill="#3ed5fc"/>
            <g id="Grupo_114061" data-name="Grupo 114061" transform="translate(199.502 123.148)" opacity="0.6">
              <g id="Grupo_114060" data-name="Grupo 114060">
                <g id="Grupo_114059" data-name="Grupo 114059" clip-path="url(#clip-path-5)">
                  <rect id="Rectángulo_48228" data-name="Rectángulo 48228" width="7.546" height="58.411" transform="translate(0.001)" fill="#7be0fd"/>
                </g>
              </g>
            </g>
            <g id="Grupo_114064" data-name="Grupo 114064" transform="translate(188.963 140.965)" opacity="0.6">
              <g id="Grupo_114063" data-name="Grupo 114063">
                <g id="Grupo_114062" data-name="Grupo 114062" clip-path="url(#clip-path-6)">
                  <rect id="Rectángulo_48230" data-name="Rectángulo 48230" width="7.546" height="40.594" transform="translate(0.001 0)" fill="#7be0fd"/>
                </g>
              </g>
            </g>
            <g id="Grupo_114067" data-name="Grupo 114067" transform="translate(210.194 135.803)" opacity="0.6">
              <g id="Grupo_114066" data-name="Grupo 114066">
                <g id="Grupo_114065" data-name="Grupo 114065" clip-path="url(#clip-path-7)">
                  <rect id="Rectángulo_48232" data-name="Rectángulo 48232" width="7.546" height="45.756" transform="translate(-0.001)" fill="#7be0fd"/>
                </g>
              </g>
            </g>
            <g id="Grupo_114070" data-name="Grupo 114070" transform="translate(178.424 134.004)" opacity="0.6">
              <g id="Grupo_114069" data-name="Grupo 114069">
                <g id="Grupo_114068" data-name="Grupo 114068" clip-path="url(#clip-path-8)">
                  <rect id="Rectángulo_48234" data-name="Rectángulo 48234" width="7.546" height="47.555" transform="translate(0.001 0)" fill="#7be0fd"/>
                </g>
              </g>
            </g>
            <g id="Grupo_114073" data-name="Grupo 114073" transform="translate(167.885 148.104)" opacity="0.6">
              <g id="Grupo_114072" data-name="Grupo 114072">
                <g id="Grupo_114071" data-name="Grupo 114071" clip-path="url(#clip-path-9)">
                  <rect id="Rectángulo_48236" data-name="Rectángulo 48236" width="7.546" height="33.455" transform="translate(0.001)" fill="#7be0fd"/>
                </g>
              </g>
            </g>
            <g id="Grupo_114076" data-name="Grupo 114076" transform="translate(199.502 136.61)" opacity="0.3" style="mix-blend-mode: multiply;isolation: isolate">
              <g id="Grupo_114075" data-name="Grupo 114075">
                <g id="Grupo_114074" data-name="Grupo 114074" clip-path="url(#clip-path-10)">
                  <rect id="Rectángulo_48238" data-name="Rectángulo 48238" width="7.546" height="44.949" transform="translate(0.001 0)" fill="#3190c1"/>
                </g>
              </g>
            </g>
            <g id="Grupo_114079" data-name="Grupo 114079" transform="translate(188.963 150.321)" opacity="0.3" style="mix-blend-mode: multiply;isolation: isolate">
              <g id="Grupo_114078" data-name="Grupo 114078">
                <g id="Grupo_114077" data-name="Grupo 114077" clip-path="url(#clip-path-11)">
                  <rect id="Rectángulo_48240" data-name="Rectángulo 48240" width="7.546" height="31.238" transform="translate(0.001)" fill="#3190c1"/>
                </g>
              </g>
            </g>
            <g id="Grupo_114082" data-name="Grupo 114082" transform="translate(210.194 146.349)" opacity="0.3" style="mix-blend-mode: multiply;isolation: isolate">
              <g id="Grupo_114081" data-name="Grupo 114081">
                <g id="Grupo_114080" data-name="Grupo 114080" clip-path="url(#clip-path-12)">
                  <rect id="Rectángulo_48242" data-name="Rectángulo 48242" width="7.546" height="35.21" transform="translate(-0.001 0)" fill="#3190c1"/>
                </g>
              </g>
            </g>
            <g id="Grupo_114085" data-name="Grupo 114085" transform="translate(178.424 144.964)" opacity="0.3" style="mix-blend-mode: multiply;isolation: isolate">
              <g id="Grupo_114084" data-name="Grupo 114084">
                <g id="Grupo_114083" data-name="Grupo 114083" clip-path="url(#clip-path-13)">
                  <rect id="Rectángulo_48244" data-name="Rectángulo 48244" width="7.546" height="36.595" transform="translate(0.001)" fill="#3190c1"/>
                </g>
              </g>
            </g>
            <g id="Grupo_114088" data-name="Grupo 114088" transform="translate(167.885 155.814)" opacity="0.3" style="mix-blend-mode: multiply;isolation: isolate">
              <g id="Grupo_114087" data-name="Grupo 114087">
                <g id="Grupo_114086" data-name="Grupo 114086" clip-path="url(#clip-path-14)">
                  <rect id="Rectángulo_48246" data-name="Rectángulo 48246" width="7.546" height="25.745" transform="translate(0.001)" fill="#3190c1"/>
                </g>
              </g>
            </g>
            <g id="Grupo_114091" data-name="Grupo 114091" transform="translate(53.417 116.599)" opacity="0.6">
              <g id="Grupo_114090" data-name="Grupo 114090">
                <g id="Grupo_114089" data-name="Grupo 114089" clip-path="url(#clip-path-15)">
                  <rect id="Rectángulo_48248" data-name="Rectángulo 48248" width="102.043" height="13.097" fill="#7be0fd"/>
                </g>
              </g>
            </g>
            <g id="Grupo_114094" data-name="Grupo 114094" transform="translate(89.781 133.416)" opacity="0.6">
              <g id="Grupo_114093" data-name="Grupo 114093">
                <g id="Grupo_114092" data-name="Grupo 114092" clip-path="url(#clip-path-16)">
                  <rect id="Rectángulo_48250" data-name="Rectángulo 48250" width="65.679" height="3.357" transform="translate(0 0)" fill="#7be0fd"/>
                </g>
              </g>
            </g>
            <rect id="Rectángulo_48252" data-name="Rectángulo 48252" width="32.31" height="38.74" transform="translate(53.417 133.416)" fill="#3190c1"/>
            <g id="Grupo_114097" data-name="Grupo 114097" transform="translate(89.781 140.493)" opacity="0.6">
              <g id="Grupo_114096" data-name="Grupo 114096">
                <g id="Grupo_114095" data-name="Grupo 114095" clip-path="url(#clip-path-16)">
                  <rect id="Rectángulo_48253" data-name="Rectángulo 48253" width="65.679" height="3.357" transform="translate(0 0)" fill="#7be0fd"/>
                </g>
              </g>
            </g>
            <g id="Grupo_114100" data-name="Grupo 114100" transform="translate(89.781 161.723)" opacity="0.6">
              <g id="Grupo_114099" data-name="Grupo 114099">
                <g id="Grupo_114098" data-name="Grupo 114098" clip-path="url(#clip-path-16)">
                  <rect id="Rectángulo_48255" data-name="Rectángulo 48255" width="65.679" height="3.357" transform="translate(0)" fill="#7be0fd"/>
                </g>
              </g>
            </g>
            <g id="Grupo_114103" data-name="Grupo 114103" transform="translate(89.781 168.799)" opacity="0.6">
              <g id="Grupo_114102" data-name="Grupo 114102">
                <g id="Grupo_114101" data-name="Grupo 114101" clip-path="url(#clip-path-16)">
                  <rect id="Rectángulo_48257" data-name="Rectángulo 48257" width="65.679" height="3.357" transform="translate(0)" fill="#7be0fd"/>
                </g>
              </g>
            </g>
            <path id="Trazado_224248" data-name="Trazado 224248" d="M38.061,952.245l61.344-.11a1.668,1.668,0,0,1,1.671,1.665l.145,80.832a1.668,1.668,0,0,1-1.665,1.671l-61.344.11a1.668,1.668,0,0,1-1.671-1.665L36.4,953.916a1.668,1.668,0,0,1,1.665-1.671" transform="translate(-30.769 -804.936)" fill="#6393ff"/>
            <rect id="Rectángulo_48259" data-name="Rectángulo 48259" width="57.947" height="79.007" transform="translate(8.994 149.654) rotate(-0.103)" fill="#fff"/>
            <path id="Trazado_224249" data-name="Trazado 224249" d="M186.722,941.615a.643.643,0,0,0-.645-.642l-24.331.044a.644.644,0,0,0-.642.645l0,2.529,25.617-.046Z" transform="translate(-136.199 -795.501)" fill="#013d5d"/>
            <path id="Trazado_224250" data-name="Trazado 224250" d="M222.969,921.226a3.837,3.837,0,1,0,3.844,3.83,3.837,3.837,0,0,0-3.844-3.83m.011,6.3a2.461,2.461,0,1,1,2.456-2.465,2.461,2.461,0,0,1-2.456,2.465" transform="translate(-185.261 -778.807)" fill="#013d5d"/>
            <path id="Trazado_224251" data-name="Trazado 224251" d="M186.354,941.3a.643.643,0,0,1,.394.592l0,2.529-25.617.046a3.172,3.172,0,0,0,3.178,3.167l19.273-.035a3.172,3.172,0,0,0,3.166-3.178l0-2.529a.643.643,0,0,0-.394-.592" transform="translate(-136.224 -795.774)" fill="#3190c1"/>
            <path id="Trazado_224252" data-name="Trazado 224252" d="M162.345,941.256h0a.643.643,0,0,0-.533.285.643.643,0,0,1,.533-.285" transform="translate(-136.796 -795.74)" fill="#9bc1f9"/>
            <path id="Trazado_224253" data-name="Trazado 224253" d="M161.29,943.555a.638.638,0,0,1,.049-.115.638.638,0,0,0-.049.115" transform="translate(-136.355 -797.586)" fill="#9bc1f9"/>
            <path id="Trazado_224254" data-name="Trazado 224254" d="M344.892,1073.057l-8.237.015-.015-8.237,8.237-.015Zm-7.9-.323,7.564-.014-.014-7.564-7.564.014Z" transform="translate(-284.596 -900.201)" fill="#013d5d"/>
            <path id="Trazado_224255" data-name="Trazado 224255" d="M345.052,1161.716l-8.237.015-.015-8.238,8.237-.015Zm-7.9-.323,7.564-.014-.014-7.564-7.564.014Z" transform="translate(-284.732 -975.154)" fill="#013d5d"/>
            <path id="Trazado_224256" data-name="Trazado 224256" d="M345.212,1250.376l-8.237.015-.015-8.237,8.237-.015Zm-7.9-.323,7.564-.014-.014-7.564-7.564.014Z" transform="translate(-284.867 -1050.107)" fill="#013d5d"/>
            <path id="Trazado_224257" data-name="Trazado 224257" d="M345.372,1339.035l-8.237.015-.015-8.237,8.237-.015Zm-7.9-.323,7.564-.014-.014-7.564-7.564.014Z" transform="translate(-285.002 -1125.06)" fill="#013d5d"/>
            <rect id="Rectángulo_48260" data-name="Rectángulo 48260" width="35.254" height="1.186" transform="translate(13.339 164.872) rotate(-0.103)" fill="#7be0fd"/>
            <rect id="Rectángulo_48261" data-name="Rectángulo 48261" width="35.254" height="1.186" transform="translate(13.345 168.229) rotate(-0.103)" fill="#7be0fd"/>
            <rect id="Rectángulo_48262" data-name="Rectángulo 48262" width="35.254" height="1.186" transform="translate(13.351 171.587) rotate(-0.103)" fill="#7be0fd"/>
            <rect id="Rectángulo_48263" data-name="Rectángulo 48263" width="35.254" height="1.186" transform="translate(13.365 179.046) rotate(-0.103)" fill="#7be0fd"/>
            <rect id="Rectángulo_48264" data-name="Rectángulo 48264" width="35.254" height="1.186" transform="translate(13.371 182.404) rotate(-0.103)" fill="#7be0fd"/>
            <rect id="Rectángulo_48265" data-name="Rectángulo 48265" width="35.254" height="1.186" transform="translate(13.377 185.761) rotate(-0.103)" fill="#7be0fd"/>
            <rect id="Rectángulo_48266" data-name="Rectángulo 48266" width="35.254" height="1.186" transform="matrix(1, -0.002, 0.002, 1, 13.389, 192.476)" fill="#7be0fd"/>
            <rect id="Rectángulo_48267" data-name="Rectángulo 48267" width="35.254" height="1.186" transform="matrix(1, -0.002, 0.002, 1, 13.395, 195.834)" fill="#7be0fd"/>
            <rect id="Rectángulo_48268" data-name="Rectángulo 48268" width="35.254" height="1.186" transform="matrix(1, -0.002, 0.002, 1, 13.401, 199.192)" fill="#7be0fd"/>
            <rect id="Rectángulo_48269" data-name="Rectángulo 48269" width="35.254" height="1.186" transform="translate(13.413 205.907) rotate(-0.103)" fill="#7be0fd"/>
            <rect id="Rectángulo_48270" data-name="Rectángulo 48270" width="35.254" height="1.186" transform="translate(13.419 209.264) rotate(-0.103)" fill="#7be0fd"/>
            <rect id="Rectángulo_48271" data-name="Rectángulo 48271" width="35.254" height="1.186" transform="matrix(1, -0.002, 0.002, 1, 13.425, 212.622)" fill="#7be0fd"/>
            <rect id="Rectángulo_48272" data-name="Rectángulo 48272" width="40.671" height="1.186" transform="translate(13.441 221.302) rotate(-0.103)" fill="#7be0fd"/>
            <rect id="Rectángulo_48273" data-name="Rectángulo 48273" width="48.691" height="1.186" transform="matrix(1, -0.002, 0.002, 1, 13.446, 224.175)" fill="#7be0fd"/>
            <path id="Trazado_224258" data-name="Trazado 224258" d="M349.126,1064.606l-2.558-4.389.915-.534,1.485,2.547,2.424-5.815.978.408Z" transform="translate(-292.989 -893.097)" fill="#fe544e"/>
            <path id="Trazado_224259" data-name="Trazado 224259" d="M349.288,1154.427l-2.558-4.389.915-.534,1.485,2.547,2.424-5.815.978.408Z" transform="translate(-293.126 -969.031)" fill="#fe544e"/>
            <path id="Trazado_224260" data-name="Trazado 224260" d="M349.6,1330.038l-2.558-4.389.915-.534,1.485,2.547,2.424-5.815.978.408Z" transform="translate(-293.393 -1117.493)" fill="#fe544e"/>
            <path id="Trazado_224261" data-name="Trazado 224261" d="M350.913,1251.316l-.738-.744-2.1,2.086-2.112-2.078-.735.747,2.1,2.069-2.1,2.076.738.744,2.1-2.086,2.112,2.078.735-.747-2.1-2.069Z" transform="translate(-291.852 -1057.236)" fill="#fe544e"/>
            <g id="Grupo_114106" data-name="Grupo 114106" transform="translate(9.091 202.157)" opacity="0.3" style="mix-blend-mode: multiply;isolation: isolate">
              <g id="Grupo_114105" data-name="Grupo 114105">
                <g id="Grupo_114104" data-name="Grupo 114104" clip-path="url(#clip-path-20)">
                  <path id="Trazado_224262" data-name="Trazado 224262" d="M64.677,1307.632a15.15,15.15,0,0,0-5.871,1.185l0,1.931a13.427,13.427,0,0,1,13.148,23.365l2.891-.005q.312-.28.61-.579a15.181,15.181,0,0,0-10.781-25.9" transform="translate(-58.806 -1307.632)" fill="#7be0fd"/>
                </g>
              </g>
            </g>
            <g id="Grupo_114109" data-name="Grupo 114109" transform="translate(9.1 206.272)" opacity="0.3" style="mix-blend-mode: multiply;isolation: isolate">
              <g id="Grupo_114108" data-name="Grupo 114108">
                <g id="Grupo_114107" data-name="Grupo 114107" clip-path="url(#clip-path-21)">
                  <path id="Trazado_224263" data-name="Trazado 224263" d="M64.73,1334.253a11,11,0,0,0-5.871,1.7l0,1.051a10.19,10.19,0,1,1,.03,16.644l0,1.051a11.064,11.064,0,1,0,5.837-20.449" transform="translate(-58.859 -1334.253)" fill="#7be0fd"/>
                </g>
              </g>
            </g>
            <path id="Trazado_224264" data-name="Trazado 224264" d="M157.382,1017.859v-3.947h-1.573v-.345h3.642v.345h-1.573v3.947Z" transform="translate(-131.721 -856.871)" fill="#013d5d"/>
            <path id="Trazado_224265" data-name="Trazado 224265" d="M188.1,1017.513v.345h-3.157v-4.292h3.046v.345h-2.553v1.5h1.849v.345h-1.849v1.753Z" transform="translate(-156.35 -856.871)" fill="#013d5d"/>
            <path id="Trazado_224266" data-name="Trazado 224266" d="M208.615,1016.451l.427-.142a1.585,1.585,0,0,0,.551.678,1.476,1.476,0,0,0,.824.219,1.322,1.322,0,0,0,.81-.229.718.718,0,0,0,.307-.6.652.652,0,0,0-.2-.492,1.845,1.845,0,0,0-.683-.353q-.262-.084-.695-.2a4.34,4.34,0,0,1-.555-.177,1.507,1.507,0,0,1-.546-.383.781.781,0,0,1-.162-.5,1,1,0,0,1,.406-.84,1.815,1.815,0,0,1,1.117-.306,1.976,1.976,0,0,1,1.044.251,1.573,1.573,0,0,1,.627.771l-.417.108a1.4,1.4,0,0,0-.508-.592,1.436,1.436,0,0,0-.767-.192,1.163,1.163,0,0,0-.717.206.641.641,0,0,0-.275.537.562.562,0,0,0,.178.421,1.315,1.315,0,0,0,.551.279q.144.044.417.119a5.754,5.754,0,0,1,1.009.34,1.493,1.493,0,0,1,.526.419.9.9,0,0,1,.163.538,1.069,1.069,0,0,1-.44.9,1.926,1.926,0,0,1-1.191.334,2.1,2.1,0,0,1-1.111-.267,1.807,1.807,0,0,1-.691-.833" transform="translate(-176.364 -856.49)" fill="#013d5d"/>
            <path id="Trazado_224267" data-name="Trazado 224267" d="M235.394,1017.859v-3.947h-1.573v-.345h3.642v.345H235.89v3.947Z" transform="translate(-197.673 -856.871)" fill="#013d5d"/>
            <rect id="Rectángulo_48276" data-name="Rectángulo 48276" width="0.492" height="4.292" transform="translate(40.731 156.695)" fill="#013d5d"/>
            <path id="Trazado_224268" data-name="Trazado 224268" d="M276.836,1013.877v3.982h-.478v-4.292h.8l2.546,3.622v-3.622h.478v4.292h-.524Z" transform="translate(-233.634 -856.872)" fill="#013d5d"/>
            <path id="Trazado_224269" data-name="Trazado 224269" d="M311.147,1016.933a1.684,1.684,0,0,1-.628.425,2.328,2.328,0,0,1-.844.141,1.928,1.928,0,0,1-1.5-.57,2.875,2.875,0,0,1,.011-3.306,2.236,2.236,0,0,1,2.636-.274,1.8,1.8,0,0,1,.632.969l-.464.078a1.546,1.546,0,0,0-.494-.766,1.316,1.316,0,0,0-.824-.247,1.35,1.35,0,0,0-1.11.48,2.1,2.1,0,0,0-.391,1.363,2.226,2.226,0,0,0,.4,1.437,1.436,1.436,0,0,0,1.18.484,1.521,1.521,0,0,0,.948-.274.867.867,0,0,0,.359-.724v-.459h-1.322v-.322h1.853v2.046h-.435Z" transform="translate(-260.09 -856.427)" fill="#013d5d"/>
            <path id="Trazado_224270" data-name="Trazado 224270" d="M779.518,258.67l-.6,6.293,4.33-3.41,13.363-7.45-10.5,1.347s-5.318,1.5-5.6,1.772a13.055,13.055,0,0,0-.995,1.449" transform="translate(-658.496 -214.818)" fill="#013d5d"/>
            <path id="Trazado_224271" data-name="Trazado 224271" d="M751.764,255.058l21.891-.955-17.09,4.568Z" transform="translate(-635.543 -214.819)" fill="#3190c1"/>
            <path id="Trazado_224272" data-name="Trazado 224272" d="M797.54,264.715l-5.9-4.4,15.727-6.213Z" transform="translate(-669.25 -214.818)" fill="#3190c1"/>
            <path id="Trazado_224273" data-name="Trazado 224273" d="M590.505,331.413a13.926,13.926,0,0,1,.229-1.507c.1-.459.217-.923.359-1.378l.492.154c-.138.439-.254.886-.347,1.329a13.445,13.445,0,0,0-.221,1.451q-.021.213-.034.426l-.515-.033c.01-.15.022-.3.035-.442m1.939-5.98a19.6,19.6,0,0,1,1.909-2.778l.4.327a19.1,19.1,0,0,0-1.859,2.7Zm16.315-1.623-.091-.055.271-.439.075.045a.267.267,0,0,0,.052.015,2.379,2.379,0,0,0,1.426-.23,2.186,2.186,0,0,0,.8-.976l.472.21a2.728,2.728,0,0,1-.991,1.2,2.871,2.871,0,0,1-1.811.3.669.669,0,0,1-.2-.071m-12.088-3.6a26.9,26.9,0,0,1,2.62-2.108l.3.421a26.328,26.328,0,0,0-2.569,2.067Zm9.883-.352a6.276,6.276,0,0,1,.133-1.521,7.449,7.449,0,0,1,.229-.839l.489.164a6.892,6.892,0,0,0-.212.781,5.757,5.757,0,0,0-.122,1.4,4.768,4.768,0,0,0,.137.959l-.5.124a5.287,5.287,0,0,1-.151-1.063m2.382-2.716-.067-.029.2-.475.072.031a5.192,5.192,0,0,1,2.494,2.261l-.457.239a4.667,4.667,0,0,0-2.245-2.028m-6.562-.461a11.8,11.8,0,0,1,2.145-.577c.425-.036.815-.054,1.192-.057l0,.516c-.364,0-.74.02-1.152.055a10.658,10.658,0,0,0-2.019.55Zm6.2-2.157a11.543,11.543,0,0,1,2.478-2.32l.294.424a11.022,11.022,0,0,0-2.368,2.216Z" transform="translate(-499.185 -263.941)" fill="#eefbff"/>
            <path id="Trazado_224274" data-name="Trazado 224274" d="M743.463,300.916a9.977,9.977,0,0,1,1.617-.366l-.071-.511a10.475,10.475,0,0,0-1.7.385Z" transform="translate(-628.394 -253.654)" fill="#eefbff"/>
            <path id="Trazado_224275" data-name="Trazado 224275" d="M515.683,400.379c.221.009.827.212,1.714,1.887,1.132,2.14,2.787,8.6,2.787,8.6l-4.939,1.839-.634-1.349-1.045-10.386s2.056-.6,2.118-.595" transform="translate(-434.169 -338.481)" fill="#dff0f4"/>
            <path id="Trazado_224276" data-name="Trazado 224276" d="M437.13,394.352a30.169,30.169,0,0,1,6.529.932s1.192,10.241-1.073,18.023c-.507,1.742.419,7.221.419,7.221l-14.635-.193s1.734-13.246,1.081-15.386-.669-9.6-.669-9.6.1-.016,3.288-.567a33.115,33.115,0,0,1,5.06-.434" transform="translate(-362.145 -333.386)" fill="#eefbff"/>
            <path id="Trazado_224277" data-name="Trazado 224277" d="M451.254,686.625s.324,3.737.919,4.772-.031,2.794-.063,3.036-1.253.586-3.2.379-1.911-.656-1.755-1.38,1.191-1.656,1.253-2.346a18.01,18.01,0,0,0-.6-3.174Z" transform="translate(-377.974 -580.474)" fill="#f7a491"/>
            <path id="Trazado_224278" data-name="Trazado 224278" d="M439.988,542.468s10.1-.561,12.359.805-1.6,8.072-1.6,8.072-7.03-.324-20.8.471c-3.261.188-3.542-8.5-2.932-9.221s12.975-.127,12.975-.127" transform="translate(-360.779 -458.41)" fill="#6393ff"/>
            <path id="Trazado_224279" data-name="Trazado 224279" d="M448.021,722.425c-2-.213-1.753-1.2-1.592-1.942a6.611,6.611,0,0,1,1.017-1.539,3.333,3.333,0,0,0,1.338.651,5.007,5.007,0,0,0,2.927-.591,9.664,9.664,0,0,1,.267,2.58c-.032.249-1.957,1.054-3.958.841" transform="translate(-377.323 -607.798)" fill="#fe544e"/>
            <path id="Trazado_224280" data-name="Trazado 224280" d="M422.578,550.245c.4,3.054,2.4,18.259,2.4,18.259l-4.637.575s-5.7-19.846-5.41-22.882,2.427-3.291,2.427-3.291,4.15-.747,5.218,7.338" transform="translate(-350.776 -458.959)" fill="#4873ff"/>
            <path id="Trazado_224281" data-name="Trazado 224281" d="M417.523,408.106c1.368-.513,2.038,11.816,2.222,16.891a59.657,59.657,0,0,0,7.7-.077c.495-.037,1.635-.455,2.127-.519a4.92,4.92,0,0,1,1.209-.057,22.85,22.85,0,0,1,2.833,1.275c.268.281.992.99.87,1.3s-1.393-.854-1.393-.854l-.621-.348c.773.755,2.248,1.75,2.036,2.113s-1.538-.656-2.486-1.344c.813.734,1.824,2.049,1.591,2.254-.209.184-1.358-1.338-2.587-1.776-.455-.162-.909.287-1.267.342a2.573,2.573,0,0,1-.928.052l-1.33-.377c-.453.041-.464.309-.922.406-.531.113-1.4.232-2.079.4-3.895.952-5.194,1.394-6.386,1.393-3.612,0-3.822-19.852-.588-21.065" transform="translate(-351.046 -345)" fill="#f7a491"/>
            <path id="Trazado_224282" data-name="Trazado 224282" d="M412.664,413.38c-.256-5.2-.219-11.605,2.7-12.7,1.15-.431,3.177,2.162,2.812,12.8a21.891,21.891,0,0,1-5.507-.106" transform="translate(-348.784 -338.7)" fill="#dff0f4"/>
            <path id="Trazado_224283" data-name="Trazado 224283" d="M539.7,709.425a2.526,2.526,0,0,0-.143,2.174c.527.992,3.292,2.45,3.58,2.988a1.3,1.3,0,0,1,.175.918l-8.21-2.013.629-2.475.768-1.71Z" transform="translate(-452.38 -599.651)" fill="#f7a491"/>
            <path id="Trazado_224284" data-name="Trazado 224284" d="M538.232,721.481s-2.308.4-3.223-.33-.854-.864-1.191-.739c-.217.081-.547,1.066-.755,1.76a.675.675,0,0,0,.485.849l8.549,2.113c.65.125,1.079-.28.642-.8a7.736,7.736,0,0,0-.882-.821,29.731,29.731,0,0,0-3.624-2.03" transform="translate(-450.628 -609.003)" fill="#fe544e"/>
            <path id="Trazado_224285" data-name="Trazado 224285" d="M542.408,546c.653-1.374,2.138-3.164,4.752-2.086,2.493,1.028,3.161,3.554,2.375,6.141s-5.964,17.793-6.144,19.884l-4.134.027s.751-12.041.936-14.951A28.186,28.186,0,0,1,542.408,546" transform="translate(-455.889 -459.546)" fill="#4873ff"/>
            <path id="Trazado_224286" data-name="Trazado 224286" d="M455.893,468.616H442.075a.9.9,0,0,0-.834.561l-4.255,10.412h-7.618a.387.387,0,0,0,0,.773H451.05a1.513,1.513,0,0,0,1.381-.9l4.284-9.576a.9.9,0,0,0-.822-1.274" transform="translate(-362.663 -396.169)" fill="#fe544e"/>
            <path id="Trazado_224287" data-name="Trazado 224287" d="M546.735,502.322a.761.761,0,1,1-.57-1,.813.813,0,0,1,.57,1" transform="translate(-460.945 -423.812)" fill="#fff"/>
            <path id="Trazado_224288" data-name="Trazado 224288" d="M464.214,307.653a10.585,10.585,0,0,1-1.222-.489,6.139,6.139,0,0,0-1.394-.525,3.36,3.36,0,0,0-2.828.754c-.911.989-2.531.179-2.2,5.357.369,5.861,3.628,5.218,3.707,5.119s2.907-3.75,2.907-3.75.989,2.163.989,2.083,5.048-6.864.046-8.549" transform="translate(-385.946 -259.195)" fill="#013d5d"/>
            <path id="Trazado_224289" data-name="Trazado 224289" d="M471.964,364.281l.281,2.094s.63,3.017-.181,3.6-3.448-3.685-3.448-3.685l.279-5.307Z" transform="translate(-396.17 -305.176)" fill="#f7a491"/>
            <path id="Trazado_224290" data-name="Trazado 224290" d="M469.836,362.7a6.01,6.01,0,0,0,3.4,3.354l-.239-1.776-3.069-3.3Z" transform="translate(-397.201 -305.176)" fill="#f47458"/>
            <path id="Trazado_224291" data-name="Trazado 224291" d="M469.827,323.432a2.793,2.793,0,0,1,3.216,2.824,21.222,21.222,0,0,1-.235,2.686c-.374,2.418-2.023,4.547-3.114,4.357a5.241,5.241,0,0,1-3.352-5.716,4.625,4.625,0,0,1,3.485-4.151" transform="translate(-394.199 -273.4)" fill="#f7a491"/>
            <path id="Trazado_224292" data-name="Trazado 224292" d="M462.87,347.068a.813.813,0,1,1-.618-1.1.9.9,0,0,1,.618,1.1" transform="translate(-389.97 -292.474)" fill="#f7a491"/>
            <path id="Trazado_224293" data-name="Trazado 224293" d="M465.273,322.507s1.319.328,1.808-.521,2.239-2.678,4.464-1.92-1.958-1.845-2.135-1.845-2.313-.015-2.313-.015-1.646,1.354-1.706,1.5-.534,1.771-.534,1.771Z" transform="translate(-392.991 -269.013)" fill="#013d5d"/>
            <path id="Trazado_224294" data-name="Trazado 224294" d="M483.107,368.912l2.4.459a1.068,1.068,0,0,1-1.29.733c-1.294-.209-1.11-1.191-1.11-1.191" transform="translate(-408.412 -311.879)" fill="#fff"/>
            <path id="Trazado_224295" data-name="Trazado 224295" d="M650.2,1437.56s-.439,3.063-1.195,4.052a7.82,7.82,0,0,0-1.021,1.351,4,4,0,0,0,.138,3.089c.179.393-.013.392.4.518a2.5,2.5,0,0,0,3.009-1.42,7.249,7.249,0,0,0,.59-2.61,9.493,9.493,0,0,1,.989-4.2Z" transform="translate(-547.587 -1215.317)" fill="#f7a491"/>
            <path id="Trazado_224296" data-name="Trazado 224296" d="M746.479,1446.623a29.064,29.064,0,0,1,.051,4.577c-.118.6-.774,1.839-.473,2.4a1.517,1.517,0,0,0,.645.707l7.8.126c.425.007.144-.268-.2-.521a15.7,15.7,0,0,0-2.805-1.561c-.117-.057-.542-.329-.7-.423a5.411,5.411,0,0,1-1.116-.992c-.56-.627-.609-3.669-.609-3.669Z" transform="translate(-630.652 -1222.978)" fill="#f7a491"/>
            <path id="Trazado_224297" data-name="Trazado 224297" d="M747.907,1144.875s.983,5.609.337,9.286-3.742,37.76-3.742,37.76l-3.441.2s-.721-14.237-.592-16.217a30.831,30.831,0,0,1,1.15-5.293l-.342-11.495,4.342-15.1Z" transform="translate(-625.982 -967.148)" fill="#3ed5fc"/>
            <path id="Trazado_224298" data-name="Trazado 224298" d="M670.572,1135.018s-2.709,4.1-3.354,7.5.473,13.825-.768,18.273c-.672,2.408-3.218,6.126-3.6,9.237s-1.906,11.261-1.906,11.261l3.439.686,7.993-20.354,6.27-18.4,1.606-9.475Z" transform="translate(-558.76 -958.471)" fill="#7be0fd"/>
            <path id="Trazado_224299" data-name="Trazado 224299" d="M650.307,1474.028a3.836,3.836,0,0,1-3.771-1.585,4.178,4.178,0,0,0-.358,3.1c.308.677,1.21.657,1.921.684a1.854,1.854,0,0,0,1.7-1.049,6.3,6.3,0,0,0,.5-1.149" transform="translate(-546.138 -1244.807)" fill="#eefbff"/>
            <path id="Trazado_224300" data-name="Trazado 224300" d="M750.709,1480a7.026,7.026,0,0,1-4.442-.176,3.623,3.623,0,0,0-.357,1.868c.189.556.459.681.7.687,1.885.05,6.9.117,8.341.136a.236.236,0,0,0,.182-.388,37.666,37.666,0,0,0-4.422-2.128" transform="translate(-630.557 -1251.051)" fill="#eefbff"/>
            <path id="Trazado_224301" data-name="Trazado 224301" d="M773.176,1059.428c.144-.306-1.372-.722-1.421-1.051s1.983-.144,2.085-.418c.188-.505-2.213-.34-2.141-.578s2.539-.53,2.321-.974-2.527.57-2.563.281,2.232-.75,2.257-1.373c.013-.333-3.778,1.278-4.175,1.054s.628-1.691.32-1.956-1.638,2.8-1.878,2.893-5.443,1.662-7.212,1.923c-.149-.6-1.48-3.9-1.607-4.461-1.039.588-2.362-.12-3.426.4.535,1.887,1.737,8.1,2.217,8.383,1.462.852,9.155-3.211,10.427-3.931s1.923-.376,2.752-.559,1.9.668,2.045.362" transform="translate(-638.901 -891.389)" fill="#f38b80"/>
            <path id="Trazado_224302" data-name="Trazado 224302" d="M653.121,923.818c.387-1.759.766-3.529-.254-5.461a4.961,4.961,0,0,0-3.9-2.66c-4.68-.555-3.68,3.814-10.221,4.759a14.685,14.685,0,0,0-5.617,1.587c-3.064,1.825-4.221,4.753-2.189,9.523,4.976,11.68,16.882,1.53,18.7-.535a21.2,21.2,0,0,0,3.487-7.213" transform="translate(-532.535 -774.091)" fill="#013d5d"/>
            <path id="Trazado_224303" data-name="Trazado 224303" d="M709.951,1004.407a6.793,6.793,0,0,0-3.776,1.806c-1.413,1.537,2.285,13.9,2.542,15.854s-2.458,7.373-2.458,7.373,9.228,1.834,11.626.25c0,0,.211-15.125-.046-16.522a41.3,41.3,0,0,0-2.913-7.641c-.514-.559-4.975-1.118-4.975-1.118" transform="translate(-596.73 -849.128)" fill="#6393ff"/>
            <path id="Trazado_224304" data-name="Trazado 224304" d="M732.885,973.154s-.019.1-.052.284a27.02,27.02,0,0,1-1.187,4.483c-.5.945,1.714,3.958,3.847,3.59.635-.109-.537-2.769-.48-3.05.108-.539.254-1.275.4-2.029l.25-1.262c.228-1.152.414-2.095.414-2.095Z" transform="translate(-618.475 -822.639)" fill="#f7a491"/>
            <g id="Grupo_114112" data-name="Grupo 114112" transform="translate(114.262 150.435)" opacity="0.5">
              <g id="Grupo_114111" data-name="Grupo 114111">
                <g id="Grupo_114110" data-name="Grupo 114110" clip-path="url(#clip-path-22)">
                  <path id="Trazado_224305" data-name="Trazado 224305" d="M739.186,973.437c.033-.179.052-.284.052-.284l3.2-.08-.414,2.095-.249,1.255a3,3,0,0,1-1.525-.763,4.022,4.022,0,0,1-1.156-1.715c.039-.2.072-.375.1-.508" transform="translate(-739.089 -973.074)" fill="#f47458"/>
                </g>
              </g>
            </g>
            <path id="Trazado_224306" data-name="Trazado 224306" d="M734.439,924.459a3.771,3.771,0,0,0-2.247,1.4c-.944,1.219-1.961,4.987.384,7.035s4.662-.27,5.006-2.729.274-5.794-3.142-5.705" transform="translate(-618.107 -781.539)" fill="#f7a491"/>
            <path id="Trazado_224307" data-name="Trazado 224307" d="M770.358,950.517c-.148.593-.536.993-.867.894s-.48-.659-.332-1.252.536-.993.867-.894.48.659.332,1.252" transform="translate(-650.2 -802.498)" fill="#f7a491"/>
            <path id="Trazado_224308" data-name="Trazado 224308" d="M728.324,924.195s-3.062,3.515-4.5,3.681-1.628,2.07-1.628,2.07.515-4.387,1.94-5.233,4.19-.517,4.19-.517" transform="translate(-610.545 -781.263)" fill="#013d5d"/>
            <path id="Trazado_224309" data-name="Trazado 224309" d="M727.538,948.343c.117.636-.118,1.22-.526,1.3s-.833-.365-.95-1,.118-1.22.526-1.3.833.365.95,1" transform="translate(-613.79 -800.877)" fill="#f7a491"/>
            <path id="Trazado_224310" data-name="Trazado 224310" d="M721.52,1069.252l9.9,1.447a.545.545,0,0,1,.46.618l-1.931,13.2a.544.544,0,0,1-.617.46l-9.9-1.448a.544.544,0,0,1-.46-.617l1.931-13.2a.544.544,0,0,1,.617-.46" transform="translate(-607.815 -903.943)" fill="#013d5d"/>
            <path id="Trazado_224311" data-name="Trazado 224311" d="M759.121,1069.445a.11.11,0,0,0-.093-.125l-4.127-.6a.11.11,0,0,0-.125.093l-.063.429,4.346.636Z" transform="translate(-638.035 -903.495)" fill="#dff0f4"/>
            <path id="Trazado_224312" data-name="Trazado 224312" d="M765.652,1067.264a.658.658,0,1,0,.556.746.658.658,0,0,0-.556-.746m-.156,1.068a.422.422,0,1,1,.478-.356.422.422,0,0,1-.478.356" transform="translate(-646.647 -902.261)" fill="#dff0f4"/>
            <path id="Trazado_224313" data-name="Trazado 224313" d="M759.037,1072.2a.11.11,0,0,1,.052.11l-.063.429-4.346-.636a.544.544,0,0,0,.459.617l3.269.478a.544.544,0,0,0,.617-.459l.063-.429a.11.11,0,0,0-.052-.11" transform="translate(-638.004 -906.356)" fill="#eefbff"/>
            <path id="Trazado_224314" data-name="Trazado 224314" d="M751.146,969.187l-2.227-.012a.974.974,0,0,0,1.026.88c1.194.041,1.2-.868,1.2-.868" transform="translate(-633.138 -819.343)" fill="#fff"/>
            <path id="Trazado_224315" data-name="Trazado 224315" d="M690.494,1091.12l3.585.366s-.058,3.043,0,3.393c0,0,6.131,1.7,8.693,2.16,0,0,1.167-.661,1.638-.871a11.435,11.435,0,0,1,2.021-.476c.281-.037.185.271-.056.378a2.335,2.335,0,0,0-1.041.761,1.95,1.95,0,0,0,.774-.064c.268-.12.637-.372.643-.5s.067-.447.155-.43c.022,0,.052.108.082.216s.059.209.084.313c.045.187.1.459.117.582a8.466,8.466,0,0,1-.149,1.324c-.044.5-.186.722-.45.849a6.527,6.527,0,0,1-1.541.312,10.362,10.362,0,0,1-2.83-.28c-.489-.055-8.3-.829-8.3-.829s-3.1-.447-3.31-.981-.123-6.219-.123-6.219" transform="translate(-583.732 -922.435)" fill="#f7a491"/>
            <path id="Trazado_224316" data-name="Trazado 224316" d="M692.415,1012.913s-1.132.536-2.126,2.854c-.945,2.2-1.223,13.193-1.223,13.193l3.75-.625,1.906-5.125a9.4,9.4,0,0,0-.972-9.346c-.528-.723-1.014-1.159-1.335-.951" transform="translate(-582.538 -856.275)" fill="#6393ff"/>
            <g id="Grupo_114115" data-name="Grupo 114115" transform="translate(169.014 103.84)" opacity="0.6">
              <g id="Grupo_114114" data-name="Grupo 114114">
                <g id="Grupo_114113" data-name="Grupo 114113" clip-path="url(#clip-path-23)">
                  <rect id="Rectángulo_48278" data-name="Rectángulo 48278" width="15.918" height="15.918" transform="translate(0.001)" fill="#7be0fd"/>
                </g>
              </g>
            </g>
            <g id="Grupo_114118" data-name="Grupo 114118" transform="translate(187.749 103.84)" opacity="0.6">
              <g id="Grupo_114117" data-name="Grupo 114117">
                <g id="Grupo_114116" data-name="Grupo 114116" clip-path="url(#clip-path-24)">
                  <rect id="Rectángulo_48280" data-name="Rectángulo 48280" width="31.054" height="2.163" transform="translate(-0.001 0)" fill="#7be0fd"/>
                </g>
              </g>
            </g>
            <g id="Grupo_114121" data-name="Grupo 114121" transform="translate(187.749 108.425)" opacity="0.6">
              <g id="Grupo_114120" data-name="Grupo 114120">
                <g id="Grupo_114119" data-name="Grupo 114119" clip-path="url(#clip-path-25)">
                  <rect id="Rectángulo_48282" data-name="Rectángulo 48282" width="20.957" height="2.163" transform="translate(0)" fill="#7be0fd"/>
                </g>
              </g>
            </g>
            <g id="Grupo_114124" data-name="Grupo 114124" transform="translate(187.749 113.01)" opacity="0.6">
              <g id="Grupo_114123" data-name="Grupo 114123">
                <g id="Grupo_114122" data-name="Grupo 114122" clip-path="url(#clip-path-26)">
                  <rect id="Rectángulo_48284" data-name="Rectángulo 48284" width="27.894" height="2.163" transform="translate(0)" fill="#7be0fd"/>
                </g>
              </g>
            </g>
            <path id="Trazado_224317" data-name="Trazado 224317" d="M1372.642,1013.054c-.651-.529-5.683,1.679-5.619,2.448s-3.511,8.22-3.511,8.22l-6.178-4.926,0,0c-.055-.178-.64-2.094-.669-2.437-.03-.359-1.074-.989-1.559-.9s.415.7.474.812c.161.3-.461.418-.461.418s-1.764-.566-1.8-1.142-1.244,1.007-1.1,1.228,3.021,2.538,3.437,3.042c0,0,7.991,9.135,8.56,9.375.5.21,2.279-2.939,3.961-5.029s6.506-9.461,4.473-11.115" transform="translate(-1143.153 -856.37)" fill="#f7a491"/>
            <path id="Trazado_224318" data-name="Trazado 224318" d="M1585.159,1431.6s1.1,1.072,1.123,1.465.1,4.606-.351,5-1.765.672-1.342,1.115c.32.334,2.781.263,4.413.173.476-.026,1.073-3.826,1.262-4.384.274-.811.94-2.638.691-3.2a4.747,4.747,0,0,0-1.52-1.37,7.473,7.473,0,0,1-1.684-1.793Z" transform="translate(-1339.546 -1207.744)" fill="#f48c7f"/>
            <path id="Trazado_224319" data-name="Trazado 224319" d="M1492.545,1463.817s.983,2.776.984,2.783c.073.44.361,1.526.361,1.926,0,1.5-6.774-1.275-5.256-1.941a1.6,1.6,0,0,0,.614-1.053,3.517,3.517,0,0,0-.571-1.776Z" transform="translate(-1258.307 -1237.464)" fill="#f7a491"/>
            <path id="Trazado_224320" data-name="Trazado 224320" d="M1436.429,1129.758s-.494,4.977-.494,5.051c0,8.051-1.6,23.776-1.292,25.29.74,3.692,8.709,22.524,8.709,22.524l4.307-.515-4.623-22.758,1.076-8.866,2.922-17.94Z" transform="translate(-1212.818 -955.1)" fill="#6393ff"/>
            <path id="Trazado_224321" data-name="Trazado 224321" d="M1467.668,1138.044l.817,4.717,2.211,19.413,8.42,18.973s-1.184,2.761-2.932,3.148l-13.4-19.479-8.325-24.926.292-5.538Z" transform="translate(-1229.602 -958.984)" fill="#4873ff"/>
            <path id="Trazado_224322" data-name="Trazado 224322" d="M1435.3,981.872l5.972.609s.274-4.9.274-7.231c0-2.833-.241-6.483-.583-6.4a5.206,5.206,0,0,0-3.024,1.809c-2.664,3.661-2.639,11.218-2.639,11.218" transform="translate(-1213.403 -819.064)" fill="#3ed5fc"/>
            <path id="Trazado_224323" data-name="Trazado 224323" d="M1441.036,973.722c-.125.864-2.421,24.349-2.421,24.349,10.874,5.252,16.874.936,16.874.936s-.356-16.492.071-18.737c.282-1.485.634-11.354-.328-11.63a24.11,24.11,0,0,0-4.195-.891,40.139,40.139,0,0,0-7.351.091,11.661,11.661,0,0,0-2.65,5.882" transform="translate(-1216.209 -818.034)" fill="#7be0fd"/>
            <path id="Trazado_224324" data-name="Trazado 224324" d="M1586.969,1440.028s-2.531,7.126-3.521,7.47c-.263.091-1.525.323-1.764.881a2.413,2.413,0,0,0,0,.73h5.275s.667-3.14.931-4.519c0,0,1.4-3.371,1.241-3.677s-2.163-.885-2.163-.885" transform="translate(-1337.132 -1217.403)" fill="#013d5d"/>
            <path id="Trazado_224325" data-name="Trazado 224325" d="M1465.57,1484.41l-.776-2.45a6.74,6.74,0,0,1-2.444.574,24.717,24.717,0,0,1-2.4-.574c-3.251,1.07-5.915,1.59-5.431,2.45Z" transform="translate(-1229.603 -1252.852)" fill="#013d5d"/>
            <path id="Trazado_224326" data-name="Trazado 224326" d="M1425.9,1084.422a1.429,1.429,0,0,1-.164-.122c.193-2.3.158-4.531-.564-5.284l.34-.719c.837.647,1.235,2.367,1.078,5.158a4.751,4.751,0,0,1-.11.578c-.243.267-.463.439-.58.389" transform="translate(-1204.841 -911.594)" fill="#f7a491"/>
            <path id="Trazado_224327" data-name="Trazado 224327" d="M1487.03,937.547l.7,4.62s-2.56,5.5-4.088,5.024c-1.282-.4-.493-5.267-.493-5.267a13.332,13.332,0,0,0,.489-3.922c-.21-1.308,3.391-.454,3.391-.454" transform="translate(-1253.655 -792.373)" fill="#f7a491"/>
            <path id="Trazado_224328" data-name="Trazado 224328" d="M1487.137,938c-.21-1.308,3.391-.454,3.391-.454l.058.383a2.13,2.13,0,0,1-.391.644,4.741,4.741,0,0,1-3.148,1.425,7.133,7.133,0,0,0,.09-2" transform="translate(-1257.153 -792.373)" fill="#f47458"/>
            <path id="Trazado_224329" data-name="Trazado 224329" d="M1479.76,888.877c.1-.037.816,5.261-.539,6.719s-3.994,1.935-4.941.787c-1.047-1.27-.995-6.965,1.112-8.465s4.369.958,4.369.958" transform="translate(-1245.795 -750.238)" fill="#f7a491"/>
            <path id="Trazado_224330" data-name="Trazado 224330" d="M1480.308,872.057a5.85,5.85,0,0,1,3.07,1.751c.739.087,1.744.5,2.782,2.214a4.3,4.3,0,0,1-1.151,5.6,3.347,3.347,0,0,0-1.464,2.475l-.235-.686a3.833,3.833,0,0,1-.186-1.616,3.159,3.159,0,0,1,.24-.972c.357-.767-.767-1.276-1.083-1.914-.243-.491-.254-1.615-.637-2.427l-.457-.62a2.9,2.9,0,0,0-2.085-.589c-1.031.231-.883-3.643,1.206-3.217" transform="translate(-1249.909 -737.211)" fill="#fe544e"/>
            <path id="Trazado_224331" data-name="Trazado 224331" d="M1503.517,916.323c-.011.646.283,1.176.656,1.182s.685-.513.7-1.159-.283-1.176-.656-1.182-.685.513-.7,1.159" transform="translate(-1271.077 -773.681)" fill="#f7a491"/>
            <path id="Trazado_224332" data-name="Trazado 224332" d="M1478.12,931.744l-2.042-.106a.894.894,0,0,0,.9.851c1.094.088,1.139-.745,1.139-.745" transform="translate(-1247.88 -787.609)" fill="#fff"/>
            <path id="Trazado_224333" data-name="Trazado 224333" d="M1373.088,1002.172q.72-.737,1.343-1.515l8.914,8.7c.548.535.359,1.616-.422,2.416s-1.857,1.013-2.4.479l-8.913-8.7q.761-.643,1.483-1.379" transform="translate(-1159.558 -845.958)" fill="#ffc359"/>
            <g id="Grupo_114127" data-name="Grupo 114127" transform="translate(174.621 117.691)" opacity="0.6">
              <g id="Grupo_114126" data-name="Grupo 114126">
                <g id="Grupo_114125" data-name="Grupo 114125" clip-path="url(#clip-path-27)">
                  <path id="Trazado_224334" data-name="Trazado 224334" d="M1136.364,799.9a22.482,22.482,0,1,0-.476-31.889,22.551,22.551,0,0,0,.476,31.889" transform="translate(-1129.519 -761.271)" fill="#eefbff"/>
                </g>
              </g>
            </g>
            <g id="Grupo_114130" data-name="Grupo 114130" transform="translate(174.684 123.695)" style="mix-blend-mode: soft-light;isolation: isolate">
              <g id="Grupo_114129" data-name="Grupo 114129">
                <g id="Grupo_114128" data-name="Grupo 114128" clip-path="url(#clip-path-28)">
                  <path id="Trazado_224335" data-name="Trazado 224335" d="M1168.631,832.221a22.463,22.463,0,0,1-14.314,7.006l-24.385-24.786c0-.047.008-.093.013-.14a22.614,22.614,0,0,1,7.093-14.192Z" transform="translate(-1129.932 -800.108)" fill="#fff"/>
                </g>
              </g>
            </g>
            <g id="Grupo_114133" data-name="Grupo 114133" transform="translate(186.117 117.665)" style="mix-blend-mode: soft-light;isolation: isolate">
              <g id="Grupo_114132" data-name="Grupo 114132">
                <g id="Grupo_114131" data-name="Grupo 114131" clip-path="url(#clip-path-29)">
                  <path id="Trazado_224336" data-name="Trazado 224336" d="M1214.746,761.1l22.551,22.922c-.011.694-.052,1.393-.127,2.1a22.661,22.661,0,0,1-2.832,8.807l-30.455-30.956a22.275,22.275,0,0,1,10.864-2.868" transform="translate(-1203.882 -761.104)" fill="#fff"/>
                </g>
              </g>
            </g>
            <path id="Trazado_224337" data-name="Trazado 224337" d="M1118.217,785.91a25.416,25.416,0,1,0-.538-36.051,25.495,25.495,0,0,0,.538,36.051m2.05-2.1a22.482,22.482,0,1,1,31.891-.279,22.552,22.552,0,0,1-31.891.279" transform="translate(-938.801 -627.486)" fill="#ffc359"/>
            <g id="Grupo_114136" data-name="Grupo 114136" transform="translate(173.225 116.295)" opacity="0.5" style="mix-blend-mode: multiply;isolation: isolate">
              <g id="Grupo_114135" data-name="Grupo 114135">
                <g id="Grupo_114134" data-name="Grupo 114134" clip-path="url(#clip-path-30)">
                  <path id="Trazado_224338" data-name="Trazado 224338" d="M1127.756,793.266a23.874,23.874,0,1,0-.505-33.863,23.948,23.948,0,0,0,.505,33.863m.973-1a22.482,22.482,0,1,1,31.891-.279,22.552,22.552,0,0,1-31.891.279" transform="translate(-1120.487 -752.241)" fill="#f7b455"/>
                </g>
              </g>
            </g>
            <path id="Trazado_224339" data-name="Trazado 224339" d="M1451.921,1079.8l1.385-1.437a3.611,3.611,0,0,0-.093-5.106l-25.734-24.949a3.611,3.611,0,0,0-5.106.093l-1.385,1.437a3.611,3.611,0,0,0,.093,5.106l25.734,24.949a3.611,3.611,0,0,0,5.106-.093" transform="translate(-1200.451 -885.387)" fill="#013d5d"/>
            <path id="Trazado_224340" data-name="Trazado 224340" d="M1557.417,1028.342a.659.659,0,0,0,0-.151c-.16-1.627-1.511-15.284-1.738-15.864-.205-.524-6.262-9.186-6.262-9.186l-2.977,4.056,5.825,7.769c.131.494,2.232,9.713,2.232,9.713s.431,1.681.624,2.687c-.088.243-.174.472-.251.66a6.061,6.061,0,0,1-.628,1.009,6.913,6.913,0,0,0-.744,1.315c-.062.237-.173.73-.236,1.028s-.149.644-.164.805a1.551,1.551,0,0,1-.188.433.26.26,0,0,0,.307.375c.212-.07.376-.344.478-.515.286-.482.439-1.361.51-1.315s.323,1.539.362,1.708a18.42,18.42,0,0,0,.511,2.219c.17.317.4.264.455.065.051-.171-.188-2.6-.188-2.6s-.03-.309.106-.213.357,2.3.451,2.62.309.493.491.234a9.758,9.758,0,0,0-.16-2.65s-.043-.293.083-.266.282,1.9.38,2.066a.247.247,0,0,0,.461-.05,11.524,11.524,0,0,0-.22-2.4s.018-.166.1-.111.326,1.645.488,1.792a.172.172,0,0,0,.249,0c.3-.2-.158-1.715-.154-2.467a18.5,18.5,0,0,1-.24-2.492c.006-.056.025-.194.036-.281" transform="translate(-1307.367 -848.057)" fill="#f8a492"/>
            <path id="Trazado_224341" data-name="Trazado 224341" d="M1539.7,984.207l-5.173,3.474a56.125,56.125,0,0,0-4.481-5.884c-1.961-1.935.714-7.863,1.978-7.528,2.826.75,7.677,9.938,7.677,9.938" transform="translate(-1292.918 -823.638)" fill="#7be0fd"/>
            <rect id="Rectángulo_48290" data-name="Rectángulo 48290" width="257.431" height="1.536" transform="translate(0 231.135)" fill="#db9540"/>
          </g>
        </g>
      </g>
    </g>
  </g>
</svg>
