<svg id="Grupo_114757" data-name="Grupo 114757" xmlns="http://www.w3.org/2000/svg" xmlns:xlink="http://www.w3.org/1999/xlink" width="296" height="216.853" viewBox="0 0 296 216.853">
  <defs>
    <clipPath id="clip-path">
      <rect id="Rectángulo_50096" data-name="Rectángulo 50096" width="296" height="216.853" fill="none"/>
    </clipPath>
    <clipPath id="clip-path-3">
      <rect id="Rectángulo_50019" data-name="Rectángulo 50019" width="163.828" height="94.904" fill="none"/>
    </clipPath>
    <clipPath id="clip-path-4">
      <rect id="Rectángulo_50023" data-name="Rectángulo 50023" width="40.324" height="2.783" fill="none"/>
    </clipPath>
    <clipPath id="clip-path-5">
      <rect id="Rectángulo_50024" data-name="Rectángulo 50024" width="141.115" height="104.724" fill="none"/>
    </clipPath>
  </defs>
  <g id="Grupo_114756" data-name="Grupo 114756" clip-path="url(#clip-path)">
    <g id="Grupo_114755" data-name="Grupo 114755" transform="translate(0 0)">
      <g id="Grupo_114754" data-name="Grupo 114754" clip-path="url(#clip-path)">
        <path id="Trazado_228247" data-name="Trazado 228247" d="M212.226,39.679V160a4.882,4.882,0,0,1-4.882,4.889H35.038A4.882,4.882,0,0,1,30.156,160V39.679a4.9,4.9,0,0,1,4.882-4.885H207.345a4.653,4.653,0,0,1,2.322.613,3.37,3.37,0,0,1,.412.243,4.594,4.594,0,0,1,1.638,1.9,4.485,4.485,0,0,1,.51,2.126" transform="translate(23.414 27.015)" fill="#254048"/>
        <rect id="Rectángulo_50018" data-name="Rectángulo 50018" width="163.828" height="94.904" transform="translate(62.692 71.629)" fill="#00d3e8"/>
        <g id="Grupo_114747" data-name="Grupo 114747" transform="translate(62.692 71.629)" opacity="0.2">
          <g id="Grupo_114746" data-name="Grupo 114746">
            <g id="Grupo_114745" data-name="Grupo 114745" clip-path="url(#clip-path-3)">
              <path id="Trazado_228248" data-name="Trazado 228248" d="M37.734,42.766H199.119V40.322H35.291v94.9h2.443Z" transform="translate(-35.291 -40.322)"/>
            </g>
          </g>
        </g>
        <path id="Trazado_228249" data-name="Trazado 228249" d="M207.345,114.577H35.038a4.885,4.885,0,0,1-4.882-4.891V99.6h182.07v10.092a4.887,4.887,0,0,1-4.882,4.891" transform="translate(23.414 77.329)" fill="#758789"/>
        <path id="Trazado_228250" data-name="Trazado 228250" d="M134.085,124.837H60.766l13.4-8.387h46.5Z" transform="translate(47.181 90.416)" fill="#758789"/>
        <rect id="Rectángulo_50020" data-name="Rectángulo 50020" width="73.319" height="1.599" transform="translate(107.947 215.254)" fill="#54666f"/>
        <rect id="Rectángulo_50021" data-name="Rectángulo 50021" width="40.323" height="17.676" transform="translate(124.444 191.906)" fill="#f0f0f0"/>
        <g id="Grupo_114750" data-name="Grupo 114750" transform="translate(124.444 191.906)" opacity="0.2">
          <g id="Grupo_114749" data-name="Grupo 114749">
            <g id="Grupo_114748" data-name="Grupo 114748" clip-path="url(#clip-path-4)">
              <rect id="Rectángulo_50022" data-name="Rectángulo 50022" width="40.323" height="2.782" transform="translate(0.001)"/>
            </g>
          </g>
        </g>
        <g id="Grupo_114753" data-name="Grupo 114753" transform="translate(74.048 61.809)" opacity="0.3">
          <g id="Grupo_114752" data-name="Grupo 114752">
            <g id="Grupo_114751" data-name="Grupo 114751" clip-path="url(#clip-path-5)">
              <path id="Trazado_228251" data-name="Trazado 228251" d="M182.8,34.794l-.51,9.824-.124,2.443-.05.982-4.667,91.476H47.037L45.89,117.154,42.316,47.06,42.2,44.617l-.515-9.824Z" transform="translate(-41.684 -34.794)"/>
            </g>
          </g>
        </g>
        <rect id="Rectángulo_50025" data-name="Rectángulo 50025" width="130.387" height="138.496" transform="translate(79.414 28.037)" fill="#fff"/>
        <rect id="Rectángulo_50026" data-name="Rectángulo 50026" width="130.387" height="7.932" transform="translate(79.414 28.037)" fill="#ffd159"/>
        <rect id="Rectángulo_50027" data-name="Rectángulo 50027" width="29.082" height="19.5" transform="translate(92.636 101.409)" fill="#ffd159"/>
        <rect id="Rectángulo_50028" data-name="Rectángulo 50028" width="29.082" height="1.983" transform="translate(92.636 125.866)" fill="#254048"/>
        <rect id="Rectángulo_50029" data-name="Rectángulo 50029" width="29.082" height="0.993" transform="translate(92.636 129.337)" fill="#758789"/>
        <rect id="Rectángulo_50030" data-name="Rectángulo 50030" width="29.082" height="0.993" transform="translate(92.636 132.312)" fill="#758789"/>
        <rect id="Rectángulo_50031" data-name="Rectángulo 50031" width="14.542" height="0.991" transform="translate(92.634 135.29)" fill="#758789"/>
        <rect id="Rectángulo_50032" data-name="Rectángulo 50032" width="29.082" height="19.5" transform="translate(130.069 101.409)" fill="#ff7643"/>
        <rect id="Rectángulo_50033" data-name="Rectángulo 50033" width="29.082" height="1.983" transform="translate(130.069 125.866)" fill="#254048"/>
        <rect id="Rectángulo_50034" data-name="Rectángulo 50034" width="29.082" height="0.993" transform="translate(130.069 129.337)" fill="#758789"/>
        <rect id="Rectángulo_50035" data-name="Rectángulo 50035" width="29.082" height="0.993" transform="translate(130.069 132.312)" fill="#758789"/>
        <rect id="Rectángulo_50036" data-name="Rectángulo 50036" width="4.622" height="0.991" transform="translate(130.067 135.29)" fill="#758789"/>
        <rect id="Rectángulo_50037" data-name="Rectángulo 50037" width="29.082" height="19.5" transform="translate(166.756 101.409)" fill="#00d3e8"/>
        <rect id="Rectángulo_50038" data-name="Rectángulo 50038" width="29.082" height="1.983" transform="translate(166.756 125.866)" fill="#254048"/>
        <rect id="Rectángulo_50039" data-name="Rectángulo 50039" width="29.082" height="0.993" transform="translate(166.756 129.337)" fill="#758789"/>
        <rect id="Rectángulo_50040" data-name="Rectángulo 50040" width="29.082" height="0.993" transform="translate(166.756 132.312)" fill="#758789"/>
        <rect id="Rectángulo_50041" data-name="Rectángulo 50041" width="24.454" height="0.991" transform="translate(166.756 135.29)" fill="#758789"/>
        <rect id="Rectángulo_50042" data-name="Rectángulo 50042" width="64.138" height="5.377" transform="translate(143.676 29.313)" fill="#f0f0f0"/>
        <rect id="Rectángulo_50043" data-name="Rectángulo 50043" width="5.583" height="5.377" transform="translate(202.231 29.313)" fill="#00d3e8"/>
        <path id="Trazado_228252" data-name="Trazado 228252" d="M114.627,17.106l2.8,1.615-2.8,1.611Z" transform="translate(89 13.282)" fill="#f0f0f0"/>
        <rect id="Rectángulo_50044" data-name="Rectángulo 50044" width="58.796" height="1.984" transform="translate(82.263 31.011)" fill="#758789"/>
        <rect id="Rectángulo_50045" data-name="Rectángulo 50045" width="130.387" height="39.002" transform="translate(79.414 54.823)" fill="#96dc73"/>
        <rect id="Rectángulo_50046" data-name="Rectángulo 50046" width="37.135" height="7.271" transform="translate(84.583 41.599)" fill="#00d3e8"/>
        <rect id="Rectángulo_50047" data-name="Rectángulo 50047" width="78.486" height="7.271" transform="translate(127.216 41.599)" fill="#54666f"/>
        <rect id="Rectángulo_50048" data-name="Rectángulo 50048" width="121.842" height="2.976" transform="translate(83.686 142.569)" fill="#54666f"/>
        <rect id="Rectángulo_50049" data-name="Rectángulo 50049" width="121.842" height="1.389" transform="translate(83.686 148.32)" fill="#758789"/>
        <rect id="Rectángulo_50050" data-name="Rectángulo 50050" width="121.842" height="1.386" transform="translate(83.686 153.281)" fill="#758789"/>
        <rect id="Rectángulo_50051" data-name="Rectángulo 50051" width="45.486" height="1.387" transform="translate(83.688 158.239)" fill="#758789"/>
        <path id="Trazado_228253" data-name="Trazado 228253" d="M88.1,52.462H86.072v-.767H87.33V50.433H88.1Z" transform="translate(66.829 39.158)" fill="#f0f0f0"/>
        <path id="Trazado_228254" data-name="Trazado 228254" d="M107.449,51.91h-3.112v-.767h3.112Zm-6.226,0H98.11v-.767h3.112ZM95,51.91H91.882v-.767H95Zm-6.225,0H85.657v-.767h3.116Zm-6.228,0H79.433v-.767h3.112Zm-6.228,0H73.2v-.767h3.112Zm-6.228,0H66.976v-.767h3.112Zm-6.225,0H60.752v-.767h3.112Zm-6.225,0H54.527v-.767h3.112Z" transform="translate(42.337 39.709)" fill="#f0f0f0"/>
        <path id="Trazado_228255" data-name="Trazado 228255" d="M53.663,52.462h-2.03V50.433H52.4v1.261h1.259Z" transform="translate(40.089 39.158)" fill="#f0f0f0"/>
        <path id="Trazado_228256" data-name="Trazado 228256" d="M52.4,58.531h-.771V55.289H52.4Zm0-6.484h-.771V48.8H52.4Zm0-6.489h-.771v-3.24H52.4Zm0-6.489h-.771V35.826H52.4Z" transform="translate(40.089 27.816)" fill="#f0f0f0"/>
        <path id="Trazado_228257" data-name="Trazado 228257" d="M52.4,34.889h-.771v-2.03h2.03v.767H52.4Z" transform="translate(40.089 25.513)" fill="#f0f0f0"/>
        <path id="Trazado_228258" data-name="Trazado 228258" d="M107.452,33.626h-3.116v-.767h3.116Zm-6.23,0H98.11v-.767h3.112Zm-6.221,0H91.882v-.767H95Zm-6.228,0H85.657v-.767h3.116Zm-6.228,0H79.433v-.767h3.112Zm-6.228,0H73.2v-.767h3.112Zm-6.225,0H66.976v-.767h3.116Zm-6.228,0H60.752v-.767h3.112Zm-6.225,0H54.527v-.767h3.112Z" transform="translate(42.337 25.513)" fill="#f0f0f0"/>
        <path id="Trazado_228259" data-name="Trazado 228259" d="M88.1,34.889H87.33V33.626H86.072v-.767H88.1Z" transform="translate(66.829 25.513)" fill="#f0f0f0"/>
        <path id="Trazado_228260" data-name="Trazado 228260" d="M87.549,58.531H86.78V55.289h.769Zm0-6.484H86.78V48.8h.769Zm0-6.489H86.78v-3.24h.769Zm0-6.489H86.78V35.826h.769Z" transform="translate(67.379 27.816)" fill="#f0f0f0"/>
        <rect id="Rectángulo_50052" data-name="Rectángulo 50052" width="3.29" height="3.286" transform="translate(90.461 89.591)" fill="#f0f0f0"/>
        <rect id="Rectángulo_50053" data-name="Rectángulo 50053" width="3.286" height="3.288" transform="translate(152.901 57.114)" fill="#f0f0f0"/>
        <rect id="Rectángulo_50054" data-name="Rectángulo 50054" width="3.286" height="3.286" transform="translate(152.901 89.591)" fill="#f0f0f0"/>
        <rect id="Rectángulo_50055" data-name="Rectángulo 50055" width="3.286" height="3.285" transform="translate(152.901 72.979)" fill="#f0f0f0"/>
        <rect id="Rectángulo_50056" data-name="Rectángulo 50056" width="3.29" height="3.286" transform="translate(90.461 73.349)" fill="#f0f0f0"/>
        <rect id="Rectángulo_50057" data-name="Rectángulo 50057" width="3.286" height="3.286" transform="translate(121.679 89.591)" fill="#f0f0f0"/>
        <rect id="Rectángulo_50058" data-name="Rectángulo 50058" width="3.286" height="3.288" transform="translate(121.679 57.114)" fill="#f0f0f0"/>
        <rect id="Rectángulo_50059" data-name="Rectángulo 50059" width="3.29" height="3.288" transform="translate(90.461 57.114)" fill="#f0f0f0"/>
        <path id="Trazado_228261" data-name="Trazado 228261" d="M87.213,41.837l13.366,3.921-2.565,2.56,5,5-4.32,4.32-5-5L91.13,55.2Z" transform="translate(67.715 32.483)" fill="#fff"/>
        <rect id="Rectángulo_50060" data-name="Rectángulo 50060" width="64.751" height="79.712" transform="translate(231.249 31.619)" fill="#fff"/>
        <rect id="Rectángulo_50061" data-name="Rectángulo 50061" width="54.373" height="22.348" transform="translate(236.44 50.271)" fill="#00d3e8"/>
        <rect id="Rectángulo_50062" data-name="Rectángulo 50062" width="31.308" height="2.29" transform="translate(247.969 40.064)" fill="#54666f"/>
        <path id="Trazado_228262" data-name="Trazado 228262" d="M171.469,52.563a7.918,7.918,0,1,1-7.918-7.918,7.92,7.92,0,0,1,7.918,7.918" transform="translate(120.839 34.664)" fill="#96dc73"/>
        <rect id="Rectángulo_50063" data-name="Rectángulo 50063" width="9.852" height="2.112" transform="translate(279.461 99.017)" fill="#758789"/>
        <rect id="Rectángulo_50064" data-name="Rectángulo 50064" width="14.958" height="1.405" transform="translate(276.91 106.41)" fill="#cfcfd1"/>
        <rect id="Rectángulo_50065" data-name="Rectángulo 50065" width="14.958" height="1.409" transform="translate(276.91 102.889)" fill="#cfcfd1"/>
        <path id="Trazado_228263" data-name="Trazado 228263" d="M159.781,52.563a7.918,7.918,0,1,1-7.919-7.918,7.916,7.916,0,0,1,7.919,7.918" transform="translate(111.763 34.664)" fill="#ff7643"/>
        <rect id="Rectángulo_50066" data-name="Rectángulo 50066" width="9.847" height="2.112" transform="translate(258.702 99.017)" fill="#758789"/>
        <rect id="Rectángulo_50067" data-name="Rectángulo 50067" width="14.956" height="1.405" transform="translate(256.149 106.41)" fill="#cfcfd1"/>
        <rect id="Rectángulo_50068" data-name="Rectángulo 50068" width="14.956" height="1.409" transform="translate(256.149 102.889)" fill="#cfcfd1"/>
        <path id="Trazado_228264" data-name="Trazado 228264" d="M148.089,52.563a7.918,7.918,0,1,1-7.912-7.918,7.915,7.915,0,0,1,7.912,7.918" transform="translate(102.686 34.664)" fill="#ffd159"/>
        <rect id="Rectángulo_50069" data-name="Rectángulo 50069" width="9.859" height="2.112" transform="translate(237.928 99.017)" fill="#758789"/>
        <rect id="Rectángulo_50070" data-name="Rectángulo 50070" width="14.959" height="1.405" transform="translate(235.381 106.41)" fill="#cfcfd1"/>
        <rect id="Rectángulo_50071" data-name="Rectángulo 50071" width="14.959" height="1.409" transform="translate(235.381 102.889)" fill="#cfcfd1"/>
        <path id="Trazado_228265" data-name="Trazado 228265" d="M146.712,43.118a.938.938,0,1,1-.941-.934.937.937,0,0,1,.941.934" transform="translate(112.455 32.753)" fill="#758789"/>
        <path id="Trazado_228266" data-name="Trazado 228266" d="M149.748,43.118a.937.937,0,1,1-.936-.934.94.94,0,0,1,.936.934" transform="translate(114.814 32.753)" fill="#cfcfd1"/>
        <path id="Trazado_228267" data-name="Trazado 228267" d="M152.792,43.118a.942.942,0,1,1-.938-.934.94.94,0,0,1,.938.934" transform="translate(117.171 32.753)" fill="#758789"/>
        <rect id="Rectángulo_50072" data-name="Rectángulo 50072" width="68.274" height="85.388" transform="translate(1.965 125.18)" fill="#fff"/>
        <rect id="Rectángulo_50073" data-name="Rectángulo 50073" width="9.937" height="7.733" transform="translate(8.497 191.427)" fill="#ffd159"/>
        <rect id="Rectángulo_50074" data-name="Rectángulo 50074" width="9.937" height="2.206" transform="translate(8.497 201.92)" fill="#cfcfd1"/>
        <rect id="Rectángulo_50075" data-name="Rectángulo 50075" width="9.944" height="7.733" transform="translate(23.586 191.427)" fill="#00d3e8"/>
        <rect id="Rectángulo_50076" data-name="Rectángulo 50076" width="9.944" height="2.206" transform="translate(23.586 201.92)" fill="#cfcfd1"/>
        <rect id="Rectángulo_50077" data-name="Rectángulo 50077" width="9.937" height="7.733" transform="translate(38.68 191.427)" fill="#96dc73"/>
        <rect id="Rectángulo_50078" data-name="Rectángulo 50078" width="9.937" height="2.206" transform="translate(38.68 201.92)" fill="#cfcfd1"/>
        <rect id="Rectángulo_50079" data-name="Rectángulo 50079" width="9.934" height="7.733" transform="translate(53.769 191.427)" fill="#ff7643"/>
        <rect id="Rectángulo_50080" data-name="Rectángulo 50080" width="9.934" height="2.206" transform="translate(53.769 201.92)" fill="#cfcfd1"/>
        <rect id="Rectángulo_50081" data-name="Rectángulo 50081" width="34.042" height="13.437" transform="translate(7.763 143.95)" fill="#ffd159"/>
        <rect id="Rectángulo_50082" data-name="Rectángulo 50082" width="19.049" height="2.208" transform="translate(44.288 144.319)" fill="#254048"/>
        <rect id="Rectángulo_50083" data-name="Rectángulo 50083" width="19.049" height="2.208" transform="translate(44.288 149.471)" fill="#758789"/>
        <rect id="Rectángulo_50084" data-name="Rectángulo 50084" width="19.049" height="2.21" transform="translate(44.288 154.623)" fill="#758789"/>
        <rect id="Rectángulo_50085" data-name="Rectángulo 50085" width="15.455" height="2.205" transform="translate(7.763 177.08)" fill="#54666f"/>
        <rect id="Rectángulo_50086" data-name="Rectángulo 50086" width="15.455" height="2.201" transform="translate(7.763 182.232)" fill="#758789"/>
        <rect id="Rectángulo_50087" data-name="Rectángulo 50087" width="15.455" height="10.488" transform="translate(7.763 164.196)" fill="#00d3e8"/>
        <rect id="Rectángulo_50088" data-name="Rectángulo 50088" width="15.457" height="2.205" transform="translate(28.375 177.08)" fill="#54666f"/>
        <rect id="Rectángulo_50089" data-name="Rectángulo 50089" width="15.457" height="2.201" transform="translate(28.375 182.232)" fill="#758789"/>
        <rect id="Rectángulo_50090" data-name="Rectángulo 50090" width="15.457" height="10.488" transform="translate(28.375 164.196)" fill="#96dc73"/>
        <rect id="Rectángulo_50091" data-name="Rectángulo 50091" width="15.457" height="2.205" transform="translate(48.985 177.08)" fill="#54666f"/>
        <rect id="Rectángulo_50092" data-name="Rectángulo 50092" width="15.457" height="2.201" transform="translate(48.985 182.232)" fill="#758789"/>
        <rect id="Rectángulo_50093" data-name="Rectángulo 50093" width="15.457" height="10.488" transform="translate(48.985 164.196)" fill="#ff7643"/>
        <rect id="Rectángulo_50094" data-name="Rectángulo 50094" width="47.234" height="5.152" transform="translate(12.485 132.54)" fill="#54666f"/>
        <path id="Trazado_228268" data-name="Trazado 228268" d="M17.6,25.755H14.938V9.564C14.938,4.29,18.873,0,23.708,0h7.438V2.665H23.708c-3.366,0-6.106,3.095-6.106,6.9Z" transform="translate(11.598 0)" fill="#b1bdbf"/>
        <path id="Trazado_228269" data-name="Trazado 228269" d="M26.838,46.526C15.183,46.526,7.3,41.25.126,32.062L0,31.9l.126-.169C7.3,22.546,15.183,17.279,26.838,17.279S46.37,22.546,53.551,31.736l.126.169-.126.158C46.37,41.25,38.492,46.526,26.838,46.526M.673,31.9C7.752,40.865,15.419,46,26.838,46S45.924,40.865,53,31.9c-7.077-8.971-14.744-14.1-26.163-14.1S7.752,22.933.673,31.9" transform="translate(0 13.416)" fill="#b1bdbf"/>
        <path id="Trazado_228270" data-name="Trazado 228270" d="M21.841,18.454A13.3,13.3,0,1,1,8.536,31.763,13.327,13.327,0,0,1,21.841,18.454m0-1.052A14.358,14.358,0,1,0,36.209,31.763,14.359,14.359,0,0,0,21.841,17.4" transform="translate(5.812 13.511)" fill="#b1bdbf"/>
        <path id="Trazado_228271" data-name="Trazado 228271" d="M25.052,28.374a6.6,6.6,0,1,1-6.6-6.607,6.6,6.6,0,0,1,6.6,6.607" transform="translate(9.206 16.901)" fill="#b1bdbf"/>
      </g>
    </g>
  </g>
</svg>
