<svg xmlns="http://www.w3.org/2000/svg" xmlns:xlink="http://www.w3.org/1999/xlink" width="244" height="181" viewBox="0 0 244 181">
  <defs>
    <clipPath id="clip-path">
      <rect id="Rectángulo_50656" data-name="Rectángulo 50656" width="203.392" height="142.817" transform="translate(0 0)" fill="none"/>
    </clipPath>
  </defs>
  <g id="Grupo_117841" data-name="Grupo 117841" transform="translate(-1046 -17672)">
    <g id="Rectángulo_50243" data-name="Rectángulo 50243" transform="translate(1046 17672)" fill="#fff" stroke="#039be5" stroke-width="4">
      <rect width="244" height="181" rx="25" stroke="none"/>
      <rect x="2" y="2" width="240" height="177" rx="23" fill="none"/>
    </g>
    <g id="Grupo_115249" data-name="Grupo 115249" transform="translate(1065.804 17691.09)">
      <g id="Grupo_115248" data-name="Grupo 115248" transform="translate(0 0.003)" clip-path="url(#clip-path)">
        <path id="Trazado_229760" data-name="Trazado 229760" d="M90.935.172c26.418-1.4,50.593,6,66.786,18.661,25.717,8.678,43.943,26.607,45.556,48.173,2.393,32.045-32.8,59.982-78.6,62.4a114.284,114.284,0,0,1-35.531-3.594c-.581.042-1.162.076-1.753.109C41.584,128.335,2.518,104.32.115,72.283c-1.362-18.3,9.534-35.26,27.65-46.893C41.975,11.3,64.708,1.552,90.935.172" transform="translate(0 -0.003)" fill="#d5f0ff"/>
        <path id="Trazado_229761" data-name="Trazado 229761" d="M225.346,1771.9c50.725,0,92.1-2.319,92.1-5.166s-41.373-5.166-92.1-5.166-92.106,2.319-92.106,5.166,41.373,5.166,92.106,5.166" transform="translate(-123.219 -1629.08)" fill="#dfe6ff" fill-rule="evenodd"/>
        <path id="Trazado_229762" data-name="Trazado 229762" d="M1198.917,78.656a23.607,23.607,0,1,0-27.431-19.023,23.651,23.651,0,0,0,27.431,19.023" transform="translate(-1083.031 -29.426)" fill="#fff" fill-rule="evenodd"/>
        <path id="Trazado_229763" data-name="Trazado 229763" d="M1264.274,114.31l5.464-.99.831,4.589a12.748,12.748,0,0,1,4.411.956l2.654-3.833,4.565,3.165-2.654,3.833a12.775,12.775,0,0,1,2.437,3.792l4.589-.831.99,5.465-4.589.831a12.843,12.843,0,0,1-.952,4.41l3.829,2.655-3.165,4.565-3.829-2.659a12.75,12.75,0,0,1-3.8,2.442l.831,4.589-5.465.99-.831-4.589a12.723,12.723,0,0,1-4.406-.957l-2.659,3.834-4.56-3.166,2.655-3.829a12.854,12.854,0,0,1-2.442-3.8l-4.584.83-.99-5.464,4.584-.83a12.782,12.782,0,0,1,.957-4.406l-3.829-2.659,3.16-4.564,3.834,2.658a12.725,12.725,0,0,1,3.791-2.441Zm4.472,9.111a7.5,7.5,0,1,1-6.042,8.714,7.5,7.5,0,0,1,6.042-8.714" transform="translate(-1158.401 -104.798)" fill="#8dafdb" fill-rule="evenodd"/>
        <path id="Trazado_229764" data-name="Trazado 229764" d="M213.865,316.243H289.1a3.1,3.1,0,0,1,3.094,3.094V426.521a3.1,3.1,0,0,1-3.094,3.089H213.865a3.1,3.1,0,0,1-3.094-3.089V319.337a3.1,3.1,0,0,1,3.094-3.094" transform="translate(-194.919 -292.459)" fill="#4b76ba" fill-rule="evenodd"/>
        <path id="Trazado_229765" data-name="Trazado 229765" d="M288.825,396.7h64.763a2.671,2.671,0,0,1,2.658,2.663V495.3a2.671,2.671,0,0,1-2.658,2.663H288.825a2.671,2.671,0,0,1-2.658-2.663V399.359a2.671,2.671,0,0,1,2.658-2.663" transform="translate(-264.645 -366.861)" fill="#fff" fill-rule="evenodd"/>
        <path id="Trazado_229766" data-name="Trazado 229766" d="M357.915,663.539a6.354,6.354,0,1,1,6.356-6.356,6.361,6.361,0,0,1-6.356,6.356m0-11.721a5.367,5.367,0,1,0,5.37,5.365,5.371,5.371,0,0,0-5.37-5.365" transform="translate(-325.123 -601.884)" fill="#4b76ba"/>
        <path id="Trazado_229767" data-name="Trazado 229767" d="M357.915,950.688a6.354,6.354,0,1,1,6.356-6.356,6.361,6.361,0,0,1-6.356,6.356m0-11.721a5.367,5.367,0,1,0,5.37,5.365,5.371,5.371,0,0,0-5.37-5.365" transform="translate(-325.123 -867.436)" fill="#4b76ba"/>
        <path id="Trazado_229768" data-name="Trazado 229768" d="M357.915,1225.5a6.354,6.354,0,1,1,6.356-6.351,6.358,6.358,0,0,1-6.356,6.351m0-11.721a5.367,5.367,0,1,0,5.37,5.37,5.373,5.373,0,0,0-5.37-5.37" transform="translate(-325.123 -1121.577)" fill="#4b76ba"/>
        <path id="Trazado_229769" data-name="Trazado 229769" d="M357.915,1488.031a6.354,6.354,0,1,1,6.356-6.351,6.359,6.359,0,0,1-6.356,6.351m0-11.721a5.367,5.367,0,1,0,5.37,5.37,5.373,5.373,0,0,0-5.37-5.37" transform="translate(-325.123 -1364.367)" fill="#4b76ba"/>
        <path id="Trazado_229770" data-name="Trazado 229770" d="M589.346,680.79h40.737a.586.586,0,1,1,0,1.172H589.346a.586.586,0,1,1,0-1.172" transform="translate(-544.478 -629.589)" fill="#4b76ba" fill-rule="evenodd"/>
        <path id="Trazado_229771" data-name="Trazado 229771" d="M589.346,728.536h40.737a.586.586,0,1,1,0,1.172H589.346a.586.586,0,1,1,0-1.172" transform="translate(-544.478 -673.744)" fill="#4b76ba" fill-rule="evenodd"/>
        <path id="Trazado_229772" data-name="Trazado 229772" d="M589.346,774.259H616.78a.586.586,0,0,1,0,1.172H589.346a.586.586,0,1,1,0-1.172" transform="translate(-544.478 -716.028)" fill="#4b76ba" fill-rule="evenodd"/>
        <path id="Trazado_229773" data-name="Trazado 229773" d="M589.346,967.94h40.737a.586.586,0,1,1,0,1.172H589.346a.586.586,0,1,1,0-1.172" transform="translate(-544.478 -895.143)" fill="#4b76ba" fill-rule="evenodd"/>
        <path id="Trazado_229774" data-name="Trazado 229774" d="M589.346,1015.685h40.737a.586.586,0,1,1,0,1.172H589.346a.586.586,0,1,1,0-1.172" transform="translate(-544.478 -939.297)" fill="#4b76ba" fill-rule="evenodd"/>
        <path id="Trazado_229775" data-name="Trazado 229775" d="M589.346,1061.408h15.926a.586.586,0,0,1,0,1.172H589.346a.586.586,0,1,1,0-1.172" transform="translate(-544.478 -981.581)" fill="#4b76ba" fill-rule="evenodd"/>
        <path id="Trazado_229776" data-name="Trazado 229776" d="M589.346,1242.748h40.737a.586.586,0,1,1,0,1.172H589.346a.586.586,0,1,1,0-1.172" transform="translate(-544.478 -1149.283)" fill="#4b76ba" fill-rule="evenodd"/>
        <path id="Trazado_229777" data-name="Trazado 229777" d="M589.346,1290.561h40.737a.586.586,0,1,1,0,1.172H589.346a.586.586,0,1,1,0-1.172" transform="translate(-544.478 -1193.5)" fill="#4b76ba" fill-rule="evenodd"/>
        <path id="Trazado_229778" data-name="Trazado 229778" d="M589.346,1336.216h34.468a.586.586,0,0,1,0,1.171H589.346a.586.586,0,1,1,0-1.171" transform="translate(-544.478 -1235.722)" fill="#4b76ba" fill-rule="evenodd"/>
        <path id="Trazado_229779" data-name="Trazado 229779" d="M589.346,1505.282h40.737a.586.586,0,1,1,0,1.172H589.346a.586.586,0,1,1,0-1.172" transform="translate(-544.478 -1392.072)" fill="#4b76ba" fill-rule="evenodd"/>
        <path id="Trazado_229780" data-name="Trazado 229780" d="M589.346,1553.028h40.737a.586.586,0,1,1,0,1.172H589.346a.586.586,0,1,1,0-1.172" transform="translate(-544.478 -1436.228)" fill="#4b76ba" fill-rule="evenodd"/>
        <path id="Trazado_229781" data-name="Trazado 229781" d="M589.346,1598.751h8.369a.586.586,0,0,1,0,1.172h-8.369a.586.586,0,1,1,0-1.172" transform="translate(-544.478 -1478.512)" fill="#4b76ba" fill-rule="evenodd"/>
        <path id="Trazado_229782" data-name="Trazado 229782" d="M551.987,194.487h7.872a4.76,4.76,0,0,1,9.52,0h7.872a2.621,2.621,0,0,1,2.612,2.612V206.3a2.621,2.621,0,0,1-2.612,2.612H551.987a2.621,2.621,0,0,1-2.612-2.612V197.1a2.621,2.621,0,0,1,2.612-2.612m10.8,0h3.667a1.833,1.833,0,0,0-3.667,0" transform="translate(-508.057 -175.461)" fill="#dbcde4" fill-rule="evenodd"/>
        <path id="Trazado_229783" data-name="Trazado 229783" d="M844.324,360.309c-.6,0-1.261-.006-2-.014a.411.411,0,0,1,0-.822h0c3.743.037,5.422.027,5.993-.568.416-.434.368-1.394.288-2.985-.012-.235-.024-.483-.036-.745a.411.411,0,0,1,.821-.037c.012.261.024.507.036.741.091,1.812.146,2.906-.516,3.6-.684.712-2,.834-4.594.834" transform="translate(-778.598 -328.067)" fill="#fff"/>
        <path id="Trazado_229784" data-name="Trazado 229784" d="M737.4,205.821a.411.411,0,0,1-.411-.4,2.626,2.626,0,0,0-.973-2.12,3.007,3.007,0,0,0-2.634-.366.411.411,0,1,1-.212-.794,3.8,3.8,0,0,1,3.341.5,3.428,3.428,0,0,1,1.3,2.762.411.411,0,0,1-.4.418H737.4" transform="translate(-677.75 -186.779)" fill="#fff"/>
        <path id="Trazado_229785" data-name="Trazado 229785" d="M930.537,315.526a.411.411,0,0,1-.411-.411v-1.633a.411.411,0,0,1,.822,0v1.633a.411.411,0,0,1-.411.411" transform="translate(-860.173 -289.526)" fill="#fff"/>
        <path id="Trazado_229786" data-name="Trazado 229786" d="M388.375,673.189l-3.534-1.873c-.17-.106-.213.085-.149.192L387.886,675a.647.647,0,0,0,.979,0c2.725-2.427,5.428-4.854,8.153-7.28a.113.113,0,0,0-.149-.17Z" transform="translate(-355.734 -617.321)" fill="#e9708a" fill-rule="evenodd"/>
        <path id="Trazado_229787" data-name="Trazado 229787" d="M388.375,962.525l-3.534-1.873c-.17-.106-.213.085-.149.192l3.193,3.491a.648.648,0,0,0,.979,0c2.725-2.427,5.428-4.854,8.153-7.28a.113.113,0,0,0-.149-.17Z" transform="translate(-355.734 -884.897)" fill="#e9708a" fill-rule="evenodd"/>
        <path id="Trazado_229788" data-name="Trazado 229788" d="M388.375,1239.587l-3.534-1.873c-.17-.106-.213.085-.149.192l3.193,3.491a.648.648,0,0,0,.979,0c2.725-2.427,5.428-4.854,8.153-7.28a.113.113,0,0,0-.149-.17Z" transform="translate(-355.734 -1141.121)" fill="#e9708a" fill-rule="evenodd"/>
        <path id="Trazado_229789" data-name="Trazado 229789" d="M2389.049,805.481l-11.442-8.444,11.979-8.826.378.513-11.283,8.313,10.747,7.931Z" transform="translate(-2198.791 -728.931)" fill="#8dafdb"/>
        <path id="Trazado_229790" data-name="Trazado 229790" d="M2496.367,980.262a2.755,2.755,0,1,0-2.755-2.755,2.76,2.76,0,0,0,2.755,2.755" transform="translate(-2306.072 -901.444)" fill="#8dafdb" fill-rule="evenodd"/>
        <path id="Trazado_229791" data-name="Trazado 229791" d="M2496.367,769.662a2.755,2.755,0,1,0-2.755-2.755,2.76,2.76,0,0,0,2.755,2.755" transform="translate(-2306.072 -706.683)" fill="#8dafdb" fill-rule="evenodd"/>
        <path id="Trazado_229792" data-name="Trazado 229792" d="M2350.878,874.452a2.755,2.755,0,1,0-2.755-2.755,2.76,2.76,0,0,0,2.755,2.755" transform="translate(-2171.524 -803.591)" fill="#8dafdb" fill-rule="evenodd"/>
        <path id="Trazado_229793" data-name="Trazado 229793" d="M2023.082,1744.954c-.663.452-1.321.9-1.984,1.35-2.648,1.91-10.626,2.528-7.955,5.736l13.674-2.968a4.4,4.4,0,0,0-1.447-3.483Z" transform="translate(-1861.239 -1613.719)" fill="#0643a3" fill-rule="evenodd"/>
        <path id="Trazado_229794" data-name="Trazado 229794" d="M2124.894,1724.042l-4.289,1.052c.126.623.251,1.247.372,1.87,1,1.6,2.848-.48,4.272-.715Z" transform="translate(-1961.118 -1594.38)" fill="#f9b995" fill-rule="evenodd"/>
        <path id="Trazado_229795" data-name="Trazado 229795" d="M2040.441,1365.506c-1.687,2.253-3.734,4.18-5,6.811q2.145,9.419,4.283,18.832l-6.582,1.721-5.765-18.969,2.551-10.746Z" transform="translate(-1874.903 -1260.635)" fill="#0643a3" fill-rule="evenodd"/>
        <path id="Trazado_229796" data-name="Trazado 229796" d="M2051.977,1740.137c-2.886,3.191-11.916,4.5-10.868,7.125,3.72-.857,7.238-2.232,10.924-2.3,3.687.068,7.2,1.443,10.924,2.3,1.048-2.627-7.982-3.934-10.868-7.125l-.057.846Z" transform="translate(-1887.522 -1609.264)" fill="#3e3938" fill-rule="evenodd"/>
        <path id="Trazado_229797" data-name="Trazado 229797" d="M2061.758,1744.4l-.084-.019c-1.11-.256-2.216-.561-3.285-.856a20.852,20.852,0,0,0-15.234,0c-1.069.3-2.174.6-3.285.856l-.084.019-.032-.08c-.618-1.547,1.909-2.6,4.835-3.826,2.24-.936,4.78-2,6.051-3.4l.1-.109,0-.066.028.031.028-.031,0,.066.1.109c1.272,1.406,3.811,2.467,6.051,3.4,2.926,1.223,5.453,2.279,4.835,3.826Zm-10.987-2.517a30.894,30.894,0,0,1,7.672,1.448c1.039.287,2.113.584,3.19.834.419-1.324-1.983-2.328-4.755-3.487-2.171-.907-4.62-1.931-5.964-3.286l-.041.617h-.2l-.041-.617c-1.344,1.355-3.793,2.379-5.964,3.286-2.772,1.159-5.174,2.163-4.755,3.487,1.077-.251,2.151-.547,3.19-.834a30.9,30.9,0,0,1,7.668-1.448" transform="translate(-1886.262 -1606.285)" fill="#3e3938"/>
        <path id="Trazado_229798" data-name="Trazado 229798" d="M2168.682,1770.867l-1.522.462c.508,1.669.677,5.366,1.522,5.13.845.237,1.015-3.461,1.533-5.13Z" transform="translate(-2004.171 -1637.683)" fill="#595757" fill-rule="evenodd"/>
        <path id="Trazado_229799" data-name="Trazado 229799" d="M2167.071,1775.283a.372.372,0,0,1-.2-.061c-.449-.286-.671-1.611-.906-3.014a19.115,19.115,0,0,0-.433-2.136l-.029-.1,1.647-.5,1.659.5-.03.1a18.738,18.738,0,0,0-.446,2.161c-.236,1.391-.458,2.7-.905,2.988a.366.366,0,0,1-.278.053.378.378,0,0,1-.077.008m.077-.215.027.008a.168.168,0,0,0,.144-.023c.372-.235.607-1.626.815-2.853a20.673,20.673,0,0,1,.423-2.091l-1.408-.425-1.4.425c.159.561.287,1.325.411,2.065.207,1.238.442,2.641.816,2.878a.168.168,0,0,0,.144.023Z" transform="translate(-2002.637 -1636.397)" fill="#595757"/>
        <rect id="Rectángulo_50653" data-name="Rectángulo 50653" width="2.187" height="22.412" transform="translate(163.417 109.272)" fill="#424143"/>
        <path id="Trazado_229800" data-name="Trazado 229800" d="M2173.913,1474.21h-2.387V1451.6h2.387Zm-2.187-.2h1.987V1451.8h-1.987Z" transform="translate(-2008.209 -1342.426)" fill="#424143"/>
        <path id="Trazado_229801" data-name="Trazado 229801" d="M2046.062,1405.261h15.4a3.162,3.162,0,1,1,0,6.324h-15.4a3.162,3.162,0,1,1,0-6.324" transform="translate(-1889.251 -1299.574)" fill="#84b2fe" fill-rule="evenodd"/>
        <path id="Trazado_229802" data-name="Trazado 229802" d="M2060.231,1410.454h-15.4a3.262,3.262,0,1,1,0-6.525h15.4a3.262,3.262,0,1,1,0,6.525m-15.4-6.325a3.062,3.062,0,1,0,0,6.124h15.4a3.062,3.062,0,1,0,0-6.124Z" transform="translate(-1888.02 -1298.342)" fill="#84b2fe"/>
        <path id="Trazado_229803" data-name="Trazado 229803" d="M1717.224,1147.58q-1.484-.8-2.98-1.6c-1.893.515-4.878.606-5.685,1.544-1.332,1.31-5.359,4.672-4.238,4.7l4.77-2.745c.961.074,1.315.783,2.877.229a7.512,7.512,0,0,0,1.716-1.424Z" transform="translate(-1575.963 -1059.797)" fill="#f9b995" fill-rule="evenodd"/>
        <path id="Trazado_229804" data-name="Trazado 229804" d="M1833.848,953.17l-3.191,4.867c-1.721,2.368-4.032,3.157-7.034,3.231l-16.19.749-.646-3.786,18.049-3.769,5.1-9.785c3.271-4.358,8.87,1.784,3.912,8.493" transform="translate(-1670.901 -872.279)" fill="#2c7efe" fill-rule="evenodd"/>
        <path id="Trazado_229805" data-name="Trazado 229805" d="M1842.9,1772.936c-.778.349-1.556.692-2.333,1.041-3.145,1.5-11.621.635-9.43,4.506l14.9-.526a4.651,4.651,0,0,0-.858-3.929Z" transform="translate(-1693.092 -1639.597)" fill="#2c7efe" fill-rule="evenodd"/>
        <path id="Trazado_229806" data-name="Trazado 229806" d="M1965.159,1755.827l-4.7.3.034,2.03c1.258,1.544,3.077.034,4.609.052Z" transform="translate(-1813.021 -1623.774)" fill="#f9b995" fill-rule="evenodd"/>
        <path id="Trazado_229807" data-name="Trazado 229807" d="M1942.819,1194.346c1.39,1.024,3.677,2.019,5.067,3.048,1.4,12.215-1.51,18.752-17.488,17.877.555,6.937-.875,18.163-1.744,22.229l-7.36.389-1.161-18.312c.189-4.158-2.425-7.932,5.261-12.273l8.973-4.729Z" transform="translate(-1775.463 -1104.521)" fill="#2c7efe" fill-rule="evenodd"/>
        <path id="Trazado_229808" data-name="Trazado 229808" d="M2071.944,934.149c1.109-.154,2.261-.8,3.323-.457,8.338,2.673,11.792,18.22,10.46,30.218-.023,2.911-10.345-.429-13.674-2.476-1.9-7.44-6.348-25.455-.108-27.285" transform="translate(-1913.148 -863.38)" fill="#e05f81" fill-rule="evenodd"/>
        <path id="Trazado_229809" data-name="Trazado 229809" d="M1706.5,1179.318q-1.416-.927-2.825-1.853c-1.939.349-4.918.177-5.8,1.041-1.441,1.2-5.742,4.192-4.632,4.318l4.993-2.322c.949.16,1.241.9,2.848.48a7.739,7.739,0,0,0,1.836-1.264Z" transform="translate(-1565.727 -1088.91)" fill="#f9b995" fill-rule="evenodd"/>
        <path id="Trazado_229810" data-name="Trazado 229810" d="M1848.828,980.4l-3.191,4.861c-1.716,2.368-4.032,3.163-7.028,3.237l-16.19.743-.652-3.786,18.049-3.763,5.107-9.791c3.266-4.358,8.864,1.784,3.906,8.5" transform="translate(-1684.754 -897.454)" fill="#84b2fe" fill-rule="evenodd"/>
        <path id="Trazado_229811" data-name="Trazado 229811" d="M2071.434,863.576l-3.924,2.8c.561,1.7,1.129,3.417,1.712,5.107,1.186,2.9,4.006-1.006,4.218-1.412Z" transform="translate(-1912.016 -798.628)" fill="#e5997a" fill-rule="evenodd"/>
        <path id="Trazado_229812" data-name="Trazado 229812" d="M1968.231,751.325l-11.1,2.964c1.954,3.963,3.936,11.378,5.877,11.858,1.318.728,5.8-.923,6.952-2.484,1.16-1.226-.627-7.948-1.725-12.338" transform="translate(-1809.935 -694.819)" fill="#efad8d" fill-rule="evenodd"/>
        <path id="Trazado_229813" data-name="Trazado 229813" d="M1948.2,712.814c-1.243-.492-7.2,3.371-8.52,3.032-3.5-.532-1.568-.831-1.647-4.138-.254-2.028,1.438-1.418,6.616-3.393,1.15-.416,2.5.8,3.09,1.209,2.114-.044,3.448-.413,4.059,1.215.738,1.953.017,5.33.04,8-2.483-1.583-1.595-5.274-3.639-5.928" transform="translate(-1791.848 -654.965)" fill="#1a164f" fill-rule="evenodd"/>
        <path id="Trazado_229814" data-name="Trazado 229814" d="M2086.037,786.217l-.709-2.014a1.075,1.075,0,0,1,1.764-.844c.792,1.051-.342,3.049-1.055,2.858" transform="translate(-1928.486 -724.192)" fill="#efad8d" fill-rule="evenodd"/>
        <path id="Trazado_229815" data-name="Trazado 229815" d="M1998.635,873.5c-3.037,1.637-5.554-.665-6.165-4.662.488-.6,5.061,2.929,8.585-1.829l.512.931c1.2,2.719-.75,4.662-2.933,5.56" transform="translate(-1842.62 -801.807)" fill="#1a164f" fill-rule="evenodd"/>
        <path id="Trazado_229816" data-name="Trazado 229816" d="M2072.413,759.824l1.262,1.241,1.835,8.633c-.658.442-1.3.854-1.959,1.3.672-3.075-.217-6.88-1.138-11.17" transform="translate(-1916.55 -702.679)" fill="#1e194e" fill-rule="evenodd"/>
        <path id="Trazado_229817" data-name="Trazado 229817" d="M2027.976,921.328a5.556,5.556,0,0,0,2.959-.477c-.962,1.4-1.881,1.191-2.959.477" transform="translate(-1875.455 -851.596)" fill="#fff" fill-rule="evenodd"/>
        <path id="Trazado_229818" data-name="Trazado 229818" d="M1504.028,1230.618H1475.5a.666.666,0,0,0-.666.666v1.013a.666.666,0,0,0,.666.666h28.523a.666.666,0,0,0,.666-.666v-1.013a.666.666,0,0,0-.666-.666" transform="translate(-1363.919 -1138.066)" fill="#00aeef" fill-rule="evenodd"/>
        <path id="Trazado_229819" data-name="Trazado 229819" d="M1290.137,1006.024c3.294.034,6.576.08,9.846.115,3.248.034,6.5.08,9.731.115a4.384,4.384,0,0,1,3.511,2.594q1.446,3.356,2.9,6.748c.987,2.284,1.974,4.59,2.984,6.908.631,1.492.046,2.708-1.32,2.708h-20.14a4.371,4.371,0,0,1-3.615-2.743q-1.36-3.546-2.708-7.023-1.343-3.443-2.662-6.851c-.551-1.435.115-2.582,1.469-2.571" transform="translate(-1191.57 -930.363)" fill="#62caeb" fill-rule="evenodd"/>
        <path id="Trazado_229820" data-name="Trazado 229820" d="M1317.211,1024.662h-20.14a4.406,4.406,0,0,1-3.66-2.774q-1.061-2.765-2.115-5.488l-.593-1.535q-.819-2.1-1.627-4.185-.518-1.336-1.036-2.666a2.121,2.121,0,0,1,.091-1.976,1.638,1.638,0,0,1,1.4-.661h.02q2.5.026,4.992.058,2.431.03,4.854.057,2.451.026,4.9.058,2.418.03,4.831.057a4.421,4.421,0,0,1,3.556,2.623q.618,1.436,1.238,2.878.829,1.929,1.666,3.87.526,1.218,1.053,2.444c.629,1.46,1.279,2.97,1.93,4.464a2.26,2.26,0,0,1-.008,2.123,1.554,1.554,0,0,1-1.356.653m-27.676-19.187a1.544,1.544,0,0,0-1.324.619,2.026,2.026,0,0,0-.08,1.885q.517,1.33,1.035,2.666.81,2.086,1.627,4.185l.593,1.535q1.052,2.723,2.115,5.488a4.3,4.3,0,0,0,3.57,2.712h20.14a1.462,1.462,0,0,0,1.275-.61,2.168,2.168,0,0,0,0-2.031c-.651-1.493-1.3-3-1.93-4.464q-.528-1.226-1.054-2.444-.837-1.94-1.666-3.87-.62-1.442-1.238-2.878a4.315,4.315,0,0,0-3.467-2.564q-2.412-.025-4.831-.057-2.448-.03-4.9-.058-2.423-.025-4.855-.057-2.491-.031-4.991-.058h-.019Z" transform="translate(-1190.988 -929.765)" fill="#62caeb"/>
        <path id="Trazado_229821" data-name="Trazado 229821" d="M1442.165,1086.436c.448.184.907.356,1.366.528s.9.344,1.354.516c.241.436.493.861.735,1.285s.493.849.734,1.262l-.31,1.239c-.1.4-.2.8-.3,1.193-.367.172-.734.333-1.1.493s-.723.321-1.079.47c-.425-.149-.849-.31-1.262-.47s-.849-.31-1.274-.47c-.241-.39-.493-.78-.746-1.182s-.516-.792-.769-1.193l.206-1.239c.069-.425.138-.861.207-1.285.367-.184.734-.379,1.1-.562l1.136-.585" transform="translate(-1331.251 -1004.727)" fill="#efecec" fill-rule="evenodd"/>
        <path id="Trazado_229822" data-name="Trazado 229822" d="M1442.942,1092.821l-.017-.006c-.375-.132-.776-.281-1.264-.471-.212-.08-.424-.158-.636-.235s-.425-.155-.637-.235l-.015-.006-.009-.014c-.147-.239-.3-.477-.452-.718q-.146-.23-.294-.464l-.2-.3c-.191-.294-.385-.592-.572-.891l-.01-.016.209-1.258c.034-.212.069-.427.1-.642s.069-.43.1-.643l0-.025.022-.011c.182-.091.364-.185.546-.279s.37-.191.555-.283l1.156-.6.021.008c.447.183.913.358,1.364.527l.047.018c.432.166.864.332,1.307.5l.017.006.009.016c.147.266.3.531.449.788.1.166.191.331.285.5.158.266.312.533.465.8q.135.234.27.465l.01.017-.315,1.258c-.046.179-.09.358-.133.536-.054.222-.108.442-.165.659l-.006.022-.021.01c-.375.176-.762.345-1.1.494l-.327.144c-.253.112-.5.222-.752.327Zm-2.505-1.033c.207.078.414.154.621.229s.425.155.637.236c.48.186.875.334,1.244.464.243-.1.487-.21.734-.319l.327-.144c.334-.146.712-.311,1.08-.483.055-.209.107-.421.159-.635.043-.178.087-.357.133-.536l.305-1.22-.26-.448c-.152-.264-.306-.53-.465-.8-.094-.166-.19-.331-.286-.5-.146-.252-.3-.512-.441-.774-.437-.164-.864-.328-1.291-.492l-.047-.018c-.444-.167-.9-.339-1.346-.52l-1.116.575c-.185.093-.37.188-.555.283s-.35.181-.525.268c-.033.2-.066.411-.1.618s-.069.43-.1.643l-.2,1.221c.184.293.374.586.562.874l.2.3.294.464c.15.237.3.471.444.7" transform="translate(-1330.626 -1004.072)" fill="#efecec"/>
        <path id="Trazado_229823" data-name="Trazado 229823" d="M1181.586,1311.639l-3.927.588-5.246,39.653h1.916Z" transform="translate(-1084.238 -1212.993)" fill="#feb542" fill-rule="evenodd"/>
        <path id="Trazado_229824" data-name="Trazado 229824" d="M1930.27,1311.639l3.926.588,5.246,39.653h-1.916Z" transform="translate(-1785.097 -1212.993)" fill="#feb542" fill-rule="evenodd"/>
        <rect id="Rectángulo_50654" data-name="Rectángulo 50654" width="60.484" height="6.132" transform="translate(91.018 94.591)" fill="#ffcdad"/>
        <rect id="Rectángulo_50655" data-name="Rectángulo 50655" width="63.829" height="2.645" transform="translate(89.338 94.591)" fill="#dead73"/>
        <path id="Trazado_229825" data-name="Trazado 229825" d="M1328.073,1445.02l-.377-.177c4.127-8.8,6.959-21.643,3.985-30.474l.395-.133c1.4,4.156,1.623,9.557.646,15.617a58.788,58.788,0,0,1-4.648,15.167" transform="translate(-1227.842 -1307.874)" fill="#09a98e"/>
        <path id="Trazado_229826" data-name="Trazado 229826" d="M1103.458,1514.773c-3.122-9.207-9.972-20.427-18.238-24.738l.193-.369c3.889,2.028,7.792,5.768,11.286,10.815a58.755,58.755,0,0,1,7.155,14.158Z" transform="translate(-1003.602 -1377.631)" fill="#09a98e"/>
        <path id="Trazado_229827" data-name="Trazado 229827" d="M1231.079,1453.625l-.416-.021c.48-9.711-1.767-22.664-7.869-29.71l.315-.273c2.872,3.316,5.127,8.229,6.521,14.207a58.781,58.781,0,0,1,1.449,15.8" transform="translate(-1130.83 -1316.553)" fill="#09a98e"/>
        <path id="Trazado_229828" data-name="Trazado 229828" d="M1357.213,1377.618c-.795-.552-1.518-.748-2.083-1.631s-.577-2.394.021-2.643c.5-.286,1.752.615,2.083,1.629a5.734,5.734,0,0,1-.021,2.645" transform="translate(-1252.819 -1270.007)" fill="#16b79e" fill-rule="evenodd"/>
        <path id="Trazado_229829" data-name="Trazado 229829" d="M1344.55,1465.119a5.3,5.3,0,0,1-2.268.771c-.949-.01-2.1-.752-1.994-1.328.031-.519,1.334-1.022,2.268-.77s1.255.756,1.994,1.328" transform="translate(-1239.481 -1353.64)" fill="#16b79e" fill-rule="evenodd"/>
        <path id="Trazado_229830" data-name="Trazado 229830" d="M1397.534,1463.514a5.318,5.318,0,0,0,2.3.665c.948-.055,2.064-.849,1.93-1.42-.056-.518-1.381-.959-2.3-.663s-1.22.812-1.931,1.419" transform="translate(-1292.428 -1352.045)" fill="#16b79e" fill-rule="evenodd"/>
        <path id="Trazado_229831" data-name="Trazado 229831" d="M1347.126,1520.8a5.335,5.335,0,0,1-2.268.771c-.949-.01-2.1-.751-1.994-1.328.032-.521,1.335-1.022,2.268-.771s1.255.756,1.994,1.328" transform="translate(-1241.863 -1405.129)" fill="#16b79e" fill-rule="evenodd"/>
        <path id="Trazado_229832" data-name="Trazado 229832" d="M1400.106,1519.183a5.324,5.324,0,0,0,2.3.665c.948-.053,2.066-.847,1.931-1.418-.055-.519-1.381-.959-2.3-.665s-1.218.813-1.931,1.419" transform="translate(-1294.806 -1403.528)" fill="#16b79e" fill-rule="evenodd"/>
        <path id="Trazado_229833" data-name="Trazado 229833" d="M1343.841,1574.216a5.312,5.312,0,0,1-2.311.636c-.946-.066-2.054-.875-1.911-1.445.061-.518,1.393-.942,2.31-.634s1.207.828,1.912,1.443" transform="translate(-1238.857 -1454.392)" fill="#16b79e" fill-rule="evenodd"/>
        <path id="Trazado_229834" data-name="Trazado 229834" d="M1396.4,1576.365a5.329,5.329,0,0,0,2.258.8c.949,0,2.112-.724,2.012-1.3-.024-.52-1.322-1.04-2.259-.8s-1.264.739-2.011,1.3" transform="translate(-1291.383 -1456.549)" fill="#16b79e" fill-rule="evenodd"/>
        <path id="Trazado_229835" data-name="Trazado 229835" d="M1334.985,1629.081a5.3,5.3,0,0,1-2.349.468c-.941-.133-1.987-1.018-1.8-1.576.1-.512,1.456-.841,2.349-.468s1.146.913,1.8,1.576" transform="translate(-1230.723 -1504.955)" fill="#16b79e" fill-rule="evenodd"/>
        <path id="Trazado_229836" data-name="Trazado 229836" d="M1386.809,1635.775a5.309,5.309,0,0,0,2.2.958c.946.071,2.157-.571,2.1-1.154.014-.522-1.244-1.133-2.195-.959a5.191,5.191,0,0,0-2.1,1.155" transform="translate(-1282.509 -1511.655)" fill="#16b79e" fill-rule="evenodd"/>
        <path id="Trazado_229837" data-name="Trazado 229837" d="M1325.12,1675.586a5.335,5.335,0,0,1-2.392.134c-.912-.263-1.823-1.287-1.566-1.814.17-.494,1.56-.627,2.392-.134s1.007,1.064,1.565,1.814" transform="translate(-1221.759 -1547.605)" fill="#16b79e" fill-rule="evenodd"/>
        <path id="Trazado_229838" data-name="Trazado 229838" d="M1374.832,1691.2a5.337,5.337,0,0,0,2.04,1.257c.926.2,2.217-.264,2.239-.851.086-.514-1.073-1.293-2.039-1.257a5.186,5.186,0,0,0-2.241.851" transform="translate(-1271.433 -1563.216)" fill="#16b79e" fill-rule="evenodd"/>
        <path id="Trazado_229839" data-name="Trazado 229839" d="M1045.635,1473.071a5.867,5.867,0,0,1-2.63.268c-1.019-.244-2.076-1.328-1.818-1.921.162-.552,1.689-.77,2.63-.268s1.163,1.123,1.818,1.921" transform="translate(-962.844 -1360.246)" fill="#16b79e" fill-rule="evenodd"/>
        <path id="Trazado_229840" data-name="Trazado 229840" d="M1099.2,1531.045a5.308,5.308,0,0,1-1.1,2.126c-.689.651-2.036.915-2.358.423-.337-.4.255-1.662,1.1-2.126a5.174,5.174,0,0,1,2.358-.423" transform="translate(-1013.243 -1415.898)" fill="#16b79e" fill-rule="evenodd"/>
        <path id="Trazado_229841" data-name="Trazado 229841" d="M1143.19,1486.684a5.335,5.335,0,0,0,2.119-1.116c.647-.694.9-2.041.409-2.36-.4-.336-1.66.264-2.119,1.115a5.189,5.189,0,0,0-.409,2.362" transform="translate(-1057.213 -1371.571)" fill="#16b79e" fill-rule="evenodd"/>
        <path id="Trazado_229842" data-name="Trazado 229842" d="M1139.637,1569.385a5.325,5.325,0,0,1-1.1,2.128c-.691.651-2.036.915-2.358.423-.339-.4.253-1.661,1.1-2.126a5.2,5.2,0,0,1,2.358-.425" transform="translate(-1050.638 -1451.354)" fill="#16b79e" fill-rule="evenodd"/>
        <path id="Trazado_229843" data-name="Trazado 229843" d="M1183.611,1525.043a5.313,5.313,0,0,0,2.121-1.115c.646-.694.9-2.042.408-2.36-.4-.336-1.66.264-2.12,1.115a5.2,5.2,0,0,0-.409,2.36" transform="translate(-1094.594 -1407.046)" fill="#16b79e" fill-rule="evenodd"/>
        <path id="Trazado_229844" data-name="Trazado 229844" d="M1173.691,1611.847a5.316,5.316,0,0,1-1.227,2.058c-.728.609-2.086.792-2.379.283-.315-.416.352-1.645,1.226-2.058a5.181,5.181,0,0,1,2.379-.283" transform="translate(-1082.013 -1490.623)" fill="#16b79e" fill-rule="evenodd"/>
        <path id="Trazado_229845" data-name="Trazado 229845" d="M1219.267,1569.177a5.309,5.309,0,0,0,2.182-.986c.687-.656,1.021-1.986.547-2.333-.378-.359-1.673.165-2.182.988a5.182,5.182,0,0,0-.548,2.331" transform="translate(-1127.568 -1447.987)" fill="#16b79e" fill-rule="evenodd"/>
        <path id="Trazado_229846" data-name="Trazado 229846" d="M1204.672,1658.682c-.458.748-.6,1.41-1.368,1.966s-2.138.642-2.394.112c-.284-.437.468-1.614,1.37-1.965a5.185,5.185,0,0,1,2.392-.114" transform="translate(-1110.535 -1533.857)" fill="#16b79e" fill-rule="evenodd"/>
        <path id="Trazado_229847" data-name="Trazado 229847" d="M1252,1619.245a5.336,5.336,0,0,0,2.248-.83c.73-.6,1.159-1.907.712-2.288-.351-.384-1.68.047-2.247.83a5.2,5.2,0,0,0-.712,2.288" transform="translate(-1157.838 -1494.449)" fill="#16b79e" fill-rule="evenodd"/>
        <path id="Trazado_229848" data-name="Trazado 229848" d="M1228.761,1701.267c-.558.675-.792,1.313-1.631,1.755s-2.207.334-2.385-.224c-.221-.472.69-1.534,1.631-1.755a5.171,5.171,0,0,1,2.385.224" transform="translate(-1132.604 -1573.037)" fill="#16b79e" fill-rule="evenodd"/>
        <path id="Trazado_229849" data-name="Trazado 229849" d="M1278.919,1669.141a5.316,5.316,0,0,0,2.341-.507c.809-.5,1.417-1.725,1.026-2.165-.294-.43-1.67-.189-2.341.507a5.174,5.174,0,0,0-1.026,2.165" transform="translate(-1182.734 -1540.938)" fill="#16b79e" fill-rule="evenodd"/>
        <path id="Trazado_229850" data-name="Trazado 229850" d="M1189.893,1396.727a5.865,5.865,0,0,1-2.545-.717c-.857-.6-1.442-2-.984-2.454.354-.454,1.854-.1,2.545.717a5.732,5.732,0,0,1,.984,2.454" transform="translate(-1096.992 -1288.565)" fill="#4fbd9d" fill-rule="evenodd"/>
        <path id="Trazado_229851" data-name="Trazado 229851" d="M1211.76,1476.262c-.626.612-.926,1.221-1.808,1.573s-2.23.1-2.348-.472c-.17-.494.846-1.453,1.806-1.574a5.193,5.193,0,0,1,2.35.474" transform="translate(-1116.765 -1364.774)" fill="#4fbd9d" fill-rule="evenodd"/>
        <path id="Trazado_229852" data-name="Trazado 229852" d="M1263.484,1450.2a5.283,5.283,0,0,0,2.381-.258c.856-.408,1.589-1.566,1.248-2.044-.248-.46-1.643-.365-2.382.257a5.2,5.2,0,0,0-1.248,2.045" transform="translate(-1168.46 -1338.737)" fill="#4fbd9d" fill-rule="evenodd"/>
        <path id="Trazado_229853" data-name="Trazado 229853" d="M1235.253,1526.788c-.626.614-.925,1.223-1.806,1.574s-2.23.1-2.349-.472c-.168-.494.848-1.453,1.808-1.574a5.182,5.182,0,0,1,2.348.472" transform="translate(-1138.492 -1411.501)" fill="#4fbd9d" fill-rule="evenodd"/>
        <path id="Trazado_229854" data-name="Trazado 229854" d="M1286.973,1500.731a5.286,5.286,0,0,0,2.381-.258c.857-.408,1.59-1.567,1.248-2.045-.247-.459-1.641-.364-2.381.258a5.2,5.2,0,0,0-1.248,2.045" transform="translate(-1190.182 -1385.468)" fill="#4fbd9d" fill-rule="evenodd"/>
        <path id="Trazado_229855" data-name="Trazado 229855" d="M1252.149,1577.89c-.662.574-1,1.165-1.9,1.463s-2.231-.03-2.315-.611c-.139-.5.932-1.4,1.9-1.463a5.17,5.17,0,0,1,2.317.611" transform="translate(-1154.069 -1458.648)" fill="#4fbd9d" fill-rule="evenodd"/>
        <path id="Trazado_229856" data-name="Trazado 229856" d="M1304.509,1555.409a5.316,5.316,0,0,0,2.393-.117c.88-.357,1.68-1.47,1.368-1.968-.221-.473-1.618-.461-2.393.117s-.89,1.164-1.368,1.968" transform="translate(-1206.399 -1436.189)" fill="#4fbd9d" fill-rule="evenodd"/>
        <path id="Trazado_229857" data-name="Trazado 229857" d="M1264.408,1632.517c-.7.526-1.077,1.091-2,1.325s-2.224-.19-2.266-.775c-.1-.511,1.029-1.33,2-1.325a5.2,5.2,0,0,1,2.268.775" transform="translate(-1165.365 -1509.022)" fill="#4fbd9d" fill-rule="evenodd"/>
        <path id="Trazado_229858" data-name="Trazado 229858" d="M1317.343,1614.508a5.3,5.3,0,0,0,2.394.053c.9-.293,1.78-1.346,1.5-1.864-.184-.486-1.58-.575-2.395-.055s-.97,1.1-1.5,1.866" transform="translate(-1218.268 -1491.033)" fill="#4fbd9d" fill-rule="evenodd"/>
        <path id="Trazado_229859" data-name="Trazado 229859" d="M1272.4,1680.431a5.307,5.307,0,0,1-2.162,1.031c-.944.1-2.177-.5-2.136-1.085-.031-.519,1.205-1.172,2.162-1.031a5.186,5.186,0,0,1,2.136,1.085" transform="translate(-1172.729 -1553.028)" fill="#4fbd9d" fill-rule="evenodd"/>
        <path id="Trazado_229860" data-name="Trazado 229860" d="M1325.723,1671.352a5.334,5.334,0,0,0,2.363.389c.935-.165,1.953-1.084,1.751-1.636-.116-.509-1.484-.792-2.364-.389s-1.115.95-1.751,1.636" transform="translate(-1226.018 -1543.963)" fill="#4fbd9d" fill-rule="evenodd"/>
        <path id="Trazado_229861" data-name="Trazado 229861" d="M1289.531,1813.729l1.606,2.207,1.606,2.213h-6.422l1.605-2.213Z" transform="translate(-1189.578 -1677.321)" fill="#154a9a" fill-rule="evenodd"/>
        <path id="Trazado_229862" data-name="Trazado 229862" d="M1233.45,1763.5a8.546,8.546,0,0,1-16.919,0Z" transform="translate(-1125.038 -1630.873)" fill="#4b76ba" fill-rule="evenodd"/>
        <path id="Trazado_229863" data-name="Trazado 229863" d="M1235.283,1775.879a7.054,7.054,0,0,1-5.71-6.165h.817a8.051,8.051,0,0,0,4.893,6.165" transform="translate(-1137.099 -1636.617)" fill="#fff" fill-rule="evenodd"/>
        <path id="Trazado_229864" data-name="Trazado 229864" d="M2042.569,270.27l17.584.056a2.051,2.051,0,0,1,2.037,2.05l-.038,12.563a2.055,2.055,0,0,1-2.057,2.039l-17.583-.056a2.048,2.048,0,0,1-2.035-2.055l.035-12.559a2.055,2.055,0,0,1,2.057-2.039" transform="translate(-1887.016 -249.944)" fill="#4b76ba" fill-rule="evenodd"/>
        <path id="Trazado_229865" data-name="Trazado 229865" d="M2059.149,286.1h-.006l-17.584-.056a2.125,2.125,0,0,1-2.112-2.132l.035-12.559a2.13,2.13,0,0,1,2.128-2.117h.006l17.583.056a2.124,2.124,0,0,1,2.115,2.128l-.038,12.563a2.13,2.13,0,0,1-2.128,2.116M2041.611,269.4a1.975,1.975,0,0,0-1.974,1.962l-.035,12.559a1.971,1.971,0,0,0,1.958,1.977l17.583.056h.006a1.975,1.975,0,0,0,1.974-1.962l.038-12.563a1.969,1.969,0,0,0-1.96-1.973l-17.584-.056h-.006" transform="translate(-1886.064 -248.992)" fill="#fff"/>
        <path id="Trazado_229866" data-name="Trazado 229866" d="M2041.066,362.215l8.448-6.633a3.078,3.078,0,0,1,3.614.052l8.306,6.6a2.055,2.055,0,0,1,.679.928v.15a2.055,2.055,0,0,1-2.057,2.039l-17.583-.056a2.048,2.048,0,0,1-2.035-2.055l0-.175a1.919,1.919,0,0,1,.631-.856" transform="translate(-1886.977 -328.321)" fill="#4b76ba" fill-rule="evenodd"/>
        <path id="Trazado_229867" data-name="Trazado 229867" d="M2059.108,364.474h-.007l-17.583-.056a2.125,2.125,0,0,1-2.112-2.132l0-.187,0-.013a2.008,2.008,0,0,1,.656-.89h0l8.448-6.633a3.153,3.153,0,0,1,3.71.053l8.306,6.6a2.144,2.144,0,0,1,.7.963l0,.012v.163a2.131,2.131,0,0,1-2.128,2.117m-19.55-2.35,0,.161a1.971,1.971,0,0,0,1.958,1.979l17.583.056h.006a1.975,1.975,0,0,0,1.973-1.962v-.137a2,2,0,0,0-.65-.881l-8.306-6.6a2.99,2.99,0,0,0-3.519-.052l-8.448,6.633a1.857,1.857,0,0,0-.6.808" transform="translate(-1886.022 -327.362)" fill="#fff"/>
        <path id="Trazado_229868" data-name="Trazado 229868" d="M2064.8,271.533a2.072,2.072,0,0,1-.448.487l-8.446,6.628a3.064,3.064,0,0,1-3.614-.052l-8.306-6.6a2.143,2.143,0,0,1-.493-.538,2.052,2.052,0,0,1,1.866-1.185l17.583.056a2.046,2.046,0,0,1,1.858,1.208" transform="translate(-1889.802 -249.943)" fill="#4b76ba" fill-rule="evenodd"/>
        <path id="Trazado_229869" data-name="Trazado 229869" d="M2053.062,278.339a3.072,3.072,0,0,1-1.908-.634l-8.306-6.6a2.23,2.23,0,0,1-.51-.556l-.023-.036.018-.039a2.132,2.132,0,0,1,1.922-1.229h.014l17.583.056a2.125,2.125,0,0,1,1.928,1.253l.017.038-.023.035a2.15,2.15,0,0,1-.464.506l-8.447,6.629a2.936,2.936,0,0,1-1.8.581m-10.57-7.842a2.04,2.04,0,0,0,.452.483l8.307,6.6a2.976,2.976,0,0,0,3.518.052l8.446-6.628a2.033,2.033,0,0,0,.407-.433,1.969,1.969,0,0,0-1.77-1.124l-17.584-.056h-.013a1.976,1.976,0,0,0-1.764,1.1" transform="translate(-1888.716 -248.991)" fill="#fff"/>
        <path id="Trazado_229870" data-name="Trazado 229870" d="M2256.221,220.9a4.872,4.872,0,1,1-4.872-4.872,4.872,4.872,0,0,1,4.872,4.872" transform="translate(-2077.523 -199.785)" fill="#d75b7e"/>
        <path id="Trazado_229871" data-name="Trazado 229871" d="M2298.33,238.8h-1.076v-.73a2.7,2.7,0,0,0,.707-.075.886.886,0,0,0,.426-.248,1.52,1.52,0,0,0,.281-.5h.693V243.8h-1.03Z" transform="translate(-2124.481 -219.407)" fill="#fff"/>
      </g>
    </g>
  </g>
</svg>
