<svg xmlns="http://www.w3.org/2000/svg" xmlns:xlink="http://www.w3.org/1999/xlink" width="314.764" height="309.672" viewBox="0 0 314.764 309.672">
  <defs>
    <clipPath id="clip-path">
      <rect id="Rectángulo_50192" data-name="Rectángulo 50192" width="314.764" height="309.672" fill="none"/>
    </clipPath>
    <clipPath id="clip-path-6">
      <rect id="Rectángulo_50180" data-name="Rectángulo 50180" width="104.664" height="42.759" fill="none"/>
    </clipPath>
    <clipPath id="clip-path-8">
      <rect id="Rectángulo_50183" data-name="Rectángulo 50183" width="9.541" height="10.442" fill="none"/>
    </clipPath>
    <clipPath id="clip-path-9">
      <rect id="Rectángulo_50184" data-name="Rectángulo 50184" width="9.54" height="10.442" fill="none"/>
    </clipPath>
    <clipPath id="clip-path-15">
      <rect id="Rectángulo_50190" data-name="Rectángulo 50190" width="8.822" height="10.404" fill="none"/>
    </clipPath>
  </defs>
  <g id="Grupo_117832" data-name="Grupo 117832" transform="translate(-857.618 -14861.664)">
    <g id="Grupo_114964" data-name="Grupo 114964" transform="translate(857.618 14861.664)">
      <g id="Grupo_114963" data-name="Grupo 114963" clip-path="url(#clip-path)">
        <rect id="Rectángulo_50170" data-name="Rectángulo 50170" width="69.795" height="72.754" transform="translate(15.967)" fill="#e0e0e0"/>
        <rect id="Rectángulo_50171" data-name="Rectángulo 50171" width="69.794" height="72.754" transform="translate(11.241)" fill="#ebebeb"/>
        <rect id="Rectángulo_50172" data-name="Rectángulo 50172" width="51.029" height="53.194" transform="translate(20.623 9.781)" fill="#fff"/>
        <g id="Grupo_114927" data-name="Grupo 114927">
          <g id="Grupo_114926" data-name="Grupo 114926" clip-path="url(#clip-path)">
            <path id="Trazado_228631" data-name="Trazado 228631" d="M25.168,88.772a9.748,9.748,0,0,1-1.275,1.446c-.82.855-1.967,2.017-3.252,3.281s-2.461,2.395-3.327,3.2a9.532,9.532,0,0,1-1.458,1.246,9.559,9.559,0,0,1,1.27-1.44c.819-.855,1.97-2.019,3.257-3.287s2.466-2.4,3.332-3.2a9.386,9.386,0,0,1,1.452-1.241" transform="translate(-4.544 -25.444)" fill="#e0e0e0"/>
            <path id="Trazado_228632" data-name="Trazado 228632" d="M100.442,88.589a9.785,9.785,0,0,1,1.446,1.276c.855.819,2.017,1.967,3.281,3.251s2.395,2.461,3.2,3.327a9.574,9.574,0,0,1,1.246,1.458,9.507,9.507,0,0,1-1.44-1.27c-.855-.819-2.019-1.969-3.287-3.257s-2.4-2.466-3.2-3.332a9.346,9.346,0,0,1-1.241-1.452" transform="translate(-28.789 -25.392)" fill="#e0e0e0"/>
            <path id="Trazado_228633" data-name="Trazado 228633" d="M100.247,10.223a9.7,9.7,0,0,1,1.275-1.446c.82-.855,1.967-2.017,3.252-3.281S107.235,3.1,108.1,2.3a9.533,9.533,0,0,1,1.458-1.246,9.574,9.574,0,0,1-1.269,1.44c-.82.855-1.97,2.019-3.258,3.287s-2.466,2.4-3.332,3.2a9.386,9.386,0,0,1-1.452,1.241" transform="translate(-28.734 -0.301)" fill="#e0e0e0"/>
            <path id="Trazado_228634" data-name="Trazado 228634" d="M25.028,10.35a9.689,9.689,0,0,1-1.446-1.276c-.855-.819-2.017-1.967-3.281-3.251S17.906,3.362,17.1,2.5a9.533,9.533,0,0,1-1.246-1.458A9.574,9.574,0,0,1,17.3,2.307c.855.82,2.019,1.97,3.287,3.258s2.4,2.466,3.2,3.332a9.386,9.386,0,0,1,1.241,1.452" transform="translate(-4.544 -0.297)" fill="#e0e0e0"/>
            <path id="Trazado_228635" data-name="Trazado 228635" d="M79.723,66.828s-.006-.09-.009-.257-.006-.422-.01-.74c0-.662-.011-1.621-.019-2.869-.01-2.515-.025-6.18-.044-10.837-.021-9.314-.05-22.592-.085-38.49l.167.167-50.885.024h0l.192-.191c-.01,19.524-.019,37.791-.027,53.194l-.165-.165,36.857.085,10.347.043,2.735.019.706.009c.159,0,.245.009.245.009s-.073.006-.227.009l-.688.009-2.7.019-10.31.043-36.962.084h-.164v-.165c-.008-15.4-.018-33.67-.027-53.194v-.192h.2l50.885.025h.167v.167c-.035,15.942-.064,29.256-.085,38.6-.019,4.642-.034,8.294-.044,10.8-.009,1.233-.015,2.182-.02,2.836,0,.311-.007.55-.009.723s-.009.238-.009.238" transform="translate(-8.209 -3.853)" fill="#e0e0e0"/>
            <path id="Trazado_228636" data-name="Trazado 228636" d="M47.781,44.862s-1.093,13.17,13.17,13.17c0-7.028-5.8-12.577-13.17-13.17" transform="translate(-13.69 -12.859)" fill="#ebebeb"/>
            <path id="Trazado_228637" data-name="Trazado 228637" d="M79.083,44.868s-13.17-1.093-13.17,13.17c7.028,0,12.577-5.8,13.17-13.17" transform="translate(-18.893 -12.855)" fill="#ebebeb"/>
            <path id="Trazado_228638" data-name="Trazado 228638" d="M63.512,34.771s-10.76,9.658.589,20.369c5.278-5.591,4.83-14.361-.589-20.369" transform="translate(-16.882 -9.966)" fill="#e0e0e0"/>
            <path id="Trazado_228639" data-name="Trazado 228639" d="M361.525,1.292V71.845H260.192l-3.651-70.06Z" transform="translate(-73.533 -0.37)" fill="#e0e0e0"/>
            <rect id="Rectángulo_50173" data-name="Rectángulo 50173" width="101.333" height="69.912" transform="translate(183.008 1.415)" fill="#fff"/>
            <path id="Trazado_228640" data-name="Trazado 228640" d="M358.162,72.182H255.867V1.31H358.162Zm-101.333-.962H357.2V2.271H256.829Z" transform="translate(-73.339 -0.375)" fill="#e0e0e0"/>
            <rect id="Rectángulo_50174" data-name="Rectángulo 50174" width="79.384" height="52.54" transform="translate(193.983 10.101)" fill="#fff"/>
            <path id="Trazado_228641" data-name="Trazado 228641" d="M351.208,14.066s-.136.009-.392.014l-1.129.014-4.359.028-16.359.062-57.144.113.229-.23c.006,16.052.014,33.839.021,52.533v.006l-.25-.25,79.383.051-.2.2c.044-15.989.08-29.1.1-38.227.022-4.563.039-8.127.051-10.571q.014-1.811.022-2.778c.007-.629.021-.964.021-.964s.014.306.021.922q.008.952.022,2.741c.012,2.433.029,5.983.051,10.526.025,9.159.061,22.311.1,38.351v.2h-.2l-79.383.051h-.25V66.6c.007-18.695.014-36.481.021-52.533v-.23h.23l57.295.113,16.307.062,4.314.028,1.1.014c.246,0,.365.014.365.014" transform="translate(-77.842 -3.966)" fill="#e0e0e0"/>
            <path id="Trazado_228642" data-name="Trazado 228642" d="M256.54,1.706a8.528,8.528,0,0,1,1.742,1.129c1.037.749,2.448,1.81,3.973,3.03s2.865,2.375,3.809,3.239a8.25,8.25,0,0,1,1.452,1.485c-.094.106-2.53-1.9-5.574-4.333a55.287,55.287,0,0,1-5.4-4.549" transform="translate(-73.532 -0.488)" fill="#e0e0e0"/>
            <path id="Trazado_228643" data-name="Trazado 228643" d="M394.179,1.981a49.21,49.21,0,0,1-5.332,4.539,49.16,49.16,0,0,1-5.643,4.148,49.239,49.239,0,0,1,5.332-4.54,49.375,49.375,0,0,1,5.643-4.147" transform="translate(-109.838 -0.567)" fill="#e0e0e0"/>
            <path id="Trazado_228644" data-name="Trazado 228644" d="M393.938,96.32l-11.3-9.158" transform="translate(-109.677 -24.983)" fill="#fff"/>
            <path id="Trazado_228645" data-name="Trazado 228645" d="M382.639,87.161a52.973,52.973,0,0,1,5.807,4.384,53.014,53.014,0,0,1,5.492,4.774,53.115,53.115,0,0,1-5.807-4.384,53.15,53.15,0,0,1-5.492-4.773" transform="translate(-109.676 -24.982)" fill="#e0e0e0"/>
            <path id="Trazado_228646" data-name="Trazado 228646" d="M256.54,96.531a48.147,48.147,0,0,1,5.276-4.492,48.051,48.051,0,0,1,5.587-4.1,48.211,48.211,0,0,1-5.277,4.492,48.109,48.109,0,0,1-5.586,4.1" transform="translate(-73.532 -25.205)" fill="#e0e0e0"/>
            <rect id="Rectángulo_50175" data-name="Rectángulo 50175" width="49.949" height="17.592" transform="translate(210.101 26.47)" fill="#e0e0e0"/>
            <path id="Trazado_228647" data-name="Trazado 228647" d="M14.319,333.136S1.6,267.265,1.576,253.715C1.536,234.963,15.891,227.5,15.891,227.5l-5.578-15.907H40.994l-4.844,15.8s16.156,8.564,13.9,28.015c-4.212,36.365-10.926,77.736-10.926,77.736Z" transform="translate(-0.452 -60.648)" fill="#f5f5f5"/>
            <path id="Trazado_228648" data-name="Trazado 228648" d="M44.429,244.293a1.942,1.942,0,0,1-.342-.026,8.075,8.075,0,0,0-1-.045,9.6,9.6,0,0,0-3.725.818,13.092,13.092,0,0,0-4.78,3.65,22.974,22.974,0,0,0-2.2,3.092,26.967,26.967,0,0,0-1.928,3.789,11.334,11.334,0,0,0-.894,4.523,7.035,7.035,0,0,0,1.818,4.521,4.938,4.938,0,0,0,2.171,1.363,4.306,4.306,0,0,0,2.614-.068,6.147,6.147,0,0,0,3.676-3.974,5.943,5.943,0,0,0-1.283-5.5,8.976,8.976,0,0,0-5.261-3.049,12.015,12.015,0,0,0-6.343.763,19.768,19.768,0,0,0-5.7,3.476,20.053,20.053,0,0,0-6.706,11.116,13.827,13.827,0,0,0,.124,6.208,9.141,9.141,0,0,0,3.023,5.015,5.185,5.185,0,0,0,2.54,1.166,3.894,3.894,0,0,0,2.617-.516A5.389,5.389,0,0,0,25.2,276.12a5.531,5.531,0,0,0-.489-2.448,6.13,6.13,0,0,0-1.466-1.925,8.552,8.552,0,0,0-4.138-1.926,11.864,11.864,0,0,0-7.735,1.34,13.917,13.917,0,0,0-4.56,3.929,12.84,12.84,0,0,0-1.844,3.359c-.307.825-.408,1.281-.434,1.273a8.622,8.622,0,0,1,.351-1.3,12.365,12.365,0,0,1,1.789-3.431,13.964,13.964,0,0,1,4.582-4.043,12.081,12.081,0,0,1,7.907-1.43,8.857,8.857,0,0,1,4.307,1.978,6.465,6.465,0,0,1,1.559,2.03,5.881,5.881,0,0,1,.534,2.605,5.754,5.754,0,0,1-2.5,4.817,4.285,4.285,0,0,1-2.873.579,5.58,5.58,0,0,1-2.739-1.242,9.558,9.558,0,0,1-3.177-5.228,14.267,14.267,0,0,1-.14-6.394,20.455,20.455,0,0,1,6.843-11.369,20.168,20.168,0,0,1,5.826-3.55,12.417,12.417,0,0,1,6.577-.778,9.386,9.386,0,0,1,5.509,3.207,7.3,7.3,0,0,1,1.427,2.806,5.6,5.6,0,0,1-.081,3.08,6.528,6.528,0,0,1-3.939,4.222,4.685,4.685,0,0,1-2.847.064,5.308,5.308,0,0,1-2.329-1.474,7.377,7.377,0,0,1-1.892-4.762,11.632,11.632,0,0,1,.944-4.649,26.971,26.971,0,0,1,1.978-3.819A22.82,22.82,0,0,1,34.4,248.53a13.132,13.132,0,0,1,4.9-3.647,9.358,9.358,0,0,1,3.792-.748,5.887,5.887,0,0,1,1.341.159" transform="translate(-1.3 -69.976)" fill="#e0e0e0"/>
            <path id="Trazado_228649" data-name="Trazado 228649" d="M46.091,312.56a11.156,11.156,0,0,1-.281,3.35,14.533,14.533,0,0,1-1.345,3.717,14.2,14.2,0,0,1-3.214,4.134,13.327,13.327,0,0,1-5.614,2.948,13.7,13.7,0,0,1-7.271-.106,12.7,12.7,0,0,1-6.547-4.616,12.21,12.21,0,0,1-2.514-8.2,6.055,6.055,0,0,1,1.814-4.038,4.4,4.4,0,0,1,4.186-.828,5.249,5.249,0,0,1,3.24,2.6,5.951,5.951,0,0,1,.425,3.965,7.382,7.382,0,0,1-1.756,3.364,8.533,8.533,0,0,1-2.944,2.028,12.327,12.327,0,0,1-6.288.793,15.034,15.034,0,0,1-8.257-3.79,10.956,10.956,0,0,1-2.169-2.567.833.833,0,0,1,.15.164l.4.506a16.158,16.158,0,0,0,1.731,1.768,14.932,14.932,0,0,0,3.248,2.159,14.717,14.717,0,0,0,4.931,1.45,12.064,12.064,0,0,0,6.109-.819,8.179,8.179,0,0,0,2.8-1.954,7,7,0,0,0,1.646-3.189,5.545,5.545,0,0,0-.4-3.689,4.831,4.831,0,0,0-2.983-2.371,3.967,3.967,0,0,0-3.778.741,5.635,5.635,0,0,0-1.666,3.752,11.817,11.817,0,0,0,2.42,7.9,12.333,12.333,0,0,0,6.319,4.485,13.373,13.373,0,0,0,7.065.14,13.085,13.085,0,0,0,5.5-2.828,14.109,14.109,0,0,0,3.2-4.015,14.814,14.814,0,0,0,1.4-3.642,16.5,16.5,0,0,0,.385-2.445c.014-.262.026-.474.036-.645a.843.843,0,0,1,.027-.22" transform="translate(-2.166 -88.488)" fill="#e0e0e0"/>
            <path id="Trazado_228650" data-name="Trazado 228650" d="M43.4,356.555c-.04.085-1.374-.636-3.7-1.308a18.16,18.16,0,0,0-1.919-.458c-.692-.161-1.447-.236-2.237-.34a26.814,26.814,0,0,0-5.175.026,26.829,26.829,0,0,0-5.055,1.115c-.748.275-1.469.514-2.108.824a18.342,18.342,0,0,0-1.771.87c-2.117,1.168-3.259,2.164-3.316,2.09a4.844,4.844,0,0,1,.784-.714,9.211,9.211,0,0,1,.992-.753,14.975,14.975,0,0,1,1.388-.894,16.832,16.832,0,0,1,1.773-.931,22.322,22.322,0,0,1,2.128-.876,25.474,25.474,0,0,1,5.138-1.168,25.47,25.47,0,0,1,5.267.009,22.277,22.277,0,0,1,2.269.385,16.742,16.742,0,0,1,1.935.518,15.063,15.063,0,0,1,1.551.566,9.05,9.05,0,0,1,1.133.516,4.823,4.823,0,0,1,.922.524" transform="translate(-5.195 -101.44)" fill="#e0e0e0"/>
            <path id="Trazado_228651" data-name="Trazado 228651" d="M38.538,235.048a6.651,6.651,0,0,1-1.015.711c-.665.44-1.662,1.023-2.921,1.692a50.315,50.315,0,0,1-21.378,5.735c-1.425.051-2.58.046-3.376,0a6.775,6.775,0,0,1-1.234-.107,6.612,6.612,0,0,1,1.236-.064c.794,0,1.943-.046,3.358-.137a57.112,57.112,0,0,0,10.911-1.792,57.085,57.085,0,0,0,10.341-3.91c1.271-.63,2.286-1.169,2.976-1.562a6.663,6.663,0,0,1,1.1-.564" transform="translate(-2.469 -67.371)" fill="#e0e0e0"/>
            <path id="Trazado_228652" data-name="Trazado 228652" d="M44.859,212.546c-.006.045-.755-.07-2.114-.071a18.159,18.159,0,0,0-9.23,2.559,16.746,16.746,0,0,0-1.808,1.249,9.094,9.094,0,0,0-1.651,1.6,4.8,4.8,0,0,0-1.01,2.119,2.43,2.43,0,0,0,.708,2.176,5.21,5.21,0,0,0,2.269,1.145,5.7,5.7,0,0,0,2.6.3,1.966,1.966,0,0,0,1.4-1.858,4.578,4.578,0,0,0-.514-2.472,7.815,7.815,0,0,0-3.42-3.437,9.949,9.949,0,0,0-4.3-1.165,11.826,11.826,0,0,0-3.872.574,17.748,17.748,0,0,0-5.054,2.661c-.544.407-.957.738-1.234.965a2.586,2.586,0,0,1-.437.333,2.6,2.6,0,0,1,.379-.4c.26-.25.656-.6,1.189-1.034a16.921,16.921,0,0,1,5.061-2.821,11.968,11.968,0,0,1,3.979-.642,10.243,10.243,0,0,1,4.479,1.171,8.191,8.191,0,0,1,3.617,3.608,5,5,0,0,1,.562,2.7,2.93,2.93,0,0,1-.481,1.384,2.135,2.135,0,0,1-1.246.856,6,6,0,0,1-2.824-.3,5.6,5.6,0,0,1-2.453-1.26,2.856,2.856,0,0,1-.821-2.548,5.192,5.192,0,0,1,1.106-2.3,9.393,9.393,0,0,1,1.733-1.659,16.9,16.9,0,0,1,1.86-1.258,17.966,17.966,0,0,1,3.679-1.621,17.2,17.2,0,0,1,5.738-.795,13.021,13.021,0,0,1,1.572.138,2.574,2.574,0,0,1,.54.1" transform="translate(-4.927 -60.85)" fill="#e0e0e0"/>
          </g>
        </g>
        <g id="Grupo_114929" data-name="Grupo 114929">
          <g id="Grupo_114928" data-name="Grupo 114928" clip-path="url(#clip-path)">
            <path id="Trazado_228653" data-name="Trazado 228653" d="M314.764,380.5c0,.1-70.468.185-157.374.185C70.453,380.681,0,380.6,0,380.5s70.453-.185,157.39-.185c86.906,0,157.374.083,157.374.185" transform="translate(0 -109.009)" fill="#263238"/>
          </g>
        </g>
        <g id="Grupo_114931" data-name="Grupo 114931">
          <g id="Grupo_114930" data-name="Grupo 114930" clip-path="url(#clip-path)">
            <path id="Trazado_228654" data-name="Trazado 228654" d="M376.316,293.307c-.064.08-.6-.242-1.2-.719s-1.028-.93-.964-1.009.6.242,1.2.719,1.028.93.964,1.009" transform="translate(-107.243 -83.572)" fill="#263238"/>
            <path id="Trazado_228655" data-name="Trazado 228655" d="M392.955,255.322a18.788,18.788,0,0,0-.555-6.758,6.661,6.661,0,0,0-4.606-4.6c-2.541-.526-5.145,1.078-6.569,3.247a18.714,18.714,0,0,0-2.333,7.363A260.05,260.05,0,0,0,375.7,308.02l10.4,1.458c4.566-18.657,6.024-34.966,6.853-54.157" transform="translate(-107.618 -69.898)" fill="#455a64"/>
            <path id="Trazado_228656" data-name="Trazado 228656" d="M387.654,243.889a.6.6,0,0,1-.047.166l-.172.471q-.254.659-.693,1.8c-.145.392-.337.815-.493,1.3l-.5,1.575q-.273.849-.583,1.808l-.536,2.062a90.288,90.288,0,0,0-2.008,10.29c-.563,3.91-.932,8.241-1.222,12.791-.531,9.11-.615,17.379-.85,23.359-.111,2.99-.213,5.409-.327,7.079-.055.81-.1,1.452-.131,1.923-.017.2-.031.365-.044.5a.579.579,0,0,1-.027.169.588.588,0,0,1-.011-.171c0-.135,0-.3.006-.5q.022-.706.061-1.925c.07-1.671.133-4.09.21-7.08.168-5.979.209-14.248.741-23.373.29-4.558.671-8.9,1.254-12.817A85.972,85.972,0,0,1,384.372,253q.3-1.082.564-2.062l.612-1.806q.287-.842.535-1.569c.165-.482.369-.9.525-1.292l.758-1.773.205-.457a.593.593,0,0,1,.082-.151" transform="translate(-108.922 -69.906)" fill="#263238"/>
            <path id="Trazado_228657" data-name="Trazado 228657" d="M391.1,243.9a7.443,7.443,0,0,1,1.271,2.151,15.926,15.926,0,0,1,.948,6.726c-.277,5.745-.791,13.662-1.475,22.4s-1.45,16.644-2.063,22.357c-.307,2.856-.573,5.166-.768,6.761q-.149,1.158-.236,1.835c-.028.19-.051.347-.071.477a.544.544,0,0,1-.036.16.559.559,0,0,1,0-.165c.009-.131.021-.288.034-.48q.061-.679.166-1.843c.157-1.633.379-3.937.651-6.771.547-5.718,1.267-13.62,1.955-22.36s1.239-16.655,1.582-22.383a16.291,16.291,0,0,0-.82-6.663A14,14,0,0,0,391.1,243.9" transform="translate(-111.403 -69.908)" fill="#263238"/>
            <path id="Trazado_228658" data-name="Trazado 228658" d="M400.648,281.06a11.142,11.142,0,0,1-3.816-1.369,11.168,11.168,0,0,1,3.816,1.369" transform="translate(-113.744 -80.162)" fill="#263238"/>
            <path id="Trazado_228659" data-name="Trazado 228659" d="M402.37,266.758a12.4,12.4,0,0,1-3.9,1.746,12.4,12.4,0,0,1,3.9-1.746" transform="translate(-114.213 -76.457)" fill="#263238"/>
            <path id="Trazado_228660" data-name="Trazado 228660" d="M401.793,254.513a6.491,6.491,0,0,1-3.075-.212,6.491,6.491,0,0,1,3.075.212" transform="translate(-114.285 -72.86)" fill="#263238"/>
            <path id="Trazado_228661" data-name="Trazado 228661" d="M387.29,245.774c-.087.055-.542-.513-1.017-1.267s-.79-1.41-.7-1.465.542.513,1.017,1.268.789,1.41.7,1.465" transform="translate(-110.513 -69.662)" fill="#263238"/>
            <path id="Trazado_228662" data-name="Trazado 228662" d="M381.833,254.115a5.941,5.941,0,0,1-2.945-.063,5.941,5.941,0,0,1,2.945.063" transform="translate(-108.601 -72.774)" fill="#263238"/>
            <path id="Trazado_228663" data-name="Trazado 228663" d="M378.255,268.381a3.608,3.608,0,0,1-1.554-.427c-.82-.33-1.454-.676-1.415-.77a3.6,3.6,0,0,1,1.554.426c.82.331,1.453.676,1.415.771" transform="translate(-107.568 -76.576)" fill="#263238"/>
            <path id="Trazado_228664" data-name="Trazado 228664" d="M377.974,281.186c.021.1-.571.31-1.323.467s-1.378.2-1.4.1.571-.31,1.323-.467,1.378-.2,1.4-.1" transform="translate(-107.559 -80.581)" fill="#263238"/>
            <path id="Trazado_228665" data-name="Trazado 228665" d="M376.234,301.362c.018.1-.611.3-1.4.44a3.022,3.022,0,0,1-1.47.075c-.018-.1.611-.3,1.4-.44a3.031,3.031,0,0,1,1.47-.075" transform="translate(-107.016 -86.363)" fill="#263238"/>
            <path id="Trazado_228666" data-name="Trazado 228666" d="M375.261,312.515c.048.091-.477.462-1.171.83s-1.3.592-1.345.5.477-.462,1.171-.829,1.3-.592,1.345-.5" transform="translate(-106.839 -89.571)" fill="#263238"/>
            <path id="Trazado_228667" data-name="Trazado 228667" d="M384.672,323.958c-.089.051-.546-.58-1.021-1.409a4.192,4.192,0,0,1-.7-1.593c.089-.051.546.579,1.021,1.408a4.189,4.189,0,0,1,.7,1.594" transform="translate(-109.762 -91.995)" fill="#263238"/>
            <path id="Trazado_228668" data-name="Trazado 228668" d="M386.972,304.154c.072.073-.437.688-1.136,1.375s-1.325,1.183-1.4,1.109.437-.688,1.137-1.375,1.325-1.183,1.4-1.109" transform="translate(-110.19 -87.178)" fill="#263238"/>
            <path id="Trazado_228669" data-name="Trazado 228669" d="M386.67,292.333c-.075.07-.547-.317-1.054-.865s-.857-1.048-.783-1.117.548.317,1.055.865.857,1.048.782,1.118" transform="translate(-110.302 -83.221)" fill="#263238"/>
            <path id="Trazado_228670" data-name="Trazado 228670" d="M388.34,279.046c.076.068-.348.666-.947,1.336s-1.148,1.156-1.224,1.088.347-.667.947-1.336,1.148-1.156,1.224-1.088" transform="translate(-110.685 -79.982)" fill="#263238"/>
            <path id="Trazado_228671" data-name="Trazado 228671" d="M389.271,267.883c-.072.073-.664-.392-1.322-1.039s-1.134-1.231-1.062-1.3.664.392,1.323,1.039,1.134,1.231,1.062,1.3" transform="translate(-110.892 -76.11)" fill="#263238"/>
            <path id="Trazado_228672" data-name="Trazado 228672" d="M391.56,255.008c.089.053-.209.713-.664,1.475s-.895,1.338-.982,1.285a3.636,3.636,0,0,1,.663-1.475c.455-.763.9-1.338.983-1.285" transform="translate(-111.757 -73.092)" fill="#263238"/>
            <path id="Trazado_228673" data-name="Trazado 228673" d="M395.371,242.2a3.514,3.514,0,0,1-.587,1.477c-.414.767-.824,1.349-.914,1.3a3.514,3.514,0,0,1,.587-1.477c.414-.767.824-1.349.914-1.3" transform="translate(-112.89 -69.422)" fill="#263238"/>
            <path id="Trazado_228674" data-name="Trazado 228674" d="M399.428,248.01c.044.093-.372.384-.929.651s-1.045.407-1.089.315.372-.384.929-.651,1.045-.408,1.089-.315" transform="translate(-113.909 -71.079)" fill="#263238"/>
            <path id="Trazado_228675" data-name="Trazado 228675" d="M398.816,293.352a6.342,6.342,0,0,1-3.8-1.619,81.158,81.158,0,0,1,3.8,1.619" transform="translate(-113.224 -83.616)" fill="#263238"/>
            <path id="Trazado_228676" data-name="Trazado 228676" d="M397.45,303.725c.019.1-.607.306-1.4.459a3.034,3.034,0,0,1-1.469.094c-.019-.1.606-.307,1.4-.459a3.033,3.033,0,0,1,1.469-.094" transform="translate(-113.099 -87.041)" fill="#263238"/>
            <path id="Trazado_228677" data-name="Trazado 228677" d="M395.422,319.142a5.888,5.888,0,0,1-2.576-3.249,405.906,405.906,0,0,0,2.576,3.249" transform="translate(-112.598 -90.544)" fill="#263238"/>
            <path id="Trazado_228678" data-name="Trazado 228678" d="M373.032,327.349c-.067-.078.356-.549.943-1.051s1.119-.847,1.186-.768-.356.548-.944,1.051-1.119.847-1.185.769" transform="translate(-106.921 -93.304)" fill="#263238"/>
            <path id="Trazado_228679" data-name="Trazado 228679" d="M363.032,289.783c-.676-2.113-1.947-4.576-4.165-4.608a3.688,3.688,0,0,0-3.12,2.087,7.707,7.707,0,0,0-.842,3.826,99.672,99.672,0,0,0,4.768,27.694h8.118a96.485,96.485,0,0,0-4.759-29" transform="translate(-101.726 -81.74)" fill="#455a64"/>
            <path id="Trazado_228680" data-name="Trazado 228680" d="M340.114,270.088a9.022,9.022,0,0,0-8.451-7.216c-3.588.628-4.98,4.162-5.407,7.779s.7,7.219,1.807,10.688q5.343,16.712,10.686,33.423l10.1-1.1c-3.2-14.927-5.032-28.762-8.734-43.571" transform="translate(-93.489 -75.347)" fill="#455a64"/>
            <path id="Trazado_228681" data-name="Trazado 228681" d="M359.915,285.175a8.567,8.567,0,0,0-.688,1.149,7.582,7.582,0,0,0-.38,3.59c.158,1.542.335,3.4.593,5.437s.632,4.274,1.088,6.605c.918,4.664,1.952,8.849,2.609,11.9.332,1.524.584,2.762.742,3.62.067.4.123.722.169.991a1.235,1.235,0,0,1,.034.35,1.278,1.278,0,0,1-.108-.335l-.238-.976c-.215-.9-.5-2.117-.856-3.591-.721-3.033-1.8-7.209-2.717-11.887-.457-2.338-.816-4.583-1.063-6.634-.13-1.025-.215-2-.3-2.918s-.174-1.76-.217-2.543a7.362,7.362,0,0,1,.511-3.667,3.208,3.208,0,0,1,.819-1.089" transform="translate(-102.773 -81.74)" fill="#263238"/>
            <path id="Trazado_228682" data-name="Trazado 228682" d="M332.848,262.468a13.472,13.472,0,0,0-1.221,1.64,11.528,11.528,0,0,0-1.537,5.285,24.433,24.433,0,0,0,1.25,8.13c.887,3.006,1.86,6.3,2.882,9.767l5.169,17.768c.636,2.249,1.154,4.083,1.526,5.4l.4,1.472a2.943,2.943,0,0,1,.114.521,2.782,2.782,0,0,1-.186-.5l-.464-1.452c-.4-1.306-.956-3.128-1.639-5.363l-5.274-17.737-2.855-9.778a24.171,24.171,0,0,1-1.182-8.241,11.329,11.329,0,0,1,1.676-5.344,6.223,6.223,0,0,1,1.343-1.564" transform="translate(-94.527 -75.232)" fill="#263238"/>
            <path id="Trazado_228683" data-name="Trazado 228683" d="M348.641,312.547a2.871,2.871,0,0,1-.228-.484c-.133-.325-.347-.8-.575-1.421-.482-1.241-1.1-3.069-1.737-5.363s-1.273-5.059-1.883-8.145c-.585-3.092-1.227-6.485-1.9-10.047-.7-3.555-1.484-6.919-2.392-9.921a55.194,55.194,0,0,0-2.944-7.782,41.324,41.324,0,0,0-2.723-4.906c-.347-.566-.663-.974-.85-1.27a2.805,2.805,0,0,1-.282-.454,2.869,2.869,0,0,1,.342.41c.208.282.544.678.91,1.233a36.6,36.6,0,0,1,2.84,4.873,52.676,52.676,0,0,1,3.035,7.8,99.75,99.75,0,0,1,2.429,9.949c.664,3.564,1.3,6.958,1.873,10.053s1.193,5.847,1.8,8.142,1.18,4.129,1.619,5.382c.207.631.4,1.11.509,1.442a2.829,2.829,0,0,1,.158.511" transform="translate(-95.484 -75.314)" fill="#263238"/>
            <path id="Trazado_228684" data-name="Trazado 228684" d="M328.057,286.4c.024.1-.525.319-1.227.489s-1.29.228-1.315.128.525-.319,1.227-.489,1.29-.228,1.315-.128" transform="translate(-93.303 -82.078)" fill="#263238"/>
            <path id="Trazado_228685" data-name="Trazado 228685" d="M326.207,276.682a12.5,12.5,0,0,1-3.416.135,5.881,5.881,0,0,1,3.416-.135" transform="translate(-92.522 -79.25)" fill="#263238"/>
            <path id="Trazado_228686" data-name="Trazado 228686" d="M328.283,267.178c-.066.078-.615-.278-1.226-.8s-1.052-1-.984-1.079.614.278,1.225.8,1.051,1,.985,1.079" transform="translate(-93.461 -76.041)" fill="#263238"/>
            <path id="Trazado_228687" data-name="Trazado 228687" d="M333.366,259.767c.1.024.074.514.059,1.108s-.02,1.085-.123,1.1-.268-.478-.248-1.113.215-1.121.312-1.1" transform="translate(-95.463 -74.457)" fill="#263238"/>
            <path id="Trazado_228688" data-name="Trazado 228688" d="M341.746,263.614c.084.059-.163.556-.551,1.111s-.772.957-.856.9.163-.556.551-1.111.771-.957.855-.9" transform="translate(-97.547 -75.558)" fill="#263238"/>
            <path id="Trazado_228689" data-name="Trazado 228689" d="M347.049,273.554c.039.095-.484.4-1.168.677s-1.27.427-1.308.332.484-.4,1.168-.677,1.27-.427,1.308-.332" transform="translate(-98.765 -78.401)" fill="#263238"/>
            <path id="Trazado_228690" data-name="Trazado 228690" d="M350.175,283.793a4.667,4.667,0,0,1-3.347.759,33.012,33.012,0,0,1,3.347-.759" transform="translate(-99.412 -81.337)" fill="#263238"/>
            <path id="Trazado_228691" data-name="Trazado 228691" d="M335.55,280.032c-.1-.031-.027-.535.158-1.127s.415-1.047.513-1.016.027.535-.158,1.127-.415,1.047-.513,1.016" transform="translate(-96.167 -79.651)" fill="#263238"/>
            <path id="Trazado_228692" data-name="Trazado 228692" d="M337.784,292.585a3.5,3.5,0,0,1,.457-1.518c.347-.8.7-1.411.8-1.37a3.5,3.5,0,0,1-.457,1.518c-.347.8-.7,1.41-.8,1.37" transform="translate(-96.813 -83.036)" fill="#263238"/>
            <path id="Trazado_228693" data-name="Trazado 228693" d="M331.158,296.89c-.04.1-.68-.078-1.455-.32s-1.4-.464-1.378-.566a2.739,2.739,0,0,1,1.489.212c.792.247,1.383.581,1.343.674" transform="translate(-94.108 -84.831)" fill="#263238"/>
            <path id="Trazado_228694" data-name="Trazado 228694" d="M334.6,307.737c.06.083-.373.494-.967.917s-1.122.7-1.182.616.373-.494.967-.917,1.123-.7,1.182-.616" transform="translate(-95.289 -88.203)" fill="#263238"/>
            <path id="Trazado_228695" data-name="Trazado 228695" d="M337.011,318.17c.024.1-.511.315-1.195.482s-1.259.221-1.283.121.511-.315,1.2-.482,1.258-.22,1.283-.121" transform="translate(-95.887 -91.183)" fill="#263238"/>
            <path id="Trazado_228696" data-name="Trazado 228696" d="M350.859,292.521c.051.086-.406.451-1.072.7s-1.251.28-1.268.182.5-.289,1.137-.529,1.151-.444,1.2-.353" transform="translate(-99.896 -83.839)" fill="#263238"/>
            <path id="Trazado_228697" data-name="Trazado 228697" d="M352.854,308.341c-.043.093-.589-.072-1.218-.367s-1.1-.611-1.059-.7.589.072,1.218.367,1.1.611,1.059.7" transform="translate(-100.485 -88.066)" fill="#263238"/>
            <path id="Trazado_228698" data-name="Trazado 228698" d="M356.011,319.918a3.833,3.833,0,0,1-1.608-.431c-.851-.333-1.51-.681-1.472-.776a3.838,3.838,0,0,1,1.608.431c.85.333,1.509.681,1.472.776" transform="translate(-101.16 -91.346)" fill="#263238"/>
            <path id="Trazado_228699" data-name="Trazado 228699" d="M338.563,328.634c-.051-.093.612-.539,1.377-1.143s1.358-1.139,1.436-1.067-.409.735-1.206,1.36a3.33,3.33,0,0,1-1.607.85" transform="translate(-97.042 -93.562)" fill="#263238"/>
            <path id="Trazado_228700" data-name="Trazado 228700" d="M347.38,322.639c-.106.012-.248-.545-.5-1.193s-.517-1.159-.431-1.221.509.385.778,1.086.253,1.319.155,1.327" transform="translate(-99.298 -91.785)" fill="#263238"/>
            <path id="Trazado_228701" data-name="Trazado 228701" d="M344.646,309.132c-.06.083-.484-.118-.947-.451s-.789-.669-.729-.753.483.118.946.451.79.669.73.753" transform="translate(-98.304 -88.256)" fill="#263238"/>
            <path id="Trazado_228702" data-name="Trazado 228702" d="M365.927,287.7c.061.083-.352.49-.922.911s-1.081.694-1.143.611.352-.49.922-.91,1.081-.695,1.142-.612" transform="translate(-104.293 -82.458)" fill="#263238"/>
            <path id="Trazado_228703" data-name="Trazado 228703" d="M368.861,296.4c.009.1-.637.235-1.436.148s-1.4-.356-1.372-.451.651,0,1.412.081,1.388.117,1.4.222" transform="translate(-104.922 -84.857)" fill="#263238"/>
            <path id="Trazado_228704" data-name="Trazado 228704" d="M355,298.49c.022.1-.576.312-1.35.362s-1.395-.08-1.385-.18.618-.14,1.361-.19,1.353-.095,1.374.008" transform="translate(-100.971 -85.539)" fill="#263238"/>
            <path id="Trazado_228705" data-name="Trazado 228705" d="M356.389,289.745c-.007.1-.612.115-1.273-.192s-1.046-.772-.976-.842.527.23,1.131.5,1.132.424,1.119.529" transform="translate(-101.505 -82.75)" fill="#263238"/>
            <path id="Trazado_228706" data-name="Trazado 228706" d="M370.149,305.36c-.055.087-.674-.2-1.383-.651s-1.24-.879-1.185-.965.673.2,1.383.651,1.24.878,1.185.965" transform="translate(-105.359 -87.058)" fill="#263238"/>
            <rect id="Rectángulo_50178" data-name="Rectángulo 50178" width="52.854" height="9.368" transform="translate(236.109 235.983)" fill="#4dd0e1"/>
            <path id="Trazado_228707" data-name="Trazado 228707" d="M336.509,341.328l6.427,27.994h31.5l7.032-27.994Z" transform="translate(-96.454 -97.835)" fill="#4dd0e1"/>
            <path id="Trazado_228708" data-name="Trazado 228708" d="M383.63,343.875c0,.1-11.922.185-26.625.185s-26.628-.083-26.628-.185,11.92-.185,26.628-.185,26.625.083,26.625.185" transform="translate(-94.696 -98.512)" fill="#263238"/>
            <path id="Trazado_228709" data-name="Trazado 228709" d="M363.293,297.965c-.087.054-.448-.367-.807-.94s-.579-1.083-.491-1.137.448.367.807.94.579,1.083.492,1.137" transform="translate(-103.753 -84.809)" fill="#263238"/>
            <path id="Trazado_228710" data-name="Trazado 228710" d="M363.836,308.27c-.1-.032.026-.669.277-1.422s.531-1.338.629-1.305-.026.669-.277,1.422-.532,1.338-.629,1.305" transform="translate(-104.277 -87.578)" fill="#263238"/>
            <path id="Trazado_228711" data-name="Trazado 228711" d="M366.884,319.258c-.093.044-.487-.589-.882-1.412a3.837,3.837,0,0,1-.547-1.574c.092-.044.487.589.882,1.413a3.849,3.849,0,0,1,.547,1.573" transform="translate(-104.745 -90.653)" fill="#263238"/>
            <path id="Trazado_228712" data-name="Trazado 228712" d="M359.636,328.6c-.078-.067.238-.557.7-1.1s.907-.919.985-.851-.238.557-.7,1.1-.907.918-.985.851" transform="translate(-103.08 -93.626)" fill="#263238"/>
            <path id="Trazado_228713" data-name="Trazado 228713" d="M357.111,312.994c-.018.1-.526.1-1.136-.012s-1.089-.276-1.071-.377.526-.1,1.136.012,1.089.276,1.071.377" transform="translate(-101.726 -89.582)" fill="#263238"/>
          </g>
        </g>
        <g id="Grupo_114936" data-name="Grupo 114936">
          <g id="Grupo_114935" data-name="Grupo 114935" clip-path="url(#clip-path)">
            <path id="Trazado_228714" data-name="Trazado 228714" d="M253.427,367.384l17.608,16.075s22.4-12.512,25.808-9.852l-29.932,33.854-27.333-23.918Z" transform="translate(-68.671 -105.304)" fill="#4dd0e1"/>
            <path id="Trazado_228715" data-name="Trazado 228715" d="M269.166,401.356a1.845,1.845,0,0,0,.733,2.351,1.773,1.773,0,0,0,2.336-.706,1.946,1.946,0,0,0-.789-2.485,1.841,1.841,0,0,0-2.349,1" transform="translate(-77.103 -114.768)" fill="#e0e0e0"/>
            <path id="Trazado_228716" data-name="Trazado 228716" d="M276.824,409.743l-2.661-2.518,29.693-31.518s1.988-.927,2.9.181Z" transform="translate(-78.584 -107.585)" fill="#263238"/>
            <path id="Trazado_228717" data-name="Trazado 228717" d="M284.1,388.725c.16.152-.5,1.044-.683,2.328-.221,1.278.124,2.331-.076,2.425-.167.123-.937-1-.683-2.546s1.321-2.377,1.441-2.207" transform="translate(-81.005 -111.414)" fill="#263238"/>
            <path id="Trazado_228718" data-name="Trazado 228718" d="M290.857,384.737c.193.1-.158,1.068.044,2.248.168,1.186.8,2,.646,2.154-.111.178-1.181-.564-1.4-2.035s.554-2.5.714-2.367" transform="translate(-83.151 -110.274)" fill="#263238"/>
            <path id="Trazado_228719" data-name="Trazado 228719" d="M298.836,385.651c-.1.181-1.127-.319-1.656-1.544s-.208-2.317-.008-2.265c.218.027.26.959.711,1.957.427,1.009,1.082,1.673.953,1.851" transform="translate(-85.097 -109.447)" fill="#263238"/>
            <path id="Trazado_228720" data-name="Trazado 228720" d="M166.559,373.21a9.639,9.639,0,0,0-4.695-1.664c1.259-9-5.032-17.22-11.552-23.549-8.192-7.952-17.647-15.017-28.618-18.176-9.912-2.853-20.436-2.358-30.737-1.84l-42.244,2.126C34.3,335.148,22.15,350.1,19.628,365.153a4.947,4.947,0,0,0-7.171.785,5.275,5.275,0,0,0,1.55,7.169,5.65,5.65,0,0,0,7.294-1.5,91.516,91.516,0,0,0,64.319,9.935c6.789-1.478,13.4-3.734,20.221-5.041a148.679,148.679,0,0,1,15.352-1.846l29.02-2.471,11.345,5.407c1.888.9,4.456,1.677,5.809.081,1.086-1.282.486-3.384-.808-4.457" transform="translate(-3.339 -93.895)" fill="#455a64"/>
            <path id="Trazado_228721" data-name="Trazado 228721" d="M139.519,384.389a1.581,1.581,0,0,1-.277.045l-.815.1-3.14.332c-1.359.174-3.019.413-4.947.686-1.918.337-4.109.668-6.51,1.161-4.815.92-10.5,2.224-16.829,3.655s-13.3,2.943-20.736,3.918a89.169,89.169,0,0,1-21.087.35,95.062,95.062,0,0,1-16.834-3.681c-4.688-1.46-8.4-2.866-10.958-3.864-1.276-.5-2.265-.9-2.931-1.179l-.757-.32a1.654,1.654,0,0,1-.253-.121,1.553,1.553,0,0,1,.268.085l.77.285,2.954,1.114c2.569.957,6.3,2.323,10.984,3.748a96.832,96.832,0,0,0,16.8,3.592,89.865,89.865,0,0,0,21-.378c7.41-.972,14.381-2.487,20.708-3.884,6.327-1.412,12.029-2.692,16.855-3.58,2.407-.476,4.606-.79,6.529-1.108,1.933-.254,3.6-.473,4.961-.624l3.15-.263.819-.059a1.6,1.6,0,0,1,.28-.007" transform="translate(-9.586 -110.177)" fill="#263238"/>
            <path id="Trazado_228722" data-name="Trazado 228722" d="M80.555,403.615c-.039.023-.245-.223-.4-.71a3.328,3.328,0,0,1,1.115-3.6c.405-.312.713-.4.733-.358s-.227.216-.558.554a3.709,3.709,0,0,0-1.035,3.346c.083.466.2.747.148.773" transform="translate(-22.931 -114.347)" fill="#263238"/>
            <path id="Trazado_228723" data-name="Trazado 228723" d="M75.649,401.5a2.026,2.026,0,0,1,.058-1.873c.437-1.017,1.3-1.413,1.333-1.318.061.091-.614.57-.992,1.466a10.142,10.142,0,0,0-.4,1.725" transform="translate(-21.631 -114.163)" fill="#263238"/>
            <path id="Trazado_228724" data-name="Trazado 228724" d="M57.535,361.188c.071.034-.61,1.276-1.315,3.427-.173.539-.359,1.129-.5,1.779-.178.641-.29,1.343-.427,2.077a25.851,25.851,0,0,0,.278,9.657c.179.725.331,1.42.545,2.05.182.641.4,1.22.6,1.748.828,2.107,1.579,3.306,1.51,3.345a5.052,5.052,0,0,1-.544-.828,9.753,9.753,0,0,1-.559-1.02c-.2-.408-.447-.863-.65-1.4a17.867,17.867,0,0,1-.655-1.753c-.23-.633-.4-1.334-.586-2.067a24.675,24.675,0,0,1-.282-9.788c.148-.743.273-1.452.465-2.1a18.165,18.165,0,0,1,.553-1.787c.172-.546.394-1.015.569-1.434a9.754,9.754,0,0,1,.5-1.05,5.007,5.007,0,0,1,.5-.859" transform="translate(-15.649 -103.528)" fill="#263238"/>
            <path id="Trazado_228725" data-name="Trazado 228725" d="M79.178,358.286a12.511,12.511,0,0,0-3.236,1.522,12.475,12.475,0,0,0-2.418,2.634,2.306,2.306,0,0,1,.42-1,6.842,6.842,0,0,1,4.152-3.052,2.289,2.289,0,0,1,1.081-.1" transform="translate(-21.072 -102.688)" fill="#263238"/>
            <path id="Trazado_228726" data-name="Trazado 228726" d="M83.883,376.171a2.677,2.677,0,0,1-.314-.65,5.845,5.845,0,0,1-.288-.8,9.822,9.822,0,0,1-.3-1.084,14.659,14.659,0,0,1-.36-2.9,15.6,15.6,0,0,1,1.465-6.97,14.63,14.63,0,0,1,1.5-2.512,9.953,9.953,0,0,1,.707-.873,6.005,6.005,0,0,1,.584-.613,2.742,2.742,0,0,1,.549-.469c.054.053-.7.757-1.625,2.107a16.146,16.146,0,0,0-1.4,2.5,16.43,16.43,0,0,0-1.433,6.824,16.212,16.212,0,0,0,.275,2.854c.307,1.609.711,2.556.641,2.582" transform="translate(-23.682 -102.987)" fill="#263238"/>
            <path id="Trazado_228727" data-name="Trazado 228727" d="M25.3,379.041c.1-.038.489.9,1.255,1.856s1.577,1.557,1.517,1.65a3.716,3.716,0,0,1-1.808-1.42,3.713,3.713,0,0,1-.963-2.087" transform="translate(-7.248 -108.645)" fill="#263238"/>
            <path id="Trazado_228728" data-name="Trazado 228728" d="M162.893,391.7c-.021-.057.3-.173.695-.515a2.637,2.637,0,0,0,.462-3.6c-.295-.43-.576-.624-.542-.674.018-.038.366.081.75.512a2.656,2.656,0,0,1-.511,3.968c-.48.32-.847.347-.854.306" transform="translate(-46.69 -110.899)" fill="#263238"/>
            <path id="Trazado_228729" data-name="Trazado 228729" d="M171.547,390.361a5.662,5.662,0,0,0-1.293-3.789,3.086,3.086,0,0,1,1.293,3.789" transform="translate(-48.799 -110.801)" fill="#263238"/>
            <path id="Trazado_228730" data-name="Trazado 228730" d="M153.664,347.242a7.716,7.716,0,0,1,.769.954,10.75,10.75,0,0,1,.815,1.185,17.6,17.6,0,0,1,.96,1.648l.507.988c.173.345.312.723.477,1.105a25.421,25.421,0,0,1,.9,2.5,27.046,27.046,0,0,1,.818,12.057,25.8,25.8,0,0,1-.558,2.6c-.113.4-.2.794-.325,1.159l-.369,1.047a17.46,17.46,0,0,1-.729,1.762,10.651,10.651,0,0,1-.647,1.284,7.6,7.6,0,0,1-.633,1.049c-.08-.041.845-1.534,1.762-4.182l.342-1.044c.116-.363.195-.754.3-1.151.226-.792.355-1.663.518-2.572a27.885,27.885,0,0,0-.807-11.908c-.284-.88-.529-1.724-.86-2.479-.158-.38-.288-.756-.452-1.1l-.48-.988c-1.266-2.5-2.384-3.854-2.31-3.906" transform="translate(-44.044 -99.53)" fill="#263238"/>
            <path id="Trazado_228731" data-name="Trazado 228731" d="M37.416,387.6c.029.053-.233.215-.561.559a3.851,3.851,0,0,0-.969,3.4c.1.464.235.74.183.77-.034.024-.26-.212-.435-.7a3.434,3.434,0,0,1,1.044-3.669c.406-.322.722-.4.738-.365" transform="translate(-10.166 -111.096)" fill="#fff"/>
            <path id="Trazado_228732" data-name="Trazado 228732" d="M47.945,336a1.643,1.643,0,0,1-.269.3l-.818.809c-.363.342-.8.769-1.269,1.3s-1.047,1.094-1.6,1.8l-.889,1.079c-.307.377-.59.8-.9,1.216-.641.829-1.227,1.783-1.868,2.769a43.046,43.046,0,0,0-5.575,14.175c-.2,1.159-.423,2.256-.519,3.3-.056.52-.136,1.021-.168,1.506s-.058.949-.084,1.4c-.078.889-.046,1.7-.057,2.4s.011,1.318.043,1.815c.019.465.036.845.048,1.149a1.7,1.7,0,0,1-.008.4,1.6,1.6,0,0,1-.066-.4c-.031-.3-.07-.682-.118-1.146a16.919,16.919,0,0,1-.106-1.821c-.009-.711-.059-1.523,0-2.418q.029-.674.061-1.406c.025-.489.1-.994.148-1.519.083-1.053.293-2.161.489-3.331a41.633,41.633,0,0,1,5.62-14.289c.653-.99,1.255-1.944,1.911-2.772.321-.418.611-.837.927-1.212l.913-1.071c.565-.7,1.154-1.257,1.646-1.772a17.011,17.011,0,0,1,1.318-1.26l.867-.76a1.612,1.612,0,0,1,.319-.245" transform="translate(-9.658 -96.309)" fill="#fff"/>
            <path id="Trazado_228733" data-name="Trazado 228733" d="M82.118,330.1a3.1,3.1,0,0,1-.471.287c-.307.187-.793.406-1.365.779a28.18,28.18,0,0,0-4.606,3.462,32.013,32.013,0,0,0-5.435,6.57,37.257,37.257,0,0,0-4.235,9.537,51.948,51.948,0,0,0-1.394,18.9c.235,2.43.531,4.387.757,5.735q.164.969.263,1.552a3.139,3.139,0,0,1,.07.546,3.062,3.062,0,0,1-.143-.531c-.078-.352-.2-.869-.331-1.542-.27-1.343-.607-3.3-.876-5.734a57.063,57.063,0,0,1-.313-8.6,45.645,45.645,0,0,1,1.611-10.42,36.855,36.855,0,0,1,4.3-9.619,31.424,31.424,0,0,1,5.547-6.582,26.263,26.263,0,0,1,4.71-3.393c.587-.355,1.085-.554,1.4-.72a3.026,3.026,0,0,1,.5-.22" transform="translate(-18.342 -94.616)" fill="#fff"/>
            <path id="Trazado_228734" data-name="Trazado 228734" d="M54.585,393.882c.041.046-.2.292-.474.757a4.44,4.44,0,0,0-.205,4.019c.223.491.44.76.394.8-.027.029-.324-.184-.626-.68a3.982,3.982,0,0,1,.219-4.286c.352-.462.668-.644.693-.612" transform="translate(-15.235 -112.898)" fill="#fff"/>
            <path id="Trazado_228735" data-name="Trazado 228735" d="M94.875,404.01c0,.042-.358.058-.866-.177a2.81,2.81,0,0,1-1.363-3.715c.235-.508.516-.724.546-.695.046.036-.148.3-.3.789a2.866,2.866,0,0,0,1.244,3.391c.43.271.752.35.74.407" transform="translate(-26.483 -114.486)" fill="#fff"/>
            <path id="Trazado_228736" data-name="Trazado 228736" d="M113.193,327.841c.1.006-.465,11.1-1.268,24.78s-1.536,24.767-1.639,24.761.465-11.1,1.268-24.782,1.537-24.764,1.639-24.758" transform="translate(-31.608 -93.969)" fill="#fff"/>
            <path id="Trazado_228737" data-name="Trazado 228737" d="M134.023,396.938c-.11,0-.16-.933-.557-1.989s-.954-1.8-.87-1.873a4.2,4.2,0,0,1,1.427,3.862" transform="translate(-38.004 -112.666)" fill="#fff"/>
            <path id="Trazado_228738" data-name="Trazado 228738" d="M138.361,329.7a2.188,2.188,0,0,1,.38.278c.236.2.6.467,1.032.864a32.332,32.332,0,0,1,3.443,3.558,34.767,34.767,0,0,1,7.089,30.766,32.4,32.4,0,0,1-1.539,4.706c-.213.545-.424.949-.55,1.228a2.273,2.273,0,0,1-.22.415,2.2,2.2,0,0,1,.151-.445c.1-.289.292-.7.484-1.251a37.1,37.1,0,0,0,1.418-4.715,35.417,35.417,0,0,0-7.037-30.538,36.982,36.982,0,0,0-3.338-3.619c-.413-.412-.763-.7-.983-.913a2.273,2.273,0,0,1-.331-.335" transform="translate(-39.658 -94.502)" fill="#fff"/>
            <path id="Trazado_228739" data-name="Trazado 228739" d="M182.147,389.783a12.669,12.669,0,0,0-2.747-5.336,6.518,6.518,0,0,1,2.747,5.336" transform="translate(-51.42 -110.193)" fill="#fff"/>
            <path id="Trazado_228740" data-name="Trazado 228740" d="M203.29,379.64c.021-.033.416.165.89.687a5.078,5.078,0,0,1,.883,5.163,2.083,2.083,0,0,1-.611.944,8.944,8.944,0,0,1,.364-1.032,5.6,5.6,0,0,0-.84-4.909c-.4-.534-.725-.8-.686-.853" transform="translate(-58.268 -108.816)" fill="#fff"/>
            <path id="Trazado_228741" data-name="Trazado 228741" d="M190.676,344.111a5.331,5.331,0,0,1,.373.942c.222.613.5,1.515.807,2.641a49.547,49.547,0,0,1,1.4,18.085c-.128,1.159-.265,2.093-.389,2.733a5.311,5.311,0,0,1-.223.989,5.238,5.238,0,0,1,.08-1.009c.081-.645.177-1.581.272-2.737a56.574,56.574,0,0,0-1.4-18c-.272-1.128-.511-2.037-.691-2.662a5.322,5.322,0,0,1-.235-.985" transform="translate(-54.653 -98.633)" fill="#fff"/>
            <g id="Grupo_114934" data-name="Grupo 114934" transform="translate(39.365 228.182)" opacity="0.3">
              <g id="Grupo_114933" data-name="Grupo 114933">
                <g id="Grupo_114932" data-name="Grupo 114932" clip-path="url(#clip-path-6)">
                  <path id="Trazado_228742" data-name="Trazado 228742" d="M153.794,334.059c-27.149-18.7-69.586-17.959-98.563-3.4A19.894,19.894,0,0,0,68.919,350.6c6.4,1.92,13.809.555,19.44,4.145,3.5,2.232,5.911,6.185,9.861,7.463,3.842,1.243,8.05-.458,11.312-2.839s6.007-5.455,9.461-7.549c8.358-5.066,18.918-3.475,28.671-2.841,4.782.311,10.956-.648,12.037-5.316.9-3.9-2.61-7.332-5.907-9.6" transform="translate(-55.181 -319.866)"/>
                </g>
              </g>
            </g>
            <path id="Trazado_228743" data-name="Trazado 228743" d="M183.6,239.415l4.262,17.831,8.464,8.259-13.811,2.845s-9.764-1.159-11.53-3.573-4.3-21.592-4.3-21.592Z" transform="translate(-47.777 -68.624)" fill="#ba7f72"/>
            <path id="Trazado_228744" data-name="Trazado 228744" d="M119.57,167.326l14.322,5.072.556,67.749s-20.429,17.816-21.664,17.675-50.746,15.536-52.074,18.446c0,0-6.12-.939-6.12-4.567,0-5.97,5.73-9.352,5.73-9.352.9-6.692,6.591-14.5,6.591-14.892,0-2.783-2.62-20.243-2.62-20.243s-.272-43.8,8.477-53.023c10.871-11.467,46.8-6.866,46.8-6.866" transform="translate(-15.647 -47.699)" fill="#4dd0e1"/>
            <path id="Trazado_228745" data-name="Trazado 228745" d="M187.135,219.583s-12.424-44.7-22.984-45.074l1.156,53.418s18.911-3.25,21.828-8.344" transform="translate(-47.051 -50.02)" fill="#4dd0e1"/>
            <path id="Trazado_228746" data-name="Trazado 228746" d="M230.293,241.362l2.738-3.979a1.18,1.18,0,0,1,.31-.343,1.022,1.022,0,0,1,.571-.121,7.882,7.882,0,0,1,3.5,1.189l2.9,1.533a.828.828,0,0,1,.229.156.571.571,0,0,1-.135.789,1.632,1.632,0,0,1-.844.27q-4.37.545-8.776.711c-.194.007-.439-.019-.5-.2" transform="translate(-66.009 -67.908)" fill="#ba7f72"/>
            <path id="Trazado_228747" data-name="Trazado 228747" d="M230.155,242.29l-19.421,19.552-41.958,9.553,11.536-22.56a5.72,5.72,0,0,1,4.342-3.091c8.52-1.149,33.069-4.49,43.979-6.3a1.706,1.706,0,0,1,1.522,2.849" transform="translate(-48.377 -68.624)" fill="#e0e0e0"/>
            <path id="Trazado_228748" data-name="Trazado 228748" d="M230.016,242.267c-.01-.008.085-.1.213-.322a1.6,1.6,0,0,0,.193-1.077,1.683,1.683,0,0,0-1.086-1.325,2,2,0,0,0-1.135-.013l-1.325.224c-3.748.628-9.183,1.457-15.905,2.436s-14.732,2.105-23.631,3.321c-1.1.165-2.261.277-3.355.489a5.536,5.536,0,0,0-2.851,1.716,6.153,6.153,0,0,0-.937,1.445l-.814,1.594-1.651,3.234-6.884,13.471-2.043,4-.206-.265,41.967-9.511-.07.039,14.225-14.232,3.909-3.881,1.027-1.005c.233-.225.361-.333.361-.333s-.107.128-.33.362l-1,1.034-3.854,3.935L210.7,261.921l-.029.029-.041.009-41.948,9.593-.387.088.181-.354,2.043-4,6.89-13.468,1.656-3.232.816-1.594a6.529,6.529,0,0,1,.989-1.517,5.892,5.892,0,0,1,3.035-1.82c1.163-.223,2.273-.322,3.391-.488l23.64-3.242c6.726-.946,12.166-1.736,15.919-2.319l1.328-.207a2.11,2.11,0,0,1,1.193.034,1.764,1.764,0,0,1,1.123,1.418,1.6,1.6,0,0,1-.235,1.108,1.439,1.439,0,0,1-.245.3" transform="translate(-48.238 -68.601)" fill="#263238"/>
            <path id="Trazado_228749" data-name="Trazado 228749" d="M210.578,261.519c.116.887,1.4,1.449,2.876,1.256s2.572-1.069,2.455-1.956-1.4-1.449-2.876-1.256-2.571,1.069-2.455,1.956" transform="translate(-60.356 -74.388)" fill="#fff"/>
            <path id="Trazado_228750" data-name="Trazado 228750" d="M212.875,262.823c-1.228,0-2.221-.532-2.322-1.31a1.408,1.408,0,0,1,.637-1.253,4.071,4.071,0,0,1,3.789-.5,1.245,1.245,0,0,1,.3,2.3,3.764,3.764,0,0,1-1.833.722,4.392,4.392,0,0,1-.574.038m.728-3.288a4.427,4.427,0,0,0-.577.039,3.718,3.718,0,0,0-1.814.714,1.378,1.378,0,0,0-.625,1.222c.116.875,1.4,1.43,2.857,1.241a3.723,3.723,0,0,0,1.814-.715,1.209,1.209,0,0,0-.295-2.241,3.427,3.427,0,0,0-1.36-.26" transform="translate(-60.349 -74.381)" fill="#fff"/>
            <path id="Trazado_228751" data-name="Trazado 228751" d="M186.354,252.939a2.343,2.343,0,0,1,.161-.509,15.124,15.124,0,0,1,.61-1.4,7.647,7.647,0,0,1,1.353-2.021,5.583,5.583,0,0,1,3.008-1.12c4.665-.8,11.105-1.916,18.249-2.993l5.213-.8c1.689-.215,3.324-.381,4.879-.559l8.267-.9c2.337-.263,4.211-.709,5.52-.9.654-.106,1.164-.176,1.512-.209a2.646,2.646,0,0,1,.532-.027,3.241,3.241,0,0,1-.522.1c-.343.057-.848.149-1.5.277-1.3.236-3.155.721-5.519,1.021l-8.252.983c-1.552.187-3.185.36-4.873.579l-5.206.81c-7.136,1.075-13.585,2.155-18.262,2.884a5.449,5.449,0,0,0-2.909,1.013,7.8,7.8,0,0,0-1.366,1.935c-.312.58-.524,1.047-.669,1.364a3.574,3.574,0,0,1-.23.479" transform="translate(-53.414 -69.217)" fill="#263238"/>
            <path id="Trazado_228752" data-name="Trazado 228752" d="M156.344,257.086s7.735-4.785,10.234-5.785,7.1-.5,8.2-1.5,3.6-3.3,3.6-3.3,2,2.1.7,4-6.2,4.4-6.2,4.4l17.2-1.139s1.3.942.6,2.042a2.056,2.056,0,0,1,.207,2.6c-1.007,1.3-13.234,11.669-17.067,11.983s-14.947-1.733-14.947-1.733Z" transform="translate(-44.813 -70.655)" fill="#ba7f72"/>
            <path id="Trazado_228753" data-name="Trazado 228753" d="M92.853,251.167l1.477,15.245s31.759-5.857,37.121-7.989l2.52,11.564s-42.318,19.887-51.882,19.3-12.594-37.053-12.594-37.053Z" transform="translate(-19.919 -71.992)" fill="#ba7f72"/>
            <path id="Trazado_228754" data-name="Trazado 228754" d="M178.954,262.278a27.363,27.363,0,0,1,2.768.26,19.76,19.76,0,0,0,6.612-.233,29.056,29.056,0,0,0,3.458-1.222l2.814-1.091c.8-.305,1.455-.546,1.908-.706a2.939,2.939,0,0,1,.719-.212,2.88,2.88,0,0,1-.665.346c-.437.2-1.074.479-1.865.815l-2.784,1.165a25.957,25.957,0,0,1-3.5,1.265,18.1,18.1,0,0,1-6.732.133c-.853-.119-1.539-.242-2.011-.336a2.9,2.9,0,0,1-.726-.185" transform="translate(-51.294 -74.258)" fill="#8b5d54"/>
            <path id="Trazado_228755" data-name="Trazado 228755" d="M181.643,268.62c0-.071,1.081.059,2.8.034a9.456,9.456,0,0,0,2.941-.527A18.214,18.214,0,0,0,190.7,266.5c1.135-.672,2.209-1.347,3.243-1.868s1.965-.947,2.7-1.386a10.423,10.423,0,0,0,2.181-1.714,2.156,2.156,0,0,1-.439.623,7.605,7.605,0,0,1-1.606,1.315c-.737.477-1.674.935-2.684,1.466s-2.068,1.207-3.212,1.885a17.188,17.188,0,0,1-3.391,1.629,9.167,9.167,0,0,1-3.047.465,16.811,16.811,0,0,1-2.061-.156,2.9,2.9,0,0,1-.744-.141" transform="translate(-52.065 -74.963)" fill="#8b5d54"/>
            <path id="Trazado_228756" data-name="Trazado 228756" d="M170.908,261.472c-.041.018-.195-.2-.26-.62a2.924,2.924,0,0,1,.25-1.6,4.669,4.669,0,0,1,.908-1.313c.283-.289.486-.437.523-.4.1.081-.6.814-1.091,1.866a3.682,3.682,0,0,0-.328,1.428c-.006.38.051.619,0,.638" transform="translate(-48.905 -73.817)" fill="#8b5d54"/>
            <path id="Trazado_228757" data-name="Trazado 228757" d="M172.334,268.869c-.024.04-.18.008-.377-.148a1.633,1.633,0,0,1-.472-1.783c.094-.233.215-.339.255-.315.093.049-.111.566.064,1.185.153.624.586.973.529,1.061" transform="translate(-49.126 -76.421)" fill="#8b5d54"/>
            <path id="Trazado_228758" data-name="Trazado 228758" d="M158.864,268.555a.856.856,0,0,1,.193.018l.562.083,2.171.336c1.893.28,4.644.718,8.1,1.041.865.067,1.773.145,2.721.149.238.006.477.007.716-.009a3.032,3.032,0,0,0,.716-.075,6.5,6.5,0,0,0,1.407-.456,35.93,35.93,0,0,0,5.61-3.449c1.9-1.365,3.852-2.888,5.836-4.536.987-.829,1.995-1.68,2.973-2.59.462-.472,1.033-.892,1.175-1.5a2,2,0,0,0-.509-1.741l-.092-.108.071-.114a1.045,1.045,0,0,0,.108-.941,2.057,2.057,0,0,0-.662-.854l.12.034-6.492.432-10.7.7-.843.056.749-.4A29,29,0,0,0,178,251.3a5.507,5.507,0,0,0,.974-1.061,2.216,2.216,0,0,0,.372-1.29,4.065,4.065,0,0,0-1.086-2.432l.228.008-2.03,1.853-.982.9a4.064,4.064,0,0,1-1.059.816,9.229,9.229,0,0,1-2.494.448c-.809.068-1.593.116-2.348.191a15.124,15.124,0,0,0-2.164.346,9.209,9.209,0,0,0-1.888.746c-1.178.588-2.239,1.18-3.194,1.716-1.909,1.079-3.4,1.957-4.412,2.553l-1.162.678-.3.17a.407.407,0,0,1-.106.051s.029-.029.093-.073l.287-.192,1.136-.721c1-.623,2.472-1.528,4.369-2.633.951-.549,2.005-1.154,3.186-1.757a9.435,9.435,0,0,1,1.929-.781,15.214,15.214,0,0,1,2.2-.37c.761-.082,1.547-.136,2.351-.208a9.093,9.093,0,0,0,2.4-.439,3.843,3.843,0,0,0,.972-.768l.977-.9,2.021-1.861.123-.113.106.121a4.366,4.366,0,0,1,1.186,2.649,2.556,2.556,0,0,1-.419,1.482,5.833,5.833,0,0,1-1.033,1.137,29.216,29.216,0,0,1-5.268,3.4l-.094-.342,10.7-.714,6.492-.428.071,0,.05.039a2.413,2.413,0,0,1,.79,1.027,1.419,1.419,0,0,1-.145,1.262l-.021-.223a2.358,2.358,0,0,1,.593,2.08,2.081,2.081,0,0,1-.55.944c-.238.268-.489.482-.732.723-.99.917-2,1.766-2.995,2.6-2,1.647-3.956,3.167-5.872,4.529a35.8,35.8,0,0,1-5.683,3.448,6.774,6.774,0,0,1-1.48.466,3.264,3.264,0,0,1-.747.072c-.247.014-.489.011-.729,0-.961-.012-1.872-.1-2.74-.174-3.467-.356-6.213-.831-8.1-1.15l-2.162-.4-.557-.116a.847.847,0,0,1-.187-.051" transform="translate(-44.813 -70.561)" fill="#8b5d54"/>
            <path id="Trazado_228759" data-name="Trazado 228759" d="M240.149,250.538c-4.312,1.657-9.614,3.312-13.929,4.654a3.451,3.451,0,0,0-1.565.8,1.187,1.187,0,0,0-.095,1.6,1.743,1.743,0,0,0,1.348.28l3.174-.223A23.1,23.1,0,0,0,222.3,260.9c-.55.385-1.138.9-1.122,1.571a1.472,1.472,0,0,0,1.2,1.27,4.261,4.261,0,0,0,1.863-.128q5.894-1.3,11.716-2.9a3.418,3.418,0,0,0,2.559-1.992l1.811-2.888a4.863,4.863,0,0,0,.862-1.99,4.062,4.062,0,0,0-1.041-3.3" transform="translate(-63.396 -71.812)" fill="#ba7f72"/>
            <path id="Trazado_228760" data-name="Trazado 228760" d="M92.47,205.1,79.6,174.132l-.291-.942c-1.129.679-11.768,7.3-13.949,18.54s-1.411,38.014-1.411,38.014l28.752-.927Z" transform="translate(-18.292 -49.642)" fill="#4dd0e1"/>
            <path id="Trazado_228761" data-name="Trazado 228761" d="M64.6,205.112a.662.662,0,0,1-.009.168c-.015.128-.034.29-.056.489-.048.429-.151,1.061-.238,1.883-.168,1.646-.388,4.046-.507,7.059-.251,6.024-.249,14.489.2,24.173l-.178-.172c3.135.028,6.44.013,9.834-.066,7.018-.156,13.642-.535,19.405-1l-.153.158a151.2,151.2,0,0,0-.6-17.485c-.138-2.125-.207-3.8-.235-4.95q-.01-.832-.015-1.312a2.822,2.822,0,0,1,.014-.451,3.005,3.005,0,0,1,.04.449c.016.32.039.754.066,1.308.061,1.144.162,2.82.327,4.941a141.007,141.007,0,0,1,.735,17.515l-.006.146-.146.013c-5.766.487-12.4.881-19.424,1.037-3.4.079-6.708.091-9.847.057l-.171,0-.008-.17c-.427-9.7-.383-18.17-.068-24.2.151-3.015.407-5.419.615-7.063.107-.823.23-1.452.3-1.879.036-.2.065-.357.088-.484a.636.636,0,0,1,.041-.163" transform="translate(-18.147 -58.792)" fill="#263238"/>
            <path id="Trazado_228762" data-name="Trazado 228762" d="M88,174.339a2.856,2.856,0,0,1,.7.23,6.736,6.736,0,0,1,.8.348,11.112,11.112,0,0,1,1.018.536,16.746,16.746,0,0,1,2.452,1.727,17.617,17.617,0,0,1,4.469,5.785,16.668,16.668,0,0,1,1.053,2.808,10.949,10.949,0,0,1,.263,1.121,6.644,6.644,0,0,1,.136.857,2.819,2.819,0,0,1,.046.738c-.071.011-.193-1.036-.7-2.642a18.748,18.748,0,0,0-1.108-2.731,18.714,18.714,0,0,0-4.387-5.677,18.678,18.678,0,0,0-2.363-1.761c-1.427-.892-2.41-1.274-2.381-1.34" transform="translate(-25.224 -49.97)" fill="#263238"/>
            <path id="Trazado_228763" data-name="Trazado 228763" d="M162.8,196.249a1.651,1.651,0,0,1,.22.342c.131.233.334.57.562,1.022a39.452,39.452,0,0,1,1.736,3.924,50,50,0,0,1,3.092,13.784,34.758,34.758,0,0,1-.306,7.8,54.919,54.919,0,0,1-1.476,6.191c-.485,1.741-.842,3.157-1.066,4.142-.106.459-.192.835-.261,1.134a1.634,1.634,0,0,1-.114.392,1.742,1.742,0,0,1,.041-.405c.041-.263.1-.653.193-1.15.18-1,.5-2.428.954-4.18a60.013,60.013,0,0,0,1.391-6.176,35.558,35.558,0,0,0,.274-7.717,52.914,52.914,0,0,0-2.968-13.72c-.613-1.7-1.2-3.035-1.619-3.952l-.5-1.051a1.653,1.653,0,0,1-.155-.377" transform="translate(-46.663 -56.251)" fill="#263238"/>
            <path id="Trazado_228764" data-name="Trazado 228764" d="M145.352,222.637a4.7,4.7,0,0,1,.121.946,9.727,9.727,0,0,1,.054,1.117c0,.436.023.935-.025,1.482a23.542,23.542,0,0,1-.515,3.827,24.538,24.538,0,0,1-3.747,8.639,23.445,23.445,0,0,1-2.441,2.99c-.367.411-.748.733-1.065,1.032a9.314,9.314,0,0,1-.852.724,4.669,4.669,0,0,1-.773.559c-.049-.059,1.029-.887,2.5-2.493a26.023,26.023,0,0,0,2.35-3,25.881,25.881,0,0,0,3.7-8.524,25.948,25.948,0,0,0,.586-3.769c.169-2.169.036-3.522.113-3.527" transform="translate(-39.012 -63.815)" fill="#263238"/>
            <path id="Trazado_228765" data-name="Trazado 228765" d="M92.617,239.847a1.688,1.688,0,0,1-.327-.243l-.892-.75c-.77-.656-1.87-1.622-3.217-2.829-2.7-2.413-6.365-5.808-10.317-9.66s-7.438-7.44-9.917-10.075c-1.241-1.317-2.234-2.392-2.908-3.145l-.772-.872a1.714,1.714,0,0,1-.251-.321,1.629,1.629,0,0,1,.305.27l.823.825,2.992,3.062c2.527,2.586,6.038,6.138,9.986,9.991s7.587,7.271,10.235,9.732l3.136,2.916.845.8a1.7,1.7,0,0,1,.278.3" transform="translate(-18.349 -60.752)" fill="#fff"/>
            <path id="Trazado_228766" data-name="Trazado 228766" d="M150.321,177.97c.07.076-10.165,9.637-22.856,21.353s-23.04,21.158-23.11,21.082,10.162-9.635,22.858-21.355,23.038-21.156,23.107-21.08" transform="translate(-29.912 -51.012)" fill="#fff"/>
            <path id="Trazado_228767" data-name="Trazado 228767" d="M188.26,229.537a3.531,3.531,0,0,1-.768-.3c-.484-.213-1.177-.537-2.027-.95-1.7-.824-4.025-2.015-6.547-3.412s-4.765-2.739-6.365-3.744c-.8-.5-1.442-.919-1.879-1.216a3.53,3.53,0,0,1-.659-.493,3.47,3.47,0,0,1,.735.37l1.938,1.114c1.633.947,3.891,2.249,6.409,3.645s4.818,2.62,6.486,3.5l1.972,1.054a3.511,3.511,0,0,1,.7.427" transform="translate(-48.732 -62.893)" fill="#fff"/>
            <path id="Trazado_228768" data-name="Trazado 228768" d="M112.264,71.534c-2.773-1.761-3.443-5.843-1.94-8.764s4.691-4.695,7.933-5.218a15.118,15.118,0,0,1,13.024,4.316c1.79,1.843,3.239,4.247,5.666,5.091,2.133.743,4.493.072,6.732.362a10.158,10.158,0,0,1,7.115,5.13,21.926,21.926,0,0,1,2.53,8.652c.327,2.759.542,5.788,2.456,7.8,1.867,1.964,4.816,2.38,7.137,3.777a9.769,9.769,0,0,1,2.9,13.343c-.919,1.34-2.238,2.57-2.345,4.192-.1,1.481.86,2.8,1.308,4.214a6.594,6.594,0,0,1-5.641,8.187c-1.926.111-3.989-.64-5.715.221s-2.353,2.923-3.449,4.494a8.245,8.245,0,0,1-10.053,2.6c-1.417-.695-2.754-1.841-4.328-1.735s-2.807,1.447-4.352,1.746c-2.023.391-3.944-1.1-5.148-2.772s-2.041-3.644-3.581-5.014c-2.016-1.793-4.849-2.236-7.4-3.115A20.873,20.873,0,0,1,103.328,89.8" transform="translate(-28.969 -16.445)" fill="#263238"/>
            <path id="Trazado_228769" data-name="Trazado 228769" d="M157.447,127.386A5.66,5.66,0,0,1,159.7,125.9l-.172-.01a3.355,3.355,0,0,1,.482-.082,2.239,2.239,0,0,1,1.758.218h-.017a4.163,4.163,0,0,1,2.277,1.982,4.926,4.926,0,0,1-.581,5.076,3.765,3.765,0,0,1-6.91-1.293,4.674,4.674,0,0,1,.911-4.409" transform="translate(-44.812 -36.038)" fill="#455a64"/>
            <path id="Trazado_228770" data-name="Trazado 228770" d="M144.577,93.47c-.716-7.815-6.176-17.273-13.953-16.226l-24.182,6.849a4.592,4.592,0,0,0-3.975,4.772l2.621,52.649,26.69,19.124c-.078-4.743,1.716-26.326,1.72-26.283,0,0,9.955-1.945,11.656-15.053.847-6.519.218-17.15-.576-25.833" transform="translate(-29.369 -22.118)" fill="#ba7f72"/>
            <path id="Trazado_228771" data-name="Trazado 228771" d="M158.4,114.987a1.674,1.674,0,0,1-1.566,1.734,1.6,1.6,0,0,1-1.768-1.46,1.676,1.676,0,0,1,1.564-1.736,1.6,1.6,0,0,1,1.77,1.461" transform="translate(-44.446 -32.538)" fill="#263238"/>
            <path id="Trazado_228772" data-name="Trazado 228772" d="M155.824,107.2c-.2.224-1.5-.678-3.3-.622-1.8.03-3.1.994-3.3.779-.1-.095.1-.5.665-.93a4.6,4.6,0,0,1,2.631-.894,4.415,4.415,0,0,1,2.632.768c.566.409.765.8.665.9" transform="translate(-42.767 -30.249)" fill="#263238"/>
            <path id="Trazado_228773" data-name="Trazado 228773" d="M134.106,114.987a1.675,1.675,0,0,1-1.567,1.734,1.6,1.6,0,0,1-1.768-1.46,1.676,1.676,0,0,1,1.564-1.736,1.6,1.6,0,0,1,1.77,1.461" transform="translate(-37.482 -32.538)" fill="#263238"/>
            <path id="Trazado_228774" data-name="Trazado 228774" d="M131.023,108.379c-.2.224-1.5-.678-3.3-.622-1.8.03-3.1.994-3.3.779-.1-.095.1-.494.665-.93a4.6,4.6,0,0,1,2.632-.894,4.419,4.419,0,0,1,2.632.768c.564.409.764.8.666.9" transform="translate(-35.658 -30.587)" fill="#263238"/>
            <path id="Trazado_228775" data-name="Trazado 228775" d="M142.866,121.491a11.925,11.925,0,0,1,2.91-.611c.459-.061.892-.165.96-.48a2.344,2.344,0,0,0-.346-1.355q-.7-1.651-1.46-3.463c-2.03-4.932-3.513-8.993-3.314-9.073s2.007,3.853,4.037,8.785q.734,1.824,1.4,3.486a2.66,2.66,0,0,1,.29,1.8,1.155,1.155,0,0,1-.737.693,3.115,3.115,0,0,1-.778.131,11.712,11.712,0,0,1-2.965.088" transform="translate(-40.586 -30.529)" fill="#263238"/>
            <path id="Trazado_228776" data-name="Trazado 228776" d="M138.893,155.661a33.215,33.215,0,0,1-17.61-4.165s4.495,8.844,17.521,7.251Z" transform="translate(-34.763 -43.423)" fill="#8b5d54"/>
            <path id="Trazado_228777" data-name="Trazado 228777" d="M140.606,132.785a4.433,4.433,0,0,0-3.7-1.831,2.886,2.886,0,0,0-2.333,1.356,2.646,2.646,0,0,0,3.078,3.878,6.575,6.575,0,0,0,2.605-1.716,2.046,2.046,0,0,0,.551-.69.918.918,0,0,0-.1-.912" transform="translate(-38.472 -37.533)" fill="#8b5d54"/>
            <path id="Trazado_228778" data-name="Trazado 228778" d="M135.889,129.468c.292-.025.352,1.93,2.064,3.269s3.787,1.066,3.81,1.338c.031.122-.453.393-1.332.442a4.872,4.872,0,0,1-3.178-1.007,4.241,4.241,0,0,1-1.605-2.744c-.1-.815.106-1.305.24-1.3" transform="translate(-38.874 -37.109)" fill="#263238"/>
            <path id="Trazado_228779" data-name="Trazado 228779" d="M131.209,98.12c-.163.5-1.968.314-4.073.628-2.113.273-3.8.94-4.092.508-.131-.206.153-.676.829-1.169a7.167,7.167,0,0,1,6.221-.866c.784.291,1.186.664,1.116.9" transform="translate(-35.259 -27.765)" fill="#263238"/>
            <path id="Trazado_228780" data-name="Trazado 228780" d="M154.88,98.5c-.306.418-1.559.029-3.05.051-1.493-.03-2.748.352-3.05-.067-.134-.2.054-.619.595-1.022a4.417,4.417,0,0,1,4.915.013c.539.405.724.821.591,1.025" transform="translate(-42.633 -27.722)" fill="#263238"/>
            <path id="Trazado_228781" data-name="Trazado 228781" d="M157.658,88.069a8.964,8.964,0,0,0-3.442-4.939,33.1,33.1,0,0,1-2.906-1.691c-1.885-1.522-2.323-4.172-3.487-6.3a9.856,9.856,0,0,0-7.508-4.981c-2.586-.265-5.25.511-7.771-.124-1.863-.469-3.491-1.679-5.378-2.037-3.676-.7-7.094,1.939-9.758,4.566-.01,2.632,2.086,4.391,4.1,6.08a9.125,9.125,0,0,0,7.39,1.95c2.008-.367,4.209-1.382,5.947-.312,1.828,1.125,1.9,3.881,3.525,5.289,2.317,2.011,6,.124,8.944,1,2.271.673,3.691,2.845,5.2,4.672s3.77,3.563,6.042,2.889a26.675,26.675,0,0,0-.9-6.061" transform="translate(-33.653 -19.458)" fill="#263238"/>
            <path id="Trazado_228782" data-name="Trazado 228782" d="M117.443,77.368c-1.648-.472-5.02-1.539-5.9-2.968a10.072,10.072,0,0,0-8.762-5.036,8.314,8.314,0,0,0-7.485,6.572,11.954,11.954,0,0,0-10.275,6.614,12.578,12.578,0,0,0-.653,1.534,9.1,9.1,0,0,0-.609,7.636c.571,1.488,1.542,3.144.776,4.542-.779,1.422-2.749,1.467-4.282,2a6.039,6.039,0,0,0-3.8,6.745,7.36,7.36,0,0,1,.48,2.97,6.464,6.464,0,0,1-1.776,2.568,7.516,7.516,0,0,0,4.407,12.233,9.7,9.7,0,0,1,3.458.788c1.164.716,1.673,2.116,2.494,3.208a6.484,6.484,0,0,0,7.025,2.2,5.931,5.931,0,0,0,1.412-.711,4.654,4.654,0,0,0,4.125,1.827l-.484-27.516a2.275,2.275,0,0,0,1.667,1.306c4.416,1,5.062-8.1,4.077-10.568a25.7,25.7,0,0,0,4.431-4.66c1.219-1.8,2.292-6.716,2.032-8.929,1.592.093,8.373-2.146,7.649-2.353" transform="translate(-21.039 -19.879)" fill="#263238"/>
            <path id="Trazado_228783" data-name="Trazado 228783" d="M105.7,117.96c-.14-2.8-3.562-3.395-5.986-1.993-1.331.769-2.349,2.316-2.227,5.285.326,7.918,8.208,5.957,8.213,5.73,0-.141.163-5.747,0-9.022" transform="translate(-27.941 -33.031)" fill="#ba7f72"/>
            <path id="Trazado_228784" data-name="Trazado 228784" d="M103.973,125.142c-.036-.024-.134.1-.363.219a1.379,1.379,0,0,1-1.03.063c-.849-.273-1.608-1.572-1.7-3a4.56,4.56,0,0,1,.3-1.991,1.594,1.594,0,0,1,.994-1.1.7.7,0,0,1,.83.345c.116.217.071.377.114.389.023.019.164-.14.087-.464a.882.882,0,0,0-.332-.483,1.039,1.039,0,0,0-.771-.17,1.94,1.94,0,0,0-1.39,1.286,4.688,4.688,0,0,0-.387,2.227c.116,1.594.994,3.053,2.153,3.336a1.479,1.479,0,0,0,1.253-.261c.238-.206.272-.385.244-.4" transform="translate(-28.753 -34.091)" fill="#8b5d54"/>
            <path id="Trazado_228785" data-name="Trazado 228785" d="M112.277,77.59a4.725,4.725,0,0,0-1.579,1.323c-.784,1.079-1.079,3.147-.583,5.476l.043.2-.195.049a7.655,7.655,0,0,0-5.1,4.494,5.961,5.961,0,0,0-.41,1.932,11.7,11.7,0,0,0,.248,2.092,15.729,15.729,0,0,1,.3,2.253,3.724,3.724,0,0,1-.627,2.336,9.605,9.605,0,0,1-3.929,2.952,13.309,13.309,0,0,0-3.677,2.408,9.893,9.893,0,0,0-2.957,6.635,10.327,10.327,0,0,0,1.044,4.893c.526,1.081.967,1.6.922,1.629-.015.012-.131-.11-.338-.356a8.37,8.37,0,0,1-.778-1.173,10.05,10.05,0,0,1-1.246-5,10.187,10.187,0,0,1,2.989-6.99,13.645,13.645,0,0,1,3.79-2.53A9.211,9.211,0,0,0,103.9,97.44c.877-1.2.485-2.771.255-4.19a11.891,11.891,0,0,1-.244-2.2,6.4,6.4,0,0,1,.463-2.113,8.024,8.024,0,0,1,5.487-4.7l-.152.248c-.469-2.441-.1-4.582.8-5.706a3.334,3.334,0,0,1,1.239-1.009,1.934,1.934,0,0,1,.527-.178" transform="translate(-26.776 -22.239)" fill="#455a64"/>
            <path id="Trazado_228786" data-name="Trazado 228786" d="M100.854,131.124a5.66,5.66,0,0,1,2.251-1.481l-.172-.01a3.368,3.368,0,0,1,.482-.082,2.238,2.238,0,0,1,1.759.218h-.017a4.167,4.167,0,0,1,2.277,1.982,4.927,4.927,0,0,1-.581,5.077,3.765,3.765,0,0,1-6.91-1.293,4.674,4.674,0,0,1,.911-4.409" transform="translate(-28.591 -37.11)" fill="#455a64"/>
            <path id="Trazado_228787" data-name="Trazado 228787" d="M143.848,119.795c1.492-.165,3.336-.469,3.89-.993.82-.775,1.669-3.651,2.392-6.361.093-.347.154-.581.178-.646l-.567-.222a7.412,7.412,0,0,0-.208.729c-.388,1.456-1.42,5.322-2.228,6.086-.954.9-8.919,1.366-9.655.85-.461-.368-1.538-3.829-2.155-6.169l-.056-.212-3.169-.088-.078.2c-.623,1.582-2.547,5.861-3.94,6.656-1.746.994-8.536.516-9.05-.165a49.405,49.405,0,0,1-2.311-7.186l-.061-.228-9.665.389.019.584,9.172-.368c.345,1.273,1.746,6.357,2.346,7.153.819,1.089,8.1,1.327,9.863.322,1.692-.965,3.7-5.708,4.125-6.758l2.266.063c.354,1.322,1.564,5.673,2.3,6.26.676.54,4.675.27,5.128.238.376-.026.9-.069,1.467-.133" transform="translate(-30.717 -31.98)" fill="#455a64"/>
            <path id="Trazado_228788" data-name="Trazado 228788" d="M135.769,113.378l.624-1.016c-4.183-2.3-11.629-3.249-16.36-.783l.582,1.026c4.217-2.2,11.241-1.375,15.154.773" transform="translate(-34.405 -31.566)" fill="#455a64"/>
            <path id="Trazado_228789" data-name="Trazado 228789" d="M161.042,111.842l.468-1.088c-5.075-1.929-11.615-1.3-15.551,1.5l.73.935c3.555-2.527,9.725-3.107,14.353-1.348" transform="translate(-41.836 -31.427)" fill="#455a64"/>
            <path id="Trazado_228790" data-name="Trazado 228790" d="M207.363,369.216l-8.635,21.417s18.834,18.333,17.358,22.49l-42.406-18.045,14.329-34.158Z" transform="translate(-49.782 -103.451)" fill="#4dd0e1"/>
            <path id="Trazado_228791" data-name="Trazado 228791" d="M191.179,393.38a1.881,1.881,0,0,0-2.038,1.467,1.808,1.808,0,0,0,1.436,2.033,1.984,1.984,0,0,0,2.15-1.564,1.878,1.878,0,0,0-1.728-1.95" transform="translate(-54.207 -112.749)" fill="#e0e0e0"/>
            <path id="Trazado_228792" data-name="Trazado 228792" d="M173.681,407.441l1.579-3.386,40.069,18.568s1.538,1.625.759,2.864Z" transform="translate(-49.782 -115.815)" fill="#263238"/>
            <path id="Trazado_228793" data-name="Trazado 228793" d="M208.43,403.6c-.095.2-1.171-.143-2.473.09-1.308.2-2.215.872-2.371.708-.173-.121.662-1.228,2.244-1.482s2.726.513,2.6.683" transform="translate(-58.348 -115.471)" fill="#263238"/>
            <path id="Trazado_228794" data-name="Trazado 228794" d="M213.88,409c-.038.22-1.084.191-2.161.768-1.093.545-1.673,1.417-1.875,1.32-.208-.05.164-1.324,1.516-2.015s2.6-.271,2.52-.072" transform="translate(-60.132 -117.141)" fill="#263238"/>
            <path id="Trazado_228795" data-name="Trazado 228795" d="M215.857,416.91c-.207-.036-.055-1.193.959-2.1s2.175-.947,2.189-.737c.044.22-.844.561-1.665,1.319-.838.738-1.27,1.586-1.484,1.519" transform="translate(-61.848 -118.655)" fill="#263238"/>
            <path id="Trazado_228796" data-name="Trazado 228796" d="M155.5,279.426s46.425-11.843,51.478-11.527,21.317,3.316,15,22.265-34.74,67.111-34.74,67.111l-23.9-10.046,14.275-34.645s-29.892,8.991-42.188,9.708-22.4-16.652-22.4-16.652Z" transform="translate(-32.396 -76.786)" fill="#263238"/>
            <path id="Trazado_228797" data-name="Trazado 228797" d="M228.125,290.077a8.212,8.212,0,0,1,1.542-1.47,21.808,21.808,0,0,1,4.367-2.722,23.137,23.137,0,0,1,4.872-1.642c1.274-.292,2.007-.624,2.032-.578a5.588,5.588,0,0,1-1.962.831,29.238,29.238,0,0,0-4.783,1.725,26.986,26.986,0,0,0-4.364,2.595c-1.051.771-1.662,1.305-1.7,1.262" transform="translate(-65.387 -81.306)" fill="#455a64"/>
            <path id="Trazado_228798" data-name="Trazado 228798" d="M215.6,307.67a2.813,2.813,0,0,1,.251-.688c.183-.432.464-1.051.82-1.811a57.107,57.107,0,0,1,6.843-11.179c.514-.663.937-1.195,1.239-1.554a2.812,2.812,0,0,1,.5-.536,2.766,2.766,0,0,1-.382.624l-1.144,1.623c-.967,1.368-2.3,3.256-3.638,5.431s-2.4,4.226-3.181,5.709q-.54,1.024-.925,1.757a2.8,2.8,0,0,1-.382.624" transform="translate(-61.798 -83.668)" fill="#455a64"/>
            <path id="Trazado_228799" data-name="Trazado 228799" d="M124.709,277.853c1.883-.765,7.716-2.716,9.746-2.818,3.163-.161,7.728.03,10.682,2,4.906,3.27,67.676,69.523,67.676,69.523L195.2,368.209s-32.308-23.43-40.952-32.774-18.455-24.061-18.455-24.061-11.718,12.381-22.619,17.791c-6.782,3.366-23.387,7.149-37.675,5.875a21.826,21.826,0,0,1-19.82-24.132c.009-.08.019-.159.029-.238a59.382,59.382,0,0,1,1.335-6.319Z" transform="translate(-15.919 -78.821)" fill="#263238"/>
            <path id="Trazado_228800" data-name="Trazado 228800" d="M132.387,329.623s.144-.1.434-.285l1.3-.811c1.138-.723,2.834-1.775,4.991-3.207s4.785-3.23,7.729-5.506a64.8,64.8,0,0,0,9.315-8.628l.118-.136.074.165a47.724,47.724,0,0,0,3.922,6.888c1.574,2.3,3.377,4.591,5.333,6.917q2.976,3.455,6.419,6.974,3.458,3.494,7.316,7.053c5.153,4.724,10.806,9.519,16.879,14.333s12.54,9.685,19.4,14.455l-.243.034,16.945-20.321.932-1.118.008.248-37.237-38.8-16.3-16.84c-2.565-2.623-5.041-5.158-7.458-7.554-1.207-1.2-2.417-2.347-3.606-3.463a27.225,27.225,0,0,0-3.659-3.04,13.545,13.545,0,0,0-4.172-1.694,13.246,13.246,0,0,0-2.129-.424,12.122,12.122,0,0,0-2.112.047,44.811,44.811,0,0,0-7.722,1.672c-4.741,1.415-8.732,2.926-11.979,4.186s-5.738,2.318-7.425,3.035l-1.918.82c-.432.186-.656.274-.656.274s.214-.111.641-.308l1.9-.855c1.679-.739,4.164-1.809,7.4-3.1s7.227-2.814,11.973-4.25a44.8,44.8,0,0,1,7.758-1.708,12.266,12.266,0,0,1,2.153-.054,13.4,13.4,0,0,1,2.172.424,13.79,13.79,0,0,1,4.251,1.714,27.458,27.458,0,0,1,3.705,3.06c1.194,1.116,2.4,2.261,3.62,3.46,2.426,2.393,4.906,4.924,7.477,7.543l16.33,16.818,37.261,38.779.115.12-.107.128-.932,1.117L215.653,368.1l-.108.128-.136-.094c-6.868-4.782-13.332-9.662-19.407-14.485s-11.725-9.633-16.878-14.371q-3.859-3.559-7.315-7.077-3.438-3.525-6.417-7c-1.956-2.337-3.759-4.644-5.332-6.954a47.754,47.754,0,0,1-3.921-6.94l.193.029a64.491,64.491,0,0,1-9.38,8.62c-2.96,2.266-5.6,4.053-7.771,5.467s-3.876,2.453-5.026,3.157l-1.314.785c-.3.175-.452.257-.452.257" transform="translate(-36.368 -78.709)" fill="#455a64"/>
          </g>
        </g>
        <g id="Grupo_114962" data-name="Grupo 114962">
          <g id="Grupo_114961" data-name="Grupo 114961" clip-path="url(#clip-path)">
            <path id="Trazado_228801" data-name="Trazado 228801" d="M361.662,87.759H208.142a2.645,2.645,0,0,0-2.607,2.679v78.534a2.645,2.645,0,0,0,2.607,2.679h5.173v14.487l14.1-14.487H361.662a2.644,2.644,0,0,0,2.607-2.679V90.438a2.644,2.644,0,0,0-2.607-2.679" transform="translate(-58.913 -25.154)" fill="#fff"/>
            <path id="Trazado_228802" data-name="Trazado 228802" d="M364.27,102.363H205.535V90.873a3.114,3.114,0,0,1,3.115-3.114H361.156a3.114,3.114,0,0,1,3.114,3.114Z" transform="translate(-58.913 -25.154)" fill="#e0e0e0"/>
            <path id="Trazado_228803" data-name="Trazado 228803" d="M217.638,97.5a2,2,0,1,1-2-2.054,2.027,2.027,0,0,1,2,2.054" transform="translate(-61.236 -27.359)" fill="#fff"/>
            <path id="Trazado_228804" data-name="Trazado 228804" d="M226.668,97.5a2,2,0,1,1-2-2.054,2.027,2.027,0,0,1,2,2.054" transform="translate(-63.824 -27.359)" fill="#fff"/>
            <path id="Trazado_228805" data-name="Trazado 228805" d="M236.009,97.5a2,2,0,1,1-2-2.054,2.027,2.027,0,0,1,2,2.054" transform="translate(-66.502 -27.359)" fill="#fff"/>
            <path id="Trazado_228806" data-name="Trazado 228806" d="M303.409,96.9c0,.925-.675,1.5-1.753,1.5h-.814v1.144h-.935V95.4h1.748c1.079,0,1.753.574,1.753,1.5m-.946,0c0-.455-.288-.722-.86-.722h-.762v1.439h.762c.571,0,.86-.266.86-.717" transform="translate(-85.963 -27.344)" fill="#263238"/>
            <path id="Trazado_228807" data-name="Trazado 228807" d="M307.578,96.675v.852c-.075-.006-.133-.011-.2-.011a.773.773,0,0,0-.825.888v1.5h-.9V96.722h.86v.421a1.238,1.238,0,0,1,1.067-.468" transform="translate(-87.609 -27.71)" fill="#263238"/>
            <path id="Trazado_228808" data-name="Trazado 228808" d="M308.738,98.316a1.706,1.706,0,1,1,1.708,1.64,1.616,1.616,0,0,1-1.708-1.64m2.5,0a.8.8,0,1,0-.79.882.8.8,0,0,0,.79-.882" transform="translate(-88.494 -27.71)" fill="#263238"/>
            <path id="Trazado_228809" data-name="Trazado 228809" d="M314.03,98.316a1.623,1.623,0,0,1,1.731-1.64,1.419,1.419,0,0,1,1.39.811l-.7.385a.772.772,0,0,0-.7-.439.885.885,0,0,0,0,1.765.762.762,0,0,0,.7-.438l.7.39a1.434,1.434,0,0,1-1.39.805,1.623,1.623,0,0,1-1.731-1.64" transform="translate(-90.011 -27.71)" fill="#263238"/>
            <path id="Trazado_228810" data-name="Trazado 228810" d="M322,98.576h-2.348a.83.83,0,0,0,.888.64,1.037,1.037,0,0,0,.779-.308l.479.533a1.6,1.6,0,0,1-1.281.515,1.629,1.629,0,0,1-1.771-1.64,1.6,1.6,0,0,1,1.656-1.64,1.556,1.556,0,0,1,1.615,1.652c0,.071-.011.171-.016.248m-2.36-.539h1.529a.772.772,0,0,0-1.529,0" transform="translate(-91.363 -27.71)" fill="#263238"/>
            <path id="Trazado_228811" data-name="Trazado 228811" d="M323.75,99.613l.3-.663a2.079,2.079,0,0,0,1.079.308c.415,0,.571-.113.571-.29,0-.521-1.875.012-1.875-1.261,0-.6.531-1.03,1.437-1.03a2.5,2.5,0,0,1,1.195.278l-.3.657a1.747,1.747,0,0,0-.895-.237c-.4,0-.576.131-.576.3,0,.545,1.875.018,1.875,1.273,0,.592-.536,1.012-1.465,1.012a2.609,2.609,0,0,1-1.344-.343" transform="translate(-92.797 -27.71)" fill="#263238"/>
            <path id="Trazado_228812" data-name="Trazado 228812" d="M328.04,99.613l.3-.663a2.079,2.079,0,0,0,1.079.308c.415,0,.571-.113.571-.29,0-.521-1.875.012-1.875-1.261,0-.6.531-1.03,1.437-1.03a2.5,2.5,0,0,1,1.195.278l-.3.657a1.747,1.747,0,0,0-.895-.237c-.4,0-.576.131-.576.3,0,.545,1.875.018,1.875,1.273,0,.592-.537,1.012-1.465,1.012a2.609,2.609,0,0,1-1.344-.343" transform="translate(-94.026 -27.71)" fill="#263238"/>
            <path id="Trazado_228813" data-name="Trazado 228813" d="M332.443,100.233a.559.559,0,1,1,1.119,0,.56.56,0,1,1-1.119,0" transform="translate(-95.289 -28.567)" fill="#263238"/>
            <path id="Trazado_228814" data-name="Trazado 228814" d="M334.56,100.233a.559.559,0,1,1,1.119,0,.56.56,0,1,1-1.119,0" transform="translate(-95.895 -28.567)" fill="#263238"/>
            <path id="Trazado_228815" data-name="Trazado 228815" d="M336.677,100.233a.559.559,0,1,1,1.119,0,.56.56,0,1,1-1.119,0" transform="translate(-96.502 -28.567)" fill="#263238"/>
            <path id="Trazado_228816" data-name="Trazado 228816" d="M395.634,186.421H372.339a5.345,5.345,0,0,1-5.345-5.345v-.89a5.345,5.345,0,0,1,5.345-5.345h23.294a5.346,5.346,0,0,1,5.345,5.345v.89a5.346,5.346,0,0,1-5.345,5.345" transform="translate(-105.192 -50.115)" fill="#e0e0e0"/>
            <path id="Trazado_228817" data-name="Trazado 228817" d="M380.357,181.865a1.705,1.705,0,0,1,1.758-1.751,1.6,1.6,0,0,1,1.226.5l-.225.231a1.311,1.311,0,0,0-.992-.408,1.427,1.427,0,0,0,0,2.853,1.3,1.3,0,0,0,.992-.413l.225.231a1.611,1.611,0,0,1-1.231.507,1.7,1.7,0,0,1-1.753-1.752" transform="translate(-109.022 -51.626)" fill="#fff"/>
            <path id="Trazado_228818" data-name="Trazado 228818" d="M387.259,182.332v1.6h-.326v-.4a.937.937,0,0,1-.867.428c-.57,0-.92-.3-.92-.753,0-.4.249-.733.972-.733h.8v-.158a.627.627,0,0,0-.715-.684,1.261,1.261,0,0,0-.838.305l-.153-.261a1.577,1.577,0,0,1,1.026-.35.906.906,0,0,1,1.02,1m-.34.827v-.423h-.791c-.489,0-.647.2-.647.462,0,.3.235.487.638.487a.807.807,0,0,0,.8-.526" transform="translate(-110.395 -51.974)" fill="#fff"/>
            <path id="Trazado_228819" data-name="Trazado 228819" d="M391.72,182.435v1.5h-.34v-1.467c0-.546-.277-.826-.756-.826a.837.837,0,0,0-.881.935v1.358h-.34v-2.588h.325v.477a1.05,1.05,0,0,1,.958-.5.978.978,0,0,1,1.034,1.107" transform="translate(-111.615 -51.974)" fill="#fff"/>
            <path id="Trazado_228820" data-name="Trazado 228820" d="M393.6,182.642a1.256,1.256,0,0,1,1.3-1.313,1.092,1.092,0,0,1,.987.512l-.254.177a.849.849,0,0,0-.733-.383,1.01,1.01,0,0,0,0,2.016.844.844,0,0,0,.733-.378l.254.177a1.1,1.1,0,0,1-.987.512,1.261,1.261,0,0,1-1.3-1.32" transform="translate(-112.819 -51.975)" fill="#fff"/>
            <path id="Trazado_228821" data-name="Trazado 228821" d="M399.766,182.75h-2.107a.941.941,0,0,0,.991.9.983.983,0,0,0,.771-.34l.191.226a1.224,1.224,0,0,1-.972.424,1.265,1.265,0,0,1-1.323-1.319,1.232,1.232,0,0,1,1.231-1.314,1.219,1.219,0,0,1,1.222,1.314c0,.029-.006.069-.006.108m-2.107-.261h1.786a.894.894,0,0,0-1.786,0" transform="translate(-113.884 -51.974)" fill="#fff"/>
            <rect id="Rectángulo_50182" data-name="Rectángulo 50182" width="0.34" height="3.651" transform="translate(286.58 128.311)" fill="#fff"/>
            <path id="Trazado_228822" data-name="Trazado 228822" d="M361.587,171.576a2.774,2.774,0,0,0,1.231-.338,2.678,2.678,0,0,0,1.333-2.108c.021-.362,0-.758.007-1.174-.008-3.344-.02-8.267-.035-14.606-.014-12.689-.034-31.042-.059-53.72q0-4.252-.006-8.705A5.507,5.507,0,0,0,364,89.841a2.569,2.569,0,0,0-.422-.969,2.446,2.446,0,0,0-1.793-1.037c-1.492-.02-3.041,0-4.583-.008l-19.3.011-42.576.017-47.047.011-24.885,0H209.071a8.131,8.131,0,0,0-1.557.068,2.477,2.477,0,0,0-1.849,2.118c-.041,2.1-.011,4.293-.021,6.446,0,14.354,0,28.426,0,42.089q0,10.247,0,20.171,0,4.958,0,9.825a2.67,2.67,0,0,0,.729,2.1,2.478,2.478,0,0,0,.946.592,3.116,3.116,0,0,0,1.135.125h4.969v.175q0,7.394,0,14.487l-.295-.119,14.1-14.483.048-.049h.069l97.159.067,27.375.046,7.229.025,1.855.013c.416,0,.628.014.628.014s-.212.009-.628.014l-1.855.013-7.229.025-27.375.046-97.159.067.118-.049-14.094,14.492-.295.3v-.422q0-7.1,0-14.487l.176.175h-4.793a3.458,3.458,0,0,1-1.248-.143,2.834,2.834,0,0,1-1.086-.678,3.029,3.029,0,0,1-.832-2.346q0-4.867,0-9.825,0-9.916,0-20.171c0-13.663,0-27.735,0-42.089.01-2.172-.024-4.3.023-6.49a2.849,2.849,0,0,1,2.131-2.435,8.246,8.246,0,0,1,1.644-.078H223.4l24.885,0,47.047.011,42.576.017,19.3.011c1.552.006,3.068-.009,4.606.014a2.725,2.725,0,0,1,2,1.157,2.844,2.844,0,0,1,.466,1.074,5.647,5.647,0,0,1,.057,1.139q0,4.451-.006,8.705c-.025,22.677-.046,41.03-.059,53.72-.015,6.339-.027,11.262-.035,14.606-.007.418.009.808-.016,1.18a2.727,2.727,0,0,1-.283.992,2.7,2.7,0,0,1-1.1,1.143,2.519,2.519,0,0,1-.923.292,2.287,2.287,0,0,1-.326.014" transform="translate(-58.837 -25.079)" fill="#263238"/>
            <path id="Trazado_228823" data-name="Trazado 228823" d="M353.423,152.764H226.679a6.322,6.322,0,0,1-6.323-6.323V145.39a6.323,6.323,0,0,1,6.323-6.323H353.423a6.323,6.323,0,0,1,6.323,6.323v1.052a6.322,6.322,0,0,1-6.323,6.323" transform="translate(-63.161 -39.861)" fill="#fff"/>
            <path id="Trazado_228824" data-name="Trazado 228824" d="M353.347,152.689s.064-.01.191-.019.318-.011.566-.049a6.443,6.443,0,0,0,2.113-.667,6.363,6.363,0,0,0,2.563-2.473,6.281,6.281,0,0,0,.745-2.16,3.779,3.779,0,0,0,.061-.621c.013-.21.019-.426.015-.647,0-.442,0-.9-.036-1.354a6.3,6.3,0,0,0-3.294-4.889,6.609,6.609,0,0,0-1.608-.584,8.053,8.053,0,0,0-1.784-.138l-3.841.007-18.03.028-104.4.054a6.873,6.873,0,0,0-1.826.275,6.681,6.681,0,0,0-1.654.805,6.181,6.181,0,0,0-2.244,2.841,8.584,8.584,0,0,0-.4,3.63,6.018,6.018,0,0,0,1.24,3.349,6.1,6.1,0,0,0,2.871,2.083,10.231,10.231,0,0,0,3.581.344h7.272l27.719.011,46.935.04,31.642.059,8.6.035,2.237.018c.5.006.763.019.763.019s-.258.013-.763.019l-2.237.018-8.6.035-31.642.059-46.935.04-27.719.011h-7.272c-.614-.006-1.216.014-1.844-.013a6.222,6.222,0,0,1-1.858-.35,6.466,6.466,0,0,1-3.045-2.207,6.383,6.383,0,0,1-1.315-3.551,18.174,18.174,0,0,1,0-1.9,6.264,6.264,0,0,1,.421-1.885,6.551,6.551,0,0,1,2.38-3.013,7.055,7.055,0,0,1,1.755-.855,7.286,7.286,0,0,1,1.936-.291l104.4.054,18.03.028,3.841.008a8.237,8.237,0,0,1,1.823.15,6.821,6.821,0,0,1,1.653.609,6.449,6.449,0,0,1,3.355,5.031c.031.474.034.928.028,1.368,0,.22,0,.438-.019.654a3.843,3.843,0,0,1-.067.633,6.371,6.371,0,0,1-.775,2.2,6.416,6.416,0,0,1-2.624,2.484,6.26,6.26,0,0,1-2.142.638,6.644,6.644,0,0,1-.763.031" transform="translate(-63.085 -39.786)" fill="#263238"/>
            <path id="Trazado_228825" data-name="Trazado 228825" d="M395.056,148.85a1.36,1.36,0,0,1-1.477,1.344c-1.1,0-1.749-.728-1.749-2.06a1.942,1.942,0,0,1,1.979-2.2,1.986,1.986,0,0,1,1.062.266l-.278.581a1.345,1.345,0,0,0-.767-.2c-.762,0-1.241.485-1.241,1.427v.006a1.361,1.361,0,0,1,1.079-.432,1.276,1.276,0,0,1,1.391,1.273m-.728.036a.711.711,0,0,0-.807-.7.741.741,0,0,0-.819.711c0,.391.3.7.837.7a.708.708,0,0,0,.79-.7" transform="translate(-112.311 -41.828)" fill="#263238"/>
            <path id="Trazado_228826" data-name="Trazado 228826" d="M396.895,148.063c0-1.362.728-2.132,1.685-2.132s1.691.77,1.691,2.132-.728,2.132-1.691,2.132-1.685-.77-1.685-2.132m2.62,0c0-1-.381-1.462-.935-1.462s-.929.462-.929,1.462.381,1.462.929,1.462.935-.462.935-1.462" transform="translate(-113.762 -41.828)" fill="#263238"/>
            <path id="Trazado_228827" data-name="Trazado 228827" d="M402.244,147.093a.979.979,0,1,1,.964,1.136,1,1,0,0,1-.964-1.136m1.46,0c0-.462-.185-.723-.5-.723s-.5.267-.5.723.2.722.5.722.5-.26.5-.722m1.927-1.1h.566l-2.758,4.145h-.565Zm-.738,3.05a.979.979,0,1,1,.964,1.137,1,1,0,0,1-.964-1.137m1.46,0c0-.456-.191-.723-.5-.723s-.5.261-.5.723.19.723.5.723.5-.267.5-.723" transform="translate(-115.296 -41.836)" fill="#263238"/>
            <path id="Trazado_228828" data-name="Trazado 228828" d="M290.412,151.817H227.654a4.82,4.82,0,0,1-4.82-4.82v-.8a4.82,4.82,0,0,1,4.82-4.82h62.758a4.82,4.82,0,0,1,4.82,4.82v.8a4.82,4.82,0,0,1-4.82,4.82" transform="translate(-63.871 -40.522)" fill="#4dd0e1"/>
            <g id="Grupo_114939" data-name="Grupo 114939" transform="translate(163.168 100.853)" opacity="0.2">
              <g id="Grupo_114938" data-name="Grupo 114938">
                <g id="Grupo_114937" data-name="Grupo 114937" clip-path="url(#clip-path-8)">
                  <path id="Trazado_228829" data-name="Trazado 228829" d="M228.729,151.817l6.218-10.442h3.322l-6.13,10.442Z" transform="translate(-228.729 -141.375)" fill="#fff"/>
                </g>
              </g>
            </g>
            <g id="Grupo_114942" data-name="Grupo 114942" transform="translate(171.39 100.853)" opacity="0.2">
              <g id="Grupo_114941" data-name="Grupo 114941">
                <g id="Grupo_114940" data-name="Grupo 114940" clip-path="url(#clip-path-9)">
                  <path id="Trazado_228830" data-name="Trazado 228830" d="M240.255,151.817l6.218-10.442H249.8l-6.13,10.442Z" transform="translate(-240.255 -141.375)" fill="#fff"/>
                </g>
              </g>
            </g>
            <g id="Grupo_114945" data-name="Grupo 114945" transform="translate(179.612 100.853)" opacity="0.2">
              <g id="Grupo_114944" data-name="Grupo 114944">
                <g id="Grupo_114943" data-name="Grupo 114943" clip-path="url(#clip-path-8)">
                  <path id="Trazado_228831" data-name="Trazado 228831" d="M251.78,151.817,258,141.375h3.322l-6.13,10.442Z" transform="translate(-251.78 -141.375)" fill="#fff"/>
                </g>
              </g>
            </g>
            <g id="Grupo_114948" data-name="Grupo 114948" transform="translate(187.834 100.853)" opacity="0.2">
              <g id="Grupo_114947" data-name="Grupo 114947">
                <g id="Grupo_114946" data-name="Grupo 114946" clip-path="url(#clip-path-8)">
                  <path id="Trazado_228832" data-name="Trazado 228832" d="M263.306,151.817l6.218-10.442h3.322l-6.13,10.442Z" transform="translate(-263.306 -141.375)" fill="#fff"/>
                </g>
              </g>
            </g>
            <g id="Grupo_114951" data-name="Grupo 114951" transform="translate(196.057 100.853)" opacity="0.2">
              <g id="Grupo_114950" data-name="Grupo 114950">
                <g id="Grupo_114949" data-name="Grupo 114949" clip-path="url(#clip-path-9)">
                  <path id="Trazado_228833" data-name="Trazado 228833" d="M274.832,151.817l6.218-10.442h3.322l-6.13,10.442Z" transform="translate(-274.832 -141.375)" fill="#fff"/>
                </g>
              </g>
            </g>
            <g id="Grupo_114954" data-name="Grupo 114954" transform="translate(204.278 100.853)" opacity="0.2">
              <g id="Grupo_114953" data-name="Grupo 114953">
                <g id="Grupo_114952" data-name="Grupo 114952" clip-path="url(#clip-path-8)">
                  <path id="Trazado_228834" data-name="Trazado 228834" d="M286.357,151.817l6.218-10.442H295.9l-6.13,10.442Z" transform="translate(-286.357 -141.375)" fill="#fff"/>
                </g>
              </g>
            </g>
            <g id="Grupo_114957" data-name="Grupo 114957" transform="translate(212.5 100.853)" opacity="0.2">
              <g id="Grupo_114956" data-name="Grupo 114956">
                <g id="Grupo_114955" data-name="Grupo 114955" clip-path="url(#clip-path-8)">
                  <path id="Trazado_228835" data-name="Trazado 228835" d="M297.883,151.817l6.218-10.442h3.322l-6.13,10.442Z" transform="translate(-297.883 -141.375)" fill="#fff"/>
                </g>
              </g>
            </g>
            <g id="Grupo_114960" data-name="Grupo 114960" transform="translate(220.723 100.891)" opacity="0.2">
              <g id="Grupo_114959" data-name="Grupo 114959">
                <g id="Grupo_114958" data-name="Grupo 114958" clip-path="url(#clip-path-15)">
                  <path id="Trazado_228836" data-name="Trazado 228836" d="M309.409,151.833l6.181-10.4a4.832,4.832,0,0,1,2.642,1.183l-5.412,9.22Z" transform="translate(-309.409 -141.429)" fill="#fff"/>
                </g>
              </g>
            </g>
            <path id="Trazado_228837" data-name="Trazado 228837" d="M345.173,166.117c0,.1-19.343.185-43.2.185s-43.2-.083-43.2-.185,19.339-.185,43.2-.185,43.2.083,43.2.185" transform="translate(-74.172 -47.561)" fill="#e0e0e0"/>
          </g>
        </g>
      </g>
    </g>
  </g>
</svg>
