<svg xmlns="http://www.w3.org/2000/svg" xmlns:xlink="http://www.w3.org/1999/xlink" width="468.671" height="241.68" viewBox="0 0 468.671 241.68">
  <defs>
    <clipPath id="clip-path">
      <rect id="Rect치ngulo_50012" data-name="Rect치ngulo 50012" width="468.671" height="241.679" fill="none"/>
    </clipPath>
  </defs>
  <g id="Grupo_114741" data-name="Grupo 114741" transform="translate(0 0.004)">
    <g id="Grupo_114740" data-name="Grupo 114740" transform="translate(0 -0.004)" clip-path="url(#clip-path)">
      <path id="Trazado_228150" data-name="Trazado 228150" d="M189.289,93.594l-6.031-.138c1.938,2.511,2.373,4.825,1.166,6.783-1.206,2-4.093,3.639-8.4,4.884A77.823,77.823,0,0,0,158.1,22.817a78.027,78.027,0,0,0-85.41-16.71c-1.147.494-2.294,1.009-3.4,1.543l-.01.005c-3.35-1.022-6.613-1.86-9.762-2.5-15.893-3.225-27.173-1-31.754,6.277C23.4,18.35,25.778,28.762,34.43,40.906l0,.006c-1.167,2.156-2.215,4.37-3.184,6.664-.732,1.72-1.384,3.441-1.978,5.2-16.255.969-24.957,3.83-28.121,9.011-3.678,6.032,1.345,14.126,17.422,22,2.215,1.088,4.588,2.156,7.08,3.223a76.171,76.171,0,0,0,5.6,21.2,77.919,77.919,0,0,0,143.234.732c7.93-1.642,13.151-4.212,15.227-7.614,1.444-2.353,1.266-4.964-.415-7.732M170.68,106.349a120.129,120.129,0,0,1-19.558,1.582,286.54,286.54,0,0,1-40.093-2.7q1.824-3.97,3.57-8.147a110.26,110.26,0,0,0,12.983,3.53,65.767,65.767,0,0,0,12.964,1.441c9.076,0,15.579-2.62,18.79-7.718a13.331,13.331,0,0,0,1.292-2.671H156c-.076.141-.158.28-.243.416-2.386,3.787-7.716,5.743-15.2,5.741a61.731,61.731,0,0,1-12.134-1.356A105.734,105.734,0,0,1,116.2,93.16q1.671-4.181,3.243-8.512c2.82-7.776,5.235-15.485,7.188-22.887a196.544,196.544,0,0,0,28.606,1.971q9.481,0,19.643-.766A73.786,73.786,0,0,1,176.4,77.892a72.918,72.918,0,0,1-5.715,28.457M74.287,144.966c-2.25-.816-3.393-4.046-3.955-6.612-.888-4.055-1.049-9.75-.464-16.47.3-3.4.77-7.012,1.41-10.791a200.34,200.34,0,0,1,27.251,9.429c-2,3.454-4.029,6.657-6.055,9.561-3.859,5.532-7.633,9.8-10.914,12.343-2.076,1.609-5.023,3.355-7.273,2.539m26.28-28.059a204.509,204.509,0,0,0-28.547-9.886q.511-2.632,1.12-5.351,4.032.917,8.174,1.772c8.078,1.652,16.136,3.055,24.024,4.19q-2.343,4.849-4.771,9.275M83.094,100.515q-4.681-.963-9.22-2.01c1.423-5.922,3.171-12.095,5.212-18.385A180.429,180.429,0,0,0,110.7,95.712q-1.922,4.589-3.942,8.93c-7.759-1.113-15.7-2.494-23.663-4.127M57.184,20.586a48.416,48.416,0,0,0,2.868,5.046A68.486,68.486,0,0,0,77.5,43.509a85.408,85.408,0,0,0,9.179,5.714c-2.963,6.456-5.784,13.346-8.379,20.5q-.726,2-1.414,3.994c-15.5-10.088-28.62-21.664-37.227-32.867l0,0a73.686,73.686,0,0,1,7.393-10.416c1.147-1.345,2.333-2.65,3.579-3.916L51.137,26a74.086,74.086,0,0,1,6.047-5.415M123.453,9.406c2.25.816,3.393,4.046,3.954,6.612.888,4.055,1.049,9.75.465,16.469a164.352,164.352,0,0,1-4.3,24.605q-3.971-.683-7.751-1.55A111.465,111.465,0,0,1,92.1,47.368a167.4,167.4,0,0,1,13.164-23.079c3.859-5.532,7.633-9.8,10.914-12.343,1.712-1.327,4.016-2.747,6.033-2.747a3.621,3.621,0,0,1,1.24.207M114.609,59.5q3.866.9,7.933,1.6c-1.9,7.158-4.246,14.613-6.976,22.141q-1.579,4.352-3.263,8.557A176.657,176.657,0,0,1,80.461,76q.83-2.425,1.713-4.865c2.536-6.993,5.289-13.724,8.176-20.028a115.4,115.4,0,0,0,24.258,8.4M154.9,26a73.1,73.1,0,0,1,19.022,32.9,215.351,215.351,0,0,1-46.266-1.157,167.854,167.854,0,0,0,4.328-24.9c.717-8.242.63-18-2.712-23.5q1.162.447,2.313.933A72.85,72.85,0,0,1,154.9,26M103.028,4.5A73.51,73.51,0,0,1,118,6.031c-5.764,2.509-11.649,9.493-16.116,15.9A171.388,171.388,0,0,0,88.432,45.481a81.4,81.4,0,0,1-8.246-5.122A63.564,63.564,0,0,1,63.674,23.632a43.366,43.366,0,0,1-3.127-5.588,73.324,73.324,0,0,1,9.484-5.722h0q2.021-1.02,4.115-1.913l.3-.13.07-.03c.3-.126.6-.248.9-.369l.241-.1A72.883,72.883,0,0,1,103.028,4.5M31.343,13.688c2.386-3.787,7.716-5.741,15.2-5.741A61.744,61.744,0,0,1,58.679,9.3q2.551.516,5.2,1.215h0a76.588,76.588,0,0,0-15.954,12.3c-1.008.989-1.977,2.017-2.927,3.085-1.187,1.305-2.314,2.67-3.4,4.054a78.469,78.469,0,0,0-4.825,6.9l0,.006c-6.614-9.821-8.6-18.148-5.433-23.176M35.4,49.336c.653-1.5,1.325-2.986,2.056-4.43l0,0c9.064,11.329,22.423,22.91,38.032,32.954-2.213,6.736-4.1,13.356-5.625,19.7a301.735,301.735,0,0,1-31.1-9.184c-1.938-.692-3.817-1.4-5.616-2.116-1.068-.415-2.116-.85-3.144-1.285-.158-1.582-.277-3.184-.316-4.786-.02-.771-.04-1.523-.04-2.294,0-.89.02-1.8.04-2.69a74.209,74.209,0,0,1,3.362-19.459c.336-1.068.692-2.116,1.088-3.164.4-1.088.811-2.175,1.266-3.243M22.166,81.452C8.145,74.609,1.738,68,4.6,63.317,6.919,59.52,15.343,56.95,28.237,56A75.749,75.749,0,0,0,25.31,72.454c-.119,1.661-.178,3.322-.2,5v.435c0,1.681.059,3.362.158,5.023-1.068-.475-2.1-.969-3.1-1.463m10.639,8.4c1.9.712,3.836,1.424,5.834,2.116,9.181,3.181,19.474,6.138,30.483,8.762q-.6,2.676-1.107,5.272-1.349-.327-2.7-.637a164.047,164.047,0,0,0-31.936-4.289,71.712,71.712,0,0,1-2.886-12.115l2.314.89M35.4,106.448q-.248-.589-.484-1.181A165.235,165.235,0,0,1,64.4,109.393q1.435.327,2.869.679c-.688,4.014-1.2,7.85-1.51,11.455-.594,6.831-.636,14.707,1.269,20.331A73.8,73.8,0,0,1,35.4,106.448M131.584,145.5a73.635,73.635,0,0,1-50.807,2.341c5.428-2.845,10.882-9.38,15.083-15.4,2.166-3.106,4.331-6.542,6.469-10.252a207.377,207.377,0,0,1,35.3,20.423q-2.946,1.574-6.046,2.888M154.9,129.783a72.835,72.835,0,0,1-13.347,10.579,211.7,211.7,0,0,0-37.2-21.781c1.789-3.278,3.553-6.741,5.274-10.356A317.022,317.022,0,0,0,143.449,111c2.729.079,5.379.079,7.95.059a141.485,141.485,0,0,0,17.679-1.186A72.906,72.906,0,0,1,154.9,129.783" transform="translate(0.001 0.004)" fill="#4dd0e1"/>
      <path id="Trazado_228151" data-name="Trazado 228151" d="M2122.878,526.648s14.67,14.438,15.341,19.882-6.654,13.961-6.654,13.961Z" transform="translate(-1784.585 -442.723)" fill="#363b74"/>
      <path id="Trazado_228152" data-name="Trazado 228152" d="M1990.192,1454.628s-.476,7.675-1.961,7.785c-.2.015-7.531.015-7.531.015l-9.362-.054a3.037,3.037,0,0,1,2.8-2.732c2.737-.477,7.317-2.4,8.975-6.017,1.744-3.805,7.082,1,7.082,1" transform="translate(-1657.194 -1220.748)" fill="#363b74"/>
      <path id="Trazado_228153" data-name="Trazado 228153" d="M2121.046,1454.628s-.476,7.675-1.96,7.785c-.2.015-7.531.015-7.531.015l-9.362-.054a3.037,3.037,0,0,1,2.8-2.732c2.737-.477,7.317-2.4,8.975-6.017,1.744-3.805,7.082,1,7.082,1" transform="translate(-1767.196 -1220.748)" fill="#363b74"/>
      <path id="Trazado_228154" data-name="Trazado 228154" d="M2024.588,888.11s2.448,15.66,11.583,43.46,10.379,39.837,10.379,39.837l9.8-.275s.083-30.381-4.126-44.361-.908-50.4-.908-50.4Z" transform="translate(-1701.958 -736.719)" fill="#1794d1"/>
      <path id="Trazado_228155" data-name="Trazado 228155" d="M1994.626,881.759a380.1,380.1,0,0,0,3.736,52.574c4.083,28.975,2.7,41.275,2.7,41.275l9.779.325s5.844-28.986,4.169-43.489,8-49.766,8-49.766Z" transform="translate(-1676.765 -741.245)" fill="#039be5"/>
      <path id="Trazado_228156" data-name="Trazado 228156" d="M2053.966,473.663l-4.612,3.416-6.666-1.4c.092-.608.532-3.127.933-5.409.024-.135.048-.269.071-.4.343-1.942.64-3.61.64-3.61l6.226-3.1,2.321-1.157c-.006.041-.18,2.155-.2,2.463a19.932,19.932,0,0,0,1.291,9.2" transform="translate(-1717.174 -388.374)" fill="#ebaf7d"/>
      <path id="Trazado_228157" data-name="Trazado 228157" d="M2029.721,511.725c.146-.062,9.068-2.694,10.037-2.374s1.543,2.2,1.543,2.2l-14.593,3.3a7.248,7.248,0,0,1,3.013-3.12" transform="translate(-1703.741 -428.16)" fill="#538c9f"/>
      <path id="Trazado_228158" data-name="Trazado 228158" d="M2017.942,582.9c-1.512,6.9-26.681,7.717-33.168,1.455-.738-.714-.774-4.035-.5-8.512.544-8.748,2.293-21.908,2.361-28.631a53.258,53.258,0,0,1,1.074-9.583,77.846,77.846,0,0,1,3.192-11.471s12.293-3.974,14.593-3.3c11.082,3.256,13.956,53.142,12.444,60.041" transform="translate(-1667.937 -439.475)" fill="#496087"/>
      <path id="Trazado_228159" data-name="Trazado 228159" d="M1985.123,647.277c.544-8.748,2.293-21.908,2.361-28.631a53.24,53.24,0,0,1,1.074-9.583l7.395-1.3s7.23,29.531-10.829,39.519" transform="translate(-1668.782 -510.908)" fill="#363b74"/>
      <path id="Trazado_228160" data-name="Trazado 228160" d="M1999.143,773.168a1.74,1.74,0,0,1-.554,2.014,3.373,3.373,0,0,0-1.5,3.077c.242.958,2.564,2.52,3.369,2.268s2.443-1.514,2.267-2.019,1.1-4.433-.86-5.946-2.719.6-2.719.6" transform="translate(-1678.798 -648.993)" fill="#ebaf7d"/>
      <path id="Trazado_228161" data-name="Trazado 228161" d="M1948.157,534.359s-7.2,1.111-12.944,9.579-9.527,14.765-8.469,17.817,10.708,13.638,12.371,13.638,4.348-1.21,4.5-3.932c0,0-6.794-10.182-5.455-11.707.572-.652,8.82-7.348,10-4.323,1.948,5,0-21.072,0-21.072" transform="translate(-1619.557 -449.205)" fill="#496087"/>
      <path id="Trazado_228162" data-name="Trazado 228162" d="M2057.13,470.654c-1.367,2.616-6.462,4.878-8.587,5.71.024-.134.048-.269.071-.4.344-1.942.639-3.61.639-3.61l6.226-3.1c1.376-.021,2.214.327,1.65,1.4" transform="translate(-1722.096 -394.471)" fill="#e8a36b"/>
      <path id="Trazado_228163" data-name="Trazado 228163" d="M2026.61,388.918s11.232,3.5,13.307-3.525,4.921-11.31-2.163-13.844-9.275-.266-10.538,1.912-3.474,14.364-.606,15.457" transform="translate(-1702.478 -311.401)" fill="#ebaf7d"/>
      <path id="Trazado_228164" data-name="Trazado 228164" d="M2043.416,352.927s.648,8.438,2.346,8.057,3.238-.666,2.969,1.882-2.644,5.507,2.577,5.913,12.845-13.537,11.432-16.152c-4.079-7.547-25.233-8.9-19.324.3" transform="translate(-1716.917 -291.274)" fill="#2d133b"/>
      <path id="Trazado_228165" data-name="Trazado 228165" d="M2463.582,870.827s-4.308,1.106-7.047.281-7.452.53-8.211,1.528-.48,1.4.874,1.74,6.153,2.391,9.307,1.207a25.132,25.132,0,0,1,7.268-1.228Z" transform="translate(-2057.821 -732.055)" fill="#e29763"/>
      <path id="Trazado_228166" data-name="Trazado 228166" d="M2566.476,610.649s-4.84,34.4-12.853,37.478c-3.954,1.52-21.43,4.966-26.6,5.312,0,0-1.266-1.027-.958-5.209,0,0,18.309-6.722,20.91-10.377,3.871-5.44-2.4-22.226,2.455-27.335s13.038-7.306,17.046.131" transform="translate(-2123.482 -509.301)" fill="#41bece"/>
      <path id="Trazado_228167" data-name="Trazado 228167" d="M2649.421,1179.024v-7.564h11.808a.581.581,0,0,0,.579-.579v-1.2a.581.581,0,0,0-.579-.579h-11.808v-42.692a2.185,2.185,0,0,0-2.178-2.178h-2.336a2.184,2.184,0,0,0-2.178,2.178V1169.1h-11.807a.581.581,0,0,0-.579.579v1.2a.581.581,0,0,0,.579.579h11.807v7.564c-8.543.646-15.388,3.723-17.307,7.7h41.307c-1.92-3.974-8.764-7.051-17.307-7.7" transform="translate(-2207.045 -945.077)" fill="#d24a32"/>
      <path id="Trazado_228168" data-name="Trazado 228168" d="M2512.849,984.2a60.347,60.347,0,0,1-4.728,6.764c-5.2,6.566-10.864,11.981-11.85,17.1a23.214,23.214,0,0,1-.915,3.276c-.412,1.172-.921,2.4-1.509,3.679a113.374,113.374,0,0,1-8.8,15.05c-5.7,8.442-11.054,15.486-11.054,15.486l-9.825-.419c.394-.984,4.678-12.641,10.411-26.886,2.328-5.783,4.8-11.934,7.191-17.865q.477-1.188.951-2.363c.73-1.815,1.449-3.6,2.15-5.342,5.382-13.376,9.67-24.027,9.67-24.027s21.512-8.149,23.747-2.869c1.842,4.354.342,8.62-5.436,18.416" transform="translate(-2071.487 -810.379)" fill="#363b74"/>
      <path id="Trazado_228169" data-name="Trazado 228169" d="M2418.427,1450.785s-.481,8.146-2.049,8.263c-.209.015-17.943,0-17.943,0a3.385,3.385,0,0,1,3.031-2.967c2.891-.5,7.729-2.535,9.48-6.356,1.842-4.019,7.48,1.061,7.48,1.061" transform="translate(-2016.231 -1217.401)" fill="#363b74"/>
      <path id="Trazado_228170" data-name="Trazado 228170" d="M2639.518,1319.2s6.833,4.391,6.17,5.818c-.088.19-3.865,6.954-3.865,6.954l-4.871,8.606a3.209,3.209,0,0,1-1.08-3.987c.969-2.77,1.554-7.984-.928-11.376-2.611-3.568,4.573-6.014,4.573-6.014" transform="translate(-2214.571 -1108.979)" fill="#363b74"/>
      <path id="Trazado_228171" data-name="Trazado 228171" d="M2449.577,968.312s-27.173,16.914-30.188,28.217,35.92,35.418,35.92,35.418,4.27-3.768,5.024-6.531c0,0-17.6-21.085-21.417-25.811-2.344-2.9,34.667-10.049,39.188-17.082s2.9-12.951,2.9-12.951Z" transform="translate(-2033.706 -814.005)" fill="#496087"/>
      <path id="Trazado_228172" data-name="Trazado 228172" d="M2626.291,1104.436h-55.264a2.016,2.016,0,0,0-2.01,2.01V1117.5a2.015,2.015,0,0,0,2.01,2.01h55.264a2.016,2.016,0,0,0,2.01-2.01v-11.053a2.016,2.016,0,0,0-2.01-2.01" transform="translate(-2159.63 -928.437)" fill="#b03321"/>
      <path id="Trazado_228173" data-name="Trazado 228173" d="M2678.364,539.32s-10.723,5.995-17.193,4.322a15.271,15.271,0,0,1,4.115-3.727c-.142-.629-.265-1.222-.372-1.773a42.115,42.115,0,0,1-.73-5l4.94-4.427,3.322.7c.064.326.134.643.213.954a15.866,15.866,0,0,0,5.7,8.945" transform="translate(-2237.098 -444.462)" fill="#e29763"/>
      <path id="Trazado_228174" data-name="Trazado 228174" d="M2636.552,612.889c-.927,12.464.293,31.417-.759,34.7-.908,2.833-11.244,1.149-15.371.2-1.527-.351-3.377-.85-5.286-1.441-5.329-1.65-11.136-4.006-11.76-5.756a1.52,1.52,0,0,1-.057-.2v0c-.011-.044-.018-.088-.024-.131a1.655,1.655,0,0,1,.035-.6c.208-.891,1.007-1.856,1.1-4.064.1-2.464.09-5.367.183-8.488,0-.352.01-.736.048-1.085V625.9c0-.067,0-.133,0-.2.09-3.48.272-7.141.483-10.769.134-2.28.289-4.538.468-6.7a89.483,89.483,0,0,1,1.92-13.685,21.971,21.971,0,0,1,7.062-10.9l1.966-1.687A11.363,11.363,0,0,0,2623.7,581c2.539-1.205,3.417-2.069,3.858-1.743,5.865,4.526,10.085,18.393,8.99,33.628" transform="translate(-2188.435 -486.894)" fill="#4dd0e1"/>
      <path id="Trazado_228175" data-name="Trazado 228175" d="M2615.136,843.516c-5.329-1.65-11.136-4.006-11.759-5.756a1.491,1.491,0,0,1-.056-.2v0a.415.415,0,0,0-.024-.131,1.638,1.638,0,0,1,.035-.6c.207-.891,1.008-1.856,1.1-4.064.105-2.464.09-5.367.183-8.488,0-.352.01-.736.047-1.085l0-.128c0-.067,0-.133,0-.2l20.13-9.129s1.16,16.223-9.663,29.783" transform="translate(-2188.435 -684.059)" fill="#41bece"/>
      <path id="Trazado_228176" data-name="Trazado 228176" d="M2688.551,530.375c-.732,1.849-2.921,6.206-7.746,7.765a42.232,42.232,0,0,1-.73-5l4.94-4.427,3.322.7c.064.326.134.643.213.954" transform="translate(-2252.99 -444.462)" fill="#d48b5d"/>
      <path id="Trazado_228177" data-name="Trazado 228177" d="M2654.6,463.217s10.6,1.2,11.244-5.418,2.444-10.913-4.3-11.956-8.3,1.352-9.055,3.508-.633,13.384,2.108,13.866" transform="translate(-2229.468 -374.583)" fill="#e29763"/>
      <path id="Trazado_228178" data-name="Trazado 228178" d="M2663.173,435.877a10.893,10.893,0,0,0-10.322-9.688c-6.61-.623-2.925-6.312-2.22-7.219,0,0,5.064.694,10.255,1.552,10.895,1.8,3.357,13.988,2.287,15.355" transform="translate(-2226.843 -352.205)" fill="#2d133b"/>
      <path id="Trazado_228179" data-name="Trazado 228179" d="M2395.375,794.865l-26.269.561-7.468-22.985-.928.3,7.9,24.3,26.8-.572Z" transform="translate(-1984.518 -649.348)" fill="#da711d"/>
      <path id="Trazado_228180" data-name="Trazado 228180" d="M2479.541,904.01s-4.16,1.575-6.973,1.057-7.348,1.348-7.992,2.425-.324,1.44,1.061,1.633,6.379,1.7,9.383.174a25.128,25.128,0,0,1,7.087-2.022Z" transform="translate(-2071.563 -759.95)" fill="#e29763"/>
      <path id="Trazado_228181" data-name="Trazado 228181" d="M2576.485,623.711s-1.018,34.721-8.643,38.666c-3.763,1.947-20.752,7.3-25.851,8.212,0,0-1.372-.881-1.527-5.071,0,0,17.457-8.7,19.639-12.619,3.248-5.834-4.839-21.825-.574-27.439s12.153-8.7,16.956-1.749" transform="translate(-2135.627 -520.951)" fill="#4dd0e1"/>
      <path id="Trazado_228182" data-name="Trazado 228182" d="M904.3,657.24,893.523,785.325s-1.129,7.764,4.647,7.778c9.5.023,47.263,0,47.263,0s-7.147-1.616-7.06-5.253c.1-4.287,12.591-131.823,12.591-131.823Z" transform="translate(-751.06 -551.486)" fill="#ffa726"/>
      <path id="Trazado_228183" data-name="Trazado 228183" d="M964.874,778.52c-1.868.005-37.94.118-47.188,0-4.03-.05-4.737-3.583-4.77-5.87a11.464,11.464,0,0,1,.123-1.907l.28-3.329.714-8.485.631-7.5.81-9.633.682-8.131,7.654-91.013,46.669-1.211s-5.26,53.373-8.98,92.225c-.415,4.329-.81,8.479-1.176,12.354q-.178,1.856-.343,3.624c-.345,3.676-.66,7.051-.935,10.032-.145,1.571-.278,3.03-.4,4.368-.475,5.239-.753,8.585-.757,9.221a5.361,5.361,0,0,0,.091,1.037c.766,4.082,6.193,4.216,6.894,4.216" transform="translate(-767.436 -539.226)" fill="#ffca28"/>
      <path id="Trazado_228184" data-name="Trazado 228184" d="M250.374,226.254l26.239,105.4,3.593,14.435,12.221,49.091H519.475L474.43,226.254Z" transform="translate(-210.476 -190.198)" fill="#ffca28"/>
      <path id="Trazado_228185" data-name="Trazado 228185" d="M231.189,226.253l-3.636,1.212,40.855,171.379,4.835-3.666Z" transform="translate(-191.291 -190.197)" fill="#e69649"/>
      <path id="Trazado_228186" data-name="Trazado 228186" d="M483.931,1289.97h225.65l6.231-3.666H488.766Z" transform="translate(-406.814 -1081.323)" fill="#ffa726"/>
      <rect id="Rect치ngulo_50011" data-name="Rect치ngulo 50011" width="48.857" height="2.321" transform="translate(156.359 239.345)" fill="#e7b62c"/>
      <path id="Trazado_228187" data-name="Trazado 228187" d="M506.559,364.051,469.717,228.487H248.095v-2.233H472.513l36.718,137.5Z" transform="translate(-208.559 -190.198)" fill="#e7b62c"/>
      <path id="Trazado_228188" data-name="Trazado 228188" d="M966.128,1309.3l-.252,1.775-45.947,9.282.631-7.5.3-3.561Z" transform="translate(-773.333 -1100.659)" fill="#ffa726"/>
      <path id="Trazado_228189" data-name="Trazado 228189" d="M964.881,1425.278c-1.868.005-37.94.118-47.188,0-4.03-.05-4.737-3.583-4.77-5.87l45.73-8.6c-.475,5.239-.753,8.585-.757,9.221a5.364,5.364,0,0,0,.091,1.037c.766,4.082,6.193,4.216,6.894,4.216" transform="translate(-767.443 -1185.984)" fill="#ffa726"/>
      <path id="Trazado_228190" data-name="Trazado 228190" d="M549.538,993.132l-99.738,34.2-12.221-49.092Z" transform="translate(-367.848 -822.349)" fill="#ffa726"/>
      <path id="Trazado_228191" data-name="Trazado 228191" d="M250.371,226.253H474.427l36.353,135.762H283.015Z" transform="translate(-210.473 -190.197)" fill="#ffa726"/>
      <path id="Trazado_228192" data-name="Trazado 228192" d="M1200.226,1154.092a7.678,7.678,0,0,0-7.2-6.029,4.825,4.825,0,0,0-4.857,6.029,7.678,7.678,0,0,0,7.2,6.029,4.825,4.825,0,0,0,4.857-6.029" transform="translate(-998.732 -965.112)" fill="#da711d"/>
      <path id="Trazado_228193" data-name="Trazado 228193" d="M549.174,394.495H339.39l-23.758-94.643-1.821-7.258-1.555-6.191-3.643-14.516H515.374l4,14.516,1.707,6.191,2,7.258Z" transform="translate(-259.434 -228.56)" fill="#d5f5ff"/>
      <path id="Trazado_228194" data-name="Trazado 228194" d="M519.375,286.4H312.257l-3.643-14.516H515.374Z" transform="translate(-259.434 -228.56)" fill="#6bb9d9"/>
      <path id="Trazado_228195" data-name="Trazado 228195" d="M363.356,301.667a1.371,1.371,0,0,0-1.362,1.815,2.478,2.478,0,0,0,2.267,1.815,1.371,1.371,0,0,0,1.362-1.815,2.479,2.479,0,0,0-2.267-1.815" transform="translate(-304.261 -253.594)" fill="#d5f5ff"/>
      <path id="Trazado_228196" data-name="Trazado 228196" d="M401.191,301.667a1.371,1.371,0,0,0-1.362,1.815A2.479,2.479,0,0,0,402.1,305.3a1.371,1.371,0,0,0,1.362-1.815,2.479,2.479,0,0,0-2.267-1.815" transform="translate(-336.067 -253.594)" fill="#d5f5ff"/>
      <path id="Trazado_228197" data-name="Trazado 228197" d="M444.2,303.483a2.478,2.478,0,0,0-2.267-1.815,1.371,1.371,0,0,0-1.362,1.815,2.479,2.479,0,0,0,2.267,1.815,1.371,1.371,0,0,0,1.362-1.815" transform="translate(-370.316 -253.595)" fill="#d5f5ff"/>
      <path id="Trazado_228198" data-name="Trazado 228198" d="M1286.655,570.941c-1.515-6.074-7.693-11.016-13.774-11.016a8.664,8.664,0,0,0-7.035,3.185,9.18,9.18,0,0,0-1.413,8.047c1.515,6.075,7.693,11.017,13.774,11.017a8.664,8.664,0,0,0,7.035-3.185,9.179,9.179,0,0,0,1.413-8.047m-2.115,7.5a7.794,7.794,0,0,1-6.334,2.843c-5.7,0-11.489-4.639-12.91-10.342a8.312,8.312,0,0,1,1.251-7.283,7.794,7.794,0,0,1,6.334-2.843c5.7,0,11.488,4.639,12.91,10.342a8.312,8.312,0,0,1-1.251,7.284" transform="translate(-1062.648 -470.697)" fill="#496087"/>
      <path id="Trazado_228199" data-name="Trazado 228199" d="M1322,602.643l-1.107-7.744-.087-.35h-3.119l.087.35,2.754,7.744Z" transform="translate(-1107.707 -499.803)" fill="#496087"/>
      <path id="Trazado_228200" data-name="Trazado 228200" d="M1333.369,653.916l.7,2.8h2.838l-.7-2.8Z" transform="translate(-1120.889 -549.71)" fill="#496087"/>
      <path id="Trazado_228201" data-name="Trazado 228201" d="M1329.152,736.029c-1.515-6.074-7.694-11.016-13.774-11.016a8.664,8.664,0,0,0-7.035,3.185,9.18,9.18,0,0,0-1.413,8.047c1.515,6.074,7.693,11.017,13.774,11.017a8.664,8.664,0,0,0,7.035-3.185,9.18,9.18,0,0,0,1.414-8.047m-2.115,7.5a7.8,7.8,0,0,1-6.334,2.843c-5.7,0-11.488-4.64-12.91-10.342a8.311,8.311,0,0,1,1.251-7.283,7.794,7.794,0,0,1,6.334-2.843c5.7,0,11.488,4.64,12.91,10.342a8.312,8.312,0,0,1-1.251,7.284" transform="translate(-1098.373 -609.477)" fill="#496087"/>
      <path id="Trazado_228202" data-name="Trazado 228202" d="M1364.5,767.73l-1.107-7.744-.087-.35h-3.118l.087.35,2.754,7.744Z" transform="translate(-1143.432 -638.583)" fill="#496087"/>
      <path id="Trazado_228203" data-name="Trazado 228203" d="M1375.867,819l.7,2.8h2.838l-.7-2.8Z" transform="translate(-1156.615 -688.489)" fill="#496087"/>
      <path id="Trazado_228204" data-name="Trazado 228204" d="M1467.649,594.605a.949.949,0,0,0,.941-1.253,1.718,1.718,0,0,0-1.566-1.254H1444.7a.949.949,0,0,0-.941,1.254,1.718,1.718,0,0,0,1.566,1.253Z" transform="translate(-1213.654 -497.743)" fill="#6bb9d9"/>
      <path id="Trazado_228205" data-name="Trazado 228205" d="M1445.343,489.464a1.718,1.718,0,0,0-1.566-1.254h-22.326a.949.949,0,0,0-.941,1.254,1.718,1.718,0,0,0,1.566,1.254H1444.4a.95.95,0,0,0,.941-1.254" transform="translate(-1194.112 -410.41)" fill="#6bb9d9"/>
      <path id="Trazado_228206" data-name="Trazado 228206" d="M1475.121,624.573a.949.949,0,0,0,.941-1.254,1.718,1.718,0,0,0-1.566-1.253h-22.326a.949.949,0,0,0-.941,1.253,1.718,1.718,0,0,0,1.566,1.254Z" transform="translate(-1219.936 -522.936)" fill="#6bb9d9"/>
      <path id="Trazado_228207" data-name="Trazado 228207" d="M1483.533,653.287a1.718,1.718,0,0,0-1.566-1.254h-22.325a.949.949,0,0,0-.941,1.254,1.718,1.718,0,0,0,1.566,1.254h22.326a.949.949,0,0,0,.941-1.254" transform="translate(-1226.217 -548.128)" fill="#6bb9d9"/>
      <path id="Trazado_228208" data-name="Trazado 228208" d="M1510.147,759.692a.95.95,0,0,0,.941-1.254,1.718,1.718,0,0,0-1.566-1.253H1487.2a.949.949,0,0,0-.941,1.253,1.718,1.718,0,0,0,1.566,1.254Z" transform="translate(-1249.38 -636.523)" fill="#6bb9d9"/>
      <path id="Trazado_228209" data-name="Trazado 228209" d="M1517.619,789.659a.949.949,0,0,0,.941-1.253,1.718,1.718,0,0,0-1.566-1.254h-22.325a.949.949,0,0,0-.941,1.254,1.718,1.718,0,0,0,1.566,1.253Z" transform="translate(-1255.661 -661.714)" fill="#6bb9d9"/>
      <path id="Trazado_228210" data-name="Trazado 228210" d="M1526.032,818.374a1.718,1.718,0,0,0-1.566-1.254h-22.325a.949.949,0,0,0-.941,1.254,1.718,1.718,0,0,0,1.566,1.254h22.326a.949.949,0,0,0,.941-1.254" transform="translate(-1261.943 -686.907)" fill="#6bb9d9"/>
      <path id="Trazado_228211" data-name="Trazado 228211" d="M596.134,419.044l-1.558-6.25a2.856,2.856,0,0,0-2.6-2.084H413.03a1.578,1.578,0,0,0-1.564,2.084l1.558,6.25a2.856,2.856,0,0,0,2.6,2.084H594.57a1.578,1.578,0,0,0,1.564-2.084" transform="translate(-345.842 -345.26)" fill="#6bb9d9"/>
      <path id="Trazado_228212" data-name="Trazado 228212" d="M539.879,410.71l2.6,10.418H415.627a2.857,2.857,0,0,1-2.6-2.084l-1.558-6.25a1.578,1.578,0,0,1,1.564-2.084Z" transform="translate(-345.842 -345.26)" fill="#496087"/>
      <path id="Trazado_228213" data-name="Trazado 228213" d="M1360.627,431.375l.2.8h1.98l-1.033,3.412h1.047l1.013-3.514-.174-.7Z" transform="translate(-1143.804 -362.633)" fill="#d5f5ff"/>
      <path id="Trazado_228214" data-name="Trazado 228214" d="M1387.04,430.923c-1.119,0-1.639.957-1.334,2.178a2.672,2.672,0,0,0,2.409,2.178c1.125,0,1.639-.957,1.334-2.178a2.682,2.682,0,0,0-2.408-2.178m.878,3.52c-.56,0-1.069-.572-1.261-1.342s.026-1.342.58-1.342,1.071.578,1.261,1.342-.02,1.342-.58,1.342" transform="translate(-1164.814 -362.252)" fill="#d5f5ff"/>
      <path id="Trazado_228215" data-name="Trazado 228215" d="M1433.3,445.669a1.383,1.383,0,0,0-1.286-1.077.781.781,0,0,0-.76,1.077,1.383,1.383,0,0,0,1.285,1.077.783.783,0,0,0,.761-1.077m-.885.53c-.241,0-.458-.247-.529-.53s0-.53.253-.53.458.247.529.53,0,.53-.253.53" transform="translate(-1203.144 -373.743)" fill="#d5f5ff"/>
      <path id="Trazado_228216" data-name="Trazado 228216" d="M1421.495,431.375l-2.025,4.212h.716l2.025-4.212Z" transform="translate(-1193.269 -362.633)" fill="#d5f5ff"/>
      <path id="Trazado_228217" data-name="Trazado 228217" d="M1413.693,432.15a1.383,1.383,0,0,0-1.285-1.077.781.781,0,0,0-.76,1.077,1.383,1.383,0,0,0,1.286,1.077.783.783,0,0,0,.76-1.077m-1.414,0c-.072-.289,0-.53.253-.53s.459.247.529.53,0,.53-.253.53-.459-.247-.529-.53" transform="translate(-1186.661 -362.378)" fill="#d5f5ff"/>
      <path id="Trazado_228218" data-name="Trazado 228218" d="M598.7,734.589a1.778,1.778,0,0,0,1.767-2.354,3.215,3.215,0,0,0-2.941-2.354H493.186a1.778,1.778,0,0,0-1.767,2.354,3.215,3.215,0,0,0,2.941,2.354Z" transform="translate(-413.047 -613.57)" fill="#6bb9d9"/>
      <path id="Trazado_228219" data-name="Trazado 228219" d="M610.927,783.627a1.778,1.778,0,0,0,1.767-2.354,3.215,3.215,0,0,0-2.941-2.354H505.412a1.778,1.778,0,0,0-1.767,2.354,3.216,3.216,0,0,0,2.941,2.354Z" transform="translate(-423.325 -654.793)" fill="#6bb9d9"/>
      <path id="Trazado_228220" data-name="Trazado 228220" d="M625.464,832.491a3.215,3.215,0,0,0-2.941-2.354H518.182a1.778,1.778,0,0,0-1.767,2.354,3.216,3.216,0,0,0,2.941,2.354H623.7a1.779,1.779,0,0,0,1.767-2.354" transform="translate(-434.06 -697.85)" fill="#6bb9d9"/>
      <path id="Trazado_228221" data-name="Trazado 228221" d="M776.562,545.085a4.041,4.041,0,0,0,3.7,2.959H791.9a2.235,2.235,0,0,0,2.221-2.959l-5.626-22.562a4.041,4.041,0,0,0-3.7-2.959H773.158a2.235,2.235,0,0,0-2.221,2.959Z" transform="translate(-648.007 -436.768)" fill="#6bb9d9"/>
      <path id="Trazado_228222" data-name="Trazado 228222" d="M902.964,545.085a4.042,4.042,0,0,0,3.7,2.959H918.3a2.235,2.235,0,0,0,2.221-2.959l-5.625-22.562a4.041,4.041,0,0,0-3.7-2.959H899.559a2.235,2.235,0,0,0-2.221,2.959Z" transform="translate(-754.266 -436.768)" fill="#6bb9d9"/>
      <path id="Trazado_228223" data-name="Trazado 228223" d="M1027,545.085a4.042,4.042,0,0,0,3.7,2.959h11.638a2.235,2.235,0,0,0,2.221-2.959l-5.625-22.562a4.041,4.041,0,0,0-3.7-2.959H1023.6a2.235,2.235,0,0,0-2.221,2.959Z" transform="translate(-858.54 -436.768)" fill="#6bb9d9"/>
      <path id="Trazado_228224" data-name="Trazado 228224" d="M496.579,543.085l-4.628-18.562a6.774,6.774,0,0,0-6.2-4.959h-39.4a3.746,3.746,0,0,0-3.722,4.959l4.628,18.562a6.773,6.773,0,0,0,6.2,4.959h39.4a3.747,3.747,0,0,0,3.722-4.959" transform="translate(-371.968 -436.768)" fill="#6bb9d9"/>
      <path id="Trazado_228225" data-name="Trazado 228225" d="M509.1,552.333a.855.855,0,0,0,.847-1.129,1.547,1.547,0,0,0-1.41-1.129H471.721a.855.855,0,0,0-.847,1.129,1.547,1.547,0,0,0,1.41,1.129Z" transform="translate(-395.808 -462.417)" fill="#d5f5ff"/>
      <path id="Trazado_228226" data-name="Trazado 228226" d="M515.891,579.576a.855.855,0,0,0,.847-1.129,1.547,1.547,0,0,0-1.41-1.129H478.513a.855.855,0,0,0-.847,1.129,1.547,1.547,0,0,0,1.41,1.129Z" transform="translate(-401.518 -485.318)" fill="#d5f5ff"/>
      <path id="Trazado_228227" data-name="Trazado 228227" d="M523.531,605.691a1.547,1.547,0,0,0-1.41-1.129H485.306a.855.855,0,0,0-.847,1.129,1.547,1.547,0,0,0,1.41,1.129h36.815a.855.855,0,0,0,.847-1.129" transform="translate(-407.228 -508.221)" fill="#d5f5ff"/>
      <path id="Trazado_228228" data-name="Trazado 228228" d="M501.6,635.075h-8.685a.855.855,0,0,0-.847,1.129,1.547,1.547,0,0,0,1.41,1.129h8.685a.855.855,0,0,0,.847-1.129,1.547,1.547,0,0,0-1.41-1.129" transform="translate(-413.623 -533.872)" fill="#d5f5ff"/>
      <path id="Trazado_228229" data-name="Trazado 228229" d="M1595.575,913.079l-2.427-9.736a3.553,3.553,0,0,0-3.25-2.6h-20.667a1.965,1.965,0,0,0-1.952,2.6l2.427,9.736a3.553,3.553,0,0,0,3.25,2.6h20.666a1.965,1.965,0,0,0,1.953-2.6" transform="translate(-1317.457 -757.203)" fill="#6bb9d9"/>
      <path id="Trazado_228230" data-name="Trazado 228230" d="M1602.142,917.93a.448.448,0,0,0,.444-.592.811.811,0,0,0-.74-.592h-19.31a.448.448,0,0,0-.444.592.811.811,0,0,0,.74.592Z" transform="translate(-1329.962 -770.657)" fill="#d5f5ff"/>
      <path id="Trazado_228231" data-name="Trazado 228231" d="M1605.7,932.219a.448.448,0,0,0,.445-.592.812.812,0,0,0-.74-.592H1586.1a.448.448,0,0,0-.445.592.812.812,0,0,0,.74.592Z" transform="translate(-1332.957 -782.669)" fill="#d5f5ff"/>
      <path id="Trazado_228232" data-name="Trazado 228232" d="M1609.713,945.917a.812.812,0,0,0-.74-.592h-19.31a.448.448,0,0,0-.444.592.811.811,0,0,0,.74.592h19.31a.448.448,0,0,0,.445-.592" transform="translate(-1335.952 -794.681)" fill="#d5f5ff"/>
      <path id="Trazado_228233" data-name="Trazado 228233" d="M1598.208,961.331h-4.556a.448.448,0,0,0-.444.592.811.811,0,0,0,.74.592h4.556a.449.449,0,0,0,.445-.592.812.812,0,0,0-.74-.592" transform="translate(-1339.306 -808.137)" fill="#d5f5ff"/>
      <path id="Trazado_228234" data-name="Trazado 228234" d="M632.357,924.087a.671.671,0,0,0,.667-.888,1.213,1.213,0,0,0-1.109-.888H592.557a.671.671,0,0,0-.667.888,1.213,1.213,0,0,0,1.109.888Z" transform="translate(-497.546 -775.335)" fill="#496087"/>
      <path id="Trazado_228235" data-name="Trazado 228235" d="M636.968,942.583a.671.671,0,0,0,.666-.888,1.213,1.213,0,0,0-1.109-.888H597.168a.671.671,0,0,0-.667.888,1.213,1.213,0,0,0,1.109.888Z" transform="translate(-501.423 -790.883)" fill="#496087"/>
      <path id="Trazado_228236" data-name="Trazado 228236" d="M641.342,960.126H601.985a.671.671,0,0,0-.666.888,1.213,1.213,0,0,0,1.109.888h39.357a.671.671,0,0,0,.667-.888,1.213,1.213,0,0,0-1.109-.888" transform="translate(-505.472 -807.124)" fill="#496087"/>
      <path id="Trazado_228237" data-name="Trazado 228237" d="M951.086,924.087a.671.671,0,0,0,.667-.888,1.213,1.213,0,0,0-1.109-.888H911.286a.671.671,0,0,0-.667.888,1.213,1.213,0,0,0,1.109.888Z" transform="translate(-765.484 -775.335)" fill="#496087"/>
      <path id="Trazado_228238" data-name="Trazado 228238" d="M955.7,942.583a.671.671,0,0,0,.667-.888,1.213,1.213,0,0,0-1.109-.888H915.9a.671.671,0,0,0-.667.888,1.213,1.213,0,0,0,1.109.888Z" transform="translate(-769.362 -790.883)" fill="#496087"/>
      <path id="Trazado_228239" data-name="Trazado 228239" d="M960.073,960.126H920.716a.671.671,0,0,0-.666.888,1.212,1.212,0,0,0,1.109.888h39.357a.671.671,0,0,0,.667-.888,1.213,1.213,0,0,0-1.109-.888" transform="translate(-773.412 -807.124)" fill="#496087"/>
      <path id="Trazado_228240" data-name="Trazado 228240" d="M1260.01,924.087a.671.671,0,0,0,.667-.888,1.213,1.213,0,0,0-1.109-.888H1220.21a.671.671,0,0,0-.667.888,1.213,1.213,0,0,0,1.109.888Z" transform="translate(-1025.179 -775.335)" fill="#496087"/>
      <path id="Trazado_228241" data-name="Trazado 228241" d="M1264.622,942.583a.671.671,0,0,0,.666-.888,1.212,1.212,0,0,0-1.109-.888h-39.357a.671.671,0,0,0-.667.888,1.213,1.213,0,0,0,1.109.888Z" transform="translate(-1029.057 -790.883)" fill="#496087"/>
      <path id="Trazado_228242" data-name="Trazado 228242" d="M1270.1,961.015a1.213,1.213,0,0,0-1.109-.888h-39.357a.671.671,0,0,0-.667.888,1.213,1.213,0,0,0,1.109.888h39.357a.671.671,0,0,0,.667-.888" transform="translate(-1033.105 -807.125)" fill="#496087"/>
      <path id="Trazado_228243" data-name="Trazado 228243" d="M701.966,912.121H550.192a3.318,3.318,0,0,1-3.035-2.421l-3.031-12.156a2.166,2.166,0,0,1,.343-1.876,2.039,2.039,0,0,1,1.653-.761H697.9a3.319,3.319,0,0,1,3.035,2.421l3.031,12.156a2.167,2.167,0,0,1-.343,1.875,2.039,2.039,0,0,1-1.653.761M546.122,895.8a1.169,1.169,0,0,0-.951.419,1.271,1.271,0,0,0-.181,1.112l3.031,12.156a2.416,2.416,0,0,0,2.172,1.746H701.966a1.169,1.169,0,0,0,.951-.419,1.27,1.27,0,0,0,.181-1.113l-3.031-12.156A2.416,2.416,0,0,0,697.9,895.8Z" transform="translate(-457.353 -752.299)" fill="#496087"/>
      <path id="Trazado_228244" data-name="Trazado 228244" d="M219.732,1072.125c-.025.017-.053.04-.087.066-1.309,1-10.209,7.073-30.2,4.384-.136.768-.264,1.531-.383,2.282-.06.377-.12.752-.174,1.124s-.11.733-.162,1.1l0,.02c-.052.366-.1.728-.151,1.092s-.1.724-.142,1.085-.088.712-.13,1.066l0,.018c-.04.353-.081.7-.118,1.052s-.074.7-.11,1.049-.069.693-.1,1.038-.062.684-.089,1.025c-.021.249-.042.5-.06.742-.017.2-.032.408-.044.61-.013.172-.024.345-.036.518-.006.09-.013.181-.017.271-.018.289-.036.576-.052.863-.017.307-.033.614-.048.919,0,.059-.005.116-.008.176-.01.229-.02.455-.029.68-.007.18-.015.357-.019.535-.02.573-.034,1.137-.044,1.7,0,.258-.009.513-.011.767,0,.3,0,.6,0,.9,0,.024,0,.045,0,.069,0,.29,0,.578.005.865q0,.358.009.711c0,.2.007.4.012.6,0,.07,0,.142,0,.211.006.21.012.417.018.625.007.224.015.444.024.664q.016.358.033.709c.012.276.026.549.043.823,0,.024,0,.05,0,.074.015.269.033.535.051.8s.039.557.061.832.044.551.069.821.047.543.074.81.051.51.079.763c0,.03.007.061.009.091.027.248.055.491.084.735s.062.514.1.771c0,.006,0,.012,0,.02.034.253.066.5.1.756s.071.5.109.751c0,.006,0,.012,0,.02.038.243.076.484.114.726a.031.031,0,0,1,0,.012c.039.246.081.488.123.73s.085.486.13.727c.054.3.109.588.166.879.037.181.072.363.109.542.047.227.094.45.141.672l.02.087c.044.209.092.418.138.623.051.228.1.452.159.676q.165.692.341,1.361c.053.2.108.405.163.606s.115.418.175.626c.042.153.086.3.131.455s.087.3.134.447c.035.118.071.234.108.351q.094.307.189.607.2.6.4,1.187c.066.195.135.388.2.579s.138.382.208.57q.287.773.588,1.513c.059.148.12.294.181.44q.131.316.265.626c.07.161.14.323.213.483q.579,1.3,1.192,2.5c.081.158.161.311.242.465q.289.547.584,1.073c.067.123.138.246.208.367s.13.226.2.338c.076.131.152.26.227.386.176.292.351.578.529.859.06.1.122.195.182.289q.288.451.581.882.1.156.207.306.685,1,1.369,1.878c.084.109.17.218.254.324q.66.834,1.307,1.571c.137.156.274.31.41.459.012.012.024.024.035.038.081.089.163.178.244.265.487.527.965,1.011,1.426,1.453.076.073.152.147.229.218.151.145.3.283.45.417s.28.253.416.373c.007,0,.014.012.021.017.136.118.268.233.4.344.224.189.442.37.652.539l.176.139c.382.3.74.57,1.067.8l.287.2c.274.188.523.352.741.489.066.044.128.083.189.12.134.082.252.155.357.215.023.014.047.026.069.038s.045.028.066.04c.241.139.373.2.373.2q1.916-.623,3.712-1.377a48.345,48.345,0,0,0,18.276-13.54c.013-.016.025-.029.036-.045,10.188-12.01,14.569-27.551,16.44-37.841.205-1.14.383-2.215.533-3.213-20.1-4.573-26.112-13.676-26.741-14.717" transform="translate(-157.624 -901.275)" fill="#496087"/>
      <path id="Trazado_228245" data-name="Trazado 228245" d="M255.1,1108.051c-1.706,9.381-5.7,23.55-14.988,34.5-.01.015-.021.027-.033.041a44.074,44.074,0,0,1-16.662,12.344q-1.638.687-3.384,1.255s-.12-.058-.34-.184l-.06-.036c-.02-.011-.041-.022-.063-.035-.1-.055-.2-.122-.325-.2-.055-.033-.113-.069-.172-.109-.2-.125-.426-.274-.675-.446l-.262-.185c-.3-.213-.625-.457-.973-.733l-.16-.127c-.192-.154-.39-.318-.595-.491-.118-.1-.238-.206-.362-.313l-.019-.016q-.185-.164-.379-.34c-.136-.122-.272-.248-.41-.38-.07-.065-.139-.132-.209-.2-.42-.4-.855-.844-1.3-1.325-.075-.079-.149-.161-.223-.241-.01-.013-.021-.024-.032-.035-.124-.136-.249-.277-.374-.419q-.589-.671-1.191-1.432c-.077-.1-.155-.2-.231-.3q-.624-.805-1.248-1.712c-.063-.091-.126-.184-.189-.279q-.266-.393-.529-.8c-.055-.086-.112-.174-.166-.264-.162-.256-.322-.516-.482-.783-.068-.116-.138-.233-.207-.353-.06-.1-.119-.2-.178-.308s-.128-.222-.19-.335q-.269-.48-.532-.978c-.075-.14-.147-.28-.221-.424q-.557-1.086-1.087-2.276c-.066-.146-.13-.294-.194-.441q-.123-.283-.241-.571c-.056-.133-.112-.266-.165-.4q-.275-.674-.536-1.379c-.063-.171-.126-.345-.189-.52s-.125-.35-.186-.528q-.184-.533-.363-1.082-.087-.274-.172-.553c-.033-.108-.067-.213-.1-.32-.042-.136-.083-.271-.122-.408s-.081-.275-.119-.414c-.055-.189-.108-.378-.16-.571s-.1-.366-.149-.552q-.162-.61-.311-1.241c-.05-.2-.1-.409-.144-.617-.042-.187-.086-.378-.126-.568l-.018-.079c-.043-.2-.087-.405-.129-.612-.034-.164-.066-.329-.1-.494-.052-.265-.1-.531-.151-.8-.04-.219-.08-.44-.118-.663s-.076-.441-.112-.665a.024.024,0,0,0,0-.011c-.034-.22-.069-.44-.1-.662,0-.007,0-.013,0-.019-.035-.227-.068-.456-.1-.685s-.062-.459-.093-.689a.169.169,0,0,0,0-.019c-.03-.234-.059-.467-.087-.7s-.052-.444-.077-.67c0-.027-.006-.055-.008-.083-.025-.231-.049-.462-.072-.7s-.048-.49-.068-.739-.043-.5-.063-.749-.038-.5-.055-.758-.033-.484-.046-.729c0-.022,0-.046,0-.068-.015-.249-.028-.5-.039-.75q-.015-.321-.03-.647c-.007-.2-.015-.4-.022-.605s-.011-.379-.017-.57c0-.063,0-.129,0-.193-.005-.182-.01-.366-.011-.551q-.007-.322-.008-.648c0-.262,0-.524,0-.789,0-.022,0-.042,0-.063,0-.27,0-.541,0-.816,0-.232.006-.465.01-.7.009-.511.022-1.025.04-1.547,0-.162.011-.324.017-.488.008-.205.018-.412.027-.62,0-.054,0-.106.007-.16.014-.278.028-.559.044-.839.015-.262.031-.523.048-.787,0-.082.01-.165.016-.247.01-.158.02-.315.033-.473.011-.184.025-.37.04-.556.017-.225.036-.45.055-.677.025-.311.052-.623.081-.935s.059-.629.091-.946.064-.637.1-.957.072-.638.108-.959l0-.016c.038-.323.076-.646.119-.972s.084-.659.129-.989.09-.661.138-1l0-.018q.071-.5.148-1c.05-.339.1-.681.159-1.024.109-.685.225-1.38.349-2.08,18.228,2.451,26.342-3.084,27.536-4,.031-.023.057-.044.079-.06.574.949,6.057,9.248,24.379,13.417-.137.91-.3,1.89-.486,2.929" transform="translate(-169.666 -917.735)" fill="#67a6b9"/>
      <path id="Trazado_228246" data-name="Trazado 228246" d="M231.289,1091.292,219.7,1155.658c-.12-.068-.271-.157-.449-.267-.055-.034-.113-.069-.172-.109-.2-.125-.425-.274-.675-.446l-.262-.185c-.3-.213-.625-.457-.973-.733l-.16-.127c-.192-.154-.39-.318-.595-.491-.118-.1-.238-.206-.362-.313l-.019-.016q-.185-.164-.379-.34c-.136-.122-.272-.249-.41-.38-.07-.065-.139-.132-.209-.2-.42-.4-.855-.845-1.3-1.325-.075-.079-.149-.161-.223-.241-.011-.013-.021-.024-.032-.035-.124-.136-.249-.277-.374-.419q-.589-.671-1.192-1.432c-.077-.1-.155-.2-.231-.3q-.624-.806-1.248-1.713c-.064-.091-.126-.184-.189-.279q-.266-.393-.529-.8c-.055-.086-.112-.174-.167-.264-.162-.256-.322-.516-.482-.783-.068-.116-.137-.233-.206-.353-.06-.1-.119-.2-.178-.307s-.128-.222-.19-.335q-.269-.48-.532-.978c-.074-.14-.147-.28-.221-.424q-.557-1.086-1.087-2.276c-.066-.146-.13-.293-.194-.441-.082-.189-.162-.379-.241-.571-.056-.133-.112-.267-.165-.4q-.275-.675-.536-1.379c-.063-.171-.126-.345-.189-.52s-.125-.35-.186-.528q-.184-.532-.363-1.082-.087-.273-.172-.552c-.033-.108-.067-.213-.1-.32-.042-.136-.083-.271-.122-.408s-.081-.276-.119-.415c-.055-.189-.108-.378-.16-.571s-.1-.366-.149-.552q-.162-.61-.311-1.241c-.05-.2-.1-.409-.144-.617-.043-.187-.086-.378-.126-.568l-.018-.079c-.043-.2-.087-.4-.129-.612-.034-.164-.066-.329-.1-.495-.052-.265-.1-.531-.151-.8-.04-.219-.08-.44-.118-.663s-.076-.442-.112-.665a.025.025,0,0,0,0-.011c-.035-.22-.069-.44-.1-.662,0-.007,0-.013,0-.018-.035-.227-.068-.456-.1-.685s-.062-.459-.093-.689a.156.156,0,0,0,0-.018c-.03-.234-.059-.468-.087-.7s-.052-.444-.077-.67c0-.027-.006-.055-.009-.083-.025-.231-.049-.462-.072-.7s-.048-.491-.068-.739-.043-.5-.062-.749-.038-.5-.055-.758-.033-.484-.046-.729c0-.022,0-.046,0-.068-.015-.249-.028-.5-.039-.75q-.015-.321-.03-.647c-.007-.2-.015-.4-.022-.605s-.011-.379-.017-.57c0-.064,0-.129,0-.193-.005-.182-.01-.366-.011-.551q-.007-.322-.008-.648c0-.261,0-.524,0-.789,0-.022,0-.042,0-.063,0-.27,0-.542,0-.816,0-.232.006-.465.01-.7.009-.511.022-1.026.04-1.548,0-.163.011-.324.017-.488.008-.205.018-.412.026-.62,0-.054,0-.106.007-.16.014-.278.028-.558.044-.838.015-.262.031-.523.048-.787,0-.083.01-.165.015-.247.01-.157.02-.315.033-.473.011-.185.025-.37.04-.556.017-.225.036-.45.055-.677q.038-.466.081-.935c.028-.314.059-.629.091-.946s.064-.637.1-.957.071-.637.108-.959l0-.016c.038-.323.077-.646.119-.971s.085-.659.13-.99.09-.661.138-1l0-.018q.071-.5.147-1c.051-.339.1-.68.159-1.024q.163-1.028.349-2.081c19.836,2.668,27.694-4.123,27.694-4.123" transform="translate(-169.666 -917.388)" fill="#538c9f"/>
    </g>
  </g>
</svg>
