<svg xmlns="http://www.w3.org/2000/svg" width="151" height="151" viewBox="0 0 151 151">
  <g id="Grupo_117861" data-name="Grupo 117861" transform="translate(-357 -3365)">
    <circle id="Elipse_7008" data-name="Elipse 7008" cx="75.5" cy="75.5" r="75.5" transform="translate(357 3365)" fill="#fff"/>
    <path id="Trazado_232560" data-name="Trazado 232560" d="M50.034,19.494H47.117V26H43.455V8.227h6.6a7.465,7.465,0,0,1,4.858,1.4A4.845,4.845,0,0,1,56.626,13.6a5.468,5.468,0,0,1-.787,3.033,5.37,5.37,0,0,1-2.386,1.935L57.3,25.829V26H53.367Zm-2.917-2.966h2.954a3.025,3.025,0,0,0,2.136-.7,2.509,2.509,0,0,0,.757-1.935,2.685,2.685,0,0,0-.714-1.978,2.968,2.968,0,0,0-2.191-.72H47.117ZM70.1,18.3H63.071v4.761h8.252V26H59.409V8.227H71.3v2.966H63.071v4.236H70.1ZM73.472,26V8.227H78.94a8.3,8.3,0,0,1,4.193,1.056,7.363,7.363,0,0,1,2.887,3,9.262,9.262,0,0,1,1.038,4.425v.818a9.288,9.288,0,0,1-1.019,4.407,7.3,7.3,0,0,1-2.875,2.991A8.368,8.368,0,0,1,78.977,26Zm3.662-14.807V23.058H78.9a3.977,3.977,0,0,0,3.284-1.4,6.344,6.344,0,0,0,1.16-4.016V16.7a6.444,6.444,0,0,0-1.123-4.108,3.963,3.963,0,0,0-3.284-1.4Z" transform="translate(368 3424)" fill="#ee747b"/>
  </g>
</svg>
