<svg xmlns="http://www.w3.org/2000/svg" width="151" height="151" viewBox="0 0 151 151">
  <g id="Grupo_117862" data-name="Grupo 117862" transform="translate(-725 -3365)">
    <circle id="Elipse_7009" data-name="Elipse 7009" cx="75.5" cy="75.5" r="75.5" transform="translate(725 3365)" fill="#fff"/>
    <path id="Trazado_232561" data-name="Trazado 232561" d="M41.27,23.754a6.356,6.356,0,0,1-2.8,1.837,11.707,11.707,0,0,1-4,.653,7.932,7.932,0,0,1-4.047-1.007,6.717,6.717,0,0,1-2.686-2.924,10.29,10.29,0,0,1-.97-4.5V16.6a10.928,10.928,0,0,1,.9-4.608,6.637,6.637,0,0,1,2.588-2.979,7.454,7.454,0,0,1,3.961-1.031A7.424,7.424,0,0,1,39.158,9.49a6.443,6.443,0,0,1,2.112,4.388H37.705a3.544,3.544,0,0,0-1.08-2.234,3.45,3.45,0,0,0-2.3-.708,3.247,3.247,0,0,0-2.844,1.4,7.382,7.382,0,0,0-.989,4.175V17.65a7.027,7.027,0,0,0,1.062,4.224A3.637,3.637,0,0,0,34.666,23.3a4.062,4.062,0,0,0,2.942-.879V19.359H34.275v-2.7H41.27Zm9.546-4.26H47.9V26H44.236V8.227h6.6A7.465,7.465,0,0,1,55.7,9.63,4.845,4.845,0,0,1,57.407,13.6a5.468,5.468,0,0,1-.787,3.033,5.37,5.37,0,0,1-2.386,1.935l3.845,7.263V26H54.148ZM47.9,16.527h2.954a3.025,3.025,0,0,0,2.136-.7,2.509,2.509,0,0,0,.757-1.935,2.685,2.685,0,0,0-.714-1.978,2.968,2.968,0,0,0-2.191-.72H47.9ZM70.884,18.3H63.853v4.761H72.1V26H60.19V8.227H72.08v2.966H63.853v4.236h7.031Zm14.063,0H77.915v4.761h8.252V26H74.253V8.227h11.89v2.966H77.915v4.236h7.031ZM102.769,26H99.106L91.978,14.306V26H88.315V8.227h3.662l7.141,11.719V8.227h3.65Z" transform="translate(736 3424)" fill="#28ae00"/>
  </g>
</svg>
