<svg xmlns="http://www.w3.org/2000/svg" width="151" height="151" viewBox="0 0 151 151">
  <g id="Grupo_117863" data-name="Grupo 117863" transform="translate(-1092 -3365)">
    <circle id="Elipse_7010" data-name="Elipse 7010" cx="75.5" cy="75.5" r="75.5" transform="translate(1092 3365)" fill="#fff"/>
    <path id="Trazado_232562" data-name="Trazado 232562" d="M11.9,19.494H8.982V26H5.32V8.227h6.6a7.465,7.465,0,0,1,4.858,1.4A4.845,4.845,0,0,1,18.491,13.6a5.468,5.468,0,0,1-.787,3.033,5.37,5.37,0,0,1-2.386,1.935l3.845,7.263V26H15.232ZM8.982,16.527h2.954a3.025,3.025,0,0,0,2.136-.7,2.509,2.509,0,0,0,.757-1.935,2.685,2.685,0,0,0-.714-1.978,2.968,2.968,0,0,0-2.191-.72H8.982ZM31.968,18.3H24.937v4.761h8.252V26H21.274V8.227h11.89v2.966H24.937v4.236h7.031Zm14.063.439H39V26H35.337V8.227H46.909v2.966H39v4.59H46.03Zm10.693,3.6H50.3L49.082,26H45.188L51.8,8.227H55.2L61.851,26H57.957Zm-5.432-2.966h4.443L53.5,12.719Zm26.172.708A6.289,6.289,0,0,1,75.345,24.6a7.438,7.438,0,0,1-5.035,1.648,6.688,6.688,0,0,1-5.377-2.3,9.435,9.435,0,0,1-1.959-6.317V16.54a10.654,10.654,0,0,1,.9-4.517,6.769,6.769,0,0,1,2.582-3,8.068,8.068,0,0,1,8.856.6,6.759,6.759,0,0,1,2.173,4.626H73.826a3.712,3.712,0,0,0-.958-2.5,3.548,3.548,0,0,0-2.509-.775,3.112,3.112,0,0,0-2.74,1.312,7.354,7.354,0,0,0-.934,4.071v1.343a7.871,7.871,0,0,0,.873,4.211,3.054,3.054,0,0,0,2.753,1.331,3.615,3.615,0,0,0,2.533-.775,3.5,3.5,0,0,0,.958-2.4Zm15.43-8.887H87.449V26H83.787V11.193H78.416V8.227H92.893Zm16.345,6.323a10.729,10.729,0,0,1-.928,4.6,6.987,6.987,0,0,1-2.655,3.052,7.845,7.845,0,0,1-7.9.012,7.055,7.055,0,0,1-2.686-3.033,10.422,10.422,0,0,1-.964-4.535v-.879a10.673,10.673,0,0,1,.946-4.62,7.044,7.044,0,0,1,2.673-3.064,7.834,7.834,0,0,1,7.9,0,7.044,7.044,0,0,1,2.673,3.064,10.643,10.643,0,0,1,.946,4.608Zm-3.711-.806a7.479,7.479,0,0,0-1-4.248,3.536,3.536,0,0,0-5.7-.018,7.394,7.394,0,0,0-1.013,4.205v.867a7.573,7.573,0,0,0,1,4.224,3.505,3.505,0,0,0,5.713.055,7.529,7.529,0,0,0,1-4.218Zm12.952,2.783h-2.917V26H111.9V8.227h6.6a7.465,7.465,0,0,1,4.858,1.4,4.845,4.845,0,0,1,1.709,3.967,5.468,5.468,0,0,1-.787,3.033,5.37,5.37,0,0,1-2.386,1.935l3.845,7.263V26h-3.931Zm-2.917-2.966h2.954a3.025,3.025,0,0,0,2.136-.7,2.509,2.509,0,0,0,.757-1.935,2.685,2.685,0,0,0-.714-1.978,2.968,2.968,0,0,0-2.191-.72h-2.942Z" transform="translate(1103 3424)" fill="#9b5ec9"/>
  </g>
</svg>
